<?xml version="1.0" encoding="UTF-8" standalone="no"?><svg xmlns="http://www.w3.org/2000/svg" xmlns:xlink="http://www.w3.org/1999/xlink" contentScriptType="application/ecmascript" contentStyleType="text/css" height="789px" preserveAspectRatio="none" style="width:1260px;height:789px;" version="1.1" viewBox="0 0 1260 789" width="1260px" zoomAndPan="magnify"><defs><filter height="300%" id="f1rgoeje3zqpim" width="300%" x="-1" y="-1"><feGaussianBlur result="blurOut" stdDeviation="2.0"/><feColorMatrix in="blurOut" result="blurOut2" type="matrix" values="0 0 0 0 0 0 0 0 0 0 0 0 0 0 0 0 0 0 .4 0"/><feOffset dx="4.0" dy="4.0" in="blurOut2" result="blurOut3"/><feBlend in="SourceGraphic" in2="blurOut3" mode="normal"/></filter></defs><g><rect fill="#FFFFFF" filter="url(#f1rgoeje3zqpim)" height="686.7969" style="stroke:#A80036;stroke-width:1.0;" width="10" x="106" y="50.2969"/><rect fill="#FFFFFF" filter="url(#f1rgoeje3zqpim)" height="29.1328" style="stroke:#A80036;stroke-width:1.0;" width="10" x="454" y="113.5625"/><rect fill="#FFFFFF" filter="url(#f1rgoeje3zqpim)" height="30" style="stroke:#A80036;stroke-width:1.0;" width="10" x="569" y="252.8984"/><rect fill="#FFFFFF" filter="url(#f1rgoeje3zqpim)" height="71.2656" style="stroke:#A80036;stroke-width:1.0;" width="10" x="569" y="420.2969"/><rect fill="#FFFFFF" filter="url(#f1rgoeje3zqpim)" height="30" style="stroke:#A80036;stroke-width:1.0;" width="10" x="720" y="312.0313"/><rect fill="#FFFFFF" filter="url(#f1rgoeje3zqpim)" height="30" style="stroke:#A80036;stroke-width:1.0;" width="10" x="834.5" y="520.6953"/><rect fill="#FFFFFF" filter="url(#f1rgoeje3zqpim)" height="30" style="stroke:#A80036;stroke-width:1.0;" width="10" x="938" y="579.8281"/><rect fill="#FFFFFF" filter="url(#f1rgoeje3zqpim)" height="30" style="stroke:#A80036;stroke-width:1.0;" width="10" x="1046" y="638.9609"/><rect fill="#FFFFFF" filter="url(#f1rgoeje3zqpim)" height="30" style="stroke:#A80036;stroke-width:1.0;" width="10" x="1170" y="698.0938"/><rect fill="#FFFFFF" filter="url(#f1rgoeje3zqpim)" height="192.3359" style="stroke:#000000;stroke-width:2.0;" width="766.5" x="39" y="157.6953"/><rect fill="#FFFFFF" height="133.0703" style="stroke:none;stroke-width:1.0;" width="766.5" x="39" y="216.9609"/><line style="stroke:#A80036;stroke-width:1.0;stroke-dasharray:5.0,5.0;" x1="111" x2="111" y1="40.2969" y2="746.0938"/><line style="stroke:#A80036;stroke-width:1.0;stroke-dasharray:5.0,5.0;" x1="458.5" x2="458.5" y1="40.2969" y2="746.0938"/><line style="stroke:#A80036;stroke-width:1.0;stroke-dasharray:5.0,5.0;" x1="573.5" x2="573.5" y1="40.2969" y2="746.0938"/><line style="stroke:#A80036;stroke-width:1.0;stroke-dasharray:5.0,5.0;" x1="724.5" x2="724.5" y1="40.2969" y2="746.0938"/><line style="stroke:#A80036;stroke-width:1.0;stroke-dasharray:5.0,5.0;" x1="839.5" x2="839.5" y1="40.2969" y2="746.0938"/><line style="stroke:#A80036;stroke-width:1.0;stroke-dasharray:5.0,5.0;" x1="942.5" x2="942.5" y1="40.2969" y2="746.0938"/><line style="stroke:#A80036;stroke-width:1.0;stroke-dasharray:5.0,5.0;" x1="1050.5" x2="1050.5" y1="40.2969" y2="746.0938"/><line style="stroke:#A80036;stroke-width:1.0;stroke-dasharray:5.0,5.0;" x1="1174.5" x2="1174.5" y1="40.2969" y2="746.0938"/><rect fill="#FEFECE" filter="url(#f1rgoeje3zqpim)" height="30.2969" style="stroke:#A80036;stroke-width:1.5;" width="120" x="49" y="5"/><text fill="#000000" font-family="sans-serif" font-size="14" lengthAdjust="spacingAndGlyphs" textLength="106" x="56" y="24.9951">WorkflowServer</text><rect fill="#FEFECE" filter="url(#f1rgoeje3zqpim)" height="30.2969" style="stroke:#A80036;stroke-width:1.5;" width="120" x="49" y="745.0938"/><text fill="#000000" font-family="sans-serif" font-size="14" lengthAdjust="spacingAndGlyphs" textLength="106" x="56" y="765.0889">WorkflowServer</text><rect fill="#FEFECE" filter="url(#f1rgoeje3zqpim)" height="30.2969" style="stroke:#A80036;stroke-width:1.5;" width="65" x="424.5" y="5"/><text fill="#000000" font-family="sans-serif" font-size="14" lengthAdjust="spacingAndGlyphs" textLength="51" x="431.5" y="24.9951">System</text><rect fill="#FEFECE" filter="url(#f1rgoeje3zqpim)" height="30.2969" style="stroke:#A80036;stroke-width:1.5;" width="65" x="424.5" y="745.0938"/><text fill="#000000" font-family="sans-serif" font-size="14" lengthAdjust="spacingAndGlyphs" textLength="51" x="431.5" y="765.0889">System</text><rect fill="#FEFECE" filter="url(#f1rgoeje3zqpim)" height="30.2969" style="stroke:#A80036;stroke-width:1.5;" width="137" x="503.5" y="5"/><text fill="#000000" font-family="sans-serif" font-size="14" lengthAdjust="spacingAndGlyphs" textLength="123" x="510.5" y="24.9951">TaskExecutorOne</text><rect fill="#FEFECE" filter="url(#f1rgoeje3zqpim)" height="30.2969" style="stroke:#A80036;stroke-width:1.5;" width="137" x="503.5" y="745.0938"/><text fill="#000000" font-family="sans-serif" font-size="14" lengthAdjust="spacingAndGlyphs" textLength="123" x="510.5" y="765.0889">TaskExecutorOne</text><rect fill="#FEFECE" filter="url(#f1rgoeje3zqpim)" height="30.2969" style="stroke:#A80036;stroke-width:1.5;" width="137" x="654.5" y="5"/><text fill="#000000" font-family="sans-serif" font-size="14" lengthAdjust="spacingAndGlyphs" textLength="123" x="661.5" y="24.9951">TaskExecutorTwo</text><rect fill="#FEFECE" filter="url(#f1rgoeje3zqpim)" height="30.2969" style="stroke:#A80036;stroke-width:1.5;" width="137" x="654.5" y="745.0938"/><text fill="#000000" font-family="sans-serif" font-size="14" lengthAdjust="spacingAndGlyphs" textLength="123" x="661.5" y="765.0889">TaskExecutorTwo</text><rect fill="#FEFECE" filter="url(#f1rgoeje3zqpim)" height="30.2969" style="stroke:#A80036;stroke-width:1.5;" width="64" x="805.5" y="5"/><text fill="#000000" font-family="sans-serif" font-size="14" lengthAdjust="spacingAndGlyphs" textLength="50" x="812.5" y="24.9951">Metrics</text><rect fill="#FEFECE" filter="url(#f1rgoeje3zqpim)" height="30.2969" style="stroke:#A80036;stroke-width:1.5;" width="64" x="805.5" y="745.0938"/><text fill="#000000" font-family="sans-serif" font-size="14" lengthAdjust="spacingAndGlyphs" textLength="50" x="812.5" y="765.0889">Metrics</text><rect fill="#FEFECE" filter="url(#f1rgoeje3zqpim)" height="30.2969" style="stroke:#A80036;stroke-width:1.5;" width="115" x="883.5" y="5"/><text fill="#000000" font-family="sans-serif" font-size="14" lengthAdjust="spacingAndGlyphs" textLength="101" x="890.5" y="24.9951">TaskExecution</text><rect fill="#FEFECE" filter="url(#f1rgoeje3zqpim)" height="30.2969" style="stroke:#A80036;stroke-width:1.5;" width="115" x="883.5" y="745.0938"/><text fill="#000000" font-family="sans-serif" font-size="14" lengthAdjust="spacingAndGlyphs" textLength="101" x="890.5" y="765.0889">TaskExecution</text><rect fill="#FEFECE" filter="url(#f1rgoeje3zqpim)" height="30.2969" style="stroke:#A80036;stroke-width:1.5;" width="73" x="1012.5" y="5"/><text fill="#000000" font-family="sans-serif" font-size="14" lengthAdjust="spacingAndGlyphs" textLength="59" x="1019.5" y="24.9951">Request</text><rect fill="#FEFECE" filter="url(#f1rgoeje3zqpim)" height="30.2969" style="stroke:#A80036;stroke-width:1.5;" width="73" x="1012.5" y="745.0938"/><text fill="#000000" font-family="sans-serif" font-size="14" lengthAdjust="spacingAndGlyphs" textLength="59" x="1019.5" y="765.0889">Request</text><rect fill="#FEFECE" filter="url(#f1rgoeje3zqpim)" height="30.2969" style="stroke:#A80036;stroke-width:1.5;" width="147" x="1099.5" y="5"/><text fill="#000000" font-family="sans-serif" font-size="14" lengthAdjust="spacingAndGlyphs" textLength="133" x="1106.5" y="24.9951">RequestRepository</text><rect fill="#FEFECE" filter="url(#f1rgoeje3zqpim)" height="30.2969" style="stroke:#A80036;stroke-width:1.5;" width="147" x="1099.5" y="745.0938"/><text fill="#000000" font-family="sans-serif" font-size="14" lengthAdjust="spacingAndGlyphs" textLength="133" x="1106.5" y="765.0889">RequestRepository</text><rect fill="#FFFFFF" filter="url(#f1rgoeje3zqpim)" height="686.7969" style="stroke:#A80036;stroke-width:1.0;" width="10" x="106" y="50.2969"/><rect fill="#FFFFFF" filter="url(#f1rgoeje3zqpim)" height="29.1328" style="stroke:#A80036;stroke-width:1.0;" width="10" x="454" y="113.5625"/><rect fill="#FFFFFF" filter="url(#f1rgoeje3zqpim)" height="30" style="stroke:#A80036;stroke-width:1.0;" width="10" x="569" y="252.8984"/><rect fill="#FFFFFF" filter="url(#f1rgoeje3zqpim)" height="71.2656" style="stroke:#A80036;stroke-width:1.0;" width="10" x="569" y="420.2969"/><rect fill="#FFFFFF" filter="url(#f1rgoeje3zqpim)" height="30" style="stroke:#A80036;stroke-width:1.0;" width="10" x="720" y="312.0313"/><rect fill="#FFFFFF" filter="url(#f1rgoeje3zqpim)" height="30" style="stroke:#A80036;stroke-width:1.0;" width="10" x="834.5" y="520.6953"/><rect fill="#FFFFFF" filter="url(#f1rgoeje3zqpim)" height="30" style="stroke:#A80036;stroke-width:1.0;" width="10" x="938" y="579.8281"/><rect fill="#FFFFFF" filter="url(#f1rgoeje3zqpim)" height="30" style="stroke:#A80036;stroke-width:1.0;" width="10" x="1046" y="638.9609"/><rect fill="#FFFFFF" filter="url(#f1rgoeje3zqpim)" height="30" style="stroke:#A80036;stroke-width:1.0;" width="10" x="1170" y="698.0938"/><line style="stroke:#A80036;stroke-width:1.0;" x1="116" x2="158" y1="71.4297" y2="71.4297"/><line style="stroke:#A80036;stroke-width:1.0;" x1="158" x2="158" y1="71.4297" y2="84.4297"/><line style="stroke:#A80036;stroke-width:1.0;" x1="117" x2="158" y1="84.4297" y2="84.4297"/><polygon fill="#A80036" points="127,80.4297,117,84.4297,127,88.4297,123,84.4297" style="stroke:#A80036;stroke-width:1.0;"/><text fill="#000000" font-family="sans-serif" font-size="13" lengthAdjust="spacingAndGlyphs" textLength="123" x="123" y="66.3638">managingRequests</text><polygon fill="#A80036" points="442,109.5625,452,113.5625,442,117.5625,446,113.5625" style="stroke:#A80036;stroke-width:1.0;"/><line style="stroke:#A80036;stroke-width:1.0;" x1="116" x2="448" y1="113.5625" y2="113.5625"/><text fill="#000000" font-family="sans-serif" font-size="13" lengthAdjust="spacingAndGlyphs" textLength="109" x="123" y="108.4966">checkAlgorithm()</text><polygon fill="#A80036" points="127,138.6953,117,142.6953,127,146.6953,123,142.6953" style="stroke:#A80036;stroke-width:1.0;"/><line style="stroke:#A80036;stroke-width:1.0;stroke-dasharray:2.0,2.0;" x1="121" x2="458" y1="142.6953" y2="142.6953"/><text fill="#000000" font-family="sans-serif" font-size="13" lengthAdjust="spacingAndGlyphs" textLength="61" x="133" y="137.6294">algorithm</text><path d="M39,157.6953 L103,157.6953 L103,164.6953 L93,174.6953 L39,174.6953 L39,157.6953 " fill="#EEEEEE" style="stroke:#000000;stroke-width:1.0;"/><rect fill="none" height="192.3359" style="stroke:#000000;stroke-width:2.0;" width="766.5" x="39" y="157.6953"/><text fill="#000000" font-family="sans-serif" font-size="13" font-weight="bold" lengthAdjust="spacingAndGlyphs" textLength="19" x="54" y="170.7622">alt</text><text fill="#000000" font-family="sans-serif" font-size="11" font-weight="bold" lengthAdjust="spacingAndGlyphs" textLength="43" x="118" y="169.9058">[FCFS]</text><line style="stroke:#A80036;stroke-width:1.0;" x1="116" x2="158" y1="195.9609" y2="195.9609"/><line style="stroke:#A80036;stroke-width:1.0;" x1="158" x2="158" y1="195.9609" y2="208.9609"/><line style="stroke:#A80036;stroke-width:1.0;" x1="117" x2="158" y1="208.9609" y2="208.9609"/><polygon fill="#A80036" points="127,204.9609,117,208.9609,127,212.9609,123,208.9609" style="stroke:#A80036;stroke-width:1.0;"/><text fill="#000000" font-family="sans-serif" font-size="13" lengthAdjust="spacingAndGlyphs" textLength="239" x="123" y="190.895">verifyLastTaskExecutorToReceiveTask</text><line style="stroke:#000000;stroke-width:1.0;stroke-dasharray:2.0,2.0;" x1="39" x2="805.5" y1="217.9609" y2="217.9609"/><text fill="#000000" font-family="sans-serif" font-size="11" font-weight="bold" lengthAdjust="spacingAndGlyphs" textLength="46" x="44" y="228.1714">[Other]</text><polygon fill="#A80036" points="557,248.8984,567,252.8984,557,256.8984,561,252.8984" style="stroke:#A80036;stroke-width:1.0;"/><line style="stroke:#A80036;stroke-width:1.0;" x1="116" x2="563" y1="252.8984" y2="252.8984"/><text fill="#000000" font-family="sans-serif" font-size="13" lengthAdjust="spacingAndGlyphs" textLength="180" x="123" y="247.8325">askHowManyTasksRunning()</text><polygon fill="#A80036" points="708,308.0313,718,312.0313,708,316.0313,712,312.0313" style="stroke:#A80036;stroke-width:1.0;"/><line style="stroke:#A80036;stroke-width:1.0;" x1="116" x2="714" y1="312.0313" y2="312.0313"/><text fill="#000000" font-family="sans-serif" font-size="13" lengthAdjust="spacingAndGlyphs" textLength="180" x="123" y="306.9653">askHowManyTasksRunning()</text><line style="stroke:#A80036;stroke-width:1.0;" x1="116" x2="158" y1="378.1641" y2="378.1641"/><line style="stroke:#A80036;stroke-width:1.0;" x1="158" x2="158" y1="378.1641" y2="391.1641"/><line style="stroke:#A80036;stroke-width:1.0;" x1="117" x2="158" y1="391.1641" y2="391.1641"/><polygon fill="#A80036" points="127,387.1641,117,391.1641,127,395.1641,123,391.1641" style="stroke:#A80036;stroke-width:1.0;"/><text fill="#000000" font-family="sans-serif" font-size="13" lengthAdjust="spacingAndGlyphs" textLength="324" x="123" y="373.0981">callTaskExecutor(request, task, requestRepository)</text><path d="M5,363.5313 L5,388.5313 L97,388.5313 L97,373.5313 L87,363.5313 L5,363.5313 " fill="#FBFB77" filter="url(#f1rgoeje3zqpim)" style="stroke:#A80036;stroke-width:1.0;"/><path d="M87,363.5313 L87,373.5313 L97,373.5313 L87,363.5313 " fill="#FBFB77" style="stroke:#A80036;stroke-width:1.0;"/><text fill="#000000" font-family="sans-serif" font-size="13" lengthAdjust="spacingAndGlyphs" textLength="71" x="11" y="380.5981">new thread</text><polygon fill="#A80036" points="557,416.2969,567,420.2969,557,424.2969,561,420.2969" style="stroke:#A80036;stroke-width:1.0;"/><line style="stroke:#A80036;stroke-width:1.0;" x1="116" x2="563" y1="420.2969" y2="420.2969"/><text fill="#000000" font-family="sans-serif" font-size="13" lengthAdjust="spacingAndGlyphs" textLength="101" x="123" y="415.231">sendData(data)</text><line style="stroke:#A80036;stroke-width:1.0;" x1="579" x2="621" y1="449.4297" y2="449.4297"/><line style="stroke:#A80036;stroke-width:1.0;" x1="621" x2="621" y1="449.4297" y2="462.4297"/><line style="stroke:#A80036;stroke-width:1.0;" x1="580" x2="621" y1="462.4297" y2="462.4297"/><polygon fill="#A80036" points="590,458.4297,580,462.4297,590,466.4297,586,462.4297" style="stroke:#A80036;stroke-width:1.0;"/><text fill="#000000" font-family="sans-serif" font-size="13" lengthAdjust="spacingAndGlyphs" textLength="126" x="586" y="444.3638">executesTask(data)</text><polygon fill="#A80036" points="127,487.5625,117,491.5625,127,495.5625,123,491.5625" style="stroke:#A80036;stroke-width:1.0;"/><line style="stroke:#A80036;stroke-width:1.0;stroke-dasharray:2.0,2.0;" x1="121" x2="573" y1="491.5625" y2="491.5625"/><text fill="#000000" font-family="sans-serif" font-size="13" lengthAdjust="spacingAndGlyphs" textLength="201" x="133" y="486.4966">respondsToRequest(concluded)</text><polygon fill="#A80036" points="822.5,516.6953,832.5,520.6953,822.5,524.6953,826.5,520.6953" style="stroke:#A80036;stroke-width:1.0;"/><line style="stroke:#A80036;stroke-width:1.0;" x1="116" x2="828.5" y1="520.6953" y2="520.6953"/><text fill="#000000" font-family="sans-serif" font-size="13" lengthAdjust="spacingAndGlyphs" textLength="144" x="123" y="515.6294">create(executionTime)</text><polygon fill="#A80036" points="926,575.8281,936,579.8281,926,583.8281,930,579.8281" style="stroke:#A80036;stroke-width:1.0;"/><line style="stroke:#A80036;stroke-width:1.0;" x1="116" x2="932" y1="579.8281" y2="579.8281"/><text fill="#000000" font-family="sans-serif" font-size="13" lengthAdjust="spacingAndGlyphs" textLength="136" x="123" y="574.7622">inputMetrics(metrics)</text><polygon fill="#A80036" points="1034,634.9609,1044,638.9609,1034,642.9609,1038,638.9609" style="stroke:#A80036;stroke-width:1.0;"/><line style="stroke:#A80036;stroke-width:1.0;" x1="116" x2="1040" y1="638.9609" y2="638.9609"/><text fill="#000000" font-family="sans-serif" font-size="13" lengthAdjust="spacingAndGlyphs" textLength="255" x="123" y="633.895">changeConclusionDate(conclusionDate)</text><polygon fill="#A80036" points="1158,694.0938,1168,698.0938,1158,702.0938,1162,698.0938" style="stroke:#A80036;stroke-width:1.0;"/><line style="stroke:#A80036;stroke-width:1.0;" x1="116" x2="1164" y1="698.0938" y2="698.0938"/><text fill="#000000" font-family="sans-serif" font-size="13" lengthAdjust="spacingAndGlyphs" textLength="89" x="123" y="693.0278">save(request)</text><!--MD5=[9efd5517ecd1ac4529a6a8062a3eb99d]
@startuml
activate WorkflowServer
WorkflowServer -> WorkflowServer : managingRequests
WorkflowServer -> System : checkAlgorithm()
activate System
System - -> WorkflowServer : algorithm
deactivate System

alt FCFS
WorkflowServer -> WorkflowServer : verifyLastTaskExecutorToReceiveTask
else Other
WorkflowServer -> TaskExecutorOne : askHowManyTasksRunning()
activate TaskExecutorOne
deactivate TaskExecutorOne
WorkflowServer -> TaskExecutorTwo : askHowManyTasksRunning()
activate TaskExecutorTwo
deactivate TaskExecutorTwo
end
WorkflowServer -> WorkflowServer : callTaskExecutor(request, task, requestRepository)
note left : new thread
WorkflowServer -> TaskExecutorOne : sendData(data)
activate TaskExecutorOne
TaskExecutorOne -> TaskExecutorOne : executesTask(data)
TaskExecutorOne - -> WorkflowServer : respondsToRequest(concluded)
deactivate TaskExecutorOne
WorkflowServer -> Metrics : create(executionTime)
activate Metrics
deactivate Metrics
WorkflowServer -> TaskExecution : inputMetrics(metrics)
activate TaskExecution
deactivate TaskExecution
WorkflowServer -> Request : changeConclusionDate(conclusionDate)
activate Request
deactivate Request
WorkflowServer -> RequestRepository : save(request)
activate RequestRepository
deactivate RequestRepository
@enduml

PlantUML version 1.2020.22(Sun Dec 06 09:36:27 UTC 2020)
(GPL source distribution)
Java Runtime: OpenJDK Runtime Environment
JVM: OpenJDK 64-Bit Server VM
Default Encoding: UTF-8
Language: en
Country: US
--></g></svg>