<?xml version="1.0" encoding="UTF-8" standalone="no"?><svg xmlns="http://www.w3.org/2000/svg" xmlns:xlink="http://www.w3.org/1999/xlink" contentScriptType="application/ecmascript" contentStyleType="text/css" height="324px" preserveAspectRatio="none" style="width:524px;height:324px;" version="1.1" viewBox="0 0 524 324" width="524px" zoomAndPan="magnify"><defs><filter height="300%" id="f9eu5om6t9o7c" width="300%" x="-1" y="-1"><feGaussianBlur result="blurOut" stdDeviation="2.0"/><feColorMatrix in="blurOut" result="blurOut2" type="matrix" values="0 0 0 0 0 0 0 0 0 0 0 0 0 0 0 0 0 0 .4 0"/><feOffset dx="4.0" dy="4.0" in="blurOut2" result="blurOut3"/><feBlend in="SourceGraphic" in2="blurOut3" mode="normal"/></filter></defs><g><rect fill="#FFFFFF" filter="url(#f9eu5om6t9o7c)" height="123.6641" style="stroke:#A80036;stroke-width:1.0;" width="10" x="53" y="98.2969"/><rect fill="#FFFFFF" filter="url(#f9eu5om6t9o7c)" height="44.2656" style="stroke:#A80036;stroke-width:1.0;" width="10" x="471" y="119.4297"/><rect fill="#FFFFFF" filter="url(#f9eu5om6t9o7c)" height="29.1328" style="stroke:#A80036;stroke-width:1.0;" width="10" x="471" y="192.8281"/><line style="stroke:#A80036;stroke-width:1.0;stroke-dasharray:5.0,5.0;" x1="58" x2="58" y1="88.2969" y2="239.9609"/><line style="stroke:#A80036;stroke-width:1.0;stroke-dasharray:5.0,5.0;" x1="475.5" x2="475.5" y1="88.2969" y2="239.9609"/><text fill="#000000" font-family="sans-serif" font-size="14" lengthAdjust="spacing" textLength="100" x="5" y="84.9951">Administrator</text><ellipse cx="58" cy="15" fill="#FEFECE" filter="url(#f9eu5om6t9o7c)" rx="8" ry="8" style="stroke:#A80036;stroke-width:2.0;"/><path d="M58,23 L58,50 M45,31 L71,31 M58,50 L45,65 M58,50 L71,65 " fill="none" filter="url(#f9eu5om6t9o7c)" style="stroke:#A80036;stroke-width:2.0;"/><text fill="#000000" font-family="sans-serif" font-size="14" lengthAdjust="spacing" textLength="100" x="5" y="251.9561">Administrator</text><ellipse cx="58" cy="265.2578" fill="#FEFECE" filter="url(#f9eu5om6t9o7c)" rx="8" ry="8" style="stroke:#A80036;stroke-width:2.0;"/><path d="M58,273.2578 L58,300.2578 M45,281.2578 L71,281.2578 M58,300.2578 L45,315.2578 M58,300.2578 L71,315.2578 " fill="none" filter="url(#f9eu5om6t9o7c)" style="stroke:#A80036;stroke-width:2.0;"/><rect fill="#FEFECE" filter="url(#f9eu5om6t9o7c)" height="30.2969" style="stroke:#A80036;stroke-width:1.5;" width="73" x="437.5" y="53"/><text fill="#000000" font-family="sans-serif" font-size="14" lengthAdjust="spacing" textLength="59" x="444.5" y="72.9951">:System</text><rect fill="#FEFECE" filter="url(#f9eu5om6t9o7c)" height="30.2969" style="stroke:#A80036;stroke-width:1.5;" width="73" x="437.5" y="238.9609"/><text fill="#000000" font-family="sans-serif" font-size="14" lengthAdjust="spacing" textLength="59" x="444.5" y="258.9561">:System</text><rect fill="#FFFFFF" filter="url(#f9eu5om6t9o7c)" height="123.6641" style="stroke:#A80036;stroke-width:1.0;" width="10" x="53" y="98.2969"/><rect fill="#FFFFFF" filter="url(#f9eu5om6t9o7c)" height="44.2656" style="stroke:#A80036;stroke-width:1.0;" width="10" x="471" y="119.4297"/><rect fill="#FFFFFF" filter="url(#f9eu5om6t9o7c)" height="29.1328" style="stroke:#A80036;stroke-width:1.0;" width="10" x="471" y="192.8281"/><polygon fill="#A80036" points="459,115.4297,469,119.4297,459,123.4297,463,119.4297" style="stroke:#A80036;stroke-width:1.0;"/><line style="stroke:#A80036;stroke-width:1.0;" x1="63" x2="465" y1="119.4297" y2="119.4297"/><text fill="#000000" font-family="sans-serif" font-size="13" font-weight="bold" lengthAdjust="spacing" textLength="9" x="70" y="114.3638">1</text><text fill="#000000" font-family="sans-serif" font-size="13" lengthAdjust="spacing" textLength="376" x="83" y="114.3638">wants to remove a scooter from the pharmacy with this id</text><polygon fill="#A80036" points="74,159.6953,64,163.6953,74,167.6953,70,163.6953" style="stroke:#A80036;stroke-width:1.0;"/><line style="stroke:#A80036;stroke-width:1.0;stroke-dasharray:2.0,2.0;" x1="68" x2="475" y1="163.6953" y2="163.6953"/><text fill="#000000" font-family="sans-serif" font-size="13" font-weight="bold" lengthAdjust="spacing" textLength="9" x="80" y="151.063">2</text><text fill="#000000" font-family="sans-serif" font-size="13" lengthAdjust="spacing" textLength="342" x="93" y="143.4966">shows the available scooter list of this pharmacy and</text><text fill="#000000" font-family="sans-serif" font-size="13" lengthAdjust="spacing" textLength="307" x="97" y="158.6294">asks to choose the scooter he wants to remove</text><polygon fill="#A80036" points="459,188.8281,469,192.8281,459,196.8281,463,192.8281" style="stroke:#A80036;stroke-width:1.0;"/><line style="stroke:#A80036;stroke-width:1.0;" x1="63" x2="465" y1="192.8281" y2="192.8281"/><text fill="#000000" font-family="sans-serif" font-size="13" font-weight="bold" lengthAdjust="spacing" textLength="8" x="70" y="187.7622">3</text><text fill="#000000" font-family="sans-serif" font-size="13" lengthAdjust="spacing" textLength="264" x="82" y="187.7622">chooses the scooter he wants to remove</text><polygon fill="#A80036" points="69,217.9609,59,221.9609,69,225.9609,65,221.9609" style="stroke:#A80036;stroke-width:1.0;"/><line style="stroke:#A80036;stroke-width:1.0;stroke-dasharray:2.0,2.0;" x1="63" x2="475" y1="221.9609" y2="221.9609"/><text fill="#000000" font-family="sans-serif" font-size="13" font-weight="bold" lengthAdjust="spacing" textLength="9" x="75" y="216.895">4</text><text fill="#000000" font-family="sans-serif" font-size="13" lengthAdjust="spacing" textLength="216" x="88" y="216.895">removes the scooter from the list</text><!--MD5=[79e7c4e6469683b8f1f9c6ac09e3bb0e]
@startuml
autonumber
actor "Administrator" as UNR

activate UNR
UNR -> ":System" : wants to remove a scooter from the pharmacy with this id
activate ":System"
":System" - -> UNR : shows the available scooter list of this pharmacy and\n asks to choose the scooter he wants to remove
deactivate ":System"

UNR -> ":System" : chooses the scooter he wants to remove
activate ":System"
":System" - -> UNR : removes the scooter from the list
deactivate ":System"

deactivate UNR
@enduml

PlantUML version 1.2020.27beta7(Unknown compile time)
(GPL source distribution)
Java Runtime: Java(TM) SE Runtime Environment
JVM: Java HotSpot(TM) 64-Bit Server VM
Default Encoding: UTF-8
Language: en
Country: US
--></g></svg>