<?xml version="1.0" encoding="UTF-8" standalone="no"?><svg xmlns="http://www.w3.org/2000/svg" xmlns:xlink="http://www.w3.org/1999/xlink" contentScriptType="application/ecmascript" contentStyleType="text/css" height="1183px" preserveAspectRatio="none" style="width:456px;height:1183px;" version="1.1" viewBox="0 0 456 1183" width="456px" zoomAndPan="magnify"><defs><filter height="300%" id="f1e463klcj2ny2" width="300%" x="-1" y="-1"><feGaussianBlur result="blurOut" stdDeviation="2.0"/><feColorMatrix in="blurOut" result="blurOut2" type="matrix" values="0 0 0 0 0 0 0 0 0 0 0 0 0 0 0 0 0 0 .4 0"/><feOffset dx="4.0" dy="4.0" in="blurOut2" result="blurOut3"/><feBlend in="SourceGraphic" in2="blurOut3" mode="normal"/></filter></defs><g><!--MD5=[9681dc6e01e10c6b4fe06895ae94f592]
cluster UI--><polygon fill="#FFFFFF" filter="url(#f1e463klcj2ny2)" points="127,6,149,6,156,28.2969,301,28.2969,301,105,127,105,127,6" style="stroke:#000000;stroke-width:1.5;"/><line style="stroke:#000000;stroke-width:1.5;" x1="127" x2="156" y1="28.2969" y2="28.2969"/><text fill="#000000" font-family="sans-serif" font-size="14" font-weight="bold" lengthAdjust="spacing" textLength="16" x="131" y="20.9951">UI</text><!--MD5=[ed1d20ea533a2a0e7df5ba3c35e56ced]
cluster Controllers--><polygon fill="#FFFFFF" filter="url(#f1e463klcj2ny2)" points="16,138,112,138,119,160.2969,412,160.2969,412,301,16,301,16,138" style="stroke:#000000;stroke-width:1.5;"/><line style="stroke:#000000;stroke-width:1.5;" x1="16" x2="119" y1="160.2969" y2="160.2969"/><text fill="#000000" font-family="sans-serif" font-size="14" font-weight="bold" lengthAdjust="spacing" textLength="90" x="20" y="152.9951">Controllers</text><!--MD5=[121a8bf1197281ab89ed693fab589f94]
cluster Domain--><polygon fill="#FFFFFF" filter="url(#f1e463klcj2ny2)" points="16,334,83,334,90,356.2969,412,356.2969,412,1176,16,1176,16,334" style="stroke:#000000;stroke-width:1.5;"/><line style="stroke:#000000;stroke-width:1.5;" x1="16" x2="90" y1="356.2969" y2="356.2969"/><text fill="#000000" font-family="sans-serif" font-size="14" font-weight="bold" lengthAdjust="spacing" textLength="61" x="20" y="348.9951">Domain</text><!--MD5=[6e833f4d304e2534fd2d5c5fc5d919d8]
class RemoveScooterUI--><rect codeLine="19" fill="#FEFECE" filter="url(#f1e463klcj2ny2)" height="48" id="RemoveScooterUI" style="stroke:#A80036;stroke-width:1.5;" width="141" x="143.5" y="41"/><ellipse cx="158.5" cy="57" fill="#ADD1B2" rx="11" ry="11" style="stroke:#A80036;stroke-width:1.0;"/><path d="M160.8438,52.6719 C159.9063,52.2344 159.3125,52.0938 158.4375,52.0938 C155.8125,52.0938 153.8125,54.1719 153.8125,56.8906 L153.8125,58.0156 C153.8125,60.5938 155.9219,62.4844 158.8125,62.4844 C160.0313,62.4844 161.1875,62.1875 161.9375,61.6406 C162.5156,61.2344 162.8438,60.7813 162.8438,60.3906 C162.8438,59.9375 162.4531,59.5469 161.9844,59.5469 C161.7656,59.5469 161.5625,59.625 161.375,59.8125 C160.9219,60.2969 160.9219,60.2969 160.7344,60.3906 C160.3125,60.6563 159.625,60.7813 158.8594,60.7813 C156.8125,60.7813 155.5156,59.6875 155.5156,57.9844 L155.5156,56.8906 C155.5156,55.1094 156.7656,53.7969 158.5,53.7969 C159.0781,53.7969 159.6875,53.9531 160.1563,54.2031 C160.6406,54.4844 160.8125,54.7031 160.9063,55.1094 C160.9688,55.5156 161,55.6406 161.1406,55.7656 C161.2813,55.9063 161.5156,56.0156 161.7344,56.0156 C162,56.0156 162.2656,55.875 162.4375,55.6563 C162.5469,55.5 162.5781,55.3125 162.5781,54.8906 L162.5781,53.4688 C162.5781,53.0313 162.5625,52.9063 162.4688,52.75 C162.3125,52.4844 162.0313,52.3438 161.7344,52.3438 C161.4375,52.3438 161.2344,52.4375 161.0156,52.75 L160.8438,52.6719 Z " fill="#000000"/><text fill="#000000" font-family="sans-serif" font-size="12" lengthAdjust="spacing" textLength="109" x="172.5" y="61.1543">RemoveScooterUI</text><line style="stroke:#A80036;stroke-width:1.5;" x1="144.5" x2="283.5" y1="73" y2="73"/><line style="stroke:#A80036;stroke-width:1.5;" x1="144.5" x2="283.5" y1="81" y2="81"/><!--MD5=[bac027668d924653165cf48795e5a572]
class RemoveScooterController--><rect codeLine="22" fill="#FEFECE" filter="url(#f1e463klcj2ny2)" height="112.0234" id="RemoveScooterController" style="stroke:#A80036;stroke-width:1.5;" width="363" x="32.5" y="173"/><ellipse cx="131.75" cy="189" fill="#ADD1B2" rx="11" ry="11" style="stroke:#A80036;stroke-width:1.0;"/><path d="M134.0938,184.6719 C133.1563,184.2344 132.5625,184.0938 131.6875,184.0938 C129.0625,184.0938 127.0625,186.1719 127.0625,188.8906 L127.0625,190.0156 C127.0625,192.5938 129.1719,194.4844 132.0625,194.4844 C133.2813,194.4844 134.4375,194.1875 135.1875,193.6406 C135.7656,193.2344 136.0938,192.7813 136.0938,192.3906 C136.0938,191.9375 135.7031,191.5469 135.2344,191.5469 C135.0156,191.5469 134.8125,191.625 134.625,191.8125 C134.1719,192.2969 134.1719,192.2969 133.9844,192.3906 C133.5625,192.6563 132.875,192.7813 132.1094,192.7813 C130.0625,192.7813 128.7656,191.6875 128.7656,189.9844 L128.7656,188.8906 C128.7656,187.1094 130.0156,185.7969 131.75,185.7969 C132.3281,185.7969 132.9375,185.9531 133.4063,186.2031 C133.8906,186.4844 134.0625,186.7031 134.1563,187.1094 C134.2188,187.5156 134.25,187.6406 134.3906,187.7656 C134.5313,187.9063 134.7656,188.0156 134.9844,188.0156 C135.25,188.0156 135.5156,187.875 135.6875,187.6563 C135.7969,187.5 135.8281,187.3125 135.8281,186.8906 L135.8281,185.4688 C135.8281,185.0313 135.8125,184.9063 135.7188,184.75 C135.5625,184.4844 135.2813,184.3438 134.9844,184.3438 C134.6875,184.3438 134.4844,184.4375 134.2656,184.75 L134.0938,184.6719 Z " fill="#000000"/><text fill="#000000" font-family="sans-serif" font-size="12" lengthAdjust="spacing" textLength="156" x="152.25" y="193.1543">RemoveScooterController</text><line style="stroke:#A80036;stroke-width:1.5;" x1="33.5" x2="394.5" y1="205" y2="205"/><line style="stroke:#A80036;stroke-width:1.5;" x1="33.5" x2="394.5" y1="213" y2="213"/><text fill="#000000" font-family="sans-serif" font-size="11" lengthAdjust="spacing" textLength="110" x="38.5" y="227.2104">+getPharmacyList()</text><text fill="#000000" font-family="sans-serif" font-size="11" lengthAdjust="spacing" textLength="159" x="38.5" y="240.0151">+getPharmacy(pharmacyID)</text><text fill="#000000" font-family="sans-serif" font-size="11" lengthAdjust="spacing" textLength="208" x="38.5" y="252.8198">+getAvailableScooterList(pharmacy)</text><text fill="#000000" font-family="sans-serif" font-size="11" lengthAdjust="spacing" textLength="134" x="38.5" y="265.6245">+getScooter(scooterID)</text><text fill="#000000" font-family="sans-serif" font-size="11" lengthAdjust="spacing" textLength="351" x="38.5" y="278.4292">+removeScooterFromAvailableScooterList(scooter,pharmacy)</text><!--MD5=[99b8db98afdc2c8404e39242ef4c1e65]
class Platform--><rect codeLine="30" fill="#FEFECE" filter="url(#f1e463klcj2ny2)" height="86.4141" id="Platform" style="stroke:#A80036;stroke-width:1.5;" width="363" x="32.5" y="369"/><ellipse cx="185.75" cy="385" fill="#ADD1B2" rx="11" ry="11" style="stroke:#A80036;stroke-width:1.0;"/><path d="M188.0938,380.6719 C187.1563,380.2344 186.5625,380.0938 185.6875,380.0938 C183.0625,380.0938 181.0625,382.1719 181.0625,384.8906 L181.0625,386.0156 C181.0625,388.5938 183.1719,390.4844 186.0625,390.4844 C187.2813,390.4844 188.4375,390.1875 189.1875,389.6406 C189.7656,389.2344 190.0938,388.7813 190.0938,388.3906 C190.0938,387.9375 189.7031,387.5469 189.2344,387.5469 C189.0156,387.5469 188.8125,387.625 188.625,387.8125 C188.1719,388.2969 188.1719,388.2969 187.9844,388.3906 C187.5625,388.6563 186.875,388.7813 186.1094,388.7813 C184.0625,388.7813 182.7656,387.6875 182.7656,385.9844 L182.7656,384.8906 C182.7656,383.1094 184.0156,381.7969 185.75,381.7969 C186.3281,381.7969 186.9375,381.9531 187.4063,382.2031 C187.8906,382.4844 188.0625,382.7031 188.1563,383.1094 C188.2188,383.5156 188.25,383.6406 188.3906,383.7656 C188.5313,383.9063 188.7656,384.0156 188.9844,384.0156 C189.25,384.0156 189.5156,383.875 189.6875,383.6563 C189.7969,383.5 189.8281,383.3125 189.8281,382.8906 L189.8281,381.4688 C189.8281,381.0313 189.8125,380.9063 189.7188,380.75 C189.5625,380.4844 189.2813,380.3438 188.9844,380.3438 C188.6875,380.3438 188.4844,380.4375 188.2656,380.75 L188.0938,380.6719 Z " fill="#000000"/><text fill="#000000" font-family="sans-serif" font-size="12" lengthAdjust="spacing" textLength="48" x="206.25" y="389.1543">Platform</text><line style="stroke:#A80036;stroke-width:1.5;" x1="33.5" x2="394.5" y1="401" y2="401"/><line style="stroke:#A80036;stroke-width:1.5;" x1="33.5" x2="394.5" y1="409" y2="409"/><text fill="#000000" font-family="sans-serif" font-size="11" lengthAdjust="spacing" textLength="110" x="38.5" y="423.2104">+getPharmacyList()</text><text fill="#000000" font-family="sans-serif" font-size="11" lengthAdjust="spacing" textLength="159" x="38.5" y="436.0151">+getPharmacy(pharmacyID)</text><text fill="#000000" font-family="sans-serif" font-size="11" lengthAdjust="spacing" textLength="351" x="38.5" y="448.8198">+removeScooterFromAvailableScooterList(scooter,pharmacy)</text><!--MD5=[f4402668d5d5bb8485350c0fdb60ac8e]
class Scooter--><rect codeLine="36" fill="#FEFECE" filter="url(#f1e463klcj2ny2)" height="112.0234" id="Scooter" style="stroke:#A80036;stroke-width:1.5;" width="161" x="133.5" y="1048"/><ellipse cx="185.75" cy="1064" fill="#ADD1B2" rx="11" ry="11" style="stroke:#A80036;stroke-width:1.0;"/><path d="M188.0938,1059.6719 C187.1563,1059.2344 186.5625,1059.0938 185.6875,1059.0938 C183.0625,1059.0938 181.0625,1061.1719 181.0625,1063.8906 L181.0625,1065.0156 C181.0625,1067.5938 183.1719,1069.4844 186.0625,1069.4844 C187.2813,1069.4844 188.4375,1069.1875 189.1875,1068.6406 C189.7656,1068.2344 190.0938,1067.7813 190.0938,1067.3906 C190.0938,1066.9375 189.7031,1066.5469 189.2344,1066.5469 C189.0156,1066.5469 188.8125,1066.625 188.625,1066.8125 C188.1719,1067.2969 188.1719,1067.2969 187.9844,1067.3906 C187.5625,1067.6563 186.875,1067.7813 186.1094,1067.7813 C184.0625,1067.7813 182.7656,1066.6875 182.7656,1064.9844 L182.7656,1063.8906 C182.7656,1062.1094 184.0156,1060.7969 185.75,1060.7969 C186.3281,1060.7969 186.9375,1060.9531 187.4063,1061.2031 C187.8906,1061.4844 188.0625,1061.7031 188.1563,1062.1094 C188.2188,1062.5156 188.25,1062.6406 188.3906,1062.7656 C188.5313,1062.9063 188.7656,1063.0156 188.9844,1063.0156 C189.25,1063.0156 189.5156,1062.875 189.6875,1062.6563 C189.7969,1062.5 189.8281,1062.3125 189.8281,1061.8906 L189.8281,1060.4688 C189.8281,1060.0313 189.8125,1059.9063 189.7188,1059.75 C189.5625,1059.4844 189.2813,1059.3438 188.9844,1059.3438 C188.6875,1059.3438 188.4844,1059.4375 188.2656,1059.75 L188.0938,1059.6719 Z " fill="#000000"/><text fill="#000000" font-family="sans-serif" font-size="12" lengthAdjust="spacing" textLength="48" x="206.25" y="1068.1543">Scooter</text><line style="stroke:#A80036;stroke-width:1.5;" x1="134.5" x2="293.5" y1="1080" y2="1080"/><text fill="#000000" font-family="sans-serif" font-size="11" lengthAdjust="spacing" textLength="149" x="139.5" y="1094.2104">-Integer exclusiveNumber</text><text fill="#000000" font-family="sans-serif" font-size="11" lengthAdjust="spacing" textLength="130" x="139.5" y="1107.0151">-Double currentCharge</text><text fill="#000000" font-family="sans-serif" font-size="11" lengthAdjust="spacing" textLength="107" x="139.5" y="1119.8198">-Double fullCharge</text><text fill="#000000" font-family="sans-serif" font-size="11" lengthAdjust="spacing" textLength="119" x="139.5" y="1132.6245">-Boolean operational</text><text fill="#000000" font-family="sans-serif" font-size="11" lengthAdjust="spacing" textLength="44" x="139.5" y="1145.4292">-crCode</text><line style="stroke:#A80036;stroke-width:1.5;" x1="134.5" x2="293.5" y1="1152.0234" y2="1152.0234"/><!--MD5=[42d4ce5b8634ebc35ddaa1f26f987bcd]
class AvailaleScooterList--><rect codeLine="44" fill="#FEFECE" filter="url(#f1e463klcj2ny2)" height="86.4141" id="AvailaleScooterList" style="stroke:#A80036;stroke-width:1.5;" width="363" x="32.5" y="885"/><ellipse cx="152.75" cy="901" fill="#ADD1B2" rx="11" ry="11" style="stroke:#A80036;stroke-width:1.0;"/><path d="M155.0938,896.6719 C154.1563,896.2344 153.5625,896.0938 152.6875,896.0938 C150.0625,896.0938 148.0625,898.1719 148.0625,900.8906 L148.0625,902.0156 C148.0625,904.5938 150.1719,906.4844 153.0625,906.4844 C154.2813,906.4844 155.4375,906.1875 156.1875,905.6406 C156.7656,905.2344 157.0938,904.7813 157.0938,904.3906 C157.0938,903.9375 156.7031,903.5469 156.2344,903.5469 C156.0156,903.5469 155.8125,903.625 155.625,903.8125 C155.1719,904.2969 155.1719,904.2969 154.9844,904.3906 C154.5625,904.6563 153.875,904.7813 153.1094,904.7813 C151.0625,904.7813 149.7656,903.6875 149.7656,901.9844 L149.7656,900.8906 C149.7656,899.1094 151.0156,897.7969 152.75,897.7969 C153.3281,897.7969 153.9375,897.9531 154.4063,898.2031 C154.8906,898.4844 155.0625,898.7031 155.1563,899.1094 C155.2188,899.5156 155.25,899.6406 155.3906,899.7656 C155.5313,899.9063 155.7656,900.0156 155.9844,900.0156 C156.25,900.0156 156.5156,899.875 156.6875,899.6563 C156.7969,899.5 156.8281,899.3125 156.8281,898.8906 L156.8281,897.4688 C156.8281,897.0313 156.8125,896.9063 156.7188,896.75 C156.5625,896.4844 156.2813,896.3438 155.9844,896.3438 C155.6875,896.3438 155.4844,896.4375 155.2656,896.75 L155.0938,896.6719 Z " fill="#000000"/><text fill="#000000" font-family="sans-serif" font-size="12" lengthAdjust="spacing" textLength="114" x="173.25" y="905.1543">AvailaleScooterList</text><line style="stroke:#A80036;stroke-width:1.5;" x1="33.5" x2="394.5" y1="917" y2="917"/><line style="stroke:#A80036;stroke-width:1.5;" x1="33.5" x2="394.5" y1="925" y2="925"/><text fill="#000000" font-family="sans-serif" font-size="11" lengthAdjust="spacing" textLength="208" x="38.5" y="939.2104">+getAvailableScooterList(pharmacy)</text><text fill="#000000" font-family="sans-serif" font-size="11" lengthAdjust="spacing" textLength="134" x="38.5" y="952.0151">+getScooter(scooterID)</text><text fill="#000000" font-family="sans-serif" font-size="11" lengthAdjust="spacing" textLength="351" x="38.5" y="964.8198">+removeScooterFromAvailableScooterList(scooter,pharmacy)</text><!--MD5=[8050ef462d77cf220fd706493bc05cc9]
class PharmacyList--><rect codeLine="50" fill="#FEFECE" filter="url(#f1e463klcj2ny2)" height="73.6094" id="PharmacyList" style="stroke:#A80036;stroke-width:1.5;" width="171" x="128.5" y="532"/><ellipse cx="171.4" cy="548" fill="#ADD1B2" rx="11" ry="11" style="stroke:#A80036;stroke-width:1.0;"/><path d="M173.7438,543.6719 C172.8063,543.2344 172.2125,543.0938 171.3375,543.0938 C168.7125,543.0938 166.7125,545.1719 166.7125,547.8906 L166.7125,549.0156 C166.7125,551.5938 168.8219,553.4844 171.7125,553.4844 C172.9313,553.4844 174.0875,553.1875 174.8375,552.6406 C175.4156,552.2344 175.7438,551.7813 175.7438,551.3906 C175.7438,550.9375 175.3531,550.5469 174.8844,550.5469 C174.6656,550.5469 174.4625,550.625 174.275,550.8125 C173.8219,551.2969 173.8219,551.2969 173.6344,551.3906 C173.2125,551.6563 172.525,551.7813 171.7594,551.7813 C169.7125,551.7813 168.4156,550.6875 168.4156,548.9844 L168.4156,547.8906 C168.4156,546.1094 169.6656,544.7969 171.4,544.7969 C171.9781,544.7969 172.5875,544.9531 173.0563,545.2031 C173.5406,545.4844 173.7125,545.7031 173.8063,546.1094 C173.8688,546.5156 173.9,546.6406 174.0406,546.7656 C174.1813,546.9063 174.4156,547.0156 174.6344,547.0156 C174.9,547.0156 175.1656,546.875 175.3375,546.6563 C175.4469,546.5 175.4781,546.3125 175.4781,545.8906 L175.4781,544.4688 C175.4781,544.0313 175.4625,543.9063 175.3688,543.75 C175.2125,543.4844 174.9313,543.3438 174.6344,543.3438 C174.3375,543.3438 174.1344,543.4375 173.9156,543.75 L173.7438,543.6719 Z " fill="#000000"/><text fill="#000000" font-family="sans-serif" font-size="12" lengthAdjust="spacing" textLength="77" x="191.6" y="552.1543">PharmacyList</text><line style="stroke:#A80036;stroke-width:1.5;" x1="129.5" x2="298.5" y1="564" y2="564"/><line style="stroke:#A80036;stroke-width:1.5;" x1="129.5" x2="298.5" y1="572" y2="572"/><text fill="#000000" font-family="sans-serif" font-size="11" lengthAdjust="spacing" textLength="110" x="134.5" y="586.2104">+getPharmacyList()</text><text fill="#000000" font-family="sans-serif" font-size="11" lengthAdjust="spacing" textLength="159" x="134.5" y="599.0151">+getPharmacy(pharmacyID)</text><!--MD5=[7f2a9fafcebe4f099f71398fd3e2ed00]
class Pharmacy--><rect codeLine="55" fill="#FEFECE" filter="url(#f1e463klcj2ny2)" height="124.8281" id="Pharmacy" style="stroke:#A80036;stroke-width:1.5;" width="220" x="104" y="683"/><ellipse cx="181.25" cy="699" fill="#ADD1B2" rx="11" ry="11" style="stroke:#A80036;stroke-width:1.0;"/><path d="M183.5938,694.6719 C182.6563,694.2344 182.0625,694.0938 181.1875,694.0938 C178.5625,694.0938 176.5625,696.1719 176.5625,698.8906 L176.5625,700.0156 C176.5625,702.5938 178.6719,704.4844 181.5625,704.4844 C182.7813,704.4844 183.9375,704.1875 184.6875,703.6406 C185.2656,703.2344 185.5938,702.7813 185.5938,702.3906 C185.5938,701.9375 185.2031,701.5469 184.7344,701.5469 C184.5156,701.5469 184.3125,701.625 184.125,701.8125 C183.6719,702.2969 183.6719,702.2969 183.4844,702.3906 C183.0625,702.6563 182.375,702.7813 181.6094,702.7813 C179.5625,702.7813 178.2656,701.6875 178.2656,699.9844 L178.2656,698.8906 C178.2656,697.1094 179.5156,695.7969 181.25,695.7969 C181.8281,695.7969 182.4375,695.9531 182.9063,696.2031 C183.3906,696.4844 183.5625,696.7031 183.6563,697.1094 C183.7188,697.5156 183.75,697.6406 183.8906,697.7656 C184.0313,697.9063 184.2656,698.0156 184.4844,698.0156 C184.75,698.0156 185.0156,697.875 185.1875,697.6563 C185.2969,697.5 185.3281,697.3125 185.3281,696.8906 L185.3281,695.4688 C185.3281,695.0313 185.3125,694.9063 185.2188,694.75 C185.0625,694.4844 184.7813,694.3438 184.4844,694.3438 C184.1875,694.3438 183.9844,694.4375 183.7656,694.75 L183.5938,694.6719 Z " fill="#000000"/><text fill="#000000" font-family="sans-serif" font-size="12" lengthAdjust="spacing" textLength="57" x="201.75" y="703.1543">Pharmacy</text><line style="stroke:#A80036;stroke-width:1.5;" x1="105" x2="323" y1="715" y2="715"/><text fill="#000000" font-family="sans-serif" font-size="11" lengthAdjust="spacing" textLength="51" x="110" y="729.2104">-String id</text><text fill="#000000" font-family="sans-serif" font-size="11" lengthAdjust="spacing" textLength="107" x="110" y="742.0151">-String designation</text><text fill="#000000" font-family="sans-serif" font-size="11" lengthAdjust="spacing" textLength="73" x="110" y="754.8198">-String email</text><text fill="#000000" font-family="sans-serif" font-size="11" lengthAdjust="spacing" textLength="85" x="110" y="767.6245">-Adress adress</text><text fill="#000000" font-family="sans-serif" font-size="11" lengthAdjust="spacing" textLength="75" x="110" y="780.4292">-ParkingLot pl</text><line style="stroke:#A80036;stroke-width:1.5;" x1="105" x2="323" y1="787.0234" y2="787.0234"/><text fill="#000000" font-family="sans-serif" font-size="11" lengthAdjust="spacing" textLength="208" x="110" y="801.2339">+getAvailableScooterList(pharmacy)</text><!--MD5=[d51a3d7ceb60387716e9812879733fde]
link RemoveScooterUI to RemoveScooterController--><path codeLine="64" d="M214,89.21 C214,109.64 214,140.29 214,167.6 " fill="none" id="RemoveScooterUI-to-RemoveScooterController" style="stroke:#A80036;stroke-width:1.0;stroke-dasharray:7.0,7.0;"/><polygon fill="#A80036" points="214,172.66,218,163.66,214,167.66,210,163.66,214,172.66" style="stroke:#A80036;stroke-width:1.0;"/><!--MD5=[e2004a2e156ed7f1cbb52b558551c1fc]
link RemoveScooterController to Platform--><path codeLine="66" d="M214,285.289 C214,310.428 214,339.86 214,363.924 " fill="none" id="RemoveScooterController-to-Platform" style="stroke:#A80036;stroke-width:1.0;stroke-dasharray:7.0,7.0;"/><polygon fill="#A80036" points="214,368.974,218,359.974,214,363.974,210,359.974,214,368.974" style="stroke:#A80036;stroke-width:1.0;"/><!--MD5=[532636101d831b92a2cec7002a16b40f]
link RemoveScooterController to AvailaleScooterList--><path codeLine="67" d="M360.463,285.139 C379.692,296.625 397.922,310.167 413,326 C441.293,355.71 449,369.974 449,411 C449,411 449,411 449,746.5 C449,809.673 394.928,853.772 338.659,882.56 " fill="none" id="RemoveScooterController-to-AvailaleScooterList" style="stroke:#A80036;stroke-width:1.0;stroke-dasharray:7.0,7.0;"/><polygon fill="#A80036" points="333.91,884.952,343.7474,884.4771,338.3758,882.7034,340.1496,877.3318,333.91,884.952" style="stroke:#A80036;stroke-width:1.0;"/><!--MD5=[551975f013724564ee356235e864c40f]
link AvailaleScooterList to Scooter--><path codeLine="70" d="M214,971.121 C214,994.153 214,1022.964 214,1047.777 " fill="none" id="AvailaleScooterList-Scooter" style="stroke:#A80036;stroke-width:1.0;"/><text fill="#000000" font-family="sans-serif" font-size="13" lengthAdjust="spacing" textLength="33" x="215" y="1014.0669">has&gt;</text><text fill="#000000" font-family="sans-serif" font-size="13" lengthAdjust="spacing" textLength="8" x="205.3375" y="991.5487">1</text><text fill="#000000" font-family="sans-serif" font-size="13" lengthAdjust="spacing" textLength="23" x="189.5984" y="1037.0843">1..*</text><!--MD5=[2bc5a413d94b08902b9f3d0151eb30f1]
link Platform to PharmacyList--><path codeLine="71" d="M214,455.354 C214,479.287 214,508.892 214,531.745 " fill="none" id="Platform-PharmacyList" style="stroke:#A80036;stroke-width:1.0;"/><text fill="#000000" font-family="sans-serif" font-size="13" lengthAdjust="spacing" textLength="33" x="215" y="498.0669">has&gt;</text><text fill="#000000" font-family="sans-serif" font-size="13" lengthAdjust="spacing" textLength="8" x="205.3625" y="475.5033">1</text><text fill="#000000" font-family="sans-serif" font-size="13" lengthAdjust="spacing" textLength="8" x="205.2875" y="520.8865">1</text><!--MD5=[dcb9e7f24fda9389b72d4bf35ba5a068]
link PharmacyList to Pharmacy--><path codeLine="72" d="M214,606.157 C214,628.318 214,657.271 214,682.959 " fill="none" id="PharmacyList-Pharmacy" style="stroke:#A80036;stroke-width:1.0;"/><text fill="#000000" font-family="sans-serif" font-size="13" lengthAdjust="spacing" textLength="33" x="215" y="649.0669">has&gt;</text><text fill="#000000" font-family="sans-serif" font-size="13" lengthAdjust="spacing" textLength="8" x="205.3375" y="625.6636">1</text><text fill="#000000" font-family="sans-serif" font-size="13" lengthAdjust="spacing" textLength="23" x="189.6703" y="671.945">1..*</text><!--MD5=[04d2848317350807d88a604c6d6295d2]
link Pharmacy to AvailaleScooterList--><path codeLine="73" d="M214,808.113 C214,833.441 214,862.125 214,884.973 " fill="none" id="Pharmacy-AvailaleScooterList" style="stroke:#A80036;stroke-width:1.0;"/><text fill="#000000" font-family="sans-serif" font-size="13" lengthAdjust="spacing" textLength="33" x="215" y="851.0669">has&gt;</text><text fill="#000000" font-family="sans-serif" font-size="13" lengthAdjust="spacing" textLength="8" x="205.5625" y="827.8652">1</text><text fill="#000000" font-family="sans-serif" font-size="13" lengthAdjust="spacing" textLength="8" x="205.3625" y="873.9647">1</text><!--MD5=[7fbfd5b116b7067ee051b8971eed5da9]
@startuml
skinparam classAttributeIconSize 0

package UI <<Folder>> {
  class RemoveScooterUI
}

package Controllers <<Folder>> {
  class RemoveScooterController
}

package Domain <<Folder>> {
  class Platform
  class Scooter
  class AvailaleScooterList
  class PharmacyList
  class Pharmacy
}

class RemoveScooterUI {
}

class RemoveScooterController {
  +getPharmacyList()
  +getPharmacy(pharmacyID)
  +getAvailableScooterList(pharmacy)
  +getScooter(scooterID)
  +removeScooterFromAvailableScooterList(scooter,pharmacy)
}

class Platform {
  +getPharmacyList()
  +getPharmacy(pharmacyID)
  +removeScooterFromAvailableScooterList(scooter,pharmacy)
}

class Scooter {
-Integer exclusiveNumber
-Double currentCharge
-Double fullCharge
-Boolean operational
-crCode
}

class AvailaleScooterList{
  +getAvailableScooterList(pharmacy)
  +getScooter(scooterID)
  +removeScooterFromAvailableScooterList(scooter,pharmacy)
}

class PharmacyList{
  +getPharmacyList()
  +getPharmacy(pharmacyID)
}

class Pharmacy{
  -String id
  -String designation
  -String email
  -Adress adress
  -ParkingLot pl
  +getAvailableScooterList(pharmacy)
}

RemoveScooterUI ..> RemoveScooterController

RemoveScooterController ..> Platform
RemoveScooterController ..> AvailaleScooterList


AvailaleScooterList"1" - - "1..*" Scooter : has>
Platform"1" - - "1" PharmacyList : has>
PharmacyList"1" - - "1..*" Pharmacy : has>
Pharmacy"1" - - "1" AvailaleScooterList : has>
@enduml

PlantUML version 1.2020.27beta7(Unknown compile time)
(GPL source distribution)
Java Runtime: Java(TM) SE Runtime Environment
JVM: Java HotSpot(TM) 64-Bit Server VM
Default Encoding: UTF-8
Language: en
Country: US
--></g></svg>