<?xml version="1.0" encoding="UTF-8" standalone="no"?><svg xmlns="http://www.w3.org/2000/svg" xmlns:xlink="http://www.w3.org/1999/xlink" contentScriptType="application/ecmascript" contentStyleType="text/css" height="1068px" preserveAspectRatio="none" style="width:2473px;height:1068px;background:#FFFFFF;" version="1.1" viewBox="0 0 2473 1068" width="2473px" zoomAndPan="magnify"><defs><filter height="300%" id="fba0zctqvs6uh" width="300%" x="-1" y="-1"><feGaussianBlur result="blurOut" stdDeviation="2.0"/><feColorMatrix in="blurOut" result="blurOut2" type="matrix" values="0 0 0 0 0 0 0 0 0 0 0 0 0 0 0 0 0 0 .4 0"/><feOffset dx="4.0" dy="4.0" in="blurOut2" result="blurOut3"/><feBlend in="SourceGraphic" in2="blurOut3" mode="normal"/></filter></defs><g><rect fill="#FFFFFF" filter="url(#fba0zctqvs6uh)" height="904.9844" style="stroke:#A80036;stroke-width:1.0;" width="10" x="85" y="77.2969"/><rect fill="#FFFFFF" filter="url(#fba0zctqvs6uh)" height="275.1953" style="stroke:#A80036;stroke-width:1.0;" width="10" x="258" y="98.4297"/><rect fill="#FFFFFF" filter="url(#fba0zctqvs6uh)" height="275.1953" style="stroke:#A80036;stroke-width:1.0;" width="10" x="442" y="402.7578"/><rect fill="#FFFFFF" filter="url(#fba0zctqvs6uh)" height="275.1953" style="stroke:#A80036;stroke-width:1.0;" width="10" x="651" y="707.0859"/><rect fill="#FFFFFF" filter="url(#fba0zctqvs6uh)" height="208.9297" style="stroke:#A80036;stroke-width:1.0;" width="10" x="919" y="164.6953"/><rect fill="#FFFFFF" filter="url(#fba0zctqvs6uh)" height="208.9297" style="stroke:#A80036;stroke-width:1.0;" width="10" x="1078" y="469.0234"/><rect fill="#FFFFFF" filter="url(#fba0zctqvs6uh)" height="208.9297" style="stroke:#A80036;stroke-width:1.0;" width="10" x="1262" y="773.3516"/><line style="stroke:#A80036;stroke-width:1.0;stroke-dasharray:5.0,5.0;" x1="90" x2="90" y1="67.2969" y2="1000.2813"/><line style="stroke:#A80036;stroke-width:1.0;stroke-dasharray:5.0,5.0;" x1="263" x2="263" y1="67.2969" y2="1000.2813"/><line style="stroke:#A80036;stroke-width:1.0;stroke-dasharray:5.0,5.0;" x1="447" x2="447" y1="67.2969" y2="1000.2813"/><line style="stroke:#A80036;stroke-width:1.0;stroke-dasharray:5.0,5.0;" x1="656" x2="656" y1="67.2969" y2="1000.2813"/><line style="stroke:#A80036;stroke-width:1.0;stroke-dasharray:5.0,5.0;" x1="923.5" x2="923.5" y1="67.2969" y2="1000.2813"/><line style="stroke:#A80036;stroke-width:1.0;stroke-dasharray:5.0,5.0;" x1="1082.5" x2="1082.5" y1="67.2969" y2="1000.2813"/><line style="stroke:#A80036;stroke-width:1.0;stroke-dasharray:5.0,5.0;" x1="1266.5" x2="1266.5" y1="67.2969" y2="1000.2813"/><line style="stroke:#A80036;stroke-width:1.0;stroke-dasharray:5.0,5.0;" x1="1447.5" x2="1447.5" y1="67.2969" y2="1000.2813"/><line style="stroke:#A80036;stroke-width:1.0;stroke-dasharray:5.0,5.0;" x1="1567.5" x2="1567.5" y1="67.2969" y2="1000.2813"/><line style="stroke:#A80036;stroke-width:1.0;stroke-dasharray:5.0,5.0;" x1="1653.5" x2="1653.5" y1="67.2969" y2="1000.2813"/><line style="stroke:#A80036;stroke-width:1.0;stroke-dasharray:5.0,5.0;" x1="1764.5" x2="1764.5" y1="67.2969" y2="1000.2813"/><line style="stroke:#A80036;stroke-width:1.0;stroke-dasharray:5.0,5.0;" x1="1897.5" x2="1897.5" y1="67.2969" y2="1000.2813"/><line style="stroke:#A80036;stroke-width:1.0;stroke-dasharray:5.0,5.0;" x1="2061.5" x2="2061.5" y1="67.2969" y2="1000.2813"/><line style="stroke:#A80036;stroke-width:1.0;stroke-dasharray:5.0,5.0;" x1="2242.5" x2="2242.5" y1="67.2969" y2="1000.2813"/><line style="stroke:#A80036;stroke-width:1.0;stroke-dasharray:5.0,5.0;" x1="2406.5" x2="2406.5" y1="67.2969" y2="1000.2813"/><rect fill="#FEFECE" filter="url(#fba0zctqvs6uh)" height="30.2969" style="stroke:#A80036;stroke-width:1.5;" width="166" x="5" y="32"/><text fill="#000000" font-family="sans-serif" font-size="14" lengthAdjust="spacing" textLength="152" x="12" y="51.9951">FactoryBootstrapper</text><rect fill="#FEFECE" filter="url(#fba0zctqvs6uh)" height="30.2969" style="stroke:#A80036;stroke-width:1.5;" width="166" x="5" y="999.2813"/><text fill="#000000" font-family="sans-serif" font-size="14" lengthAdjust="spacing" textLength="152" x="12" y="1019.2764">FactoryBootstrapper</text><rect fill="#FEFECE" filter="url(#fba0zctqvs6uh)" height="30.2969" style="stroke:#A80036;stroke-width:1.5;" width="152" x="185" y="32"/><text fill="#000000" font-family="sans-serif" font-size="14" lengthAdjust="spacing" textLength="138" x="192" y="51.9951">TeamBootstrapper</text><rect fill="#FEFECE" filter="url(#fba0zctqvs6uh)" height="30.2969" style="stroke:#A80036;stroke-width:1.5;" width="152" x="185" y="999.2813"/><text fill="#000000" font-family="sans-serif" font-size="14" lengthAdjust="spacing" textLength="138" x="192" y="1019.2764">TeamBootstrapper</text><rect fill="#FEFECE" filter="url(#fba0zctqvs6uh)" height="30.2969" style="stroke:#A80036;stroke-width:1.5;" width="188" x="351" y="32"/><text fill="#000000" font-family="sans-serif" font-size="14" lengthAdjust="spacing" textLength="174" x="358" y="51.9951">TeamTypeBootstrapper</text><rect fill="#FEFECE" filter="url(#fba0zctqvs6uh)" height="30.2969" style="stroke:#A80036;stroke-width:1.5;" width="188" x="351" y="999.2813"/><text fill="#000000" font-family="sans-serif" font-size="14" lengthAdjust="spacing" textLength="174" x="358" y="1019.2764">TeamTypeBootstrapper</text><rect fill="#FEFECE" filter="url(#fba0zctqvs6uh)" height="30.2969" style="stroke:#A80036;stroke-width:1.5;" width="202" x="553" y="32"/><text fill="#000000" font-family="sans-serif" font-size="14" lengthAdjust="spacing" textLength="188" x="560" y="51.9951">CollaboratorBootstrapper</text><rect fill="#FEFECE" filter="url(#fba0zctqvs6uh)" height="30.2969" style="stroke:#A80036;stroke-width:1.5;" width="202" x="553" y="999.2813"/><text fill="#000000" font-family="sans-serif" font-size="14" lengthAdjust="spacing" textLength="188" x="560" y="1019.2764">CollaboratorBootstrapper</text><rect fill="#FEFECE" filter="url(#fba0zctqvs6uh)" height="30.2969" style="stroke:#A80036;stroke-width:1.5;" width="127" x="858.5" y="32"/><text fill="#000000" font-family="sans-serif" font-size="14" lengthAdjust="spacing" textLength="113" x="865.5" y="51.9951">TeamController</text><rect fill="#FEFECE" filter="url(#fba0zctqvs6uh)" height="30.2969" style="stroke:#A80036;stroke-width:1.5;" width="127" x="858.5" y="999.2813"/><text fill="#000000" font-family="sans-serif" font-size="14" lengthAdjust="spacing" textLength="113" x="865.5" y="1019.2764">TeamController</text><rect fill="#FEFECE" filter="url(#fba0zctqvs6uh)" height="30.2969" style="stroke:#A80036;stroke-width:1.5;" width="163" x="999.5" y="32"/><text fill="#000000" font-family="sans-serif" font-size="14" lengthAdjust="spacing" textLength="149" x="1006.5" y="51.9951">TeamTypeController</text><rect fill="#FEFECE" filter="url(#fba0zctqvs6uh)" height="30.2969" style="stroke:#A80036;stroke-width:1.5;" width="163" x="999.5" y="999.2813"/><text fill="#000000" font-family="sans-serif" font-size="14" lengthAdjust="spacing" textLength="149" x="1006.5" y="1019.2764">TeamTypeController</text><rect fill="#FEFECE" filter="url(#fba0zctqvs6uh)" height="30.2969" style="stroke:#A80036;stroke-width:1.5;" width="177" x="1176.5" y="32"/><text fill="#000000" font-family="sans-serif" font-size="14" lengthAdjust="spacing" textLength="163" x="1183.5" y="51.9951">CollaboratorController</text><rect fill="#FEFECE" filter="url(#fba0zctqvs6uh)" height="30.2969" style="stroke:#A80036;stroke-width:1.5;" width="177" x="1176.5" y="999.2813"/><text fill="#000000" font-family="sans-serif" font-size="14" lengthAdjust="spacing" textLength="163" x="1183.5" y="1019.2764">CollaboratorController</text><rect fill="#FEFECE" filter="url(#fba0zctqvs6uh)" height="30.2969" style="stroke:#A80036;stroke-width:1.5;" width="157" x="1367.5" y="32"/><text fill="#000000" font-family="sans-serif" font-size="14" lengthAdjust="spacing" textLength="143" x="1374.5" y="51.9951">PersistenceContext</text><rect fill="#FEFECE" filter="url(#fba0zctqvs6uh)" height="30.2969" style="stroke:#A80036;stroke-width:1.5;" width="157" x="1367.5" y="999.2813"/><text fill="#000000" font-family="sans-serif" font-size="14" lengthAdjust="spacing" textLength="143" x="1374.5" y="1019.2764">PersistenceContext</text><rect fill="#FEFECE" filter="url(#fba0zctqvs6uh)" height="30.2969" style="stroke:#A80036;stroke-width:1.5;" width="54" x="1538.5" y="32"/><text fill="#000000" font-family="sans-serif" font-size="14" lengthAdjust="spacing" textLength="40" x="1545.5" y="51.9951">Team</text><rect fill="#FEFECE" filter="url(#fba0zctqvs6uh)" height="30.2969" style="stroke:#A80036;stroke-width:1.5;" width="54" x="1538.5" y="999.2813"/><text fill="#000000" font-family="sans-serif" font-size="14" lengthAdjust="spacing" textLength="40" x="1545.5" y="1019.2764">Team</text><rect fill="#FEFECE" filter="url(#fba0zctqvs6uh)" height="30.2969" style="stroke:#A80036;stroke-width:1.5;" width="90" x="1606.5" y="32"/><text fill="#000000" font-family="sans-serif" font-size="14" lengthAdjust="spacing" textLength="76" x="1613.5" y="51.9951">TeamType</text><rect fill="#FEFECE" filter="url(#fba0zctqvs6uh)" height="30.2969" style="stroke:#A80036;stroke-width:1.5;" width="90" x="1606.5" y="999.2813"/><text fill="#000000" font-family="sans-serif" font-size="14" lengthAdjust="spacing" textLength="76" x="1613.5" y="1019.2764">TeamType</text><rect fill="#FEFECE" filter="url(#fba0zctqvs6uh)" height="30.2969" style="stroke:#A80036;stroke-width:1.5;" width="104" x="1710.5" y="32"/><text fill="#000000" font-family="sans-serif" font-size="14" lengthAdjust="spacing" textLength="90" x="1717.5" y="51.9951">Collaborator</text><rect fill="#FEFECE" filter="url(#fba0zctqvs6uh)" height="30.2969" style="stroke:#A80036;stroke-width:1.5;" width="104" x="1710.5" y="999.2813"/><text fill="#000000" font-family="sans-serif" font-size="14" lengthAdjust="spacing" textLength="90" x="1717.5" y="1019.2764">Collaborator</text><text fill="#000000" font-family="sans-serif" font-size="14" lengthAdjust="spacing" textLength="133" x="1828.5" y="63.9951">RepositoryFactory</text><path d="M1880,15 C1880,5 1898,5 1898,5 C1898,5 1916,5 1916,15 L1916,41 C1916,51 1898,51 1898,51 C1898,51 1880,51 1880,41 L1880,15 " fill="#FEFECE" filter="url(#fba0zctqvs6uh)" style="stroke:#000000;stroke-width:1.5;"/><path d="M1880,15 C1880,25 1898,25 1898,25 C1898,25 1916,25 1916,15 " fill="none" style="stroke:#000000;stroke-width:1.5;"/><text fill="#000000" font-family="sans-serif" font-size="14" lengthAdjust="spacing" textLength="133" x="1828.5" y="1012.2764">RepositoryFactory</text><path d="M1880,1025.5781 C1880,1015.5781 1898,1015.5781 1898,1015.5781 C1898,1015.5781 1916,1015.5781 1916,1025.5781 L1916,1051.5781 C1916,1061.5781 1898,1061.5781 1898,1061.5781 C1898,1061.5781 1880,1061.5781 1880,1051.5781 L1880,1025.5781 " fill="#FEFECE" filter="url(#fba0zctqvs6uh)" style="stroke:#000000;stroke-width:1.5;"/><path d="M1880,1025.5781 C1880,1035.5781 1898,1035.5781 1898,1035.5781 C1898,1035.5781 1916,1035.5781 1916,1025.5781 " fill="none" style="stroke:#000000;stroke-width:1.5;"/><text fill="#000000" font-family="sans-serif" font-size="14" lengthAdjust="spacing" textLength="162" x="1977.5" y="63.9951">TeamTypesRepository</text><path d="M2043.5,15 C2043.5,5 2061.5,5 2061.5,5 C2061.5,5 2079.5,5 2079.5,15 L2079.5,41 C2079.5,51 2061.5,51 2061.5,51 C2061.5,51 2043.5,51 2043.5,41 L2043.5,15 " fill="#FEFECE" filter="url(#fba0zctqvs6uh)" style="stroke:#000000;stroke-width:1.5;"/><path d="M2043.5,15 C2043.5,25 2061.5,25 2061.5,25 C2061.5,25 2079.5,25 2079.5,15 " fill="none" style="stroke:#000000;stroke-width:1.5;"/><text fill="#000000" font-family="sans-serif" font-size="14" lengthAdjust="spacing" textLength="162" x="1977.5" y="1012.2764">TeamTypesRepository</text><path d="M2043.5,1025.5781 C2043.5,1015.5781 2061.5,1015.5781 2061.5,1015.5781 C2061.5,1015.5781 2079.5,1015.5781 2079.5,1025.5781 L2079.5,1051.5781 C2079.5,1061.5781 2061.5,1061.5781 2061.5,1061.5781 C2061.5,1061.5781 2043.5,1061.5781 2043.5,1051.5781 L2043.5,1025.5781 " fill="#FEFECE" filter="url(#fba0zctqvs6uh)" style="stroke:#000000;stroke-width:1.5;"/><path d="M2043.5,1025.5781 C2043.5,1035.5781 2061.5,1035.5781 2061.5,1035.5781 C2061.5,1035.5781 2079.5,1035.5781 2079.5,1025.5781 " fill="none" style="stroke:#000000;stroke-width:1.5;"/><text fill="#000000" font-family="sans-serif" font-size="14" lengthAdjust="spacing" textLength="169" x="2155.5" y="63.9951">CollaboratorRepository</text><path d="M2225,15 C2225,5 2243,5 2243,5 C2243,5 2261,5 2261,15 L2261,41 C2261,51 2243,51 2243,51 C2243,51 2225,51 2225,41 L2225,15 " fill="#FEFECE" filter="url(#fba0zctqvs6uh)" style="stroke:#000000;stroke-width:1.5;"/><path d="M2225,15 C2225,25 2243,25 2243,25 C2243,25 2261,25 2261,15 " fill="none" style="stroke:#000000;stroke-width:1.5;"/><text fill="#000000" font-family="sans-serif" font-size="14" lengthAdjust="spacing" textLength="169" x="2155.5" y="1012.2764">CollaboratorRepository</text><path d="M2225,1025.5781 C2225,1015.5781 2243,1015.5781 2243,1015.5781 C2243,1015.5781 2261,1015.5781 2261,1025.5781 L2261,1051.5781 C2261,1061.5781 2243,1061.5781 2243,1061.5781 C2243,1061.5781 2225,1061.5781 2225,1051.5781 L2225,1025.5781 " fill="#FEFECE" filter="url(#fba0zctqvs6uh)" style="stroke:#000000;stroke-width:1.5;"/><path d="M2225,1025.5781 C2225,1035.5781 2243,1035.5781 2243,1035.5781 C2243,1035.5781 2261,1035.5781 2261,1025.5781 " fill="none" style="stroke:#000000;stroke-width:1.5;"/><text fill="#000000" font-family="sans-serif" font-size="14" lengthAdjust="spacing" textLength="126" x="2340.5" y="63.9951">TeamsRepository</text><path d="M2388.5,15 C2388.5,5 2406.5,5 2406.5,5 C2406.5,5 2424.5,5 2424.5,15 L2424.5,41 C2424.5,51 2406.5,51 2406.5,51 C2406.5,51 2388.5,51 2388.5,41 L2388.5,15 " fill="#FEFECE" filter="url(#fba0zctqvs6uh)" style="stroke:#000000;stroke-width:1.5;"/><path d="M2388.5,15 C2388.5,25 2406.5,25 2406.5,25 C2406.5,25 2424.5,25 2424.5,15 " fill="none" style="stroke:#000000;stroke-width:1.5;"/><text fill="#000000" font-family="sans-serif" font-size="14" lengthAdjust="spacing" textLength="126" x="2340.5" y="1012.2764">TeamsRepository</text><path d="M2388.5,1025.5781 C2388.5,1015.5781 2406.5,1015.5781 2406.5,1015.5781 C2406.5,1015.5781 2424.5,1015.5781 2424.5,1025.5781 L2424.5,1051.5781 C2424.5,1061.5781 2406.5,1061.5781 2406.5,1061.5781 C2406.5,1061.5781 2388.5,1061.5781 2388.5,1051.5781 L2388.5,1025.5781 " fill="#FEFECE" filter="url(#fba0zctqvs6uh)" style="stroke:#000000;stroke-width:1.5;"/><path d="M2388.5,1025.5781 C2388.5,1035.5781 2406.5,1035.5781 2406.5,1035.5781 C2406.5,1035.5781 2424.5,1035.5781 2424.5,1025.5781 " fill="none" style="stroke:#000000;stroke-width:1.5;"/><rect fill="#FFFFFF" filter="url(#fba0zctqvs6uh)" height="904.9844" style="stroke:#A80036;stroke-width:1.0;" width="10" x="85" y="77.2969"/><rect fill="#FFFFFF" filter="url(#fba0zctqvs6uh)" height="275.1953" style="stroke:#A80036;stroke-width:1.0;" width="10" x="258" y="98.4297"/><rect fill="#FFFFFF" filter="url(#fba0zctqvs6uh)" height="275.1953" style="stroke:#A80036;stroke-width:1.0;" width="10" x="442" y="402.7578"/><rect fill="#FFFFFF" filter="url(#fba0zctqvs6uh)" height="275.1953" style="stroke:#A80036;stroke-width:1.0;" width="10" x="651" y="707.0859"/><rect fill="#FFFFFF" filter="url(#fba0zctqvs6uh)" height="208.9297" style="stroke:#A80036;stroke-width:1.0;" width="10" x="919" y="164.6953"/><rect fill="#FFFFFF" filter="url(#fba0zctqvs6uh)" height="208.9297" style="stroke:#A80036;stroke-width:1.0;" width="10" x="1078" y="469.0234"/><rect fill="#FFFFFF" filter="url(#fba0zctqvs6uh)" height="208.9297" style="stroke:#A80036;stroke-width:1.0;" width="10" x="1262" y="773.3516"/><polygon fill="#A80036" points="246,94.4297,256,98.4297,246,102.4297,250,98.4297" style="stroke:#A80036;stroke-width:1.0;"/><line style="stroke:#A80036;stroke-width:1.0;" x1="95" x2="252" y1="98.4297" y2="98.4297"/><text fill="#000000" font-family="sans-serif" font-size="13" lengthAdjust="spacing" textLength="51" x="102" y="93.3638">create()</text><polygon fill="#A80036" points="246,123.5625,256,127.5625,246,131.5625,250,127.5625" style="stroke:#A80036;stroke-width:1.0;"/><line style="stroke:#A80036;stroke-width:1.0;" x1="95" x2="252" y1="127.5625" y2="127.5625"/><text fill="#000000" font-family="sans-serif" font-size="13" lengthAdjust="spacing" textLength="62" x="102" y="122.4966">execute()</text><line style="stroke:#A80036;stroke-width:1.0;" x1="268" x2="315" y1="151.6953" y2="151.6953"/><line style="stroke:#A80036;stroke-width:1.0;" x1="315" x2="315" y1="151.6953" y2="164.6953"/><line style="stroke:#A80036;stroke-width:1.0;" x1="274" x2="315" y1="164.6953" y2="164.6953"/><polygon fill="#A80036" points="284,160.6953,274,164.6953,284,168.6953,280,164.6953" style="stroke:#A80036;stroke-width:1.0;"/><text fill="#000000" font-family="sans-serif" font-size="13" lengthAdjust="spacing" textLength="143" x="280" y="146.6294">register(String unique)</text><polygon fill="#A80036" points="907,194.8281,917,198.8281,907,202.8281,911,198.8281" style="stroke:#A80036;stroke-width:1.0;"/><line style="stroke:#A80036;stroke-width:1.0;" x1="268" x2="913" y1="198.8281" y2="198.8281"/><text fill="#000000" font-family="sans-serif" font-size="13" lengthAdjust="spacing" textLength="51" x="275" y="193.7622">create()</text><polygon fill="#A80036" points="1436,223.9609,1446,227.9609,1436,231.9609,1440,227.9609" style="stroke:#A80036;stroke-width:1.0;"/><line style="stroke:#A80036;stroke-width:1.0;" x1="929" x2="1442" y1="227.9609" y2="227.9609"/><text fill="#000000" font-family="sans-serif" font-size="13" lengthAdjust="spacing" textLength="85" x="936" y="222.895">repositories()</text><polygon fill="#A80036" points="1886,253.0938,1896,257.0938,1886,261.0938,1890,257.0938" style="stroke:#A80036;stroke-width:1.0;"/><line style="stroke:#A80036;stroke-width:1.0;" x1="1448" x2="1892" y1="257.0938" y2="257.0938"/><text fill="#000000" font-family="sans-serif" font-size="13" lengthAdjust="spacing" textLength="51" x="1455" y="252.0278">create()</text><polygon fill="#A80036" points="2394.5,282.2266,2404.5,286.2266,2394.5,290.2266,2398.5,286.2266" style="stroke:#A80036;stroke-width:1.0;"/><line style="stroke:#A80036;stroke-width:1.0;" x1="1898" x2="2400.5" y1="286.2266" y2="286.2266"/><text fill="#000000" font-family="sans-serif" font-size="13" lengthAdjust="spacing" textLength="51" x="1905" y="281.1606">create()</text><polygon fill="#A80036" points="907,311.3594,917,315.3594,907,319.3594,911,315.3594" style="stroke:#A80036;stroke-width:1.0;"/><line style="stroke:#A80036;stroke-width:1.0;" x1="268" x2="913" y1="315.3594" y2="315.3594"/><text fill="#000000" font-family="sans-serif" font-size="13" lengthAdjust="spacing" textLength="193" x="275" y="310.2935">RegisterTeam(all parameters)</text><polygon fill="#A80036" points="1555.5,340.4922,1565.5,344.4922,1555.5,348.4922,1559.5,344.4922" style="stroke:#A80036;stroke-width:1.0;"/><line style="stroke:#A80036;stroke-width:1.0;" x1="929" x2="1561.5" y1="344.4922" y2="344.4922"/><text fill="#000000" font-family="sans-serif" font-size="13" lengthAdjust="spacing" textLength="226" x="936" y="339.4263">newTeam = create(all parameters)</text><polygon fill="#A80036" points="2394.5,369.625,2404.5,373.625,2394.5,377.625,2398.5,373.625" style="stroke:#A80036;stroke-width:1.0;"/><line style="stroke:#A80036;stroke-width:1.0;" x1="924" x2="2400.5" y1="373.625" y2="373.625"/><text fill="#000000" font-family="sans-serif" font-size="13" lengthAdjust="spacing" textLength="105" x="931" y="368.5591">save(newTeam)</text><polygon fill="#A80036" points="430,398.7578,440,402.7578,430,406.7578,434,402.7578" style="stroke:#A80036;stroke-width:1.0;"/><line style="stroke:#A80036;stroke-width:1.0;" x1="95" x2="436" y1="402.7578" y2="402.7578"/><text fill="#000000" font-family="sans-serif" font-size="13" lengthAdjust="spacing" textLength="51" x="102" y="397.6919">create()</text><polygon fill="#A80036" points="430,427.8906,440,431.8906,430,435.8906,434,431.8906" style="stroke:#A80036;stroke-width:1.0;"/><line style="stroke:#A80036;stroke-width:1.0;" x1="95" x2="436" y1="431.8906" y2="431.8906"/><text fill="#000000" font-family="sans-serif" font-size="13" lengthAdjust="spacing" textLength="62" x="102" y="426.8247">execute()</text><line style="stroke:#A80036;stroke-width:1.0;" x1="452" x2="499" y1="456.0234" y2="456.0234"/><line style="stroke:#A80036;stroke-width:1.0;" x1="499" x2="499" y1="456.0234" y2="469.0234"/><line style="stroke:#A80036;stroke-width:1.0;" x1="458" x2="499" y1="469.0234" y2="469.0234"/><polygon fill="#A80036" points="468,465.0234,458,469.0234,468,473.0234,464,469.0234" style="stroke:#A80036;stroke-width:1.0;"/><text fill="#000000" font-family="sans-serif" font-size="13" lengthAdjust="spacing" textLength="133" x="464" y="450.9575">register(String Code)</text><polygon fill="#A80036" points="1066,499.1563,1076,503.1563,1066,507.1563,1070,503.1563" style="stroke:#A80036;stroke-width:1.0;"/><line style="stroke:#A80036;stroke-width:1.0;" x1="452" x2="1072" y1="503.1563" y2="503.1563"/><text fill="#000000" font-family="sans-serif" font-size="13" lengthAdjust="spacing" textLength="51" x="459" y="498.0903">create()</text><polygon fill="#A80036" points="1436,528.2891,1446,532.2891,1436,536.2891,1440,532.2891" style="stroke:#A80036;stroke-width:1.0;"/><line style="stroke:#A80036;stroke-width:1.0;" x1="1088" x2="1442" y1="532.2891" y2="532.2891"/><text fill="#000000" font-family="sans-serif" font-size="13" lengthAdjust="spacing" textLength="85" x="1095" y="527.2231">repositories()</text><polygon fill="#A80036" points="1886,557.4219,1896,561.4219,1886,565.4219,1890,561.4219" style="stroke:#A80036;stroke-width:1.0;"/><line style="stroke:#A80036;stroke-width:1.0;" x1="1448" x2="1892" y1="561.4219" y2="561.4219"/><text fill="#000000" font-family="sans-serif" font-size="13" lengthAdjust="spacing" textLength="51" x="1455" y="556.356">create()</text><polygon fill="#A80036" points="2049.5,586.5547,2059.5,590.5547,2049.5,594.5547,2053.5,590.5547" style="stroke:#A80036;stroke-width:1.0;"/><line style="stroke:#A80036;stroke-width:1.0;" x1="1898" x2="2055.5" y1="590.5547" y2="590.5547"/><text fill="#000000" font-family="sans-serif" font-size="13" lengthAdjust="spacing" textLength="51" x="1905" y="585.4888">create()</text><polygon fill="#A80036" points="1066,615.6875,1076,619.6875,1066,623.6875,1070,619.6875" style="stroke:#A80036;stroke-width:1.0;"/><line style="stroke:#A80036;stroke-width:1.0;" x1="452" x2="1072" y1="619.6875" y2="619.6875"/><text fill="#000000" font-family="sans-serif" font-size="13" lengthAdjust="spacing" textLength="225" x="459" y="614.6216">RegisterTeamType(all parameters)</text><polygon fill="#A80036" points="1641.5,644.8203,1651.5,648.8203,1641.5,652.8203,1645.5,648.8203" style="stroke:#A80036;stroke-width:1.0;"/><line style="stroke:#A80036;stroke-width:1.0;" x1="1088" x2="1647.5" y1="648.8203" y2="648.8203"/><text fill="#000000" font-family="sans-serif" font-size="13" lengthAdjust="spacing" textLength="258" x="1095" y="643.7544">newTeamType = create(all parameters)</text><polygon fill="#A80036" points="2049.5,673.9531,2059.5,677.9531,2049.5,681.9531,2053.5,677.9531" style="stroke:#A80036;stroke-width:1.0;"/><line style="stroke:#A80036;stroke-width:1.0;" x1="1083" x2="2055.5" y1="677.9531" y2="677.9531"/><text fill="#000000" font-family="sans-serif" font-size="13" lengthAdjust="spacing" textLength="137" x="1090" y="672.8872">save(newTeamType)</text><polygon fill="#A80036" points="639,703.0859,649,707.0859,639,711.0859,643,707.0859" style="stroke:#A80036;stroke-width:1.0;"/><line style="stroke:#A80036;stroke-width:1.0;" x1="95" x2="645" y1="707.0859" y2="707.0859"/><text fill="#000000" font-family="sans-serif" font-size="13" lengthAdjust="spacing" textLength="51" x="102" y="702.02">create()</text><polygon fill="#A80036" points="639,732.2188,649,736.2188,639,740.2188,643,736.2188" style="stroke:#A80036;stroke-width:1.0;"/><line style="stroke:#A80036;stroke-width:1.0;" x1="95" x2="645" y1="736.2188" y2="736.2188"/><text fill="#000000" font-family="sans-serif" font-size="13" lengthAdjust="spacing" textLength="62" x="102" y="731.1528">execute()</text><line style="stroke:#A80036;stroke-width:1.0;" x1="661" x2="708" y1="760.3516" y2="760.3516"/><line style="stroke:#A80036;stroke-width:1.0;" x1="708" x2="708" y1="760.3516" y2="773.3516"/><line style="stroke:#A80036;stroke-width:1.0;" x1="667" x2="708" y1="773.3516" y2="773.3516"/><polygon fill="#A80036" points="677,769.3516,667,773.3516,677,777.3516,673,773.3516" style="stroke:#A80036;stroke-width:1.0;"/><text fill="#000000" font-family="sans-serif" font-size="13" lengthAdjust="spacing" textLength="244" x="673" y="755.2856">register(Long mecanographicNumber)</text><polygon fill="#A80036" points="1250,803.4844,1260,807.4844,1250,811.4844,1254,807.4844" style="stroke:#A80036;stroke-width:1.0;"/><line style="stroke:#A80036;stroke-width:1.0;" x1="661" x2="1256" y1="807.4844" y2="807.4844"/><text fill="#000000" font-family="sans-serif" font-size="13" lengthAdjust="spacing" textLength="51" x="668" y="802.4185">create()</text><polygon fill="#A80036" points="1436,832.6172,1446,836.6172,1436,840.6172,1440,836.6172" style="stroke:#A80036;stroke-width:1.0;"/><line style="stroke:#A80036;stroke-width:1.0;" x1="1272" x2="1442" y1="836.6172" y2="836.6172"/><text fill="#000000" font-family="sans-serif" font-size="13" lengthAdjust="spacing" textLength="85" x="1279" y="831.5513">repositories()</text><polygon fill="#A80036" points="1886,861.75,1896,865.75,1886,869.75,1890,865.75" style="stroke:#A80036;stroke-width:1.0;"/><line style="stroke:#A80036;stroke-width:1.0;" x1="1448" x2="1892" y1="865.75" y2="865.75"/><text fill="#000000" font-family="sans-serif" font-size="13" lengthAdjust="spacing" textLength="51" x="1455" y="860.6841">create()</text><polygon fill="#A80036" points="2231,890.8828,2241,894.8828,2231,898.8828,2235,894.8828" style="stroke:#A80036;stroke-width:1.0;"/><line style="stroke:#A80036;stroke-width:1.0;" x1="1898" x2="2237" y1="894.8828" y2="894.8828"/><text fill="#000000" font-family="sans-serif" font-size="13" lengthAdjust="spacing" textLength="51" x="1905" y="889.8169">create()</text><polygon fill="#A80036" points="1250,920.0156,1260,924.0156,1250,928.0156,1254,924.0156" style="stroke:#A80036;stroke-width:1.0;"/><line style="stroke:#A80036;stroke-width:1.0;" x1="661" x2="1256" y1="924.0156" y2="924.0156"/><text fill="#000000" font-family="sans-serif" font-size="13" lengthAdjust="spacing" textLength="234" x="668" y="918.9497">RegisterCollaborator(all parameters)</text><polygon fill="#A80036" points="1752.5,949.1484,1762.5,953.1484,1752.5,957.1484,1756.5,953.1484" style="stroke:#A80036;stroke-width:1.0;"/><line style="stroke:#A80036;stroke-width:1.0;" x1="1272" x2="1758.5" y1="953.1484" y2="953.1484"/><text fill="#000000" font-family="sans-serif" font-size="13" lengthAdjust="spacing" textLength="267" x="1279" y="948.0825">newCollaborator = create(all parameters)</text><polygon fill="#A80036" points="2231,978.2813,2241,982.2813,2231,986.2813,2235,982.2813" style="stroke:#A80036;stroke-width:1.0;"/><line style="stroke:#A80036;stroke-width:1.0;" x1="1267" x2="2237" y1="982.2813" y2="982.2813"/><text fill="#000000" font-family="sans-serif" font-size="13" lengthAdjust="spacing" textLength="146" x="1274" y="977.2153">save(newCollaborator)</text><!--MD5=[edc15739e6d1de652782ca7c9da41b1b]
@startuml
participant FactoryBootstrapper as FB
participant TeamBootstrapper as BC
participant TeamTypeBootstrapper as BS
participant CollaboratorBootstrapper as CB
participant TeamController as ControllerC 
participant TeamTypeController as ControllerS 
participant CollaboratorController as ControllerCO 
participant PersistenceContext as Persistence 
participant Team as CA
participant TeamType as SE 
participant Collaborator as C
database RepositoryFactory as Factory 
database TeamsRepository as Repository
database TeamTypesRepository as Repository2
database CollaboratorRepository as Repository3


activate FB
FB -> BC : create()
activate BC
FB -> BC : execute()


BC -> BC : register(String unique)
activate ControllerC
BC -> ControllerC : create()


ControllerC -> Persistence : repositories()


Persistence -> Factory : create()
database Repository 
Factory -> Repository : create()

BC -> ControllerC : RegisterTeam(all parameters)
ControllerC -> CA : newTeam = create(all parameters)



ControllerC -> Repository : save(newTeam)
deactivate ControllerC
deactivate BC 


FB -> BS : create()
activate BS
FB -> BS : execute()

BS -> BS : register(String Code)
activate ControllerS
BS -> ControllerS : create()


ControllerS -> Persistence : repositories()


Persistence -> Factory : create()
database Repository 
Factory -> Repository2 : create()

BS -> ControllerS : RegisterTeamType(all parameters)
ControllerS -> SE : newTeamType = create(all parameters)


ControllerS -> Repository2 : save(newTeamType)
deactivate ControllerS
deactivate BS 


FB -> CB : create()
activate CB
FB -> CB : execute()

CB -> CB : register(Long mecanographicNumber)
activate ControllerCO
CB -> ControllerCO : create()


ControllerCO -> Persistence : repositories()


Persistence -> Factory : create()
database Repository 
Factory -> Repository3 : create()

CB -> ControllerCO : RegisterCollaborator(all parameters)
ControllerCO -> C : newCollaborator = create(all parameters)


ControllerCO -> Repository3 : save(newCollaborator)
deactivate ControllerCO
deactivate CB 
deactivate FB
@enduml

PlantUML version 1.2021.6beta6(Unknown compile time)
(GPL source distribution)
Java Runtime: Java(TM) SE Runtime Environment
JVM: Java HotSpot(TM) 64-Bit Server VM
Default Encoding: UTF-8
Language: en
Country: US
--></g></svg>