<?xml version="1.0" encoding="UTF-8" standalone="no"?><svg xmlns="http://www.w3.org/2000/svg" xmlns:xlink="http://www.w3.org/1999/xlink" contentScriptType="application/ecmascript" contentStyleType="text/css" height="801px" preserveAspectRatio="none" style="width:538px;height:801px;" version="1.1" viewBox="0 0 538 801" width="538px" zoomAndPan="magnify"><defs><filter height="300%" id="fge21twqbb9bs" width="300%" x="-1" y="-1"><feGaussianBlur result="blurOut" stdDeviation="2.0"/><feColorMatrix in="blurOut" result="blurOut2" type="matrix" values="0 0 0 0 0 0 0 0 0 0 0 0 0 0 0 0 0 0 .4 0"/><feOffset dx="4.0" dy="4.0" in="blurOut2" result="blurOut3"/><feBlend in="SourceGraphic" in2="blurOut3" mode="normal"/></filter></defs><g><!--MD5=[9681dc6e01e10c6b4fe06895ae94f592]
cluster UI--><polygon fill="#FFFFFF" filter="url(#fge21twqbb9bs)" points="310,6,331,6,338,28.2969,450,28.2969,450,89,310,89,310,6" style="stroke:#000000;stroke-width:1.5;"/><line style="stroke:#000000;stroke-width:1.5;" x1="310" x2="338" y1="28.2969" y2="28.2969"/><text fill="#000000" font-family="sans-serif" font-size="14" font-weight="bold" lengthAdjust="spacingAndGlyphs" textLength="15" x="314" y="20.9951">UI</text><!--MD5=[1f2cfc53d9d308f53762fd0fcbaa4873]
cluster Controller--><polygon fill="#FFFFFF" filter="url(#fge21twqbb9bs)" points="179,120,264,120,271,142.2969,521,142.2969,521,267,179,267,179,120" style="stroke:#000000;stroke-width:1.5;"/><line style="stroke:#000000;stroke-width:1.5;" x1="179" x2="271" y1="142.2969" y2="142.2969"/><text fill="#000000" font-family="sans-serif" font-size="14" font-weight="bold" lengthAdjust="spacingAndGlyphs" textLength="79" x="183" y="134.9951">Controller</text><!--MD5=[15636c1ca4a123c16a2a1a8e90aca7a9]
cluster Model--><polygon fill="#FFFFFF" filter="url(#fge21twqbb9bs)" points="16,298,69,298,76,320.2969,323,320.2969,323,794,16,794,16,298" style="stroke:#000000;stroke-width:1.5;"/><line style="stroke:#000000;stroke-width:1.5;" x1="16" x2="76" y1="320.2969" y2="320.2969"/><text fill="#000000" font-family="sans-serif" font-size="14" font-weight="bold" lengthAdjust="spacingAndGlyphs" textLength="47" x="20" y="312.9951">Model</text><!--MD5=[c6ee7796e2dec1f536ec2fe34922673c]
class DockScooterUI--><rect codeLine="5" fill="#FEFECE" filter="url(#fge21twqbb9bs)" height="48" id="DockScooterUI" style="stroke:#A80036;stroke-width:1.5;" width="124" x="318" y="33"/><ellipse cx="333" cy="49" fill="#ADD1B2" rx="11" ry="11" style="stroke:#A80036;stroke-width:1.0;"/><path d="M335.9688,54.6406 Q335.3906,54.9375 334.75,55.0781 Q334.1094,55.2344 333.4063,55.2344 Q330.9063,55.2344 329.5781,53.5938 Q328.2656,51.9375 328.2656,48.8125 Q328.2656,45.6875 329.5781,44.0313 Q330.9063,42.375 333.4063,42.375 Q334.1094,42.375 334.75,42.5313 Q335.4063,42.6875 335.9688,42.9844 L335.9688,45.7031 Q335.3438,45.125 334.75,44.8594 Q334.1563,44.5781 333.5313,44.5781 Q332.1875,44.5781 331.5,45.6563 Q330.8125,46.7188 330.8125,48.8125 Q330.8125,50.9063 331.5,51.9844 Q332.1875,53.0469 333.5313,53.0469 Q334.1563,53.0469 334.75,52.7813 Q335.3438,52.5 335.9688,51.9219 L335.9688,54.6406 Z " fill="#000000"/><text fill="#000000" font-family="sans-serif" font-size="12" lengthAdjust="spacingAndGlyphs" textLength="92" x="347" y="53.1543">DockScooterUI</text><line style="stroke:#A80036;stroke-width:1.5;" x1="319" x2="441" y1="65" y2="65"/><line style="stroke:#A80036;stroke-width:1.5;" x1="319" x2="441" y1="73" y2="73"/><!--MD5=[4a4d39f9531a10699998a1f938087291]
class DockScooterController--><rect codeLine="21" fill="#FEFECE" filter="url(#fge21twqbb9bs)" height="112.0234" id="DockScooterController" style="stroke:#A80036;stroke-width:1.5;" width="173" x="187.5" y="147"/><ellipse cx="202.5" cy="163" fill="#ADD1B2" rx="11" ry="11" style="stroke:#A80036;stroke-width:1.0;"/><path d="M205.4688,168.6406 Q204.8906,168.9375 204.25,169.0781 Q203.6094,169.2344 202.9063,169.2344 Q200.4063,169.2344 199.0781,167.5938 Q197.7656,165.9375 197.7656,162.8125 Q197.7656,159.6875 199.0781,158.0313 Q200.4063,156.375 202.9063,156.375 Q203.6094,156.375 204.25,156.5313 Q204.9063,156.6875 205.4688,156.9844 L205.4688,159.7031 Q204.8438,159.125 204.25,158.8594 Q203.6563,158.5781 203.0313,158.5781 Q201.6875,158.5781 201,159.6563 Q200.3125,160.7188 200.3125,162.8125 Q200.3125,164.9063 201,165.9844 Q201.6875,167.0469 203.0313,167.0469 Q203.6563,167.0469 204.25,166.7813 Q204.8438,166.5 205.4688,165.9219 L205.4688,168.6406 Z " fill="#000000"/><text fill="#000000" font-family="sans-serif" font-size="12" lengthAdjust="spacingAndGlyphs" textLength="141" x="216.5" y="167.1543">DockScooterController</text><line style="stroke:#A80036;stroke-width:1.5;" x1="188.5" x2="359.5" y1="179" y2="179"/><line style="stroke:#A80036;stroke-width:1.5;" x1="188.5" x2="359.5" y1="187" y2="187"/><text fill="#000000" font-family="sans-serif" font-size="11" lengthAdjust="spacingAndGlyphs" textLength="99" x="193.5" y="201.2104">+getScooterList()</text><text fill="#000000" font-family="sans-serif" font-size="11" lengthAdjust="spacingAndGlyphs" textLength="97" x="193.5" y="214.0151">+getCourierList()</text><text fill="#000000" font-family="sans-serif" font-size="11" lengthAdjust="spacingAndGlyphs" textLength="108" x="193.5" y="226.8198">+getCourier(email)</text><text fill="#000000" font-family="sans-serif" font-size="11" lengthAdjust="spacingAndGlyphs" textLength="123" x="193.5" y="239.6245">+getScooter(number)</text><text fill="#000000" font-family="sans-serif" font-size="11" lengthAdjust="spacingAndGlyphs" textLength="79" x="193.5" y="252.4292">+createFiles()</text><!--MD5=[8c32a229fce8023c0a6f77068d24861d]
class AplicationPOT--><rect codeLine="34" fill="#FEFECE" filter="url(#fge21twqbb9bs)" height="60.8047" id="AplicationPOT" style="stroke:#A80036;stroke-width:1.5;" width="117" x="395.5" y="172.5"/><ellipse cx="410.5" cy="188.5" fill="#ADD1B2" rx="11" ry="11" style="stroke:#A80036;stroke-width:1.0;"/><path d="M413.4688,194.1406 Q412.8906,194.4375 412.25,194.5781 Q411.6094,194.7344 410.9063,194.7344 Q408.4063,194.7344 407.0781,193.0938 Q405.7656,191.4375 405.7656,188.3125 Q405.7656,185.1875 407.0781,183.5313 Q408.4063,181.875 410.9063,181.875 Q411.6094,181.875 412.25,182.0313 Q412.9063,182.1875 413.4688,182.4844 L413.4688,185.2031 Q412.8438,184.625 412.25,184.3594 Q411.6563,184.0781 411.0313,184.0781 Q409.6875,184.0781 409,185.1563 Q408.3125,186.2188 408.3125,188.3125 Q408.3125,190.4063 409,191.4844 Q409.6875,192.5469 411.0313,192.5469 Q411.6563,192.5469 412.25,192.2813 Q412.8438,192 413.4688,191.4219 L413.4688,194.1406 Z " fill="#000000"/><text fill="#000000" font-family="sans-serif" font-size="12" lengthAdjust="spacingAndGlyphs" textLength="85" x="424.5" y="192.6543">AplicationPOT</text><line style="stroke:#A80036;stroke-width:1.5;" x1="396.5" x2="511.5" y1="204.5" y2="204.5"/><line style="stroke:#A80036;stroke-width:1.5;" x1="396.5" x2="511.5" y1="212.5" y2="212.5"/><text fill="#000000" font-family="sans-serif" font-size="11" lengthAdjust="spacingAndGlyphs" textLength="93" x="401.5" y="226.7104">+getUserEmail()</text><!--MD5=[99b8db98afdc2c8404e39242ef4c1e65]
class Platform--><rect codeLine="29" fill="#FEFECE" filter="url(#fge21twqbb9bs)" height="73.6094" id="Platform" style="stroke:#A80036;stroke-width:1.5;" width="111" x="109.5" y="325"/><ellipse cx="136.65" cy="341" fill="#ADD1B2" rx="11" ry="11" style="stroke:#A80036;stroke-width:1.0;"/><path d="M139.6188,346.6406 Q139.0406,346.9375 138.4,347.0781 Q137.7594,347.2344 137.0563,347.2344 Q134.5563,347.2344 133.2281,345.5938 Q131.9156,343.9375 131.9156,340.8125 Q131.9156,337.6875 133.2281,336.0313 Q134.5563,334.375 137.0563,334.375 Q137.7594,334.375 138.4,334.5313 Q139.0563,334.6875 139.6188,334.9844 L139.6188,337.7031 Q138.9938,337.125 138.4,336.8594 Q137.8063,336.5781 137.1813,336.5781 Q135.8375,336.5781 135.15,337.6563 Q134.4625,338.7188 134.4625,340.8125 Q134.4625,342.9063 135.15,343.9844 Q135.8375,345.0469 137.1813,345.0469 Q137.8063,345.0469 138.4,344.7813 Q138.9938,344.5 139.6188,343.9219 L139.6188,346.6406 Z " fill="#000000"/><text fill="#000000" font-family="sans-serif" font-size="12" lengthAdjust="spacingAndGlyphs" textLength="52" x="153.35" y="345.1543">Platform</text><line style="stroke:#A80036;stroke-width:1.5;" x1="110.5" x2="219.5" y1="357" y2="357"/><line style="stroke:#A80036;stroke-width:1.5;" x1="110.5" x2="219.5" y1="365" y2="365"/><text fill="#000000" font-family="sans-serif" font-size="11" lengthAdjust="spacingAndGlyphs" textLength="99" x="115.5" y="379.2104">+getScooterList()</text><text fill="#000000" font-family="sans-serif" font-size="11" lengthAdjust="spacingAndGlyphs" textLength="97" x="115.5" y="392.0151">+getCourierList()</text><!--MD5=[1ffba045a97e00fe0441b5d36d8a1265]
class ScooterList--><rect codeLine="38" fill="#FEFECE" filter="url(#fge21twqbb9bs)" height="60.8047" id="ScooterList" style="stroke:#A80036;stroke-width:1.5;" width="135" x="24.5" y="538"/><ellipse cx="54.35" cy="554" fill="#ADD1B2" rx="11" ry="11" style="stroke:#A80036;stroke-width:1.0;"/><path d="M57.3188,559.6406 Q56.7406,559.9375 56.1,560.0781 Q55.4594,560.2344 54.7563,560.2344 Q52.2563,560.2344 50.9281,558.5938 Q49.6156,556.9375 49.6156,553.8125 Q49.6156,550.6875 50.9281,549.0313 Q52.2563,547.375 54.7563,547.375 Q55.4594,547.375 56.1,547.5313 Q56.7563,547.6875 57.3188,547.9844 L57.3188,550.7031 Q56.6938,550.125 56.1,549.8594 Q55.5063,549.5781 54.8813,549.5781 Q53.5375,549.5781 52.85,550.6563 Q52.1625,551.7188 52.1625,553.8125 Q52.1625,555.9063 52.85,556.9844 Q53.5375,558.0469 54.8813,558.0469 Q55.5063,558.0469 56.1,557.7813 Q56.6938,557.5 57.3188,556.9219 L57.3188,559.6406 Z " fill="#000000"/><text fill="#000000" font-family="sans-serif" font-size="12" lengthAdjust="spacingAndGlyphs" textLength="70" x="71.65" y="558.1543">ScooterList</text><line style="stroke:#A80036;stroke-width:1.5;" x1="25.5" x2="158.5" y1="570" y2="570"/><line style="stroke:#A80036;stroke-width:1.5;" x1="25.5" x2="158.5" y1="578" y2="578"/><text fill="#000000" font-family="sans-serif" font-size="11" lengthAdjust="spacingAndGlyphs" textLength="123" x="30.5" y="592.2104">+getScooter(number)</text><!--MD5=[f4402668d5d5bb8485350c0fdb60ac8e]
class Scooter--><rect codeLine="46" fill="#FEFECE" filter="url(#fge21twqbb9bs)" height="48" id="Scooter" style="stroke:#A80036;stroke-width:1.5;" width="81" x="51.5" y="738"/><ellipse cx="66.5" cy="754" fill="#ADD1B2" rx="11" ry="11" style="stroke:#A80036;stroke-width:1.0;"/><path d="M69.4688,759.6406 Q68.8906,759.9375 68.25,760.0781 Q67.6094,760.2344 66.9063,760.2344 Q64.4063,760.2344 63.0781,758.5938 Q61.7656,756.9375 61.7656,753.8125 Q61.7656,750.6875 63.0781,749.0313 Q64.4063,747.375 66.9063,747.375 Q67.6094,747.375 68.25,747.5313 Q68.9063,747.6875 69.4688,747.9844 L69.4688,750.7031 Q68.8438,750.125 68.25,749.8594 Q67.6563,749.5781 67.0313,749.5781 Q65.6875,749.5781 65,750.6563 Q64.3125,751.7188 64.3125,753.8125 Q64.3125,755.9063 65,756.9844 Q65.6875,758.0469 67.0313,758.0469 Q67.6563,758.0469 68.25,757.7813 Q68.8438,757.5 69.4688,756.9219 L69.4688,759.6406 Z " fill="#000000"/><text fill="#000000" font-family="sans-serif" font-size="12" lengthAdjust="spacingAndGlyphs" textLength="49" x="80.5" y="758.1543">Scooter</text><line style="stroke:#A80036;stroke-width:1.5;" x1="52.5" x2="131.5" y1="770" y2="770"/><line style="stroke:#A80036;stroke-width:1.5;" x1="52.5" x2="131.5" y1="778" y2="778"/><!--MD5=[455f4d4a84b1567ee96d7dad078f1422]
class CourierList--><rect codeLine="42" fill="#FEFECE" filter="url(#fge21twqbb9bs)" height="60.8047" id="CourierList" style="stroke:#A80036;stroke-width:1.5;" width="120" x="195" y="538"/><ellipse cx="219.9" cy="554" fill="#ADD1B2" rx="11" ry="11" style="stroke:#A80036;stroke-width:1.0;"/><path d="M222.8688,559.6406 Q222.2906,559.9375 221.65,560.0781 Q221.0094,560.2344 220.3063,560.2344 Q217.8063,560.2344 216.4781,558.5938 Q215.1656,556.9375 215.1656,553.8125 Q215.1656,550.6875 216.4781,549.0313 Q217.8063,547.375 220.3063,547.375 Q221.0094,547.375 221.65,547.5313 Q222.3063,547.6875 222.8688,547.9844 L222.8688,550.7031 Q222.2438,550.125 221.65,549.8594 Q221.0563,549.5781 220.4313,549.5781 Q219.0875,549.5781 218.4,550.6563 Q217.7125,551.7188 217.7125,553.8125 Q217.7125,555.9063 218.4,556.9844 Q219.0875,558.0469 220.4313,558.0469 Q221.0563,558.0469 221.65,557.7813 Q222.2438,557.5 222.8688,556.9219 L222.8688,559.6406 Z " fill="#000000"/><text fill="#000000" font-family="sans-serif" font-size="12" lengthAdjust="spacingAndGlyphs" textLength="66" x="236.1" y="558.1543">CourierList</text><line style="stroke:#A80036;stroke-width:1.5;" x1="196" x2="314" y1="570" y2="570"/><line style="stroke:#A80036;stroke-width:1.5;" x1="196" x2="314" y1="578" y2="578"/><text fill="#000000" font-family="sans-serif" font-size="11" lengthAdjust="spacingAndGlyphs" textLength="108" x="201" y="592.2104">+getCourier(email)</text><!--MD5=[c6a2171c11447acbe08a3dfeee0e1710]
class Courier--><rect codeLine="49" fill="#FEFECE" filter="url(#fge21twqbb9bs)" height="48" id="Courier" style="stroke:#A80036;stroke-width:1.5;" width="77" x="207.5" y="738"/><ellipse cx="222.5" cy="754" fill="#ADD1B2" rx="11" ry="11" style="stroke:#A80036;stroke-width:1.0;"/><path d="M225.4688,759.6406 Q224.8906,759.9375 224.25,760.0781 Q223.6094,760.2344 222.9063,760.2344 Q220.4063,760.2344 219.0781,758.5938 Q217.7656,756.9375 217.7656,753.8125 Q217.7656,750.6875 219.0781,749.0313 Q220.4063,747.375 222.9063,747.375 Q223.6094,747.375 224.25,747.5313 Q224.9063,747.6875 225.4688,747.9844 L225.4688,750.7031 Q224.8438,750.125 224.25,749.8594 Q223.6563,749.5781 223.0313,749.5781 Q221.6875,749.5781 221,750.6563 Q220.3125,751.7188 220.3125,753.8125 Q220.3125,755.9063 221,756.9844 Q221.6875,758.0469 223.0313,758.0469 Q223.6563,758.0469 224.25,757.7813 Q224.8438,757.5 225.4688,756.9219 L225.4688,759.6406 Z " fill="#000000"/><text fill="#000000" font-family="sans-serif" font-size="12" lengthAdjust="spacingAndGlyphs" textLength="45" x="236.5" y="758.1543">Courier</text><line style="stroke:#A80036;stroke-width:1.5;" x1="208.5" x2="283.5" y1="770" y2="770"/><line style="stroke:#A80036;stroke-width:1.5;" x1="208.5" x2="283.5" y1="778" y2="778"/><!--MD5=[bb1b8d13ae38b727e340b71b04bd11f0]
link DockScooterUI to DockScooterController--><path codeLine="52" d="M362.4963,81.1089 C350.3131,97.8895 333.4986,121.0491 317.7961,142.6771 " fill="none" id="DockScooterUI-to-DockScooterController" style="stroke:#A80036;stroke-width:1.0;stroke-dasharray:7.0,7.0;"/><polygon fill="#A80036" points="314.6721,146.9799,323.1966,142.0471,317.6097,142.9339,316.723,137.3469,314.6721,146.9799" style="stroke:#A80036;stroke-width:1.0;"/><!--MD5=[8f6c7c4b4cec71a4b62d42cea55042b9]
link DockScooterUI to AplicationPOT--><path codeLine="53" d="M392.2196,81.1089 C404.1718,104.6904 422.5089,140.869 436.1041,167.6919 " fill="none" id="DockScooterUI-to-AplicationPOT" style="stroke:#A80036;stroke-width:1.0;stroke-dasharray:7.0,7.0;"/><polygon fill="#A80036" points="438.4139,172.249,437.9128,162.4129,436.1534,167.7892,430.7771,166.0298,438.4139,172.249" style="stroke:#A80036;stroke-width:1.0;"/><!--MD5=[2d89a1f0eba94a000def70e0db05a43b]
link DockScooterController to Platform--><path codeLine="55" d="M235.5707,259.0575 C221.6669,279.3392 206.2305,301.8564 193.3489,320.647 " fill="none" id="DockScooterController-to-Platform" style="stroke:#A80036;stroke-width:1.0;stroke-dasharray:7.0,7.0;"/><polygon fill="#A80036" points="190.4718,324.8439,198.8598,319.6824,193.2989,320.7199,192.2615,315.159,190.4718,324.8439" style="stroke:#A80036;stroke-width:1.0;"/><!--MD5=[bd66778dc651e9cec30c487f051ae0d9]
link DockScooterController to ScooterList--><path codeLine="56" d="M283.9075,259.2095 C291.2137,318.205 293.6959,411.3312 252,477 C241.0393,494.2625 201.1445,517.0941 163.9375,535.6317 " fill="none" id="DockScooterController-to-ScooterList" style="stroke:#A80036;stroke-width:1.0;stroke-dasharray:7.0,7.0;"/><polygon fill="#A80036" points="159.4155,537.8705,169.2559,537.4618,163.8963,535.6519,165.7062,530.2924,159.4155,537.8705" style="stroke:#A80036;stroke-width:1.0;"/><!--MD5=[ccb57aa1974b02d81d0035a58a8718a8]
link DockScooterController to CourierList--><path codeLine="57" d="M293.6003,259.3629 C296.2582,269.1342 298.5627,279.279 300,289 C314.2367,385.2865 330.5957,415.6004 300,508 C297.0489,516.9124 292.2195,525.5794 286.7958,533.4392 " fill="none" id="DockScooterController-to-CourierList" style="stroke:#A80036;stroke-width:1.0;stroke-dasharray:7.0,7.0;"/><polygon fill="#A80036" points="283.7297,537.7191,292.2228,532.7323,286.6416,533.6545,285.7194,528.0733,283.7297,537.7191" style="stroke:#A80036;stroke-width:1.0;"/><!--MD5=[8e112e2feda94a7cb4dd2e8be9e487fa]
link Platform to CourierList--><path codeLine="59" d="M181.2983,399.3956 C197.8296,437.3256 223.2301,495.6057 239.4771,532.8836 " fill="none" id="Platform-to-CourierList" style="stroke:#A80036;stroke-width:1.0;"/><polygon fill="#A80036" points="241.6085,537.7739,241.6795,527.9253,239.6108,533.1903,234.3458,531.1216,241.6085,537.7739" style="stroke:#A80036;stroke-width:1.0;"/><polygon fill="#000000" points="221.9977,473.15,221.078,463.684,215.6897,466.0324,221.9977,473.15" style="stroke:#000000;stroke-width:1.0;"/><text fill="#000000" font-family="sans-serif" font-size="13" lengthAdjust="spacingAndGlyphs" textLength="23" x="229" y="473.0669">has</text><text fill="#000000" font-family="sans-serif" font-size="13" lengthAdjust="spacingAndGlyphs" textLength="8" x="175.2583" y="418.6594">1</text><text fill="#000000" font-family="sans-serif" font-size="13" lengthAdjust="spacingAndGlyphs" textLength="8" x="230.0215" y="526.9905">1</text><!--MD5=[bb04093b5f10ef8bbb871e48ac5d89eb]
link Platform to ScooterList--><path codeLine="60" d="M134.9539,399.3448 C122.5882,416.7629 109.4413,438.3896 102,460 C93.9606,483.3475 91.5198,511.0952 91.0584,532.6854 " fill="none" id="Platform-to-ScooterList" style="stroke:#A80036;stroke-width:1.0;"/><polygon fill="#A80036" points="90.9837,537.7538,95.116,528.8137,91.0574,532.7543,87.1168,528.6958,90.9837,537.7538" style="stroke:#A80036;stroke-width:1.0;"/><polygon fill="#000000" points="105.4365,473.3157,111.0564,465.6431,105.4733,463.8052,105.4365,473.3157" style="stroke:#000000;stroke-width:1.0;"/><text fill="#000000" font-family="sans-serif" font-size="13" lengthAdjust="spacingAndGlyphs" textLength="23" x="116" y="473.0669">has</text><text fill="#000000" font-family="sans-serif" font-size="13" lengthAdjust="spacingAndGlyphs" textLength="8" x="121.5278" y="418.6005">1</text><text fill="#000000" font-family="sans-serif" font-size="13" lengthAdjust="spacingAndGlyphs" textLength="8" x="81.9491" y="526.9663">1</text><!--MD5=[d5df135ac96a6f2d61014a7165561be8]
link CourierList to Courier--><path codeLine="62" d="M253.5739,599.1607 C251.8685,635.8277 249.0347,696.7539 247.3593,732.774 " fill="none" id="CourierList-to-Courier" style="stroke:#A80036;stroke-width:1.0;"/><polygon fill="#A80036" points="247.1208,737.9019,251.5348,729.0976,247.3532,732.9073,243.5435,728.7257,247.1208,737.9019" style="stroke:#A80036;stroke-width:1.0;"/><polygon fill="#000000" points="254.7677,673.561,258.1237,664.6622,252.2522,664.3891,254.7677,673.561" style="stroke:#000000;stroke-width:1.0;"/><text fill="#000000" font-family="sans-serif" font-size="13" lengthAdjust="spacingAndGlyphs" textLength="54" x="264" y="673.0669">contains</text><text fill="#000000" font-family="sans-serif" font-size="13" lengthAdjust="spacingAndGlyphs" textLength="8" x="244.5056" y="618.7728">1</text><text fill="#000000" font-family="sans-serif" font-size="13" lengthAdjust="spacingAndGlyphs" textLength="23" x="221.4611" y="726.8888">0..*</text><!--MD5=[6f4c8b666f699595ad581822bcc3a4b8]
link ScooterList to Scooter--><path codeLine="63" d="M92,599.1607 C92,635.8277 92,696.7539 92,732.774 " fill="none" id="ScooterList-to-Scooter" style="stroke:#A80036;stroke-width:1.0;"/><polygon fill="#A80036" points="92,737.9019,96,728.9019,92,732.9019,88,728.9019,92,737.9019" style="stroke:#A80036;stroke-width:1.0;"/><polygon fill="#000000" points="97,673.5664,99.9389,664.5213,94.0611,664.5213,97,673.5664" style="stroke:#000000;stroke-width:1.0;"/><text fill="#000000" font-family="sans-serif" font-size="13" lengthAdjust="spacingAndGlyphs" textLength="54" x="106" y="673.0669">contains</text><text fill="#000000" font-family="sans-serif" font-size="13" lengthAdjust="spacingAndGlyphs" textLength="8" x="83.2125" y="618.7728">1</text><text fill="#000000" font-family="sans-serif" font-size="13" lengthAdjust="spacingAndGlyphs" textLength="23" x="66.0531" y="726.8888">0..*</text><!--MD5=[a11a78c0d010a806c500beafa2f5badd]
@startuml
skinparam classAttributeIconSize 0
top to bottom direction

package UI <<Folder>> {
  class DockScooterUI
}

package Controller <<Folder>> {
  class DockScooterController
  class AplicationPOT
}

package Model <<Folder>> {
	class Platform
  class ScooterList
  class Scooter
  class CourierList
  class Courier
}

class DockScooterController{
  +getScooterList()
  +getCourierList()
  +getCourier(email)
  +getScooter(number)
  +createFiles()
}

class Platform {
  +getScooterList()
  +getCourierList()
}

class AplicationPOT {
  +getUserEmail()  
}

class ScooterList {
	+getScooter(number)
}

class CourierList {
  +getCourier(email)
}

class Scooter {
}

class Courier


DockScooterUI ..>  DockScooterController
DockScooterUI ..> AplicationPOT

DockScooterController ..> Platform
DockScooterController ..> ScooterList
DockScooterController ..> CourierList

Platform "1" - -> "1" CourierList : has >
Platform "1" - -> "1" ScooterList : has >

CourierList "1" - -> "0..*" Courier : contains >
ScooterList "1" - -> "0..*" Scooter : contains >
@enduml

PlantUML version 1.2020.22(Sun Dec 06 09:36:27 UTC 2020)
(GPL source distribution)
Java Runtime: OpenJDK Runtime Environment
JVM: OpenJDK 64-Bit Server VM
Default Encoding: UTF-8
Language: en
Country: US
--></g></svg>