<?xml version="1.0" encoding="UTF-8" standalone="no"?><svg xmlns="http://www.w3.org/2000/svg" xmlns:xlink="http://www.w3.org/1999/xlink" contentScriptType="application/ecmascript" contentStyleType="text/css" height="1495px" preserveAspectRatio="none" style="width:1030px;height:1495px;" version="1.1" viewBox="0 0 1030 1495" width="1030px" zoomAndPan="magnify"><defs><filter height="300%" id="f1iaootmggixt4" width="300%" x="-1" y="-1"><feGaussianBlur result="blurOut" stdDeviation="2.0"/><feColorMatrix in="blurOut" result="blurOut2" type="matrix" values="0 0 0 0 0 0 0 0 0 0 0 0 0 0 0 0 0 0 .4 0"/><feOffset dx="4.0" dy="4.0" in="blurOut2" result="blurOut3"/><feBlend in="SourceGraphic" in2="blurOut3" mode="normal"/></filter></defs><g><rect fill="#FFFFFF" filter="url(#f1iaootmggixt4)" height="1302.7813" style="stroke:#A80036;stroke-width:1.0;" width="10" x="243" y="98.2969"/><rect fill="#FFFFFF" filter="url(#f1iaootmggixt4)" height="59.1328" style="stroke:#A80036;stroke-width:1.0;" width="10" x="592" y="201.8281"/><rect fill="#FFFFFF" filter="url(#f1iaootmggixt4)" height="59.1328" style="stroke:#A80036;stroke-width:1.0;" width="10" x="592" y="379.4922"/><rect fill="#FFFFFF" filter="url(#f1iaootmggixt4)" height="59.1328" style="stroke:#A80036;stroke-width:1.0;" width="10" x="592" y="557.1563"/><rect fill="#FFFFFF" filter="url(#f1iaootmggixt4)" height="59.1328" style="stroke:#A80036;stroke-width:1.0;" width="10" x="592" y="734.8203"/><rect fill="#FFFFFF" filter="url(#f1iaootmggixt4)" height="59.1328" style="stroke:#A80036;stroke-width:1.0;" width="10" x="592" y="912.4844"/><rect fill="#FFFFFF" filter="url(#f1iaootmggixt4)" height="30" style="stroke:#A80036;stroke-width:1.0;" width="10" x="592" y="1090.1484"/><rect fill="#FFFFFF" filter="url(#f1iaootmggixt4)" height="59.1328" style="stroke:#A80036;stroke-width:1.0;" width="10" x="592" y="1149.2813"/><rect fill="#FFFFFF" filter="url(#f1iaootmggixt4)" height="59.1328" style="stroke:#A80036;stroke-width:1.0;" width="10" x="592" y="1326.9453"/><rect fill="#FFFFFF" filter="url(#f1iaootmggixt4)" height="30" style="stroke:#A80036;stroke-width:1.0;" width="10" x="943" y="230.9609"/><rect fill="#FFFFFF" filter="url(#f1iaootmggixt4)" height="30" style="stroke:#A80036;stroke-width:1.0;" width="10" x="943" y="408.625"/><rect fill="#FFFFFF" filter="url(#f1iaootmggixt4)" height="30" style="stroke:#A80036;stroke-width:1.0;" width="10" x="943" y="586.2891"/><rect fill="#FFFFFF" filter="url(#f1iaootmggixt4)" height="30" style="stroke:#A80036;stroke-width:1.0;" width="10" x="943" y="763.9531"/><rect fill="#FFFFFF" filter="url(#f1iaootmggixt4)" height="30" style="stroke:#A80036;stroke-width:1.0;" width="10" x="943" y="941.6172"/><rect fill="#FFFFFF" filter="url(#f1iaootmggixt4)" height="30" style="stroke:#A80036;stroke-width:1.0;" width="10" x="943" y="1178.4141"/><rect fill="#FFFFFF" filter="url(#f1iaootmggixt4)" height="30" style="stroke:#A80036;stroke-width:1.0;" width="10" x="943" y="1356.0781"/><rect fill="#FFFFFF" filter="url(#f1iaootmggixt4)" height="163.6641" style="stroke:#000000;stroke-width:2.0;" width="1006" x="10" y="105.2969"/><rect fill="#FFFFFF" filter="url(#f1iaootmggixt4)" height="163.6641" style="stroke:#000000;stroke-width:2.0;" width="1006" x="10" y="282.9609"/><rect fill="#FFFFFF" filter="url(#f1iaootmggixt4)" height="163.6641" style="stroke:#000000;stroke-width:2.0;" width="1006" x="10" y="460.625"/><rect fill="#FFFFFF" filter="url(#f1iaootmggixt4)" height="163.6641" style="stroke:#000000;stroke-width:2.0;" width="1006" x="10" y="638.2891"/><rect fill="#FFFFFF" filter="url(#f1iaootmggixt4)" height="163.6641" style="stroke:#000000;stroke-width:2.0;" width="1006" x="10" y="815.9531"/><rect fill="#FFFFFF" filter="url(#f1iaootmggixt4)" height="222.7969" style="stroke:#000000;stroke-width:2.0;" width="1006" x="10" y="993.6172"/><rect fill="#FFFFFF" filter="url(#f1iaootmggixt4)" height="163.6641" style="stroke:#000000;stroke-width:2.0;" width="1006" x="10" y="1230.4141"/><line style="stroke:#A80036;stroke-width:1.0;stroke-dasharray:5.0,5.0;" x1="38" x2="38" y1="88.2969" y2="1411.0781"/><line style="stroke:#A80036;stroke-width:1.0;stroke-dasharray:5.0,5.0;" x1="248" x2="248" y1="88.2969" y2="1411.0781"/><line style="stroke:#A80036;stroke-width:1.0;stroke-dasharray:5.0,5.0;" x1="597" x2="597" y1="88.2969" y2="1411.0781"/><line style="stroke:#A80036;stroke-width:1.0;stroke-dasharray:5.0,5.0;" x1="948" x2="948" y1="88.2969" y2="1411.0781"/><text fill="#000000" font-family="sans-serif" font-size="14" lengthAdjust="spacingAndGlyphs" textLength="30" x="20" y="84.9951">GSH</text><ellipse cx="38" cy="15" fill="#FEFECE" filter="url(#f1iaootmggixt4)" rx="8" ry="8" style="stroke:#A80036;stroke-width:2.0;"/><path d="M38,23 L38,50 M25,31 L51,31 M38,50 L25,65 M38,50 L51,65 " fill="none" filter="url(#f1iaootmggixt4)" style="stroke:#A80036;stroke-width:2.0;"/><text fill="#000000" font-family="sans-serif" font-size="14" lengthAdjust="spacingAndGlyphs" textLength="30" x="20" y="1423.0732">GSH</text><ellipse cx="38" cy="1436.375" fill="#FEFECE" filter="url(#f1iaootmggixt4)" rx="8" ry="8" style="stroke:#A80036;stroke-width:2.0;"/><path d="M38,1444.375 L38,1471.375 M25,1452.375 L51,1452.375 M38,1471.375 L25,1486.375 M38,1471.375 L51,1486.375 " fill="none" filter="url(#f1iaootmggixt4)" style="stroke:#A80036;stroke-width:2.0;"/><rect fill="#FEFECE" filter="url(#f1iaootmggixt4)" height="46.5938" style="stroke:#A80036;stroke-width:1.5;" width="126" x="183" y="36.7031"/><text fill="#000000" font-family="sans-serif" font-size="14" font-style="italic" lengthAdjust="spacingAndGlyphs" textLength="106" x="193" y="56.6982">«presentation»</text><text fill="#000000" font-family="sans-serif" font-size="14" lengthAdjust="spacingAndGlyphs" textLength="112" x="190" y="72.9951">SpecifyServiceUI</text><rect fill="#FEFECE" filter="url(#f1iaootmggixt4)" height="46.5938" style="stroke:#A80036;stroke-width:1.5;" width="126" x="183" y="1410.0781"/><text fill="#000000" font-family="sans-serif" font-size="14" font-style="italic" lengthAdjust="spacingAndGlyphs" textLength="106" x="193" y="1430.0732">«presentation»</text><text fill="#000000" font-family="sans-serif" font-size="14" lengthAdjust="spacingAndGlyphs" textLength="112" x="190" y="1446.3701">SpecifyServiceUI</text><rect fill="#FEFECE" filter="url(#f1iaootmggixt4)" height="46.5938" style="stroke:#A80036;stroke-width:1.5;" width="180" x="505" y="36.7031"/><text fill="#000000" font-family="sans-serif" font-size="14" font-style="italic" lengthAdjust="spacingAndGlyphs" textLength="92" x="549" y="56.6982">«application»</text><text fill="#000000" font-family="sans-serif" font-size="14" lengthAdjust="spacingAndGlyphs" textLength="166" x="512" y="72.9951">SpecifyServiceController</text><rect fill="#FEFECE" filter="url(#f1iaootmggixt4)" height="46.5938" style="stroke:#A80036;stroke-width:1.5;" width="180" x="505" y="1410.0781"/><text fill="#000000" font-family="sans-serif" font-size="14" font-style="italic" lengthAdjust="spacingAndGlyphs" textLength="92" x="549" y="1430.0732">«application»</text><text fill="#000000" font-family="sans-serif" font-size="14" lengthAdjust="spacingAndGlyphs" textLength="166" x="512" y="1446.3701">SpecifyServiceController</text><rect fill="#FEFECE" filter="url(#f1iaootmggixt4)" height="46.5938" style="stroke:#A80036;stroke-width:1.5;" width="112" x="890" y="36.7031"/><text fill="#000000" font-family="sans-serif" font-size="14" font-style="italic" lengthAdjust="spacingAndGlyphs" textLength="65" x="913.5" y="56.6982">«builder»</text><text fill="#000000" font-family="sans-serif" font-size="14" lengthAdjust="spacingAndGlyphs" textLength="98" x="897" y="72.9951">ServiceBuilder</text><rect fill="#FEFECE" filter="url(#f1iaootmggixt4)" height="46.5938" style="stroke:#A80036;stroke-width:1.5;" width="112" x="890" y="1410.0781"/><text fill="#000000" font-family="sans-serif" font-size="14" font-style="italic" lengthAdjust="spacingAndGlyphs" textLength="65" x="913.5" y="1430.0732">«builder»</text><text fill="#000000" font-family="sans-serif" font-size="14" lengthAdjust="spacingAndGlyphs" textLength="98" x="897" y="1446.3701">ServiceBuilder</text><rect fill="#FFFFFF" filter="url(#f1iaootmggixt4)" height="1302.7813" style="stroke:#A80036;stroke-width:1.0;" width="10" x="243" y="98.2969"/><rect fill="#FFFFFF" filter="url(#f1iaootmggixt4)" height="59.1328" style="stroke:#A80036;stroke-width:1.0;" width="10" x="592" y="201.8281"/><rect fill="#FFFFFF" filter="url(#f1iaootmggixt4)" height="59.1328" style="stroke:#A80036;stroke-width:1.0;" width="10" x="592" y="379.4922"/><rect fill="#FFFFFF" filter="url(#f1iaootmggixt4)" height="59.1328" style="stroke:#A80036;stroke-width:1.0;" width="10" x="592" y="557.1563"/><rect fill="#FFFFFF" filter="url(#f1iaootmggixt4)" height="59.1328" style="stroke:#A80036;stroke-width:1.0;" width="10" x="592" y="734.8203"/><rect fill="#FFFFFF" filter="url(#f1iaootmggixt4)" height="59.1328" style="stroke:#A80036;stroke-width:1.0;" width="10" x="592" y="912.4844"/><rect fill="#FFFFFF" filter="url(#f1iaootmggixt4)" height="30" style="stroke:#A80036;stroke-width:1.0;" width="10" x="592" y="1090.1484"/><rect fill="#FFFFFF" filter="url(#f1iaootmggixt4)" height="59.1328" style="stroke:#A80036;stroke-width:1.0;" width="10" x="592" y="1149.2813"/><rect fill="#FFFFFF" filter="url(#f1iaootmggixt4)" height="59.1328" style="stroke:#A80036;stroke-width:1.0;" width="10" x="592" y="1326.9453"/><rect fill="#FFFFFF" filter="url(#f1iaootmggixt4)" height="30" style="stroke:#A80036;stroke-width:1.0;" width="10" x="943" y="230.9609"/><rect fill="#FFFFFF" filter="url(#f1iaootmggixt4)" height="30" style="stroke:#A80036;stroke-width:1.0;" width="10" x="943" y="408.625"/><rect fill="#FFFFFF" filter="url(#f1iaootmggixt4)" height="30" style="stroke:#A80036;stroke-width:1.0;" width="10" x="943" y="586.2891"/><rect fill="#FFFFFF" filter="url(#f1iaootmggixt4)" height="30" style="stroke:#A80036;stroke-width:1.0;" width="10" x="943" y="763.9531"/><rect fill="#FFFFFF" filter="url(#f1iaootmggixt4)" height="30" style="stroke:#A80036;stroke-width:1.0;" width="10" x="943" y="941.6172"/><rect fill="#FFFFFF" filter="url(#f1iaootmggixt4)" height="30" style="stroke:#A80036;stroke-width:1.0;" width="10" x="943" y="1178.4141"/><rect fill="#FFFFFF" filter="url(#f1iaootmggixt4)" height="30" style="stroke:#A80036;stroke-width:1.0;" width="10" x="943" y="1356.0781"/><path d="M10,105.2969 L80,105.2969 L80,112.2969 L70,122.2969 L10,122.2969 L10,105.2969 " fill="#EEEEEE" style="stroke:#000000;stroke-width:1.0;"/><rect fill="none" height="163.6641" style="stroke:#000000;stroke-width:2.0;" width="1006" x="10" y="105.2969"/><text fill="#000000" font-family="sans-serif" font-size="13" font-weight="bold" lengthAdjust="spacingAndGlyphs" textLength="25" x="25" y="118.3638">opt</text><polygon fill="#A80036" points="49,139.5625,39,143.5625,49,147.5625,45,143.5625" style="stroke:#A80036;stroke-width:1.0;"/><line style="stroke:#A80036;stroke-width:1.0;stroke-dasharray:2.0,2.0;" x1="43" x2="242" y1="143.5625" y2="143.5625"/><text fill="#000000" font-family="sans-serif" font-size="13" lengthAdjust="spacingAndGlyphs" textLength="149" x="55" y="138.4966">ask for brief description</text><polygon fill="#A80036" points="231,168.6953,241,172.6953,231,176.6953,235,172.6953" style="stroke:#A80036;stroke-width:1.0;"/><line style="stroke:#A80036;stroke-width:1.0;stroke-dasharray:2.0,2.0;" x1="38" x2="237" y1="172.6953" y2="172.6953"/><text fill="#000000" font-family="sans-serif" font-size="13" lengthAdjust="spacingAndGlyphs" textLength="92" x="45" y="167.6294">Enter the data</text><polygon fill="#A80036" points="580,197.8281,590,201.8281,580,205.8281,584,201.8281" style="stroke:#A80036;stroke-width:1.0;"/><line style="stroke:#A80036;stroke-width:1.0;stroke-dasharray:2.0,2.0;" x1="253" x2="586" y1="201.8281" y2="201.8281"/><text fill="#000000" font-family="sans-serif" font-size="13" lengthAdjust="spacingAndGlyphs" textLength="255" x="260" y="196.7622">specifyBriefDescription(briefDescription)</text><polygon fill="#A80036" points="931,226.9609,941,230.9609,931,234.9609,935,230.9609" style="stroke:#A80036;stroke-width:1.0;"/><line style="stroke:#A80036;stroke-width:1.0;stroke-dasharray:2.0,2.0;" x1="602" x2="937" y1="230.9609" y2="230.9609"/><text fill="#000000" font-family="sans-serif" font-size="13" lengthAdjust="spacingAndGlyphs" textLength="255" x="609" y="225.895">specifyBriefDescription(briefDescription)</text><path d="M10,282.9609 L80,282.9609 L80,289.9609 L70,299.9609 L10,299.9609 L10,282.9609 " fill="#EEEEEE" style="stroke:#000000;stroke-width:1.0;"/><rect fill="none" height="163.6641" style="stroke:#000000;stroke-width:2.0;" width="1006" x="10" y="282.9609"/><text fill="#000000" font-family="sans-serif" font-size="13" font-weight="bold" lengthAdjust="spacingAndGlyphs" textLength="25" x="25" y="296.0278">opt</text><polygon fill="#A80036" points="49,317.2266,39,321.2266,49,325.2266,45,321.2266" style="stroke:#A80036;stroke-width:1.0;"/><line style="stroke:#A80036;stroke-width:1.0;stroke-dasharray:2.0,2.0;" x1="43" x2="242" y1="321.2266" y2="321.2266"/><text fill="#000000" font-family="sans-serif" font-size="13" lengthAdjust="spacingAndGlyphs" textLength="181" x="55" y="316.1606">ask for complete description</text><polygon fill="#A80036" points="231,346.3594,241,350.3594,231,354.3594,235,350.3594" style="stroke:#A80036;stroke-width:1.0;"/><line style="stroke:#A80036;stroke-width:1.0;stroke-dasharray:2.0,2.0;" x1="38" x2="237" y1="350.3594" y2="350.3594"/><text fill="#000000" font-family="sans-serif" font-size="13" lengthAdjust="spacingAndGlyphs" textLength="92" x="45" y="345.2935">Enter the data</text><polygon fill="#A80036" points="580,375.4922,590,379.4922,580,383.4922,584,379.4922" style="stroke:#A80036;stroke-width:1.0;"/><line style="stroke:#A80036;stroke-width:1.0;stroke-dasharray:2.0,2.0;" x1="253" x2="586" y1="379.4922" y2="379.4922"/><text fill="#000000" font-family="sans-serif" font-size="13" lengthAdjust="spacingAndGlyphs" textLength="320" x="260" y="374.4263">specifyCompleteDescription(completeDescription)</text><polygon fill="#A80036" points="931,404.625,941,408.625,931,412.625,935,408.625" style="stroke:#A80036;stroke-width:1.0;"/><line style="stroke:#A80036;stroke-width:1.0;stroke-dasharray:2.0,2.0;" x1="602" x2="937" y1="408.625" y2="408.625"/><text fill="#000000" font-family="sans-serif" font-size="13" lengthAdjust="spacingAndGlyphs" textLength="322" x="609" y="403.5591">specifyCompleteDescription(CompleteDescription)</text><path d="M10,460.625 L80,460.625 L80,467.625 L70,477.625 L10,477.625 L10,460.625 " fill="#EEEEEE" style="stroke:#000000;stroke-width:1.0;"/><rect fill="none" height="163.6641" style="stroke:#000000;stroke-width:2.0;" width="1006" x="10" y="460.625"/><text fill="#000000" font-family="sans-serif" font-size="13" font-weight="bold" lengthAdjust="spacingAndGlyphs" textLength="25" x="25" y="473.6919">opt</text><polygon fill="#A80036" points="49,494.8906,39,498.8906,49,502.8906,45,498.8906" style="stroke:#A80036;stroke-width:1.0;"/><line style="stroke:#A80036;stroke-width:1.0;stroke-dasharray:2.0,2.0;" x1="43" x2="242" y1="498.8906" y2="498.8906"/><text fill="#000000" font-family="sans-serif" font-size="13" lengthAdjust="spacingAndGlyphs" textLength="75" x="55" y="493.8247">ask for type</text><polygon fill="#A80036" points="231,524.0234,241,528.0234,231,532.0234,235,528.0234" style="stroke:#A80036;stroke-width:1.0;"/><line style="stroke:#A80036;stroke-width:1.0;stroke-dasharray:2.0,2.0;" x1="38" x2="237" y1="528.0234" y2="528.0234"/><text fill="#000000" font-family="sans-serif" font-size="13" lengthAdjust="spacingAndGlyphs" textLength="92" x="45" y="522.9575">Enter the data</text><polygon fill="#A80036" points="580,553.1563,590,557.1563,580,561.1563,584,557.1563" style="stroke:#A80036;stroke-width:1.0;"/><line style="stroke:#A80036;stroke-width:1.0;stroke-dasharray:2.0,2.0;" x1="253" x2="586" y1="557.1563" y2="557.1563"/><text fill="#000000" font-family="sans-serif" font-size="13" lengthAdjust="spacingAndGlyphs" textLength="112" x="260" y="552.0903">specifyType(type)</text><polygon fill="#A80036" points="931,582.2891,941,586.2891,931,590.2891,935,586.2891" style="stroke:#A80036;stroke-width:1.0;"/><line style="stroke:#A80036;stroke-width:1.0;stroke-dasharray:2.0,2.0;" x1="602" x2="937" y1="586.2891" y2="586.2891"/><text fill="#000000" font-family="sans-serif" font-size="13" lengthAdjust="spacingAndGlyphs" textLength="110" x="609" y="581.2231">specifytype(type)</text><path d="M10,638.2891 L80,638.2891 L80,645.2891 L70,655.2891 L10,655.2891 L10,638.2891 " fill="#EEEEEE" style="stroke:#000000;stroke-width:1.0;"/><rect fill="none" height="163.6641" style="stroke:#000000;stroke-width:2.0;" width="1006" x="10" y="638.2891"/><text fill="#000000" font-family="sans-serif" font-size="13" font-weight="bold" lengthAdjust="spacingAndGlyphs" textLength="25" x="25" y="651.356">opt</text><polygon fill="#A80036" points="49,672.5547,39,676.5547,49,680.5547,45,676.5547" style="stroke:#A80036;stroke-width:1.0;"/><line style="stroke:#A80036;stroke-width:1.0;stroke-dasharray:2.0,2.0;" x1="43" x2="242" y1="676.5547" y2="676.5547"/><text fill="#000000" font-family="sans-serif" font-size="13" lengthAdjust="spacingAndGlyphs" textLength="106" x="55" y="671.4888">ask for keywords</text><polygon fill="#A80036" points="231,701.6875,241,705.6875,231,709.6875,235,705.6875" style="stroke:#A80036;stroke-width:1.0;"/><line style="stroke:#A80036;stroke-width:1.0;stroke-dasharray:2.0,2.0;" x1="38" x2="237" y1="705.6875" y2="705.6875"/><text fill="#000000" font-family="sans-serif" font-size="13" lengthAdjust="spacingAndGlyphs" textLength="92" x="45" y="700.6216">Enter the data</text><polygon fill="#A80036" points="580,730.8203,590,734.8203,580,738.8203,584,734.8203" style="stroke:#A80036;stroke-width:1.0;"/><line style="stroke:#A80036;stroke-width:1.0;stroke-dasharray:2.0,2.0;" x1="253" x2="586" y1="734.8203" y2="734.8203"/><text fill="#000000" font-family="sans-serif" font-size="13" lengthAdjust="spacingAndGlyphs" textLength="155" x="260" y="729.7544">addKeyWords(keywords)</text><polygon fill="#A80036" points="931,759.9531,941,763.9531,931,767.9531,935,763.9531" style="stroke:#A80036;stroke-width:1.0;"/><line style="stroke:#A80036;stroke-width:1.0;stroke-dasharray:2.0,2.0;" x1="602" x2="937" y1="763.9531" y2="763.9531"/><text fill="#000000" font-family="sans-serif" font-size="13" lengthAdjust="spacingAndGlyphs" textLength="155" x="609" y="758.8872">addKeyWords(keywords)</text><path d="M10,815.9531 L80,815.9531 L80,822.9531 L70,832.9531 L10,832.9531 L10,815.9531 " fill="#EEEEEE" style="stroke:#000000;stroke-width:1.0;"/><rect fill="none" height="163.6641" style="stroke:#000000;stroke-width:2.0;" width="1006" x="10" y="815.9531"/><text fill="#000000" font-family="sans-serif" font-size="13" font-weight="bold" lengthAdjust="spacingAndGlyphs" textLength="25" x="25" y="829.02">opt</text><polygon fill="#A80036" points="49,850.2188,39,854.2188,49,858.2188,45,854.2188" style="stroke:#A80036;stroke-width:1.0;"/><line style="stroke:#A80036;stroke-width:1.0;stroke-dasharray:2.0,2.0;" x1="43" x2="242" y1="854.2188" y2="854.2188"/><text fill="#000000" font-family="sans-serif" font-size="13" lengthAdjust="spacingAndGlyphs" textLength="73" x="55" y="849.1528">ask for icon</text><polygon fill="#A80036" points="231,879.3516,241,883.3516,231,887.3516,235,883.3516" style="stroke:#A80036;stroke-width:1.0;"/><line style="stroke:#A80036;stroke-width:1.0;stroke-dasharray:2.0,2.0;" x1="38" x2="237" y1="883.3516" y2="883.3516"/><text fill="#000000" font-family="sans-serif" font-size="13" lengthAdjust="spacingAndGlyphs" textLength="92" x="45" y="878.2856">Enter the data</text><polygon fill="#A80036" points="580,908.4844,590,912.4844,580,916.4844,584,912.4844" style="stroke:#A80036;stroke-width:1.0;"/><line style="stroke:#A80036;stroke-width:1.0;stroke-dasharray:2.0,2.0;" x1="253" x2="586" y1="912.4844" y2="912.4844"/><text fill="#000000" font-family="sans-serif" font-size="13" lengthAdjust="spacingAndGlyphs" textLength="106" x="260" y="907.4185">specifyIcon(icon)</text><polygon fill="#A80036" points="931,937.6172,941,941.6172,931,945.6172,935,941.6172" style="stroke:#A80036;stroke-width:1.0;"/><line style="stroke:#A80036;stroke-width:1.0;stroke-dasharray:2.0,2.0;" x1="602" x2="937" y1="941.6172" y2="941.6172"/><text fill="#000000" font-family="sans-serif" font-size="13" lengthAdjust="spacingAndGlyphs" textLength="106" x="609" y="936.5513">specifyIcon(icon)</text><path d="M10,993.6172 L80,993.6172 L80,1000.6172 L70,1010.6172 L10,1010.6172 L10,993.6172 " fill="#EEEEEE" style="stroke:#000000;stroke-width:1.0;"/><rect fill="none" height="222.7969" style="stroke:#000000;stroke-width:2.0;" width="1006" x="10" y="993.6172"/><text fill="#000000" font-family="sans-serif" font-size="13" font-weight="bold" lengthAdjust="spacingAndGlyphs" textLength="25" x="25" y="1006.6841">opt</text><polygon fill="#A80036" points="49,1027.8828,39,1031.8828,49,1035.8828,45,1031.8828" style="stroke:#A80036;stroke-width:1.0;"/><line style="stroke:#A80036;stroke-width:1.0;stroke-dasharray:2.0,2.0;" x1="43" x2="242" y1="1031.8828" y2="1031.8828"/><text fill="#000000" font-family="sans-serif" font-size="13" lengthAdjust="spacingAndGlyphs" textLength="77" x="55" y="1026.8169">ask for form</text><polygon fill="#A80036" points="231,1057.0156,241,1061.0156,231,1065.0156,235,1061.0156" style="stroke:#A80036;stroke-width:1.0;"/><line style="stroke:#A80036;stroke-width:1.0;stroke-dasharray:2.0,2.0;" x1="38" x2="237" y1="1061.0156" y2="1061.0156"/><text fill="#000000" font-family="sans-serif" font-size="13" lengthAdjust="spacingAndGlyphs" textLength="92" x="45" y="1055.9497">Enter the data</text><polygon fill="#A80036" points="580,1086.1484,590,1090.1484,580,1094.1484,584,1090.1484" style="stroke:#A80036;stroke-width:1.0;"/><line style="stroke:#A80036;stroke-width:1.0;stroke-dasharray:2.0,2.0;" x1="253" x2="586" y1="1090.1484" y2="1090.1484"/><text fill="#000000" font-family="sans-serif" font-size="13" lengthAdjust="spacingAndGlyphs" textLength="126" x="260" y="1085.0825">validadeForm(form)</text><polygon fill="#A80036" points="580,1145.2813,590,1149.2813,580,1153.2813,584,1149.2813" style="stroke:#A80036;stroke-width:1.0;"/><line style="stroke:#A80036;stroke-width:1.0;stroke-dasharray:2.0,2.0;" x1="253" x2="586" y1="1149.2813" y2="1149.2813"/><text fill="#000000" font-family="sans-serif" font-size="13" lengthAdjust="spacingAndGlyphs" textLength="97" x="260" y="1144.2153">addForm(form)</text><polygon fill="#A80036" points="931,1174.4141,941,1178.4141,931,1182.4141,935,1178.4141" style="stroke:#A80036;stroke-width:1.0;"/><line style="stroke:#A80036;stroke-width:1.0;stroke-dasharray:2.0,2.0;" x1="602" x2="937" y1="1178.4141" y2="1178.4141"/><text fill="#000000" font-family="sans-serif" font-size="13" lengthAdjust="spacingAndGlyphs" textLength="97" x="609" y="1173.3481">addForm(form)</text><path d="M10,1230.4141 L80,1230.4141 L80,1237.4141 L70,1247.4141 L10,1247.4141 L10,1230.4141 " fill="#EEEEEE" style="stroke:#000000;stroke-width:1.0;"/><rect fill="none" height="163.6641" style="stroke:#000000;stroke-width:2.0;" width="1006" x="10" y="1230.4141"/><text fill="#000000" font-family="sans-serif" font-size="13" font-weight="bold" lengthAdjust="spacingAndGlyphs" textLength="25" x="25" y="1243.481">opt</text><polygon fill="#A80036" points="49,1264.6797,39,1268.6797,49,1272.6797,45,1268.6797" style="stroke:#A80036;stroke-width:1.0;"/><line style="stroke:#A80036;stroke-width:1.0;stroke-dasharray:2.0,2.0;" x1="43" x2="242" y1="1268.6797" y2="1268.6797"/><text fill="#000000" font-family="sans-serif" font-size="13" lengthAdjust="spacingAndGlyphs" textLength="100" x="55" y="1263.6138">ask for workflow</text><polygon fill="#A80036" points="231,1293.8125,241,1297.8125,231,1301.8125,235,1297.8125" style="stroke:#A80036;stroke-width:1.0;"/><line style="stroke:#A80036;stroke-width:1.0;stroke-dasharray:2.0,2.0;" x1="38" x2="237" y1="1297.8125" y2="1297.8125"/><text fill="#000000" font-family="sans-serif" font-size="13" lengthAdjust="spacingAndGlyphs" textLength="92" x="45" y="1292.7466">Enter the data</text><polygon fill="#A80036" points="580,1322.9453,590,1326.9453,580,1330.9453,584,1326.9453" style="stroke:#A80036;stroke-width:1.0;"/><line style="stroke:#A80036;stroke-width:1.0;stroke-dasharray:2.0,2.0;" x1="253" x2="586" y1="1326.9453" y2="1326.9453"/><text fill="#000000" font-family="sans-serif" font-size="13" lengthAdjust="spacingAndGlyphs" textLength="162" x="260" y="1321.8794">specifyWorkflow(workflow)</text><polygon fill="#A80036" points="931,1352.0781,941,1356.0781,931,1360.0781,935,1356.0781" style="stroke:#A80036;stroke-width:1.0;"/><line style="stroke:#A80036;stroke-width:1.0;stroke-dasharray:2.0,2.0;" x1="602" x2="937" y1="1356.0781" y2="1356.0781"/><text fill="#000000" font-family="sans-serif" font-size="13" lengthAdjust="spacingAndGlyphs" textLength="162" x="609" y="1351.0122">specifyWorkflow(workflow)</text><!--MD5=[9286aaaabf7379e33f4b8796b352d9ed]
@startuml
actor GSH as Actor
participant SpecifyServiceUI as UI <<presentation>>
participant SpecifyServiceController as Controller <<application>>
participant ServiceBuilder as Builder <<builder>>

activate UI

opt
UI- ->Actor: ask for brief description
Actor- ->UI: Enter the data

UI- ->Controller: specifyBriefDescription(briefDescription)
activate Controller

Controller- ->Builder: specifyBriefDescription(briefDescription)
activate Builder

deactivate Builder
deactivate Controller

end

opt
UI- ->Actor: ask for complete description
Actor- ->UI: Enter the data

UI- ->Controller: specifyCompleteDescription(completeDescription)
activate Controller

Controller- ->Builder: specifyCompleteDescription(CompleteDescription)
activate Builder
deactivate Builder
deactivate Controller

end

opt
UI- ->Actor: ask for type
Actor- ->UI: Enter the data

UI- ->Controller: specifyType(type)
activate Controller

Controller- ->Builder: specifytype(type)
activate Builder

deactivate Builder
deactivate Controller

end

opt
UI- ->Actor: ask for keywords
Actor- ->UI: Enter the data

UI- ->Controller: addKeyWords(keywords)
activate Controller

Controller- ->Builder: addKeyWords(keywords)
activate Builder

deactivate Builder
deactivate Controller

end

opt
UI- ->Actor: ask for icon
Actor- ->UI: Enter the data

UI- ->Controller: specifyIcon(icon)
activate Controller

Controller- ->Builder: specifyIcon(icon)
activate Builder

deactivate Builder
deactivate Controller

end

opt
UI- ->Actor: ask for form
Actor- ->UI: Enter the data

UI- ->Controller: validadeForm(form)
activate Controller
deactivate Controller
UI- ->Controller: addForm(form)
activate Controller
Controller- ->Builder: addForm(form)
activate Builder

deactivate Builder
deactivate Controller

end

opt
UI- ->Actor: ask for workflow
Actor- ->UI: Enter the data

UI- ->Controller: specifyWorkflow(workflow)
activate Controller
Controller- ->Builder: specifyWorkflow(workflow)
activate Builder

deactivate Builder
deactivate Controller

end

deactivate UI
@enduml

PlantUML version 1.2020.22(Sun Dec 06 09:36:27 UTC 2020)
(GPL source distribution)
Java Runtime: OpenJDK Runtime Environment
JVM: OpenJDK 64-Bit Server VM
Default Encoding: UTF-8
Language: en
Country: US
--></g></svg>