<?xml version="1.0" encoding="UTF-8" standalone="no"?><svg xmlns="http://www.w3.org/2000/svg" xmlns:xlink="http://www.w3.org/1999/xlink" contentScriptType="application/ecmascript" contentStyleType="text/css" height="1093px" preserveAspectRatio="none" style="width:1397px;height:1093px;" version="1.1" viewBox="0 0 1397 1093" width="1397px" zoomAndPan="magnify"><defs><filter height="300%" id="f59c86lu5c45j" width="300%" x="-1" y="-1"><feGaussianBlur result="blurOut" stdDeviation="2.0"/><feColorMatrix in="blurOut" result="blurOut2" type="matrix" values="0 0 0 0 0 0 0 0 0 0 0 0 0 0 0 0 0 0 .4 0"/><feOffset dx="4.0" dy="4.0" in="blurOut2" result="blurOut3"/><feBlend in="SourceGraphic" in2="blurOut3" mode="normal"/></filter></defs><g><rect fill="#FFFFFF" filter="url(#f59c86lu5c45j)" height="871.2578" style="stroke:#A80036;stroke-width:1.0;" width="10" x="378" y="119.4297"/><rect fill="#FFFFFF" filter="url(#f59c86lu5c45j)" height="59.1328" style="stroke:#A80036;stroke-width:1.0;" width="10" x="556" y="148.5625"/><rect fill="#FFFFFF" filter="url(#f59c86lu5c45j)" height="191.6641" style="stroke:#A80036;stroke-width:1.0;" width="10" x="556" y="424.7578"/><rect fill="#FFFFFF" filter="url(#f59c86lu5c45j)" height="220.7969" style="stroke:#A80036;stroke-width:1.0;" width="10" x="556" y="689.4922"/><rect fill="#FFFFFF" filter="url(#f59c86lu5c45j)" height="74.2656" style="stroke:#A80036;stroke-width:1.0;" width="10" x="734" y="453.8906"/><rect fill="#FFFFFF" filter="url(#f59c86lu5c45j)" height="103.3984" style="stroke:#A80036;stroke-width:1.0;" width="10" x="734" y="718.625"/><rect fill="#FFFFFF" filter="url(#f59c86lu5c45j)" height="30" style="stroke:#A80036;stroke-width:1.0;" width="10" x="1147" y="498.1563"/><rect fill="#FFFFFF" filter="url(#f59c86lu5c45j)" height="30" style="stroke:#A80036;stroke-width:1.0;" width="10" x="1147" y="762.8906"/><rect fill="#FFFFFF" filter="url(#f59c86lu5c45j)" height="30" style="stroke:#A80036;stroke-width:1.0;" width="10" x="1299" y="177.6953"/><rect fill="#FFFFFF" filter="url(#f59c86lu5c45j)" height="30" style="stroke:#A80036;stroke-width:1.0;" width="10" x="1299" y="557.2891"/><rect fill="#FFFFFF" filter="url(#f59c86lu5c45j)" height="30" style="stroke:#A80036;stroke-width:1.0;" width="10" x="1299" y="851.1563"/><rect fill="#FFFFFF" filter="url(#f59c86lu5c45j)" height="91.5313" style="stroke:#000000;stroke-width:2.0;" width="448" x="10" y="251.8281"/><rect fill="#FFFFFF" filter="url(#f59c86lu5c45j)" height="605.1953" style="stroke:#000000;stroke-width:2.0;" width="1373" x="10" y="357.3594"/><rect fill="#FFFFFF" height="338.1328" style="stroke:none;stroke-width:1.0;" width="1373" x="10" y="624.4219"/><line style="stroke:#A80036;stroke-width:1.0;stroke-dasharray:5.0,5.0;" x1="38" x2="38" y1="88.2969" y2="1008.6875"/><line style="stroke:#A80036;stroke-width:1.0;stroke-dasharray:5.0,5.0;" x1="383" x2="383" y1="88.2969" y2="1008.6875"/><line style="stroke:#A80036;stroke-width:1.0;stroke-dasharray:5.0,5.0;" x1="561" x2="561" y1="88.2969" y2="1008.6875"/><line style="stroke:#A80036;stroke-width:1.0;stroke-dasharray:5.0,5.0;" x1="739" x2="739" y1="88.2969" y2="1008.6875"/><line style="stroke:#A80036;stroke-width:1.0;stroke-dasharray:5.0,5.0;" x1="1152" x2="1152" y1="88.2969" y2="1008.6875"/><line style="stroke:#A80036;stroke-width:1.0;stroke-dasharray:5.0,5.0;" x1="1304" x2="1304" y1="88.2969" y2="1008.6875"/><text fill="#000000" font-family="sans-serif" font-size="14" lengthAdjust="spacingAndGlyphs" textLength="30" x="20" y="84.9951">GSH</text><ellipse cx="38" cy="15" fill="#FEFECE" filter="url(#f59c86lu5c45j)" rx="8" ry="8" style="stroke:#A80036;stroke-width:2.0;"/><path d="M38,23 L38,50 M25,31 L51,31 M38,50 L25,65 M38,50 L51,65 " fill="none" filter="url(#f59c86lu5c45j)" style="stroke:#A80036;stroke-width:2.0;"/><text fill="#000000" font-family="sans-serif" font-size="14" lengthAdjust="spacingAndGlyphs" textLength="30" x="20" y="1020.6826">GSH</text><ellipse cx="38" cy="1033.9844" fill="#FEFECE" filter="url(#f59c86lu5c45j)" rx="8" ry="8" style="stroke:#A80036;stroke-width:2.0;"/><path d="M38,1041.9844 L38,1068.9844 M25,1049.9844 L51,1049.9844 M38,1068.9844 L25,1083.9844 M38,1068.9844 L51,1083.9844 " fill="none" filter="url(#f59c86lu5c45j)" style="stroke:#A80036;stroke-width:2.0;"/><rect fill="#FEFECE" filter="url(#f59c86lu5c45j)" height="46.5938" style="stroke:#A80036;stroke-width:1.5;" width="126" x="318" y="36.7031"/><text fill="#000000" font-family="sans-serif" font-size="14" font-style="italic" lengthAdjust="spacingAndGlyphs" textLength="106" x="328" y="56.6982">«presentation»</text><text fill="#000000" font-family="sans-serif" font-size="14" lengthAdjust="spacingAndGlyphs" textLength="112" x="325" y="72.9951">SpecifyServiceUI</text><rect fill="#FEFECE" filter="url(#f59c86lu5c45j)" height="46.5938" style="stroke:#A80036;stroke-width:1.5;" width="126" x="318" y="1007.6875"/><text fill="#000000" font-family="sans-serif" font-size="14" font-style="italic" lengthAdjust="spacingAndGlyphs" textLength="106" x="328" y="1027.6826">«presentation»</text><text fill="#000000" font-family="sans-serif" font-size="14" lengthAdjust="spacingAndGlyphs" textLength="112" x="325" y="1043.9795">SpecifyServiceUI</text><rect fill="#FEFECE" filter="url(#f59c86lu5c45j)" height="46.5938" style="stroke:#A80036;stroke-width:1.5;" width="180" x="469" y="36.7031"/><text fill="#000000" font-family="sans-serif" font-size="14" font-style="italic" lengthAdjust="spacingAndGlyphs" textLength="92" x="513" y="56.6982">«application»</text><text fill="#000000" font-family="sans-serif" font-size="14" lengthAdjust="spacingAndGlyphs" textLength="166" x="476" y="72.9951">SpecifyServiceController</text><rect fill="#FEFECE" filter="url(#f59c86lu5c45j)" height="46.5938" style="stroke:#A80036;stroke-width:1.5;" width="180" x="469" y="1007.6875"/><text fill="#000000" font-family="sans-serif" font-size="14" font-style="italic" lengthAdjust="spacingAndGlyphs" textLength="92" x="513" y="1027.6826">«application»</text><text fill="#000000" font-family="sans-serif" font-size="14" lengthAdjust="spacingAndGlyphs" textLength="166" x="476" y="1043.9795">SpecifyServiceController</text><rect fill="#FEFECE" filter="url(#f59c86lu5c45j)" height="46.5938" style="stroke:#A80036;stroke-width:1.5;" width="112" x="681" y="36.7031"/><text fill="#000000" font-family="sans-serif" font-size="14" font-style="italic" lengthAdjust="spacingAndGlyphs" textLength="65" x="704.5" y="56.6982">«builder»</text><text fill="#000000" font-family="sans-serif" font-size="14" lengthAdjust="spacingAndGlyphs" textLength="98" x="688" y="72.9951">ServiceBuilder</text><rect fill="#FEFECE" filter="url(#f59c86lu5c45j)" height="46.5938" style="stroke:#A80036;stroke-width:1.5;" width="112" x="681" y="1007.6875"/><text fill="#000000" font-family="sans-serif" font-size="14" font-style="italic" lengthAdjust="spacingAndGlyphs" textLength="65" x="704.5" y="1027.6826">«builder»</text><text fill="#000000" font-family="sans-serif" font-size="14" lengthAdjust="spacingAndGlyphs" textLength="98" x="688" y="1043.9795">ServiceBuilder</text><rect fill="#FEFECE" filter="url(#f59c86lu5c45j)" height="46.5938" style="stroke:#A80036;stroke-width:1.5;" width="142" x="1079" y="36.7031"/><text fill="#000000" font-family="sans-serif" font-size="14" font-style="italic" lengthAdjust="spacingAndGlyphs" textLength="69" x="1115.5" y="56.6982">«domain»</text><text fill="#000000" font-family="sans-serif" font-size="14" lengthAdjust="spacingAndGlyphs" textLength="128" x="1086" y="72.9951">theService:Service</text><rect fill="#FEFECE" filter="url(#f59c86lu5c45j)" height="46.5938" style="stroke:#A80036;stroke-width:1.5;" width="142" x="1079" y="1007.6875"/><text fill="#000000" font-family="sans-serif" font-size="14" font-style="italic" lengthAdjust="spacingAndGlyphs" textLength="69" x="1115.5" y="1027.6826">«domain»</text><text fill="#000000" font-family="sans-serif" font-size="14" lengthAdjust="spacingAndGlyphs" textLength="128" x="1086" y="1043.9795">theService:Service</text><text fill="#000000" font-family="sans-serif" font-size="14" font-style="italic" lengthAdjust="spacingAndGlyphs" textLength="87" x="1257.5" y="68.6982">«repository»</text><text fill="#000000" font-family="sans-serif" font-size="14" lengthAdjust="spacingAndGlyphs" textLength="132" x="1235" y="84.9951">ServicesRepository</text><path d="M1286,19.7031 C1286,9.7031 1304,9.7031 1304,9.7031 C1304,9.7031 1322,9.7031 1322,19.7031 L1322,45.7031 C1322,55.7031 1304,55.7031 1304,55.7031 C1304,55.7031 1286,55.7031 1286,45.7031 L1286,19.7031 " fill="#FEFECE" filter="url(#f59c86lu5c45j)" style="stroke:#000000;stroke-width:1.5;"/><path d="M1286,19.7031 C1286,29.7031 1304,29.7031 1304,29.7031 C1304,29.7031 1322,29.7031 1322,19.7031 " fill="none" style="stroke:#000000;stroke-width:1.5;"/><text fill="#000000" font-family="sans-serif" font-size="14" font-style="italic" lengthAdjust="spacingAndGlyphs" textLength="87" x="1257.5" y="1020.6826">«repository»</text><text fill="#000000" font-family="sans-serif" font-size="14" lengthAdjust="spacingAndGlyphs" textLength="132" x="1235" y="1036.9795">ServicesRepository</text><path d="M1286,1050.2813 C1286,1040.2813 1304,1040.2813 1304,1040.2813 C1304,1040.2813 1322,1040.2813 1322,1050.2813 L1322,1076.2813 C1322,1086.2813 1304,1086.2813 1304,1086.2813 C1304,1086.2813 1286,1086.2813 1286,1076.2813 L1286,1050.2813 " fill="#FEFECE" filter="url(#f59c86lu5c45j)" style="stroke:#000000;stroke-width:1.5;"/><path d="M1286,1050.2813 C1286,1060.2813 1304,1060.2813 1304,1060.2813 C1304,1060.2813 1322,1060.2813 1322,1050.2813 " fill="none" style="stroke:#000000;stroke-width:1.5;"/><rect fill="#FFFFFF" filter="url(#f59c86lu5c45j)" height="871.2578" style="stroke:#A80036;stroke-width:1.0;" width="10" x="378" y="119.4297"/><rect fill="#FFFFFF" filter="url(#f59c86lu5c45j)" height="59.1328" style="stroke:#A80036;stroke-width:1.0;" width="10" x="556" y="148.5625"/><rect fill="#FFFFFF" filter="url(#f59c86lu5c45j)" height="191.6641" style="stroke:#A80036;stroke-width:1.0;" width="10" x="556" y="424.7578"/><rect fill="#FFFFFF" filter="url(#f59c86lu5c45j)" height="220.7969" style="stroke:#A80036;stroke-width:1.0;" width="10" x="556" y="689.4922"/><rect fill="#FFFFFF" filter="url(#f59c86lu5c45j)" height="74.2656" style="stroke:#A80036;stroke-width:1.0;" width="10" x="734" y="453.8906"/><rect fill="#FFFFFF" filter="url(#f59c86lu5c45j)" height="103.3984" style="stroke:#A80036;stroke-width:1.0;" width="10" x="734" y="718.625"/><rect fill="#FFFFFF" filter="url(#f59c86lu5c45j)" height="30" style="stroke:#A80036;stroke-width:1.0;" width="10" x="1147" y="498.1563"/><rect fill="#FFFFFF" filter="url(#f59c86lu5c45j)" height="30" style="stroke:#A80036;stroke-width:1.0;" width="10" x="1147" y="762.8906"/><rect fill="#FFFFFF" filter="url(#f59c86lu5c45j)" height="30" style="stroke:#A80036;stroke-width:1.0;" width="10" x="1299" y="177.6953"/><rect fill="#FFFFFF" filter="url(#f59c86lu5c45j)" height="30" style="stroke:#A80036;stroke-width:1.0;" width="10" x="1299" y="557.2891"/><rect fill="#FFFFFF" filter="url(#f59c86lu5c45j)" height="30" style="stroke:#A80036;stroke-width:1.0;" width="10" x="1299" y="851.1563"/><polygon fill="#A80036" points="366,115.4297,376,119.4297,366,123.4297,370,119.4297" style="stroke:#A80036;stroke-width:1.0;"/><line style="stroke:#A80036;stroke-width:1.0;stroke-dasharray:2.0,2.0;" x1="38" x2="372" y1="119.4297" y2="119.4297"/><text fill="#000000" font-family="sans-serif" font-size="13" lengthAdjust="spacingAndGlyphs" textLength="183" x="45" y="114.3638">Specify uncompleted service</text><polygon fill="#A80036" points="544,144.5625,554,148.5625,544,152.5625,548,148.5625" style="stroke:#A80036;stroke-width:1.0;"/><line style="stroke:#A80036;stroke-width:1.0;stroke-dasharray:2.0,2.0;" x1="388" x2="550" y1="148.5625" y2="148.5625"/><text fill="#000000" font-family="sans-serif" font-size="13" lengthAdjust="spacingAndGlyphs" textLength="140" x="395" y="143.4966">uncompleteServices()</text><polygon fill="#A80036" points="1287,173.6953,1297,177.6953,1287,181.6953,1291,177.6953" style="stroke:#A80036;stroke-width:1.0;"/><line style="stroke:#A80036;stroke-width:1.0;" x1="566" x2="1293" y1="177.6953" y2="177.6953"/><text fill="#000000" font-family="sans-serif" font-size="13" lengthAdjust="spacingAndGlyphs" textLength="269" x="573" y="172.6294">findUnfinishedServiceByCollaborator(user)</text><polygon fill="#A80036" points="49,232.8281,39,236.8281,49,240.8281,45,236.8281" style="stroke:#A80036;stroke-width:1.0;"/><line style="stroke:#A80036;stroke-width:1.0;stroke-dasharray:2.0,2.0;" x1="43" x2="377" y1="236.8281" y2="236.8281"/><text fill="#000000" font-family="sans-serif" font-size="13" lengthAdjust="spacingAndGlyphs" textLength="150" x="55" y="231.7622">ask to choose a service</text><path d="M10,251.8281 L87,251.8281 L87,258.8281 L77,268.8281 L10,268.8281 L10,251.8281 " fill="#EEEEEE" style="stroke:#000000;stroke-width:1.0;"/><rect fill="none" height="91.5313" style="stroke:#000000;stroke-width:2.0;" width="448" x="10" y="251.8281"/><text fill="#000000" font-family="sans-serif" font-size="13" font-weight="bold" lengthAdjust="spacingAndGlyphs" textLength="32" x="25" y="264.895">loop</text><text fill="#000000" font-family="sans-serif" font-size="11" font-weight="bold" lengthAdjust="spacingAndGlyphs" textLength="116" x="102" y="264.0386">[while option !=0]</text><polygon fill="#A80036" points="366,286.0938,376,290.0938,366,294.0938,370,290.0938" style="stroke:#A80036;stroke-width:1.0;"/><line style="stroke:#A80036;stroke-width:1.0;stroke-dasharray:2.0,2.0;" x1="38" x2="372" y1="290.0938" y2="290.0938"/><text fill="#000000" font-family="sans-serif" font-size="13" lengthAdjust="spacingAndGlyphs" textLength="74" x="45" y="285.0278">choose one</text><rect fill="#FFFFFF" filter="url(#f59c86lu5c45j)" height="40.2656" style="stroke:#000000;stroke-width:2.0;" width="132" x="315" y="298.0938"/><polygon fill="#EEEEEE" points="315,298.0938,381,298.0938,381,305.0938,371,315.0938,315,315.0938,315,298.0938" style="stroke:#000000;stroke-width:2.0;"/><text fill="#000000" font-family="sans-serif" font-size="13" font-weight="bold" lengthAdjust="spacingAndGlyphs" textLength="21" x="328" y="312.1606">ref</text><text fill="#000000" font-family="sans-serif" font-size="13" lengthAdjust="spacingAndGlyphs" textLength="79" x="343.5" y="331.1606">Optional_SD</text><path d="M10,357.3594 L80,357.3594 L80,364.3594 L70,374.3594 L10,374.3594 L10,357.3594 " fill="#EEEEEE" style="stroke:#000000;stroke-width:1.0;"/><rect fill="none" height="605.1953" style="stroke:#000000;stroke-width:2.0;" width="1373" x="10" y="357.3594"/><text fill="#000000" font-family="sans-serif" font-size="13" font-weight="bold" lengthAdjust="spacingAndGlyphs" textLength="25" x="25" y="370.4263">opt</text><text fill="#000000" font-family="sans-serif" font-size="11" font-weight="bold" lengthAdjust="spacingAndGlyphs" textLength="77" x="95" y="369.5698">[completed]</text><polygon fill="#A80036" points="366,391.625,376,395.625,366,399.625,370,395.625" style="stroke:#A80036;stroke-width:1.0;"/><line style="stroke:#A80036;stroke-width:1.0;" x1="38" x2="372" y1="395.625" y2="395.625"/><text fill="#000000" font-family="sans-serif" font-size="13" lengthAdjust="spacingAndGlyphs" textLength="144" x="45" y="390.5591">finish and save service</text><polygon fill="#A80036" points="544,420.7578,554,424.7578,544,428.7578,548,424.7578" style="stroke:#A80036;stroke-width:1.0;"/><line style="stroke:#A80036;stroke-width:1.0;" x1="388" x2="550" y1="424.7578" y2="424.7578"/><text fill="#000000" font-family="sans-serif" font-size="13" lengthAdjust="spacingAndGlyphs" textLength="90" x="395" y="419.6919">finishService()</text><polygon fill="#A80036" points="722,449.8906,732,453.8906,722,457.8906,726,453.8906" style="stroke:#A80036;stroke-width:1.0;"/><line style="stroke:#A80036;stroke-width:1.0;" x1="566" x2="728" y1="453.8906" y2="453.8906"/><text fill="#000000" font-family="sans-serif" font-size="13" lengthAdjust="spacingAndGlyphs" textLength="40" x="573" y="448.8247">build()</text><polygon fill="#A80036" points="1135,494.1563,1145,498.1563,1135,502.1563,1139,498.1563" style="stroke:#A80036;stroke-width:1.0;"/><line style="stroke:#A80036;stroke-width:1.0;" x1="744" x2="1141" y1="498.1563" y2="498.1563"/><text fill="#000000" font-family="sans-serif" font-size="13" lengthAdjust="spacingAndGlyphs" textLength="241" x="751" y="477.9575">theService = service(briefDescription,</text><text fill="#000000" font-family="sans-serif" font-size="13" lengthAdjust="spacingAndGlyphs" textLength="384" x="751" y="493.0903">completeDescription, type, keywords, icone, forms,workflow)</text><polygon fill="#A80036" points="1287,553.2891,1297,557.2891,1287,561.2891,1291,557.2891" style="stroke:#A80036;stroke-width:1.0;"/><line style="stroke:#A80036;stroke-width:1.0;" x1="566" x2="1293" y1="557.2891" y2="557.2891"/><text fill="#000000" font-family="sans-serif" font-size="13" lengthAdjust="spacingAndGlyphs" textLength="108" x="573" y="552.2231">save(theService)</text><polygon fill="#A80036" points="49,612.4219,39,616.4219,49,620.4219,45,616.4219" style="stroke:#A80036;stroke-width:1.0;"/><line style="stroke:#A80036;stroke-width:1.0;stroke-dasharray:2.0,2.0;" x1="43" x2="377" y1="616.4219" y2="616.4219"/><text fill="#000000" font-family="sans-serif" font-size="13" lengthAdjust="spacingAndGlyphs" textLength="314" x="55" y="611.356">says the service is complete and has been saved</text><line style="stroke:#000000;stroke-width:1.0;stroke-dasharray:2.0,2.0;" x1="10" x2="1383" y1="625.4219" y2="625.4219"/><text fill="#000000" font-family="sans-serif" font-size="11" font-weight="bold" lengthAdjust="spacingAndGlyphs" textLength="93" x="15" y="635.6323">[uncompleted]</text><polygon fill="#A80036" points="366,656.3594,376,660.3594,366,664.3594,370,660.3594" style="stroke:#A80036;stroke-width:1.0;"/><line style="stroke:#A80036;stroke-width:1.0;" x1="38" x2="372" y1="660.3594" y2="660.3594"/><text fill="#000000" font-family="sans-serif" font-size="13" lengthAdjust="spacingAndGlyphs" textLength="167" x="45" y="655.2935">save uncompleted service</text><polygon fill="#A80036" points="544,685.4922,554,689.4922,544,693.4922,548,689.4922" style="stroke:#A80036;stroke-width:1.0;"/><line style="stroke:#A80036;stroke-width:1.0;" x1="388" x2="550" y1="689.4922" y2="689.4922"/><text fill="#000000" font-family="sans-serif" font-size="13" lengthAdjust="spacingAndGlyphs" textLength="90" x="395" y="684.4263">finishService()</text><polygon fill="#A80036" points="722,714.625,732,718.625,722,722.625,726,718.625" style="stroke:#A80036;stroke-width:1.0;"/><line style="stroke:#A80036;stroke-width:1.0;" x1="566" x2="728" y1="718.625" y2="718.625"/><text fill="#000000" font-family="sans-serif" font-size="13" lengthAdjust="spacingAndGlyphs" textLength="40" x="573" y="713.5591">build()</text><polygon fill="#A80036" points="1135,758.8906,1145,762.8906,1135,766.8906,1139,762.8906" style="stroke:#A80036;stroke-width:1.0;"/><line style="stroke:#A80036;stroke-width:1.0;" x1="744" x2="1141" y1="762.8906" y2="762.8906"/><text fill="#000000" font-family="sans-serif" font-size="13" lengthAdjust="spacingAndGlyphs" textLength="241" x="751" y="742.6919">theService = service(briefDescription,</text><text fill="#000000" font-family="sans-serif" font-size="13" lengthAdjust="spacingAndGlyphs" textLength="384" x="751" y="757.8247">completeDescription, type, keywords, icone, forms,workflow)</text><polygon fill="#A80036" points="577,818.0234,567,822.0234,577,826.0234,573,822.0234" style="stroke:#A80036;stroke-width:1.0;"/><line style="stroke:#A80036;stroke-width:1.0;stroke-dasharray:2.0,2.0;" x1="571" x2="738" y1="822.0234" y2="822.0234"/><text fill="#000000" font-family="sans-serif" font-size="13" lengthAdjust="spacingAndGlyphs" textLength="144" x="583" y="816.9575">incompleteInformation</text><polygon fill="#A80036" points="1287,847.1563,1297,851.1563,1287,855.1563,1291,851.1563" style="stroke:#A80036;stroke-width:1.0;"/><line style="stroke:#A80036;stroke-width:1.0;" x1="566" x2="1293" y1="851.1563" y2="851.1563"/><text fill="#000000" font-family="sans-serif" font-size="13" lengthAdjust="spacingAndGlyphs" textLength="108" x="573" y="846.0903">save(theService)</text><polygon fill="#A80036" points="399,906.2891,389,910.2891,399,914.2891,395,910.2891" style="stroke:#A80036;stroke-width:1.0;"/><line style="stroke:#A80036;stroke-width:1.0;stroke-dasharray:2.0,2.0;" x1="393" x2="560" y1="910.2891" y2="910.2891"/><text fill="#000000" font-family="sans-serif" font-size="13" lengthAdjust="spacingAndGlyphs" textLength="144" x="405" y="905.2231">incompleteInformation</text><polygon fill="#A80036" points="49,950.5547,39,954.5547,49,958.5547,45,954.5547" style="stroke:#A80036;stroke-width:1.0;"/><line style="stroke:#A80036;stroke-width:1.0;stroke-dasharray:2.0,2.0;" x1="43" x2="377" y1="954.5547" y2="954.5547"/><text fill="#000000" font-family="sans-serif" font-size="13" lengthAdjust="spacingAndGlyphs" textLength="314" x="55" y="934.356">says the service is incomplete, shows incomplete</text><text fill="#000000" font-family="sans-serif" font-size="13" lengthAdjust="spacingAndGlyphs" textLength="316" x="55" y="949.4888">information and says information has been saved</text><polygon fill="#A80036" points="49,986.6875,39,990.6875,49,994.6875,45,990.6875" style="stroke:#A80036;stroke-width:1.0;"/><line style="stroke:#A80036;stroke-width:1.0;stroke-dasharray:2.0,2.0;" x1="43" x2="382" y1="990.6875" y2="990.6875"/><text fill="#000000" font-family="sans-serif" font-size="13" lengthAdjust="spacingAndGlyphs" textLength="88" x="55" y="985.6216">back to menu</text><!--MD5=[b6074a922cd26cadc76173ef9f5c31cd]
@startuml
actor GSH as Actor
participant SpecifyServiceUI as UI <<presentation>>
participant SpecifyServiceController as Controller <<application>>
participant ServiceBuilder as Builder <<builder>>
participant "theService:Service" as Domain <<domain>>
database ServicesRepository as Repository <<repository>>



Actor - -> UI: Specify uncompleted service
activate UI

UI- ->Controller: uncompleteServices()
activate Controller

Controller->Repository: findUnfinishedServiceByCollaborator(user)
activate Repository
deactivate Repository

deactivate Controller

UI- ->Actor: ask to choose a service

loop while option !=0
Actor- ->UI: choose one

ref over UI: Optional_SD

end

opt completed

Actor->UI: finish and save service
UI->Controller: finishService()
activate Controller
Controller->Builder: build()
activate Builder

Builder->Domain: theService = service(briefDescription,\ncompleteDescription, type, keywords, icone, forms,workflow)
activate Domain
deactivate Domain
deactivate Builder

Controller->Repository: save(theService)
activate Repository
deactivate Repository

UI - -> Actor : says the service is complete and has been saved

deactivate Controller

else uncompleted
Actor->UI: save uncompleted service
UI->Controller: finishService()
activate Controller
Controller->Builder: build()
activate Builder

Builder->Domain: theService = service(briefDescription,\ncompleteDescription, type, keywords, icone, forms,workflow)
activate Domain
deactivate Domain
Builder- ->Controller: incompleteInformation
deactivate Builder

Controller->Repository: save(theService)
activate Repository
deactivate Repository
Controller- ->UI: incompleteInformation
deactivate Controller

UI - -> Actor : says the service is incomplete, shows incomplete\ninformation and says information has been saved

end

UI- ->Actor: back to menu

deactivate UI
@enduml

PlantUML version 1.2020.22(Sun Dec 06 09:36:27 UTC 2020)
(GPL source distribution)
Java Runtime: OpenJDK Runtime Environment
JVM: OpenJDK 64-Bit Server VM
Default Encoding: UTF-8
Language: en
Country: US
--></g></svg>