<?xml version="1.0" encoding="UTF-8" standalone="no"?><svg xmlns="http://www.w3.org/2000/svg" xmlns:xlink="http://www.w3.org/1999/xlink" contentScriptType="application/ecmascript" contentStyleType="text/css" height="659px" preserveAspectRatio="none" style="width:1384px;height:659px;background:#FFFFFF;" version="1.1" viewBox="0 0 1384 659" width="1384px" zoomAndPan="magnify"><defs><filter height="300%" id="f1fpwhqa8z8hlx" width="300%" x="-1" y="-1"><feGaussianBlur result="blurOut" stdDeviation="2.0"/><feColorMatrix in="blurOut" result="blurOut2" type="matrix" values="0 0 0 0 0 0 0 0 0 0 0 0 0 0 0 0 0 0 .4 0"/><feOffset dx="4.0" dy="4.0" in="blurOut2" result="blurOut3"/><feBlend in="SourceGraphic" in2="blurOut3" mode="normal"/></filter></defs><g><rect fill="#FFFFFF" filter="url(#f1fpwhqa8z8hlx)" height="436.9922" style="stroke:#A80036;stroke-width:1.0;" width="10" x="241" y="119.4297"/><rect fill="#FFFFFF" filter="url(#f1fpwhqa8z8hlx)" height="291.3281" style="stroke:#A80036;stroke-width:1.0;" width="10" x="546" y="235.9609"/><rect fill="#FFFFFF" filter="url(#f1fpwhqa8z8hlx)" height="29.1328" style="stroke:#A80036;stroke-width:1.0;" width="10" x="824" y="265.0938"/><rect fill="#FFFFFF" filter="url(#f1fpwhqa8z8hlx)" height="58.2656" style="stroke:#A80036;stroke-width:1.0;" width="10" x="984" y="323.3594"/><rect fill="#FFFFFF" filter="url(#f1fpwhqa8z8hlx)" height="58.2656" style="stroke:#A80036;stroke-width:1.0;" width="10" x="1150" y="410.7578"/><line style="stroke:#A80036;stroke-width:1.0;stroke-dasharray:5.0,5.0;" x1="23" x2="23" y1="88.2969" y2="574.4219"/><line style="stroke:#A80036;stroke-width:1.0;stroke-dasharray:5.0,5.0;" x1="245.5" x2="245.5" y1="88.2969" y2="574.4219"/><line style="stroke:#A80036;stroke-width:1.0;stroke-dasharray:5.0,5.0;" x1="550.5" x2="550.5" y1="88.2969" y2="574.4219"/><line style="stroke:#A80036;stroke-width:1.0;stroke-dasharray:5.0,5.0;" x1="828.5" x2="828.5" y1="88.2969" y2="574.4219"/><line style="stroke:#A80036;stroke-width:1.0;stroke-dasharray:5.0,5.0;" x1="988.5" x2="988.5" y1="88.2969" y2="574.4219"/><line style="stroke:#A80036;stroke-width:1.0;stroke-dasharray:5.0,5.0;" x1="1154.5" x2="1154.5" y1="88.2969" y2="574.4219"/><line style="stroke:#A80036;stroke-width:1.0;stroke-dasharray:5.0,5.0;" x1="1311.5" x2="1311.5" y1="88.2969" y2="574.4219"/><text fill="#000000" font-family="sans-serif" font-size="14" lengthAdjust="spacing" textLength="30" x="5" y="84.9951">GSH</text><ellipse cx="23" cy="15" fill="#FEFECE" filter="url(#f1fpwhqa8z8hlx)" rx="8" ry="8" style="stroke:#A80036;stroke-width:2.0;"/><path d="M23,23 L23,50 M10,31 L36,31 M23,50 L10,65 M23,50 L36,65 " fill="none" filter="url(#f1fpwhqa8z8hlx)" style="stroke:#A80036;stroke-width:2.0;"/><text fill="#000000" font-family="sans-serif" font-size="14" lengthAdjust="spacing" textLength="30" x="5" y="586.417">GSH</text><ellipse cx="23" cy="599.7188" fill="#FEFECE" filter="url(#f1fpwhqa8z8hlx)" rx="8" ry="8" style="stroke:#A80036;stroke-width:2.0;"/><path d="M23,607.7188 L23,634.7188 M10,615.7188 L36,615.7188 M23,634.7188 L10,649.7188 M23,634.7188 L36,649.7188 " fill="none" filter="url(#f1fpwhqa8z8hlx)" style="stroke:#A80036;stroke-width:2.0;"/><rect fill="#FEFECE" filter="url(#f1fpwhqa8z8hlx)" height="46.5938" style="stroke:#A80036;stroke-width:1.5;" width="133" x="177.5" y="36.7031"/><text fill="#000000" font-family="sans-serif" font-size="14" font-style="italic" lengthAdjust="spacing" textLength="108" x="190" y="56.6982">«presentation»</text><text fill="#000000" font-family="sans-serif" font-size="14" lengthAdjust="spacing" textLength="119" x="184.5" y="72.9951">DefineCriticityUI</text><rect fill="#FEFECE" filter="url(#f1fpwhqa8z8hlx)" height="46.5938" style="stroke:#A80036;stroke-width:1.5;" width="133" x="177.5" y="573.4219"/><text fill="#000000" font-family="sans-serif" font-size="14" font-style="italic" lengthAdjust="spacing" textLength="108" x="190" y="593.417">«presentation»</text><text fill="#000000" font-family="sans-serif" font-size="14" lengthAdjust="spacing" textLength="119" x="184.5" y="609.7139">DefineCriticityUI</text><rect fill="#FEFECE" filter="url(#f1fpwhqa8z8hlx)" height="46.5938" style="stroke:#A80036;stroke-width:1.5;" width="193" x="452.5" y="36.7031"/><text fill="#000000" font-family="sans-serif" font-size="14" font-style="italic" lengthAdjust="spacing" textLength="97" x="500.5" y="56.6982">«application»</text><text fill="#000000" font-family="sans-serif" font-size="14" lengthAdjust="spacing" textLength="179" x="459.5" y="72.9951">DefineCriticityController</text><rect fill="#FEFECE" filter="url(#f1fpwhqa8z8hlx)" height="46.5938" style="stroke:#A80036;stroke-width:1.5;" width="193" x="452.5" y="573.4219"/><text fill="#000000" font-family="sans-serif" font-size="14" font-style="italic" lengthAdjust="spacing" textLength="97" x="500.5" y="593.417">«application»</text><text fill="#000000" font-family="sans-serif" font-size="14" lengthAdjust="spacing" textLength="179" x="459.5" y="609.7139">DefineCriticityController</text><rect fill="#FEFECE" filter="url(#f1fpwhqa8z8hlx)" height="46.5938" style="stroke:#A80036;stroke-width:1.5;" width="135" x="759.5" y="36.7031"/><text fill="#000000" font-family="sans-serif" font-size="14" font-style="italic" lengthAdjust="spacing" textLength="72" x="791" y="56.6982">«domain»</text><text fill="#000000" font-family="sans-serif" font-size="14" lengthAdjust="spacing" textLength="121" x="766.5" y="72.9951">Criticity:Criticity</text><rect fill="#FEFECE" filter="url(#f1fpwhqa8z8hlx)" height="46.5938" style="stroke:#A80036;stroke-width:1.5;" width="135" x="759.5" y="573.4219"/><text fill="#000000" font-family="sans-serif" font-size="14" font-style="italic" lengthAdjust="spacing" textLength="72" x="791" y="593.417">«domain»</text><text fill="#000000" font-family="sans-serif" font-size="14" lengthAdjust="spacing" textLength="121" x="766.5" y="609.7139">Criticity:Criticity</text><rect fill="#FEFECE" filter="url(#f1fpwhqa8z8hlx)" height="46.5938" style="stroke:#A80036;stroke-width:1.5;" width="157" x="908.5" y="36.7031"/><text fill="#000000" font-family="sans-serif" font-size="14" font-style="italic" lengthAdjust="spacing" textLength="100" x="937" y="56.6982">«persistence»</text><text fill="#000000" font-family="sans-serif" font-size="14" lengthAdjust="spacing" textLength="143" x="915.5" y="72.9951">PersistenceContext</text><rect fill="#FEFECE" filter="url(#f1fpwhqa8z8hlx)" height="46.5938" style="stroke:#A80036;stroke-width:1.5;" width="157" x="908.5" y="573.4219"/><text fill="#000000" font-family="sans-serif" font-size="14" font-style="italic" lengthAdjust="spacing" textLength="100" x="937" y="593.417">«persistence»</text><text fill="#000000" font-family="sans-serif" font-size="14" lengthAdjust="spacing" textLength="143" x="915.5" y="609.7139">PersistenceContext</text><rect fill="#FEFECE" filter="url(#f1fpwhqa8z8hlx)" height="46.5938" style="stroke:#A80036;stroke-width:1.5;" width="147" x="1079.5" y="36.7031"/><text fill="#000000" font-family="sans-serif" font-size="14" font-style="italic" lengthAdjust="spacing" textLength="68" x="1119" y="56.6982">«factory»</text><text fill="#000000" font-family="sans-serif" font-size="14" lengthAdjust="spacing" textLength="133" x="1086.5" y="72.9951">RepositoryFactory</text><rect fill="#FEFECE" filter="url(#f1fpwhqa8z8hlx)" height="46.5938" style="stroke:#A80036;stroke-width:1.5;" width="147" x="1079.5" y="573.4219"/><text fill="#000000" font-family="sans-serif" font-size="14" font-style="italic" lengthAdjust="spacing" textLength="68" x="1119" y="593.417">«factory»</text><text fill="#000000" font-family="sans-serif" font-size="14" lengthAdjust="spacing" textLength="133" x="1086.5" y="609.7139">RepositoryFactory</text><text fill="#000000" font-family="sans-serif" font-size="14" font-style="italic" lengthAdjust="spacing" textLength="90" x="1264" y="68.6982">«repository»</text><text fill="#000000" font-family="sans-serif" font-size="14" lengthAdjust="spacing" textLength="137" x="1240.5" y="84.9951">CriticityRepository</text><path d="M1294,19.7031 C1294,9.7031 1312,9.7031 1312,9.7031 C1312,9.7031 1330,9.7031 1330,19.7031 L1330,45.7031 C1330,55.7031 1312,55.7031 1312,55.7031 C1312,55.7031 1294,55.7031 1294,45.7031 L1294,19.7031 " fill="#FEFECE" filter="url(#f1fpwhqa8z8hlx)" style="stroke:#000000;stroke-width:1.5;"/><path d="M1294,19.7031 C1294,29.7031 1312,29.7031 1312,29.7031 C1312,29.7031 1330,29.7031 1330,19.7031 " fill="none" style="stroke:#000000;stroke-width:1.5;"/><text fill="#000000" font-family="sans-serif" font-size="14" font-style="italic" lengthAdjust="spacing" textLength="90" x="1264" y="586.417">«repository»</text><text fill="#000000" font-family="sans-serif" font-size="14" lengthAdjust="spacing" textLength="137" x="1240.5" y="602.7139">CriticityRepository</text><path d="M1294,616.0156 C1294,606.0156 1312,606.0156 1312,606.0156 C1312,606.0156 1330,606.0156 1330,616.0156 L1330,642.0156 C1330,652.0156 1312,652.0156 1312,652.0156 C1312,652.0156 1294,652.0156 1294,642.0156 L1294,616.0156 " fill="#FEFECE" filter="url(#f1fpwhqa8z8hlx)" style="stroke:#000000;stroke-width:1.5;"/><path d="M1294,616.0156 C1294,626.0156 1312,626.0156 1312,626.0156 C1312,626.0156 1330,626.0156 1330,616.0156 " fill="none" style="stroke:#000000;stroke-width:1.5;"/><rect fill="#FFFFFF" filter="url(#f1fpwhqa8z8hlx)" height="436.9922" style="stroke:#A80036;stroke-width:1.0;" width="10" x="241" y="119.4297"/><rect fill="#FFFFFF" filter="url(#f1fpwhqa8z8hlx)" height="291.3281" style="stroke:#A80036;stroke-width:1.0;" width="10" x="546" y="235.9609"/><rect fill="#FFFFFF" filter="url(#f1fpwhqa8z8hlx)" height="29.1328" style="stroke:#A80036;stroke-width:1.0;" width="10" x="824" y="265.0938"/><rect fill="#FFFFFF" filter="url(#f1fpwhqa8z8hlx)" height="58.2656" style="stroke:#A80036;stroke-width:1.0;" width="10" x="984" y="323.3594"/><rect fill="#FFFFFF" filter="url(#f1fpwhqa8z8hlx)" height="58.2656" style="stroke:#A80036;stroke-width:1.0;" width="10" x="1150" y="410.7578"/><polygon fill="#A80036" points="229,115.4297,239,119.4297,229,123.4297,233,119.4297" style="stroke:#A80036;stroke-width:1.0;"/><line style="stroke:#A80036;stroke-width:1.0;stroke-dasharray:2.0,2.0;" x1="23" x2="235" y1="119.4297" y2="119.4297"/><text fill="#000000" font-family="sans-serif" font-size="13" lengthAdjust="spacing" textLength="111" x="30" y="114.3638">Add CriticityLevel</text><polygon fill="#A80036" points="539,144.5625,549,148.5625,539,152.5625,543,148.5625" style="stroke:#A80036;stroke-width:1.0;"/><line style="stroke:#A80036;stroke-width:1.0;" x1="251" x2="545" y1="148.5625" y2="148.5625"/><text fill="#000000" font-family="sans-serif" font-size="13" lengthAdjust="spacing" textLength="51" x="258" y="143.4966">create()</text><polygon fill="#A80036" points="34,173.6953,24,177.6953,34,181.6953,30,177.6953" style="stroke:#A80036;stroke-width:1.0;"/><line style="stroke:#A80036;stroke-width:1.0;stroke-dasharray:2.0,2.0;" x1="28" x2="240" y1="177.6953" y2="177.6953"/><text fill="#000000" font-family="sans-serif" font-size="13" lengthAdjust="spacing" textLength="153" x="40" y="172.6294">Ask Criticity information</text><polygon fill="#A80036" points="229,202.8281,239,206.8281,229,210.8281,233,206.8281" style="stroke:#A80036;stroke-width:1.0;"/><line style="stroke:#A80036;stroke-width:1.0;stroke-dasharray:2.0,2.0;" x1="23" x2="235" y1="206.8281" y2="206.8281"/><text fill="#000000" font-family="sans-serif" font-size="13" lengthAdjust="spacing" textLength="194" x="30" y="201.7622">Color, Value, Label, Objectives</text><polygon fill="#A80036" points="534,231.9609,544,235.9609,534,239.9609,538,235.9609" style="stroke:#A80036;stroke-width:1.0;"/><line style="stroke:#A80036;stroke-width:1.0;" x1="251" x2="540" y1="235.9609" y2="235.9609"/><text fill="#000000" font-family="sans-serif" font-size="13" lengthAdjust="spacing" textLength="276" x="258" y="230.895">addCriticity(Color, Value, Label, Objectives)</text><polygon fill="#A80036" points="812,261.0938,822,265.0938,812,269.0938,816,265.0938" style="stroke:#A80036;stroke-width:1.0;"/><line style="stroke:#A80036;stroke-width:1.0;" x1="556" x2="818" y1="265.0938" y2="265.0938"/><text fill="#000000" font-family="sans-serif" font-size="13" lengthAdjust="spacing" textLength="249" x="563" y="260.0278">create (Color, Value, Label, Objectives)</text><polygon fill="#A80036" points="567,290.2266,557,294.2266,567,298.2266,563,294.2266" style="stroke:#A80036;stroke-width:1.0;"/><line style="stroke:#A80036;stroke-width:1.0;" x1="561" x2="828" y1="294.2266" y2="294.2266"/><text fill="#000000" font-family="sans-serif" font-size="13" lengthAdjust="spacing" textLength="48" x="573" y="289.1606">Criticity</text><polygon fill="#A80036" points="972,319.3594,982,323.3594,972,327.3594,976,323.3594" style="stroke:#A80036;stroke-width:1.0;"/><line style="stroke:#A80036;stroke-width:1.0;" x1="556" x2="978" y1="323.3594" y2="323.3594"/><text fill="#000000" font-family="sans-serif" font-size="13" lengthAdjust="spacing" textLength="85" x="563" y="318.2935">repositories()</text><polygon fill="#A80036" points="1143,348.4922,1153,352.4922,1143,356.4922,1147,352.4922" style="stroke:#A80036;stroke-width:1.0;"/><line style="stroke:#A80036;stroke-width:1.0;" x1="994" x2="1149" y1="352.4922" y2="352.4922"/><text fill="#000000" font-family="sans-serif" font-size="13" lengthAdjust="spacing" textLength="41" x="1001" y="347.4263">create</text><polygon fill="#A80036" points="567,377.625,557,381.625,567,385.625,563,381.625" style="stroke:#A80036;stroke-width:1.0;"/><line style="stroke:#A80036;stroke-width:1.0;" x1="561" x2="988" y1="381.625" y2="381.625"/><text fill="#000000" font-family="sans-serif" font-size="13" lengthAdjust="spacing" textLength="46" x="573" y="376.5591">factory</text><polygon fill="#A80036" points="1138,406.7578,1148,410.7578,1138,414.7578,1142,410.7578" style="stroke:#A80036;stroke-width:1.0;"/><line style="stroke:#A80036;stroke-width:1.0;" x1="556" x2="1144" y1="410.7578" y2="410.7578"/><text fill="#000000" font-family="sans-serif" font-size="13" lengthAdjust="spacing" textLength="58" x="563" y="405.6919">Criticity()</text><polygon fill="#A80036" points="1300,435.8906,1310,439.8906,1300,443.8906,1304,439.8906" style="stroke:#A80036;stroke-width:1.0;"/><line style="stroke:#A80036;stroke-width:1.0;" x1="1160" x2="1306" y1="439.8906" y2="439.8906"/><text fill="#000000" font-family="sans-serif" font-size="13" lengthAdjust="spacing" textLength="41" x="1167" y="434.8247">create</text><polygon fill="#A80036" points="567,465.0234,557,469.0234,567,473.0234,563,469.0234" style="stroke:#A80036;stroke-width:1.0;"/><line style="stroke:#A80036;stroke-width:1.0;" x1="561" x2="1154" y1="469.0234" y2="469.0234"/><text fill="#000000" font-family="sans-serif" font-size="13" lengthAdjust="spacing" textLength="117" x="573" y="463.9575">CriticityRepository</text><polygon fill="#A80036" points="1300,494.1563,1310,498.1563,1300,502.1563,1304,498.1563" style="stroke:#A80036;stroke-width:1.0;"/><line style="stroke:#A80036;stroke-width:1.0;" x1="556" x2="1306" y1="498.1563" y2="498.1563"/><text fill="#000000" font-family="sans-serif" font-size="13" lengthAdjust="spacing" textLength="89" x="563" y="493.0903">save(Criticity)</text><polygon fill="#A80036" points="262,523.2891,252,527.2891,262,531.2891,258,527.2891" style="stroke:#A80036;stroke-width:1.0;"/><line style="stroke:#A80036;stroke-width:1.0;" x1="256" x2="550" y1="527.2891" y2="527.2891"/><text fill="#000000" font-family="sans-serif" font-size="13" lengthAdjust="spacing" textLength="48" x="268" y="522.2231">Criticity</text><polygon fill="#A80036" points="34,552.4219,24,556.4219,34,560.4219,30,556.4219" style="stroke:#A80036;stroke-width:1.0;"/><line style="stroke:#A80036;stroke-width:1.0;stroke-dasharray:2.0,2.0;" x1="28" x2="245" y1="556.4219" y2="556.4219"/><text fill="#000000" font-family="sans-serif" font-size="13" lengthAdjust="spacing" textLength="117" x="40" y="551.356">displayCriticityInfo</text><!--MD5=[d5d08da201ff9ce7be152cd7ae84fc53]
@startuml
actor GSH as Actor
participant DefineCriticityUI as UI <<presentation>>
participant DefineCriticityController as Controller <<application>>
participant "Criticity:Criticity" as Domain <<domain>>
participant PersistenceContext as Persistence <<persistence>>
participant RepositoryFactory as Factory <<factory>>
database CriticityRepository as Repository <<repository>>

Actor - -> UI: Add CriticityLevel
activate UI
    UI -> Controller: create()
    UI - -> Actor: Ask Criticity information
    Actor - -> UI: Color, Value, Label, Objectives

    UI -> Controller: addCriticity(Color, Value, Label, Objectives)

    activate Controller
        Controller -> Domain: create (Color, Value, Label, Objectives)
        activate Domain
        Domain->Controller: Criticity
        deactivate Domain
            

        Controller -> Persistence: repositories()
        activate Persistence
            Persistence -> Factory: create
            Persistence -> Controller: factory
        deactivate Persistence

        Controller -> Factory: Criticity()
        activate Factory
            Factory -> Repository: create
            Factory -> Controller: CriticityRepository
        deactivate Factory

        Controller->Repository:save(Criticity)
        Controller->UI: Criticity
    deactivate Controller

        UI- ->Actor: displayCriticityInfo
deactivate UI
@enduml

PlantUML version 1.2021.6beta6(Unknown compile time)
(GPL source distribution)
Java Runtime: Java(TM) SE Runtime Environment
JVM: Java HotSpot(TM) 64-Bit Server VM
Default Encoding: UTF-8
Language: en
Country: US
--></g></svg>