<?xml version="1.0" encoding="UTF-8" standalone="no"?><svg xmlns="http://www.w3.org/2000/svg" xmlns:xlink="http://www.w3.org/1999/xlink" contentScriptType="application/ecmascript" contentStyleType="text/css" height="789px" preserveAspectRatio="none" style="width:1513px;height:789px;" version="1.1" viewBox="0 0 1513 789" width="1513px" zoomAndPan="magnify"><defs><filter height="300%" id="f78bzm9vrvcp0" width="300%" x="-1" y="-1"><feGaussianBlur result="blurOut" stdDeviation="2.0"/><feColorMatrix in="blurOut" result="blurOut2" type="matrix" values="0 0 0 0 0 0 0 0 0 0 0 0 0 0 0 0 0 0 .4 0"/><feOffset dx="4.0" dy="4.0" in="blurOut2" result="blurOut3"/><feBlend in="SourceGraphic" in2="blurOut3" mode="normal"/></filter></defs><g><rect fill="#FFFFFF" filter="url(#f78bzm9vrvcp0)" height="234.0625" style="stroke:#000000;stroke-width:2.0;" width="1193" x="10" y="261.2266"/><line style="stroke:#A80036;stroke-width:1.0;stroke-dasharray:5.0,5.0;" x1="90" x2="90" y1="40.2969" y2="746.4844"/><line style="stroke:#A80036;stroke-width:1.0;stroke-dasharray:5.0,5.0;" x1="453" x2="453" y1="40.2969" y2="746.4844"/><line style="stroke:#A80036;stroke-width:1.0;stroke-dasharray:5.0,5.0;" x1="638" x2="638" y1="40.2969" y2="746.4844"/><line style="stroke:#A80036;stroke-width:1.0;stroke-dasharray:5.0,5.0;" x1="796" x2="796" y1="40.2969" y2="746.4844"/><line style="stroke:#A80036;stroke-width:1.0;stroke-dasharray:5.0,5.0;" x1="964" x2="964" y1="40.2969" y2="746.4844"/><line style="stroke:#A80036;stroke-width:1.0;stroke-dasharray:5.0,5.0;" x1="1127" x2="1127" y1="40.2969" y2="746.4844"/><line style="stroke:#A80036;stroke-width:1.0;stroke-dasharray:5.0,5.0;" x1="1236" x2="1236" y1="40.2969" y2="746.4844"/><line style="stroke:#A80036;stroke-width:1.0;stroke-dasharray:5.0,5.0;" x1="1314" x2="1314" y1="40.2969" y2="746.4844"/><line style="stroke:#A80036;stroke-width:1.0;stroke-dasharray:5.0,5.0;" x1="1431" x2="1431" y1="40.2969" y2="746.4844"/><rect fill="#FEFECE" filter="url(#f78bzm9vrvcp0)" height="30.2969" style="stroke:#A80036;stroke-width:1.5;" width="137" x="20" y="5"/><text fill="#000000" font-family="sans-serif" font-size="14" lengthAdjust="spacingAndGlyphs" textLength="123" x="27" y="24.9951">RegisterCatalogUI</text><rect fill="#FEFECE" filter="url(#f78bzm9vrvcp0)" height="30.2969" style="stroke:#A80036;stroke-width:1.5;" width="137" x="20" y="745.4844"/><text fill="#000000" font-family="sans-serif" font-size="14" lengthAdjust="spacingAndGlyphs" textLength="123" x="27" y="765.4795">RegisterCatalogUI</text><rect fill="#FEFECE" filter="url(#f78bzm9vrvcp0)" height="30.2969" style="stroke:#A80036;stroke-width:1.5;" width="191" x="356" y="5"/><text fill="#000000" font-family="sans-serif" font-size="14" lengthAdjust="spacingAndGlyphs" textLength="177" x="363" y="24.9951">RegisterCatalogController</text><rect fill="#FEFECE" filter="url(#f78bzm9vrvcp0)" height="30.2969" style="stroke:#A80036;stroke-width:1.5;" width="191" x="356" y="745.4844"/><text fill="#000000" font-family="sans-serif" font-size="14" lengthAdjust="spacingAndGlyphs" textLength="177" x="363" y="765.4795">RegisterCatalogController</text><rect fill="#FEFECE" filter="url(#f78bzm9vrvcp0)" height="30.2969" style="stroke:#A80036;stroke-width:1.5;" width="150" x="561" y="5"/><text fill="#000000" font-family="sans-serif" font-size="14" lengthAdjust="spacingAndGlyphs" textLength="136" x="568" y="24.9951">PersistenceContext</text><rect fill="#FEFECE" filter="url(#f78bzm9vrvcp0)" height="30.2969" style="stroke:#A80036;stroke-width:1.5;" width="150" x="561" y="745.4844"/><text fill="#000000" font-family="sans-serif" font-size="14" lengthAdjust="spacingAndGlyphs" textLength="136" x="568" y="765.4795">PersistenceContext</text><rect fill="#FEFECE" filter="url(#f78bzm9vrvcp0)" height="30.2969" style="stroke:#A80036;stroke-width:1.5;" width="138" x="725" y="5"/><text fill="#000000" font-family="sans-serif" font-size="14" lengthAdjust="spacingAndGlyphs" textLength="124" x="732" y="24.9951">RepositoryFactory</text><rect fill="#FEFECE" filter="url(#f78bzm9vrvcp0)" height="30.2969" style="stroke:#A80036;stroke-width:1.5;" width="138" x="725" y="745.4844"/><text fill="#000000" font-family="sans-serif" font-size="14" lengthAdjust="spacingAndGlyphs" textLength="124" x="732" y="765.4795">RepositoryFactory</text><rect fill="#FEFECE" filter="url(#f78bzm9vrvcp0)" height="30.2969" style="stroke:#A80036;stroke-width:1.5;" width="171" x="877" y="5"/><text fill="#000000" font-family="sans-serif" font-size="14" lengthAdjust="spacingAndGlyphs" textLength="157" x="884" y="24.9951">CollaboratorRepository</text><rect fill="#FEFECE" filter="url(#f78bzm9vrvcp0)" height="30.2969" style="stroke:#A80036;stroke-width:1.5;" width="171" x="877" y="745.4844"/><text fill="#000000" font-family="sans-serif" font-size="14" lengthAdjust="spacingAndGlyphs" textLength="157" x="884" y="765.4795">CollaboratorRepository</text><rect fill="#FEFECE" filter="url(#f78bzm9vrvcp0)" height="30.2969" style="stroke:#A80036;stroke-width:1.5;" width="127" x="1062" y="5"/><text fill="#000000" font-family="sans-serif" font-size="14" lengthAdjust="spacingAndGlyphs" textLength="113" x="1069" y="24.9951">TeamRepository</text><rect fill="#FEFECE" filter="url(#f78bzm9vrvcp0)" height="30.2969" style="stroke:#A80036;stroke-width:1.5;" width="127" x="1062" y="745.4844"/><text fill="#000000" font-family="sans-serif" font-size="14" lengthAdjust="spacingAndGlyphs" textLength="113" x="1069" y="765.4795">TeamRepository</text><rect fill="#FEFECE" filter="url(#f78bzm9vrvcp0)" height="30.2969" style="stroke:#A80036;stroke-width:1.5;" width="62" x="1203" y="5"/><text fill="#000000" font-family="sans-serif" font-size="14" lengthAdjust="spacingAndGlyphs" textLength="48" x="1210" y="24.9951">Criteria</text><rect fill="#FEFECE" filter="url(#f78bzm9vrvcp0)" height="30.2969" style="stroke:#A80036;stroke-width:1.5;" width="62" x="1203" y="745.4844"/><text fill="#000000" font-family="sans-serif" font-size="14" lengthAdjust="spacingAndGlyphs" textLength="48" x="1210" y="765.4795">Criteria</text><rect fill="#FEFECE" filter="url(#f78bzm9vrvcp0)" height="30.2969" style="stroke:#A80036;stroke-width:1.5;" width="66" x="1279" y="5"/><text fill="#000000" font-family="sans-serif" font-size="14" lengthAdjust="spacingAndGlyphs" textLength="52" x="1286" y="24.9951">Catalog</text><rect fill="#FEFECE" filter="url(#f78bzm9vrvcp0)" height="30.2969" style="stroke:#A80036;stroke-width:1.5;" width="66" x="1279" y="745.4844"/><text fill="#000000" font-family="sans-serif" font-size="14" lengthAdjust="spacingAndGlyphs" textLength="52" x="1286" y="765.4795">Catalog</text><rect fill="#FEFECE" filter="url(#f78bzm9vrvcp0)" height="30.2969" style="stroke:#A80036;stroke-width:1.5;" width="140" x="1359" y="5"/><text fill="#000000" font-family="sans-serif" font-size="14" lengthAdjust="spacingAndGlyphs" textLength="126" x="1366" y="24.9951">CatalogRepository</text><rect fill="#FEFECE" filter="url(#f78bzm9vrvcp0)" height="30.2969" style="stroke:#A80036;stroke-width:1.5;" width="140" x="1359" y="745.4844"/><text fill="#000000" font-family="sans-serif" font-size="14" lengthAdjust="spacingAndGlyphs" textLength="126" x="1366" y="765.4795">CatalogRepository</text><polygon fill="#A80036" points="441.5,67.4297,451.5,71.4297,441.5,75.4297,445.5,71.4297" style="stroke:#A80036;stroke-width:1.0;"/><line style="stroke:#A80036;stroke-width:1.0;" x1="90.5" x2="447.5" y1="71.4297" y2="71.4297"/><text fill="#000000" font-family="sans-serif" font-size="13" lengthAdjust="spacingAndGlyphs" textLength="41" x="97.5" y="66.3638">create</text><polygon fill="#A80036" points="441.5,96.5625,451.5,100.5625,441.5,104.5625,445.5,100.5625" style="stroke:#A80036;stroke-width:1.0;"/><line style="stroke:#A80036;stroke-width:1.0;" x1="90.5" x2="447.5" y1="100.5625" y2="100.5625"/><text fill="#000000" font-family="sans-serif" font-size="13" lengthAdjust="spacingAndGlyphs" textLength="106" x="97.5" y="95.4966">getCollaborators</text><polygon fill="#A80036" points="626,125.6953,636,129.6953,626,133.6953,630,129.6953" style="stroke:#A80036;stroke-width:1.0;"/><line style="stroke:#A80036;stroke-width:1.0;" x1="453.5" x2="632" y1="129.6953" y2="129.6953"/><text fill="#000000" font-family="sans-serif" font-size="13" lengthAdjust="spacingAndGlyphs" textLength="85" x="460.5" y="124.6294">repositories()</text><polygon fill="#A80036" points="784,154.8281,794,158.8281,784,162.8281,788,158.8281" style="stroke:#A80036;stroke-width:1.0;"/><line style="stroke:#A80036;stroke-width:1.0;" x1="638" x2="790" y1="158.8281" y2="158.8281"/><text fill="#000000" font-family="sans-serif" font-size="13" lengthAdjust="spacingAndGlyphs" textLength="41" x="645" y="153.7622">create</text><polygon fill="#A80036" points="952.5,183.9609,962.5,187.9609,952.5,191.9609,956.5,187.9609" style="stroke:#A80036;stroke-width:1.0;"/><line style="stroke:#A80036;stroke-width:1.0;" x1="796" x2="958.5" y1="187.9609" y2="187.9609"/><text fill="#000000" font-family="sans-serif" font-size="13" lengthAdjust="spacingAndGlyphs" textLength="41" x="803" y="182.895">create</text><polygon fill="#A80036" points="952.5,213.0938,962.5,217.0938,952.5,221.0938,956.5,217.0938" style="stroke:#A80036;stroke-width:1.0;"/><line style="stroke:#A80036;stroke-width:1.0;" x1="453.5" x2="958.5" y1="217.0938" y2="217.0938"/><text fill="#000000" font-family="sans-serif" font-size="13" lengthAdjust="spacingAndGlyphs" textLength="38" x="460.5" y="212.0278">findAll</text><polygon fill="#A80036" points="101.5,242.2266,91.5,246.2266,101.5,250.2266,97.5,246.2266" style="stroke:#A80036;stroke-width:1.0;"/><line style="stroke:#A80036;stroke-width:1.0;stroke-dasharray:2.0,2.0;" x1="95.5" x2="452.5" y1="246.2266" y2="246.2266"/><text fill="#000000" font-family="sans-serif" font-size="13" lengthAdjust="spacingAndGlyphs" textLength="85" x="107.5" y="241.1606">Collaborators</text><path d="M10,261.2266 L87,261.2266 L87,268.2266 L77,278.2266 L10,278.2266 L10,261.2266 " fill="#EEEEEE" style="stroke:#000000;stroke-width:1.0;"/><rect fill="none" height="234.0625" style="stroke:#000000;stroke-width:2.0;" width="1193" x="10" y="261.2266"/><text fill="#000000" font-family="sans-serif" font-size="13" font-weight="bold" lengthAdjust="spacingAndGlyphs" textLength="32" x="25" y="274.2935">loop</text><text fill="#000000" font-family="sans-serif" font-size="11" font-weight="bold" lengthAdjust="spacingAndGlyphs" textLength="116" x="102" y="273.437">[while option !=0]</text><polygon fill="#A80036" points="441.5,295.4922,451.5,299.4922,441.5,303.4922,445.5,299.4922" style="stroke:#A80036;stroke-width:1.0;"/><line style="stroke:#A80036;stroke-width:1.0;" x1="90.5" x2="447.5" y1="299.4922" y2="299.4922"/><text fill="#000000" font-family="sans-serif" font-size="13" lengthAdjust="spacingAndGlyphs" textLength="64" x="97.5" y="294.4263">getTeams</text><polygon fill="#A80036" points="626,324.625,636,328.625,626,332.625,630,328.625" style="stroke:#A80036;stroke-width:1.0;"/><line style="stroke:#A80036;stroke-width:1.0;" x1="453.5" x2="632" y1="328.625" y2="328.625"/><text fill="#000000" font-family="sans-serif" font-size="13" lengthAdjust="spacingAndGlyphs" textLength="85" x="460.5" y="323.5591">repositories()</text><polygon fill="#A80036" points="784,353.7578,794,357.7578,784,361.7578,788,357.7578" style="stroke:#A80036;stroke-width:1.0;"/><line style="stroke:#A80036;stroke-width:1.0;" x1="638" x2="790" y1="357.7578" y2="357.7578"/><text fill="#000000" font-family="sans-serif" font-size="13" lengthAdjust="spacingAndGlyphs" textLength="41" x="645" y="352.6919">create</text><polygon fill="#A80036" points="1115.5,382.8906,1125.5,386.8906,1115.5,390.8906,1119.5,386.8906" style="stroke:#A80036;stroke-width:1.0;"/><line style="stroke:#A80036;stroke-width:1.0;" x1="796" x2="1121.5" y1="386.8906" y2="386.8906"/><text fill="#000000" font-family="sans-serif" font-size="13" lengthAdjust="spacingAndGlyphs" textLength="41" x="803" y="381.8247">create</text><polygon fill="#A80036" points="1115.5,412.0234,1125.5,416.0234,1115.5,420.0234,1119.5,416.0234" style="stroke:#A80036;stroke-width:1.0;"/><line style="stroke:#A80036;stroke-width:1.0;" x1="453.5" x2="1121.5" y1="416.0234" y2="416.0234"/><text fill="#000000" font-family="sans-serif" font-size="13" lengthAdjust="spacingAndGlyphs" textLength="38" x="460.5" y="410.9575">findAll</text><polygon fill="#A80036" points="101.5,441.1563,91.5,445.1563,101.5,449.1563,97.5,445.1563" style="stroke:#A80036;stroke-width:1.0;"/><line style="stroke:#A80036;stroke-width:1.0;stroke-dasharray:2.0,2.0;" x1="95.5" x2="452.5" y1="445.1563" y2="445.1563"/><text fill="#000000" font-family="sans-serif" font-size="13" lengthAdjust="spacingAndGlyphs" textLength="43" x="107.5" y="440.0903">Teams</text><line style="stroke:#A80036;stroke-width:1.0;" x1="90.5" x2="132.5" y1="474.2891" y2="474.2891"/><line style="stroke:#A80036;stroke-width:1.0;" x1="132.5" x2="132.5" y1="474.2891" y2="487.2891"/><line style="stroke:#A80036;stroke-width:1.0;" x1="91.5" x2="132.5" y1="487.2891" y2="487.2891"/><polygon fill="#A80036" points="101.5,483.2891,91.5,487.2891,101.5,491.2891,97.5,487.2891" style="stroke:#A80036;stroke-width:1.0;"/><text fill="#000000" font-family="sans-serif" font-size="13" lengthAdjust="spacingAndGlyphs" textLength="60" x="97.5" y="469.2231">doShow()</text><polygon fill="#A80036" points="441.5,534.5547,451.5,538.5547,441.5,542.5547,445.5,538.5547" style="stroke:#A80036;stroke-width:1.0;"/><line style="stroke:#A80036;stroke-width:1.0;" x1="90.5" x2="447.5" y1="538.5547" y2="538.5547"/><text fill="#000000" font-family="sans-serif" font-size="13" lengthAdjust="spacingAndGlyphs" textLength="302" x="97.5" y="518.356">registerCatalog(identifier, title, briefDescription,</text><text fill="#000000" font-family="sans-serif" font-size="13" lengthAdjust="spacingAndGlyphs" textLength="335" x="101.5" y="533.4888">completeDescription, icone, collaborator, teamType)</text><polygon fill="#A80036" points="1224,563.6875,1234,567.6875,1224,571.6875,1228,567.6875" style="stroke:#A80036;stroke-width:1.0;"/><line style="stroke:#A80036;stroke-width:1.0;" x1="453.5" x2="1230" y1="567.6875" y2="567.6875"/><text fill="#000000" font-family="sans-serif" font-size="13" lengthAdjust="spacingAndGlyphs" textLength="147" x="460.5" y="562.6216">criteria=create(teams)</text><polygon fill="#A80036" points="1302,607.9531,1312,611.9531,1302,615.9531,1306,611.9531" style="stroke:#A80036;stroke-width:1.0;"/><line style="stroke:#A80036;stroke-width:1.0;" x1="453.5" x2="1308" y1="611.9531" y2="611.9531"/><text fill="#000000" font-family="sans-serif" font-size="13" lengthAdjust="spacingAndGlyphs" textLength="330" x="460.5" y="591.7544">newCatalog=create(identifier, title, briefDescription,</text><text fill="#000000" font-family="sans-serif" font-size="13" lengthAdjust="spacingAndGlyphs" textLength="315" x="464.5" y="606.8872">completeDescription, icone, collaborator, criteria)</text><polygon fill="#A80036" points="626,637.0859,636,641.0859,626,645.0859,630,641.0859" style="stroke:#A80036;stroke-width:1.0;"/><line style="stroke:#A80036;stroke-width:1.0;" x1="453.5" x2="632" y1="641.0859" y2="641.0859"/><text fill="#000000" font-family="sans-serif" font-size="13" lengthAdjust="spacingAndGlyphs" textLength="85" x="460.5" y="636.02">repositories()</text><polygon fill="#A80036" points="784,666.2188,794,670.2188,784,674.2188,788,670.2188" style="stroke:#A80036;stroke-width:1.0;"/><line style="stroke:#A80036;stroke-width:1.0;" x1="638" x2="790" y1="670.2188" y2="670.2188"/><text fill="#000000" font-family="sans-serif" font-size="13" lengthAdjust="spacingAndGlyphs" textLength="41" x="645" y="665.1528">create</text><polygon fill="#A80036" points="1419,695.3516,1429,699.3516,1419,703.3516,1423,699.3516" style="stroke:#A80036;stroke-width:1.0;"/><line style="stroke:#A80036;stroke-width:1.0;" x1="796" x2="1425" y1="699.3516" y2="699.3516"/><text fill="#000000" font-family="sans-serif" font-size="13" lengthAdjust="spacingAndGlyphs" textLength="41" x="803" y="694.2856">create</text><polygon fill="#A80036" points="1419,724.4844,1429,728.4844,1419,732.4844,1423,728.4844" style="stroke:#A80036;stroke-width:1.0;"/><line style="stroke:#A80036;stroke-width:1.0;" x1="453.5" x2="1425" y1="728.4844" y2="728.4844"/><text fill="#000000" font-family="sans-serif" font-size="13" lengthAdjust="spacingAndGlyphs" textLength="114" x="460.5" y="723.4185">save(newCatalog)</text><!--MD5=[cb86dcdf5b6d4b99c98e20906f19f5e7]
@startuml
RegisterCatalogUI -> RegisterCatalogController : create

RegisterCatalogUI -> RegisterCatalogController : getCollaborators
RegisterCatalogController -> PersistenceContext : repositories()
PersistenceContext -> RepositoryFactory : create
RepositoryFactory -> CollaboratorRepository : create
RegisterCatalogController -> CollaboratorRepository : findAll
RegisterCatalogController - -> RegisterCatalogUI: Collaborators
loop while option !=0
RegisterCatalogUI -> RegisterCatalogController : getTeams
RegisterCatalogController -> PersistenceContext : repositories()
PersistenceContext -> RepositoryFactory : create
RepositoryFactory -> TeamRepository : create
RegisterCatalogController -> TeamRepository : findAll
RegisterCatalogController - -> RegisterCatalogUI: Teams

RegisterCatalogUI -> RegisterCatalogUI : doShow()
end loop

RegisterCatalogUI -> RegisterCatalogController : registerCatalog(identifier, title, briefDescription,\n completeDescription, icone, collaborator, teamType)
RegisterCatalogController -> Criteria : criteria=create(teams)
RegisterCatalogController -> Catalog : newCatalog=create(identifier, title, briefDescription,\n completeDescription, icone, collaborator, criteria)
RegisterCatalogController -> PersistenceContext : repositories()
PersistenceContext -> RepositoryFactory : create
RepositoryFactory -> CatalogRepository : create
RegisterCatalogController -> CatalogRepository : save(newCatalog)
@enduml

PlantUML version 1.2020.22(Sun Dec 06 09:36:27 UTC 2020)
(GPL source distribution)
Java Runtime: OpenJDK Runtime Environment
JVM: OpenJDK 64-Bit Server VM
Default Encoding: UTF-8
Language: en
Country: US
--></g></svg>