<?xml version="1.0" encoding="UTF-8" standalone="no"?><svg xmlns="http://www.w3.org/2000/svg" xmlns:xlink="http://www.w3.org/1999/xlink" contentScriptType="application/ecmascript" contentStyleType="text/css" height="1387px" preserveAspectRatio="none" style="width:685px;height:1387px;" version="1.1" viewBox="0 0 685 1387" width="685px" zoomAndPan="magnify"><defs><filter height="300%" id="f1e0fvyghmf48g" width="300%" x="-1" y="-1"><feGaussianBlur result="blurOut" stdDeviation="2.0"/><feColorMatrix in="blurOut" result="blurOut2" type="matrix" values="0 0 0 0 0 0 0 0 0 0 0 0 0 0 0 0 0 0 .4 0"/><feOffset dx="4.0" dy="4.0" in="blurOut2" result="blurOut3"/><feBlend in="SourceGraphic" in2="blurOut3" mode="normal"/></filter></defs><g><!--MD5=[9681dc6e01e10c6b4fe06895ae94f592]
cluster UI--><polygon fill="#FFFFFF" filter="url(#f1e0fvyghmf48g)" points="441,6,463,6,470,28.2969,593,28.2969,593,105,441,105,441,6" style="stroke:#000000;stroke-width:1.5;"/><line style="stroke:#000000;stroke-width:1.5;" x1="441" x2="470" y1="28.2969" y2="28.2969"/><text fill="#000000" font-family="sans-serif" font-size="14" font-weight="bold" lengthAdjust="spacing" textLength="16" x="445" y="20.9951">UI</text><!--MD5=[ed1d20ea533a2a0e7df5ba3c35e56ced]
cluster Controllers--><polygon fill="#FFFFFF" filter="url(#f1e0fvyghmf48g)" points="412,138,508,138,515,160.2969,622,160.2969,622,467,412,467,412,138" style="stroke:#000000;stroke-width:1.5;"/><line style="stroke:#000000;stroke-width:1.5;" x1="412" x2="515" y1="160.2969" y2="160.2969"/><text fill="#000000" font-family="sans-serif" font-size="14" font-weight="bold" lengthAdjust="spacing" textLength="90" x="416" y="152.9951">Controllers</text><!--MD5=[121a8bf1197281ab89ed693fab589f94]
cluster Domain--><polygon fill="#FFFFFF" filter="url(#f1e0fvyghmf48g)" points="16,500,83,500,90,522.2969,668,522.2969,668,1380,16,1380,16,500" style="stroke:#000000;stroke-width:1.5;"/><line style="stroke:#000000;stroke-width:1.5;" x1="16" x2="90" y1="522.2969" y2="522.2969"/><text fill="#000000" font-family="sans-serif" font-size="14" font-weight="bold" lengthAdjust="spacing" textLength="61" x="20" y="514.9951">Domain</text><!--MD5=[6eea9a658c35fadf523672041f43654c]
class BuyAProductUI--><rect codeLine="24" fill="#FEFECE" filter="url(#f1e0fvyghmf48g)" height="48" id="BuyAProductUI" style="stroke:#A80036;stroke-width:1.5;" width="119" x="457.5" y="41"/><ellipse cx="472.5" cy="57" fill="#ADD1B2" rx="11" ry="11" style="stroke:#A80036;stroke-width:1.0;"/><path d="M474.8438,52.6719 C473.9063,52.2344 473.3125,52.0938 472.4375,52.0938 C469.8125,52.0938 467.8125,54.1719 467.8125,56.8906 L467.8125,58.0156 C467.8125,60.5938 469.9219,62.4844 472.8125,62.4844 C474.0313,62.4844 475.1875,62.1875 475.9375,61.6406 C476.5156,61.2344 476.8438,60.7813 476.8438,60.3906 C476.8438,59.9375 476.4531,59.5469 475.9844,59.5469 C475.7656,59.5469 475.5625,59.625 475.375,59.8125 C474.9219,60.2969 474.9219,60.2969 474.7344,60.3906 C474.3125,60.6563 473.625,60.7813 472.8594,60.7813 C470.8125,60.7813 469.5156,59.6875 469.5156,57.9844 L469.5156,56.8906 C469.5156,55.1094 470.7656,53.7969 472.5,53.7969 C473.0781,53.7969 473.6875,53.9531 474.1563,54.2031 C474.6406,54.4844 474.8125,54.7031 474.9063,55.1094 C474.9688,55.5156 475,55.6406 475.1406,55.7656 C475.2813,55.9063 475.5156,56.0156 475.7344,56.0156 C476,56.0156 476.2656,55.875 476.4375,55.6563 C476.5469,55.5 476.5781,55.3125 476.5781,54.8906 L476.5781,53.4688 C476.5781,53.0313 476.5625,52.9063 476.4688,52.75 C476.3125,52.4844 476.0313,52.3438 475.7344,52.3438 C475.4375,52.3438 475.2344,52.4375 475.0156,52.75 L474.8438,52.6719 Z " fill="#000000"/><text fill="#000000" font-family="sans-serif" font-size="12" lengthAdjust="spacing" textLength="87" x="486.5" y="61.1543">BuyAProductUI</text><line style="stroke:#A80036;stroke-width:1.5;" x1="458.5" x2="575.5" y1="73" y2="73"/><line style="stroke:#A80036;stroke-width:1.5;" x1="458.5" x2="575.5" y1="81" y2="81"/><!--MD5=[eb6a9a87dff48ef0cf01b757f13f650d]
class BuyAProductController--><rect codeLine="49" fill="#FEFECE" filter="url(#f1e0fvyghmf48g)" height="278.4844" id="BuyAProductController" style="stroke:#A80036;stroke-width:1.5;" width="178" x="428" y="173"/><ellipse cx="448.4" cy="189" fill="#ADD1B2" rx="11" ry="11" style="stroke:#A80036;stroke-width:1.0;"/><path d="M450.7438,184.6719 C449.8063,184.2344 449.2125,184.0938 448.3375,184.0938 C445.7125,184.0938 443.7125,186.1719 443.7125,188.8906 L443.7125,190.0156 C443.7125,192.5938 445.8219,194.4844 448.7125,194.4844 C449.9313,194.4844 451.0875,194.1875 451.8375,193.6406 C452.4156,193.2344 452.7438,192.7813 452.7438,192.3906 C452.7438,191.9375 452.3531,191.5469 451.8844,191.5469 C451.6656,191.5469 451.4625,191.625 451.275,191.8125 C450.8219,192.2969 450.8219,192.2969 450.6344,192.3906 C450.2125,192.6563 449.525,192.7813 448.7594,192.7813 C446.7125,192.7813 445.4156,191.6875 445.4156,189.9844 L445.4156,188.8906 C445.4156,187.1094 446.6656,185.7969 448.4,185.7969 C448.9781,185.7969 449.5875,185.9531 450.0563,186.2031 C450.5406,186.4844 450.7125,186.7031 450.8063,187.1094 C450.8688,187.5156 450.9,187.6406 451.0406,187.7656 C451.1813,187.9063 451.4156,188.0156 451.6344,188.0156 C451.9,188.0156 452.1656,187.875 452.3375,187.6563 C452.4469,187.5 452.4781,187.3125 452.4781,186.8906 L452.4781,185.4688 C452.4781,185.0313 452.4625,184.9063 452.3688,184.75 C452.2125,184.4844 451.9313,184.3438 451.6344,184.3438 C451.3375,184.3438 451.1344,184.4375 450.9156,184.75 L450.7438,184.6719 Z " fill="#000000"/><text fill="#000000" font-family="sans-serif" font-size="12" lengthAdjust="spacing" textLength="134" x="463.6" y="193.1543">BuyAProductController</text><line style="stroke:#A80036;stroke-width:1.5;" x1="429" x2="605" y1="205" y2="205"/><line style="stroke:#A80036;stroke-width:1.5;" x1="429" x2="605" y1="213" y2="213"/><text fill="#000000" font-family="sans-serif" font-size="11" lengthAdjust="spacing" textLength="110" x="434" y="227.2104">+getPharmacyList()</text><text fill="#000000" font-family="sans-serif" font-size="11" lengthAdjust="spacing" textLength="159" x="434" y="240.0151">+getPharmacy(pharmacyID)</text><text fill="#000000" font-family="sans-serif" font-size="11" lengthAdjust="spacing" textLength="96" x="434" y="252.8198">+getProductList()</text><text fill="#000000" font-family="sans-serif" font-size="11" lengthAdjust="spacing" textLength="131" x="434" y="265.6245">+getProduct(productID)</text><text fill="#000000" font-family="sans-serif" font-size="11" lengthAdjust="spacing" textLength="166" x="434" y="278.4292">+preencherMapa(pr,quantity)</text><text fill="#000000" font-family="sans-serif" font-size="11" lengthAdjust="spacing" textLength="88" x="434" y="291.2339">+updateStock()</text><text fill="#000000" font-family="sans-serif" font-size="11" lengthAdjust="spacing" textLength="69" x="434" y="304.0386">+getClient()</text><text fill="#000000" font-family="sans-serif" font-size="11" lengthAdjust="spacing" textLength="100" x="434" y="316.8433">+newInvoice(mp)</text><text fill="#000000" font-family="sans-serif" font-size="11" lengthAdjust="spacing" textLength="80" x="434" y="329.6479">+generateId()</text><text fill="#000000" font-family="sans-serif" font-size="11" lengthAdjust="spacing" textLength="64" x="434" y="342.4526">+getDate()</text><text fill="#000000" font-family="sans-serif" font-size="11" lengthAdjust="spacing" textLength="66" x="434" y="355.2573">+calcPrice()</text><text fill="#000000" font-family="sans-serif" font-size="11" lengthAdjust="spacing" textLength="90" x="434" y="368.062">+newDelivery()</text><text fill="#000000" font-family="sans-serif" font-size="11" lengthAdjust="spacing" textLength="96" x="434" y="380.8667">+calcCredits(inv)</text><text fill="#000000" font-family="sans-serif" font-size="11" lengthAdjust="spacing" textLength="107" x="434" y="393.6714">+verifyCredits(inv)</text><text fill="#000000" font-family="sans-serif" font-size="11" lengthAdjust="spacing" textLength="116" x="434" y="406.4761">+addCredits(credits)</text><text fill="#000000" font-family="sans-serif" font-size="11" lengthAdjust="spacing" textLength="120" x="434" y="419.2808">+buyWithCredits(inv)</text><text fill="#000000" font-family="sans-serif" font-size="11" lengthAdjust="spacing" textLength="110" x="434" y="432.0854">+registerDelivery()</text><text fill="#000000" font-family="sans-serif" font-size="11" lengthAdjust="spacing" textLength="103" x="434" y="444.8901">+sendEmail(inv,p)</text><!--MD5=[99b8db98afdc2c8404e39242ef4c1e65]
class Platform--><rect codeLine="70" fill="#FEFECE" filter="url(#f1e0fvyghmf48g)" height="86.4141" id="Platform" style="stroke:#A80036;stroke-width:1.5;" width="128" x="336" y="535"/><ellipse cx="372.6" cy="551" fill="#ADD1B2" rx="11" ry="11" style="stroke:#A80036;stroke-width:1.0;"/><path d="M374.9438,546.6719 C374.0063,546.2344 373.4125,546.0938 372.5375,546.0938 C369.9125,546.0938 367.9125,548.1719 367.9125,550.8906 L367.9125,552.0156 C367.9125,554.5938 370.0219,556.4844 372.9125,556.4844 C374.1313,556.4844 375.2875,556.1875 376.0375,555.6406 C376.6156,555.2344 376.9438,554.7813 376.9438,554.3906 C376.9438,553.9375 376.5531,553.5469 376.0844,553.5469 C375.8656,553.5469 375.6625,553.625 375.475,553.8125 C375.0219,554.2969 375.0219,554.2969 374.8344,554.3906 C374.4125,554.6563 373.725,554.7813 372.9594,554.7813 C370.9125,554.7813 369.6156,553.6875 369.6156,551.9844 L369.6156,550.8906 C369.6156,549.1094 370.8656,547.7969 372.6,547.7969 C373.1781,547.7969 373.7875,547.9531 374.2563,548.2031 C374.7406,548.4844 374.9125,548.7031 375.0063,549.1094 C375.0688,549.5156 375.1,549.6406 375.2406,549.7656 C375.3813,549.9063 375.6156,550.0156 375.8344,550.0156 C376.1,550.0156 376.3656,549.875 376.5375,549.6563 C376.6469,549.5 376.6781,549.3125 376.6781,548.8906 L376.6781,547.4688 C376.6781,547.0313 376.6625,546.9063 376.5688,546.75 C376.4125,546.4844 376.1313,546.3438 375.8344,546.3438 C375.5375,546.3438 375.3344,546.4375 375.1156,546.75 L374.9438,546.6719 Z " fill="#000000"/><text fill="#000000" font-family="sans-serif" font-size="12" lengthAdjust="spacing" textLength="48" x="391.4" y="555.1543">Platform</text><line style="stroke:#A80036;stroke-width:1.5;" x1="337" x2="463" y1="567" y2="567"/><line style="stroke:#A80036;stroke-width:1.5;" x1="337" x2="463" y1="575" y2="575"/><text fill="#000000" font-family="sans-serif" font-size="11" lengthAdjust="spacing" textLength="110" x="342" y="589.2104">+getPharmacyList()</text><text fill="#000000" font-family="sans-serif" font-size="11" lengthAdjust="spacing" textLength="116" x="342" y="602.0151">+getClientRegister()</text><text fill="#000000" font-family="sans-serif" font-size="11" lengthAdjust="spacing" textLength="104" x="342" y="614.8198">+getDeliveryList()</text><!--MD5=[72136138052d025cffdce3c22fbd185f]
class Product--><rect codeLine="81" fill="#FEFECE" filter="url(#f1e0fvyghmf48g)" height="99.2188" id="Product" style="stroke:#A80036;stroke-width:1.5;" width="86" x="361" y="1265"/><ellipse cx="380.05" cy="1281" fill="#ADD1B2" rx="11" ry="11" style="stroke:#A80036;stroke-width:1.0;"/><path d="M382.3938,1276.6719 C381.4563,1276.2344 380.8625,1276.0938 379.9875,1276.0938 C377.3625,1276.0938 375.3625,1278.1719 375.3625,1280.8906 L375.3625,1282.0156 C375.3625,1284.5938 377.4719,1286.4844 380.3625,1286.4844 C381.5813,1286.4844 382.7375,1286.1875 383.4875,1285.6406 C384.0656,1285.2344 384.3938,1284.7813 384.3938,1284.3906 C384.3938,1283.9375 384.0031,1283.5469 383.5344,1283.5469 C383.3156,1283.5469 383.1125,1283.625 382.925,1283.8125 C382.4719,1284.2969 382.4719,1284.2969 382.2844,1284.3906 C381.8625,1284.6563 381.175,1284.7813 380.4094,1284.7813 C378.3625,1284.7813 377.0656,1283.6875 377.0656,1281.9844 L377.0656,1280.8906 C377.0656,1279.1094 378.3156,1277.7969 380.05,1277.7969 C380.6281,1277.7969 381.2375,1277.9531 381.7063,1278.2031 C382.1906,1278.4844 382.3625,1278.7031 382.4563,1279.1094 C382.5188,1279.5156 382.55,1279.6406 382.6906,1279.7656 C382.8313,1279.9063 383.0656,1280.0156 383.2844,1280.0156 C383.55,1280.0156 383.8156,1279.875 383.9875,1279.6563 C384.0969,1279.5 384.1281,1279.3125 384.1281,1278.8906 L384.1281,1277.4688 C384.1281,1277.0313 384.1125,1276.9063 384.0188,1276.75 C383.8625,1276.4844 383.5813,1276.3438 383.2844,1276.3438 C382.9875,1276.3438 382.7844,1276.4375 382.5656,1276.75 L382.3938,1276.6719 Z " fill="#000000"/><text fill="#000000" font-family="sans-serif" font-size="12" lengthAdjust="spacing" textLength="45" x="394.95" y="1285.1543">Product</text><line style="stroke:#A80036;stroke-width:1.5;" x1="362" x2="446" y1="1297" y2="1297"/><text fill="#000000" font-family="sans-serif" font-size="11" lengthAdjust="spacing" textLength="51" x="367" y="1311.2104">-String id</text><text fill="#000000" font-family="sans-serif" font-size="11" lengthAdjust="spacing" textLength="74" x="367" y="1324.0151">-String nome</text><text fill="#000000" font-family="sans-serif" font-size="11" lengthAdjust="spacing" textLength="61" x="367" y="1336.8198">-float price</text><text fill="#000000" font-family="sans-serif" font-size="11" lengthAdjust="spacing" textLength="71" x="367" y="1349.6245">-float weight</text><line style="stroke:#A80036;stroke-width:1.5;" x1="362" x2="446" y1="1356.2188" y2="1356.2188"/><!--MD5=[8050ef462d77cf220fd706493bc05cc9]
class PharmacyList--><rect codeLine="98" fill="#FEFECE" filter="url(#f1e0fvyghmf48g)" height="60.8047" id="PharmacyList" style="stroke:#A80036;stroke-width:1.5;" width="171" x="318.5" y="730"/><ellipse cx="361.4" cy="746" fill="#ADD1B2" rx="11" ry="11" style="stroke:#A80036;stroke-width:1.0;"/><path d="M363.7438,741.6719 C362.8063,741.2344 362.2125,741.0938 361.3375,741.0938 C358.7125,741.0938 356.7125,743.1719 356.7125,745.8906 L356.7125,747.0156 C356.7125,749.5938 358.8219,751.4844 361.7125,751.4844 C362.9313,751.4844 364.0875,751.1875 364.8375,750.6406 C365.4156,750.2344 365.7438,749.7813 365.7438,749.3906 C365.7438,748.9375 365.3531,748.5469 364.8844,748.5469 C364.6656,748.5469 364.4625,748.625 364.275,748.8125 C363.8219,749.2969 363.8219,749.2969 363.6344,749.3906 C363.2125,749.6563 362.525,749.7813 361.7594,749.7813 C359.7125,749.7813 358.4156,748.6875 358.4156,746.9844 L358.4156,745.8906 C358.4156,744.1094 359.6656,742.7969 361.4,742.7969 C361.9781,742.7969 362.5875,742.9531 363.0563,743.2031 C363.5406,743.4844 363.7125,743.7031 363.8063,744.1094 C363.8688,744.5156 363.9,744.6406 364.0406,744.7656 C364.1813,744.9063 364.4156,745.0156 364.6344,745.0156 C364.9,745.0156 365.1656,744.875 365.3375,744.6563 C365.4469,744.5 365.4781,744.3125 365.4781,743.8906 L365.4781,742.4688 C365.4781,742.0313 365.4625,741.9063 365.3688,741.75 C365.2125,741.4844 364.9313,741.3438 364.6344,741.3438 C364.3375,741.3438 364.1344,741.4375 363.9156,741.75 L363.7438,741.6719 Z " fill="#000000"/><text fill="#000000" font-family="sans-serif" font-size="12" lengthAdjust="spacing" textLength="77" x="381.6" y="750.1543">PharmacyList</text><line style="stroke:#A80036;stroke-width:1.5;" x1="319.5" x2="488.5" y1="762" y2="762"/><line style="stroke:#A80036;stroke-width:1.5;" x1="319.5" x2="488.5" y1="770" y2="770"/><text fill="#000000" font-family="sans-serif" font-size="11" lengthAdjust="spacing" textLength="159" x="324.5" y="784.2104">+getPharmacy(pharmacyID)</text><!--MD5=[7f2a9fafcebe4f099f71398fd3e2ed00]
class Pharmacy--><rect codeLine="89" fill="#FEFECE" filter="url(#f1e0fvyghmf48g)" height="124.8281" id="Pharmacy" style="stroke:#A80036;stroke-width:1.5;" width="119" x="344.5" y="912.5"/><ellipse cx="373" cy="928.5" fill="#ADD1B2" rx="11" ry="11" style="stroke:#A80036;stroke-width:1.0;"/><path d="M375.3438,924.1719 C374.4063,923.7344 373.8125,923.5938 372.9375,923.5938 C370.3125,923.5938 368.3125,925.6719 368.3125,928.3906 L368.3125,929.5156 C368.3125,932.0938 370.4219,933.9844 373.3125,933.9844 C374.5313,933.9844 375.6875,933.6875 376.4375,933.1406 C377.0156,932.7344 377.3438,932.2813 377.3438,931.8906 C377.3438,931.4375 376.9531,931.0469 376.4844,931.0469 C376.2656,931.0469 376.0625,931.125 375.875,931.3125 C375.4219,931.7969 375.4219,931.7969 375.2344,931.8906 C374.8125,932.1563 374.125,932.2813 373.3594,932.2813 C371.3125,932.2813 370.0156,931.1875 370.0156,929.4844 L370.0156,928.3906 C370.0156,926.6094 371.2656,925.2969 373,925.2969 C373.5781,925.2969 374.1875,925.4531 374.6563,925.7031 C375.1406,925.9844 375.3125,926.2031 375.4063,926.6094 C375.4688,927.0156 375.5,927.1406 375.6406,927.2656 C375.7813,927.4063 376.0156,927.5156 376.2344,927.5156 C376.5,927.5156 376.7656,927.375 376.9375,927.1563 C377.0469,927 377.0781,926.8125 377.0781,926.3906 L377.0781,924.9688 C377.0781,924.5313 377.0625,924.4063 376.9688,924.25 C376.8125,923.9844 376.5313,923.8438 376.2344,923.8438 C375.9375,923.8438 375.7344,923.9375 375.5156,924.25 L375.3438,924.1719 Z " fill="#000000"/><text fill="#000000" font-family="sans-serif" font-size="12" lengthAdjust="spacing" textLength="57" x="390" y="932.6543">Pharmacy</text><line style="stroke:#A80036;stroke-width:1.5;" x1="345.5" x2="462.5" y1="944.5" y2="944.5"/><text fill="#000000" font-family="sans-serif" font-size="11" lengthAdjust="spacing" textLength="51" x="350.5" y="958.7104">-String id</text><text fill="#000000" font-family="sans-serif" font-size="11" lengthAdjust="spacing" textLength="107" x="350.5" y="971.5151">-String designation</text><text fill="#000000" font-family="sans-serif" font-size="11" lengthAdjust="spacing" textLength="73" x="350.5" y="984.3198">-String email</text><text fill="#000000" font-family="sans-serif" font-size="11" lengthAdjust="spacing" textLength="85" x="350.5" y="997.1245">-Adress adress</text><text fill="#000000" font-family="sans-serif" font-size="11" lengthAdjust="spacing" textLength="100" x="350.5" y="1009.9292">-Integer parkLimit</text><line style="stroke:#A80036;stroke-width:1.5;" x1="345.5" x2="462.5" y1="1016.5234" y2="1016.5234"/><text fill="#000000" font-family="sans-serif" font-size="11" lengthAdjust="spacing" textLength="96" x="350.5" y="1030.7339">+getProductList()</text><!--MD5=[44262eafef82e22c9662f871d8bd43ff]
class ProductList--><rect codeLine="102" fill="#FEFECE" filter="url(#f1e0fvyghmf48g)" height="60.8047" id="ProductList" style="stroke:#A80036;stroke-width:1.5;" width="143" x="332.5" y="1127"/><ellipse cx="368.2" cy="1143" fill="#ADD1B2" rx="11" ry="11" style="stroke:#A80036;stroke-width:1.0;"/><path d="M370.5438,1138.6719 C369.6063,1138.2344 369.0125,1138.0938 368.1375,1138.0938 C365.5125,1138.0938 363.5125,1140.1719 363.5125,1142.8906 L363.5125,1144.0156 C363.5125,1146.5938 365.6219,1148.4844 368.5125,1148.4844 C369.7313,1148.4844 370.8875,1148.1875 371.6375,1147.6406 C372.2156,1147.2344 372.5438,1146.7813 372.5438,1146.3906 C372.5438,1145.9375 372.1531,1145.5469 371.6844,1145.5469 C371.4656,1145.5469 371.2625,1145.625 371.075,1145.8125 C370.6219,1146.2969 370.6219,1146.2969 370.4344,1146.3906 C370.0125,1146.6563 369.325,1146.7813 368.5594,1146.7813 C366.5125,1146.7813 365.2156,1145.6875 365.2156,1143.9844 L365.2156,1142.8906 C365.2156,1141.1094 366.4656,1139.7969 368.2,1139.7969 C368.7781,1139.7969 369.3875,1139.9531 369.8563,1140.2031 C370.3406,1140.4844 370.5125,1140.7031 370.6063,1141.1094 C370.6688,1141.5156 370.7,1141.6406 370.8406,1141.7656 C370.9813,1141.9063 371.2156,1142.0156 371.4344,1142.0156 C371.7,1142.0156 371.9656,1141.875 372.1375,1141.6563 C372.2469,1141.5 372.2781,1141.3125 372.2781,1140.8906 L372.2781,1139.4688 C372.2781,1139.0313 372.2625,1138.9063 372.1688,1138.75 C372.0125,1138.4844 371.7313,1138.3438 371.4344,1138.3438 C371.1375,1138.3438 370.9344,1138.4375 370.7156,1138.75 L370.5438,1138.6719 Z " fill="#000000"/><text fill="#000000" font-family="sans-serif" font-size="12" lengthAdjust="spacing" textLength="65" x="386.8" y="1147.1543">ProductList</text><line style="stroke:#A80036;stroke-width:1.5;" x1="333.5" x2="474.5" y1="1159" y2="1159"/><line style="stroke:#A80036;stroke-width:1.5;" x1="333.5" x2="474.5" y1="1167" y2="1167"/><text fill="#000000" font-family="sans-serif" font-size="11" lengthAdjust="spacing" textLength="131" x="338.5" y="1181.2104">+getProduct(productID)</text><!--MD5=[0fcd3375de399c91a906cd30f47c8789]
class ClientRegister--><rect codeLine="76" fill="#FEFECE" filter="url(#f1e0fvyghmf48g)" height="60.8047" id="ClientRegister" style="stroke:#A80036;stroke-width:1.5;" width="127" x="524.5" y="730"/><ellipse cx="544.9" cy="746" fill="#ADD1B2" rx="11" ry="11" style="stroke:#A80036;stroke-width:1.0;"/><path d="M547.2438,741.6719 C546.3063,741.2344 545.7125,741.0938 544.8375,741.0938 C542.2125,741.0938 540.2125,743.1719 540.2125,745.8906 L540.2125,747.0156 C540.2125,749.5938 542.3219,751.4844 545.2125,751.4844 C546.4313,751.4844 547.5875,751.1875 548.3375,750.6406 C548.9156,750.2344 549.2438,749.7813 549.2438,749.3906 C549.2438,748.9375 548.8531,748.5469 548.3844,748.5469 C548.1656,748.5469 547.9625,748.625 547.775,748.8125 C547.3219,749.2969 547.3219,749.2969 547.1344,749.3906 C546.7125,749.6563 546.025,749.7813 545.2594,749.7813 C543.2125,749.7813 541.9156,748.6875 541.9156,746.9844 L541.9156,745.8906 C541.9156,744.1094 543.1656,742.7969 544.9,742.7969 C545.4781,742.7969 546.0875,742.9531 546.5563,743.2031 C547.0406,743.4844 547.2125,743.7031 547.3063,744.1094 C547.3688,744.5156 547.4,744.6406 547.5406,744.7656 C547.6813,744.9063 547.9156,745.0156 548.1344,745.0156 C548.4,745.0156 548.6656,744.875 548.8375,744.6563 C548.9469,744.5 548.9781,744.3125 548.9781,743.8906 L548.9781,742.4688 C548.9781,742.0313 548.9625,741.9063 548.8688,741.75 C548.7125,741.4844 548.4313,741.3438 548.1344,741.3438 C547.8375,741.3438 547.6344,741.4375 547.4156,741.75 L547.2438,741.6719 Z " fill="#000000"/><text fill="#000000" font-family="sans-serif" font-size="12" lengthAdjust="spacing" textLength="83" x="560.1" y="750.1543">ClientRegister</text><line style="stroke:#A80036;stroke-width:1.5;" x1="525.5" x2="650.5" y1="762" y2="762"/><line style="stroke:#A80036;stroke-width:1.5;" x1="525.5" x2="650.5" y1="770" y2="770"/><text fill="#000000" font-family="sans-serif" font-size="11" lengthAdjust="spacing" textLength="115" x="530.5" y="784.2104">+getClientByEmail()</text><!--MD5=[ed6624c6556d5e7b1bd23032162d20b7]
class Client--><rect codeLine="38" fill="#FEFECE" filter="url(#f1e0fvyghmf48g)" height="150.4375" id="Client" style="stroke:#A80036;stroke-width:1.5;" width="106" x="157" y="900"/><ellipse cx="190.45" cy="916" fill="#ADD1B2" rx="11" ry="11" style="stroke:#A80036;stroke-width:1.0;"/><path d="M192.7938,911.6719 C191.8563,911.2344 191.2625,911.0938 190.3875,911.0938 C187.7625,911.0938 185.7625,913.1719 185.7625,915.8906 L185.7625,917.0156 C185.7625,919.5938 187.8719,921.4844 190.7625,921.4844 C191.9813,921.4844 193.1375,921.1875 193.8875,920.6406 C194.4656,920.2344 194.7938,919.7813 194.7938,919.3906 C194.7938,918.9375 194.4031,918.5469 193.9344,918.5469 C193.7156,918.5469 193.5125,918.625 193.325,918.8125 C192.8719,919.2969 192.8719,919.2969 192.6844,919.3906 C192.2625,919.6563 191.575,919.7813 190.8094,919.7813 C188.7625,919.7813 187.4656,918.6875 187.4656,916.9844 L187.4656,915.8906 C187.4656,914.1094 188.7156,912.7969 190.45,912.7969 C191.0281,912.7969 191.6375,912.9531 192.1063,913.2031 C192.5906,913.4844 192.7625,913.7031 192.8563,914.1094 C192.9188,914.5156 192.95,914.6406 193.0906,914.7656 C193.2313,914.9063 193.4656,915.0156 193.6844,915.0156 C193.95,915.0156 194.2156,914.875 194.3875,914.6563 C194.4969,914.5 194.5281,914.3125 194.5281,913.8906 L194.5281,912.4688 C194.5281,912.0313 194.5125,911.9063 194.4188,911.75 C194.2625,911.4844 193.9813,911.3438 193.6844,911.3438 C193.3875,911.3438 193.1844,911.4375 192.9656,911.75 L192.7938,911.6719 Z " fill="#000000"/><text fill="#000000" font-family="sans-serif" font-size="12" lengthAdjust="spacing" textLength="33" x="208.55" y="920.1543">Client</text><line style="stroke:#A80036;stroke-width:1.5;" x1="158" x2="262" y1="932" y2="932"/><text fill="#000000" font-family="sans-serif" font-size="11" lengthAdjust="spacing" textLength="51" x="163" y="946.2104">-String id</text><text fill="#000000" font-family="sans-serif" font-size="11" lengthAdjust="spacing" textLength="74" x="163" y="959.0151">-String name</text><text fill="#000000" font-family="sans-serif" font-size="11" lengthAdjust="spacing" textLength="94" x="163" y="971.8198">-String password</text><text fill="#000000" font-family="sans-serif" font-size="11" lengthAdjust="spacing" textLength="73" x="163" y="984.6245">-String email</text><text fill="#000000" font-family="sans-serif" font-size="11" lengthAdjust="spacing" textLength="58" x="163" y="997.4292">-String NIF</text><text fill="#000000" font-family="sans-serif" font-size="11" lengthAdjust="spacing" textLength="68" x="163" y="1010.2339">-String IBAN</text><text fill="#000000" font-family="sans-serif" font-size="11" lengthAdjust="spacing" textLength="85" x="163" y="1023.0386">-double credits</text><text fill="#000000" font-family="sans-serif" font-size="11" lengthAdjust="spacing" textLength="92" x="163" y="1035.8433">-Adress address</text><line style="stroke:#A80036;stroke-width:1.5;" x1="158" x2="262" y1="1042.4375" y2="1042.4375"/><!--MD5=[894442645724153f40a9f7a43026dbfc]
class Invoice--><rect codeLine="106" fill="#FEFECE" filter="url(#f1e0fvyghmf48g)" height="86.4141" id="Invoice" style="stroke:#A80036;stroke-width:1.5;" width="75" x="32.5" y="717.5"/><ellipse cx="47.5" cy="733.5" fill="#ADD1B2" rx="11" ry="11" style="stroke:#A80036;stroke-width:1.0;"/><path d="M49.8438,729.1719 C48.9063,728.7344 48.3125,728.5938 47.4375,728.5938 C44.8125,728.5938 42.8125,730.6719 42.8125,733.3906 L42.8125,734.5156 C42.8125,737.0938 44.9219,738.9844 47.8125,738.9844 C49.0313,738.9844 50.1875,738.6875 50.9375,738.1406 C51.5156,737.7344 51.8438,737.2813 51.8438,736.8906 C51.8438,736.4375 51.4531,736.0469 50.9844,736.0469 C50.7656,736.0469 50.5625,736.125 50.375,736.3125 C49.9219,736.7969 49.9219,736.7969 49.7344,736.8906 C49.3125,737.1563 48.625,737.2813 47.8594,737.2813 C45.8125,737.2813 44.5156,736.1875 44.5156,734.4844 L44.5156,733.3906 C44.5156,731.6094 45.7656,730.2969 47.5,730.2969 C48.0781,730.2969 48.6875,730.4531 49.1563,730.7031 C49.6406,730.9844 49.8125,731.2031 49.9063,731.6094 C49.9688,732.0156 50,732.1406 50.1406,732.2656 C50.2813,732.4063 50.5156,732.5156 50.7344,732.5156 C51,732.5156 51.2656,732.375 51.4375,732.1563 C51.5469,732 51.5781,731.8125 51.5781,731.3906 L51.5781,729.9688 C51.5781,729.5313 51.5625,729.4063 51.4688,729.25 C51.3125,728.9844 51.0313,728.8438 50.7344,728.8438 C50.4375,728.8438 50.2344,728.9375 50.0156,729.25 L49.8438,729.1719 Z " fill="#000000"/><text fill="#000000" font-family="sans-serif" font-size="12" lengthAdjust="spacing" textLength="43" x="61.5" y="737.6543">Invoice</text><line style="stroke:#A80036;stroke-width:1.5;" x1="33.5" x2="106.5" y1="749.5" y2="749.5"/><text fill="#000000" font-family="sans-serif" font-size="11" lengthAdjust="spacing" textLength="51" x="38.5" y="763.7104">-String id</text><text fill="#000000" font-family="sans-serif" font-size="11" lengthAdjust="spacing" textLength="62" x="38.5" y="776.5151">-Date date</text><text fill="#000000" font-family="sans-serif" font-size="11" lengthAdjust="spacing" textLength="61" x="38.5" y="789.3198">-float price</text><line style="stroke:#A80036;stroke-width:1.5;" x1="33.5" x2="106.5" y1="795.9141" y2="795.9141"/><!--MD5=[fff5db4abcb6eec6574b9ea9c3ee0eae]
class Delivery--><rect codeLine="112" fill="#FEFECE" filter="url(#f1e0fvyghmf48g)" height="86.4141" id="Delivery" style="stroke:#A80036;stroke-width:1.5;" width="110" x="91" y="535"/><ellipse cx="118.6" cy="551" fill="#ADD1B2" rx="11" ry="11" style="stroke:#A80036;stroke-width:1.0;"/><path d="M120.9438,546.6719 C120.0063,546.2344 119.4125,546.0938 118.5375,546.0938 C115.9125,546.0938 113.9125,548.1719 113.9125,550.8906 L113.9125,552.0156 C113.9125,554.5938 116.0219,556.4844 118.9125,556.4844 C120.1313,556.4844 121.2875,556.1875 122.0375,555.6406 C122.6156,555.2344 122.9438,554.7813 122.9438,554.3906 C122.9438,553.9375 122.5531,553.5469 122.0844,553.5469 C121.8656,553.5469 121.6625,553.625 121.475,553.8125 C121.0219,554.2969 121.0219,554.2969 120.8344,554.3906 C120.4125,554.6563 119.725,554.7813 118.9594,554.7813 C116.9125,554.7813 115.6156,553.6875 115.6156,551.9844 L115.6156,550.8906 C115.6156,549.1094 116.8656,547.7969 118.6,547.7969 C119.1781,547.7969 119.7875,547.9531 120.2563,548.2031 C120.7406,548.4844 120.9125,548.7031 121.0063,549.1094 C121.0688,549.5156 121.1,549.6406 121.2406,549.7656 C121.3813,549.9063 121.6156,550.0156 121.8344,550.0156 C122.1,550.0156 122.3656,549.875 122.5375,549.6563 C122.6469,549.5 122.6781,549.3125 122.6781,548.8906 L122.6781,547.4688 C122.6781,547.0313 122.6625,546.9063 122.5688,546.75 C122.4125,546.4844 122.1313,546.3438 121.8344,546.3438 C121.5375,546.3438 121.3344,546.4375 121.1156,546.75 L120.9438,546.6719 Z " fill="#000000"/><text fill="#000000" font-family="sans-serif" font-size="12" lengthAdjust="spacing" textLength="50" x="135.4" y="555.1543">Delivery</text><line style="stroke:#A80036;stroke-width:1.5;" x1="92" x2="200" y1="567" y2="567"/><text fill="#000000" font-family="sans-serif" font-size="11" lengthAdjust="spacing" textLength="51" x="97" y="581.2104">-String id</text><text fill="#000000" font-family="sans-serif" font-size="11" lengthAdjust="spacing" textLength="62" x="97" y="594.0151">-Date date</text><text fill="#000000" font-family="sans-serif" font-size="11" lengthAdjust="spacing" textLength="98" x="97" y="606.8198">-float totalWeight</text><line style="stroke:#A80036;stroke-width:1.5;" x1="92" x2="200" y1="613.4141" y2="613.4141"/><!--MD5=[9e412867e2230207caa378eacef9b685]
class DeliveryList--><rect codeLine="27" fill="#FEFECE" filter="url(#f1e0fvyghmf48g)" height="124.8281" id="DeliveryList" style="stroke:#A80036;stroke-width:1.5;" width="140" x="143" y="698"/><ellipse cx="175.1" cy="714" fill="#ADD1B2" rx="11" ry="11" style="stroke:#A80036;stroke-width:1.0;"/><path d="M177.4438,709.6719 C176.5063,709.2344 175.9125,709.0938 175.0375,709.0938 C172.4125,709.0938 170.4125,711.1719 170.4125,713.8906 L170.4125,715.0156 C170.4125,717.5938 172.5219,719.4844 175.4125,719.4844 C176.6313,719.4844 177.7875,719.1875 178.5375,718.6406 C179.1156,718.2344 179.4438,717.7813 179.4438,717.3906 C179.4438,716.9375 179.0531,716.5469 178.5844,716.5469 C178.3656,716.5469 178.1625,716.625 177.975,716.8125 C177.5219,717.2969 177.5219,717.2969 177.3344,717.3906 C176.9125,717.6563 176.225,717.7813 175.4594,717.7813 C173.4125,717.7813 172.1156,716.6875 172.1156,714.9844 L172.1156,713.8906 C172.1156,712.1094 173.3656,710.7969 175.1,710.7969 C175.6781,710.7969 176.2875,710.9531 176.7563,711.2031 C177.2406,711.4844 177.4125,711.7031 177.5063,712.1094 C177.5688,712.5156 177.6,712.6406 177.7406,712.7656 C177.8813,712.9063 178.1156,713.0156 178.3344,713.0156 C178.6,713.0156 178.8656,712.875 179.0375,712.6563 C179.1469,712.5 179.1781,712.3125 179.1781,711.8906 L179.1781,710.4688 C179.1781,710.0313 179.1625,709.9063 179.0688,709.75 C178.9125,709.4844 178.6313,709.3438 178.3344,709.3438 C178.0375,709.3438 177.8344,709.4375 177.6156,709.75 L177.4438,709.6719 Z " fill="#000000"/><text fill="#000000" font-family="sans-serif" font-size="12" lengthAdjust="spacing" textLength="70" x="192.9" y="718.1543">DeliveryList</text><line style="stroke:#A80036;stroke-width:1.5;" x1="144" x2="282" y1="730" y2="730"/><line style="stroke:#A80036;stroke-width:1.5;" x1="144" x2="282" y1="738" y2="738"/><text fill="#000000" font-family="sans-serif" font-size="11" lengthAdjust="spacing" textLength="90" x="149" y="752.2104">+newDelivery()</text><text fill="#000000" font-family="sans-serif" font-size="11" lengthAdjust="spacing" textLength="128" x="149" y="765.0151">+registerDelivery(del)</text><text fill="#000000" font-family="sans-serif" font-size="11" lengthAdjust="spacing" textLength="80" x="149" y="777.8198">+generateId()</text><text fill="#000000" font-family="sans-serif" font-size="11" lengthAdjust="spacing" textLength="64" x="149" y="790.6245">+getDate()</text><text fill="#000000" font-family="sans-serif" font-size="11" lengthAdjust="spacing" textLength="79" x="149" y="803.4292">+calcWeight()</text><text fill="#000000" font-family="sans-serif" font-size="11" lengthAdjust="spacing" textLength="105" x="149" y="816.2339">+addDelivery(del)</text><!--MD5=[7242fb6db1977c86abfde97f79f90d47]
link BuyAProductUI to BuyAProductController--><path codeLine="118" d="M517,89.05 C517,108.08 517,136.84 517,167.41 " fill="none" id="BuyAProductUI-to-BuyAProductController" style="stroke:#A80036;stroke-width:1.0;stroke-dasharray:7.0,7.0;"/><polygon fill="#A80036" points="517,172.74,521,163.74,517,167.74,513,163.74,517,172.74" style="stroke:#A80036;stroke-width:1.0;"/><!--MD5=[1640679de5121f8a4678ca82d50045a2]
link BuyAProductController to Platform--><path codeLine="120" d="M455.759,451.185 C443.112,479.721 430.637,507.87 420.704,530.283 " fill="none" id="BuyAProductController-to-Platform" style="stroke:#A80036;stroke-width:1.0;stroke-dasharray:7.0,7.0;"/><polygon fill="#A80036" points="418.624,534.977,425.9272,528.3692,420.6497,530.4057,418.6131,525.1281,418.624,534.977" style="stroke:#A80036;stroke-width:1.0;"/><!--MD5=[5dd6367b4ff97805334df4335001b46b]
link BuyAProductController to PharmacyList--><path codeLine="121" d="M513.061,451.18 C508.501,505.179 499.484,566.983 482,621 C469.658,659.13 446.216,698.572 428.241,725.565 " fill="none" id="BuyAProductController-to-PharmacyList" style="stroke:#A80036;stroke-width:1.0;stroke-dasharray:7.0,7.0;"/><polygon fill="#A80036" points="425.405,729.788,433.7426,724.5454,428.192,725.6368,427.1006,720.0862,425.405,729.788" style="stroke:#A80036;stroke-width:1.0;"/><!--MD5=[e924296dfa741f01004a0e89d4468287]
link BuyAProductController to ClientRegister--><path codeLine="123" d="M538.979,451.218 C554.159,546.686 573.219,666.544 582.463,724.679 " fill="none" id="BuyAProductController-to-ClientRegister" style="stroke:#A80036;stroke-width:1.0;stroke-dasharray:7.0,7.0;"/><polygon fill="#A80036" points="583.273,729.771,585.8119,720.255,582.4888,724.8329,577.9109,721.5098,583.273,729.771" style="stroke:#A80036;stroke-width:1.0;"/><!--MD5=[9d300a128616d978fad49290fd17a35f]
link Platform to ClientRegister--><path codeLine="124" d="M444.078,621.319 C477.45,653.361 522.65,696.757 553.433,726.312 " fill="none" id="Platform-to-ClientRegister" style="stroke:#A80036;stroke-width:1.0;"/><polygon fill="#A80036" points="557.114,729.846,553.3916,720.7277,553.5071,726.3833,547.8514,726.4988,557.114,729.846" style="stroke:#A80036;stroke-width:1.0;"/><!--MD5=[dcb9e7f24fda9389b72d4bf35ba5a068]
link PharmacyList to Pharmacy--><path codeLine="126" d="M404,791.047 C404,822.295 404,872.494 404,912.411 " fill="none" id="PharmacyList-Pharmacy" style="stroke:#A80036;stroke-width:1.0;"/><polygon fill="#000000" points="409,866.5664,411.9389,857.5213,406.0611,857.5213,409,866.5664" style="stroke:#000000;stroke-width:1.0;"/><text fill="#000000" font-family="sans-serif" font-size="13" lengthAdjust="spacing" textLength="23" x="418" y="866.0669">has</text><text fill="#000000" font-family="sans-serif" font-size="13" lengthAdjust="spacing" textLength="8" x="395.175" y="810.9949">1</text><text fill="#000000" font-family="sans-serif" font-size="13" lengthAdjust="spacing" textLength="23" x="379.6703" y="901.3915">1..*</text><!--MD5=[da7a88b3261d7b5c096a3d384c8541e6]
link ProductList to Product--><path codeLine="127" d="M404,1188.019 C404,1209.715 404,1239.681 404,1264.888 " fill="none" id="ProductList-Product" style="stroke:#A80036;stroke-width:1.0;"/><polygon fill="#000000" points="409,1231.5664,411.9389,1222.5213,406.0611,1222.5213,409,1231.5664" style="stroke:#000000;stroke-width:1.0;"/><text fill="#000000" font-family="sans-serif" font-size="13" lengthAdjust="spacing" textLength="23" x="418" y="1231.0669">has</text><text fill="#000000" font-family="sans-serif" font-size="13" lengthAdjust="spacing" textLength="8" x="395.175" y="1207.9612">1</text><text fill="#000000" font-family="sans-serif" font-size="13" lengthAdjust="spacing" textLength="23" x="379.3828" y="1253.9175">1..*</text><!--MD5=[92b8f75a2639539bed747d3dbb9f2876]
link Pharmacy to ProductList--><path codeLine="128" d="M404,1037.613 C404,1067.639 404,1102.382 404,1126.525 " fill="none" id="Pharmacy-ProductList" style="stroke:#A80036;stroke-width:1.0;"/><text fill="#000000" font-family="sans-serif" font-size="13" lengthAdjust="spacing" textLength="33" x="405" y="1093.0669">has&gt;</text><text fill="#000000" font-family="sans-serif" font-size="13" lengthAdjust="spacing" textLength="8" x="395.5625" y="1057.3652">1</text><text fill="#000000" font-family="sans-serif" font-size="13" lengthAdjust="spacing" textLength="8" x="395.2125" y="1116.0494">1</text><!--MD5=[49041f85611d143f41c27ae4156e71ae]
link ClientRegister to Client--><path codeLine="129" d="M558.283,791.125 C531.959,815.737 491.383,849.869 450,870 C399.4,894.615 378.792,878.005 327,900 C304.988,909.348 282.413,922.608 263.037,935.327 " fill="none" id="ClientRegister-Client" style="stroke:#A80036;stroke-width:1.0;"/><polygon fill="#000000" points="479.5072,863.7607,488.9245,862.4319,486.3449,857.1504,479.5072,863.7607" style="stroke:#000000;stroke-width:1.0;"/><text fill="#000000" font-family="sans-serif" font-size="13" lengthAdjust="spacing" textLength="23" x="493" y="866.0669">has</text><text fill="#000000" font-family="sans-serif" font-size="13" lengthAdjust="spacing" textLength="8" x="543.3289" y="811.089">1</text><text fill="#000000" font-family="sans-serif" font-size="13" lengthAdjust="spacing" textLength="23" x="270.9024" y="926.6261">1..*</text><!--MD5=[d526f5d30672b9ad1f9eb1a68f9d4e48]
link Invoice to Client--><path codeLine="131" d="M97.8269,803.737 C115.849,831.092 139.816,867.471 160.97,899.579 " fill="none" id="Invoice-Client" style="stroke:#A80036;stroke-width:1.0;"/><polygon fill="#000000" points="147.7508,865.7417,145.2287,856.5716,140.3204,859.8054,147.7508,865.7417" style="stroke:#000000;stroke-width:1.0;"/><text fill="#000000" font-family="sans-serif" font-size="13" lengthAdjust="spacing" textLength="69" x="154" y="866.0669">references</text><text fill="#000000" font-family="sans-serif" font-size="13" lengthAdjust="spacing" textLength="23" x="77.429" y="823.8677">1..*</text><text fill="#000000" font-family="sans-serif" font-size="13" lengthAdjust="spacing" textLength="8" x="148.0813" y="888.9876">1</text><!--MD5=[bab10b5ff8ad0ec9f872ee4edc1fdb82]
link Delivery to Invoice--><path codeLine="133" d="M100.947,621.249 C93.4992,630.365 86.6886,640.456 82,651 C72.837,671.607 69.5998,696.501 68.7591,717.243 " fill="none" id="Delivery-Invoice" style="stroke:#A80036;stroke-width:1.0;"/><polygon fill="#000000" points="85.4104,664.307,91.0724,656.6655,85.4995,654.7969,85.4104,664.307" style="stroke:#000000;stroke-width:1.0;"/><text fill="#000000" font-family="sans-serif" font-size="13" lengthAdjust="spacing" textLength="69" x="96" y="664.0669">references</text><text fill="#000000" font-family="sans-serif" font-size="13" lengthAdjust="spacing" textLength="8" x="85.1294" y="641.3816">1</text><text fill="#000000" font-family="sans-serif" font-size="13" lengthAdjust="spacing" textLength="8" x="59.9566" y="706.5162">1</text><!--MD5=[d2e301b8fbf5936df5ac6ebd81df445e]
link Delivery to DeliveryList--><path codeLine="135" d="M161.709,621.319 C170.179,644.139 180.787,672.718 190.155,697.955 " fill="none" id="Delivery-DeliveryList" style="stroke:#A80036;stroke-width:1.0;"/><polygon fill="#000000" points="181.2601,654.8789,181.6524,664.3814,187.1629,662.336,181.2601,654.8789" style="stroke:#000000;stroke-width:1.0;"/><text fill="#000000" font-family="sans-serif" font-size="13" lengthAdjust="spacing" textLength="23" x="192" y="664.0669">has</text><text fill="#000000" font-family="sans-serif" font-size="13" lengthAdjust="spacing" textLength="23" x="139.3798" y="641.4628">0..*</text><text fill="#000000" font-family="sans-serif" font-size="13" lengthAdjust="spacing" textLength="8" x="179.051" y="686.9406">1</text><!--MD5=[a76c448d92b8dbae0e8ec0020c1eab0d]
link Platform to DeliveryList--><path codeLine="137" d="M356.157,621.319 C332.515,644.139 302.907,672.718 276.761,697.955 " fill="none" id="Platform-DeliveryList" style="stroke:#A80036;stroke-width:1.0;"/><polygon fill="#000000" points="325.4025,663.0389,333.9515,658.8717,329.8694,654.6426,325.4025,663.0389" style="stroke:#000000;stroke-width:1.0;"/><text fill="#000000" font-family="sans-serif" font-size="13" lengthAdjust="spacing" textLength="23" x="338" y="664.0669">has</text><text fill="#000000" font-family="sans-serif" font-size="13" lengthAdjust="spacing" textLength="8" x="340.532" y="641.4628">1</text><text fill="#000000" font-family="sans-serif" font-size="13" lengthAdjust="spacing" textLength="8" x="275.6709" y="686.9406">1</text><!--MD5=[2bc5a413d94b08902b9f3d0151eb30f1]
link Platform to PharmacyList--><path codeLine="139" d="M400.938,621.319 C401.677,654.663 402.688,700.304 403.343,729.846 " fill="none" id="Platform-PharmacyList" style="stroke:#A80036;stroke-width:1.0;"/><polygon fill="#000000" points="407.1108,664.5652,409.8486,655.4572,403.9722,655.5874,407.1108,664.5652" style="stroke:#000000;stroke-width:1.0;"/><text fill="#000000" font-family="sans-serif" font-size="13" lengthAdjust="spacing" textLength="23" x="416" y="664.0669">has</text><text fill="#000000" font-family="sans-serif" font-size="13" lengthAdjust="spacing" textLength="8" x="392.45" y="641.4628">1</text><text fill="#000000" font-family="sans-serif" font-size="13" lengthAdjust="spacing" textLength="8" x="394.3825" y="719.0775">1</text><!--MD5=[657e6588db51dba0cb6dbc5c4b536d37]
@startuml
skinparam classAttributeIconSize 0

package UI <<Folder>> {
  class BuyAProductUI
}

package Controllers <<Folder>> {
  class BuyAProductController
}

package Domain <<Folder>> {
  class Platform
  class Product
  class PharmacyList
  class Pharmacy
  class ProductList
  class ClientRegister
  class Client
  class Invoice
  class Delivery
  class DeliveryList
}

class BuyAProductUI {
}

class DeliveryList{
  +newDelivery()
  +registerDelivery(del)
  +generateId()
  +getDate()
  +calcWeight()
  +addDelivery(del)


}

class Client{
-String id
-String name
-String password
-String email
-String NIF
-String IBAN
-double credits
-Adress address

}
class BuyAProductController {
  +getPharmacyList()
  +getPharmacy(pharmacyID)
  +getProductList()
  +getProduct(productID)
  +preencherMapa(pr,quantity)
  +updateStock()
  +getClient()
  +newInvoice(mp)
  +generateId()
  +getDate()
  +calcPrice()
  +newDelivery()
  +calcCredits(inv)
  +verifyCredits(inv)
  +addCredits(credits)
  +buyWithCredits(inv)
  +registerDelivery()
  +sendEmail(inv,p)
}

class Platform {
  +getPharmacyList()
  +getClientRegister()
  +getDeliveryList()
}

class ClientRegister {
  +getClientByEmail()

}

class Product {
  -String id
  -String nome
  -float price
  -float weight
}


class Pharmacy {
  -String id
  -String designation
  -String email
  -Adress adress
  -Integer parkLimit
  +getProductList()
}

class PharmacyList{
  +getPharmacy(pharmacyID)
}

class ProductList{
  +getProduct(productID)
}

class Invoice{
  -String id
  -Date date
  -float price
}

class Delivery{
  -String id
  -Date date
  -float totalWeight

}
BuyAProductUI ..> BuyAProductController

BuyAProductController ..> Platform
BuyAProductController ..> PharmacyList

BuyAProductController ..> ClientRegister
Platform - -> ClientRegister

PharmacyList"1" - - "1..*" Pharmacy : has >
ProductList"1" - - "1..*" Product : has >
Pharmacy"1" - - "1" ProductList : has>
ClientRegister"1" - - "1..*" Client : has >

Invoice"1..*"- - "1" Client : references >

Delivery"1"- -"1" Invoice : references >

Delivery"0..*"- -"1" DeliveryList : has <

Platform"1"- -"1" DeliveryList : has >

Platform"1"- -"1" PharmacyList : has >
@enduml

PlantUML version 1.2020.27beta8(Unknown compile time)
(GPL source distribution)
Java Runtime: Java(TM) SE Runtime Environment
JVM: Java HotSpot(TM) 64-Bit Server VM
Default Encoding: UTF-8
Language: en
Country: US
--></g></svg>