<?xml version="1.0" encoding="UTF-8" standalone="no"?><svg xmlns="http://www.w3.org/2000/svg" xmlns:xlink="http://www.w3.org/1999/xlink" contentScriptType="application/ecmascript" contentStyleType="text/css" height="385px" preserveAspectRatio="none" style="width:938px;height:385px;" version="1.1" viewBox="0 0 938 385" width="938px" zoomAndPan="magnify"><defs><filter height="300%" id="f1axsl72d7yza0" width="300%" x="-1" y="-1"><feGaussianBlur result="blurOut" stdDeviation="2.0"/><feColorMatrix in="blurOut" result="blurOut2" type="matrix" values="0 0 0 0 0 0 0 0 0 0 0 0 0 0 0 0 0 0 .4 0"/><feOffset dx="4.0" dy="4.0" in="blurOut2" result="blurOut3"/><feBlend in="SourceGraphic" in2="blurOut3" mode="normal"/></filter></defs><g><!--MD5=[ed6624c6556d5e7b1bd23032162d20b7]
class Client--><rect codeLine="5" fill="#FEFECE" filter="url(#f1axsl72d7yza0)" height="180.8516" id="Client" style="stroke:#A80036;stroke-width:1.5;" width="155" x="365" y="7"/><ellipse cx="421.75" cy="23" fill="#ADD1B2" rx="11" ry="11" style="stroke:#A80036;stroke-width:1.0;"/><path d="M424.0938,18.6719 C423.1563,18.2344 422.5625,18.0938 421.6875,18.0938 C419.0625,18.0938 417.0625,20.1719 417.0625,22.8906 L417.0625,24.0156 C417.0625,26.5938 419.1719,28.4844 422.0625,28.4844 C423.2813,28.4844 424.4375,28.1875 425.1875,27.6406 C425.7656,27.2344 426.0938,26.7813 426.0938,26.3906 C426.0938,25.9375 425.7031,25.5469 425.2344,25.5469 C425.0156,25.5469 424.8125,25.625 424.625,25.8125 C424.1719,26.2969 424.1719,26.2969 423.9844,26.3906 C423.5625,26.6563 422.875,26.7813 422.1094,26.7813 C420.0625,26.7813 418.7656,25.6875 418.7656,23.9844 L418.7656,22.8906 C418.7656,21.1094 420.0156,19.7969 421.75,19.7969 C422.3281,19.7969 422.9375,19.9531 423.4063,20.2031 C423.8906,20.4844 424.0625,20.7031 424.1563,21.1094 C424.2188,21.5156 424.25,21.6406 424.3906,21.7656 C424.5313,21.9063 424.7656,22.0156 424.9844,22.0156 C425.25,22.0156 425.5156,21.875 425.6875,21.6563 C425.7969,21.5 425.8281,21.3125 425.8281,20.8906 L425.8281,19.4688 C425.8281,19.0313 425.8125,18.9063 425.7188,18.75 C425.5625,18.4844 425.2813,18.3438 424.9844,18.3438 C424.6875,18.3438 424.4844,18.4375 424.2656,18.75 L424.0938,18.6719 Z " fill="#000000"/><text fill="#000000" font-family="sans-serif" font-size="12" lengthAdjust="spacing" textLength="33" x="442.25" y="27.1543">Client</text><line style="stroke:#A80036;stroke-width:1.5;" x1="366" x2="519" y1="39" y2="39"/><text fill="#000000" font-family="sans-serif" font-size="11" lengthAdjust="spacing" textLength="51" x="371" y="53.2104">-String id</text><text fill="#000000" font-family="sans-serif" font-size="11" lengthAdjust="spacing" textLength="74" x="371" y="66.0151">-String name</text><text fill="#000000" font-family="sans-serif" font-size="11" lengthAdjust="spacing" textLength="94" x="371" y="78.8198">-String password</text><text fill="#000000" font-family="sans-serif" font-size="11" lengthAdjust="spacing" textLength="73" x="371" y="91.6245">-String email</text><text fill="#000000" font-family="sans-serif" font-size="11" lengthAdjust="spacing" textLength="66" x="371" y="104.4292">-Integer NIF</text><text fill="#000000" font-family="sans-serif" font-size="11" lengthAdjust="spacing" textLength="75" x="371" y="117.2339">-String street</text><text fill="#000000" font-family="sans-serif" font-size="11" lengthAdjust="spacing" textLength="105" x="371" y="130.0386">-String postalCode</text><text fill="#000000" font-family="sans-serif" font-size="11" lengthAdjust="spacing" textLength="81" x="371" y="142.8433">-String locality</text><text fill="#000000" font-family="sans-serif" font-size="11" lengthAdjust="spacing" textLength="143" x="371" y="155.6479">-double decimalDegree1</text><text fill="#000000" font-family="sans-serif" font-size="11" lengthAdjust="spacing" textLength="143" x="371" y="168.4526">-double decimalDegree2</text><text fill="#000000" font-family="sans-serif" font-size="11" lengthAdjust="spacing" textLength="85" x="371" y="181.2573">-double credits</text><!--MD5=[99b8db98afdc2c8404e39242ef4c1e65]
class Platform--><rect codeLine="19" fill="#FEFECE" filter="url(#f1axsl72d7yza0)" height="40" id="Platform" style="stroke:#A80036;stroke-width:1.5;" width="80" x="7" y="122.5"/><ellipse cx="22" cy="138.5" fill="#ADD1B2" rx="11" ry="11" style="stroke:#A80036;stroke-width:1.0;"/><path d="M24.3438,134.1719 C23.4063,133.7344 22.8125,133.5938 21.9375,133.5938 C19.3125,133.5938 17.3125,135.6719 17.3125,138.3906 L17.3125,139.5156 C17.3125,142.0938 19.4219,143.9844 22.3125,143.9844 C23.5313,143.9844 24.6875,143.6875 25.4375,143.1406 C26.0156,142.7344 26.3438,142.2813 26.3438,141.8906 C26.3438,141.4375 25.9531,141.0469 25.4844,141.0469 C25.2656,141.0469 25.0625,141.125 24.875,141.3125 C24.4219,141.7969 24.4219,141.7969 24.2344,141.8906 C23.8125,142.1563 23.125,142.2813 22.3594,142.2813 C20.3125,142.2813 19.0156,141.1875 19.0156,139.4844 L19.0156,138.3906 C19.0156,136.6094 20.2656,135.2969 22,135.2969 C22.5781,135.2969 23.1875,135.4531 23.6563,135.7031 C24.1406,135.9844 24.3125,136.2031 24.4063,136.6094 C24.4688,137.0156 24.5,137.1406 24.6406,137.2656 C24.7813,137.4063 25.0156,137.5156 25.2344,137.5156 C25.5,137.5156 25.7656,137.375 25.9375,137.1563 C26.0469,137 26.0781,136.8125 26.0781,136.3906 L26.0781,134.9688 C26.0781,134.5313 26.0625,134.4063 25.9688,134.25 C25.8125,133.9844 25.5313,133.8438 25.2344,133.8438 C24.9375,133.8438 24.7344,133.9375 24.5156,134.25 L24.3438,134.1719 Z " fill="#000000"/><text fill="#000000" font-family="sans-serif" font-size="12" lengthAdjust="spacing" textLength="48" x="36" y="142.6543">Platform</text><line style="stroke:#A80036;stroke-width:1.5;" x1="8" x2="86" y1="154.5" y2="154.5"/><!--MD5=[72136138052d025cffdce3c22fbd185f]
class Product--><rect codeLine="22" fill="#FEFECE" filter="url(#f1axsl72d7yza0)" height="91.2188" id="Product" style="stroke:#A80036;stroke-width:1.5;" width="86" x="569" y="167"/><ellipse cx="588.05" cy="183" fill="#ADD1B2" rx="11" ry="11" style="stroke:#A80036;stroke-width:1.0;"/><path d="M590.3938,178.6719 C589.4563,178.2344 588.8625,178.0938 587.9875,178.0938 C585.3625,178.0938 583.3625,180.1719 583.3625,182.8906 L583.3625,184.0156 C583.3625,186.5938 585.4719,188.4844 588.3625,188.4844 C589.5813,188.4844 590.7375,188.1875 591.4875,187.6406 C592.0656,187.2344 592.3938,186.7813 592.3938,186.3906 C592.3938,185.9375 592.0031,185.5469 591.5344,185.5469 C591.3156,185.5469 591.1125,185.625 590.925,185.8125 C590.4719,186.2969 590.4719,186.2969 590.2844,186.3906 C589.8625,186.6563 589.175,186.7813 588.4094,186.7813 C586.3625,186.7813 585.0656,185.6875 585.0656,183.9844 L585.0656,182.8906 C585.0656,181.1094 586.3156,179.7969 588.05,179.7969 C588.6281,179.7969 589.2375,179.9531 589.7063,180.2031 C590.1906,180.4844 590.3625,180.7031 590.4563,181.1094 C590.5188,181.5156 590.55,181.6406 590.6906,181.7656 C590.8313,181.9063 591.0656,182.0156 591.2844,182.0156 C591.55,182.0156 591.8156,181.875 591.9875,181.6563 C592.0969,181.5 592.1281,181.3125 592.1281,180.8906 L592.1281,179.4688 C592.1281,179.0313 592.1125,178.9063 592.0188,178.75 C591.8625,178.4844 591.5813,178.3438 591.2844,178.3438 C590.9875,178.3438 590.7844,178.4375 590.5656,178.75 L590.3938,178.6719 Z " fill="#000000"/><text fill="#000000" font-family="sans-serif" font-size="12" lengthAdjust="spacing" textLength="45" x="602.95" y="187.1543">Product</text><line style="stroke:#A80036;stroke-width:1.5;" x1="570" x2="654" y1="199" y2="199"/><text fill="#000000" font-family="sans-serif" font-size="11" lengthAdjust="spacing" textLength="51" x="575" y="213.2104">-String id</text><text fill="#000000" font-family="sans-serif" font-size="11" lengthAdjust="spacing" textLength="74" x="575" y="226.0151">-String nome</text><text fill="#000000" font-family="sans-serif" font-size="11" lengthAdjust="spacing" textLength="61" x="575" y="238.8198">-float price</text><text fill="#000000" font-family="sans-serif" font-size="11" lengthAdjust="spacing" textLength="71" x="575" y="251.6245">-float weight</text><!--MD5=[894442645724153f40a9f7a43026dbfc]
class Invoice--><rect codeLine="29" fill="#FEFECE" filter="url(#f1axsl72d7yza0)" height="78.4141" id="Invoice" style="stroke:#A80036;stroke-width:1.5;" width="121" x="803" y="173.5"/><ellipse cx="838.7" cy="189.5" fill="#ADD1B2" rx="11" ry="11" style="stroke:#A80036;stroke-width:1.0;"/><path d="M841.0438,185.1719 C840.1063,184.7344 839.5125,184.5938 838.6375,184.5938 C836.0125,184.5938 834.0125,186.6719 834.0125,189.3906 L834.0125,190.5156 C834.0125,193.0938 836.1219,194.9844 839.0125,194.9844 C840.2313,194.9844 841.3875,194.6875 842.1375,194.1406 C842.7156,193.7344 843.0438,193.2813 843.0438,192.8906 C843.0438,192.4375 842.6531,192.0469 842.1844,192.0469 C841.9656,192.0469 841.7625,192.125 841.575,192.3125 C841.1219,192.7969 841.1219,192.7969 840.9344,192.8906 C840.5125,193.1563 839.825,193.2813 839.0594,193.2813 C837.0125,193.2813 835.7156,192.1875 835.7156,190.4844 L835.7156,189.3906 C835.7156,187.6094 836.9656,186.2969 838.7,186.2969 C839.2781,186.2969 839.8875,186.4531 840.3563,186.7031 C840.8406,186.9844 841.0125,187.2031 841.1063,187.6094 C841.1688,188.0156 841.2,188.1406 841.3406,188.2656 C841.4813,188.4063 841.7156,188.5156 841.9344,188.5156 C842.2,188.5156 842.4656,188.375 842.6375,188.1563 C842.7469,188 842.7781,187.8125 842.7781,187.3906 L842.7781,185.9688 C842.7781,185.5313 842.7625,185.4063 842.6688,185.25 C842.5125,184.9844 842.2313,184.8438 841.9344,184.8438 C841.6375,184.8438 841.4344,184.9375 841.2156,185.25 L841.0438,185.1719 Z " fill="#000000"/><text fill="#000000" font-family="sans-serif" font-size="12" lengthAdjust="spacing" textLength="43" x="857.3" y="193.6543">Invoice</text><line style="stroke:#A80036;stroke-width:1.5;" x1="804" x2="923" y1="205.5" y2="205.5"/><text fill="#000000" font-family="sans-serif" font-size="11" lengthAdjust="spacing" textLength="51" x="809" y="219.7104">-String id</text><text fill="#000000" font-family="sans-serif" font-size="11" lengthAdjust="spacing" textLength="109" x="809" y="232.5151">-Date date_invoice</text><text fill="#000000" font-family="sans-serif" font-size="11" lengthAdjust="spacing" textLength="61" x="809" y="245.3198">-float price</text><!--MD5=[7f2a9fafcebe4f099f71398fd3e2ed00]
class Pharmacy--><rect codeLine="37" fill="#FEFECE" filter="url(#f1axsl72d7yza0)" height="78.4141" id="Pharmacy" style="stroke:#A80036;stroke-width:1.5;" width="119" x="216" y="161.5"/><ellipse cx="244.5" cy="177.5" fill="#ADD1B2" rx="11" ry="11" style="stroke:#A80036;stroke-width:1.0;"/><path d="M246.8438,173.1719 C245.9063,172.7344 245.3125,172.5938 244.4375,172.5938 C241.8125,172.5938 239.8125,174.6719 239.8125,177.3906 L239.8125,178.5156 C239.8125,181.0938 241.9219,182.9844 244.8125,182.9844 C246.0313,182.9844 247.1875,182.6875 247.9375,182.1406 C248.5156,181.7344 248.8438,181.2813 248.8438,180.8906 C248.8438,180.4375 248.4531,180.0469 247.9844,180.0469 C247.7656,180.0469 247.5625,180.125 247.375,180.3125 C246.9219,180.7969 246.9219,180.7969 246.7344,180.8906 C246.3125,181.1563 245.625,181.2813 244.8594,181.2813 C242.8125,181.2813 241.5156,180.1875 241.5156,178.4844 L241.5156,177.3906 C241.5156,175.6094 242.7656,174.2969 244.5,174.2969 C245.0781,174.2969 245.6875,174.4531 246.1563,174.7031 C246.6406,174.9844 246.8125,175.2031 246.9063,175.6094 C246.9688,176.0156 247,176.1406 247.1406,176.2656 C247.2813,176.4063 247.5156,176.5156 247.7344,176.5156 C248,176.5156 248.2656,176.375 248.4375,176.1563 C248.5469,176 248.5781,175.8125 248.5781,175.3906 L248.5781,173.9688 C248.5781,173.5313 248.5625,173.4063 248.4688,173.25 C248.3125,172.9844 248.0313,172.8438 247.7344,172.8438 C247.4375,172.8438 247.2344,172.9375 247.0156,173.25 L246.8438,173.1719 Z " fill="#000000"/><text fill="#000000" font-family="sans-serif" font-size="12" lengthAdjust="spacing" textLength="57" x="261.5" y="181.6543">Pharmacy</text><line style="stroke:#A80036;stroke-width:1.5;" x1="217" x2="334" y1="193.5" y2="193.5"/><text fill="#000000" font-family="sans-serif" font-size="11" lengthAdjust="spacing" textLength="51" x="222" y="207.7104">-String id</text><text fill="#000000" font-family="sans-serif" font-size="11" lengthAdjust="spacing" textLength="107" x="222" y="220.5151">-String designation</text><text fill="#000000" font-family="sans-serif" font-size="11" lengthAdjust="spacing" textLength="73" x="222" y="233.3198">-String email</text><!--MD5=[fff5db4abcb6eec6574b9ea9c3ee0eae]
class Delivery--><rect codeLine="43" fill="#FEFECE" filter="url(#f1axsl72d7yza0)" height="78.4141" id="Delivery" style="stroke:#A80036;stroke-width:1.5;" width="124" x="550" y="293.5"/><ellipse cx="583.9" cy="309.5" fill="#ADD1B2" rx="11" ry="11" style="stroke:#A80036;stroke-width:1.0;"/><path d="M586.2438,305.1719 C585.3063,304.7344 584.7125,304.5938 583.8375,304.5938 C581.2125,304.5938 579.2125,306.6719 579.2125,309.3906 L579.2125,310.5156 C579.2125,313.0938 581.3219,314.9844 584.2125,314.9844 C585.4313,314.9844 586.5875,314.6875 587.3375,314.1406 C587.9156,313.7344 588.2438,313.2813 588.2438,312.8906 C588.2438,312.4375 587.8531,312.0469 587.3844,312.0469 C587.1656,312.0469 586.9625,312.125 586.775,312.3125 C586.3219,312.7969 586.3219,312.7969 586.1344,312.8906 C585.7125,313.1563 585.025,313.2813 584.2594,313.2813 C582.2125,313.2813 580.9156,312.1875 580.9156,310.4844 L580.9156,309.3906 C580.9156,307.6094 582.1656,306.2969 583.9,306.2969 C584.4781,306.2969 585.0875,306.4531 585.5563,306.7031 C586.0406,306.9844 586.2125,307.2031 586.3063,307.6094 C586.3688,308.0156 586.4,308.1406 586.5406,308.2656 C586.6813,308.4063 586.9156,308.5156 587.1344,308.5156 C587.4,308.5156 587.6656,308.375 587.8375,308.1563 C587.9469,308 587.9781,307.8125 587.9781,307.3906 L587.9781,305.9688 C587.9781,305.5313 587.9625,305.4063 587.8688,305.25 C587.7125,304.9844 587.4313,304.8438 587.1344,304.8438 C586.8375,304.8438 586.6344,304.9375 586.4156,305.25 L586.2438,305.1719 Z " fill="#000000"/><text fill="#000000" font-family="sans-serif" font-size="12" lengthAdjust="spacing" textLength="50" x="602.1" y="313.6543">Delivery</text><line style="stroke:#A80036;stroke-width:1.5;" x1="551" x2="673" y1="325.5" y2="325.5"/><text fill="#000000" font-family="sans-serif" font-size="11" lengthAdjust="spacing" textLength="51" x="556" y="339.7104">-String id</text><text fill="#000000" font-family="sans-serif" font-size="11" lengthAdjust="spacing" textLength="107" x="556" y="352.5151">-Date dateDelivey</text><text fill="#000000" font-family="sans-serif" font-size="11" lengthAdjust="spacing" textLength="112" x="556" y="365.3198">-double totalWeight</text><!--MD5=[4a07f137c208f82f57837154e1cfa51e]
link Platform to Pharmacy--><path codeLine="52" d="M87.281,154.935 C96.9618,157.867 107.327,160.895 117,163.5 C149.546,172.266 186.187,180.943 215.933,187.69 " fill="none" id="Platform-Pharmacy" style="stroke:#A80036;stroke-width:1.0;"/><polygon fill="#000000" points="126.8454,156.3001,118.8051,151.2203,117.3548,156.9164,126.8454,156.3001" style="stroke:#000000;stroke-width:1.0;"/><text fill="#000000" font-family="sans-serif" font-size="13" lengthAdjust="spacing" textLength="54" x="131" y="159.5669">contains</text><text fill="#000000" font-family="sans-serif" font-size="13" lengthAdjust="spacing" textLength="8" x="94.8918" y="170.4396">1</text><text fill="#000000" font-family="sans-serif" font-size="13" lengthAdjust="spacing" textLength="23" x="185.16" y="199.1607">1..*</text><!--MD5=[737ca6dd1a667cd849e932d7cf955580]
link Pharmacy to Product--><path codeLine="54" d="M335.278,214.167 C345.15,215.969 355.328,217.526 365,218.5 C436.198,225.667 519.54,220.887 568.655,216.725 " fill="none" id="Pharmacy-Product" style="stroke:#A80036;stroke-width:1.0;"/><polygon fill="#000000" points="433.4997,210.1212,424.4874,207.0833,424.4229,212.9608,433.4997,210.1212" style="stroke:#000000;stroke-width:1.0;"/><text fill="#000000" font-family="sans-serif" font-size="13" lengthAdjust="spacing" textLength="23" x="437.5" y="214.5669">has</text><text fill="#000000" font-family="sans-serif" font-size="13" lengthAdjust="spacing" textLength="8" x="343.0509" y="228.7965">1</text><text fill="#000000" font-family="sans-serif" font-size="13" lengthAdjust="spacing" textLength="23" x="537.9424" y="230.4347">0..*</text><!--MD5=[6f4f5a959b7eecf0b4982552d890dec0]
link Platform to Client--><path codeLine="56" d="M87.1689,138.021 C151.709,130.64 281.534,115.793 364.841,106.267 " fill="none" id="Platform-Client" style="stroke:#A80036;stroke-width:1.0;"/><polygon fill="#000000" points="126.9676,118.4983,117.6472,116.6061,118.315,122.4459,126.9676,118.4983" style="stroke:#000000;stroke-width:1.0;"/><text fill="#000000" font-family="sans-serif" font-size="13" lengthAdjust="spacing" textLength="54" x="131" y="123.5669">contains</text><text fill="#000000" font-family="sans-serif" font-size="13" lengthAdjust="spacing" textLength="8" x="95.0365" y="150.6378">1</text><text fill="#000000" font-family="sans-serif" font-size="13" lengthAdjust="spacing" textLength="23" x="333.9003" y="119.7952">0..*</text><!--MD5=[4c559bd69cf03a5fb42ddf850315a670]
link Product to Invoice--><path codeLine="58" d="M655.042,212.5 C695.595,212.5 757.369,212.5 802.969,212.5 " fill="none" id="Product-Invoice" style="stroke:#A80036;stroke-width:1.0;"/><polygon fill="#000000" points="704,204.0664,713.0451,207.0053,713.0451,201.1275,704,204.0664" style="stroke:#000000;stroke-width:1.0;"/><text fill="#000000" font-family="sans-serif" font-size="13" lengthAdjust="spacing" textLength="54" x="718" y="208.5669">contains</text><text fill="#000000" font-family="sans-serif" font-size="13" lengthAdjust="spacing" textLength="23" x="663.0529" y="225.6621">0..*</text><text fill="#000000" font-family="sans-serif" font-size="13" lengthAdjust="spacing" textLength="23" x="772.0906" y="225.3718">0..*</text><!--MD5=[b25e04a5aed6ca08716b8f390ea19208]
link Client to Invoice--><path codeLine="60" d="M520.029,112.745 C565.123,122.23 623.128,135.299 674,149.5 C717.537,161.653 765.877,177.865 802.703,190.8 " fill="none" id="Client-Invoice" style="stroke:#A80036;stroke-width:1.0;"/><polygon fill="#000000" points="587.3196,112.3973,579.3831,107.1568,577.8186,112.8226,587.3196,112.3973" style="stroke:#000000;stroke-width:1.0;"/><text fill="#000000" font-family="sans-serif" font-size="13" lengthAdjust="spacing" textLength="54" x="591.5" y="115.5669">receives</text><text fill="#000000" font-family="sans-serif" font-size="13" lengthAdjust="spacing" textLength="8" x="528.0545" y="127.0647">1</text><text fill="#000000" font-family="sans-serif" font-size="13" lengthAdjust="spacing" textLength="23" x="771.7955" y="201.2984">0..*</text><!--MD5=[bab10b5ff8ad0ec9f872ee4edc1fdb82]
link Delivery to Invoice--><path codeLine="62" d="M674.035,303.1447 C713.275,284.2716 764.012,259.869 802.957,241.138 " fill="none" id="Delivery-Invoice" style="stroke:#A80036;stroke-width:1.0;"/><polygon fill="#000000" points="729.0059,246.8992,719.5808,248.1712,722.1285,253.4682,729.0059,246.8992" style="stroke:#000000;stroke-width:1.0;"/><text fill="#000000" font-family="sans-serif" font-size="13" lengthAdjust="spacing" textLength="23" x="733.5" y="253.5669">has</text><text fill="#000000" font-family="sans-serif" font-size="13" lengthAdjust="spacing" textLength="8" x="682.083" y="312.5308">1</text><text fill="#000000" font-family="sans-serif" font-size="13" lengthAdjust="spacing" textLength="8" x="787.0908" y="257.5921">1</text><!--MD5=[92cb1d2b91cc79ab6d323a67fb41cbc6]
@startuml
skinparam classAttributeIconSize 0
hide methods
left to right direction

class Client{
  -String id
  -String name
  -String password
  -String email
  -Integer NIF
  -String street
  -String postalCode
  -String locality
  -double decimalDegree1
  -double decimalDegree2
  -double credits

}
class Platform{
}

class Product{
  -String id
  -String nome
  -float price
  -float weight
}

class Invoice{
  -String id
  -Date date_invoice
  -float price


}

class Pharmacy {
  -String id
  -String designation
  -String email
}

class Delivery{
 -String id
 -Date dateDelivey
 -double totalWeight
 


}

Platform"1" - - "1..*"Pharmacy : contains >

Pharmacy"1" - - "0..*"Product : has >

Platform"1" - - "0..*"Client : contains >

Product"0..*" - - "0..*"Invoice : contains <

Client"1" - - "0..*"Invoice : receives >

Delivery"1" - - "1"Invoice : has >
@enduml

PlantUML version 1.2020.27beta8(Unknown compile time)
(GPL source distribution)
Java Runtime: Java(TM) SE Runtime Environment
JVM: Java HotSpot(TM) 64-Bit Server VM
Default Encoding: UTF-8
Language: en
Country: US
--></g></svg>