<?xml version="1.0" encoding="UTF-8" standalone="no"?><svg xmlns="http://www.w3.org/2000/svg" xmlns:xlink="http://www.w3.org/1999/xlink" contentScriptType="application/ecmascript" contentStyleType="text/css" height="405px" preserveAspectRatio="none" style="width:1163px;height:405px;background:#FFFFFF;" version="1.1" viewBox="0 0 1163 405" width="1163px" zoomAndPan="magnify"><defs><filter height="300%" id="f1ph4avyxzqicj" width="300%" x="-1" y="-1"><feGaussianBlur result="blurOut" stdDeviation="2.0"/><feColorMatrix in="blurOut" result="blurOut2" type="matrix" values="0 0 0 0 0 0 0 0 0 0 0 0 0 0 0 0 0 0 .4 0"/><feOffset dx="4.0" dy="4.0" in="blurOut2" result="blurOut3"/><feBlend in="SourceGraphic" in2="blurOut3" mode="normal"/></filter></defs><g><rect fill="#FFFFFF" filter="url(#f1ph4avyxzqicj)" height="201.9297" style="stroke:#A80036;stroke-width:1.0;" width="10" x="63" y="93.5938"/><rect fill="#FFFFFF" filter="url(#f1ph4avyxzqicj)" height="180.7969" style="stroke:#A80036;stroke-width:1.0;" width="10" x="402" y="114.7266"/><rect fill="#FFFFFF" filter="url(#f1ph4avyxzqicj)" height="29.1328" style="stroke:#A80036;stroke-width:1.0;" width="10" x="762" y="143.8594"/><rect fill="#FFFFFF" filter="url(#f1ph4avyxzqicj)" height="29.1328" style="stroke:#A80036;stroke-width:1.0;" width="10" x="928" y="172.9922"/><rect fill="#FFFFFF" filter="url(#f1ph4avyxzqicj)" height="58.2656" style="stroke:#A80036;stroke-width:1.0;" width="10" x="1085.5" y="202.125"/><line style="stroke:#A80036;stroke-width:1.0;stroke-dasharray:5.0,5.0;" x1="68" x2="68" y1="83.5938" y2="320.5234"/><line style="stroke:#A80036;stroke-width:1.0;stroke-dasharray:5.0,5.0;" x1="407" x2="407" y1="83.5938" y2="320.5234"/><line style="stroke:#A80036;stroke-width:1.0;stroke-dasharray:5.0,5.0;" x1="766.5" x2="766.5" y1="83.5938" y2="320.5234"/><line style="stroke:#A80036;stroke-width:1.0;stroke-dasharray:5.0,5.0;" x1="932.5" x2="932.5" y1="83.5938" y2="320.5234"/><line style="stroke:#A80036;stroke-width:1.0;stroke-dasharray:5.0,5.0;" x1="1090.5" x2="1090.5" y1="83.5938" y2="320.5234"/><rect fill="#FEFECE" filter="url(#f1ph4avyxzqicj)" height="46.5938" style="stroke:#A80036;stroke-width:1.5;" width="122" x="5" y="32"/><text fill="#000000" font-family="sans-serif" font-size="14" font-style="italic" lengthAdjust="spacing" textLength="108" x="12" y="51.9951">«presentation»</text><text fill="#000000" font-family="sans-serif" font-size="14" lengthAdjust="spacing" textLength="72" x="30" y="68.292">ShowSlaUI</text><rect fill="#FEFECE" filter="url(#f1ph4avyxzqicj)" height="46.5938" style="stroke:#A80036;stroke-width:1.5;" width="122" x="5" y="319.5234"/><text fill="#000000" font-family="sans-serif" font-size="14" font-style="italic" lengthAdjust="spacing" textLength="108" x="12" y="339.5186">«presentation»</text><text fill="#000000" font-family="sans-serif" font-size="14" lengthAdjust="spacing" textLength="72" x="30" y="355.8154">ShowSlaUI</text><rect fill="#FEFECE" filter="url(#f1ph4avyxzqicj)" height="46.5938" style="stroke:#A80036;stroke-width:1.5;" width="146" x="332" y="32"/><text fill="#000000" font-family="sans-serif" font-size="14" font-style="italic" lengthAdjust="spacing" textLength="97" x="356.5" y="51.9951">«application»</text><text fill="#000000" font-family="sans-serif" font-size="14" lengthAdjust="spacing" textLength="132" x="339" y="68.292">ShowSlaController</text><rect fill="#FEFECE" filter="url(#f1ph4avyxzqicj)" height="46.5938" style="stroke:#A80036;stroke-width:1.5;" width="146" x="332" y="319.5234"/><text fill="#000000" font-family="sans-serif" font-size="14" font-style="italic" lengthAdjust="spacing" textLength="97" x="356.5" y="339.5186">«application»</text><text fill="#000000" font-family="sans-serif" font-size="14" lengthAdjust="spacing" textLength="132" x="339" y="355.8154">ShowSlaController</text><rect fill="#FEFECE" filter="url(#f1ph4avyxzqicj)" height="46.5938" style="stroke:#A80036;stroke-width:1.5;" width="157" x="686.5" y="32"/><text fill="#000000" font-family="sans-serif" font-size="14" font-style="italic" lengthAdjust="spacing" textLength="100" x="715" y="51.9951">«persistence»</text><text fill="#000000" font-family="sans-serif" font-size="14" lengthAdjust="spacing" textLength="143" x="693.5" y="68.292">PersistenceContext</text><rect fill="#FEFECE" filter="url(#f1ph4avyxzqicj)" height="46.5938" style="stroke:#A80036;stroke-width:1.5;" width="157" x="686.5" y="319.5234"/><text fill="#000000" font-family="sans-serif" font-size="14" font-style="italic" lengthAdjust="spacing" textLength="100" x="715" y="339.5186">«persistence»</text><text fill="#000000" font-family="sans-serif" font-size="14" lengthAdjust="spacing" textLength="143" x="693.5" y="355.8154">PersistenceContext</text><rect fill="#FEFECE" filter="url(#f1ph4avyxzqicj)" height="46.5938" style="stroke:#A80036;stroke-width:1.5;" width="147" x="857.5" y="32"/><text fill="#000000" font-family="sans-serif" font-size="14" font-style="italic" lengthAdjust="spacing" textLength="68" x="897" y="51.9951">«factory»</text><text fill="#000000" font-family="sans-serif" font-size="14" lengthAdjust="spacing" textLength="133" x="864.5" y="68.292">RepositoryFactory</text><rect fill="#FEFECE" filter="url(#f1ph4avyxzqicj)" height="46.5938" style="stroke:#A80036;stroke-width:1.5;" width="147" x="857.5" y="319.5234"/><text fill="#000000" font-family="sans-serif" font-size="14" font-style="italic" lengthAdjust="spacing" textLength="68" x="897" y="339.5186">«factory»</text><text fill="#000000" font-family="sans-serif" font-size="14" lengthAdjust="spacing" textLength="133" x="864.5" y="355.8154">RepositoryFactory</text><text fill="#000000" font-family="sans-serif" font-size="14" font-style="italic" lengthAdjust="spacing" textLength="90" x="1042.5" y="63.9951">«repository»</text><text fill="#000000" font-family="sans-serif" font-size="14" lengthAdjust="spacing" textLength="138" x="1018.5" y="80.292">RequestRepository</text><path d="M1072.5,15 C1072.5,5 1090.5,5 1090.5,5 C1090.5,5 1108.5,5 1108.5,15 L1108.5,41 C1108.5,51 1090.5,51 1090.5,51 C1090.5,51 1072.5,51 1072.5,41 L1072.5,15 " fill="#FEFECE" filter="url(#f1ph4avyxzqicj)" style="stroke:#000000;stroke-width:1.5;"/><path d="M1072.5,15 C1072.5,25 1090.5,25 1090.5,25 C1090.5,25 1108.5,25 1108.5,15 " fill="none" style="stroke:#000000;stroke-width:1.5;"/><text fill="#000000" font-family="sans-serif" font-size="14" font-style="italic" lengthAdjust="spacing" textLength="90" x="1042.5" y="332.5186">«repository»</text><text fill="#000000" font-family="sans-serif" font-size="14" lengthAdjust="spacing" textLength="138" x="1018.5" y="348.8154">RequestRepository</text><path d="M1072.5,362.1172 C1072.5,352.1172 1090.5,352.1172 1090.5,352.1172 C1090.5,352.1172 1108.5,352.1172 1108.5,362.1172 L1108.5,388.1172 C1108.5,398.1172 1090.5,398.1172 1090.5,398.1172 C1090.5,398.1172 1072.5,398.1172 1072.5,388.1172 L1072.5,362.1172 " fill="#FEFECE" filter="url(#f1ph4avyxzqicj)" style="stroke:#000000;stroke-width:1.5;"/><path d="M1072.5,362.1172 C1072.5,372.1172 1090.5,372.1172 1090.5,372.1172 C1090.5,372.1172 1108.5,372.1172 1108.5,362.1172 " fill="none" style="stroke:#000000;stroke-width:1.5;"/><rect fill="#FFFFFF" filter="url(#f1ph4avyxzqicj)" height="201.9297" style="stroke:#A80036;stroke-width:1.0;" width="10" x="63" y="93.5938"/><rect fill="#FFFFFF" filter="url(#f1ph4avyxzqicj)" height="180.7969" style="stroke:#A80036;stroke-width:1.0;" width="10" x="402" y="114.7266"/><rect fill="#FFFFFF" filter="url(#f1ph4avyxzqicj)" height="29.1328" style="stroke:#A80036;stroke-width:1.0;" width="10" x="762" y="143.8594"/><rect fill="#FFFFFF" filter="url(#f1ph4avyxzqicj)" height="29.1328" style="stroke:#A80036;stroke-width:1.0;" width="10" x="928" y="172.9922"/><rect fill="#FFFFFF" filter="url(#f1ph4avyxzqicj)" height="58.2656" style="stroke:#A80036;stroke-width:1.0;" width="10" x="1085.5" y="202.125"/><polygon fill="#A80036" points="390,110.7266,400,114.7266,390,118.7266,394,114.7266" style="stroke:#A80036;stroke-width:1.0;"/><line style="stroke:#A80036;stroke-width:1.0;" x1="73" x2="396" y1="114.7266" y2="114.7266"/><text fill="#000000" font-family="sans-serif" font-size="13" lengthAdjust="spacing" textLength="310" x="80" y="109.6606">getRequestsBetweenDates(beginDate,endDate)</text><polygon fill="#A80036" points="750,139.8594,760,143.8594,750,147.8594,754,143.8594" style="stroke:#A80036;stroke-width:1.0;"/><line style="stroke:#A80036;stroke-width:1.0;" x1="412" x2="756" y1="143.8594" y2="143.8594"/><text fill="#000000" font-family="sans-serif" font-size="13" lengthAdjust="spacing" textLength="85" x="419" y="138.7935">repositories()</text><polygon fill="#A80036" points="916,168.9922,926,172.9922,916,176.9922,920,172.9922" style="stroke:#A80036;stroke-width:1.0;"/><line style="stroke:#A80036;stroke-width:1.0;" x1="767" x2="922" y1="172.9922" y2="172.9922"/><text fill="#000000" font-family="sans-serif" font-size="13" lengthAdjust="spacing" textLength="41" x="774" y="167.9263">create</text><polygon fill="#A80036" points="1073.5,198.125,1083.5,202.125,1073.5,206.125,1077.5,202.125" style="stroke:#A80036;stroke-width:1.0;"/><line style="stroke:#A80036;stroke-width:1.0;" x1="933" x2="1079.5" y1="202.125" y2="202.125"/><text fill="#000000" font-family="sans-serif" font-size="13" lengthAdjust="spacing" textLength="41" x="940" y="197.0591">create</text><polygon fill="#A80036" points="1073.5,227.2578,1083.5,231.2578,1073.5,235.2578,1077.5,231.2578" style="stroke:#A80036;stroke-width:1.0;"/><line style="stroke:#A80036;stroke-width:1.0;" x1="412" x2="1079.5" y1="231.2578" y2="231.2578"/><text fill="#000000" font-family="sans-serif" font-size="13" lengthAdjust="spacing" textLength="123" x="419" y="226.1919">requests = findAll()</text><polygon fill="#A80036" points="423,256.3906,413,260.3906,423,264.3906,419,260.3906" style="stroke:#A80036;stroke-width:1.0;"/><line style="stroke:#A80036;stroke-width:1.0;" x1="417" x2="1089.5" y1="260.3906" y2="260.3906"/><text fill="#000000" font-family="sans-serif" font-size="13" lengthAdjust="spacing" textLength="56" x="429" y="255.3247">requests</text><line style="stroke:#A80036;stroke-width:1.0;" x1="412" x2="454" y1="294.5234" y2="294.5234"/><line style="stroke:#A80036;stroke-width:1.0;" x1="454" x2="454" y1="294.5234" y2="307.5234"/><line style="stroke:#A80036;stroke-width:1.0;" x1="407" x2="454" y1="307.5234" y2="307.5234"/><polygon fill="#A80036" points="417,303.5234,407,307.5234,417,311.5234,413,307.5234" style="stroke:#A80036;stroke-width:1.0;"/><text fill="#000000" font-family="sans-serif" font-size="13" lengthAdjust="spacing" textLength="336" x="419" y="289.4575">searchRequestsBetweenDates(beginDate, endDate)</text><!--MD5=[9eb823a8130d0603fdb0ed3bc3b62fc3]
@startuml
participant ShowSlaUI as UI <<presentation>>
participant ShowSlaController as Controller <<application>>
participant PersistenceContext as PersistenceContext <<persistence>>
participant RepositoryFactory as RepositoryFactory <<factory>>
database  RequestRepository as RequestRepository <<repository>>


activate UI
UI -> Controller : getRequestsBetweenDates(beginDate,endDate)
activate Controller

Controller -> PersistenceContext : repositories()
activate PersistenceContext
PersistenceContext -> RepositoryFactory : create
deactivate PersistenceContext
activate RepositoryFactory
RepositoryFactory -> RequestRepository : create
deactivate RepositoryFactory

activate RequestRepository

Controller -> RequestRepository : requests = findAll()
RequestRepository -> Controller: requests
deactivate RequestRepository
Controller -> Controller: searchRequestsBetweenDates(beginDate, endDate)
deactivate Controller
deactivate UI
@enduml

PlantUML version 1.2021.7(Sun May 23 12:40:07 UTC 2021)
(GPL source distribution)
Java Runtime: Java(TM) SE Runtime Environment
JVM: Java HotSpot(TM) 64-Bit Server VM
Default Encoding: UTF-8
Language: en
Country: US
--></g></svg>