<?xml version="1.0" encoding="UTF-8" standalone="no"?><svg xmlns="http://www.w3.org/2000/svg" xmlns:xlink="http://www.w3.org/1999/xlink" contentScriptType="application/ecmascript" contentStyleType="text/css" height="791px" preserveAspectRatio="none" style="width:1171px;height:791px;background:#FFFFFF;" version="1.1" viewBox="0 0 1171 791" width="1171px" zoomAndPan="magnify"><defs><filter height="300%" id="f12eln3tbyhmkl" width="300%" x="-1" y="-1"><feGaussianBlur result="blurOut" stdDeviation="2.0"/><feColorMatrix in="blurOut" result="blurOut2" type="matrix" values="0 0 0 0 0 0 0 0 0 0 0 0 0 0 0 0 0 0 .4 0"/><feOffset dx="4.0" dy="4.0" in="blurOut2" result="blurOut3"/><feBlend in="SourceGraphic" in2="blurOut3" mode="normal"/></filter></defs><g><rect fill="#FFFFFF" filter="url(#f12eln3tbyhmkl)" height="599.3281" style="stroke:#A80036;stroke-width:1.0;" width="10" x="18" y="98.2969"/><rect fill="#FFFFFF" filter="url(#f12eln3tbyhmkl)" height="569.1953" style="stroke:#A80036;stroke-width:1.0;" width="10" x="222" y="119.4297"/><rect fill="#FFFFFF" filter="url(#f12eln3tbyhmkl)" height="549.0625" style="stroke:#A80036;stroke-width:1.0;" width="10" x="453" y="148.5625"/><rect fill="#FFFFFF" filter="url(#f12eln3tbyhmkl)" height="29.1328" style="stroke:#A80036;stroke-width:1.0;" width="10" x="751" y="247.0938"/><rect fill="#FFFFFF" filter="url(#f12eln3tbyhmkl)" height="29.1328" style="stroke:#A80036;stroke-width:1.0;" width="10" x="917" y="276.2266"/><rect fill="#FFFFFF" filter="url(#f12eln3tbyhmkl)" height="58.2656" style="stroke:#A80036;stroke-width:1.0;" width="10" x="1072.5" y="305.3594"/><rect fill="#FFFFFF" filter="url(#f12eln3tbyhmkl)" height="335.1328" style="stroke:#000000;stroke-width:2.0;" width="794.5" x="363" y="208.8281"/><rect fill="#FFFFFF" filter="url(#f12eln3tbyhmkl)" height="116.2031" style="stroke:#000000;stroke-width:2.0;" width="383" x="373" y="420.7578"/><rect fill="#FFFFFF" height="56.9375" style="stroke:none;stroke-width:1.0;" width="383" x="373" y="480.0234"/><line style="stroke:#A80036;stroke-width:1.0;stroke-dasharray:5.0,5.0;" x1="23" x2="23" y1="88.2969" y2="706.625"/><line style="stroke:#A80036;stroke-width:1.0;stroke-dasharray:5.0,5.0;" x1="227" x2="227" y1="88.2969" y2="706.625"/><line style="stroke:#A80036;stroke-width:1.0;stroke-dasharray:5.0,5.0;" x1="458" x2="458" y1="88.2969" y2="706.625"/><line style="stroke:#A80036;stroke-width:1.0;stroke-dasharray:5.0,5.0;" x1="755.5" x2="755.5" y1="88.2969" y2="706.625"/><line style="stroke:#A80036;stroke-width:1.0;stroke-dasharray:5.0,5.0;" x1="921.5" x2="921.5" y1="88.2969" y2="706.625"/><line style="stroke:#A80036;stroke-width:1.0;stroke-dasharray:5.0,5.0;" x1="1077.5" x2="1077.5" y1="88.2969" y2="706.625"/><text fill="#000000" font-family="sans-serif" font-size="14" lengthAdjust="spacing" textLength="30" x="5" y="84.9951">GSH</text><ellipse cx="23" cy="15" fill="#FEFECE" filter="url(#f12eln3tbyhmkl)" rx="8" ry="8" style="stroke:#A80036;stroke-width:2.0;"/><path d="M23,23 L23,50 M10,31 L36,31 M23,50 L10,65 M23,50 L36,65 " fill="none" filter="url(#f12eln3tbyhmkl)" style="stroke:#A80036;stroke-width:2.0;"/><text fill="#000000" font-family="sans-serif" font-size="14" lengthAdjust="spacing" textLength="30" x="5" y="718.6201">GSH</text><ellipse cx="23" cy="731.9219" fill="#FEFECE" filter="url(#f12eln3tbyhmkl)" rx="8" ry="8" style="stroke:#A80036;stroke-width:2.0;"/><path d="M23,739.9219 L23,766.9219 M10,747.9219 L36,747.9219 M23,766.9219 L10,781.9219 M23,766.9219 L36,781.9219 " fill="none" filter="url(#f12eln3tbyhmkl)" style="stroke:#A80036;stroke-width:2.0;"/><rect fill="#FEFECE" filter="url(#f12eln3tbyhmkl)" height="46.5938" style="stroke:#A80036;stroke-width:1.5;" width="122" x="164" y="36.7031"/><text fill="#000000" font-family="sans-serif" font-size="14" font-style="italic" lengthAdjust="spacing" textLength="108" x="171" y="56.6982">«presentation»</text><text fill="#000000" font-family="sans-serif" font-size="14" lengthAdjust="spacing" textLength="72" x="189" y="72.9951">ShowSlaUI</text><rect fill="#FEFECE" filter="url(#f12eln3tbyhmkl)" height="46.5938" style="stroke:#A80036;stroke-width:1.5;" width="122" x="164" y="705.625"/><text fill="#000000" font-family="sans-serif" font-size="14" font-style="italic" lengthAdjust="spacing" textLength="108" x="171" y="725.6201">«presentation»</text><text fill="#000000" font-family="sans-serif" font-size="14" lengthAdjust="spacing" textLength="72" x="189" y="741.917">ShowSlaUI</text><rect fill="#FEFECE" filter="url(#f12eln3tbyhmkl)" height="46.5938" style="stroke:#A80036;stroke-width:1.5;" width="146" x="383" y="36.7031"/><text fill="#000000" font-family="sans-serif" font-size="14" font-style="italic" lengthAdjust="spacing" textLength="97" x="407.5" y="56.6982">«application»</text><text fill="#000000" font-family="sans-serif" font-size="14" lengthAdjust="spacing" textLength="132" x="390" y="72.9951">ShowSlaController</text><rect fill="#FEFECE" filter="url(#f12eln3tbyhmkl)" height="46.5938" style="stroke:#A80036;stroke-width:1.5;" width="146" x="383" y="705.625"/><text fill="#000000" font-family="sans-serif" font-size="14" font-style="italic" lengthAdjust="spacing" textLength="97" x="407.5" y="725.6201">«application»</text><text fill="#000000" font-family="sans-serif" font-size="14" lengthAdjust="spacing" textLength="132" x="390" y="741.917">ShowSlaController</text><rect fill="#FEFECE" filter="url(#f12eln3tbyhmkl)" height="46.5938" style="stroke:#A80036;stroke-width:1.5;" width="157" x="675.5" y="36.7031"/><text fill="#000000" font-family="sans-serif" font-size="14" font-style="italic" lengthAdjust="spacing" textLength="99" x="704.5" y="56.6982">«Persistence»</text><text fill="#000000" font-family="sans-serif" font-size="14" lengthAdjust="spacing" textLength="143" x="682.5" y="72.9951">PersistenceContext</text><rect fill="#FEFECE" filter="url(#f12eln3tbyhmkl)" height="46.5938" style="stroke:#A80036;stroke-width:1.5;" width="157" x="675.5" y="705.625"/><text fill="#000000" font-family="sans-serif" font-size="14" font-style="italic" lengthAdjust="spacing" textLength="99" x="704.5" y="725.6201">«Persistence»</text><text fill="#000000" font-family="sans-serif" font-size="14" lengthAdjust="spacing" textLength="143" x="682.5" y="741.917">PersistenceContext</text><rect fill="#FEFECE" filter="url(#f12eln3tbyhmkl)" height="46.5938" style="stroke:#A80036;stroke-width:1.5;" width="147" x="846.5" y="36.7031"/><text fill="#000000" font-family="sans-serif" font-size="14" font-style="italic" lengthAdjust="spacing" textLength="68" x="886" y="56.6982">«factory»</text><text fill="#000000" font-family="sans-serif" font-size="14" lengthAdjust="spacing" textLength="133" x="853.5" y="72.9951">RepositoryFactory</text><rect fill="#FEFECE" filter="url(#f12eln3tbyhmkl)" height="46.5938" style="stroke:#A80036;stroke-width:1.5;" width="147" x="846.5" y="705.625"/><text fill="#000000" font-family="sans-serif" font-size="14" font-style="italic" lengthAdjust="spacing" textLength="68" x="886" y="725.6201">«factory»</text><text fill="#000000" font-family="sans-serif" font-size="14" lengthAdjust="spacing" textLength="133" x="853.5" y="741.917">RepositoryFactory</text><text fill="#000000" font-family="sans-serif" font-size="14" font-style="italic" lengthAdjust="spacing" textLength="90" x="1029.5" y="68.6982">«repository»</text><text fill="#000000" font-family="sans-serif" font-size="14" lengthAdjust="spacing" textLength="134" x="1007.5" y="84.9951">CatalogRepository</text><path d="M1059.5,19.7031 C1059.5,9.7031 1077.5,9.7031 1077.5,9.7031 C1077.5,9.7031 1095.5,9.7031 1095.5,19.7031 L1095.5,45.7031 C1095.5,55.7031 1077.5,55.7031 1077.5,55.7031 C1077.5,55.7031 1059.5,55.7031 1059.5,45.7031 L1059.5,19.7031 " fill="#FEFECE" filter="url(#f12eln3tbyhmkl)" style="stroke:#000000;stroke-width:1.5;"/><path d="M1059.5,19.7031 C1059.5,29.7031 1077.5,29.7031 1077.5,29.7031 C1077.5,29.7031 1095.5,29.7031 1095.5,19.7031 " fill="none" style="stroke:#000000;stroke-width:1.5;"/><text fill="#000000" font-family="sans-serif" font-size="14" font-style="italic" lengthAdjust="spacing" textLength="90" x="1029.5" y="718.6201">«repository»</text><text fill="#000000" font-family="sans-serif" font-size="14" lengthAdjust="spacing" textLength="134" x="1007.5" y="734.917">CatalogRepository</text><path d="M1059.5,748.2188 C1059.5,738.2188 1077.5,738.2188 1077.5,738.2188 C1077.5,738.2188 1095.5,738.2188 1095.5,748.2188 L1095.5,774.2188 C1095.5,784.2188 1077.5,784.2188 1077.5,784.2188 C1077.5,784.2188 1059.5,784.2188 1059.5,774.2188 L1059.5,748.2188 " fill="#FEFECE" filter="url(#f12eln3tbyhmkl)" style="stroke:#000000;stroke-width:1.5;"/><path d="M1059.5,748.2188 C1059.5,758.2188 1077.5,758.2188 1077.5,758.2188 C1077.5,758.2188 1095.5,758.2188 1095.5,748.2188 " fill="none" style="stroke:#000000;stroke-width:1.5;"/><rect fill="#FFFFFF" filter="url(#f12eln3tbyhmkl)" height="599.3281" style="stroke:#A80036;stroke-width:1.0;" width="10" x="18" y="98.2969"/><rect fill="#FFFFFF" filter="url(#f12eln3tbyhmkl)" height="569.1953" style="stroke:#A80036;stroke-width:1.0;" width="10" x="222" y="119.4297"/><rect fill="#FFFFFF" filter="url(#f12eln3tbyhmkl)" height="549.0625" style="stroke:#A80036;stroke-width:1.0;" width="10" x="453" y="148.5625"/><rect fill="#FFFFFF" filter="url(#f12eln3tbyhmkl)" height="29.1328" style="stroke:#A80036;stroke-width:1.0;" width="10" x="751" y="247.0938"/><rect fill="#FFFFFF" filter="url(#f12eln3tbyhmkl)" height="29.1328" style="stroke:#A80036;stroke-width:1.0;" width="10" x="917" y="276.2266"/><rect fill="#FFFFFF" filter="url(#f12eln3tbyhmkl)" height="58.2656" style="stroke:#A80036;stroke-width:1.0;" width="10" x="1072.5" y="305.3594"/><polygon fill="#A80036" points="39,115.4297,29,119.4297,39,123.4297,35,119.4297" style="stroke:#A80036;stroke-width:1.0;"/><line style="stroke:#A80036;stroke-width:1.0;stroke-dasharray:2.0,2.0;" x1="33" x2="221" y1="119.4297" y2="119.4297"/><text fill="#000000" font-family="sans-serif" font-size="13" lengthAdjust="spacing" textLength="155" x="45" y="114.3638">Ask for the time interval</text><polygon fill="#A80036" points="210,144.5625,220,148.5625,210,152.5625,214,148.5625" style="stroke:#A80036;stroke-width:1.0;"/><line style="stroke:#A80036;stroke-width:1.0;stroke-dasharray:2.0,2.0;" x1="28" x2="216" y1="148.5625" y2="148.5625"/><text fill="#000000" font-family="sans-serif" font-size="13" lengthAdjust="spacing" textLength="170" x="35" y="143.4966">Introduce the time interval</text><rect fill="#FFFFFF" filter="url(#f12eln3tbyhmkl)" height="40.2656" style="stroke:#000000;stroke-width:2.0;" width="371" x="161" y="156.5625"/><polygon fill="#EEEEEE" points="161,156.5625,229,156.5625,229,163.5625,219,173.5625,161,173.5625,161,156.5625" style="stroke:#000000;stroke-width:2.0;"/><text fill="#000000" font-family="sans-serif" font-size="13" font-weight="bold" lengthAdjust="spacing" textLength="23" x="174" y="170.6294">ref</text><text fill="#000000" font-family="sans-serif" font-size="13" lengthAdjust="spacing" textLength="200" x="248.5" y="189.6294">getRequestsBetweenDates_SD</text><path d="M363,208.8281 L441,208.8281 L441,215.8281 L431,225.8281 L363,225.8281 L363,208.8281 " fill="#EEEEEE" style="stroke:#000000;stroke-width:1.0;"/><rect fill="none" height="335.1328" style="stroke:#000000;stroke-width:2.0;" width="794.5" x="363" y="208.8281"/><text fill="#000000" font-family="sans-serif" font-size="13" font-weight="bold" lengthAdjust="spacing" textLength="33" x="378" y="221.895">loop</text><a href="Scroll" target="_top" title="Scroll" xlink:actuate="onRequest" xlink:href="Scroll" xlink:show="new" xlink:title="Scroll" xlink:type="simple"><text fill="#0000FF" font-family="sans-serif" font-size="11" font-weight="bold" lengthAdjust="spacing" text-decoration="underline" textLength="163" x="456" y="221.0386">through the request list</text></a><polygon fill="#A80036" points="739,243.0938,749,247.0938,739,251.0938,743,247.0938" style="stroke:#A80036;stroke-width:1.0;"/><line style="stroke:#A80036;stroke-width:1.0;" x1="463" x2="745" y1="247.0938" y2="247.0938"/><text fill="#000000" font-family="sans-serif" font-size="13" lengthAdjust="spacing" textLength="85" x="470" y="242.0278">repositories()</text><polygon fill="#A80036" points="905,272.2266,915,276.2266,905,280.2266,909,276.2266" style="stroke:#A80036;stroke-width:1.0;"/><line style="stroke:#A80036;stroke-width:1.0;" x1="756" x2="911" y1="276.2266" y2="276.2266"/><text fill="#000000" font-family="sans-serif" font-size="13" lengthAdjust="spacing" textLength="41" x="763" y="271.1606">create</text><polygon fill="#A80036" points="1060.5,301.3594,1070.5,305.3594,1060.5,309.3594,1064.5,305.3594" style="stroke:#A80036;stroke-width:1.0;"/><line style="stroke:#A80036;stroke-width:1.0;" x1="922" x2="1066.5" y1="305.3594" y2="305.3594"/><text fill="#000000" font-family="sans-serif" font-size="13" lengthAdjust="spacing" textLength="41" x="929" y="300.2935">create</text><polygon fill="#A80036" points="1060.5,330.4922,1070.5,334.4922,1060.5,338.4922,1064.5,334.4922" style="stroke:#A80036;stroke-width:1.0;"/><line style="stroke:#A80036;stroke-width:1.0;" x1="463" x2="1066.5" y1="334.4922" y2="334.4922"/><text fill="#000000" font-family="sans-serif" font-size="13" lengthAdjust="spacing" textLength="162" x="470" y="329.4263">catalog = findByService()</text><polygon fill="#A80036" points="474,359.625,464,363.625,474,367.625,470,363.625" style="stroke:#A80036;stroke-width:1.0;"/><line style="stroke:#A80036;stroke-width:1.0;" x1="468" x2="1076.5" y1="363.625" y2="363.625"/><text fill="#000000" font-family="sans-serif" font-size="13" lengthAdjust="spacing" textLength="47" x="480" y="358.5591">catalog</text><line style="stroke:#A80036;stroke-width:1.0;" x1="463" x2="505" y1="392.7578" y2="392.7578"/><line style="stroke:#A80036;stroke-width:1.0;" x1="505" x2="505" y1="392.7578" y2="405.7578"/><line style="stroke:#A80036;stroke-width:1.0;" x1="464" x2="505" y1="405.7578" y2="405.7578"/><polygon fill="#A80036" points="474,401.7578,464,405.7578,474,409.7578,470,405.7578" style="stroke:#A80036;stroke-width:1.0;"/><text fill="#000000" font-family="sans-serif" font-size="13" lengthAdjust="spacing" textLength="66" x="470" y="387.6919">verifySla()</text><path d="M373,420.7578 L439,420.7578 L439,427.7578 L429,437.7578 L373,437.7578 L373,420.7578 " fill="#EEEEEE" style="stroke:#000000;stroke-width:1.0;"/><rect fill="none" height="116.2031" style="stroke:#000000;stroke-width:2.0;" width="383" x="373" y="420.7578"/><text fill="#000000" font-family="sans-serif" font-size="13" font-weight="bold" lengthAdjust="spacing" textLength="21" x="388" y="433.8247">alt</text><text fill="#000000" font-family="sans-serif" font-size="11" font-weight="bold" lengthAdjust="spacing" textLength="114" x="454" y="432.9683">[successful case]</text><line style="stroke:#A80036;stroke-width:1.0;" x1="463" x2="505" y1="459.0234" y2="459.0234"/><line style="stroke:#A80036;stroke-width:1.0;" x1="505" x2="505" y1="459.0234" y2="472.0234"/><line style="stroke:#A80036;stroke-width:1.0;" x1="464" x2="505" y1="472.0234" y2="472.0234"/><polygon fill="#A80036" points="474,468.0234,464,472.0234,474,476.0234,470,472.0234" style="stroke:#A80036;stroke-width:1.0;"/><text fill="#000000" font-family="sans-serif" font-size="13" lengthAdjust="spacing" textLength="248" x="470" y="453.9575">addRequestsWithApprovalSla(request)</text><line style="stroke:#000000;stroke-width:1.0;stroke-dasharray:2.0,2.0;" x1="373" x2="756" y1="481.0234" y2="481.0234"/><text fill="#000000" font-family="sans-serif" font-size="11" font-weight="bold" lengthAdjust="spacing" textLength="146" x="378" y="491.2339">[some kind of failure]</text><line style="stroke:#A80036;stroke-width:1.0;" x1="463" x2="505" y1="515.9609" y2="515.9609"/><line style="stroke:#A80036;stroke-width:1.0;" x1="505" x2="505" y1="515.9609" y2="528.9609"/><line style="stroke:#A80036;stroke-width:1.0;" x1="464" x2="505" y1="528.9609" y2="528.9609"/><polygon fill="#A80036" points="474,524.9609,464,528.9609,474,532.9609,470,528.9609" style="stroke:#A80036;stroke-width:1.0;"/><text fill="#000000" font-family="sans-serif" font-size="13" lengthAdjust="spacing" textLength="274" x="470" y="510.895">addRrequestsWithoutApprovalSla(request)</text><polygon fill="#A80036" points="441,568.0938,451,572.0938,441,576.0938,445,572.0938" style="stroke:#A80036;stroke-width:1.0;"/><line style="stroke:#A80036;stroke-width:1.0;" x1="232" x2="447" y1="572.0938" y2="572.0938"/><text fill="#000000" font-family="sans-serif" font-size="13" lengthAdjust="spacing" textLength="176" x="239" y="567.0278">requestsWithApprovalSla();</text><polygon fill="#A80036" points="243,597.2266,233,601.2266,243,605.2266,239,601.2266" style="stroke:#A80036;stroke-width:1.0;"/><line style="stroke:#A80036;stroke-width:1.0;" x1="237" x2="452" y1="601.2266" y2="601.2266"/><text fill="#000000" font-family="sans-serif" font-size="13" lengthAdjust="spacing" textLength="122" x="249" y="596.1606">requestsapproved;</text><polygon fill="#A80036" points="441,626.3594,451,630.3594,441,634.3594,445,630.3594" style="stroke:#A80036;stroke-width:1.0;"/><line style="stroke:#A80036;stroke-width:1.0;" x1="232" x2="447" y1="630.3594" y2="630.3594"/><text fill="#000000" font-family="sans-serif" font-size="13" lengthAdjust="spacing" textLength="197" x="239" y="625.2935">requestsWithoutApprovalSla();</text><polygon fill="#A80036" points="243,655.4922,233,659.4922,243,663.4922,239,659.4922" style="stroke:#A80036;stroke-width:1.0;"/><line style="stroke:#A80036;stroke-width:1.0;" x1="237" x2="452" y1="659.4922" y2="659.4922"/><text fill="#000000" font-family="sans-serif" font-size="13" lengthAdjust="spacing" textLength="140" x="249" y="654.4263">requestsdisapproved;</text><polygon fill="#A80036" points="39,684.625,29,688.625,39,692.625,35,688.625" style="stroke:#A80036;stroke-width:1.0;"/><line style="stroke:#A80036;stroke-width:1.0;" x1="33" x2="226" y1="688.625" y2="688.625"/><text fill="#000000" font-family="sans-serif" font-size="13" lengthAdjust="spacing" textLength="68" x="45" y="683.5591">showSla();</text><!--MD5=[37133d363b3751fb36a99703a2bcbc94]
@startuml
actor GSH as Actor
participant ShowSlaUI as UI <<presentation>>
participant ShowSlaController as Controller <<application>>
participant "PersistenceContext" as PersistenceContext <<Persistence>>
participant RepositoryFactory as RepositoryFactory <<factory>>
database CatalogRepository as CatalogRepository <<repository>>


activate Actor
UI - -> Actor: Ask for the time interval
activate UI
Actor - -> UI: Introduce the time interval

ref over UI, Controller : getRequestsBetweenDates_SD
activate Controller

loop [ Scroll through the request list ]
Controller -> PersistenceContext : repositories()
activate PersistenceContext
PersistenceContext -> RepositoryFactory : create
deactivate PersistenceContext
activate RepositoryFactory
RepositoryFactory -> CatalogRepository : create
deactivate RepositoryFactory

activate CatalogRepository

Controller -> CatalogRepository : catalog = findByService()
CatalogRepository -> Controller: catalog
deactivate CatalogRepository

Controller -> Controller : verifySla()

alt successful case
Controller -> Controller : addRequestsWithApprovalSla(request)
else some kind of failure
Controller -> Controller : addRrequestsWithoutApprovalSla(request)
end
end loop

UI -> Controller : requestsWithApprovalSla();
Controller -> UI : requestsapproved;
UI -> Controller : requestsWithoutApprovalSla();
Controller -> UI : requestsdisapproved;

UI -> Actor : showSla();

deactivate UI
@enduml

PlantUML version 1.2021.7(Sun May 23 12:40:07 UTC 2021)
(GPL source distribution)
Java Runtime: Java(TM) SE Runtime Environment
JVM: Java HotSpot(TM) 64-Bit Server VM
Default Encoding: UTF-8
Language: en
Country: US
--></g></svg>