<?xml version="1.0" encoding="UTF-8" standalone="no"?><svg xmlns="http://www.w3.org/2000/svg" xmlns:xlink="http://www.w3.org/1999/xlink" contentScriptType="application/ecmascript" contentStyleType="text/css" height="1223px" preserveAspectRatio="none" style="width:3483px;height:1223px;" version="1.1" viewBox="0 0 3483 1223" width="3483px" zoomAndPan="magnify"><defs><filter height="300%" id="f176awjc3j7myz" width="300%" x="-1" y="-1"><feGaussianBlur result="blurOut" stdDeviation="2.0"/><feColorMatrix in="blurOut" result="blurOut2" type="matrix" values="0 0 0 0 0 0 0 0 0 0 0 0 0 0 0 0 0 0 .4 0"/><feOffset dx="4.0" dy="4.0" in="blurOut2" result="blurOut3"/><feBlend in="SourceGraphic" in2="blurOut3" mode="normal"/></filter></defs><g><rect fill="#FFFFFF" filter="url(#f176awjc3j7myz)" height="1023.1016" style="stroke:#A80036;stroke-width:1.0;" width="10" x="68" y="98.2969"/><rect fill="#FFFFFF" filter="url(#f176awjc3j7myz)" height="29.1328" style="stroke:#A80036;stroke-width:1.0;" width="10" x="739" y="119.4297"/><rect fill="#FFFFFF" filter="url(#f176awjc3j7myz)" height="29.1328" style="stroke:#A80036;stroke-width:1.0;" width="10" x="739" y="177.6953"/><rect fill="#FFFFFF" filter="url(#f176awjc3j7myz)" height="440.3828" style="stroke:#A80036;stroke-width:1.0;" width="10" x="739" y="235.9609"/><rect fill="#FFFFFF" filter="url(#f176awjc3j7myz)" height="215.125" style="stroke:#A80036;stroke-width:1.0;" width="10" x="739" y="705.4766"/><rect fill="#FFFFFF" filter="url(#f176awjc3j7myz)" height="171.6641" style="stroke:#A80036;stroke-width:1.0;" width="10" x="739" y="949.7344"/><rect fill="#FFFFFF" filter="url(#f176awjc3j7myz)" height="58.2656" style="stroke:#A80036;stroke-width:1.0;" width="10" x="1341" y="265.0938"/><rect fill="#FFFFFF" filter="url(#f176awjc3j7myz)" height="238.125" style="stroke:#A80036;stroke-width:1.0;" width="10" x="1341" y="384.9531"/><rect fill="#FFFFFF" filter="url(#f176awjc3j7myz)" height="149.8594" style="stroke:#A80036;stroke-width:1.0;" width="10" x="1341" y="734.6094"/><rect fill="#FFFFFF" filter="url(#f176awjc3j7myz)" height="106.3984" style="stroke:#A80036;stroke-width:1.0;" width="10" x="1341" y="978.8672"/><rect fill="#FFFFFF" filter="url(#f176awjc3j7myz)" height="29.1328" style="stroke:#A80036;stroke-width:1.0;" width="10" x="2004" y="294.2266"/><rect fill="#FFFFFF" filter="url(#f176awjc3j7myz)" height="29.1328" style="stroke:#A80036;stroke-width:1.0;" width="10" x="2100" y="763.7422"/><rect fill="#FFFFFF" filter="url(#f176awjc3j7myz)" height="30" style="stroke:#A80036;stroke-width:1.0;" width="10" x="2203.5" y="414.0859"/><rect fill="#FFFFFF" filter="url(#f176awjc3j7myz)" height="58.2656" style="stroke:#A80036;stroke-width:1.0;" width="10" x="2316" y="473.2188"/><rect fill="#FFFFFF" filter="url(#f176awjc3j7myz)" height="30" style="stroke:#A80036;stroke-width:1.0;" width="10" x="2316" y="593.0781"/><rect fill="#FFFFFF" filter="url(#f176awjc3j7myz)" height="77.2656" style="stroke:#A80036;stroke-width:1.0;" width="10" x="2316" y="1008"/><rect fill="#FFFFFF" filter="url(#f176awjc3j7myz)" height="29.1328" style="stroke:#A80036;stroke-width:1.0;" width="10" x="2942.5" y="502.3516"/><rect fill="#FFFFFF" filter="url(#f176awjc3j7myz)" height="30" style="stroke:#A80036;stroke-width:1.0;" width="10" x="2942.5" y="854.4688"/><rect fill="#FFFFFF" filter="url(#f176awjc3j7myz)" height="254.3906" style="stroke:#000000;stroke-width:2.0;" width="2994" x="10" y="638.0781"/><line style="stroke:#A80036;stroke-width:1.0;stroke-dasharray:5.0,5.0;" x1="73" x2="73" y1="88.2969" y2="1139.3984"/><line style="stroke:#A80036;stroke-width:1.0;stroke-dasharray:5.0,5.0;" x1="744" x2="744" y1="88.2969" y2="1139.3984"/><line style="stroke:#A80036;stroke-width:1.0;stroke-dasharray:5.0,5.0;" x1="1346" x2="1346" y1="88.2969" y2="1139.3984"/><line style="stroke:#A80036;stroke-width:1.0;stroke-dasharray:5.0,5.0;" x1="2008.5" x2="2008.5" y1="88.2969" y2="1139.3984"/><line style="stroke:#A80036;stroke-width:1.0;stroke-dasharray:5.0,5.0;" x1="2104.5" x2="2104.5" y1="88.2969" y2="1139.3984"/><line style="stroke:#A80036;stroke-width:1.0;stroke-dasharray:5.0,5.0;" x1="2208.5" x2="2208.5" y1="88.2969" y2="1139.3984"/><line style="stroke:#A80036;stroke-width:1.0;stroke-dasharray:5.0,5.0;" x1="2320.5" x2="2320.5" y1="88.2969" y2="1139.3984"/><line style="stroke:#A80036;stroke-width:1.0;stroke-dasharray:5.0,5.0;" x1="2602" x2="2602" y1="343.0234" y2="1139.3984"/><line style="stroke:#A80036;stroke-width:1.0;stroke-dasharray:5.0,5.0;" x1="2698" x2="2698" y1="812.5391" y2="1139.3984"/><line style="stroke:#A80036;stroke-width:1.0;stroke-dasharray:5.0,5.0;" x1="2947" x2="2947" y1="88.2969" y2="1139.3984"/><line style="stroke:#A80036;stroke-width:1.0;stroke-dasharray:5.0,5.0;" x1="3426.5" x2="3426.5" y1="551.1484" y2="1139.3984"/><text fill="#000000" font-family="sans-serif" font-size="14" lengthAdjust="spacing" textLength="100" x="20" y="84.9951">Administrator</text><ellipse cx="73" cy="15" fill="#FEFECE" filter="url(#f176awjc3j7myz)" rx="8" ry="8" style="stroke:#A80036;stroke-width:2.0;"/><path d="M73,23 L73,50 M60,31 L86,31 M73,50 L60,65 M73,50 L86,65 " fill="none" filter="url(#f176awjc3j7myz)" style="stroke:#A80036;stroke-width:2.0;"/><text fill="#000000" font-family="sans-serif" font-size="14" lengthAdjust="spacing" textLength="100" x="20" y="1151.3936">Administrator</text><ellipse cx="73" cy="1164.6953" fill="#FEFECE" filter="url(#f176awjc3j7myz)" rx="8" ry="8" style="stroke:#A80036;stroke-width:2.0;"/><path d="M73,1172.6953 L73,1199.6953 M60,1180.6953 L86,1180.6953 M73,1199.6953 L60,1214.6953 M73,1199.6953 L86,1214.6953 " fill="none" filter="url(#f176awjc3j7myz)" style="stroke:#A80036;stroke-width:2.0;"/><rect fill="#FEFECE" filter="url(#f176awjc3j7myz)" height="30.2969" style="stroke:#A80036;stroke-width:1.5;" width="178" x="653" y="53"/><text fill="#000000" font-family="sans-serif" font-size="14" lengthAdjust="spacing" textLength="164" x="660" y="72.9951">:InsertPharmacyDataUI</text><rect fill="#FEFECE" filter="url(#f176awjc3j7myz)" height="30.2969" style="stroke:#A80036;stroke-width:1.5;" width="178" x="653" y="1138.3984"/><text fill="#000000" font-family="sans-serif" font-size="14" lengthAdjust="spacing" textLength="164" x="660" y="1158.3936">:InsertPharmacyDataUI</text><rect fill="#FEFECE" filter="url(#f176awjc3j7myz)" height="30.2969" style="stroke:#A80036;stroke-width:1.5;" width="238" x="1225" y="53"/><text fill="#000000" font-family="sans-serif" font-size="14" lengthAdjust="spacing" textLength="224" x="1232" y="72.9951">:InsertPharmacyDataController</text><rect fill="#FEFECE" filter="url(#f176awjc3j7myz)" height="30.2969" style="stroke:#A80036;stroke-width:1.5;" width="238" x="1225" y="1138.3984"/><text fill="#000000" font-family="sans-serif" font-size="14" lengthAdjust="spacing" textLength="224" x="1232" y="1158.3936">:InsertPharmacyDataController</text><rect fill="#FEFECE" filter="url(#f176awjc3j7myz)" height="30.2969" style="stroke:#A80036;stroke-width:1.5;" width="67" x="1973.5" y="53"/><text fill="#000000" font-family="sans-serif" font-size="14" lengthAdjust="spacing" textLength="53" x="1980.5" y="72.9951">:Adress</text><rect fill="#FEFECE" filter="url(#f176awjc3j7myz)" height="30.2969" style="stroke:#A80036;stroke-width:1.5;" width="67" x="1973.5" y="1138.3984"/><text fill="#000000" font-family="sans-serif" font-size="14" lengthAdjust="spacing" textLength="53" x="1980.5" y="1158.3936">:Adress</text><rect fill="#FEFECE" filter="url(#f176awjc3j7myz)" height="30.2969" style="stroke:#A80036;stroke-width:1.5;" width="97" x="2054.5" y="53"/><text fill="#000000" font-family="sans-serif" font-size="14" lengthAdjust="spacing" textLength="83" x="2061.5" y="72.9951">:ParkingLot</text><rect fill="#FEFECE" filter="url(#f176awjc3j7myz)" height="30.2969" style="stroke:#A80036;stroke-width:1.5;" width="97" x="2054.5" y="1138.3984"/><text fill="#000000" font-family="sans-serif" font-size="14" lengthAdjust="spacing" textLength="83" x="2061.5" y="1158.3936">:ParkingLot</text><rect fill="#FEFECE" filter="url(#f176awjc3j7myz)" height="30.2969" style="stroke:#A80036;stroke-width:1.5;" width="82" x="2165.5" y="53"/><text fill="#000000" font-family="sans-serif" font-size="14" lengthAdjust="spacing" textLength="68" x="2172.5" y="72.9951">:Platform</text><rect fill="#FEFECE" filter="url(#f176awjc3j7myz)" height="30.2969" style="stroke:#A80036;stroke-width:1.5;" width="82" x="2165.5" y="1138.3984"/><text fill="#000000" font-family="sans-serif" font-size="14" lengthAdjust="spacing" textLength="68" x="2172.5" y="1158.3936">:Platform</text><rect fill="#FEFECE" filter="url(#f176awjc3j7myz)" height="30.2969" style="stroke:#A80036;stroke-width:1.5;" width="115" x="2261.5" y="53"/><text fill="#000000" font-family="sans-serif" font-size="14" lengthAdjust="spacing" textLength="101" x="2268.5" y="72.9951">:PharmacyList</text><rect fill="#FEFECE" filter="url(#f176awjc3j7myz)" height="30.2969" style="stroke:#A80036;stroke-width:1.5;" width="115" x="2261.5" y="1138.3984"/><text fill="#000000" font-family="sans-serif" font-size="14" lengthAdjust="spacing" textLength="101" x="2268.5" y="1158.3936">:PharmacyList</text><rect fill="#FEFECE" filter="url(#f176awjc3j7myz)" height="46.5938" style="stroke:#A80036;stroke-width:1.5;" width="67" x="2567" y="1138.3984"/><text fill="#000000" font-family="sans-serif" font-size="14" lengthAdjust="spacing" textLength="46" x="2575.5" y="1158.3936">adress</text><text fill="#000000" font-family="sans-serif" font-size="14" lengthAdjust="spacing" textLength="53" x="2574" y="1174.6904">:Adress</text><rect fill="#FEFECE" filter="url(#f176awjc3j7myz)" height="46.5938" style="stroke:#A80036;stroke-width:1.5;" width="97" x="2648" y="1138.3984"/><text fill="#000000" font-family="sans-serif" font-size="14" lengthAdjust="spacing" textLength="79" x="2655" y="1158.3936">parkingLot</text><text fill="#000000" font-family="sans-serif" font-size="14" lengthAdjust="spacing" textLength="83" x="2655" y="1174.6904">:ParkingLot</text><rect fill="#FEFECE" filter="url(#f176awjc3j7myz)" height="30.2969" style="stroke:#A80036;stroke-width:1.5;" width="89" x="2901" y="53"/><text fill="#000000" font-family="sans-serif" font-size="14" lengthAdjust="spacing" textLength="75" x="2908" y="72.9951">:Pharmacy</text><rect fill="#FEFECE" filter="url(#f176awjc3j7myz)" height="30.2969" style="stroke:#A80036;stroke-width:1.5;" width="89" x="2901" y="1138.3984"/><text fill="#000000" font-family="sans-serif" font-size="14" lengthAdjust="spacing" textLength="75" x="2908" y="1158.3936">:Pharmacy</text><rect fill="#FEFECE" filter="url(#f176awjc3j7myz)" height="46.5938" style="stroke:#A80036;stroke-width:1.5;" width="89" x="3380.5" y="1138.3984"/><text fill="#000000" font-family="sans-serif" font-size="14" lengthAdjust="spacing" textLength="71" x="3387.5" y="1158.3936">pharmacy</text><text fill="#000000" font-family="sans-serif" font-size="14" lengthAdjust="spacing" textLength="75" x="3387.5" y="1174.6904">:Pharmacy</text><rect fill="#FFFFFF" filter="url(#f176awjc3j7myz)" height="1023.1016" style="stroke:#A80036;stroke-width:1.0;" width="10" x="68" y="98.2969"/><rect fill="#FFFFFF" filter="url(#f176awjc3j7myz)" height="29.1328" style="stroke:#A80036;stroke-width:1.0;" width="10" x="739" y="119.4297"/><rect fill="#FFFFFF" filter="url(#f176awjc3j7myz)" height="29.1328" style="stroke:#A80036;stroke-width:1.0;" width="10" x="739" y="177.6953"/><rect fill="#FFFFFF" filter="url(#f176awjc3j7myz)" height="440.3828" style="stroke:#A80036;stroke-width:1.0;" width="10" x="739" y="235.9609"/><rect fill="#FFFFFF" filter="url(#f176awjc3j7myz)" height="215.125" style="stroke:#A80036;stroke-width:1.0;" width="10" x="739" y="705.4766"/><rect fill="#FFFFFF" filter="url(#f176awjc3j7myz)" height="171.6641" style="stroke:#A80036;stroke-width:1.0;" width="10" x="739" y="949.7344"/><rect fill="#FFFFFF" filter="url(#f176awjc3j7myz)" height="58.2656" style="stroke:#A80036;stroke-width:1.0;" width="10" x="1341" y="265.0938"/><rect fill="#FFFFFF" filter="url(#f176awjc3j7myz)" height="238.125" style="stroke:#A80036;stroke-width:1.0;" width="10" x="1341" y="384.9531"/><rect fill="#FFFFFF" filter="url(#f176awjc3j7myz)" height="149.8594" style="stroke:#A80036;stroke-width:1.0;" width="10" x="1341" y="734.6094"/><rect fill="#FFFFFF" filter="url(#f176awjc3j7myz)" height="106.3984" style="stroke:#A80036;stroke-width:1.0;" width="10" x="1341" y="978.8672"/><rect fill="#FFFFFF" filter="url(#f176awjc3j7myz)" height="29.1328" style="stroke:#A80036;stroke-width:1.0;" width="10" x="2004" y="294.2266"/><rect fill="#FFFFFF" filter="url(#f176awjc3j7myz)" height="29.1328" style="stroke:#A80036;stroke-width:1.0;" width="10" x="2100" y="763.7422"/><rect fill="#FFFFFF" filter="url(#f176awjc3j7myz)" height="30" style="stroke:#A80036;stroke-width:1.0;" width="10" x="2203.5" y="414.0859"/><rect fill="#FFFFFF" filter="url(#f176awjc3j7myz)" height="58.2656" style="stroke:#A80036;stroke-width:1.0;" width="10" x="2316" y="473.2188"/><rect fill="#FFFFFF" filter="url(#f176awjc3j7myz)" height="30" style="stroke:#A80036;stroke-width:1.0;" width="10" x="2316" y="593.0781"/><rect fill="#FFFFFF" filter="url(#f176awjc3j7myz)" height="77.2656" style="stroke:#A80036;stroke-width:1.0;" width="10" x="2316" y="1008"/><rect fill="#FFFFFF" filter="url(#f176awjc3j7myz)" height="29.1328" style="stroke:#A80036;stroke-width:1.0;" width="10" x="2942.5" y="502.3516"/><rect fill="#FFFFFF" filter="url(#f176awjc3j7myz)" height="30" style="stroke:#A80036;stroke-width:1.0;" width="10" x="2942.5" y="854.4688"/><polygon fill="#A80036" points="727,115.4297,737,119.4297,727,123.4297,731,119.4297" style="stroke:#A80036;stroke-width:1.0;"/><line style="stroke:#A80036;stroke-width:1.0;" x1="78" x2="733" y1="119.4297" y2="119.4297"/><text fill="#000000" font-family="sans-serif" font-size="13" font-weight="bold" lengthAdjust="spacing" textLength="9" x="85" y="114.3638">1</text><text fill="#000000" font-family="sans-serif" font-size="13" lengthAdjust="spacing" textLength="265" x="98" y="114.3638">initiates the insertion of a pharmacy data</text><polygon fill="#A80036" points="89,144.5625,79,148.5625,89,152.5625,85,148.5625" style="stroke:#A80036;stroke-width:1.0;"/><line style="stroke:#A80036;stroke-width:1.0;" x1="83" x2="743" y1="148.5625" y2="148.5625"/><text fill="#000000" font-family="sans-serif" font-size="13" font-weight="bold" lengthAdjust="spacing" textLength="9" x="95" y="143.4966">2</text><text fill="#000000" font-family="sans-serif" font-size="13" lengthAdjust="spacing" textLength="355" x="108" y="143.4966">requests data about the pharmacy (designation, email)</text><polygon fill="#A80036" points="727,173.6953,737,177.6953,727,181.6953,731,177.6953" style="stroke:#A80036;stroke-width:1.0;"/><line style="stroke:#A80036;stroke-width:1.0;" x1="78" x2="733" y1="177.6953" y2="177.6953"/><text fill="#000000" font-family="sans-serif" font-size="13" font-weight="bold" lengthAdjust="spacing" textLength="8" x="85" y="172.6294">3</text><text fill="#000000" font-family="sans-serif" font-size="13" lengthAdjust="spacing" textLength="170" x="97" y="172.6294">inserts the requested data</text><polygon fill="#A80036" points="89,202.8281,79,206.8281,89,210.8281,85,206.8281" style="stroke:#A80036;stroke-width:1.0;"/><line style="stroke:#A80036;stroke-width:1.0;" x1="83" x2="743" y1="206.8281" y2="206.8281"/><text fill="#000000" font-family="sans-serif" font-size="13" font-weight="bold" lengthAdjust="spacing" textLength="9" x="95" y="201.7622">4</text><text fill="#000000" font-family="sans-serif" font-size="13" lengthAdjust="spacing" textLength="456" x="108" y="201.7622">requests data about the pharmacy adress (street, locality, postalCode)</text><polygon fill="#A80036" points="727,231.9609,737,235.9609,727,239.9609,731,235.9609" style="stroke:#A80036;stroke-width:1.0;"/><line style="stroke:#A80036;stroke-width:1.0;" x1="78" x2="733" y1="235.9609" y2="235.9609"/><text fill="#000000" font-family="sans-serif" font-size="13" font-weight="bold" lengthAdjust="spacing" textLength="9" x="85" y="230.895">5</text><text fill="#000000" font-family="sans-serif" font-size="13" lengthAdjust="spacing" textLength="170" x="98" y="230.895">inserts the requested data</text><polygon fill="#A80036" points="1329,261.0938,1339,265.0938,1329,269.0938,1333,265.0938" style="stroke:#A80036;stroke-width:1.0;"/><line style="stroke:#A80036;stroke-width:1.0;" x1="749" x2="1335" y1="265.0938" y2="265.0938"/><text fill="#000000" font-family="sans-serif" font-size="13" font-weight="bold" lengthAdjust="spacing" textLength="9" x="756" y="260.0278">6</text><text fill="#000000" font-family="sans-serif" font-size="13" lengthAdjust="spacing" textLength="560" x="769" y="260.0278">createAdress(doorNumber,street,locality,postalCode,decimalDegree1,decimalDegree2)</text><polygon fill="#A80036" points="1992,290.2266,2002,294.2266,1992,298.2266,1996,294.2266" style="stroke:#A80036;stroke-width:1.0;"/><line style="stroke:#A80036;stroke-width:1.0;" x1="1351" x2="1998" y1="294.2266" y2="294.2266"/><text fill="#000000" font-family="sans-serif" font-size="13" font-weight="bold" lengthAdjust="spacing" textLength="9" x="1358" y="289.1606">7</text><text fill="#000000" font-family="sans-serif" font-size="13" lengthAdjust="spacing" textLength="621" x="1371" y="289.1606">adress = createAdress(doorNumber,street,locality,postalCode,decimalDegree1,decimalDegree2)</text><polygon fill="#A80036" points="2555,319.3594,2565,323.3594,2555,327.3594,2559,323.3594" style="stroke:#A80036;stroke-width:1.0;"/><line style="stroke:#A80036;stroke-width:1.0;" x1="2009" x2="2561" y1="323.3594" y2="323.3594"/><text fill="#000000" font-family="sans-serif" font-size="13" font-weight="bold" lengthAdjust="spacing" textLength="9" x="2016" y="318.2935">8</text><text fill="#000000" font-family="sans-serif" font-size="13" lengthAdjust="spacing" textLength="516" x="2029" y="318.2935">create(doorNumber,street,locality,postalCode,decimalDegree1,decimalDegree2)</text><rect fill="#FEFECE" filter="url(#f176awjc3j7myz)" height="46.5938" style="stroke:#A80036;stroke-width:1.5;" width="67" x="2567" y="302.2266"/><text fill="#000000" font-family="sans-serif" font-size="14" lengthAdjust="spacing" textLength="46" x="2575.5" y="322.2217">adress</text><text fill="#000000" font-family="sans-serif" font-size="14" lengthAdjust="spacing" textLength="53" x="2574" y="338.5186">:Adress</text><polygon fill="#A80036" points="1329,380.9531,1339,384.9531,1329,388.9531,1333,384.9531" style="stroke:#A80036;stroke-width:1.0;"/><line style="stroke:#A80036;stroke-width:1.0;" x1="749" x2="1335" y1="384.9531" y2="384.9531"/><text fill="#000000" font-family="sans-serif" font-size="13" font-weight="bold" lengthAdjust="spacing" textLength="9" x="756" y="379.8872">9</text><text fill="#000000" font-family="sans-serif" font-size="13" lengthAdjust="spacing" textLength="338" x="769" y="379.8872">createPharmacy(designation, email, emailPassword)</text><polygon fill="#A80036" points="2191.5,410.0859,2201.5,414.0859,2191.5,418.0859,2195.5,414.0859" style="stroke:#A80036;stroke-width:1.0;"/><line style="stroke:#A80036;stroke-width:1.0;" x1="1351" x2="2197.5" y1="414.0859" y2="414.0859"/><text fill="#000000" font-family="sans-serif" font-size="13" font-weight="bold" lengthAdjust="spacing" textLength="19" x="1358" y="409.02">10</text><text fill="#000000" font-family="sans-serif" font-size="13" lengthAdjust="spacing" textLength="147" x="1381" y="409.02">pl = getPharmacyList()</text><polygon fill="#A80036" points="2304,469.2188,2314,473.2188,2304,477.2188,2308,473.2188" style="stroke:#A80036;stroke-width:1.0;"/><line style="stroke:#A80036;stroke-width:1.0;" x1="1351" x2="2310" y1="473.2188" y2="473.2188"/><text fill="#000000" font-family="sans-serif" font-size="13" font-weight="bold" lengthAdjust="spacing" textLength="18" x="1358" y="468.1528">11</text><text fill="#000000" font-family="sans-serif" font-size="13" lengthAdjust="spacing" textLength="531" x="1380" y="468.1528">pharmacy = createPharmacy(designation,email,emailPassword,adress,parkingLot)</text><polygon fill="#A80036" points="2930.5,498.3516,2940.5,502.3516,2930.5,506.3516,2934.5,502.3516" style="stroke:#A80036;stroke-width:1.0;"/><line style="stroke:#A80036;stroke-width:1.0;" x1="2326" x2="2936.5" y1="502.3516" y2="502.3516"/><text fill="#000000" font-family="sans-serif" font-size="13" font-weight="bold" lengthAdjust="spacing" textLength="18" x="2333" y="497.2856">12</text><text fill="#000000" font-family="sans-serif" font-size="13" lengthAdjust="spacing" textLength="531" x="2355" y="497.2856">pharmacy = createPharmacy(designation,email,emailPassword,adress,parkingLot)</text><polygon fill="#A80036" points="3368.5,527.4844,3378.5,531.4844,3368.5,535.4844,3372.5,531.4844" style="stroke:#A80036;stroke-width:1.0;"/><line style="stroke:#A80036;stroke-width:1.0;" x1="2947.5" x2="3374.5" y1="531.4844" y2="531.4844"/><text fill="#000000" font-family="sans-serif" font-size="13" font-weight="bold" lengthAdjust="spacing" textLength="17" x="2954.5" y="526.4185">13</text><text fill="#000000" font-family="sans-serif" font-size="13" lengthAdjust="spacing" textLength="383" x="2975.5" y="526.4185">create(designation,email,emailPassword,adress,parkingLot)</text><rect fill="#FEFECE" filter="url(#f176awjc3j7myz)" height="46.5938" style="stroke:#A80036;stroke-width:1.5;" width="89" x="3380.5" y="510.3516"/><text fill="#000000" font-family="sans-serif" font-size="14" lengthAdjust="spacing" textLength="71" x="3387.5" y="530.3467">pharmacy</text><text fill="#000000" font-family="sans-serif" font-size="14" lengthAdjust="spacing" textLength="75" x="3387.5" y="546.6436">:Pharmacy</text><polygon fill="#A80036" points="2304,589.0781,2314,593.0781,2304,597.0781,2308,593.0781" style="stroke:#A80036;stroke-width:1.0;"/><line style="stroke:#A80036;stroke-width:1.0;" x1="1351" x2="2310" y1="593.0781" y2="593.0781"/><text fill="#000000" font-family="sans-serif" font-size="13" font-weight="bold" lengthAdjust="spacing" textLength="18" x="1358" y="588.0122">14</text><text fill="#000000" font-family="sans-serif" font-size="13" lengthAdjust="spacing" textLength="191" x="1380" y="588.0122">validatePharmacy(pharmacy)</text><path d="M10,638.0781 L88,638.0781 L88,645.0781 L78,655.0781 L10,655.0781 L10,638.0781 " fill="#EEEEEE" style="stroke:#000000;stroke-width:1.0;"/><rect fill="none" height="254.3906" style="stroke:#000000;stroke-width:2.0;" width="2994" x="10" y="638.0781"/><text fill="#000000" font-family="sans-serif" font-size="13" font-weight="bold" lengthAdjust="spacing" textLength="33" x="25" y="651.145">loop</text><polygon fill="#A80036" points="89,672.3438,79,676.3438,89,680.3438,85,676.3438" style="stroke:#A80036;stroke-width:1.0;"/><line style="stroke:#A80036;stroke-width:1.0;" x1="83" x2="743" y1="676.3438" y2="676.3438"/><text fill="#000000" font-family="sans-serif" font-size="13" font-weight="bold" lengthAdjust="spacing" textLength="18" x="95" y="671.2778">15</text><text fill="#000000" font-family="sans-serif" font-size="13" lengthAdjust="spacing" textLength="615" x="117" y="671.2778">requests data about the pharmacy parking lot(s) (parkingLotSpots,parkingLotChargeSpots,type)</text><polygon fill="#A80036" points="727,701.4766,737,705.4766,727,709.4766,731,705.4766" style="stroke:#A80036;stroke-width:1.0;"/><line style="stroke:#A80036;stroke-width:1.0;" x1="78" x2="733" y1="705.4766" y2="705.4766"/><text fill="#000000" font-family="sans-serif" font-size="13" font-weight="bold" lengthAdjust="spacing" textLength="18" x="85" y="700.4106">16</text><text fill="#000000" font-family="sans-serif" font-size="13" lengthAdjust="spacing" textLength="170" x="107" y="700.4106">inserts the requested data</text><polygon fill="#A80036" points="1329,730.6094,1339,734.6094,1329,738.6094,1333,734.6094" style="stroke:#A80036;stroke-width:1.0;"/><line style="stroke:#A80036;stroke-width:1.0;" x1="749" x2="1335" y1="734.6094" y2="734.6094"/><text fill="#000000" font-family="sans-serif" font-size="13" font-weight="bold" lengthAdjust="spacing" textLength="18" x="756" y="729.5435">17</text><text fill="#000000" font-family="sans-serif" font-size="13" lengthAdjust="spacing" textLength="407" x="778" y="729.5435">createParkingLot(parkingLotSpots,parkingLotChargeSpots,type)</text><polygon fill="#A80036" points="2088,759.7422,2098,763.7422,2088,767.7422,2092,763.7422" style="stroke:#A80036;stroke-width:1.0;"/><line style="stroke:#A80036;stroke-width:1.0;" x1="1351" x2="2094" y1="763.7422" y2="763.7422"/><text fill="#000000" font-family="sans-serif" font-size="13" font-weight="bold" lengthAdjust="spacing" textLength="18" x="1358" y="758.6763">18</text><text fill="#000000" font-family="sans-serif" font-size="13" lengthAdjust="spacing" textLength="492" x="1380" y="758.6763">parkingLot = createParkingLot(parkingLotSpots,parkingLotChargeSpots,type)</text><polygon fill="#A80036" points="2636,788.875,2646,792.875,2636,796.875,2640,792.875" style="stroke:#A80036;stroke-width:1.0;"/><line style="stroke:#A80036;stroke-width:1.0;" x1="2105" x2="2642" y1="792.875" y2="792.875"/><text fill="#000000" font-family="sans-serif" font-size="13" font-weight="bold" lengthAdjust="spacing" textLength="18" x="2112" y="787.8091">19</text><text fill="#000000" font-family="sans-serif" font-size="13" lengthAdjust="spacing" textLength="340" x="2134" y="787.8091">create(parkingLotSpots,parkingLotChargeSpots,type)</text><rect fill="#FEFECE" filter="url(#f176awjc3j7myz)" height="46.5938" style="stroke:#A80036;stroke-width:1.5;" width="97" x="2648" y="771.7422"/><text fill="#000000" font-family="sans-serif" font-size="14" lengthAdjust="spacing" textLength="79" x="2655" y="791.7373">parkingLot</text><text fill="#000000" font-family="sans-serif" font-size="14" lengthAdjust="spacing" textLength="83" x="2655" y="808.0342">:ParkingLot</text><polygon fill="#A80036" points="2930.5,850.4688,2940.5,854.4688,2930.5,858.4688,2934.5,854.4688" style="stroke:#A80036;stroke-width:1.0;"/><line style="stroke:#A80036;stroke-width:1.0;" x1="1351" x2="2936.5" y1="854.4688" y2="854.4688"/><text fill="#000000" font-family="sans-serif" font-size="13" font-weight="bold" lengthAdjust="spacing" textLength="19" x="1358" y="849.4028">20</text><text fill="#000000" font-family="sans-serif" font-size="13" lengthAdjust="spacing" textLength="168" x="1381" y="849.4028">addParkingLot(parkingLot)</text><polygon fill="#A80036" points="89,916.6016,79,920.6016,89,924.6016,85,920.6016" style="stroke:#A80036;stroke-width:1.0;"/><line style="stroke:#A80036;stroke-width:1.0;" x1="83" x2="743" y1="920.6016" y2="920.6016"/><text fill="#000000" font-family="sans-serif" font-size="13" font-weight="bold" lengthAdjust="spacing" textLength="18" x="95" y="915.5356">21</text><text fill="#000000" font-family="sans-serif" font-size="13" lengthAdjust="spacing" textLength="328" x="117" y="915.5356">shows the inserted data and requests confirmation</text><polygon fill="#A80036" points="727,945.7344,737,949.7344,727,953.7344,731,949.7344" style="stroke:#A80036;stroke-width:1.0;"/><line style="stroke:#A80036;stroke-width:1.0;" x1="78" x2="733" y1="949.7344" y2="949.7344"/><text fill="#000000" font-family="sans-serif" font-size="13" font-weight="bold" lengthAdjust="spacing" textLength="18" x="85" y="944.6685">22</text><text fill="#000000" font-family="sans-serif" font-size="13" lengthAdjust="spacing" textLength="56" x="107" y="944.6685">confirms</text><polygon fill="#A80036" points="1329,974.8672,1339,978.8672,1329,982.8672,1333,978.8672" style="stroke:#A80036;stroke-width:1.0;"/><line style="stroke:#A80036;stroke-width:1.0;" x1="749" x2="1335" y1="978.8672" y2="978.8672"/><text fill="#000000" font-family="sans-serif" font-size="13" font-weight="bold" lengthAdjust="spacing" textLength="17" x="756" y="973.8013">23</text><text fill="#000000" font-family="sans-serif" font-size="13" lengthAdjust="spacing" textLength="124" x="777" y="973.8013">registerPharmacy()</text><polygon fill="#A80036" points="2304,1004,2314,1008,2304,1012,2308,1008" style="stroke:#A80036;stroke-width:1.0;"/><line style="stroke:#A80036;stroke-width:1.0;" x1="1351" x2="2310" y1="1008" y2="1008"/><text fill="#000000" font-family="sans-serif" font-size="13" font-weight="bold" lengthAdjust="spacing" textLength="18" x="1358" y="1002.9341">24</text><text fill="#000000" font-family="sans-serif" font-size="13" lengthAdjust="spacing" textLength="189" x="1380" y="1002.9341">registerPharmacy(pharmacy)</text><line style="stroke:#A80036;stroke-width:1.0;" x1="2326" x2="2368" y1="1037.1328" y2="1037.1328"/><line style="stroke:#A80036;stroke-width:1.0;" x1="2368" x2="2368" y1="1037.1328" y2="1050.1328"/><line style="stroke:#A80036;stroke-width:1.0;" x1="2327" x2="2368" y1="1050.1328" y2="1050.1328"/><polygon fill="#A80036" points="2337,1046.1328,2327,1050.1328,2337,1054.1328,2333,1050.1328" style="stroke:#A80036;stroke-width:1.0;"/><text fill="#000000" font-family="sans-serif" font-size="13" font-weight="bold" lengthAdjust="spacing" textLength="18" x="2333" y="1032.0669">25</text><text fill="#000000" font-family="sans-serif" font-size="13" lengthAdjust="spacing" textLength="191" x="2355" y="1032.0669">validatePharmacy(pharmacy)</text><line style="stroke:#A80036;stroke-width:1.0;" x1="2326" x2="2368" y1="1084.2656" y2="1084.2656"/><line style="stroke:#A80036;stroke-width:1.0;" x1="2368" x2="2368" y1="1084.2656" y2="1097.2656"/><line style="stroke:#A80036;stroke-width:1.0;" x1="2321" x2="2368" y1="1097.2656" y2="1097.2656"/><polygon fill="#A80036" points="2331,1093.2656,2321,1097.2656,2331,1101.2656,2327,1097.2656" style="stroke:#A80036;stroke-width:1.0;"/><text fill="#000000" font-family="sans-serif" font-size="13" font-weight="bold" lengthAdjust="spacing" textLength="18" x="2333" y="1079.1997">26</text><text fill="#000000" font-family="sans-serif" font-size="13" lengthAdjust="spacing" textLength="164" x="2355" y="1079.1997">addPharmacy(pharmacy)</text><polygon fill="#A80036" points="84,1117.3984,74,1121.3984,84,1125.3984,80,1121.3984" style="stroke:#A80036;stroke-width:1.0;"/><line style="stroke:#A80036;stroke-width:1.0;" x1="78" x2="743" y1="1121.3984" y2="1121.3984"/><text fill="#000000" font-family="sans-serif" font-size="13" font-weight="bold" lengthAdjust="spacing" textLength="18" x="90" y="1116.3325">27</text><text fill="#000000" font-family="sans-serif" font-size="13" lengthAdjust="spacing" textLength="236" x="112" y="1116.3325">informs the success of the operation</text><!--MD5=[ce5b5c806efd6008398fb82da52fd9e9]
@startuml
autonumber

actor "Administrator" as ADM
participant ":InsertPharmacyDataUI" as UI
participant ":InsertPharmacyDataController" as CTRL
participant ":Adress" as ADR
participant ":ParkingLot" as PKL
participant ":Platform" as PLAT
participant ":PharmacyList" as PL
participant "adress \n:Adress" as _ADR
participant "parkingLot \n:ParkingLot" as _PKL
participant ":Pharmacy" as P
participant "pharmacy \n:Pharmacy" as _P

activate ADM
ADM -> UI : initiates the insertion of a pharmacy data
activate UI

UI -> ADM : requests data about the pharmacy (designation, email)
deactivate UI

ADM -> UI : inserts the requested data
activate UI

UI -> ADM : requests data about the pharmacy adress (street, locality, postalCode)
deactivate UI

ADM -> UI : inserts the requested data
activate UI

UI -> CTRL : createAdress(doorNumber,street,locality,postalCode,decimalDegree1,decimalDegree2)
activate CTRL

CTRL -> ADR : adress = createAdress(doorNumber,street,locality,postalCode,decimalDegree1,decimalDegree2)
activate ADR
ADR -> _ADR ** : create(doorNumber,street,locality,postalCode,decimalDegree1,decimalDegree2)
deactivate ADR
deactivate CTRL

UI -> CTRL : createPharmacy(designation, email, emailPassword)
activate CTRL

CTRL -> PLAT : pl = getPharmacyList()
activate PLAT
deactivate PLAT

CTRL -> PL : pharmacy = createPharmacy(designation,email,emailPassword,adress,parkingLot)
activate PL
PL -> P : pharmacy = createPharmacy(designation,email,emailPassword,adress,parkingLot)
activate P
P -> _P ** : create(designation,email,emailPassword,adress,parkingLot)
deactivate P
deactivate PL

CTRL -> PL : validatePharmacy(pharmacy)
activate PL
deactivate PL

deactivate CTRL

loop
UI -> ADM : requests data about the pharmacy parking lot(s) (parkingLotSpots,parkingLotChargeSpots,type)
deactivate UI

ADM -> UI : inserts the requested data
activate UI

UI -> CTRL : createParkingLot(parkingLotSpots,parkingLotChargeSpots,type)
activate CTRL
CTRL -> PKL : parkingLot = createParkingLot(parkingLotSpots,parkingLotChargeSpots,type)
activate PKL
PKL -> _PKL ** : create(parkingLotSpots,parkingLotChargeSpots,type)
deactivate PKL
CTRL -> P : addParkingLot(parkingLot)
activate P
deactivate P
deactivate CTRL
end loop

UI -> ADM : shows the inserted data and requests confirmation
deactivate UI

ADM -> UI : confirms
activate UI

UI -> CTRL : registerPharmacy()
activate CTRL

CTRL -> PL  : registerPharmacy(pharmacy)
activate PL
PL -> PL : validatePharmacy(pharmacy)
PL -> PL : addPharmacy(pharmacy)
deactivate PL
deactivate CTRL

UI -> ADM : informs the success of the operation
deactivate UI

deactivate ADM
@enduml

PlantUML version 1.2021.01beta3(Unknown compile time)
(GPL source distribution)
Java Runtime: Java(TM) SE Runtime Environment
JVM: Java HotSpot(TM) 64-Bit Server VM
Default Encoding: UTF-8
Language: en
Country: US
--></g></svg>