<?xml version="1.0" encoding="UTF-8" standalone="no"?><svg xmlns="http://www.w3.org/2000/svg" xmlns:xlink="http://www.w3.org/1999/xlink" contentScriptType="application/ecmascript" contentStyleType="text/css" height="736px" preserveAspectRatio="none" style="width:1380px;height:736px;" version="1.1" viewBox="0 0 1380 736" width="1380px" zoomAndPan="magnify"><defs><filter height="300%" id="f1bu111lj3ak4w" width="300%" x="-1" y="-1"><feGaussianBlur result="blurOut" stdDeviation="2.0"/><feColorMatrix in="blurOut" result="blurOut2" type="matrix" values="0 0 0 0 0 0 0 0 0 0 0 0 0 0 0 0 0 0 .4 0"/><feOffset dx="4.0" dy="4.0" in="blurOut2" result="blurOut3"/><feBlend in="SourceGraphic" in2="blurOut3" mode="normal"/></filter></defs><g><!--MD5=[9681dc6e01e10c6b4fe06895ae94f592]
cluster UI--><polygon fill="#FFFFFF" filter="url(#f1bu111lj3ak4w)" points="1024,6,1046,6,1053,28.2969,1218,28.2969,1218,105,1024,105,1024,6" style="stroke:#000000;stroke-width:1.5;"/><line style="stroke:#000000;stroke-width:1.5;" x1="1024" x2="1053" y1="28.2969" y2="28.2969"/><text fill="#000000" font-family="sans-serif" font-size="14" font-weight="bold" lengthAdjust="spacing" textLength="16" x="1028" y="20.9951">UI</text><!--MD5=[ed1d20ea533a2a0e7df5ba3c35e56ced]
cluster Controllers--><polygon fill="#FFFFFF" filter="url(#f1bu111lj3ak4w)" points="879,138,975,138,982,160.2969,1363,160.2969,1363,288,879,288,879,138" style="stroke:#000000;stroke-width:1.5;"/><line style="stroke:#000000;stroke-width:1.5;" x1="879" x2="982" y1="160.2969" y2="160.2969"/><text fill="#000000" font-family="sans-serif" font-size="14" font-weight="bold" lengthAdjust="spacing" textLength="90" x="883" y="152.9951">Controllers</text><!--MD5=[121a8bf1197281ab89ed693fab589f94]
cluster Domain--><polygon fill="#FFFFFF" filter="url(#f1bu111lj3ak4w)" points="16,157,83,157,90,179.2969,855,179.2969,855,729,16,729,16,157" style="stroke:#000000;stroke-width:1.5;"/><line style="stroke:#000000;stroke-width:1.5;" x1="16" x2="90" y1="179.2969" y2="179.2969"/><text fill="#000000" font-family="sans-serif" font-size="14" font-weight="bold" lengthAdjust="spacing" textLength="61" x="20" y="171.9951">Domain</text><!--MD5=[c016f4234e504521d41addb449fc6d8c]
class InsertPharmacyDataUI--><rect codeLine="17" fill="#FEFECE" filter="url(#f1bu111lj3ak4w)" height="48" id="InsertPharmacyDataUI" style="stroke:#A80036;stroke-width:1.5;" width="162" x="1040" y="41"/><ellipse cx="1055" cy="57" fill="#ADD1B2" rx="11" ry="11" style="stroke:#A80036;stroke-width:1.0;"/><path d="M1057.3438,52.6719 C1056.4063,52.2344 1055.8125,52.0938 1054.9375,52.0938 C1052.3125,52.0938 1050.3125,54.1719 1050.3125,56.8906 L1050.3125,58.0156 C1050.3125,60.5938 1052.4219,62.4844 1055.3125,62.4844 C1056.5313,62.4844 1057.6875,62.1875 1058.4375,61.6406 C1059.0156,61.2344 1059.3438,60.7813 1059.3438,60.3906 C1059.3438,59.9375 1058.9531,59.5469 1058.4844,59.5469 C1058.2656,59.5469 1058.0625,59.625 1057.875,59.8125 C1057.4219,60.2969 1057.4219,60.2969 1057.2344,60.3906 C1056.8125,60.6563 1056.125,60.7813 1055.3594,60.7813 C1053.3125,60.7813 1052.0156,59.6875 1052.0156,57.9844 L1052.0156,56.8906 C1052.0156,55.1094 1053.2656,53.7969 1055,53.7969 C1055.5781,53.7969 1056.1875,53.9531 1056.6563,54.2031 C1057.1406,54.4844 1057.3125,54.7031 1057.4063,55.1094 C1057.4688,55.5156 1057.5,55.6406 1057.6406,55.7656 C1057.7813,55.9063 1058.0156,56.0156 1058.2344,56.0156 C1058.5,56.0156 1058.7656,55.875 1058.9375,55.6563 C1059.0469,55.5 1059.0781,55.3125 1059.0781,54.8906 L1059.0781,53.4688 C1059.0781,53.0313 1059.0625,52.9063 1058.9688,52.75 C1058.8125,52.4844 1058.5313,52.3438 1058.2344,52.3438 C1057.9375,52.3438 1057.7344,52.4375 1057.5156,52.75 L1057.3438,52.6719 Z " fill="#000000"/><text fill="#000000" font-family="sans-serif" font-size="12" lengthAdjust="spacing" textLength="130" x="1069" y="61.1543">InsertPharmacyDataUI</text><line style="stroke:#A80036;stroke-width:1.5;" x1="1041" x2="1201" y1="73" y2="73"/><line style="stroke:#A80036;stroke-width:1.5;" x1="1041" x2="1201" y1="81" y2="81"/><!--MD5=[818d171c59d9c0805d2c2ea0d782fb66]
class InsertPharmacyDataController--><rect codeLine="20" fill="#FEFECE" filter="url(#f1bu111lj3ak4w)" height="99.2188" id="InsertPharmacyDataController" style="stroke:#A80036;stroke-width:1.5;" width="452" x="895" y="173"/><ellipse cx="1028.25" cy="189" fill="#ADD1B2" rx="11" ry="11" style="stroke:#A80036;stroke-width:1.0;"/><path d="M1030.5938,184.6719 C1029.6563,184.2344 1029.0625,184.0938 1028.1875,184.0938 C1025.5625,184.0938 1023.5625,186.1719 1023.5625,188.8906 L1023.5625,190.0156 C1023.5625,192.5938 1025.6719,194.4844 1028.5625,194.4844 C1029.7813,194.4844 1030.9375,194.1875 1031.6875,193.6406 C1032.2656,193.2344 1032.5938,192.7813 1032.5938,192.3906 C1032.5938,191.9375 1032.2031,191.5469 1031.7344,191.5469 C1031.5156,191.5469 1031.3125,191.625 1031.125,191.8125 C1030.6719,192.2969 1030.6719,192.2969 1030.4844,192.3906 C1030.0625,192.6563 1029.375,192.7813 1028.6094,192.7813 C1026.5625,192.7813 1025.2656,191.6875 1025.2656,189.9844 L1025.2656,188.8906 C1025.2656,187.1094 1026.5156,185.7969 1028.25,185.7969 C1028.8281,185.7969 1029.4375,185.9531 1029.9063,186.2031 C1030.3906,186.4844 1030.5625,186.7031 1030.6563,187.1094 C1030.7188,187.5156 1030.75,187.6406 1030.8906,187.7656 C1031.0313,187.9063 1031.2656,188.0156 1031.4844,188.0156 C1031.75,188.0156 1032.0156,187.875 1032.1875,187.6563 C1032.2969,187.5 1032.3281,187.3125 1032.3281,186.8906 L1032.3281,185.4688 C1032.3281,185.0313 1032.3125,184.9063 1032.2188,184.75 C1032.0625,184.4844 1031.7813,184.3438 1031.4844,184.3438 C1031.1875,184.3438 1030.9844,184.4375 1030.7656,184.75 L1030.5938,184.6719 Z " fill="#000000"/><text fill="#000000" font-family="sans-serif" font-size="12" lengthAdjust="spacing" textLength="177" x="1048.75" y="193.1543">InsertPharmacyDataController</text><line style="stroke:#A80036;stroke-width:1.5;" x1="896" x2="1346" y1="205" y2="205"/><line style="stroke:#A80036;stroke-width:1.5;" x1="896" x2="1346" y1="213" y2="213"/><ellipse cx="906" cy="224" fill="#84BE84" rx="3" ry="3" style="stroke:#038048;stroke-width:1.0;"/><text fill="#000000" font-family="sans-serif" font-size="11" lengthAdjust="spacing" textLength="426" x="915" y="227.2104">createAdress(street,locality,postalCode,decimalDegree1,decimalDegree2)</text><ellipse cx="906" cy="236.8047" fill="#84BE84" rx="3" ry="3" style="stroke:#038048;stroke-width:1.0;"/><text fill="#000000" font-family="sans-serif" font-size="11" lengthAdjust="spacing" textLength="288" x="915" y="240.0151">createPharmacy(designation,email,emailPassword)</text><ellipse cx="906" cy="249.6094" fill="#84BE84" rx="3" ry="3" style="stroke:#038048;stroke-width:1.0;"/><text fill="#000000" font-family="sans-serif" font-size="11" lengthAdjust="spacing" textLength="355" x="915" y="252.8198">createParkingLot(parkingLotSpots,parkingLotChargeSpots,type)</text><ellipse cx="906" cy="262.4141" fill="#84BE84" rx="3" ry="3" style="stroke:#038048;stroke-width:1.0;"/><text fill="#000000" font-family="sans-serif" font-size="11" lengthAdjust="spacing" textLength="107" x="915" y="265.6245">registerPharmacy()</text><!--MD5=[8050ef462d77cf220fd706493bc05cc9]
class PharmacyList--><rect codeLine="27" fill="#FEFECE" filter="url(#f1bu111lj3ak4w)" height="86.4141" id="PharmacyList" style="stroke:#A80036;stroke-width:1.5;" width="416" x="423" y="351"/><ellipse cx="588.25" cy="367" fill="#ADD1B2" rx="11" ry="11" style="stroke:#A80036;stroke-width:1.0;"/><path d="M590.5938,362.6719 C589.6563,362.2344 589.0625,362.0938 588.1875,362.0938 C585.5625,362.0938 583.5625,364.1719 583.5625,366.8906 L583.5625,368.0156 C583.5625,370.5938 585.6719,372.4844 588.5625,372.4844 C589.7813,372.4844 590.9375,372.1875 591.6875,371.6406 C592.2656,371.2344 592.5938,370.7813 592.5938,370.3906 C592.5938,369.9375 592.2031,369.5469 591.7344,369.5469 C591.5156,369.5469 591.3125,369.625 591.125,369.8125 C590.6719,370.2969 590.6719,370.2969 590.4844,370.3906 C590.0625,370.6563 589.375,370.7813 588.6094,370.7813 C586.5625,370.7813 585.2656,369.6875 585.2656,367.9844 L585.2656,366.8906 C585.2656,365.1094 586.5156,363.7969 588.25,363.7969 C588.8281,363.7969 589.4375,363.9531 589.9063,364.2031 C590.3906,364.4844 590.5625,364.7031 590.6563,365.1094 C590.7188,365.5156 590.75,365.6406 590.8906,365.7656 C591.0313,365.9063 591.2656,366.0156 591.4844,366.0156 C591.75,366.0156 592.0156,365.875 592.1875,365.6563 C592.2969,365.5 592.3281,365.3125 592.3281,364.8906 L592.3281,363.4688 C592.3281,363.0313 592.3125,362.9063 592.2188,362.75 C592.0625,362.4844 591.7813,362.3438 591.4844,362.3438 C591.1875,362.3438 590.9844,362.4375 590.7656,362.75 L590.5938,362.6719 Z " fill="#000000"/><text fill="#000000" font-family="sans-serif" font-size="12" lengthAdjust="spacing" textLength="77" x="608.75" y="371.1543">PharmacyList</text><line style="stroke:#A80036;stroke-width:1.5;" x1="424" x2="838" y1="383" y2="383"/><line style="stroke:#A80036;stroke-width:1.5;" x1="424" x2="838" y1="391" y2="391"/><ellipse cx="434" cy="402" fill="#84BE84" rx="3" ry="3" style="stroke:#038048;stroke-width:1.0;"/><text fill="#000000" font-family="sans-serif" font-size="11" lengthAdjust="spacing" textLength="390" x="443" y="405.2104">createPharmacy(designation,email,emailPassword,adress,parkingLot)</text><ellipse cx="434" cy="414.8047" fill="#84BE84" rx="3" ry="3" style="stroke:#038048;stroke-width:1.0;"/><text fill="#000000" font-family="sans-serif" font-size="11" lengthAdjust="spacing" textLength="165" x="443" y="418.0151">validatePharmacy(pharmacy)</text><ellipse cx="434" cy="427.6094" fill="#84BE84" rx="3" ry="3" style="stroke:#038048;stroke-width:1.0;"/><text fill="#000000" font-family="sans-serif" font-size="11" lengthAdjust="spacing" textLength="140" x="443" y="430.8198">addPharmacy(pharmacy)</text><!--MD5=[7f2a9fafcebe4f099f71398fd3e2ed00]
class Pharmacy--><rect codeLine="37" fill="#FEFECE" filter="url(#f1bu111lj3ak4w)" height="60.8047" id="Pharmacy" style="stroke:#A80036;stroke-width:1.5;" width="355" x="32.5" y="514"/><ellipse cx="177.25" cy="530" fill="#ADD1B2" rx="11" ry="11" style="stroke:#A80036;stroke-width:1.0;"/><path d="M179.5938,525.6719 C178.6563,525.2344 178.0625,525.0938 177.1875,525.0938 C174.5625,525.0938 172.5625,527.1719 172.5625,529.8906 L172.5625,531.0156 C172.5625,533.5938 174.6719,535.4844 177.5625,535.4844 C178.7813,535.4844 179.9375,535.1875 180.6875,534.6406 C181.2656,534.2344 181.5938,533.7813 181.5938,533.3906 C181.5938,532.9375 181.2031,532.5469 180.7344,532.5469 C180.5156,532.5469 180.3125,532.625 180.125,532.8125 C179.6719,533.2969 179.6719,533.2969 179.4844,533.3906 C179.0625,533.6563 178.375,533.7813 177.6094,533.7813 C175.5625,533.7813 174.2656,532.6875 174.2656,530.9844 L174.2656,529.8906 C174.2656,528.1094 175.5156,526.7969 177.25,526.7969 C177.8281,526.7969 178.4375,526.9531 178.9063,527.2031 C179.3906,527.4844 179.5625,527.7031 179.6563,528.1094 C179.7188,528.5156 179.75,528.6406 179.8906,528.7656 C180.0313,528.9063 180.2656,529.0156 180.4844,529.0156 C180.75,529.0156 181.0156,528.875 181.1875,528.6563 C181.2969,528.5 181.3281,528.3125 181.3281,527.8906 L181.3281,526.4688 C181.3281,526.0313 181.3125,525.9063 181.2188,525.75 C181.0625,525.4844 180.7813,525.3438 180.4844,525.3438 C180.1875,525.3438 179.9844,525.4375 179.7656,525.75 L179.5938,525.6719 Z " fill="#000000"/><text fill="#000000" font-family="sans-serif" font-size="12" lengthAdjust="spacing" textLength="57" x="197.75" y="534.1543">Pharmacy</text><line style="stroke:#A80036;stroke-width:1.5;" x1="33.5" x2="386.5" y1="546" y2="546"/><line style="stroke:#A80036;stroke-width:1.5;" x1="33.5" x2="386.5" y1="554" y2="554"/><ellipse cx="43.5" cy="565" fill="#84BE84" rx="3" ry="3" style="stroke:#038048;stroke-width:1.0;"/><text fill="#000000" font-family="sans-serif" font-size="11" lengthAdjust="spacing" textLength="329" x="52.5" y="568.2104">createPharmacy(designation,email,emailPassword,adress)</text><!--MD5=[b35291ba1c8cd17b5117d9f7197fc21c]
class Adress--><rect codeLine="33" fill="#FEFECE" filter="url(#f1bu111lj3ak4w)" height="60.8047" id="Adress" style="stroke:#A80036;stroke-width:1.5;" width="452" x="209" y="652"/><ellipse cx="409.25" cy="668" fill="#ADD1B2" rx="11" ry="11" style="stroke:#A80036;stroke-width:1.0;"/><path d="M411.5938,663.6719 C410.6563,663.2344 410.0625,663.0938 409.1875,663.0938 C406.5625,663.0938 404.5625,665.1719 404.5625,667.8906 L404.5625,669.0156 C404.5625,671.5938 406.6719,673.4844 409.5625,673.4844 C410.7813,673.4844 411.9375,673.1875 412.6875,672.6406 C413.2656,672.2344 413.5938,671.7813 413.5938,671.3906 C413.5938,670.9375 413.2031,670.5469 412.7344,670.5469 C412.5156,670.5469 412.3125,670.625 412.125,670.8125 C411.6719,671.2969 411.6719,671.2969 411.4844,671.3906 C411.0625,671.6563 410.375,671.7813 409.6094,671.7813 C407.5625,671.7813 406.2656,670.6875 406.2656,668.9844 L406.2656,667.8906 C406.2656,666.1094 407.5156,664.7969 409.25,664.7969 C409.8281,664.7969 410.4375,664.9531 410.9063,665.2031 C411.3906,665.4844 411.5625,665.7031 411.6563,666.1094 C411.7188,666.5156 411.75,666.6406 411.8906,666.7656 C412.0313,666.9063 412.2656,667.0156 412.4844,667.0156 C412.75,667.0156 413.0156,666.875 413.1875,666.6563 C413.2969,666.5 413.3281,666.3125 413.3281,665.8906 L413.3281,664.4688 C413.3281,664.0313 413.3125,663.9063 413.2188,663.75 C413.0625,663.4844 412.7813,663.3438 412.4844,663.3438 C412.1875,663.3438 411.9844,663.4375 411.7656,663.75 L411.5938,663.6719 Z " fill="#000000"/><text fill="#000000" font-family="sans-serif" font-size="12" lengthAdjust="spacing" textLength="43" x="429.75" y="672.1543">Adress</text><line style="stroke:#A80036;stroke-width:1.5;" x1="210" x2="660" y1="684" y2="684"/><line style="stroke:#A80036;stroke-width:1.5;" x1="210" x2="660" y1="692" y2="692"/><ellipse cx="220" cy="703" fill="#84BE84" rx="3" ry="3" style="stroke:#038048;stroke-width:1.0;"/><text fill="#000000" font-family="sans-serif" font-size="11" lengthAdjust="spacing" textLength="426" x="229" y="706.2104">createAdress(street,locality,postalCode,decimalDegree1,decimalDegree2)</text><!--MD5=[99b8db98afdc2c8404e39242ef4c1e65]
class Platform--><rect codeLine="41" fill="#FEFECE" filter="url(#f1bu111lj3ak4w)" height="60.8047" id="Platform" style="stroke:#A80036;stroke-width:1.5;" width="127" x="675.5" y="192"/><ellipse cx="711.65" cy="208" fill="#ADD1B2" rx="11" ry="11" style="stroke:#A80036;stroke-width:1.0;"/><path d="M713.9938,203.6719 C713.0563,203.2344 712.4625,203.0938 711.5875,203.0938 C708.9625,203.0938 706.9625,205.1719 706.9625,207.8906 L706.9625,209.0156 C706.9625,211.5938 709.0719,213.4844 711.9625,213.4844 C713.1813,213.4844 714.3375,213.1875 715.0875,212.6406 C715.6656,212.2344 715.9938,211.7813 715.9938,211.3906 C715.9938,210.9375 715.6031,210.5469 715.1344,210.5469 C714.9156,210.5469 714.7125,210.625 714.525,210.8125 C714.0719,211.2969 714.0719,211.2969 713.8844,211.3906 C713.4625,211.6563 712.775,211.7813 712.0094,211.7813 C709.9625,211.7813 708.6656,210.6875 708.6656,208.9844 L708.6656,207.8906 C708.6656,206.1094 709.9156,204.7969 711.65,204.7969 C712.2281,204.7969 712.8375,204.9531 713.3063,205.2031 C713.7906,205.4844 713.9625,205.7031 714.0563,206.1094 C714.1188,206.5156 714.15,206.6406 714.2906,206.7656 C714.4313,206.9063 714.6656,207.0156 714.8844,207.0156 C715.15,207.0156 715.4156,206.875 715.5875,206.6563 C715.6969,206.5 715.7281,206.3125 715.7281,205.8906 L715.7281,204.4688 C715.7281,204.0313 715.7125,203.9063 715.6188,203.75 C715.4625,203.4844 715.1813,203.3438 714.8844,203.3438 C714.5875,203.3438 714.3844,203.4375 714.1656,203.75 L713.9938,203.6719 Z " fill="#000000"/><text fill="#000000" font-family="sans-serif" font-size="12" lengthAdjust="spacing" textLength="48" x="730.35" y="212.1543">Platform</text><line style="stroke:#A80036;stroke-width:1.5;" x1="676.5" x2="801.5" y1="224" y2="224"/><line style="stroke:#A80036;stroke-width:1.5;" x1="676.5" x2="801.5" y1="232" y2="232"/><ellipse cx="686.5" cy="243" fill="#84BE84" rx="3" ry="3" style="stroke:#038048;stroke-width:1.0;"/><text fill="#000000" font-family="sans-serif" font-size="11" lengthAdjust="spacing" textLength="101" x="695.5" y="246.2104">getPharmacyList()</text><!--MD5=[8836a49f4083a7550430b1f83332c96a]
class ParkingLot--><rect codeLine="45" fill="#FEFECE" filter="url(#f1bu111lj3ak4w)" height="60.8047" id="ParkingLot" style="stroke:#A80036;stroke-width:1.5;" width="381" x="457.5" y="514"/><ellipse cx="613.25" cy="530" fill="#ADD1B2" rx="11" ry="11" style="stroke:#A80036;stroke-width:1.0;"/><path d="M615.5938,525.6719 C614.6563,525.2344 614.0625,525.0938 613.1875,525.0938 C610.5625,525.0938 608.5625,527.1719 608.5625,529.8906 L608.5625,531.0156 C608.5625,533.5938 610.6719,535.4844 613.5625,535.4844 C614.7813,535.4844 615.9375,535.1875 616.6875,534.6406 C617.2656,534.2344 617.5938,533.7813 617.5938,533.3906 C617.5938,532.9375 617.2031,532.5469 616.7344,532.5469 C616.5156,532.5469 616.3125,532.625 616.125,532.8125 C615.6719,533.2969 615.6719,533.2969 615.4844,533.3906 C615.0625,533.6563 614.375,533.7813 613.6094,533.7813 C611.5625,533.7813 610.2656,532.6875 610.2656,530.9844 L610.2656,529.8906 C610.2656,528.1094 611.5156,526.7969 613.25,526.7969 C613.8281,526.7969 614.4375,526.9531 614.9063,527.2031 C615.3906,527.4844 615.5625,527.7031 615.6563,528.1094 C615.7188,528.5156 615.75,528.6406 615.8906,528.7656 C616.0313,528.9063 616.2656,529.0156 616.4844,529.0156 C616.75,529.0156 617.0156,528.875 617.1875,528.6563 C617.2969,528.5 617.3281,528.3125 617.3281,527.8906 L617.3281,526.4688 C617.3281,526.0313 617.3125,525.9063 617.2188,525.75 C617.0625,525.4844 616.7813,525.3438 616.4844,525.3438 C616.1875,525.3438 615.9844,525.4375 615.7656,525.75 L615.5938,525.6719 Z " fill="#000000"/><text fill="#000000" font-family="sans-serif" font-size="12" lengthAdjust="spacing" textLength="61" x="633.75" y="534.1543">ParkingLot</text><line style="stroke:#A80036;stroke-width:1.5;" x1="458.5" x2="837.5" y1="546" y2="546"/><line style="stroke:#A80036;stroke-width:1.5;" x1="458.5" x2="837.5" y1="554" y2="554"/><ellipse cx="468.5" cy="565" fill="#84BE84" rx="3" ry="3" style="stroke:#038048;stroke-width:1.0;"/><text fill="#000000" font-family="sans-serif" font-size="11" lengthAdjust="spacing" textLength="355" x="477.5" y="568.2104">createParkingLot(parkingLotSpots,parkingLotChargeSpots,type)</text><!--MD5=[1ceeecdbccaa150f03f3019eed11a107]
link InsertPharmacyDataUI to InsertPharmacyDataController--><path codeLine="49" d="M1121,89.28 C1121,109.932 1121,140.887 1121,167.655 " fill="none" id="InsertPharmacyDataUI-to-InsertPharmacyDataController" style="stroke:#A80036;stroke-width:1.0;stroke-dasharray:7.0,7.0;"/><polygon fill="#A80036" points="1121,172.948,1125,163.948,1121,167.948,1117,163.948,1121,172.948" style="stroke:#A80036;stroke-width:1.0;"/><!--MD5=[dc9526bafcbc34db939234cdaf561f50]
link InsertPharmacyDataController to ParkingLot--><path codeLine="51" d="M1067.43,272.427 C1015.82,318.173 934.383,386.781 857,437 C813.252,465.391 760.972,492.029 719.643,511.562 " fill="none" id="InsertPharmacyDataController-to-ParkingLot" style="stroke:#A80036;stroke-width:1.0;stroke-dasharray:7.0,7.0;"/><polygon fill="#A80036" points="714.915,513.789,724.7615,513.5745,719.4387,511.6593,721.3539,506.3365,714.915,513.789" style="stroke:#A80036;stroke-width:1.0;"/><!--MD5=[6a7e447ea98ef3526e2521bf20c6cb78]
link InsertPharmacyDataController to Adress--><path codeLine="52" d="M1098.02,272.185 C1059.25,348.849 973.455,496.988 856,575 C799.765,612.35 731.364,636.602 666.186,652.3479 " fill="none" id="InsertPharmacyDataController-to-Adress" style="stroke:#A80036;stroke-width:1.0;stroke-dasharray:7.0,7.0;"/><polygon fill="#A80036" points="661.099,653.5613,670.7819,655.3615,665.9623,652.3999,668.9238,647.5803,661.099,653.5613" style="stroke:#A80036;stroke-width:1.0;"/><!--MD5=[8242e302f55e6b7f433cf1a6611dea7e]
link InsertPharmacyDataController to Platform--><path codeLine="53" d="M894.773,222.5 C865.789,222.5 836.805,222.5 807.821,222.5 " fill="none" id="InsertPharmacyDataController-to-Platform" style="stroke:#A80036;stroke-width:1.0;stroke-dasharray:7.0,7.0;"/><polygon fill="#A80036" points="802.791,222.5,811.791,226.5,807.791,222.5,811.791,218.5,802.791,222.5" style="stroke:#A80036;stroke-width:1.0;"/><!--MD5=[da2f00c22ae16a94f7737d9bb873814c]
link InsertPharmacyDataController to PharmacyList--><path codeLine="54" d="M980.586,272.072 C910.3,296.385 825.876,325.589 757.602,349.206 " fill="none" id="InsertPharmacyDataController-to-PharmacyList" style="stroke:#A80036;stroke-width:1.0;stroke-dasharray:7.0,7.0;"/><polygon fill="#A80036" points="752.715,350.897,762.5281,351.7358,757.4404,349.2628,759.9134,344.1752,752.715,350.897" style="stroke:#A80036;stroke-width:1.0;"/><!--MD5=[2bc5a413d94b08902b9f3d0151eb30f1]
link Platform to PharmacyList--><path codeLine="56" d="M720.188,253.025 C702.964,280.057 677.28,320.366 657.892,350.795 " fill="none" id="Platform-PharmacyList" style="stroke:#A80036;stroke-width:1.0;"/><text fill="#000000" font-family="sans-serif" font-size="13" lengthAdjust="spacing" textLength="33" x="686" y="317.0669">has&gt;</text><text fill="#000000" font-family="sans-serif" font-size="13" lengthAdjust="spacing" textLength="8" x="707.483" y="272.9684">1</text><text fill="#000000" font-family="sans-serif" font-size="13" lengthAdjust="spacing" textLength="8" x="653.3973" y="340.0762">1</text><!--MD5=[dcb9e7f24fda9389b72d4bf35ba5a068]
link PharmacyList to Pharmacy--><path codeLine="58" d="M511.765,437.058 C442.232,461.585 356.221,491.923 293.838,513.928 " fill="none" id="PharmacyList-Pharmacy" style="stroke:#A80036;stroke-width:1.0;"/><text fill="#000000" font-family="sans-serif" font-size="13" lengthAdjust="spacing" textLength="33" x="421" y="480.0669">has&gt;</text><text fill="#000000" font-family="sans-serif" font-size="13" lengthAdjust="spacing" textLength="8" x="483.3542" y="457.4753">1</text><text fill="#000000" font-family="sans-serif" font-size="13" lengthAdjust="spacing" textLength="7" x="304.4119" y="502.7025">*</text><!--MD5=[55f0023f3d7135b0af0bd85f6874eacf]
link Pharmacy to Adress--><path codeLine="60" d="M258.822,575.01 C296.432,597.744 348.202,629.035 385.886,651.8131 " fill="none" id="Pharmacy-Adress" style="stroke:#A80036;stroke-width:1.0;"/><text fill="#000000" font-family="sans-serif" font-size="13" lengthAdjust="spacing" textLength="33" x="336" y="618.0669">has&gt;</text><text fill="#000000" font-family="sans-serif" font-size="13" lengthAdjust="spacing" textLength="8" x="260.0665" y="594.9503">1</text><text fill="#000000" font-family="sans-serif" font-size="13" lengthAdjust="spacing" textLength="8" x="366.9312" y="641.0377">1</text><!--MD5=[54781ac671cb1a8ee43ddd26f3addf70]
link Pharmacy to ParkingLot--><path codeLine="61" d="M387.52,544.5 C410.522,544.5 434.158,544.5 457.361,544.5 " fill="none" id="Pharmacy-ParkingLot" style="stroke:#A80036;stroke-width:1.0;"/><text fill="#000000" font-family="sans-serif" font-size="13" lengthAdjust="spacing" textLength="33" x="406" y="537.5669">has&gt;</text><text fill="#000000" font-family="sans-serif" font-size="13" lengthAdjust="spacing" textLength="8" x="395.7451" y="541.2345">1</text><text fill="#000000" font-family="sans-serif" font-size="13" lengthAdjust="spacing" textLength="23" x="426.4649" y="556.8663">1..*</text><!--MD5=[4f58805ea112240961da3d90006c572a]
@startuml
package UI <<Folder>> {
  class InsertPharmacyDataUI
}

package Controllers <<Folder>> {
  class InsertPharmacyDataController
}

package Domain <<Folder>> {
  class PharmacyList
  class Pharmacy
  class Adress
  class Platform
  class ParkingLot
}

class InsertPharmacyDataUI {
}

class InsertPharmacyDataController {
    +createAdress(street,locality,postalCode,decimalDegree1,decimalDegree2)
    +createPharmacy(designation,email,emailPassword)
    +createParkingLot(parkingLotSpots,parkingLotChargeSpots,type)
    +registerPharmacy()
}

class PharmacyList {
    +createPharmacy(designation,email,emailPassword,adress,parkingLot)
    +validatePharmacy(pharmacy)
    +addPharmacy(pharmacy)
}

class Adress {
    +createAdress(street,locality,postalCode,decimalDegree1,decimalDegree2)
}

class Pharmacy {
    +createPharmacy(designation,email,emailPassword,adress)
}

class Platform {
    +getPharmacyList()
}

class ParkingLot {
    +createParkingLot(parkingLotSpots,parkingLotChargeSpots,type)
}

InsertPharmacyDataUI ..> InsertPharmacyDataController

InsertPharmacyDataController .> ParkingLot
InsertPharmacyDataController .> Adress
InsertPharmacyDataController .> Platform
InsertPharmacyDataController ..> PharmacyList

Platform "1" - - "1" PharmacyList : has>

PharmacyList "1" - - "*" Pharmacy : has>

Pharmacy "1" - - "1" Adress : has>
Pharmacy "1" - "1..*" ParkingLot : has>
@enduml

PlantUML version 1.2021.01beta3(Unknown compile time)
(GPL source distribution)
Java Runtime: Java(TM) SE Runtime Environment
JVM: Java HotSpot(TM) 64-Bit Server VM
Default Encoding: UTF-8
Language: en
Country: US
--></g></svg>