<?xml version="1.0" encoding="UTF-8" standalone="no"?><svg xmlns="http://www.w3.org/2000/svg" xmlns:xlink="http://www.w3.org/1999/xlink" contentScriptType="application/ecmascript" contentStyleType="text/css" height="545px" preserveAspectRatio="none" style="width:642px;height:545px;" version="1.1" viewBox="0 0 642 545" width="642px" zoomAndPan="magnify"><defs><filter height="300%" id="f1wwcwu97cp7ym" width="300%" x="-1" y="-1"><feGaussianBlur result="blurOut" stdDeviation="2.0"/><feColorMatrix in="blurOut" result="blurOut2" type="matrix" values="0 0 0 0 0 0 0 0 0 0 0 0 0 0 0 0 0 0 .4 0"/><feOffset dx="4.0" dy="4.0" in="blurOut2" result="blurOut3"/><feBlend in="SourceGraphic" in2="blurOut3" mode="normal"/></filter></defs><g><rect fill="#FFFFFF" filter="url(#f1wwcwu97cp7ym)" height="344.7266" style="stroke:#A80036;stroke-width:1.0;" width="10" x="68" y="98.2969"/><rect fill="#FFFFFF" filter="url(#f1wwcwu97cp7ym)" height="29.1328" style="stroke:#A80036;stroke-width:1.0;" width="10" x="575" y="119.4297"/><rect fill="#FFFFFF" filter="url(#f1wwcwu97cp7ym)" height="68.3984" style="stroke:#A80036;stroke-width:1.0;" width="10" x="575" y="251.0938"/><rect fill="#FFFFFF" filter="url(#f1wwcwu97cp7ym)" height="36.1328" style="stroke:#A80036;stroke-width:1.0;" width="10" x="575" y="348.625"/><rect fill="#FFFFFF" filter="url(#f1wwcwu97cp7ym)" height="29.1328" style="stroke:#A80036;stroke-width:1.0;" width="10" x="575" y="413.8906"/><rect fill="#FFFFFF" filter="url(#f1wwcwu97cp7ym)" height="90.5313" style="stroke:#000000;stroke-width:2.0;" width="618.5" x="10" y="266.0938"/><line style="stroke:#A80036;stroke-width:1.0;stroke-dasharray:5.0,5.0;" x1="73" x2="73" y1="88.2969" y2="461.0234"/><line style="stroke:#A80036;stroke-width:1.0;stroke-dasharray:5.0,5.0;" x1="579.5" x2="579.5" y1="88.2969" y2="461.0234"/><text fill="#000000" font-family="sans-serif" font-size="14" lengthAdjust="spacing" textLength="100" x="20" y="84.9951">Administrator</text><ellipse cx="73" cy="15" fill="#FEFECE" filter="url(#f1wwcwu97cp7ym)" rx="8" ry="8" style="stroke:#A80036;stroke-width:2.0;"/><path d="M73,23 L73,50 M60,31 L86,31 M73,50 L60,65 M73,50 L86,65 " fill="none" filter="url(#f1wwcwu97cp7ym)" style="stroke:#A80036;stroke-width:2.0;"/><text fill="#000000" font-family="sans-serif" font-size="14" lengthAdjust="spacing" textLength="100" x="20" y="473.0186">Administrator</text><ellipse cx="73" cy="486.3203" fill="#FEFECE" filter="url(#f1wwcwu97cp7ym)" rx="8" ry="8" style="stroke:#A80036;stroke-width:2.0;"/><path d="M73,494.3203 L73,521.3203 M60,502.3203 L86,502.3203 M73,521.3203 L60,536.3203 M73,521.3203 L86,536.3203 " fill="none" filter="url(#f1wwcwu97cp7ym)" style="stroke:#A80036;stroke-width:2.0;"/><rect fill="#FEFECE" filter="url(#f1wwcwu97cp7ym)" height="30.2969" style="stroke:#A80036;stroke-width:1.5;" width="73" x="541.5" y="53"/><text fill="#000000" font-family="sans-serif" font-size="14" lengthAdjust="spacing" textLength="59" x="548.5" y="72.9951">:System</text><rect fill="#FEFECE" filter="url(#f1wwcwu97cp7ym)" height="30.2969" style="stroke:#A80036;stroke-width:1.5;" width="73" x="541.5" y="460.0234"/><text fill="#000000" font-family="sans-serif" font-size="14" lengthAdjust="spacing" textLength="59" x="548.5" y="480.0186">:System</text><rect fill="#FFFFFF" filter="url(#f1wwcwu97cp7ym)" height="344.7266" style="stroke:#A80036;stroke-width:1.0;" width="10" x="68" y="98.2969"/><rect fill="#FFFFFF" filter="url(#f1wwcwu97cp7ym)" height="29.1328" style="stroke:#A80036;stroke-width:1.0;" width="10" x="575" y="119.4297"/><rect fill="#FFFFFF" filter="url(#f1wwcwu97cp7ym)" height="68.3984" style="stroke:#A80036;stroke-width:1.0;" width="10" x="575" y="251.0938"/><rect fill="#FFFFFF" filter="url(#f1wwcwu97cp7ym)" height="36.1328" style="stroke:#A80036;stroke-width:1.0;" width="10" x="575" y="348.625"/><rect fill="#FFFFFF" filter="url(#f1wwcwu97cp7ym)" height="29.1328" style="stroke:#A80036;stroke-width:1.0;" width="10" x="575" y="413.8906"/><polygon fill="#A80036" points="563,115.4297,573,119.4297,563,123.4297,567,119.4297" style="stroke:#A80036;stroke-width:1.0;"/><line style="stroke:#A80036;stroke-width:1.0;" x1="78" x2="569" y1="119.4297" y2="119.4297"/><text fill="#000000" font-family="sans-serif" font-size="13" font-weight="bold" lengthAdjust="spacing" textLength="9" x="85" y="114.3638">1</text><text fill="#000000" font-family="sans-serif" font-size="13" lengthAdjust="spacing" textLength="265" x="98" y="114.3638">initiates the insertion of a pharmacy data</text><polygon fill="#A80036" points="89,144.5625,79,148.5625,89,152.5625,85,148.5625" style="stroke:#A80036;stroke-width:1.0;"/><line style="stroke:#A80036;stroke-width:1.0;stroke-dasharray:2.0,2.0;" x1="83" x2="579" y1="148.5625" y2="148.5625"/><text fill="#000000" font-family="sans-serif" font-size="13" font-weight="bold" lengthAdjust="spacing" textLength="9" x="95" y="143.4966">2</text><text fill="#000000" font-family="sans-serif" font-size="13" lengthAdjust="spacing" textLength="460" x="108" y="143.4966">requests data about the pharmacy (designation, email, emailPassword)</text><polygon fill="#A80036" points="568,173.6953,578,177.6953,568,181.6953,572,177.6953" style="stroke:#A80036;stroke-width:1.0;"/><line style="stroke:#A80036;stroke-width:1.0;" x1="78" x2="574" y1="177.6953" y2="177.6953"/><text fill="#000000" font-family="sans-serif" font-size="13" font-weight="bold" lengthAdjust="spacing" textLength="8" x="85" y="172.6294">3</text><text fill="#000000" font-family="sans-serif" font-size="13" lengthAdjust="spacing" textLength="170" x="97" y="172.6294">inserts the requested data</text><polygon fill="#A80036" points="89,217.9609,79,221.9609,89,225.9609,85,221.9609" style="stroke:#A80036;stroke-width:1.0;"/><line style="stroke:#A80036;stroke-width:1.0;" x1="83" x2="579" y1="221.9609" y2="221.9609"/><text fill="#000000" font-family="sans-serif" font-size="13" font-weight="bold" lengthAdjust="spacing" textLength="9" x="95" y="209.3286">4</text><text fill="#000000" font-family="sans-serif" font-size="13" lengthAdjust="spacing" textLength="463" x="108" y="201.7622">requests data about the pharmacy adress (doorNumber, street, locality,</text><text fill="#000000" font-family="sans-serif" font-size="13" lengthAdjust="spacing" textLength="303" x="112" y="216.895">postalCode, decimalDegree1, decimalDegree2)</text><polygon fill="#A80036" points="563,247.0938,573,251.0938,563,255.0938,567,251.0938" style="stroke:#A80036;stroke-width:1.0;"/><line style="stroke:#A80036;stroke-width:1.0;" x1="78" x2="569" y1="251.0938" y2="251.0938"/><text fill="#000000" font-family="sans-serif" font-size="13" font-weight="bold" lengthAdjust="spacing" textLength="9" x="85" y="246.0278">5</text><text fill="#000000" font-family="sans-serif" font-size="13" lengthAdjust="spacing" textLength="170" x="98" y="246.0278">inserts the requested data</text><path d="M10,266.0938 L88,266.0938 L88,273.0938 L78,283.0938 L10,283.0938 L10,266.0938 " fill="#EEEEEE" style="stroke:#000000;stroke-width:1.0;"/><rect fill="none" height="90.5313" style="stroke:#000000;stroke-width:2.0;" width="618.5" x="10" y="266.0938"/><text fill="#000000" font-family="sans-serif" font-size="13" font-weight="bold" lengthAdjust="spacing" textLength="33" x="25" y="279.1606">loop</text><polygon fill="#A80036" points="89,315.4922,79,319.4922,89,323.4922,85,319.4922" style="stroke:#A80036;stroke-width:1.0;"/><line style="stroke:#A80036;stroke-width:1.0;stroke-dasharray:2.0,2.0;" x1="83" x2="579" y1="319.4922" y2="319.4922"/><text fill="#000000" font-family="sans-serif" font-size="13" font-weight="bold" lengthAdjust="spacing" textLength="9" x="95" y="306.8599">6</text><text fill="#000000" font-family="sans-serif" font-size="13" lengthAdjust="spacing" textLength="428" x="108" y="299.2935">requests data about the pharmacy parking lot(s) (parkingLotSpots,</text><text fill="#000000" font-family="sans-serif" font-size="13" lengthAdjust="spacing" textLength="191" x="112" y="314.4263">parkingLotChargeSpots, type)</text><polygon fill="#A80036" points="563,344.625,573,348.625,563,352.625,567,348.625" style="stroke:#A80036;stroke-width:1.0;"/><line style="stroke:#A80036;stroke-width:1.0;" x1="78" x2="569" y1="348.625" y2="348.625"/><text fill="#000000" font-family="sans-serif" font-size="13" font-weight="bold" lengthAdjust="spacing" textLength="9" x="85" y="343.5591">7</text><text fill="#000000" font-family="sans-serif" font-size="13" lengthAdjust="spacing" textLength="170" x="98" y="343.5591">inserts the requested data</text><polygon fill="#A80036" points="89,380.7578,79,384.7578,89,388.7578,85,384.7578" style="stroke:#A80036;stroke-width:1.0;"/><line style="stroke:#A80036;stroke-width:1.0;stroke-dasharray:2.0,2.0;" x1="83" x2="579" y1="384.7578" y2="384.7578"/><text fill="#000000" font-family="sans-serif" font-size="13" font-weight="bold" lengthAdjust="spacing" textLength="9" x="95" y="379.6919">8</text><text fill="#000000" font-family="sans-serif" font-size="13" lengthAdjust="spacing" textLength="328" x="108" y="379.6919">shows the inserted data and requests confirmation</text><polygon fill="#A80036" points="563,409.8906,573,413.8906,563,417.8906,567,413.8906" style="stroke:#A80036;stroke-width:1.0;"/><line style="stroke:#A80036;stroke-width:1.0;" x1="78" x2="569" y1="413.8906" y2="413.8906"/><text fill="#000000" font-family="sans-serif" font-size="13" font-weight="bold" lengthAdjust="spacing" textLength="9" x="85" y="408.8247">9</text><text fill="#000000" font-family="sans-serif" font-size="13" lengthAdjust="spacing" textLength="56" x="98" y="408.8247">confirms</text><polygon fill="#A80036" points="84,439.0234,74,443.0234,84,447.0234,80,443.0234" style="stroke:#A80036;stroke-width:1.0;"/><line style="stroke:#A80036;stroke-width:1.0;stroke-dasharray:2.0,2.0;" x1="78" x2="579" y1="443.0234" y2="443.0234"/><text fill="#000000" font-family="sans-serif" font-size="13" font-weight="bold" lengthAdjust="spacing" textLength="19" x="90" y="437.9575">10</text><text fill="#000000" font-family="sans-serif" font-size="13" lengthAdjust="spacing" textLength="236" x="113" y="437.9575">informs the success of the operation</text><!--MD5=[6c7b261669a3b0862c416cd73f536112]
@startuml
autonumber
actor "Administrator" as ADM
participant ":System" as SYS

activate ADM
ADM -> SYS : initiates the insertion of a pharmacy data

activate SYS
SYS - -> ADM : requests data about the pharmacy (designation, email, emailPassword) 
deactivate SYS

ADM -> SYS : inserts the requested data

SYS -> ADM : requests data about the pharmacy adress (doorNumber, street, locality,\n postalCode, decimalDegree1, decimalDegree2)
deactivate SYS

ADM -> SYS : inserts the requested data

loop
activate SYS
SYS - -> ADM : requests data about the pharmacy parking lot(s) (parkingLotSpots,\n parkingLotChargeSpots, type)
deactivate SYS

ADM -> SYS : inserts the requested data

activate SYS
end loop

activate SYS
SYS - -> ADM : shows the inserted data and requests confirmation
deactivate SYS

ADM -> SYS : confirms

activate SYS
SYS - -> ADM : informs the success of the operation
deactivate SYS
deactivate ADM
@enduml

PlantUML version 1.2021.01beta3(Unknown compile time)
(GPL source distribution)
Java Runtime: Java(TM) SE Runtime Environment
JVM: Java HotSpot(TM) 64-Bit Server VM
Default Encoding: UTF-8
Language: en
Country: US
--></g></svg>