<?xml version="1.0" encoding="UTF-8" standalone="no"?><svg xmlns="http://www.w3.org/2000/svg" xmlns:xlink="http://www.w3.org/1999/xlink" contentScriptType="application/ecmascript" contentStyleType="text/css" height="328px" preserveAspectRatio="none" style="width:657px;height:328px;" version="1.1" viewBox="0 0 657 328" width="657px" zoomAndPan="magnify"><defs><filter height="300%" id="f19m8b3m1p8qxf" width="300%" x="-1" y="-1"><feGaussianBlur result="blurOut" stdDeviation="2.0"/><feColorMatrix in="blurOut" result="blurOut2" type="matrix" values="0 0 0 0 0 0 0 0 0 0 0 0 0 0 0 0 0 0 .4 0"/><feOffset dx="4.0" dy="4.0" in="blurOut2" result="blurOut3"/><feBlend in="SourceGraphic" in2="blurOut3" mode="normal"/></filter></defs><g><!--MD5=[99b8db98afdc2c8404e39242ef4c1e65]
class Platform--><rect codeLine="3" fill="#FEFECE" filter="url(#f19m8b3m1p8qxf)" height="48" id="Platform" style="stroke:#A80036;stroke-width:1.5;" width="80" x="7" y="86"/><ellipse cx="22" cy="102" fill="#ADD1B2" rx="11" ry="11" style="stroke:#A80036;stroke-width:1.0;"/><path d="M24.3438,97.6719 C23.4063,97.2344 22.8125,97.0938 21.9375,97.0938 C19.3125,97.0938 17.3125,99.1719 17.3125,101.8906 L17.3125,103.0156 C17.3125,105.5938 19.4219,107.4844 22.3125,107.4844 C23.5313,107.4844 24.6875,107.1875 25.4375,106.6406 C26.0156,106.2344 26.3438,105.7813 26.3438,105.3906 C26.3438,104.9375 25.9531,104.5469 25.4844,104.5469 C25.2656,104.5469 25.0625,104.625 24.875,104.8125 C24.4219,105.2969 24.4219,105.2969 24.2344,105.3906 C23.8125,105.6563 23.125,105.7813 22.3594,105.7813 C20.3125,105.7813 19.0156,104.6875 19.0156,102.9844 L19.0156,101.8906 C19.0156,100.1094 20.2656,98.7969 22,98.7969 C22.5781,98.7969 23.1875,98.9531 23.6563,99.2031 C24.1406,99.4844 24.3125,99.7031 24.4063,100.1094 C24.4688,100.5156 24.5,100.6406 24.6406,100.7656 C24.7813,100.9063 25.0156,101.0156 25.2344,101.0156 C25.5,101.0156 25.7656,100.875 25.9375,100.6563 C26.0469,100.5 26.0781,100.3125 26.0781,99.8906 L26.0781,98.4688 C26.0781,98.0313 26.0625,97.9063 25.9688,97.75 C25.8125,97.4844 25.5313,97.3438 25.2344,97.3438 C24.9375,97.3438 24.7344,97.4375 24.5156,97.75 L24.3438,97.6719 Z " fill="#000000"/><text fill="#000000" font-family="sans-serif" font-size="12" lengthAdjust="spacing" textLength="48" x="36" y="106.1543">Platform</text><line style="stroke:#A80036;stroke-width:1.5;" x1="8" x2="86" y1="118" y2="118"/><line style="stroke:#A80036;stroke-width:1.5;" x1="8" x2="86" y1="126" y2="126"/><!--MD5=[da547346deef918ea16944ba046651ef]
class Administrator--><rect codeLine="6" fill="#FEFECE" filter="url(#f19m8b3m1p8qxf)" height="86.4141" id="Administrator" style="stroke:#A80036;stroke-width:1.5;" width="116" x="222.5" y="7"/><ellipse cx="239.3" cy="23" fill="#ADD1B2" rx="11" ry="11" style="stroke:#A80036;stroke-width:1.0;"/><path d="M241.6438,18.6719 C240.7063,18.2344 240.1125,18.0938 239.2375,18.0938 C236.6125,18.0938 234.6125,20.1719 234.6125,22.8906 L234.6125,24.0156 C234.6125,26.5938 236.7219,28.4844 239.6125,28.4844 C240.8313,28.4844 241.9875,28.1875 242.7375,27.6406 C243.3156,27.2344 243.6438,26.7813 243.6438,26.3906 C243.6438,25.9375 243.2531,25.5469 242.7844,25.5469 C242.5656,25.5469 242.3625,25.625 242.175,25.8125 C241.7219,26.2969 241.7219,26.2969 241.5344,26.3906 C241.1125,26.6563 240.425,26.7813 239.6594,26.7813 C237.6125,26.7813 236.3156,25.6875 236.3156,23.9844 L236.3156,22.8906 C236.3156,21.1094 237.5656,19.7969 239.3,19.7969 C239.8781,19.7969 240.4875,19.9531 240.9563,20.2031 C241.4406,20.4844 241.6125,20.7031 241.7063,21.1094 C241.7688,21.5156 241.8,21.6406 241.9406,21.7656 C242.0813,21.9063 242.3156,22.0156 242.5344,22.0156 C242.8,22.0156 243.0656,21.875 243.2375,21.6563 C243.3469,21.5 243.3781,21.3125 243.3781,20.8906 L243.3781,19.4688 C243.3781,19.0313 243.3625,18.9063 243.2688,18.75 C243.1125,18.4844 242.8313,18.3438 242.5344,18.3438 C242.2375,18.3438 242.0344,18.4375 241.8156,18.75 L241.6438,18.6719 Z " fill="#000000"/><text fill="#000000" font-family="sans-serif" font-size="12" lengthAdjust="spacing" textLength="80" x="253.7" y="27.1543">Administrator</text><line style="stroke:#A80036;stroke-width:1.5;" x1="223.5" x2="337.5" y1="39" y2="39"/><rect fill="none" height="6" style="stroke:#C82930;stroke-width:1.0;" width="6" x="230.5" y="47"/><text fill="#000000" font-family="sans-serif" font-size="11" lengthAdjust="spacing" textLength="47" x="242.5" y="53.2104">String id</text><rect fill="none" height="6" style="stroke:#C82930;stroke-width:1.0;" width="6" x="230.5" y="59.8047"/><text fill="#000000" font-family="sans-serif" font-size="11" lengthAdjust="spacing" textLength="70" x="242.5" y="66.0151">String name</text><rect fill="none" height="6" style="stroke:#C82930;stroke-width:1.0;" width="6" x="230.5" y="72.6094"/><text fill="#000000" font-family="sans-serif" font-size="11" lengthAdjust="spacing" textLength="90" x="242.5" y="78.8198">String password</text><line style="stroke:#A80036;stroke-width:1.5;" x1="223.5" x2="337.5" y1="85.4141" y2="85.4141"/><!--MD5=[7f2a9fafcebe4f099f71398fd3e2ed00]
class Pharmacy--><rect codeLine="12" fill="#FEFECE" filter="url(#f19m8b3m1p8qxf)" height="86.4141" id="Pharmacy" style="stroke:#A80036;stroke-width:1.5;" width="129" x="216" y="145"/><ellipse cx="249" cy="161" fill="#ADD1B2" rx="11" ry="11" style="stroke:#A80036;stroke-width:1.0;"/><path d="M251.3438,156.6719 C250.4063,156.2344 249.8125,156.0938 248.9375,156.0938 C246.3125,156.0938 244.3125,158.1719 244.3125,160.8906 L244.3125,162.0156 C244.3125,164.5938 246.4219,166.4844 249.3125,166.4844 C250.5313,166.4844 251.6875,166.1875 252.4375,165.6406 C253.0156,165.2344 253.3438,164.7813 253.3438,164.3906 C253.3438,163.9375 252.9531,163.5469 252.4844,163.5469 C252.2656,163.5469 252.0625,163.625 251.875,163.8125 C251.4219,164.2969 251.4219,164.2969 251.2344,164.3906 C250.8125,164.6563 250.125,164.7813 249.3594,164.7813 C247.3125,164.7813 246.0156,163.6875 246.0156,161.9844 L246.0156,160.8906 C246.0156,159.1094 247.2656,157.7969 249,157.7969 C249.5781,157.7969 250.1875,157.9531 250.6563,158.2031 C251.1406,158.4844 251.3125,158.7031 251.4063,159.1094 C251.4688,159.5156 251.5,159.6406 251.6406,159.7656 C251.7813,159.9063 252.0156,160.0156 252.2344,160.0156 C252.5,160.0156 252.7656,159.875 252.9375,159.6563 C253.0469,159.5 253.0781,159.3125 253.0781,158.8906 L253.0781,157.4688 C253.0781,157.0313 253.0625,156.9063 252.9688,156.75 C252.8125,156.4844 252.5313,156.3438 252.2344,156.3438 C251.9375,156.3438 251.7344,156.4375 251.5156,156.75 L251.3438,156.6719 Z " fill="#000000"/><text fill="#000000" font-family="sans-serif" font-size="12" lengthAdjust="spacing" textLength="57" x="267" y="165.1543">Pharmacy</text><line style="stroke:#A80036;stroke-width:1.5;" x1="217" x2="344" y1="177" y2="177"/><rect fill="none" height="6" style="stroke:#C82930;stroke-width:1.0;" width="6" x="224" y="185"/><text fill="#000000" font-family="sans-serif" font-size="11" lengthAdjust="spacing" textLength="47" x="236" y="191.2104">String id</text><rect fill="none" height="6" style="stroke:#C82930;stroke-width:1.0;" width="6" x="224" y="197.8047"/><text fill="#000000" font-family="sans-serif" font-size="11" lengthAdjust="spacing" textLength="103" x="236" y="204.0151">String designation</text><rect fill="none" height="6" style="stroke:#C82930;stroke-width:1.0;" width="6" x="224" y="210.6094"/><text fill="#000000" font-family="sans-serif" font-size="11" lengthAdjust="spacing" textLength="69" x="236" y="216.8198">String email</text><line style="stroke:#A80036;stroke-width:1.5;" x1="217" x2="344" y1="223.4141" y2="223.4141"/><!--MD5=[b35291ba1c8cd17b5117d9f7197fc21c]
class Adress--><rect codeLine="18" fill="#FEFECE" filter="url(#f19m8b3m1p8qxf)" height="137.6328" id="Adress" style="stroke:#A80036;stroke-width:1.5;" width="169" x="474" y="42"/><ellipse cx="532.75" cy="58" fill="#ADD1B2" rx="11" ry="11" style="stroke:#A80036;stroke-width:1.0;"/><path d="M535.0938,53.6719 C534.1563,53.2344 533.5625,53.0938 532.6875,53.0938 C530.0625,53.0938 528.0625,55.1719 528.0625,57.8906 L528.0625,59.0156 C528.0625,61.5938 530.1719,63.4844 533.0625,63.4844 C534.2813,63.4844 535.4375,63.1875 536.1875,62.6406 C536.7656,62.2344 537.0938,61.7813 537.0938,61.3906 C537.0938,60.9375 536.7031,60.5469 536.2344,60.5469 C536.0156,60.5469 535.8125,60.625 535.625,60.8125 C535.1719,61.2969 535.1719,61.2969 534.9844,61.3906 C534.5625,61.6563 533.875,61.7813 533.1094,61.7813 C531.0625,61.7813 529.7656,60.6875 529.7656,58.9844 L529.7656,57.8906 C529.7656,56.1094 531.0156,54.7969 532.75,54.7969 C533.3281,54.7969 533.9375,54.9531 534.4063,55.2031 C534.8906,55.4844 535.0625,55.7031 535.1563,56.1094 C535.2188,56.5156 535.25,56.6406 535.3906,56.7656 C535.5313,56.9063 535.7656,57.0156 535.9844,57.0156 C536.25,57.0156 536.5156,56.875 536.6875,56.6563 C536.7969,56.5 536.8281,56.3125 536.8281,55.8906 L536.8281,54.4688 C536.8281,54.0313 536.8125,53.9063 536.7188,53.75 C536.5625,53.4844 536.2813,53.3438 535.9844,53.3438 C535.6875,53.3438 535.4844,53.4375 535.2656,53.75 L535.0938,53.6719 Z " fill="#000000"/><text fill="#000000" font-family="sans-serif" font-size="12" lengthAdjust="spacing" textLength="43" x="553.25" y="62.1543">Adress</text><line style="stroke:#A80036;stroke-width:1.5;" x1="475" x2="642" y1="74" y2="74"/><rect fill="none" height="6" style="stroke:#C82930;stroke-width:1.0;" width="6" x="482" y="82"/><text fill="#000000" font-family="sans-serif" font-size="11" lengthAdjust="spacing" textLength="47" x="494" y="88.2104">String id</text><rect fill="none" height="6" style="stroke:#C82930;stroke-width:1.0;" width="6" x="482" y="94.8047"/><text fill="#000000" font-family="sans-serif" font-size="11" lengthAdjust="spacing" textLength="107" x="494" y="101.0151">String doorNumber</text><rect fill="none" height="6" style="stroke:#C82930;stroke-width:1.0;" width="6" x="482" y="107.6094"/><text fill="#000000" font-family="sans-serif" font-size="11" lengthAdjust="spacing" textLength="71" x="494" y="113.8198">String street</text><rect fill="none" height="6" style="stroke:#C82930;stroke-width:1.0;" width="6" x="482" y="120.4141"/><text fill="#000000" font-family="sans-serif" font-size="11" lengthAdjust="spacing" textLength="77" x="494" y="126.6245">String locality</text><rect fill="none" height="6" style="stroke:#C82930;stroke-width:1.0;" width="6" x="482" y="133.2188"/><text fill="#000000" font-family="sans-serif" font-size="11" lengthAdjust="spacing" textLength="101" x="494" y="139.4292">String postalCode</text><rect fill="none" height="6" style="stroke:#C82930;stroke-width:1.0;" width="6" x="482" y="146.0234"/><text fill="#000000" font-family="sans-serif" font-size="11" lengthAdjust="spacing" textLength="143" x="494" y="152.2339">Double DecimalDegree1</text><rect fill="none" height="6" style="stroke:#C82930;stroke-width:1.0;" width="6" x="482" y="158.8281"/><text fill="#000000" font-family="sans-serif" font-size="11" lengthAdjust="spacing" textLength="143" x="494" y="165.0386">Double DecimalDegree2</text><line style="stroke:#A80036;stroke-width:1.5;" x1="475" x2="642" y1="171.6328" y2="171.6328"/><!--MD5=[8836a49f4083a7550430b1f83332c96a]
class ParkingLot--><rect codeLine="28" fill="#FEFECE" filter="url(#f19m8b3m1p8qxf)" height="99.2188" id="ParkingLot" style="stroke:#A80036;stroke-width:1.5;" width="115" x="501" y="215.5"/><ellipse cx="525.9" cy="231.5" fill="#ADD1B2" rx="11" ry="11" style="stroke:#A80036;stroke-width:1.0;"/><path d="M528.2438,227.1719 C527.3063,226.7344 526.7125,226.5938 525.8375,226.5938 C523.2125,226.5938 521.2125,228.6719 521.2125,231.3906 L521.2125,232.5156 C521.2125,235.0938 523.3219,236.9844 526.2125,236.9844 C527.4313,236.9844 528.5875,236.6875 529.3375,236.1406 C529.9156,235.7344 530.2438,235.2813 530.2438,234.8906 C530.2438,234.4375 529.8531,234.0469 529.3844,234.0469 C529.1656,234.0469 528.9625,234.125 528.775,234.3125 C528.3219,234.7969 528.3219,234.7969 528.1344,234.8906 C527.7125,235.1563 527.025,235.2813 526.2594,235.2813 C524.2125,235.2813 522.9156,234.1875 522.9156,232.4844 L522.9156,231.3906 C522.9156,229.6094 524.1656,228.2969 525.9,228.2969 C526.4781,228.2969 527.0875,228.4531 527.5563,228.7031 C528.0406,228.9844 528.2125,229.2031 528.3063,229.6094 C528.3688,230.0156 528.4,230.1406 528.5406,230.2656 C528.6813,230.4063 528.9156,230.5156 529.1344,230.5156 C529.4,230.5156 529.6656,230.375 529.8375,230.1563 C529.9469,230 529.9781,229.8125 529.9781,229.3906 L529.9781,227.9688 C529.9781,227.5313 529.9625,227.4063 529.8688,227.25 C529.7125,226.9844 529.4313,226.8438 529.1344,226.8438 C528.8375,226.8438 528.6344,226.9375 528.4156,227.25 L528.2438,227.1719 Z " fill="#000000"/><text fill="#000000" font-family="sans-serif" font-size="12" lengthAdjust="spacing" textLength="61" x="542.1" y="235.6543">ParkingLot</text><line style="stroke:#A80036;stroke-width:1.5;" x1="502" x2="615" y1="247.5" y2="247.5"/><rect fill="none" height="6" style="stroke:#C82930;stroke-width:1.0;" width="6" x="509" y="255.5"/><text fill="#000000" font-family="sans-serif" font-size="11" lengthAdjust="spacing" textLength="47" x="521" y="261.7104">String id</text><rect fill="none" height="6" style="stroke:#C82930;stroke-width:1.0;" width="6" x="509" y="268.3047"/><text fill="#000000" font-family="sans-serif" font-size="11" lengthAdjust="spacing" textLength="75" x="521" y="274.5151">int totalSpots</text><rect fill="none" height="6" style="stroke:#C82930;stroke-width:1.0;" width="6" x="509" y="281.1094"/><text fill="#000000" font-family="sans-serif" font-size="11" lengthAdjust="spacing" textLength="89" x="521" y="287.3198">int chargeSpots</text><rect fill="none" height="6" style="stroke:#C82930;stroke-width:1.0;" width="6" x="509" y="293.9141"/><text fill="#000000" font-family="sans-serif" font-size="11" lengthAdjust="spacing" textLength="63" x="521" y="300.1245">String type</text><line style="stroke:#A80036;stroke-width:1.5;" x1="502" x2="615" y1="306.7188" y2="306.7188"/><!--MD5=[4a07f137c208f82f57837154e1cfa51e]
link Platform to Pharmacy--><path codeLine="35" d="M87.009,123.143 C122.188,134.996 174.578,152.648 215.823,166.545 " fill="none" id="Platform-Pharmacy" style="stroke:#A80036;stroke-width:1.0;"/><polygon fill="#000000" points="126.7383,129.1629,119.1051,123.4897,117.2283,129.0599,126.7383,129.1629" style="stroke:#000000;stroke-width:1.0;"/><text fill="#000000" font-family="sans-serif" font-size="13" lengthAdjust="spacing" textLength="54" x="131" y="132.0669">contains</text><text fill="#000000" font-family="sans-serif" font-size="13" lengthAdjust="spacing" textLength="8" x="95.1232" y="139.0282">1</text><text fill="#000000" font-family="sans-serif" font-size="13" lengthAdjust="spacing" textLength="7" x="200.94" y="176.9821">*</text><!--MD5=[0f7004bed4496639b3a5258ab2ead378]
link Platform to Administrator--><path codeLine="36" d="M87.009,99.89 C123.992,90.305 179.996,75.789 222.077,64.883 " fill="none" id="Platform-Administrator" style="stroke:#A80036;stroke-width:1.0;"/><polygon fill="#000000" points="126.8401,65.312,117.3469,64.7364,118.8216,70.4262,126.8401,65.312" style="stroke:#000000;stroke-width:1.0;"/><text fill="#000000" font-family="sans-serif" font-size="13" lengthAdjust="spacing" textLength="54" x="131" y="71.0669">contains</text><text fill="#000000" font-family="sans-serif" font-size="13" lengthAdjust="spacing" textLength="8" x="95.1232" y="111.4879">1</text><text fill="#000000" font-family="sans-serif" font-size="13" lengthAdjust="spacing" textLength="7" x="207.5301" y="79.6607">*</text><!--MD5=[54781ac671cb1a8ee43ddd26f3addf70]
link Pharmacy to ParkingLot--><path codeLine="38" d="M345.167,205.762 C392.13,218.8642 455.465,236.5336 500.715,249.1577 " fill="none" id="Pharmacy-ParkingLot" style="stroke:#A80036;stroke-width:1.0;"/><polygon fill="#000000" points="384.8161,207.91,376.8935,202.6486,375.3139,208.3102,384.8161,207.91" style="stroke:#000000;stroke-width:1.0;"/><text fill="#000000" font-family="sans-serif" font-size="13" lengthAdjust="spacing" textLength="54" x="389" y="211.0669">contains</text><text fill="#000000" font-family="sans-serif" font-size="13" lengthAdjust="spacing" textLength="8" x="353.1066" y="220.7336">1</text><text fill="#000000" font-family="sans-serif" font-size="13" lengthAdjust="spacing" textLength="23" x="470.137" y="260.3075">1..*</text><!--MD5=[55f0023f3d7135b0af0bd85f6874eacf]
link Pharmacy to Adress--><path codeLine="39" d="M345.167,170.238 C383.374,159.579 432.417,145.896 473.743,134.367 " fill="none" id="Pharmacy-Adress" style="stroke:#A80036;stroke-width:1.0;"/><polygon fill="#000000" points="384.8161,135.2228,375.3139,134.8226,376.8935,140.4842,384.8161,135.2228" style="stroke:#000000;stroke-width:1.0;"/><text fill="#000000" font-family="sans-serif" font-size="13" lengthAdjust="spacing" textLength="54" x="389" y="141.0669">contains</text><text fill="#000000" font-family="sans-serif" font-size="13" lengthAdjust="spacing" textLength="8" x="353.1066" y="181.1021">1</text><text fill="#000000" font-family="sans-serif" font-size="13" lengthAdjust="spacing" textLength="8" x="458.1154" y="149.108">1</text><!--MD5=[8aaadde0a51a6974a75b41b6a40c57cb]
link Administrator to Pharmacy--><path codeLine="41" d="M280.5,93.132 C280.5,109.559 280.5,128.273 280.5,144.715 " fill="none" id="Administrator-Pharmacy" style="stroke:#A80036;stroke-width:1.0;"/><polygon fill="#000000" points="238.5,124.0664,241.4389,115.0213,235.5611,115.0213,238.5,124.0664" style="stroke:#000000;stroke-width:1.0;"/><text fill="#000000" font-family="sans-serif" font-size="13" lengthAdjust="spacing" textLength="56" x="247.5" y="123.5669">registers</text><text fill="#000000" font-family="sans-serif" font-size="13" lengthAdjust="spacing" textLength="8" x="271.8375" y="113.5615">1</text><text fill="#000000" font-family="sans-serif" font-size="13" lengthAdjust="spacing" textLength="8" x="271.8875" y="133.9839">1</text><!--MD5=[bb79ff6d6a51cc2c5b7614332dbc1abd]
@startuml
left to right direction

class Platform{
}

class Administrator{
  -String id
  -String name
  -String password
}

class Pharmacy {
  -String id
  -String designation
  -String email
}

class Adress {
  -String id
  -String doorNumber
  -String street
  -String locality
  -String postalCode
  -Double DecimalDegree1
  -Double DecimalDegree2
}

class ParkingLot {
  -String id
  -int totalSpots
  -int chargeSpots
  -String type
}

Platform"1" - - "*"Pharmacy : contains >
Platform"1" - - "*"Administrator : contains >

Pharmacy"1" - - "1..*" ParkingLot : contains >
Pharmacy"1" - - "1" Adress : contains >

Administrator"1" - "1" Pharmacy : registers >
@enduml

PlantUML version 1.2021.01beta3(Unknown compile time)
(GPL source distribution)
Java Runtime: Java(TM) SE Runtime Environment
JVM: Java HotSpot(TM) 64-Bit Server VM
Default Encoding: UTF-8
Language: en
Country: US
--></g></svg>