<?xml version="1.0" encoding="UTF-8" standalone="no"?><svg xmlns="http://www.w3.org/2000/svg" xmlns:xlink="http://www.w3.org/1999/xlink" contentScriptType="application/ecmascript" contentStyleType="text/css" height="264px" preserveAspectRatio="none" style="width:618px;height:264px;" version="1.1" viewBox="0 0 618 264" width="618px" zoomAndPan="magnify"><defs><filter height="300%" id="f1fghhdcd0tklt" width="300%" x="-1" y="-1"><feGaussianBlur result="blurOut" stdDeviation="2.0"/><feColorMatrix in="blurOut" result="blurOut2" type="matrix" values="0 0 0 0 0 0 0 0 0 0 0 0 0 0 0 0 0 0 .4 0"/><feOffset dx="4.0" dy="4.0" in="blurOut2" result="blurOut3"/><feBlend in="SourceGraphic" in2="blurOut3" mode="normal"/></filter></defs><g><!--MD5=[99b8db98afdc2c8404e39242ef4c1e65]
class Platform--><rect codeLine="6" fill="#FEFECE" filter="url(#f1fghhdcd0tklt)" height="40" id="Platform" style="stroke:#A80036;stroke-width:1.5;" width="80" x="7" y="88"/><ellipse cx="22" cy="104" fill="#ADD1B2" rx="11" ry="11" style="stroke:#A80036;stroke-width:1.0;"/><path d="M24.3438,99.6719 C23.4063,99.2344 22.8125,99.0938 21.9375,99.0938 C19.3125,99.0938 17.3125,101.1719 17.3125,103.8906 L17.3125,105.0156 C17.3125,107.5938 19.4219,109.4844 22.3125,109.4844 C23.5313,109.4844 24.6875,109.1875 25.4375,108.6406 C26.0156,108.2344 26.3438,107.7813 26.3438,107.3906 C26.3438,106.9375 25.9531,106.5469 25.4844,106.5469 C25.2656,106.5469 25.0625,106.625 24.875,106.8125 C24.4219,107.2969 24.4219,107.2969 24.2344,107.3906 C23.8125,107.6563 23.125,107.7813 22.3594,107.7813 C20.3125,107.7813 19.0156,106.6875 19.0156,104.9844 L19.0156,103.8906 C19.0156,102.1094 20.2656,100.7969 22,100.7969 C22.5781,100.7969 23.1875,100.9531 23.6563,101.2031 C24.1406,101.4844 24.3125,101.7031 24.4063,102.1094 C24.4688,102.5156 24.5,102.6406 24.6406,102.7656 C24.7813,102.9063 25.0156,103.0156 25.2344,103.0156 C25.5,103.0156 25.7656,102.875 25.9375,102.6563 C26.0469,102.5 26.0781,102.3125 26.0781,101.8906 L26.0781,100.4688 C26.0781,100.0313 26.0625,99.9063 25.9688,99.75 C25.8125,99.4844 25.5313,99.3438 25.2344,99.3438 C24.9375,99.3438 24.7344,99.4375 24.5156,99.75 L24.3438,99.6719 Z " fill="#000000"/><text fill="#000000" font-family="sans-serif" font-size="12" lengthAdjust="spacing" textLength="48" x="36" y="108.1543">Platform</text><line style="stroke:#A80036;stroke-width:1.5;" x1="8" x2="86" y1="120" y2="120"/><!--MD5=[fff5db4abcb6eec6574b9ea9c3ee0eae]
class Delivery--><rect codeLine="10" fill="#FEFECE" filter="url(#f1fghhdcd0tklt)" height="104.0234" id="Delivery" style="stroke:#A80036;stroke-width:1.5;" width="131" x="473" y="146"/><ellipse cx="510.05" cy="162" fill="#ADD1B2" rx="11" ry="11" style="stroke:#A80036;stroke-width:1.0;"/><path d="M512.3938,157.6719 C511.4563,157.2344 510.8625,157.0938 509.9875,157.0938 C507.3625,157.0938 505.3625,159.1719 505.3625,161.8906 L505.3625,163.0156 C505.3625,165.5938 507.4719,167.4844 510.3625,167.4844 C511.5813,167.4844 512.7375,167.1875 513.4875,166.6406 C514.0656,166.2344 514.3938,165.7813 514.3938,165.3906 C514.3938,164.9375 514.0031,164.5469 513.5344,164.5469 C513.3156,164.5469 513.1125,164.625 512.925,164.8125 C512.4719,165.2969 512.4719,165.2969 512.2844,165.3906 C511.8625,165.6563 511.175,165.7813 510.4094,165.7813 C508.3625,165.7813 507.0656,164.6875 507.0656,162.9844 L507.0656,161.8906 C507.0656,160.1094 508.3156,158.7969 510.05,158.7969 C510.6281,158.7969 511.2375,158.9531 511.7063,159.2031 C512.1906,159.4844 512.3625,159.7031 512.4563,160.1094 C512.5188,160.5156 512.55,160.6406 512.6906,160.7656 C512.8313,160.9063 513.0656,161.0156 513.2844,161.0156 C513.55,161.0156 513.8156,160.875 513.9875,160.6563 C514.0969,160.5 514.1281,160.3125 514.1281,159.8906 L514.1281,158.4688 C514.1281,158.0313 514.1125,157.9063 514.0188,157.75 C513.8625,157.4844 513.5813,157.3438 513.2844,157.3438 C512.9875,157.3438 512.7844,157.4375 512.5656,157.75 L512.3938,157.6719 Z " fill="#000000"/><text fill="#000000" font-family="sans-serif" font-size="12" lengthAdjust="spacing" textLength="50" x="528.95" y="166.1543">Delivery</text><line style="stroke:#A80036;stroke-width:1.5;" x1="474" x2="603" y1="178" y2="178"/><text fill="#000000" font-family="sans-serif" font-size="11" lengthAdjust="spacing" textLength="51" x="479" y="192.2104">-String id</text><text fill="#000000" font-family="sans-serif" font-size="11" lengthAdjust="spacing" textLength="113" x="479" y="205.0151">-date date_delivery</text><text fill="#000000" font-family="sans-serif" font-size="11" lengthAdjust="spacing" textLength="112" x="479" y="217.8198">-double totalWeight</text><text fill="#000000" font-family="sans-serif" font-size="11" lengthAdjust="spacing" textLength="90" x="479" y="230.6245">-Invoice invoice</text><text fill="#000000" font-family="sans-serif" font-size="11" lengthAdjust="spacing" textLength="119" x="479" y="243.4292">-Pharmacy pharmacy</text><!--MD5=[7f2a9fafcebe4f099f71398fd3e2ed00]
class Pharmacy--><rect codeLine="19" fill="#FEFECE" filter="url(#f1fghhdcd0tklt)" height="104.0234" id="Pharmacy" style="stroke:#A80036;stroke-width:1.5;" width="119" x="214" y="7"/><ellipse cx="242.5" cy="23" fill="#ADD1B2" rx="11" ry="11" style="stroke:#A80036;stroke-width:1.0;"/><path d="M244.8438,18.6719 C243.9063,18.2344 243.3125,18.0938 242.4375,18.0938 C239.8125,18.0938 237.8125,20.1719 237.8125,22.8906 L237.8125,24.0156 C237.8125,26.5938 239.9219,28.4844 242.8125,28.4844 C244.0313,28.4844 245.1875,28.1875 245.9375,27.6406 C246.5156,27.2344 246.8438,26.7813 246.8438,26.3906 C246.8438,25.9375 246.4531,25.5469 245.9844,25.5469 C245.7656,25.5469 245.5625,25.625 245.375,25.8125 C244.9219,26.2969 244.9219,26.2969 244.7344,26.3906 C244.3125,26.6563 243.625,26.7813 242.8594,26.7813 C240.8125,26.7813 239.5156,25.6875 239.5156,23.9844 L239.5156,22.8906 C239.5156,21.1094 240.7656,19.7969 242.5,19.7969 C243.0781,19.7969 243.6875,19.9531 244.1563,20.2031 C244.6406,20.4844 244.8125,20.7031 244.9063,21.1094 C244.9688,21.5156 245,21.6406 245.1406,21.7656 C245.2813,21.9063 245.5156,22.0156 245.7344,22.0156 C246,22.0156 246.2656,21.875 246.4375,21.6563 C246.5469,21.5 246.5781,21.3125 246.5781,20.8906 L246.5781,19.4688 C246.5781,19.0313 246.5625,18.9063 246.4688,18.75 C246.3125,18.4844 246.0313,18.3438 245.7344,18.3438 C245.4375,18.3438 245.2344,18.4375 245.0156,18.75 L244.8438,18.6719 Z " fill="#000000"/><text fill="#000000" font-family="sans-serif" font-size="12" lengthAdjust="spacing" textLength="57" x="259.5" y="27.1543">Pharmacy</text><line style="stroke:#A80036;stroke-width:1.5;" x1="215" x2="332" y1="39" y2="39"/><text fill="#000000" font-family="sans-serif" font-size="11" lengthAdjust="spacing" textLength="51" x="220" y="53.2104">-String id</text><text fill="#000000" font-family="sans-serif" font-size="11" lengthAdjust="spacing" textLength="107" x="220" y="66.0151">-String designation</text><text fill="#000000" font-family="sans-serif" font-size="11" lengthAdjust="spacing" textLength="73" x="220" y="78.8198">-String email</text><text fill="#000000" font-family="sans-serif" font-size="11" lengthAdjust="spacing" textLength="85" x="220" y="91.6245">-Adress adress</text><text fill="#000000" font-family="sans-serif" font-size="11" lengthAdjust="spacing" textLength="107" x="220" y="104.4292">-ParkingLot lotation</text><!--MD5=[c6a2171c11447acbe08a3dfeee0e1710]
class Courier--><rect codeLine="27" fill="#FEFECE" filter="url(#f1fghhdcd0tklt)" height="104.0234" id="Courier" style="stroke:#A80036;stroke-width:1.5;" width="177" x="185" y="146"/><ellipse cx="247.25" cy="162" fill="#ADD1B2" rx="11" ry="11" style="stroke:#A80036;stroke-width:1.0;"/><path d="M249.5938,157.6719 C248.6563,157.2344 248.0625,157.0938 247.1875,157.0938 C244.5625,157.0938 242.5625,159.1719 242.5625,161.8906 L242.5625,163.0156 C242.5625,165.5938 244.6719,167.4844 247.5625,167.4844 C248.7813,167.4844 249.9375,167.1875 250.6875,166.6406 C251.2656,166.2344 251.5938,165.7813 251.5938,165.3906 C251.5938,164.9375 251.2031,164.5469 250.7344,164.5469 C250.5156,164.5469 250.3125,164.625 250.125,164.8125 C249.6719,165.2969 249.6719,165.2969 249.4844,165.3906 C249.0625,165.6563 248.375,165.7813 247.6094,165.7813 C245.5625,165.7813 244.2656,164.6875 244.2656,162.9844 L244.2656,161.8906 C244.2656,160.1094 245.5156,158.7969 247.25,158.7969 C247.8281,158.7969 248.4375,158.9531 248.9063,159.2031 C249.3906,159.4844 249.5625,159.7031 249.6563,160.1094 C249.7188,160.5156 249.75,160.6406 249.8906,160.7656 C250.0313,160.9063 250.2656,161.0156 250.4844,161.0156 C250.75,161.0156 251.0156,160.875 251.1875,160.6563 C251.2969,160.5 251.3281,160.3125 251.3281,159.8906 L251.3281,158.4688 C251.3281,158.0313 251.3125,157.9063 251.2188,157.75 C251.0625,157.4844 250.7813,157.3438 250.4844,157.3438 C250.1875,157.3438 249.9844,157.4375 249.7656,157.75 L249.5938,157.6719 Z " fill="#000000"/><text fill="#000000" font-family="sans-serif" font-size="12" lengthAdjust="spacing" textLength="44" x="267.75" y="166.1543">Courier</text><line style="stroke:#A80036;stroke-width:1.5;" x1="186" x2="361" y1="178" y2="178"/><text fill="#000000" font-family="sans-serif" font-size="11" lengthAdjust="spacing" textLength="58" x="191" y="192.2104">-String NIF</text><text fill="#000000" font-family="sans-serif" font-size="11" lengthAdjust="spacing" textLength="74" x="191" y="205.0151">-String name</text><text fill="#000000" font-family="sans-serif" font-size="11" lengthAdjust="spacing" textLength="94" x="191" y="217.8198">-String password</text><text fill="#000000" font-family="sans-serif" font-size="11" lengthAdjust="spacing" textLength="73" x="191" y="230.6245">-String email</text><text fill="#000000" font-family="sans-serif" font-size="11" lengthAdjust="spacing" textLength="165" x="191" y="243.4292">-String socialSecurityNumber</text><!--MD5=[4a07f137c208f82f57837154e1cfa51e]
link Platform to Pharmacy--><path codeLine="36" d="M87.1049,99.465 C122.029,91.842 173.685,80.568 213.607,71.854 " fill="none" id="Platform-Pharmacy" style="stroke:#A80036;stroke-width:1.0;"/><polygon fill="#000000" points="126.885,75.5002,117.4212,74.5577,118.6747,80.3003,126.885,75.5002" style="stroke:#000000;stroke-width:1.0;"/><text fill="#000000" font-family="sans-serif" font-size="13" lengthAdjust="spacing" textLength="23" x="131" y="81.0669">has</text><text fill="#000000" font-family="sans-serif" font-size="13" lengthAdjust="spacing" textLength="8" x="94.9611" y="111.3594">1</text><text fill="#000000" font-family="sans-serif" font-size="13" lengthAdjust="spacing" textLength="23" x="182.7984" y="86.1531">0..*</text><!--MD5=[f0cfa747e910e280deb3c434245f2238]
link Platform to Courier--><path codeLine="37" d="M87.1049,123.677 C114.115,134.505 151.132,149.345 184.989,162.9177 " fill="none" id="Platform-Courier" style="stroke:#A80036;stroke-width:1.0;"/><polygon fill="#000000" points="126.641,131.4269,119.339,125.3333,117.1518,130.7891,126.641,131.4269" style="stroke:#000000;stroke-width:1.0;"/><text fill="#000000" font-family="sans-serif" font-size="13" lengthAdjust="spacing" textLength="23" x="131" y="134.0669">has</text><text fill="#000000" font-family="sans-serif" font-size="13" lengthAdjust="spacing" textLength="8" x="94.9611" y="139.8841">1</text><text fill="#000000" font-family="sans-serif" font-size="13" lengthAdjust="spacing" textLength="23" x="154.0194" y="172.791">0..*</text><!--MD5=[7471b15d97b16c1e8744ea00ac81bc31]
link Courier to Delivery--><path codeLine="39" d="M362.075,198 C398.237,198 439.405,198 472.768,198 " fill="none" id="Courier-Delivery" style="stroke:#A80036;stroke-width:1.0;"/><polygon fill="#000000" points="402,189.5664,392.9549,186.6275,392.9549,192.5053,402,189.5664" style="stroke:#000000;stroke-width:1.0;"/><text fill="#000000" font-family="sans-serif" font-size="13" lengthAdjust="spacing" textLength="36" x="406" y="194.0669">make</text><text fill="#000000" font-family="sans-serif" font-size="13" lengthAdjust="spacing" textLength="23" x="370.0497" y="210.6689">0..*</text><text fill="#000000" font-family="sans-serif" font-size="13" lengthAdjust="spacing" textLength="23" x="441.8034" y="210.846">0..*</text><!--MD5=[c24998010f3a8ae09ffc5f1e84adceac]
@startuml
skinparam classAttributeIconSize 0
hide methods
left to right direction


class Platform{

}

class Delivery {
  -String id
  -date date_delivery 
  -double totalWeight
  -Invoice invoice
  -Pharmacy pharmacy
  
}

class Pharmacy {
  -String id
  -String designation
  -String email
  -Adress adress
  -ParkingLot lotation
}

class Courier{
-String NIF
-String name
-String password
-String email
-String socialSecurityNumber

}

Platform"1" - - "0..*"Pharmacy : has >
Platform"1" - - "0..*"Courier : has >

Courier"0..*" - - "0..*" Delivery : make >
@enduml

PlantUML version 1.2020.27beta8(Unknown compile time)
(GPL source distribution)
Java Runtime: Java(TM) SE Runtime Environment
JVM: Java HotSpot(TM) 64-Bit Server VM
Default Encoding: UTF-8
Language: en
Country: US
--></g></svg>