<?xml version="1.0" encoding="UTF-8" standalone="no"?><svg xmlns="http://www.w3.org/2000/svg" xmlns:xlink="http://www.w3.org/1999/xlink" contentScriptType="application/ecmascript" contentStyleType="text/css" height="1442px" preserveAspectRatio="none" style="width:1689px;height:1442px;" version="1.1" viewBox="0 0 1689 1442" width="1689px" zoomAndPan="magnify"><defs><filter height="300%" id="f1thvwong05i2w" width="300%" x="-1" y="-1"><feGaussianBlur result="blurOut" stdDeviation="2.0"/><feColorMatrix in="blurOut" result="blurOut2" type="matrix" values="0 0 0 0 0 0 0 0 0 0 0 0 0 0 0 0 0 0 .4 0"/><feOffset dx="4.0" dy="4.0" in="blurOut2" result="blurOut3"/><feBlend in="SourceGraphic" in2="blurOut3" mode="normal"/></filter></defs><g><rect fill="#FFFFFF" filter="url(#f1thvwong05i2w)" height="1250.5156" style="stroke:#A80036;stroke-width:1.0;" width="10" x="44" y="98.2969"/><rect fill="#FFFFFF" filter="url(#f1thvwong05i2w)" height="117.3984" style="stroke:#A80036;stroke-width:1.0;" width="10" x="570" y="119.4297"/><rect fill="#FFFFFF" filter="url(#f1thvwong05i2w)" height="205.6641" style="stroke:#A80036;stroke-width:1.0;" width="10" x="570" y="265.9609"/><rect fill="#FFFFFF" filter="url(#f1thvwong05i2w)" height="304.0625" style="stroke:#A80036;stroke-width:1.0;" width="10" x="570" y="500.7578"/><rect fill="#FFFFFF" filter="url(#f1thvwong05i2w)" height="447.5938" style="stroke:#A80036;stroke-width:1.0;" width="10" x="570" y="833.9531"/><rect fill="#FFFFFF" filter="url(#f1thvwong05i2w)" height="29.1328" style="stroke:#A80036;stroke-width:1.0;" width="10" x="570" y="1310.6797"/><rect fill="#FFFFFF" filter="url(#f1thvwong05i2w)" height="59.1328" style="stroke:#A80036;stroke-width:1.0;" width="10" x="812" y="148.5625"/><rect fill="#FFFFFF" filter="url(#f1thvwong05i2w)" height="59.1328" style="stroke:#A80036;stroke-width:1.0;" width="10" x="812" y="295.0938"/><rect fill="#FFFFFF" filter="url(#f1thvwong05i2w)" height="59.1328" style="stroke:#A80036;stroke-width:1.0;" width="10" x="812" y="383.3594"/><rect fill="#FFFFFF" filter="url(#f1thvwong05i2w)" height="59.1328" style="stroke:#A80036;stroke-width:1.0;" width="10" x="812" y="529.8906"/><rect fill="#FFFFFF" filter="url(#f1thvwong05i2w)" height="118.2656" style="stroke:#A80036;stroke-width:1.0;" width="10" x="812" y="618.1563"/><rect fill="#FFFFFF" filter="url(#f1thvwong05i2w)" height="374.1953" style="stroke:#A80036;stroke-width:1.0;" width="10" x="812" y="863.0859"/><rect fill="#FFFFFF" filter="url(#f1thvwong05i2w)" height="30" style="stroke:#A80036;stroke-width:1.0;" width="10" x="1016" y="177.6953"/><rect fill="#FFFFFF" filter="url(#f1thvwong05i2w)" height="30" style="stroke:#A80036;stroke-width:1.0;" width="10" x="1016" y="412.4922"/><rect fill="#FFFFFF" filter="url(#f1thvwong05i2w)" height="30" style="stroke:#A80036;stroke-width:1.0;" width="10" x="1016" y="647.2891"/><rect fill="#FFFFFF" filter="url(#f1thvwong05i2w)" height="30" style="stroke:#A80036;stroke-width:1.0;" width="10" x="1128.5" y="324.2266"/><rect fill="#FFFFFF" filter="url(#f1thvwong05i2w)" height="30" style="stroke:#A80036;stroke-width:1.0;" width="10" x="1283.5" y="559.0234"/><rect fill="#FFFFFF" filter="url(#f1thvwong05i2w)" height="30" style="stroke:#A80036;stroke-width:1.0;" width="10" x="1422.5" y="975.4844"/><rect fill="#FFFFFF" filter="url(#f1thvwong05i2w)" height="30" style="stroke:#A80036;stroke-width:1.0;" width="10" x="1529" y="706.4219"/><rect fill="#FFFFFF" filter="url(#f1thvwong05i2w)" height="30" style="stroke:#A80036;stroke-width:1.0;" width="10" x="1529" y="892.2188"/><rect fill="#FFFFFF" filter="url(#f1thvwong05i2w)" height="30" style="stroke:#A80036;stroke-width:1.0;" width="10" x="1529" y="1034.6172"/><rect fill="#FFFFFF" filter="url(#f1thvwong05i2w)" height="30" style="stroke:#A80036;stroke-width:1.0;" width="10" x="1529" y="1207.2813"/><rect fill="#FFFFFF" filter="url(#f1thvwong05i2w)" height="328.1953" style="stroke:#000000;stroke-width:2.0;" width="1597" x="10" y="751.4219"/><rect fill="#FFFFFF" filter="url(#f1thvwong05i2w)" height="135.3984" style="stroke:#000000;stroke-width:2.0;" width="886.5" x="710.5" y="937.2188"/><line style="stroke:#A80036;stroke-width:1.0;stroke-dasharray:5.0,5.0;" x1="49" x2="49" y1="88.2969" y2="1357.8125"/><line style="stroke:#A80036;stroke-width:1.0;stroke-dasharray:5.0,5.0;" x1="574.5" x2="574.5" y1="88.2969" y2="1357.8125"/><line style="stroke:#A80036;stroke-width:1.0;stroke-dasharray:5.0,5.0;" x1="816.5" x2="816.5" y1="88.2969" y2="1357.8125"/><line style="stroke:#A80036;stroke-width:1.0;stroke-dasharray:5.0,5.0;" x1="1021" x2="1021" y1="88.2969" y2="1357.8125"/><line style="stroke:#A80036;stroke-width:1.0;stroke-dasharray:5.0,5.0;" x1="1133" x2="1133" y1="88.2969" y2="1357.8125"/><line style="stroke:#A80036;stroke-width:1.0;stroke-dasharray:5.0,5.0;" x1="1288" x2="1288" y1="88.2969" y2="1357.8125"/><line style="stroke:#A80036;stroke-width:1.0;stroke-dasharray:5.0,5.0;" x1="1427" x2="1427" y1="88.2969" y2="1357.8125"/><line style="stroke:#A80036;stroke-width:1.0;stroke-dasharray:5.0,5.0;" x1="1534" x2="1534" y1="88.2969" y2="1357.8125"/><line style="stroke:#A80036;stroke-width:1.0;stroke-dasharray:5.0,5.0;" x1="1638" x2="1638" y1="88.2969" y2="1357.8125"/><text fill="#000000" font-family="sans-serif" font-size="14" lengthAdjust="spacing" textLength="52" x="20" y="84.9951">Courier</text><ellipse cx="49" cy="15" fill="#FEFECE" filter="url(#f1thvwong05i2w)" rx="8" ry="8" style="stroke:#A80036;stroke-width:2.0;"/><path d="M49,23 L49,50 M36,31 L62,31 M49,50 L36,65 M49,50 L62,65 " fill="none" filter="url(#f1thvwong05i2w)" style="stroke:#A80036;stroke-width:2.0;"/><text fill="#000000" font-family="sans-serif" font-size="14" lengthAdjust="spacing" textLength="52" x="20" y="1369.8076">Courier</text><ellipse cx="49" cy="1383.1094" fill="#FEFECE" filter="url(#f1thvwong05i2w)" rx="8" ry="8" style="stroke:#A80036;stroke-width:2.0;"/><path d="M49,1391.1094 L49,1418.1094 M36,1399.1094 L62,1399.1094 M49,1418.1094 L36,1433.1094 M49,1418.1094 L62,1433.1094 " fill="none" filter="url(#f1thvwong05i2w)" style="stroke:#A80036;stroke-width:2.0;"/><rect fill="#FEFECE" filter="url(#f1thvwong05i2w)" height="30.2969" style="stroke:#A80036;stroke-width:1.5;" width="129" x="508.5" y="53"/><text fill="#000000" font-family="sans-serif" font-size="14" lengthAdjust="spacing" textLength="115" x="515.5" y="72.9951">:MakeDeliveryUI</text><rect fill="#FEFECE" filter="url(#f1thvwong05i2w)" height="30.2969" style="stroke:#A80036;stroke-width:1.5;" width="129" x="508.5" y="1356.8125"/><text fill="#000000" font-family="sans-serif" font-size="14" lengthAdjust="spacing" textLength="115" x="515.5" y="1376.8076">:MakeDeliveryUI</text><rect fill="#FEFECE" filter="url(#f1thvwong05i2w)" height="30.2969" style="stroke:#A80036;stroke-width:1.5;" width="189" x="720.5" y="53"/><text fill="#000000" font-family="sans-serif" font-size="14" lengthAdjust="spacing" textLength="175" x="727.5" y="72.9951">:MakeDeliveryController</text><rect fill="#FEFECE" filter="url(#f1thvwong05i2w)" height="30.2969" style="stroke:#A80036;stroke-width:1.5;" width="189" x="720.5" y="1356.8125"/><text fill="#000000" font-family="sans-serif" font-size="14" lengthAdjust="spacing" textLength="175" x="727.5" y="1376.8076">:MakeDeliveryController</text><rect fill="#FEFECE" filter="url(#f1thvwong05i2w)" height="30.2969" style="stroke:#A80036;stroke-width:1.5;" width="82" x="978" y="53"/><text fill="#000000" font-family="sans-serif" font-size="14" lengthAdjust="spacing" textLength="68" x="985" y="72.9951">:Platform</text><rect fill="#FEFECE" filter="url(#f1thvwong05i2w)" height="30.2969" style="stroke:#A80036;stroke-width:1.5;" width="82" x="978" y="1356.8125"/><text fill="#000000" font-family="sans-serif" font-size="14" lengthAdjust="spacing" textLength="68" x="985" y="1376.8076">:Platform</text><rect fill="#FEFECE" filter="url(#f1thvwong05i2w)" height="46.5938" style="stroke:#A80036;stroke-width:1.5;" width="115" x="1074" y="36.7031"/><text fill="#000000" font-family="sans-serif" font-size="14" lengthAdjust="spacing" textLength="14" x="1124.5" y="56.6982">pl</text><text fill="#000000" font-family="sans-serif" font-size="14" lengthAdjust="spacing" textLength="101" x="1081" y="72.9951">:PharmacyList</text><rect fill="#FEFECE" filter="url(#f1thvwong05i2w)" height="46.5938" style="stroke:#A80036;stroke-width:1.5;" width="115" x="1074" y="1356.8125"/><text fill="#000000" font-family="sans-serif" font-size="14" lengthAdjust="spacing" textLength="14" x="1124.5" y="1376.8076">pl</text><text fill="#000000" font-family="sans-serif" font-size="14" lengthAdjust="spacing" textLength="101" x="1081" y="1393.1045">:PharmacyList</text><rect fill="#FEFECE" filter="url(#f1thvwong05i2w)" height="46.5938" style="stroke:#A80036;stroke-width:1.5;" width="167" x="1203" y="36.7031"/><text fill="#000000" font-family="sans-serif" font-size="14" lengthAdjust="spacing" textLength="11" x="1281" y="56.6982">sl</text><text fill="#000000" font-family="sans-serif" font-size="14" lengthAdjust="spacing" textLength="153" x="1210" y="72.9951">:AvailableScooterList</text><rect fill="#FEFECE" filter="url(#f1thvwong05i2w)" height="46.5938" style="stroke:#A80036;stroke-width:1.5;" width="167" x="1203" y="1356.8125"/><text fill="#000000" font-family="sans-serif" font-size="14" lengthAdjust="spacing" textLength="11" x="1281" y="1376.8076">sl</text><text fill="#000000" font-family="sans-serif" font-size="14" lengthAdjust="spacing" textLength="153" x="1210" y="1393.1045">:AvailableScooterList</text><rect fill="#FEFECE" filter="url(#f1thvwong05i2w)" height="46.5938" style="stroke:#A80036;stroke-width:1.5;" width="83" x="1384" y="36.7031"/><text fill="#000000" font-family="sans-serif" font-size="14" lengthAdjust="spacing" textLength="22" x="1414.5" y="56.6982">list</text><text fill="#000000" font-family="sans-serif" font-size="14" lengthAdjust="spacing" textLength="69" x="1391" y="72.9951">:ArrayList</text><rect fill="#FEFECE" filter="url(#f1thvwong05i2w)" height="46.5938" style="stroke:#A80036;stroke-width:1.5;" width="83" x="1384" y="1356.8125"/><text fill="#000000" font-family="sans-serif" font-size="14" lengthAdjust="spacing" textLength="22" x="1414.5" y="1376.8076">list</text><text fill="#000000" font-family="sans-serif" font-size="14" lengthAdjust="spacing" textLength="69" x="1391" y="1393.1045">:ArrayList</text><rect fill="#FEFECE" filter="url(#f1thvwong05i2w)" height="46.5938" style="stroke:#A80036;stroke-width:1.5;" width="102" x="1481" y="36.7031"/><text fill="#000000" font-family="sans-serif" font-size="14" lengthAdjust="spacing" textLength="34" x="1515" y="56.6982">rDeli</text><text fill="#000000" font-family="sans-serif" font-size="14" lengthAdjust="spacing" textLength="88" x="1488" y="72.9951">:deliveryList</text><rect fill="#FEFECE" filter="url(#f1thvwong05i2w)" height="46.5938" style="stroke:#A80036;stroke-width:1.5;" width="102" x="1481" y="1356.8125"/><text fill="#000000" font-family="sans-serif" font-size="14" lengthAdjust="spacing" textLength="34" x="1515" y="1376.8076">rDeli</text><text fill="#000000" font-family="sans-serif" font-size="14" lengthAdjust="spacing" textLength="88" x="1488" y="1393.1045">:deliveryList</text><rect fill="#FEFECE" filter="url(#f1thvwong05i2w)" height="46.5938" style="stroke:#A80036;stroke-width:1.5;" width="78" x="1597" y="36.7031"/><text fill="#000000" font-family="sans-serif" font-size="14" lengthAdjust="spacing" textLength="59" x="1606.5" y="56.6982">Delivery</text><text fill="#000000" font-family="sans-serif" font-size="14" lengthAdjust="spacing" textLength="64" x="1604" y="72.9951">:Delivery</text><rect fill="#FEFECE" filter="url(#f1thvwong05i2w)" height="46.5938" style="stroke:#A80036;stroke-width:1.5;" width="78" x="1597" y="1356.8125"/><text fill="#000000" font-family="sans-serif" font-size="14" lengthAdjust="spacing" textLength="59" x="1606.5" y="1376.8076">Delivery</text><text fill="#000000" font-family="sans-serif" font-size="14" lengthAdjust="spacing" textLength="64" x="1604" y="1393.1045">:Delivery</text><rect fill="#FFFFFF" filter="url(#f1thvwong05i2w)" height="1250.5156" style="stroke:#A80036;stroke-width:1.0;" width="10" x="44" y="98.2969"/><rect fill="#FFFFFF" filter="url(#f1thvwong05i2w)" height="117.3984" style="stroke:#A80036;stroke-width:1.0;" width="10" x="570" y="119.4297"/><rect fill="#FFFFFF" filter="url(#f1thvwong05i2w)" height="205.6641" style="stroke:#A80036;stroke-width:1.0;" width="10" x="570" y="265.9609"/><rect fill="#FFFFFF" filter="url(#f1thvwong05i2w)" height="304.0625" style="stroke:#A80036;stroke-width:1.0;" width="10" x="570" y="500.7578"/><rect fill="#FFFFFF" filter="url(#f1thvwong05i2w)" height="447.5938" style="stroke:#A80036;stroke-width:1.0;" width="10" x="570" y="833.9531"/><rect fill="#FFFFFF" filter="url(#f1thvwong05i2w)" height="29.1328" style="stroke:#A80036;stroke-width:1.0;" width="10" x="570" y="1310.6797"/><rect fill="#FFFFFF" filter="url(#f1thvwong05i2w)" height="59.1328" style="stroke:#A80036;stroke-width:1.0;" width="10" x="812" y="148.5625"/><rect fill="#FFFFFF" filter="url(#f1thvwong05i2w)" height="59.1328" style="stroke:#A80036;stroke-width:1.0;" width="10" x="812" y="295.0938"/><rect fill="#FFFFFF" filter="url(#f1thvwong05i2w)" height="59.1328" style="stroke:#A80036;stroke-width:1.0;" width="10" x="812" y="383.3594"/><rect fill="#FFFFFF" filter="url(#f1thvwong05i2w)" height="59.1328" style="stroke:#A80036;stroke-width:1.0;" width="10" x="812" y="529.8906"/><rect fill="#FFFFFF" filter="url(#f1thvwong05i2w)" height="118.2656" style="stroke:#A80036;stroke-width:1.0;" width="10" x="812" y="618.1563"/><rect fill="#FFFFFF" filter="url(#f1thvwong05i2w)" height="374.1953" style="stroke:#A80036;stroke-width:1.0;" width="10" x="812" y="863.0859"/><rect fill="#FFFFFF" filter="url(#f1thvwong05i2w)" height="30" style="stroke:#A80036;stroke-width:1.0;" width="10" x="1016" y="177.6953"/><rect fill="#FFFFFF" filter="url(#f1thvwong05i2w)" height="30" style="stroke:#A80036;stroke-width:1.0;" width="10" x="1016" y="412.4922"/><rect fill="#FFFFFF" filter="url(#f1thvwong05i2w)" height="30" style="stroke:#A80036;stroke-width:1.0;" width="10" x="1016" y="647.2891"/><rect fill="#FFFFFF" filter="url(#f1thvwong05i2w)" height="30" style="stroke:#A80036;stroke-width:1.0;" width="10" x="1128.5" y="324.2266"/><rect fill="#FFFFFF" filter="url(#f1thvwong05i2w)" height="30" style="stroke:#A80036;stroke-width:1.0;" width="10" x="1283.5" y="559.0234"/><rect fill="#FFFFFF" filter="url(#f1thvwong05i2w)" height="30" style="stroke:#A80036;stroke-width:1.0;" width="10" x="1422.5" y="975.4844"/><rect fill="#FFFFFF" filter="url(#f1thvwong05i2w)" height="30" style="stroke:#A80036;stroke-width:1.0;" width="10" x="1529" y="706.4219"/><rect fill="#FFFFFF" filter="url(#f1thvwong05i2w)" height="30" style="stroke:#A80036;stroke-width:1.0;" width="10" x="1529" y="892.2188"/><rect fill="#FFFFFF" filter="url(#f1thvwong05i2w)" height="30" style="stroke:#A80036;stroke-width:1.0;" width="10" x="1529" y="1034.6172"/><rect fill="#FFFFFF" filter="url(#f1thvwong05i2w)" height="30" style="stroke:#A80036;stroke-width:1.0;" width="10" x="1529" y="1207.2813"/><polygon fill="#A80036" points="558,115.4297,568,119.4297,558,123.4297,562,119.4297" style="stroke:#A80036;stroke-width:1.0;"/><line style="stroke:#A80036;stroke-width:1.0;" x1="54" x2="564" y1="119.4297" y2="119.4297"/><text fill="#000000" font-family="sans-serif" font-size="13" font-weight="bold" lengthAdjust="spacing" textLength="9" x="61" y="114.3638">1</text><text fill="#000000" font-family="sans-serif" font-size="13" lengthAdjust="spacing" textLength="159" x="74" y="114.3638">Wants to start a delivery</text><polygon fill="#A80036" points="800,144.5625,810,148.5625,800,152.5625,804,148.5625" style="stroke:#A80036;stroke-width:1.0;"/><line style="stroke:#A80036;stroke-width:1.0;" x1="580" x2="806" y1="148.5625" y2="148.5625"/><text fill="#000000" font-family="sans-serif" font-size="13" font-weight="bold" lengthAdjust="spacing" textLength="9" x="587" y="143.4966">2</text><text fill="#000000" font-family="sans-serif" font-size="13" lengthAdjust="spacing" textLength="118" x="600" y="143.4966">getPharmacyList()</text><polygon fill="#A80036" points="1004,173.6953,1014,177.6953,1004,181.6953,1008,177.6953" style="stroke:#A80036;stroke-width:1.0;"/><line style="stroke:#A80036;stroke-width:1.0;" x1="822" x2="1010" y1="177.6953" y2="177.6953"/><text fill="#000000" font-family="sans-serif" font-size="13" font-weight="bold" lengthAdjust="spacing" textLength="8" x="829" y="172.6294">3</text><text fill="#000000" font-family="sans-serif" font-size="13" lengthAdjust="spacing" textLength="147" x="841" y="172.6294">pl = getPharmacyList()</text><polygon fill="#A80036" points="65,232.8281,55,236.8281,65,240.8281,61,236.8281" style="stroke:#A80036;stroke-width:1.0;"/><line style="stroke:#A80036;stroke-width:1.0;" x1="59" x2="574" y1="236.8281" y2="236.8281"/><text fill="#000000" font-family="sans-serif" font-size="13" font-weight="bold" lengthAdjust="spacing" textLength="9" x="71" y="231.7622">4</text><text fill="#000000" font-family="sans-serif" font-size="13" lengthAdjust="spacing" textLength="403" x="84" y="231.7622">shows the list of pharmacy and asks the courier to choose one</text><polygon fill="#A80036" points="558,261.9609,568,265.9609,558,269.9609,562,265.9609" style="stroke:#A80036;stroke-width:1.0;"/><line style="stroke:#A80036;stroke-width:1.0;" x1="54" x2="564" y1="265.9609" y2="265.9609"/><text fill="#000000" font-family="sans-serif" font-size="13" font-weight="bold" lengthAdjust="spacing" textLength="9" x="61" y="260.895">5</text><text fill="#000000" font-family="sans-serif" font-size="13" lengthAdjust="spacing" textLength="147" x="74" y="260.895">chooses the pharmacy</text><polygon fill="#A80036" points="800,291.0938,810,295.0938,800,299.0938,804,295.0938" style="stroke:#A80036;stroke-width:1.0;"/><line style="stroke:#A80036;stroke-width:1.0;" x1="580" x2="806" y1="295.0938" y2="295.0938"/><text fill="#000000" font-family="sans-serif" font-size="13" font-weight="bold" lengthAdjust="spacing" textLength="9" x="587" y="290.0278">6</text><text fill="#000000" font-family="sans-serif" font-size="13" lengthAdjust="spacing" textLength="96" x="600" y="290.0278">getPharmacy()</text><polygon fill="#A80036" points="1116.5,320.2266,1126.5,324.2266,1116.5,328.2266,1120.5,324.2266" style="stroke:#A80036;stroke-width:1.0;"/><line style="stroke:#A80036;stroke-width:1.0;" x1="822" x2="1122.5" y1="324.2266" y2="324.2266"/><text fill="#000000" font-family="sans-serif" font-size="13" font-weight="bold" lengthAdjust="spacing" textLength="9" x="829" y="319.1606">7</text><text fill="#000000" font-family="sans-serif" font-size="13" lengthAdjust="spacing" textLength="122" x="842" y="319.1606">p = getPharmacy()</text><polygon fill="#A80036" points="800,379.3594,810,383.3594,800,387.3594,804,383.3594" style="stroke:#A80036;stroke-width:1.0;"/><line style="stroke:#A80036;stroke-width:1.0;" x1="580" x2="806" y1="383.3594" y2="383.3594"/><text fill="#000000" font-family="sans-serif" font-size="13" font-weight="bold" lengthAdjust="spacing" textLength="9" x="587" y="378.2935">8</text><text fill="#000000" font-family="sans-serif" font-size="13" lengthAdjust="spacing" textLength="102" x="600" y="378.2935">getScooterList()</text><polygon fill="#A80036" points="1004,408.4922,1014,412.4922,1004,416.4922,1008,412.4922" style="stroke:#A80036;stroke-width:1.0;"/><line style="stroke:#A80036;stroke-width:1.0;" x1="822" x2="1010" y1="412.4922" y2="412.4922"/><text fill="#000000" font-family="sans-serif" font-size="13" font-weight="bold" lengthAdjust="spacing" textLength="9" x="829" y="407.4263">9</text><text fill="#000000" font-family="sans-serif" font-size="13" lengthAdjust="spacing" textLength="130" x="842" y="407.4263">sl = getScooterList()</text><polygon fill="#A80036" points="65,467.625,55,471.625,65,475.625,61,471.625" style="stroke:#A80036;stroke-width:1.0;"/><line style="stroke:#A80036;stroke-width:1.0;" x1="59" x2="574" y1="471.625" y2="471.625"/><text fill="#000000" font-family="sans-serif" font-size="13" font-weight="bold" lengthAdjust="spacing" textLength="19" x="71" y="466.5591">10</text><text fill="#000000" font-family="sans-serif" font-size="13" lengthAdjust="spacing" textLength="393" x="94" y="466.5591">shows the list of scooters and asks the courier to choose one</text><polygon fill="#A80036" points="558,496.7578,568,500.7578,558,504.7578,562,500.7578" style="stroke:#A80036;stroke-width:1.0;"/><line style="stroke:#A80036;stroke-width:1.0;" x1="54" x2="564" y1="500.7578" y2="500.7578"/><text fill="#000000" font-family="sans-serif" font-size="13" font-weight="bold" lengthAdjust="spacing" textLength="18" x="61" y="495.6919">11</text><text fill="#000000" font-family="sans-serif" font-size="13" lengthAdjust="spacing" textLength="130" x="83" y="495.6919">chooses the scooter</text><polygon fill="#A80036" points="800,525.8906,810,529.8906,800,533.8906,804,529.8906" style="stroke:#A80036;stroke-width:1.0;"/><line style="stroke:#A80036;stroke-width:1.0;" x1="580" x2="806" y1="529.8906" y2="529.8906"/><text fill="#000000" font-family="sans-serif" font-size="13" font-weight="bold" lengthAdjust="spacing" textLength="18" x="587" y="524.8247">12</text><text fill="#000000" font-family="sans-serif" font-size="13" lengthAdjust="spacing" textLength="191" x="609" y="524.8247">getScooter(exclusiveNumber)</text><polygon fill="#A80036" points="1271.5,555.0234,1281.5,559.0234,1271.5,563.0234,1275.5,559.0234" style="stroke:#A80036;stroke-width:1.0;"/><line style="stroke:#A80036;stroke-width:1.0;" x1="822" x2="1277.5" y1="559.0234" y2="559.0234"/><text fill="#000000" font-family="sans-serif" font-size="13" font-weight="bold" lengthAdjust="spacing" textLength="17" x="829" y="553.9575">13</text><text fill="#000000" font-family="sans-serif" font-size="13" lengthAdjust="spacing" textLength="217" x="850" y="553.9575">S = getScooter(exclusiveNumber)</text><polygon fill="#A80036" points="800,614.1563,810,618.1563,800,622.1563,804,618.1563" style="stroke:#A80036;stroke-width:1.0;"/><line style="stroke:#A80036;stroke-width:1.0;" x1="580" x2="806" y1="618.1563" y2="618.1563"/><text fill="#000000" font-family="sans-serif" font-size="13" font-weight="bold" lengthAdjust="spacing" textLength="18" x="587" y="613.0903">14</text><text fill="#000000" font-family="sans-serif" font-size="13" lengthAdjust="spacing" textLength="106" x="609" y="613.0903">getDeliveryList()</text><polygon fill="#A80036" points="1004,643.2891,1014,647.2891,1004,651.2891,1008,647.2891" style="stroke:#A80036;stroke-width:1.0;"/><line style="stroke:#A80036;stroke-width:1.0;" x1="822" x2="1010" y1="647.2891" y2="647.2891"/><text fill="#000000" font-family="sans-serif" font-size="13" font-weight="bold" lengthAdjust="spacing" textLength="18" x="829" y="642.2231">15</text><text fill="#000000" font-family="sans-serif" font-size="13" lengthAdjust="spacing" textLength="153" x="851" y="642.2231">rDeli = getDeliveryList()</text><polygon fill="#A80036" points="1517,702.4219,1527,706.4219,1517,710.4219,1521,706.4219" style="stroke:#A80036;stroke-width:1.0;"/><line style="stroke:#A80036;stroke-width:1.0;" x1="822" x2="1523" y1="706.4219" y2="706.4219"/><text fill="#000000" font-family="sans-serif" font-size="13" font-weight="bold" lengthAdjust="spacing" textLength="18" x="829" y="701.356">16</text><text fill="#000000" font-family="sans-serif" font-size="13" lengthAdjust="spacing" textLength="184" x="851" y="701.356">getDeliveryListPharmacy(p);</text><path d="M10,751.4219 L88,751.4219 L88,758.4219 L78,768.4219 L10,768.4219 L10,751.4219 " fill="#EEEEEE" style="stroke:#000000;stroke-width:1.0;"/><rect fill="none" height="328.1953" style="stroke:#000000;stroke-width:2.0;" width="1597" x="10" y="751.4219"/><text fill="#000000" font-family="sans-serif" font-size="13" font-weight="bold" lengthAdjust="spacing" textLength="33" x="25" y="764.4888">loop</text><a href="" target="_top" title="" xlink:actuate="onRequest" xlink:href="" xlink:show="new" xlink:title="" xlink:type="simple"><text fill="#0000FF" font-family="sans-serif" font-size="11" font-weight="bold" lengthAdjust="spacing" text-decoration="underline" textLength="363" x="103" y="763.6323">until the courier select all of the pretended deliveries</text></a><polygon fill="#A80036" points="65,800.8203,55,804.8203,65,808.8203,61,804.8203" style="stroke:#A80036;stroke-width:1.0;"/><line style="stroke:#A80036;stroke-width:1.0;stroke-dasharray:2.0,2.0;" x1="59" x2="574" y1="804.8203" y2="804.8203"/><text fill="#000000" font-family="sans-serif" font-size="13" font-weight="bold" lengthAdjust="spacing" textLength="18" x="71" y="792.188">17</text><text fill="#000000" font-family="sans-serif" font-size="13" lengthAdjust="spacing" textLength="470" x="93" y="784.6216">shows the list of deliveries of that pharmacy that are remaining and asks</text><text fill="#000000" font-family="sans-serif" font-size="13" lengthAdjust="spacing" textLength="383" x="97" y="799.7544">the courier to choose the deliveries that he wants to deliver</text><polygon fill="#A80036" points="558,829.9531,568,833.9531,558,837.9531,562,833.9531" style="stroke:#A80036;stroke-width:1.0;"/><line style="stroke:#A80036;stroke-width:1.0;" x1="54" x2="564" y1="833.9531" y2="833.9531"/><text fill="#000000" font-family="sans-serif" font-size="13" font-weight="bold" lengthAdjust="spacing" textLength="18" x="61" y="828.8872">18</text><text fill="#000000" font-family="sans-serif" font-size="13" lengthAdjust="spacing" textLength="147" x="83" y="828.8872">chooses the deliveries.</text><polygon fill="#A80036" points="800,859.0859,810,863.0859,800,867.0859,804,863.0859" style="stroke:#A80036;stroke-width:1.0;"/><line style="stroke:#A80036;stroke-width:1.0;" x1="580" x2="806" y1="863.0859" y2="863.0859"/><text fill="#000000" font-family="sans-serif" font-size="13" font-weight="bold" lengthAdjust="spacing" textLength="18" x="587" y="858.02">19</text><text fill="#000000" font-family="sans-serif" font-size="13" lengthAdjust="spacing" textLength="151" x="609" y="858.02">getChoosenDelivery(id)</text><polygon fill="#A80036" points="1517,888.2188,1527,892.2188,1517,896.2188,1521,892.2188" style="stroke:#A80036;stroke-width:1.0;"/><line style="stroke:#A80036;stroke-width:1.0;" x1="822" x2="1523" y1="892.2188" y2="892.2188"/><text fill="#000000" font-family="sans-serif" font-size="13" font-weight="bold" lengthAdjust="spacing" textLength="19" x="829" y="887.1528">20</text><text fill="#000000" font-family="sans-serif" font-size="13" lengthAdjust="spacing" textLength="180" x="852" y="887.1528">delivery = verifyDelivery(id)</text><path d="M710.5,937.2188 L776.5,937.2188 L776.5,944.2188 L766.5,954.2188 L710.5,954.2188 L710.5,937.2188 " fill="#EEEEEE" style="stroke:#000000;stroke-width:1.0;"/><rect fill="none" height="135.3984" style="stroke:#000000;stroke-width:2.0;" width="886.5" x="710.5" y="937.2188"/><text fill="#000000" font-family="sans-serif" font-size="13" font-weight="bold" lengthAdjust="spacing" textLength="21" x="725.5" y="950.2856">alt</text><a href="" target="_top" title="" xlink:actuate="onRequest" xlink:href="" xlink:show="new" xlink:title="" xlink:type="simple"><text fill="#0000FF" font-family="sans-serif" font-size="11" font-weight="bold" lengthAdjust="spacing" text-decoration="underline" textLength="625" x="791.5" y="949.4292">if the weight sum of products of that delivery is less than the courier's max weight backpack</text></a><polygon fill="#A80036" points="1410.5,971.4844,1420.5,975.4844,1410.5,979.4844,1414.5,975.4844" style="stroke:#A80036;stroke-width:1.0;"/><line style="stroke:#A80036;stroke-width:1.0;" x1="822" x2="1416.5" y1="975.4844" y2="975.4844"/><text fill="#000000" font-family="sans-serif" font-size="13" font-weight="bold" lengthAdjust="spacing" textLength="18" x="829" y="970.4185">21</text><text fill="#000000" font-family="sans-serif" font-size="13" lengthAdjust="spacing" textLength="193" x="851" y="970.4185">addDeliverySelected(delivery)</text><polygon fill="#A80036" points="1517,1030.6172,1527,1034.6172,1517,1038.6172,1521,1034.6172" style="stroke:#A80036;stroke-width:1.0;"/><line style="stroke:#A80036;stroke-width:1.0;" x1="822" x2="1523" y1="1034.6172" y2="1034.6172"/><text fill="#000000" font-family="sans-serif" font-size="13" font-weight="bold" lengthAdjust="spacing" textLength="18" x="829" y="1029.5513">22</text><text fill="#000000" font-family="sans-serif" font-size="13" lengthAdjust="spacing" textLength="219" x="851" y="1029.5513">removeDeliveryFormList(delivery)</text><rect fill="#FFFFFF" filter="url(#f1thvwong05i2w)" height="40.2656" style="stroke:#000000;stroke-width:2.0;" width="703" x="975" y="1086.6172"/><polygon fill="#EEEEEE" points="975,1086.6172,1043,1086.6172,1043,1093.6172,1033,1103.6172,975,1103.6172,975,1086.6172" style="stroke:#000000;stroke-width:2.0;"/><text fill="#000000" font-family="sans-serif" font-size="13" font-weight="bold" lengthAdjust="spacing" textLength="23" x="988" y="1100.6841">ref</text><text fill="#000000" font-family="sans-serif" font-size="13" lengthAdjust="spacing" textLength="300" x="1178.5" y="1119.6841">AUCKL3-17_SD Calculate most economic route</text><path d="M980,1136.8828 L980,1176.8828 L1468,1176.8828 L1468,1146.8828 L1458,1136.8828 L980,1136.8828 " fill="#FBFB77" filter="url(#f1thvwong05i2w)" style="stroke:#A80036;stroke-width:1.0;"/><path d="M1458,1136.8828 L1458,1146.8828 L1468,1146.8828 L1458,1136.8828 " fill="#FBFB77" style="stroke:#A80036;stroke-width:1.0;"/><text fill="#000000" font-family="sans-serif" font-size="13" lengthAdjust="spacing" textLength="316" x="1006.5" y="1153.9497">The above reference will return the shortest path</text><text fill="#000000" font-family="sans-serif" font-size="13" lengthAdjust="spacing" textLength="418" x="1010.5" y="1169.0825">and also its distance, which distance will be used in the next step</text><polygon fill="#A80036" points="1517,1203.2813,1527,1207.2813,1517,1211.2813,1521,1207.2813" style="stroke:#A80036;stroke-width:1.0;"/><line style="stroke:#A80036;stroke-width:1.0;" x1="822" x2="1523" y1="1207.2813" y2="1207.2813"/><text fill="#000000" font-family="sans-serif" font-size="13" font-weight="bold" lengthAdjust="spacing" textLength="17" x="829" y="1202.2153">23</text><text fill="#000000" font-family="sans-serif" font-size="13" lengthAdjust="spacing" textLength="366" x="850" y="1202.2153">getEnergySpentInDelivery(listDelivery, distance, scooter)</text><polygon fill="#A80036" points="65,1277.5469,55,1281.5469,65,1285.5469,61,1281.5469" style="stroke:#A80036;stroke-width:1.0;"/><line style="stroke:#A80036;stroke-width:1.0;stroke-dasharray:2.0,2.0;" x1="59" x2="574" y1="1281.5469" y2="1281.5469"/><text fill="#000000" font-family="sans-serif" font-size="13" font-weight="bold" lengthAdjust="spacing" textLength="18" x="71" y="1268.9146">24</text><text fill="#000000" font-family="sans-serif" font-size="13" lengthAdjust="spacing" textLength="332" x="93" y="1261.3481">shows to courier the most economic route between</text><text fill="#000000" font-family="sans-serif" font-size="13" lengthAdjust="spacing" textLength="319" x="97" y="1276.481">this deliveries and the energy spent on this route.</text><polygon fill="#A80036" points="558,1306.6797,568,1310.6797,558,1314.6797,562,1310.6797" style="stroke:#A80036;stroke-width:1.0;"/><line style="stroke:#A80036;stroke-width:1.0;" x1="54" x2="564" y1="1310.6797" y2="1310.6797"/><text fill="#000000" font-family="sans-serif" font-size="13" font-weight="bold" lengthAdjust="spacing" textLength="18" x="61" y="1305.6138">25</text><text fill="#000000" font-family="sans-serif" font-size="13" lengthAdjust="spacing" textLength="163" x="83" y="1305.6138">confirms the information.</text><polygon fill="#A80036" points="65,1335.8125,55,1339.8125,65,1343.8125,61,1339.8125" style="stroke:#A80036;stroke-width:1.0;"/><line style="stroke:#A80036;stroke-width:1.0;stroke-dasharray:2.0,2.0;" x1="59" x2="574" y1="1339.8125" y2="1339.8125"/><text fill="#000000" font-family="sans-serif" font-size="13" font-weight="bold" lengthAdjust="spacing" textLength="18" x="71" y="1334.7466">26</text><text fill="#000000" font-family="sans-serif" font-size="13" lengthAdjust="spacing" textLength="114" x="93" y="1334.7466">start the delivery.</text><!--MD5=[8214b572817acb5b64e7ae607c026c95]
@startuml
autonumber

actor "Courier" as c
participant ":MakeDeliveryUI" as UI
participant ":MakeDeliveryController" as CTRL
participant ":Platform" as PLAT
participant "pl\n:PharmacyList" as PL
participant "sl\n:AvailableScooterList" as SL
participant "list\n:ArrayList" as LIST
participant "rDeli\n:deliveryList" as RDELI
participant "Delivery\n:Delivery" as DLI

activate c
c -> UI : Wants to start a delivery
activate UI
UI ->CTRL : getPharmacyList()
activate CTRL
CTRL -> PLAT : pl = getPharmacyList()
activate PLAT
deactivate PLAT
deactivate CTRL
UI -> c : shows the list of pharmacy and asks the courier to choose one
deactivate UI

c -> UI :  chooses the pharmacy
activate UI
UI -> CTRL : getPharmacy()
activate CTRL
CTRL -> PL : p = getPharmacy()
activate PL
deactivate PL
deactivate CTRL
UI -> CTRL : getScooterList()
activate CTRL
CTRL -> PLAT : sl = getScooterList()
activate PLAT
deactivate PLAT
deactivate CTRL
UI -> c : shows the list of scooters and asks the courier to choose one
deactivate UI

c -> UI :  chooses the scooter
activate UI
UI -> CTRL : getScooter(exclusiveNumber)
activate CTRL
CTRL -> SL : S = getScooter(exclusiveNumber)
activate SL
deactivate SL
deactivate CTRL
UI -> CTRL : getDeliveryList()
activate CTRL
CTRL -> PLAT : rDeli = getDeliveryList()
activate PLAT
deactivate PLAT
CTRL -> RDELI : getDeliveryListPharmacy(p);
activate RDELI
deactivate RDELI
deactivate CTRL
loop [ until the courier select all of the pretended deliveries ]
UI - -> c : shows the list of deliveries of that pharmacy that are remaining and asks\n the courier to choose the deliveries that he wants to deliver
deactivate UI

c -> UI : chooses the deliveries.
activate UI
UI -> CTRL : getChoosenDelivery(id)
activate CTRL
CTRL -> RDELI : delivery = verifyDelivery(id)
activate RDELI
deactivate RDELI
alt [ if the weight sum of products of that delivery is less than the courier's max weight backpack ]
CTRL -> LIST:  addDeliverySelected(delivery)
activate LIST
deactivate LIST
CTRL -> RDELI:  removeDeliveryFormList(delivery)
activate RDELI
deactivate RDELI
end
end
activate RDELI
deactivate RDELI

ref over PLAT, LIST, RDELI, DLI
  AUCKL3-17_SD Calculate most economic route
end ref

note over PLAT, LIST : The above reference will return the shortest path\n and also its distance, which distance will be used in the next step

CTRL -> RDELI : getEnergySpentInDelivery(listDelivery, distance, scooter)
activate RDELI
deactivate RDELI
deactivate CTRL

UI - -> c : shows to courier the most economic route between\n this deliveries and the energy spent on this route.
deactivate UI

c -> UI : confirms the information.
activate UI

UI - -> c: start the delivery.

deactivate CTRL
deactivate UI
@enduml

PlantUML version 1.2020.27beta8(Unknown compile time)
(GPL source distribution)
Java Runtime: Java(TM) SE Runtime Environment
JVM: Java HotSpot(TM) 64-Bit Server VM
Default Encoding: UTF-8
Language: en
Country: US
--></g></svg>