<?xml version="1.0" encoding="UTF-8" standalone="no"?><svg xmlns="http://www.w3.org/2000/svg" xmlns:xlink="http://www.w3.org/1999/xlink" contentScriptType="application/ecmascript" contentStyleType="text/css" height="952px" preserveAspectRatio="none" style="width:2318px;height:952px;" version="1.1" viewBox="0 0 2318 952" width="2318px" zoomAndPan="magnify"><defs><filter height="300%" id="fysy0a41fuvfi" width="300%" x="-1" y="-1"><feGaussianBlur result="blurOut" stdDeviation="2.0"/><feColorMatrix in="blurOut" result="blurOut2" type="matrix" values="0 0 0 0 0 0 0 0 0 0 0 0 0 0 0 0 0 0 .4 0"/><feOffset dx="4.0" dy="4.0" in="blurOut2" result="blurOut3"/><feBlend in="SourceGraphic" in2="blurOut3" mode="normal"/></filter></defs><g><rect fill="#FFFFFF" filter="url(#fysy0a41fuvfi)" height="752.25" style="stroke:#A80036;stroke-width:1.0;" width="10" x="53" y="98.2969"/><rect fill="#FFFFFF" filter="url(#fysy0a41fuvfi)" height="29.1328" style="stroke:#A80036;stroke-width:1.0;" width="10" x="616" y="119.4297"/><rect fill="#FFFFFF" filter="url(#fysy0a41fuvfi)" height="176.5313" style="stroke:#A80036;stroke-width:1.0;" width="10" x="616" y="177.6953"/><rect fill="#FFFFFF" filter="url(#fysy0a41fuvfi)" height="29.1328" style="stroke:#A80036;stroke-width:1.0;" width="10" x="616" y="383.3594"/><rect fill="#FFFFFF" filter="url(#fysy0a41fuvfi)" height="208.125" style="stroke:#A80036;stroke-width:1.0;" width="10" x="616" y="441.625"/><rect fill="#FFFFFF" filter="url(#fysy0a41fuvfi)" height="171.6641" style="stroke:#A80036;stroke-width:1.0;" width="10" x="616" y="678.8828"/><rect fill="#FFFFFF" filter="url(#fysy0a41fuvfi)" height="118.2656" style="stroke:#A80036;stroke-width:1.0;" width="10" x="1052" y="206.8281"/><rect fill="#FFFFFF" filter="url(#fysy0a41fuvfi)" height="149.8594" style="stroke:#A80036;stroke-width:1.0;" width="10" x="1052" y="470.7578"/><rect fill="#FFFFFF" filter="url(#fysy0a41fuvfi)" height="106.3984" style="stroke:#A80036;stroke-width:1.0;" width="10" x="1052" y="708.0156"/><rect fill="#FFFFFF" filter="url(#fysy0a41fuvfi)" height="30" style="stroke:#A80036;stroke-width:1.0;" width="10" x="1228" y="235.9609"/><rect fill="#FFFFFF" filter="url(#fysy0a41fuvfi)" height="30" style="stroke:#A80036;stroke-width:1.0;" width="10" x="1340.5" y="295.0938"/><rect fill="#FFFFFF" filter="url(#fysy0a41fuvfi)" height="29.1328" style="stroke:#A80036;stroke-width:1.0;" width="10" x="1573" y="499.8906"/><rect fill="#FFFFFF" filter="url(#fysy0a41fuvfi)" height="30" style="stroke:#A80036;stroke-width:1.0;" width="10" x="2099.5" y="590.6172"/><rect fill="#FFFFFF" filter="url(#fysy0a41fuvfi)" height="77.2656" style="stroke:#A80036;stroke-width:1.0;" width="10" x="2099.5" y="737.1484"/><line style="stroke:#A80036;stroke-width:1.0;stroke-dasharray:5.0,5.0;" x1="58" x2="58" y1="88.2969" y2="868.5469"/><line style="stroke:#A80036;stroke-width:1.0;stroke-dasharray:5.0,5.0;" x1="621" x2="621" y1="88.2969" y2="868.5469"/><line style="stroke:#A80036;stroke-width:1.0;stroke-dasharray:5.0,5.0;" x1="1057" x2="1057" y1="88.2969" y2="868.5469"/><line style="stroke:#A80036;stroke-width:1.0;stroke-dasharray:5.0,5.0;" x1="1233" x2="1233" y1="88.2969" y2="868.5469"/><line style="stroke:#A80036;stroke-width:1.0;stroke-dasharray:5.0,5.0;" x1="1345" x2="1345" y1="88.2969" y2="868.5469"/><line style="stroke:#A80036;stroke-width:1.0;stroke-dasharray:5.0,5.0;" x1="1577.5" x2="1577.5" y1="88.2969" y2="868.5469"/><line style="stroke:#A80036;stroke-width:1.0;stroke-dasharray:5.0,5.0;" x1="1997" x2="1997" y1="548.6875" y2="868.5469"/><line style="stroke:#A80036;stroke-width:1.0;stroke-dasharray:5.0,5.0;" x1="2104" x2="2104" y1="88.2969" y2="868.5469"/><text fill="#000000" font-family="sans-serif" font-size="14" lengthAdjust="spacing" textLength="100" x="5" y="84.9951">Administrator</text><ellipse cx="58" cy="15" fill="#FEFECE" filter="url(#fysy0a41fuvfi)" rx="8" ry="8" style="stroke:#A80036;stroke-width:2.0;"/><path d="M58,23 L58,50 M45,31 L71,31 M58,50 L45,65 M58,50 L71,65 " fill="none" filter="url(#fysy0a41fuvfi)" style="stroke:#A80036;stroke-width:2.0;"/><text fill="#000000" font-family="sans-serif" font-size="14" lengthAdjust="spacing" textLength="100" x="5" y="880.542">Administrator</text><ellipse cx="58" cy="893.8438" fill="#FEFECE" filter="url(#fysy0a41fuvfi)" rx="8" ry="8" style="stroke:#A80036;stroke-width:2.0;"/><path d="M58,901.8438 L58,928.8438 M45,909.8438 L71,909.8438 M58,928.8438 L45,943.8438 M58,928.8438 L71,943.8438 " fill="none" filter="url(#fysy0a41fuvfi)" style="stroke:#A80036;stroke-width:2.0;"/><rect fill="#FEFECE" filter="url(#fysy0a41fuvfi)" height="30.2969" style="stroke:#A80036;stroke-width:1.5;" width="152" x="543" y="53"/><text fill="#000000" font-family="sans-serif" font-size="14" lengthAdjust="spacing" textLength="138" x="550" y="72.9951">:InsertParkingLotUI</text><rect fill="#FEFECE" filter="url(#fysy0a41fuvfi)" height="30.2969" style="stroke:#A80036;stroke-width:1.5;" width="152" x="543" y="867.5469"/><text fill="#000000" font-family="sans-serif" font-size="14" lengthAdjust="spacing" textLength="138" x="550" y="887.542">:InsertParkingLotUI</text><rect fill="#FEFECE" filter="url(#fysy0a41fuvfi)" height="30.2969" style="stroke:#A80036;stroke-width:1.5;" width="212" x="949" y="53"/><text fill="#000000" font-family="sans-serif" font-size="14" lengthAdjust="spacing" textLength="198" x="956" y="72.9951">:InsertParkingLotController</text><rect fill="#FEFECE" filter="url(#fysy0a41fuvfi)" height="30.2969" style="stroke:#A80036;stroke-width:1.5;" width="212" x="949" y="867.5469"/><text fill="#000000" font-family="sans-serif" font-size="14" lengthAdjust="spacing" textLength="198" x="956" y="887.542">:InsertParkingLotController</text><rect fill="#FEFECE" filter="url(#fysy0a41fuvfi)" height="30.2969" style="stroke:#A80036;stroke-width:1.5;" width="82" x="1190" y="53"/><text fill="#000000" font-family="sans-serif" font-size="14" lengthAdjust="spacing" textLength="68" x="1197" y="72.9951">:Platform</text><rect fill="#FEFECE" filter="url(#fysy0a41fuvfi)" height="30.2969" style="stroke:#A80036;stroke-width:1.5;" width="82" x="1190" y="867.5469"/><text fill="#000000" font-family="sans-serif" font-size="14" lengthAdjust="spacing" textLength="68" x="1197" y="887.542">:Platform</text><rect fill="#FEFECE" filter="url(#fysy0a41fuvfi)" height="30.2969" style="stroke:#A80036;stroke-width:1.5;" width="115" x="1286" y="53"/><text fill="#000000" font-family="sans-serif" font-size="14" lengthAdjust="spacing" textLength="101" x="1293" y="72.9951">:PharmacyList</text><rect fill="#FEFECE" filter="url(#fysy0a41fuvfi)" height="30.2969" style="stroke:#A80036;stroke-width:1.5;" width="115" x="1286" y="867.5469"/><text fill="#000000" font-family="sans-serif" font-size="14" lengthAdjust="spacing" textLength="101" x="1293" y="887.542">:PharmacyList</text><rect fill="#FEFECE" filter="url(#fysy0a41fuvfi)" height="30.2969" style="stroke:#A80036;stroke-width:1.5;" width="97" x="1527.5" y="53"/><text fill="#000000" font-family="sans-serif" font-size="14" lengthAdjust="spacing" textLength="83" x="1534.5" y="72.9951">:ParkingLot</text><rect fill="#FEFECE" filter="url(#fysy0a41fuvfi)" height="30.2969" style="stroke:#A80036;stroke-width:1.5;" width="97" x="1527.5" y="867.5469"/><text fill="#000000" font-family="sans-serif" font-size="14" lengthAdjust="spacing" textLength="83" x="1534.5" y="887.542">:ParkingLot</text><rect fill="#FEFECE" filter="url(#fysy0a41fuvfi)" height="46.5938" style="stroke:#A80036;stroke-width:1.5;" width="97" x="1947" y="867.5469"/><text fill="#000000" font-family="sans-serif" font-size="14" lengthAdjust="spacing" textLength="79" x="1954" y="887.542">parkingLot</text><text fill="#000000" font-family="sans-serif" font-size="14" lengthAdjust="spacing" textLength="83" x="1954" y="903.8389">:ParkingLot</text><rect fill="#FEFECE" filter="url(#fysy0a41fuvfi)" height="30.2969" style="stroke:#A80036;stroke-width:1.5;" width="89" x="2058" y="53"/><text fill="#000000" font-family="sans-serif" font-size="14" lengthAdjust="spacing" textLength="75" x="2065" y="72.9951">:Pharmacy</text><rect fill="#FEFECE" filter="url(#fysy0a41fuvfi)" height="30.2969" style="stroke:#A80036;stroke-width:1.5;" width="89" x="2058" y="867.5469"/><text fill="#000000" font-family="sans-serif" font-size="14" lengthAdjust="spacing" textLength="75" x="2065" y="887.542">:Pharmacy</text><rect fill="#FFFFFF" filter="url(#fysy0a41fuvfi)" height="752.25" style="stroke:#A80036;stroke-width:1.0;" width="10" x="53" y="98.2969"/><rect fill="#FFFFFF" filter="url(#fysy0a41fuvfi)" height="29.1328" style="stroke:#A80036;stroke-width:1.0;" width="10" x="616" y="119.4297"/><rect fill="#FFFFFF" filter="url(#fysy0a41fuvfi)" height="176.5313" style="stroke:#A80036;stroke-width:1.0;" width="10" x="616" y="177.6953"/><rect fill="#FFFFFF" filter="url(#fysy0a41fuvfi)" height="29.1328" style="stroke:#A80036;stroke-width:1.0;" width="10" x="616" y="383.3594"/><rect fill="#FFFFFF" filter="url(#fysy0a41fuvfi)" height="208.125" style="stroke:#A80036;stroke-width:1.0;" width="10" x="616" y="441.625"/><rect fill="#FFFFFF" filter="url(#fysy0a41fuvfi)" height="171.6641" style="stroke:#A80036;stroke-width:1.0;" width="10" x="616" y="678.8828"/><rect fill="#FFFFFF" filter="url(#fysy0a41fuvfi)" height="118.2656" style="stroke:#A80036;stroke-width:1.0;" width="10" x="1052" y="206.8281"/><rect fill="#FFFFFF" filter="url(#fysy0a41fuvfi)" height="149.8594" style="stroke:#A80036;stroke-width:1.0;" width="10" x="1052" y="470.7578"/><rect fill="#FFFFFF" filter="url(#fysy0a41fuvfi)" height="106.3984" style="stroke:#A80036;stroke-width:1.0;" width="10" x="1052" y="708.0156"/><rect fill="#FFFFFF" filter="url(#fysy0a41fuvfi)" height="30" style="stroke:#A80036;stroke-width:1.0;" width="10" x="1228" y="235.9609"/><rect fill="#FFFFFF" filter="url(#fysy0a41fuvfi)" height="30" style="stroke:#A80036;stroke-width:1.0;" width="10" x="1340.5" y="295.0938"/><rect fill="#FFFFFF" filter="url(#fysy0a41fuvfi)" height="29.1328" style="stroke:#A80036;stroke-width:1.0;" width="10" x="1573" y="499.8906"/><rect fill="#FFFFFF" filter="url(#fysy0a41fuvfi)" height="30" style="stroke:#A80036;stroke-width:1.0;" width="10" x="2099.5" y="590.6172"/><rect fill="#FFFFFF" filter="url(#fysy0a41fuvfi)" height="77.2656" style="stroke:#A80036;stroke-width:1.0;" width="10" x="2099.5" y="737.1484"/><polygon fill="#A80036" points="604,115.4297,614,119.4297,604,123.4297,608,119.4297" style="stroke:#A80036;stroke-width:1.0;"/><line style="stroke:#A80036;stroke-width:1.0;" x1="63" x2="610" y1="119.4297" y2="119.4297"/><text fill="#000000" font-family="sans-serif" font-size="13" lengthAdjust="spacing" textLength="234" x="70" y="114.3638">initiates the insertion of a parking lot</text><polygon fill="#A80036" points="74,144.5625,64,148.5625,74,152.5625,70,148.5625" style="stroke:#A80036;stroke-width:1.0;"/><line style="stroke:#A80036;stroke-width:1.0;" x1="68" x2="620" y1="148.5625" y2="148.5625"/><text fill="#000000" font-family="sans-serif" font-size="13" lengthAdjust="spacing" textLength="249" x="80" y="143.4966">requests data about the pharmacy (id)</text><polygon fill="#A80036" points="604,173.6953,614,177.6953,604,181.6953,608,177.6953" style="stroke:#A80036;stroke-width:1.0;"/><line style="stroke:#A80036;stroke-width:1.0;" x1="63" x2="610" y1="177.6953" y2="177.6953"/><text fill="#000000" font-family="sans-serif" font-size="13" lengthAdjust="spacing" textLength="170" x="70" y="172.6294">inserts the requested data</text><polygon fill="#A80036" points="1040,202.8281,1050,206.8281,1040,210.8281,1044,206.8281" style="stroke:#A80036;stroke-width:1.0;"/><line style="stroke:#A80036;stroke-width:1.0;" x1="626" x2="1046" y1="206.8281" y2="206.8281"/><text fill="#000000" font-family="sans-serif" font-size="13" lengthAdjust="spacing" textLength="174" x="633" y="201.7622">getPharmacy(pharmacyID)</text><polygon fill="#A80036" points="1216,231.9609,1226,235.9609,1216,239.9609,1220,235.9609" style="stroke:#A80036;stroke-width:1.0;"/><line style="stroke:#A80036;stroke-width:1.0;" x1="1062" x2="1222" y1="235.9609" y2="235.9609"/><text fill="#000000" font-family="sans-serif" font-size="13" lengthAdjust="spacing" textLength="147" x="1069" y="230.895">pl = getPharmacyList()</text><polygon fill="#A80036" points="1328.5,291.0938,1338.5,295.0938,1328.5,299.0938,1332.5,295.0938" style="stroke:#A80036;stroke-width:1.0;"/><line style="stroke:#A80036;stroke-width:1.0;" x1="1062" x2="1334.5" y1="295.0938" y2="295.0938"/><text fill="#000000" font-family="sans-serif" font-size="13" lengthAdjust="spacing" textLength="257" x="1069" y="290.0278">pharmacy = getPharmacy(pharmacyID)</text><polygon fill="#A80036" points="74,350.2266,64,354.2266,74,358.2266,70,354.2266" style="stroke:#A80036;stroke-width:1.0;"/><line style="stroke:#A80036;stroke-width:1.0;" x1="68" x2="620" y1="354.2266" y2="354.2266"/><text fill="#000000" font-family="sans-serif" font-size="13" lengthAdjust="spacing" textLength="366" x="80" y="349.1606">shows the selected pharmacy and requests confirmation</text><polygon fill="#A80036" points="604,379.3594,614,383.3594,604,387.3594,608,383.3594" style="stroke:#A80036;stroke-width:1.0;"/><line style="stroke:#A80036;stroke-width:1.0;" x1="63" x2="610" y1="383.3594" y2="383.3594"/><text fill="#000000" font-family="sans-serif" font-size="13" lengthAdjust="spacing" textLength="56" x="70" y="378.2935">confirms</text><polygon fill="#A80036" points="74,408.4922,64,412.4922,74,416.4922,70,412.4922" style="stroke:#A80036;stroke-width:1.0;"/><line style="stroke:#A80036;stroke-width:1.0;" x1="68" x2="620" y1="412.4922" y2="412.4922"/><text fill="#000000" font-family="sans-serif" font-size="13" lengthAdjust="spacing" textLength="529" x="80" y="407.4263">requests data about the parking lot (parkingLotSpots,parkingLotChargeSpots,type)</text><polygon fill="#A80036" points="604,437.625,614,441.625,604,445.625,608,441.625" style="stroke:#A80036;stroke-width:1.0;"/><line style="stroke:#A80036;stroke-width:1.0;" x1="63" x2="610" y1="441.625" y2="441.625"/><text fill="#000000" font-family="sans-serif" font-size="13" lengthAdjust="spacing" textLength="170" x="70" y="436.5591">inserts the requested data</text><polygon fill="#A80036" points="1040,466.7578,1050,470.7578,1040,474.7578,1044,470.7578" style="stroke:#A80036;stroke-width:1.0;"/><line style="stroke:#A80036;stroke-width:1.0;" x1="626" x2="1046" y1="470.7578" y2="470.7578"/><text fill="#000000" font-family="sans-serif" font-size="13" lengthAdjust="spacing" textLength="407" x="633" y="465.6919">createParkingLot(parkingLotSpots,parkingLotChargeSpots,type)</text><polygon fill="#A80036" points="1561,495.8906,1571,499.8906,1561,503.8906,1565,499.8906" style="stroke:#A80036;stroke-width:1.0;"/><line style="stroke:#A80036;stroke-width:1.0;" x1="1062" x2="1567" y1="499.8906" y2="499.8906"/><text fill="#000000" font-family="sans-serif" font-size="13" lengthAdjust="spacing" textLength="492" x="1069" y="494.8247">parkingLot = createParkingLot(parkingLotSpots,parkingLotChargeSpots,type)</text><polygon fill="#A80036" points="1935,525.0234,1945,529.0234,1935,533.0234,1939,529.0234" style="stroke:#A80036;stroke-width:1.0;"/><line style="stroke:#A80036;stroke-width:1.0;" x1="1578" x2="1941" y1="529.0234" y2="529.0234"/><text fill="#000000" font-family="sans-serif" font-size="13" lengthAdjust="spacing" textLength="340" x="1585" y="523.9575">create(parkingLotSpots,parkingLotChargeSpots,type)</text><rect fill="#FEFECE" filter="url(#fysy0a41fuvfi)" height="46.5938" style="stroke:#A80036;stroke-width:1.5;" width="97" x="1947" y="507.8906"/><text fill="#000000" font-family="sans-serif" font-size="14" lengthAdjust="spacing" textLength="79" x="1954" y="527.8857">parkingLot</text><text fill="#000000" font-family="sans-serif" font-size="14" lengthAdjust="spacing" textLength="83" x="1954" y="544.1826">:ParkingLot</text><polygon fill="#A80036" points="2087.5,586.6172,2097.5,590.6172,2087.5,594.6172,2091.5,590.6172" style="stroke:#A80036;stroke-width:1.0;"/><line style="stroke:#A80036;stroke-width:1.0;" x1="1062" x2="2093.5" y1="590.6172" y2="590.6172"/><text fill="#000000" font-family="sans-serif" font-size="13" lengthAdjust="spacing" textLength="195" x="1069" y="585.5513">validateParkingLot(parkingLot)</text><polygon fill="#A80036" points="74,645.75,64,649.75,74,653.75,70,649.75" style="stroke:#A80036;stroke-width:1.0;"/><line style="stroke:#A80036;stroke-width:1.0;" x1="68" x2="620" y1="649.75" y2="649.75"/><text fill="#000000" font-family="sans-serif" font-size="13" lengthAdjust="spacing" textLength="312" x="80" y="644.6841">shows the insert data and requests confirmation</text><polygon fill="#A80036" points="604,674.8828,614,678.8828,604,682.8828,608,678.8828" style="stroke:#A80036;stroke-width:1.0;"/><line style="stroke:#A80036;stroke-width:1.0;" x1="63" x2="610" y1="678.8828" y2="678.8828"/><text fill="#000000" font-family="sans-serif" font-size="13" lengthAdjust="spacing" textLength="56" x="70" y="673.8169">confirms</text><polygon fill="#A80036" points="1040,704.0156,1050,708.0156,1040,712.0156,1044,708.0156" style="stroke:#A80036;stroke-width:1.0;"/><line style="stroke:#A80036;stroke-width:1.0;" x1="626" x2="1046" y1="708.0156" y2="708.0156"/><text fill="#000000" font-family="sans-serif" font-size="13" lengthAdjust="spacing" textLength="126" x="633" y="702.9497">registerParkingLot()</text><polygon fill="#A80036" points="2087.5,733.1484,2097.5,737.1484,2087.5,741.1484,2091.5,737.1484" style="stroke:#A80036;stroke-width:1.0;"/><line style="stroke:#A80036;stroke-width:1.0;" x1="1062" x2="2093.5" y1="737.1484" y2="737.1484"/><text fill="#000000" font-family="sans-serif" font-size="13" lengthAdjust="spacing" textLength="193" x="1069" y="732.0825">registerParkingLot(parkingLot)</text><line style="stroke:#A80036;stroke-width:1.0;" x1="2109.5" x2="2151.5" y1="766.2813" y2="766.2813"/><line style="stroke:#A80036;stroke-width:1.0;" x1="2151.5" x2="2151.5" y1="766.2813" y2="779.2813"/><line style="stroke:#A80036;stroke-width:1.0;" x1="2110.5" x2="2151.5" y1="779.2813" y2="779.2813"/><polygon fill="#A80036" points="2120.5,775.2813,2110.5,779.2813,2120.5,783.2813,2116.5,779.2813" style="stroke:#A80036;stroke-width:1.0;"/><text fill="#000000" font-family="sans-serif" font-size="13" lengthAdjust="spacing" textLength="195" x="2116.5" y="761.2153">validateParkingLot(parkingLot)</text><line style="stroke:#A80036;stroke-width:1.0;" x1="2109.5" x2="2151.5" y1="813.4141" y2="813.4141"/><line style="stroke:#A80036;stroke-width:1.0;" x1="2151.5" x2="2151.5" y1="813.4141" y2="826.4141"/><line style="stroke:#A80036;stroke-width:1.0;" x1="2104.5" x2="2151.5" y1="826.4141" y2="826.4141"/><polygon fill="#A80036" points="2114.5,822.4141,2104.5,826.4141,2114.5,830.4141,2110.5,826.4141" style="stroke:#A80036;stroke-width:1.0;"/><text fill="#000000" font-family="sans-serif" font-size="13" lengthAdjust="spacing" textLength="168" x="2116.5" y="808.3481">addParkingLot(parkingLot)</text><polygon fill="#A80036" points="69,846.5469,59,850.5469,69,854.5469,65,850.5469" style="stroke:#A80036;stroke-width:1.0;"/><line style="stroke:#A80036;stroke-width:1.0;" x1="63" x2="620" y1="850.5469" y2="850.5469"/><text fill="#000000" font-family="sans-serif" font-size="13" lengthAdjust="spacing" textLength="236" x="75" y="845.481">informs the success of the operation</text><!--MD5=[aa72438b8f70f5fcdb0360fba333b4ba]
@startuml
actor "Administrator" as ADM
participant ":InsertParkingLotUI" as UI
participant ":InsertParkingLotController" as CTRL
participant ":Platform" as PLAT
participant ":PharmacyList" as PL
participant ":ParkingLot" as PKL
participant "parkingLot \n:ParkingLot" as _PKL
participant ":Pharmacy" as P


activate ADM
ADM -> UI : initiates the insertion of a parking lot
activate UI

UI -> ADM : requests data about the pharmacy (id)
deactivate UI

ADM -> UI : inserts the requested data
activate UI

UI -> CTRL : getPharmacy(pharmacyID)
activate CTRL
CTRL -> PLAT : pl = getPharmacyList()
activate PLAT
deactivate PLAT
CTRL -> PL : pharmacy = getPharmacy(pharmacyID)
activate PL
deactivate PL
deactivate CTRL

UI -> ADM : shows the selected pharmacy and requests confirmation
deactivate UI

ADM -> UI : confirms
activate UI

UI -> ADM : requests data about the parking lot (parkingLotSpots,parkingLotChargeSpots,type)
deactivate UI

ADM -> UI : inserts the requested data
activate UI

UI -> CTRL : createParkingLot(parkingLotSpots,parkingLotChargeSpots,type)
activate CTRL
CTRL -> PKL : parkingLot = createParkingLot(parkingLotSpots,parkingLotChargeSpots,type)
activate PKL
PKL -> _PKL ** : create(parkingLotSpots,parkingLotChargeSpots,type)
deactivate PKL
CTRL -> P : validateParkingLot(parkingLot)
activate P
deactivate P
deactivate CTRL

UI -> ADM : shows the insert data and requests confirmation
deactivate UI

ADM -> UI : confirms
activate UI

UI -> CTRL : registerParkingLot()
activate CTRL

CTRL -> P : registerParkingLot(parkingLot)
activate P
P -> P : validateParkingLot(parkingLot)
P -> P : addParkingLot(parkingLot)
deactivate P
deactivate CTRL

UI -> ADM : informs the success of the operation
deactivate UI

deactivate ADM
@enduml

PlantUML version 1.2021.01beta3(Unknown compile time)
(GPL source distribution)
Java Runtime: Java(TM) SE Runtime Environment
JVM: Java HotSpot(TM) 64-Bit Server VM
Default Encoding: UTF-8
Language: en
Country: US
--></g></svg>