<?xml version="1.0" encoding="UTF-8" standalone="no"?><svg xmlns="http://www.w3.org/2000/svg" xmlns:xlink="http://www.w3.org/1999/xlink" contentScriptType="application/ecmascript" contentStyleType="text/css" height="723px" preserveAspectRatio="none" style="width:885px;height:723px;" version="1.1" viewBox="0 0 885 723" width="885px" zoomAndPan="magnify"><defs><filter height="300%" id="fo8hz0w8r71n5" width="300%" x="-1" y="-1"><feGaussianBlur result="blurOut" stdDeviation="2.0"/><feColorMatrix in="blurOut" result="blurOut2" type="matrix" values="0 0 0 0 0 0 0 0 0 0 0 0 0 0 0 0 0 0 .4 0"/><feOffset dx="4.0" dy="4.0" in="blurOut2" result="blurOut3"/><feBlend in="SourceGraphic" in2="blurOut3" mode="normal"/></filter></defs><g><!--MD5=[9681dc6e01e10c6b4fe06895ae94f592]
cluster UI--><polygon fill="#FFFFFF" filter="url(#fo8hz0w8r71n5)" points="137,6,159,6,166,28.2969,309,28.2969,309,105,137,105,137,6" style="stroke:#000000;stroke-width:1.5;"/><line style="stroke:#000000;stroke-width:1.5;" x1="137" x2="166" y1="28.2969" y2="28.2969"/><text fill="#000000" font-family="sans-serif" font-size="14" font-weight="bold" lengthAdjust="spacing" textLength="16" x="141" y="20.9951">UI</text><!--MD5=[ed1d20ea533a2a0e7df5ba3c35e56ced]
cluster Controllers--><polygon fill="#FFFFFF" filter="url(#fo8hz0w8r71n5)" points="16,138,112,138,119,160.2969,430,160.2969,430,275,16,275,16,138" style="stroke:#000000;stroke-width:1.5;"/><line style="stroke:#000000;stroke-width:1.5;" x1="16" x2="119" y1="160.2969" y2="160.2969"/><text fill="#000000" font-family="sans-serif" font-size="14" font-weight="bold" lengthAdjust="spacing" textLength="90" x="20" y="152.9951">Controllers</text><!--MD5=[121a8bf1197281ab89ed693fab589f94]
cluster Domain--><polygon fill="#FFFFFF" filter="url(#fo8hz0w8r71n5)" points="454,150.5,521,150.5,528,172.7969,868,172.7969,868,716,454,716,454,150.5" style="stroke:#000000;stroke-width:1.5;"/><line style="stroke:#000000;stroke-width:1.5;" x1="454" x2="528" y1="172.7969" y2="172.7969"/><text fill="#000000" font-family="sans-serif" font-size="14" font-weight="bold" lengthAdjust="spacing" textLength="61" x="458" y="165.4951">Domain</text><!--MD5=[7fc034d7958820005c4949f2c73227f8]
class InsertParkingLotUI--><rect codeLine="16" fill="#FEFECE" filter="url(#fo8hz0w8r71n5)" height="48" id="InsertParkingLotUI" style="stroke:#A80036;stroke-width:1.5;" width="139" x="153.5" y="41"/><ellipse cx="168.5" cy="57" fill="#ADD1B2" rx="11" ry="11" style="stroke:#A80036;stroke-width:1.0;"/><path d="M170.8438,52.6719 C169.9063,52.2344 169.3125,52.0938 168.4375,52.0938 C165.8125,52.0938 163.8125,54.1719 163.8125,56.8906 L163.8125,58.0156 C163.8125,60.5938 165.9219,62.4844 168.8125,62.4844 C170.0313,62.4844 171.1875,62.1875 171.9375,61.6406 C172.5156,61.2344 172.8438,60.7813 172.8438,60.3906 C172.8438,59.9375 172.4531,59.5469 171.9844,59.5469 C171.7656,59.5469 171.5625,59.625 171.375,59.8125 C170.9219,60.2969 170.9219,60.2969 170.7344,60.3906 C170.3125,60.6563 169.625,60.7813 168.8594,60.7813 C166.8125,60.7813 165.5156,59.6875 165.5156,57.9844 L165.5156,56.8906 C165.5156,55.1094 166.7656,53.7969 168.5,53.7969 C169.0781,53.7969 169.6875,53.9531 170.1563,54.2031 C170.6406,54.4844 170.8125,54.7031 170.9063,55.1094 C170.9688,55.5156 171,55.6406 171.1406,55.7656 C171.2813,55.9063 171.5156,56.0156 171.7344,56.0156 C172,56.0156 172.2656,55.875 172.4375,55.6563 C172.5469,55.5 172.5781,55.3125 172.5781,54.8906 L172.5781,53.4688 C172.5781,53.0313 172.5625,52.9063 172.4688,52.75 C172.3125,52.4844 172.0313,52.3438 171.7344,52.3438 C171.4375,52.3438 171.2344,52.4375 171.0156,52.75 L170.8438,52.6719 Z " fill="#000000"/><text fill="#000000" font-family="sans-serif" font-size="12" lengthAdjust="spacing" textLength="107" x="182.5" y="61.1543">InsertParkingLotUI</text><line style="stroke:#A80036;stroke-width:1.5;" x1="154.5" x2="291.5" y1="73" y2="73"/><line style="stroke:#A80036;stroke-width:1.5;" x1="154.5" x2="291.5" y1="81" y2="81"/><!--MD5=[5816ba98fce060517cded6f13c750a38]
class InsertParkingLotController--><rect codeLine="19" fill="#FEFECE" filter="url(#fo8hz0w8r71n5)" height="86.4141" id="InsertParkingLotController" style="stroke:#A80036;stroke-width:1.5;" width="381" x="32.5" y="173"/><ellipse cx="141.75" cy="189" fill="#ADD1B2" rx="11" ry="11" style="stroke:#A80036;stroke-width:1.0;"/><path d="M144.0938,184.6719 C143.1563,184.2344 142.5625,184.0938 141.6875,184.0938 C139.0625,184.0938 137.0625,186.1719 137.0625,188.8906 L137.0625,190.0156 C137.0625,192.5938 139.1719,194.4844 142.0625,194.4844 C143.2813,194.4844 144.4375,194.1875 145.1875,193.6406 C145.7656,193.2344 146.0938,192.7813 146.0938,192.3906 C146.0938,191.9375 145.7031,191.5469 145.2344,191.5469 C145.0156,191.5469 144.8125,191.625 144.625,191.8125 C144.1719,192.2969 144.1719,192.2969 143.9844,192.3906 C143.5625,192.6563 142.875,192.7813 142.1094,192.7813 C140.0625,192.7813 138.7656,191.6875 138.7656,189.9844 L138.7656,188.8906 C138.7656,187.1094 140.0156,185.7969 141.75,185.7969 C142.3281,185.7969 142.9375,185.9531 143.4063,186.2031 C143.8906,186.4844 144.0625,186.7031 144.1563,187.1094 C144.2188,187.5156 144.25,187.6406 144.3906,187.7656 C144.5313,187.9063 144.7656,188.0156 144.9844,188.0156 C145.25,188.0156 145.5156,187.875 145.6875,187.6563 C145.7969,187.5 145.8281,187.3125 145.8281,186.8906 L145.8281,185.4688 C145.8281,185.0313 145.8125,184.9063 145.7188,184.75 C145.5625,184.4844 145.2813,184.3438 144.9844,184.3438 C144.6875,184.3438 144.4844,184.4375 144.2656,184.75 L144.0938,184.6719 Z " fill="#000000"/><text fill="#000000" font-family="sans-serif" font-size="12" lengthAdjust="spacing" textLength="154" x="162.25" y="193.1543">InsertParkingLotController</text><line style="stroke:#A80036;stroke-width:1.5;" x1="33.5" x2="412.5" y1="205" y2="205"/><line style="stroke:#A80036;stroke-width:1.5;" x1="33.5" x2="412.5" y1="213" y2="213"/><ellipse cx="43.5" cy="224" fill="#84BE84" rx="3" ry="3" style="stroke:#038048;stroke-width:1.0;"/><text fill="#000000" font-family="sans-serif" font-size="11" lengthAdjust="spacing" textLength="150" x="52.5" y="227.2104">getPharmacy(pharmacyID)</text><ellipse cx="43.5" cy="236.8047" fill="#84BE84" rx="3" ry="3" style="stroke:#038048;stroke-width:1.0;"/><text fill="#000000" font-family="sans-serif" font-size="11" lengthAdjust="spacing" textLength="355" x="52.5" y="240.0151">createParkingLot(parkingLotSpots,parkingLotChargeSpots,type)</text><ellipse cx="43.5" cy="249.6094" fill="#84BE84" rx="3" ry="3" style="stroke:#038048;stroke-width:1.0;"/><text fill="#000000" font-family="sans-serif" font-size="11" lengthAdjust="spacing" textLength="109" x="52.5" y="252.8198">registerParkingLot()</text><!--MD5=[8050ef462d77cf220fd706493bc05cc9]
class PharmacyList--><rect codeLine="25" fill="#FEFECE" filter="url(#fo8hz0w8r71n5)" height="60.8047" id="PharmacyList" style="stroke:#A80036;stroke-width:1.5;" width="176" x="470" y="338"/><ellipse cx="515.25" cy="354" fill="#ADD1B2" rx="11" ry="11" style="stroke:#A80036;stroke-width:1.0;"/><path d="M517.5938,349.6719 C516.6563,349.2344 516.0625,349.0938 515.1875,349.0938 C512.5625,349.0938 510.5625,351.1719 510.5625,353.8906 L510.5625,355.0156 C510.5625,357.5938 512.6719,359.4844 515.5625,359.4844 C516.7813,359.4844 517.9375,359.1875 518.6875,358.6406 C519.2656,358.2344 519.5938,357.7813 519.5938,357.3906 C519.5938,356.9375 519.2031,356.5469 518.7344,356.5469 C518.5156,356.5469 518.3125,356.625 518.125,356.8125 C517.6719,357.2969 517.6719,357.2969 517.4844,357.3906 C517.0625,357.6563 516.375,357.7813 515.6094,357.7813 C513.5625,357.7813 512.2656,356.6875 512.2656,354.9844 L512.2656,353.8906 C512.2656,352.1094 513.5156,350.7969 515.25,350.7969 C515.8281,350.7969 516.4375,350.9531 516.9063,351.2031 C517.3906,351.4844 517.5625,351.7031 517.6563,352.1094 C517.7188,352.5156 517.75,352.6406 517.8906,352.7656 C518.0313,352.9063 518.2656,353.0156 518.4844,353.0156 C518.75,353.0156 519.0156,352.875 519.1875,352.6563 C519.2969,352.5 519.3281,352.3125 519.3281,351.8906 L519.3281,350.4688 C519.3281,350.0313 519.3125,349.9063 519.2188,349.75 C519.0625,349.4844 518.7813,349.3438 518.4844,349.3438 C518.1875,349.3438 517.9844,349.4375 517.7656,349.75 L517.5938,349.6719 Z " fill="#000000"/><text fill="#000000" font-family="sans-serif" font-size="12" lengthAdjust="spacing" textLength="77" x="535.75" y="358.1543">PharmacyList</text><line style="stroke:#A80036;stroke-width:1.5;" x1="471" x2="645" y1="370" y2="370"/><line style="stroke:#A80036;stroke-width:1.5;" x1="471" x2="645" y1="378" y2="378"/><ellipse cx="481" cy="389" fill="#84BE84" rx="3" ry="3" style="stroke:#038048;stroke-width:1.0;"/><text fill="#000000" font-family="sans-serif" font-size="11" lengthAdjust="spacing" textLength="150" x="490" y="392.2104">getPharmacy(pharmacyID)</text><!--MD5=[7f2a9fafcebe4f099f71398fd3e2ed00]
class Pharmacy--><rect codeLine="29" fill="#FEFECE" filter="url(#fo8hz0w8r71n5)" height="86.4141" id="Pharmacy" style="stroke:#A80036;stroke-width:1.5;" width="195" x="470.5" y="476"/><ellipse cx="535.25" cy="492" fill="#ADD1B2" rx="11" ry="11" style="stroke:#A80036;stroke-width:1.0;"/><path d="M537.5938,487.6719 C536.6563,487.2344 536.0625,487.0938 535.1875,487.0938 C532.5625,487.0938 530.5625,489.1719 530.5625,491.8906 L530.5625,493.0156 C530.5625,495.5938 532.6719,497.4844 535.5625,497.4844 C536.7813,497.4844 537.9375,497.1875 538.6875,496.6406 C539.2656,496.2344 539.5938,495.7813 539.5938,495.3906 C539.5938,494.9375 539.2031,494.5469 538.7344,494.5469 C538.5156,494.5469 538.3125,494.625 538.125,494.8125 C537.6719,495.2969 537.6719,495.2969 537.4844,495.3906 C537.0625,495.6563 536.375,495.7813 535.6094,495.7813 C533.5625,495.7813 532.2656,494.6875 532.2656,492.9844 L532.2656,491.8906 C532.2656,490.1094 533.5156,488.7969 535.25,488.7969 C535.8281,488.7969 536.4375,488.9531 536.9063,489.2031 C537.3906,489.4844 537.5625,489.7031 537.6563,490.1094 C537.7188,490.5156 537.75,490.6406 537.8906,490.7656 C538.0313,490.9063 538.2656,491.0156 538.4844,491.0156 C538.75,491.0156 539.0156,490.875 539.1875,490.6563 C539.2969,490.5 539.3281,490.3125 539.3281,489.8906 L539.3281,488.4688 C539.3281,488.0313 539.3125,487.9063 539.2188,487.75 C539.0625,487.4844 538.7813,487.3438 538.4844,487.3438 C538.1875,487.3438 537.9844,487.4375 537.7656,487.75 L537.5938,487.6719 Z " fill="#000000"/><text fill="#000000" font-family="sans-serif" font-size="12" lengthAdjust="spacing" textLength="57" x="555.75" y="496.1543">Pharmacy</text><line style="stroke:#A80036;stroke-width:1.5;" x1="471.5" x2="664.5" y1="508" y2="508"/><line style="stroke:#A80036;stroke-width:1.5;" x1="471.5" x2="664.5" y1="516" y2="516"/><ellipse cx="481.5" cy="527" fill="#84BE84" rx="3" ry="3" style="stroke:#038048;stroke-width:1.0;"/><text fill="#000000" font-family="sans-serif" font-size="11" lengthAdjust="spacing" textLength="167" x="490.5" y="530.2104">registerParkingLot(parkingLot)</text><ellipse cx="481.5" cy="539.8047" fill="#84BE84" rx="3" ry="3" style="stroke:#038048;stroke-width:1.0;"/><text fill="#000000" font-family="sans-serif" font-size="11" lengthAdjust="spacing" textLength="169" x="490.5" y="543.0151">validateParkingLot(parkingLot)</text><ellipse cx="481.5" cy="552.6094" fill="#84BE84" rx="3" ry="3" style="stroke:#038048;stroke-width:1.0;"/><text fill="#000000" font-family="sans-serif" font-size="11" lengthAdjust="spacing" textLength="144" x="490.5" y="555.8198">addParkingLot(parkingLot)</text><!--MD5=[99b8db98afdc2c8404e39242ef4c1e65]
class Platform--><rect codeLine="35" fill="#FEFECE" filter="url(#fo8hz0w8r71n5)" height="60.8047" id="Platform" style="stroke:#A80036;stroke-width:1.5;" width="127" x="482.5" y="185.5"/><ellipse cx="518.65" cy="201.5" fill="#ADD1B2" rx="11" ry="11" style="stroke:#A80036;stroke-width:1.0;"/><path d="M520.9938,197.1719 C520.0563,196.7344 519.4625,196.5938 518.5875,196.5938 C515.9625,196.5938 513.9625,198.6719 513.9625,201.3906 L513.9625,202.5156 C513.9625,205.0938 516.0719,206.9844 518.9625,206.9844 C520.1813,206.9844 521.3375,206.6875 522.0875,206.1406 C522.6656,205.7344 522.9938,205.2813 522.9938,204.8906 C522.9938,204.4375 522.6031,204.0469 522.1344,204.0469 C521.9156,204.0469 521.7125,204.125 521.525,204.3125 C521.0719,204.7969 521.0719,204.7969 520.8844,204.8906 C520.4625,205.1563 519.775,205.2813 519.0094,205.2813 C516.9625,205.2813 515.6656,204.1875 515.6656,202.4844 L515.6656,201.3906 C515.6656,199.6094 516.9156,198.2969 518.65,198.2969 C519.2281,198.2969 519.8375,198.4531 520.3063,198.7031 C520.7906,198.9844 520.9625,199.2031 521.0563,199.6094 C521.1188,200.0156 521.15,200.1406 521.2906,200.2656 C521.4313,200.4063 521.6656,200.5156 521.8844,200.5156 C522.15,200.5156 522.4156,200.375 522.5875,200.1563 C522.6969,200 522.7281,199.8125 522.7281,199.3906 L522.7281,197.9688 C522.7281,197.5313 522.7125,197.4063 522.6188,197.25 C522.4625,196.9844 522.1813,196.8438 521.8844,196.8438 C521.5875,196.8438 521.3844,196.9375 521.1656,197.25 L520.9938,197.1719 Z " fill="#000000"/><text fill="#000000" font-family="sans-serif" font-size="12" lengthAdjust="spacing" textLength="48" x="537.35" y="205.6543">Platform</text><line style="stroke:#A80036;stroke-width:1.5;" x1="483.5" x2="608.5" y1="217.5" y2="217.5"/><line style="stroke:#A80036;stroke-width:1.5;" x1="483.5" x2="608.5" y1="225.5" y2="225.5"/><ellipse cx="493.5" cy="236.5" fill="#84BE84" rx="3" ry="3" style="stroke:#038048;stroke-width:1.0;"/><text fill="#000000" font-family="sans-serif" font-size="11" lengthAdjust="spacing" textLength="101" x="502.5" y="239.7104">getPharmacyList()</text><!--MD5=[8836a49f4083a7550430b1f83332c96a]
class ParkingLot--><rect codeLine="39" fill="#FEFECE" filter="url(#fo8hz0w8r71n5)" height="60.8047" id="ParkingLot" style="stroke:#A80036;stroke-width:1.5;" width="381" x="470.5" y="639"/><ellipse cx="626.25" cy="655" fill="#ADD1B2" rx="11" ry="11" style="stroke:#A80036;stroke-width:1.0;"/><path d="M628.5938,650.6719 C627.6563,650.2344 627.0625,650.0938 626.1875,650.0938 C623.5625,650.0938 621.5625,652.1719 621.5625,654.8906 L621.5625,656.0156 C621.5625,658.5938 623.6719,660.4844 626.5625,660.4844 C627.7813,660.4844 628.9375,660.1875 629.6875,659.6406 C630.2656,659.2344 630.5938,658.7813 630.5938,658.3906 C630.5938,657.9375 630.2031,657.5469 629.7344,657.5469 C629.5156,657.5469 629.3125,657.625 629.125,657.8125 C628.6719,658.2969 628.6719,658.2969 628.4844,658.3906 C628.0625,658.6563 627.375,658.7813 626.6094,658.7813 C624.5625,658.7813 623.2656,657.6875 623.2656,655.9844 L623.2656,654.8906 C623.2656,653.1094 624.5156,651.7969 626.25,651.7969 C626.8281,651.7969 627.4375,651.9531 627.9063,652.2031 C628.3906,652.4844 628.5625,652.7031 628.6563,653.1094 C628.7188,653.5156 628.75,653.6406 628.8906,653.7656 C629.0313,653.9063 629.2656,654.0156 629.4844,654.0156 C629.75,654.0156 630.0156,653.875 630.1875,653.6563 C630.2969,653.5 630.3281,653.3125 630.3281,652.8906 L630.3281,651.4688 C630.3281,651.0313 630.3125,650.9063 630.2188,650.75 C630.0625,650.4844 629.7813,650.3438 629.4844,650.3438 C629.1875,650.3438 628.9844,650.4375 628.7656,650.75 L628.5938,650.6719 Z " fill="#000000"/><text fill="#000000" font-family="sans-serif" font-size="12" lengthAdjust="spacing" textLength="61" x="646.75" y="659.1543">ParkingLot</text><line style="stroke:#A80036;stroke-width:1.5;" x1="471.5" x2="850.5" y1="671" y2="671"/><line style="stroke:#A80036;stroke-width:1.5;" x1="471.5" x2="850.5" y1="679" y2="679"/><ellipse cx="481.5" cy="690" fill="#84BE84" rx="3" ry="3" style="stroke:#038048;stroke-width:1.0;"/><text fill="#000000" font-family="sans-serif" font-size="11" lengthAdjust="spacing" textLength="355" x="490.5" y="693.2104">createParkingLot(parkingLotSpots,parkingLotChargeSpots,type)</text><!--MD5=[5011843baef4d23baa1d79b6fdf5cf85]
link InsertParkingLotUI to InsertParkingLotController--><path codeLine="43" d="M223,89.281 C223,110.229 223,141.649 223,167.836 " fill="none" id="InsertParkingLotUI-to-InsertParkingLotController" style="stroke:#A80036;stroke-width:1.0;stroke-dasharray:7.0,7.0;"/><polygon fill="#A80036" points="223,172.999,227,163.999,223,167.999,219,163.999,223,172.999" style="stroke:#A80036;stroke-width:1.0;"/><!--MD5=[ce7d76271f337b577f649f1c6929c1f4]
link InsertParkingLotController to ParkingLot--><path codeLine="45" d="M242.219,259.158 C276.105,329.63 352.511,472.431 453,562 C488.723,593.841 535.685,618.95 575.945,636.7705 " fill="none" id="InsertParkingLotController-to-ParkingLot" style="stroke:#A80036;stroke-width:1.0;stroke-dasharray:7.0,7.0;"/><polygon fill="#A80036" points="580.82,638.9076,574.1827,631.6312,576.2406,636.9004,570.9713,638.9583,580.82,638.9076" style="stroke:#A80036;stroke-width:1.0;"/><!--MD5=[fa9fbb45c05d956c72e7ebafb80e7e27]
link InsertParkingLotController to Pharmacy--><path codeLine="46" d="M272.811,259.12 C285.008,269.503 298.003,280.621 310,291 C382.118,353.389 464.756,426.362 516.663,472.382 " fill="none" id="InsertParkingLotController-to-Pharmacy" style="stroke:#A80036;stroke-width:1.0;stroke-dasharray:7.0,7.0;"/><polygon fill="#A80036" points="520.657,475.923,516.5763,466.9593,516.9157,472.606,511.269,472.9454,520.657,475.923" style="stroke:#A80036;stroke-width:1.0;"/><!--MD5=[553ee643f8c9011b4ed7ac5177a0dc39]
link InsertParkingLotController to Platform--><path codeLine="47" d="M413.52,216 C434.759,216 455.999,216 477.239,216 " fill="none" id="InsertParkingLotController-to-Platform" style="stroke:#A80036;stroke-width:1.0;stroke-dasharray:7.0,7.0;"/><polygon fill="#A80036" points="482.347,216,473.347,212,477.347,216,473.347,220,482.347,216" style="stroke:#A80036;stroke-width:1.0;"/><!--MD5=[74d8cd7a95a6dd0de5fdc0cc9b13ebd4]
link InsertParkingLotController to PharmacyList--><path codeLine="48" d="M330.412,259.063 C355.072,269.164 381.071,280.173 405,291 C435.565,304.83 468.947,321.35 496.708,335.494 " fill="none" id="InsertParkingLotController-to-PharmacyList" style="stroke:#A80036;stroke-width:1.0;stroke-dasharray:7.0,7.0;"/><polygon fill="#A80036" points="501.468,337.924,495.2723,330.268,497.0152,335.6497,491.6335,337.3926,501.468,337.924" style="stroke:#A80036;stroke-width:1.0;"/><!--MD5=[2bc5a413d94b08902b9f3d0151eb30f1]
link Platform to PharmacyList--><path codeLine="50" d="M548.371,246.734 C550.475,273.119 553.532,311.462 555.634,337.828 " fill="none" id="Platform-PharmacyList" style="stroke:#A80036;stroke-width:1.0;"/><text fill="#000000" font-family="sans-serif" font-size="13" lengthAdjust="spacing" textLength="33" x="554" y="304.0669">has&gt;</text><text fill="#000000" font-family="sans-serif" font-size="13" lengthAdjust="spacing" textLength="8" x="540.0503" y="266.3605">1</text><text fill="#000000" font-family="sans-serif" font-size="13" lengthAdjust="spacing" textLength="8" x="546.321" y="327.0558">1</text><!--MD5=[dcb9e7f24fda9389b72d4bf35ba5a068]
link PharmacyList to Pharmacy--><path codeLine="52" d="M560,399.194 C561.482,421.201 563.521,451.494 565.171,475.982 " fill="none" id="PharmacyList-Pharmacy" style="stroke:#A80036;stroke-width:1.0;"/><text fill="#000000" font-family="sans-serif" font-size="13" lengthAdjust="spacing" textLength="33" x="564" y="442.0669">has&gt;</text><text fill="#000000" font-family="sans-serif" font-size="13" lengthAdjust="spacing" textLength="8" x="551.6063" y="418.8126">1</text><text fill="#000000" font-family="sans-serif" font-size="13" lengthAdjust="spacing" textLength="7" x="557.1623" y="464.9752">*</text><!--MD5=[54781ac671cb1a8ee43ddd26f3addf70]
link Pharmacy to ParkingLot--><path codeLine="54" d="M594.401,562.157 C609.76,586.681 628.741,616.989 642.505,638.967 " fill="none" id="Pharmacy-ParkingLot" style="stroke:#A80036;stroke-width:1.0;"/><text fill="#000000" font-family="sans-serif" font-size="13" lengthAdjust="spacing" textLength="33" x="623" y="605.0669">has&gt;</text><text fill="#000000" font-family="sans-serif" font-size="13" lengthAdjust="spacing" textLength="8" x="590.1112" y="582.5907">1</text><text fill="#000000" font-family="sans-serif" font-size="13" lengthAdjust="spacing" textLength="23" x="612.9436" y="627.7501">1..*</text><!--MD5=[2cf25ad3b9711dc7b499ce6aed24546c]
@startuml
package UI <<Folder>> {
  class InsertParkingLotUI
}

package Controllers <<Folder>> {
  class InsertParkingLotController
}

package Domain <<Folder>> {
  class PharmacyList
  class Pharmacy
  class Platform
  class ParkingLot
}

class InsertParkingLotUI {
}

class InsertParkingLotController {
    +getPharmacy(pharmacyID)
    +createParkingLot(parkingLotSpots,parkingLotChargeSpots,type)
    +registerParkingLot()
}

class PharmacyList {
    +getPharmacy(pharmacyID)
}

class Pharmacy {
    +registerParkingLot(parkingLot)
    +validateParkingLot(parkingLot)
    +addParkingLot(parkingLot)
}

class Platform {
    +getPharmacyList()
}

class ParkingLot {
    +createParkingLot(parkingLotSpots,parkingLotChargeSpots,type)
}

InsertParkingLotUI ..> InsertParkingLotController

InsertParkingLotController .> ParkingLot
InsertParkingLotController .> Pharmacy
InsertParkingLotController .> Platform
InsertParkingLotController ..> PharmacyList

Platform "1" - - "1" PharmacyList : has>

PharmacyList "1" - - "*" Pharmacy : has>

Pharmacy "1" - - "1..*" ParkingLot : has>
@enduml

PlantUML version 1.2021.01beta3(Unknown compile time)
(GPL source distribution)
Java Runtime: Java(TM) SE Runtime Environment
JVM: Java HotSpot(TM) 64-Bit Server VM
Default Encoding: UTF-8
Language: en
Country: US
--></g></svg>