<?xml version="1.0" encoding="UTF-8" standalone="no"?><svg xmlns="http://www.w3.org/2000/svg" xmlns:xlink="http://www.w3.org/1999/xlink" contentScriptType="application/ecmascript" contentStyleType="text/css" height="195px" preserveAspectRatio="none" style="width:650px;height:195px;" version="1.1" viewBox="0 0 650 195" width="650px" zoomAndPan="magnify"><defs><filter height="300%" id="f1b8d0ed4wa5m9" width="300%" x="-1" y="-1"><feGaussianBlur result="blurOut" stdDeviation="2.0"/><feColorMatrix in="blurOut" result="blurOut2" type="matrix" values="0 0 0 0 0 0 0 0 0 0 0 0 0 0 0 0 0 0 .4 0"/><feOffset dx="4.0" dy="4.0" in="blurOut2" result="blurOut3"/><feBlend in="SourceGraphic" in2="blurOut3" mode="normal"/></filter></defs><g><!--MD5=[99b8db98afdc2c8404e39242ef4c1e65]
class Platform--><rect codeLine="3" fill="#FEFECE" filter="url(#f1b8d0ed4wa5m9)" height="48" id="Platform" style="stroke:#A80036;stroke-width:1.5;" width="80" x="7" y="56"/><ellipse cx="22" cy="72" fill="#ADD1B2" rx="11" ry="11" style="stroke:#A80036;stroke-width:1.0;"/><path d="M24.3438,67.6719 C23.4063,67.2344 22.8125,67.0938 21.9375,67.0938 C19.3125,67.0938 17.3125,69.1719 17.3125,71.8906 L17.3125,73.0156 C17.3125,75.5938 19.4219,77.4844 22.3125,77.4844 C23.5313,77.4844 24.6875,77.1875 25.4375,76.6406 C26.0156,76.2344 26.3438,75.7813 26.3438,75.3906 C26.3438,74.9375 25.9531,74.5469 25.4844,74.5469 C25.2656,74.5469 25.0625,74.625 24.875,74.8125 C24.4219,75.2969 24.4219,75.2969 24.2344,75.3906 C23.8125,75.6563 23.125,75.7813 22.3594,75.7813 C20.3125,75.7813 19.0156,74.6875 19.0156,72.9844 L19.0156,71.8906 C19.0156,70.1094 20.2656,68.7969 22,68.7969 C22.5781,68.7969 23.1875,68.9531 23.6563,69.2031 C24.1406,69.4844 24.3125,69.7031 24.4063,70.1094 C24.4688,70.5156 24.5,70.6406 24.6406,70.7656 C24.7813,70.9063 25.0156,71.0156 25.2344,71.0156 C25.5,71.0156 25.7656,70.875 25.9375,70.6563 C26.0469,70.5 26.0781,70.3125 26.0781,69.8906 L26.0781,68.4688 C26.0781,68.0313 26.0625,67.9063 25.9688,67.75 C25.8125,67.4844 25.5313,67.3438 25.2344,67.3438 C24.9375,67.3438 24.7344,67.4375 24.5156,67.75 L24.3438,67.6719 Z " fill="#000000"/><text fill="#000000" font-family="sans-serif" font-size="12" lengthAdjust="spacing" textLength="48" x="36" y="76.1543">Platform</text><line style="stroke:#A80036;stroke-width:1.5;" x1="8" x2="86" y1="88" y2="88"/><line style="stroke:#A80036;stroke-width:1.5;" x1="8" x2="86" y1="96" y2="96"/><!--MD5=[da547346deef918ea16944ba046651ef]
class Administrator--><rect codeLine="6" fill="#FEFECE" filter="url(#f1b8d0ed4wa5m9)" height="86.4141" id="Administrator" style="stroke:#A80036;stroke-width:1.5;" width="116" x="375" y="7"/><ellipse cx="391.8" cy="23" fill="#ADD1B2" rx="11" ry="11" style="stroke:#A80036;stroke-width:1.0;"/><path d="M394.1438,18.6719 C393.2063,18.2344 392.6125,18.0938 391.7375,18.0938 C389.1125,18.0938 387.1125,20.1719 387.1125,22.8906 L387.1125,24.0156 C387.1125,26.5938 389.2219,28.4844 392.1125,28.4844 C393.3313,28.4844 394.4875,28.1875 395.2375,27.6406 C395.8156,27.2344 396.1438,26.7813 396.1438,26.3906 C396.1438,25.9375 395.7531,25.5469 395.2844,25.5469 C395.0656,25.5469 394.8625,25.625 394.675,25.8125 C394.2219,26.2969 394.2219,26.2969 394.0344,26.3906 C393.6125,26.6563 392.925,26.7813 392.1594,26.7813 C390.1125,26.7813 388.8156,25.6875 388.8156,23.9844 L388.8156,22.8906 C388.8156,21.1094 390.0656,19.7969 391.8,19.7969 C392.3781,19.7969 392.9875,19.9531 393.4563,20.2031 C393.9406,20.4844 394.1125,20.7031 394.2063,21.1094 C394.2688,21.5156 394.3,21.6406 394.4406,21.7656 C394.5813,21.9063 394.8156,22.0156 395.0344,22.0156 C395.3,22.0156 395.5656,21.875 395.7375,21.6563 C395.8469,21.5 395.8781,21.3125 395.8781,20.8906 L395.8781,19.4688 C395.8781,19.0313 395.8625,18.9063 395.7688,18.75 C395.6125,18.4844 395.3313,18.3438 395.0344,18.3438 C394.7375,18.3438 394.5344,18.4375 394.3156,18.75 L394.1438,18.6719 Z " fill="#000000"/><text fill="#000000" font-family="sans-serif" font-size="12" lengthAdjust="spacing" textLength="80" x="406.2" y="27.1543">Administrator</text><line style="stroke:#A80036;stroke-width:1.5;" x1="376" x2="490" y1="39" y2="39"/><rect fill="none" height="6" style="stroke:#C82930;stroke-width:1.0;" width="6" x="383" y="47"/><text fill="#000000" font-family="sans-serif" font-size="11" lengthAdjust="spacing" textLength="47" x="395" y="53.2104">String id</text><rect fill="none" height="6" style="stroke:#C82930;stroke-width:1.0;" width="6" x="383" y="59.8047"/><text fill="#000000" font-family="sans-serif" font-size="11" lengthAdjust="spacing" textLength="70" x="395" y="66.0151">String name</text><rect fill="none" height="6" style="stroke:#C82930;stroke-width:1.0;" width="6" x="383" y="72.6094"/><text fill="#000000" font-family="sans-serif" font-size="11" lengthAdjust="spacing" textLength="90" x="395" y="78.8198">String password</text><line style="stroke:#A80036;stroke-width:1.5;" x1="376" x2="490" y1="85.4141" y2="85.4141"/><!--MD5=[7f2a9fafcebe4f099f71398fd3e2ed00]
class Pharmacy--><rect codeLine="12" fill="#FEFECE" filter="url(#f1b8d0ed4wa5m9)" height="86.4141" id="Pharmacy" style="stroke:#A80036;stroke-width:1.5;" width="129" x="216" y="95"/><ellipse cx="249" cy="111" fill="#ADD1B2" rx="11" ry="11" style="stroke:#A80036;stroke-width:1.0;"/><path d="M251.3438,106.6719 C250.4063,106.2344 249.8125,106.0938 248.9375,106.0938 C246.3125,106.0938 244.3125,108.1719 244.3125,110.8906 L244.3125,112.0156 C244.3125,114.5938 246.4219,116.4844 249.3125,116.4844 C250.5313,116.4844 251.6875,116.1875 252.4375,115.6406 C253.0156,115.2344 253.3438,114.7813 253.3438,114.3906 C253.3438,113.9375 252.9531,113.5469 252.4844,113.5469 C252.2656,113.5469 252.0625,113.625 251.875,113.8125 C251.4219,114.2969 251.4219,114.2969 251.2344,114.3906 C250.8125,114.6563 250.125,114.7813 249.3594,114.7813 C247.3125,114.7813 246.0156,113.6875 246.0156,111.9844 L246.0156,110.8906 C246.0156,109.1094 247.2656,107.7969 249,107.7969 C249.5781,107.7969 250.1875,107.9531 250.6563,108.2031 C251.1406,108.4844 251.3125,108.7031 251.4063,109.1094 C251.4688,109.5156 251.5,109.6406 251.6406,109.7656 C251.7813,109.9063 252.0156,110.0156 252.2344,110.0156 C252.5,110.0156 252.7656,109.875 252.9375,109.6563 C253.0469,109.5 253.0781,109.3125 253.0781,108.8906 L253.0781,107.4688 C253.0781,107.0313 253.0625,106.9063 252.9688,106.75 C252.8125,106.4844 252.5313,106.3438 252.2344,106.3438 C251.9375,106.3438 251.7344,106.4375 251.5156,106.75 L251.3438,106.6719 Z " fill="#000000"/><text fill="#000000" font-family="sans-serif" font-size="12" lengthAdjust="spacing" textLength="57" x="267" y="115.1543">Pharmacy</text><line style="stroke:#A80036;stroke-width:1.5;" x1="217" x2="344" y1="127" y2="127"/><rect fill="none" height="6" style="stroke:#C82930;stroke-width:1.0;" width="6" x="224" y="135"/><text fill="#000000" font-family="sans-serif" font-size="11" lengthAdjust="spacing" textLength="47" x="236" y="141.2104">String id</text><rect fill="none" height="6" style="stroke:#C82930;stroke-width:1.0;" width="6" x="224" y="147.8047"/><text fill="#000000" font-family="sans-serif" font-size="11" lengthAdjust="spacing" textLength="103" x="236" y="154.0151">String designation</text><rect fill="none" height="6" style="stroke:#C82930;stroke-width:1.0;" width="6" x="224" y="160.6094"/><text fill="#000000" font-family="sans-serif" font-size="11" lengthAdjust="spacing" textLength="69" x="236" y="166.8198">String email</text><line style="stroke:#A80036;stroke-width:1.5;" x1="217" x2="344" y1="173.4141" y2="173.4141"/><!--MD5=[8836a49f4083a7550430b1f83332c96a]
class ParkingLot--><rect codeLine="18" fill="#FEFECE" filter="url(#f1b8d0ed4wa5m9)" height="99.2188" id="ParkingLot" style="stroke:#A80036;stroke-width:1.5;" width="115" x="521" y="40.5"/><ellipse cx="545.9" cy="56.5" fill="#ADD1B2" rx="11" ry="11" style="stroke:#A80036;stroke-width:1.0;"/><path d="M548.2438,52.1719 C547.3063,51.7344 546.7125,51.5938 545.8375,51.5938 C543.2125,51.5938 541.2125,53.6719 541.2125,56.3906 L541.2125,57.5156 C541.2125,60.0938 543.3219,61.9844 546.2125,61.9844 C547.4313,61.9844 548.5875,61.6875 549.3375,61.1406 C549.9156,60.7344 550.2438,60.2813 550.2438,59.8906 C550.2438,59.4375 549.8531,59.0469 549.3844,59.0469 C549.1656,59.0469 548.9625,59.125 548.775,59.3125 C548.3219,59.7969 548.3219,59.7969 548.1344,59.8906 C547.7125,60.1563 547.025,60.2813 546.2594,60.2813 C544.2125,60.2813 542.9156,59.1875 542.9156,57.4844 L542.9156,56.3906 C542.9156,54.6094 544.1656,53.2969 545.9,53.2969 C546.4781,53.2969 547.0875,53.4531 547.5563,53.7031 C548.0406,53.9844 548.2125,54.2031 548.3063,54.6094 C548.3688,55.0156 548.4,55.1406 548.5406,55.2656 C548.6813,55.4063 548.9156,55.5156 549.1344,55.5156 C549.4,55.5156 549.6656,55.375 549.8375,55.1563 C549.9469,55 549.9781,54.8125 549.9781,54.3906 L549.9781,52.9688 C549.9781,52.5313 549.9625,52.4063 549.8688,52.25 C549.7125,51.9844 549.4313,51.8438 549.1344,51.8438 C548.8375,51.8438 548.6344,51.9375 548.4156,52.25 L548.2438,52.1719 Z " fill="#000000"/><text fill="#000000" font-family="sans-serif" font-size="12" lengthAdjust="spacing" textLength="61" x="562.1" y="60.6543">ParkingLot</text><line style="stroke:#A80036;stroke-width:1.5;" x1="522" x2="635" y1="72.5" y2="72.5"/><rect fill="none" height="6" style="stroke:#C82930;stroke-width:1.0;" width="6" x="529" y="80.5"/><text fill="#000000" font-family="sans-serif" font-size="11" lengthAdjust="spacing" textLength="47" x="541" y="86.7104">String id</text><rect fill="none" height="6" style="stroke:#C82930;stroke-width:1.0;" width="6" x="529" y="93.3047"/><text fill="#000000" font-family="sans-serif" font-size="11" lengthAdjust="spacing" textLength="75" x="541" y="99.5151">int totalSpots</text><rect fill="none" height="6" style="stroke:#C82930;stroke-width:1.0;" width="6" x="529" y="106.1094"/><text fill="#000000" font-family="sans-serif" font-size="11" lengthAdjust="spacing" textLength="89" x="541" y="112.3198">int chargeSpots</text><rect fill="none" height="6" style="stroke:#C82930;stroke-width:1.0;" width="6" x="529" y="118.9141"/><text fill="#000000" font-family="sans-serif" font-size="11" lengthAdjust="spacing" textLength="63" x="541" y="125.1245">String type</text><line style="stroke:#A80036;stroke-width:1.5;" x1="522" x2="635" y1="131.7188" y2="131.7188"/><!--MD5=[4a07f137c208f82f57837154e1cfa51e]
link Platform to Pharmacy--><path codeLine="25" d="M87.2254,93.1848 C96.9078,96.2514 107.288,99.3817 117,102 C149.364,110.7251 185.763,118.9347 215.895,125.3044 " fill="none" id="Platform-Pharmacy" style="stroke:#A80036;stroke-width:1.0;"/><polygon fill="#000000" points="126.8511,94.7774,118.7871,89.7353,117.3636,95.4381,126.8511,94.7774" style="stroke:#000000;stroke-width:1.0;"/><text fill="#000000" font-family="sans-serif" font-size="13" lengthAdjust="spacing" textLength="54" x="131" y="98.0669">contains</text><text fill="#000000" font-family="sans-serif" font-size="13" lengthAdjust="spacing" textLength="8" x="95.103" y="108.948">1</text><text fill="#000000" font-family="sans-serif" font-size="13" lengthAdjust="spacing" textLength="7" x="201.0204" y="136.7543">*</text><!--MD5=[0f7004bed4496639b3a5258ab2ead378]
link Platform to Administrator--><path codeLine="26" d="M87.2901,76.93 C155.435,71.607 295.805,60.64 374.782,54.47 " fill="none" id="Platform-Administrator" style="stroke:#A80036;stroke-width:1.0;"/><polygon fill="#000000" points="126.9848,61.177,117.7383,58.9515,118.1961,64.8115,126.9848,61.177" style="stroke:#000000;stroke-width:1.0;"/><text fill="#000000" font-family="sans-serif" font-size="13" lengthAdjust="spacing" textLength="54" x="131" y="66.0669">contains</text><text fill="#000000" font-family="sans-serif" font-size="13" lengthAdjust="spacing" textLength="8" x="94.9025" y="89.7697">1</text><text fill="#000000" font-family="sans-serif" font-size="13" lengthAdjust="spacing" textLength="7" x="359.8744" y="68.0525">*</text><!--MD5=[54781ac671cb1a8ee43ddd26f3addf70]
link Pharmacy to ParkingLot--><path codeLine="28" d="M345.102,140.4077 C387.054,140.5977 442.93,138.1705 491,127 C500.864,124.7078 511.024,121.3557 520.757,117.5915 " fill="none" id="Pharmacy-ParkingLot" style="stroke:#A80036;stroke-width:1.0;"/><polygon fill="#000000" points="408.4583,117.9224,399.1101,116.173,399.8672,122.0019,408.4583,117.9224" style="stroke:#000000;stroke-width:1.0;"/><text fill="#000000" font-family="sans-serif" font-size="13" lengthAdjust="spacing" textLength="54" x="412.5" y="123.0669">contains</text><text fill="#000000" font-family="sans-serif" font-size="13" lengthAdjust="spacing" textLength="8" x="353.0341" y="153.6039">1</text><text fill="#000000" font-family="sans-serif" font-size="13" lengthAdjust="spacing" textLength="23" x="490.1835" y="133.4918">1..*</text><!--MD5=[a40a3b03a7e8aefed17f2450d60a40a9]
link Administrator to ParkingLot--><path codeLine="30" d="M491.127,65.924 C500.819,68.626 510.883,71.431 520.569,74.131 " fill="none" id="Administrator-ParkingLot" style="stroke:#A80036;stroke-width:1.0;"/><polygon fill="#000000" points="444.6664,79.937,436.7426,74.6772,435.1643,80.3392,444.6664,79.937" style="stroke:#000000;stroke-width:1.0;"/><text fill="#000000" font-family="sans-serif" font-size="13" lengthAdjust="spacing" textLength="56" x="448.85" y="83.0949">registers</text><text fill="#000000" font-family="sans-serif" font-size="13" lengthAdjust="spacing" textLength="8" x="499.087" y="64.0522">1</text><text fill="#000000" font-family="sans-serif" font-size="13" lengthAdjust="spacing" textLength="8" x="505.0212" y="85.1727">1</text><!--MD5=[92705bb97a0e26c85696c82c14f76611]
@startuml
left to right direction

class Platform{
}

class Administrator{
  -String id
  -String name
  -String password
}

class Pharmacy {
  -String id
  -String designation
  -String email
}

class ParkingLot {
  -String id
  -int totalSpots
  -int chargeSpots
  -String type
}

Platform"1" - - "*"Pharmacy : contains >
Platform"1" - - "*"Administrator : contains >

Pharmacy"1" - - "1..*" ParkingLot : contains >

Administrator"1" - "1" ParkingLot : registers >
@enduml

PlantUML version 1.2021.01beta3(Unknown compile time)
(GPL source distribution)
Java Runtime: Java(TM) SE Runtime Environment
JVM: Java HotSpot(TM) 64-Bit Server VM
Default Encoding: UTF-8
Language: en
Country: US
--></g></svg>