<?xml version="1.0" encoding="UTF-8" standalone="no"?><svg xmlns="http://www.w3.org/2000/svg" xmlns:xlink="http://www.w3.org/1999/xlink" contentScriptType="application/ecmascript" contentStyleType="text/css" height="614px" preserveAspectRatio="none" style="width:1105px;height:614px;background:#FFFFFF;" version="1.1" viewBox="0 0 1105 614" width="1105px" zoomAndPan="magnify"><defs><filter height="300%" id="foa335ba94s71" width="300%" x="-1" y="-1"><feGaussianBlur result="blurOut" stdDeviation="2.0"/><feColorMatrix in="blurOut" result="blurOut2" type="matrix" values="0 0 0 0 0 0 0 0 0 0 0 0 0 0 0 0 0 0 .4 0"/><feOffset dx="4.0" dy="4.0" in="blurOut2" result="blurOut3"/><feBlend in="SourceGraphic" in2="blurOut3" mode="normal"/></filter></defs><g><rect fill="#FFFFFF" filter="url(#foa335ba94s71)" height="392.5938" style="stroke:#A80036;stroke-width:1.0;" width="10" x="384.5" y="119.4297"/><rect fill="#FFFFFF" filter="url(#foa335ba94s71)" height="29.1328" style="stroke:#A80036;stroke-width:1.0;" width="10" x="572.5" y="177.6953"/><rect fill="#FFFFFF" filter="url(#foa335ba94s71)" height="29.1328" style="stroke:#A80036;stroke-width:1.0;" width="10" x="738.5" y="206.8281"/><rect fill="#FFFFFF" filter="url(#foa335ba94s71)" height="88.2656" style="stroke:#A80036;stroke-width:1.0;" width="10" x="894" y="235.9609"/><rect fill="#FFFFFF" filter="url(#foa335ba94s71)" height="30" style="stroke:#A80036;stroke-width:1.0;" width="10" x="1036.5" y="265.0938"/><line style="stroke:#A80036;stroke-width:1.0;stroke-dasharray:5.0,5.0;" x1="23" x2="23" y1="88.2969" y2="530.0234"/><line style="stroke:#A80036;stroke-width:1.0;stroke-dasharray:5.0,5.0;" x1="214" x2="214" y1="88.2969" y2="530.0234"/><line style="stroke:#A80036;stroke-width:1.0;stroke-dasharray:5.0,5.0;" x1="389" x2="389" y1="88.2969" y2="530.0234"/><line style="stroke:#A80036;stroke-width:1.0;stroke-dasharray:5.0,5.0;" x1="577" x2="577" y1="88.2969" y2="530.0234"/><line style="stroke:#A80036;stroke-width:1.0;stroke-dasharray:5.0,5.0;" x1="743" x2="743" y1="88.2969" y2="530.0234"/><line style="stroke:#A80036;stroke-width:1.0;stroke-dasharray:5.0,5.0;" x1="899" x2="899" y1="88.2969" y2="530.0234"/><line style="stroke:#A80036;stroke-width:1.0;stroke-dasharray:5.0,5.0;" x1="1041" x2="1041" y1="88.2969" y2="530.0234"/><text fill="#000000" font-family="sans-serif" font-size="14" lengthAdjust="spacing" textLength="31" x="5" y="84.9951">User</text><ellipse cx="23.5" cy="15" fill="#FEFECE" filter="url(#foa335ba94s71)" rx="8" ry="8" style="stroke:#A80036;stroke-width:2.0;"/><path d="M23.5,23 L23.5,50 M10.5,31 L36.5,31 M23.5,50 L10.5,65 M23.5,50 L36.5,65 " fill="none" filter="url(#foa335ba94s71)" style="stroke:#A80036;stroke-width:2.0;"/><text fill="#000000" font-family="sans-serif" font-size="14" lengthAdjust="spacing" textLength="31" x="5" y="542.0186">User</text><ellipse cx="23.5" cy="555.3203" fill="#FEFECE" filter="url(#foa335ba94s71)" rx="8" ry="8" style="stroke:#A80036;stroke-width:2.0;"/><path d="M23.5,563.3203 L23.5,590.3203 M10.5,571.3203 L36.5,571.3203 M23.5,590.3203 L10.5,605.3203 M23.5,590.3203 L36.5,605.3203 " fill="none" filter="url(#foa335ba94s71)" style="stroke:#A80036;stroke-width:2.0;"/><rect fill="#FEFECE" filter="url(#foa335ba94s71)" height="46.5938" style="stroke:#A80036;stroke-width:1.5;" width="131" x="147" y="36.7031"/><text fill="#000000" font-family="sans-serif" font-size="14" font-style="italic" lengthAdjust="spacing" textLength="108" x="158.5" y="56.6982">«presentation»</text><text fill="#000000" font-family="sans-serif" font-size="14" lengthAdjust="spacing" textLength="117" x="154" y="72.9951">SearchCatalogUI</text><rect fill="#FEFECE" filter="url(#foa335ba94s71)" height="46.5938" style="stroke:#A80036;stroke-width:1.5;" width="131" x="147" y="529.0234"/><text fill="#000000" font-family="sans-serif" font-size="14" font-style="italic" lengthAdjust="spacing" textLength="108" x="158.5" y="549.0186">«presentation»</text><text fill="#000000" font-family="sans-serif" font-size="14" lengthAdjust="spacing" textLength="117" x="154" y="565.3154">SearchCatalogUI</text><rect fill="#FEFECE" filter="url(#foa335ba94s71)" height="46.5938" style="stroke:#A80036;stroke-width:1.5;" width="191" x="292" y="36.7031"/><text fill="#000000" font-family="sans-serif" font-size="14" font-style="italic" lengthAdjust="spacing" textLength="97" x="339" y="56.6982">«application»</text><text fill="#000000" font-family="sans-serif" font-size="14" lengthAdjust="spacing" textLength="177" x="299" y="72.9951">SearchCatalogController</text><rect fill="#FEFECE" filter="url(#foa335ba94s71)" height="46.5938" style="stroke:#A80036;stroke-width:1.5;" width="191" x="292" y="529.0234"/><text fill="#000000" font-family="sans-serif" font-size="14" font-style="italic" lengthAdjust="spacing" textLength="97" x="339" y="549.0186">«application»</text><text fill="#000000" font-family="sans-serif" font-size="14" lengthAdjust="spacing" textLength="177" x="299" y="565.3154">SearchCatalogController</text><rect fill="#FEFECE" filter="url(#foa335ba94s71)" height="46.5938" style="stroke:#A80036;stroke-width:1.5;" width="157" x="497" y="36.7031"/><text fill="#000000" font-family="sans-serif" font-size="14" font-style="italic" lengthAdjust="spacing" textLength="100" x="525.5" y="56.6982">«persistence»</text><text fill="#000000" font-family="sans-serif" font-size="14" lengthAdjust="spacing" textLength="143" x="504" y="72.9951">PersistenceContext</text><rect fill="#FEFECE" filter="url(#foa335ba94s71)" height="46.5938" style="stroke:#A80036;stroke-width:1.5;" width="157" x="497" y="529.0234"/><text fill="#000000" font-family="sans-serif" font-size="14" font-style="italic" lengthAdjust="spacing" textLength="100" x="525.5" y="549.0186">«persistence»</text><text fill="#000000" font-family="sans-serif" font-size="14" lengthAdjust="spacing" textLength="143" x="504" y="565.3154">PersistenceContext</text><rect fill="#FEFECE" filter="url(#foa335ba94s71)" height="46.5938" style="stroke:#A80036;stroke-width:1.5;" width="147" x="668" y="36.7031"/><text fill="#000000" font-family="sans-serif" font-size="14" font-style="italic" lengthAdjust="spacing" textLength="68" x="707.5" y="56.6982">«factory»</text><text fill="#000000" font-family="sans-serif" font-size="14" lengthAdjust="spacing" textLength="133" x="675" y="72.9951">RepositoryFactory</text><rect fill="#FEFECE" filter="url(#foa335ba94s71)" height="46.5938" style="stroke:#A80036;stroke-width:1.5;" width="147" x="668" y="529.0234"/><text fill="#000000" font-family="sans-serif" font-size="14" font-style="italic" lengthAdjust="spacing" textLength="68" x="707.5" y="549.0186">«factory»</text><text fill="#000000" font-family="sans-serif" font-size="14" lengthAdjust="spacing" textLength="133" x="675" y="565.3154">RepositoryFactory</text><text fill="#000000" font-family="sans-serif" font-size="14" font-style="italic" lengthAdjust="spacing" textLength="90" x="851" y="68.6982">«repository»</text><text fill="#000000" font-family="sans-serif" font-size="14" lengthAdjust="spacing" textLength="134" x="829" y="84.9951">CatalogRepository</text><path d="M881,19.7031 C881,9.7031 899,9.7031 899,9.7031 C899,9.7031 917,9.7031 917,19.7031 L917,45.7031 C917,55.7031 899,55.7031 899,55.7031 C899,55.7031 881,55.7031 881,45.7031 L881,19.7031 " fill="#FEFECE" filter="url(#foa335ba94s71)" style="stroke:#000000;stroke-width:1.5;"/><path d="M881,19.7031 C881,29.7031 899,29.7031 899,29.7031 C899,29.7031 917,29.7031 917,19.7031 " fill="none" style="stroke:#000000;stroke-width:1.5;"/><text fill="#000000" font-family="sans-serif" font-size="14" font-style="italic" lengthAdjust="spacing" textLength="90" x="851" y="542.0186">«repository»</text><text fill="#000000" font-family="sans-serif" font-size="14" lengthAdjust="spacing" textLength="134" x="829" y="558.3154">CatalogRepository</text><path d="M881,571.6172 C881,561.6172 899,561.6172 899,561.6172 C899,561.6172 917,561.6172 917,571.6172 L917,597.6172 C917,607.6172 899,607.6172 899,607.6172 C899,607.6172 881,607.6172 881,597.6172 L881,571.6172 " fill="#FEFECE" filter="url(#foa335ba94s71)" style="stroke:#000000;stroke-width:1.5;"/><path d="M881,571.6172 C881,581.6172 899,581.6172 899,581.6172 C899,581.6172 917,581.6172 917,571.6172 " fill="none" style="stroke:#000000;stroke-width:1.5;"/><text fill="#000000" font-family="sans-serif" font-size="14" font-style="italic" lengthAdjust="spacing" textLength="94" x="991.5" y="68.6982">«Repository»</text><text fill="#000000" font-family="sans-serif" font-size="14" lengthAdjust="spacing" textLength="119" x="979" y="84.9951">TeamRepository</text><path d="M1023.5,19.7031 C1023.5,9.7031 1041.5,9.7031 1041.5,9.7031 C1041.5,9.7031 1059.5,9.7031 1059.5,19.7031 L1059.5,45.7031 C1059.5,55.7031 1041.5,55.7031 1041.5,55.7031 C1041.5,55.7031 1023.5,55.7031 1023.5,45.7031 L1023.5,19.7031 " fill="#FEFECE" filter="url(#foa335ba94s71)" style="stroke:#000000;stroke-width:1.5;"/><path d="M1023.5,19.7031 C1023.5,29.7031 1041.5,29.7031 1041.5,29.7031 C1041.5,29.7031 1059.5,29.7031 1059.5,19.7031 " fill="none" style="stroke:#000000;stroke-width:1.5;"/><text fill="#000000" font-family="sans-serif" font-size="14" font-style="italic" lengthAdjust="spacing" textLength="94" x="991.5" y="542.0186">«Repository»</text><text fill="#000000" font-family="sans-serif" font-size="14" lengthAdjust="spacing" textLength="119" x="979" y="558.3154">TeamRepository</text><path d="M1023.5,571.6172 C1023.5,561.6172 1041.5,561.6172 1041.5,561.6172 C1041.5,561.6172 1059.5,561.6172 1059.5,571.6172 L1059.5,597.6172 C1059.5,607.6172 1041.5,607.6172 1041.5,607.6172 C1041.5,607.6172 1023.5,607.6172 1023.5,597.6172 L1023.5,571.6172 " fill="#FEFECE" filter="url(#foa335ba94s71)" style="stroke:#000000;stroke-width:1.5;"/><path d="M1023.5,571.6172 C1023.5,581.6172 1041.5,581.6172 1041.5,581.6172 C1041.5,581.6172 1059.5,581.6172 1059.5,571.6172 " fill="none" style="stroke:#000000;stroke-width:1.5;"/><rect fill="#FFFFFF" filter="url(#foa335ba94s71)" height="392.5938" style="stroke:#A80036;stroke-width:1.0;" width="10" x="384.5" y="119.4297"/><rect fill="#FFFFFF" filter="url(#foa335ba94s71)" height="29.1328" style="stroke:#A80036;stroke-width:1.0;" width="10" x="572.5" y="177.6953"/><rect fill="#FFFFFF" filter="url(#foa335ba94s71)" height="29.1328" style="stroke:#A80036;stroke-width:1.0;" width="10" x="738.5" y="206.8281"/><rect fill="#FFFFFF" filter="url(#foa335ba94s71)" height="88.2656" style="stroke:#A80036;stroke-width:1.0;" width="10" x="894" y="235.9609"/><rect fill="#FFFFFF" filter="url(#foa335ba94s71)" height="30" style="stroke:#A80036;stroke-width:1.0;" width="10" x="1036.5" y="265.0938"/><polygon fill="#A80036" points="372.5,115.4297,382.5,119.4297,372.5,123.4297,376.5,119.4297" style="stroke:#A80036;stroke-width:1.0;"/><line style="stroke:#A80036;stroke-width:1.0;" x1="214.5" x2="378.5" y1="119.4297" y2="119.4297"/><text fill="#000000" font-family="sans-serif" font-size="13" lengthAdjust="spacing" textLength="41" x="221.5" y="114.3638">create</text><polygon fill="#A80036" points="372.5,144.5625,382.5,148.5625,372.5,152.5625,376.5,148.5625" style="stroke:#A80036;stroke-width:1.0;"/><line style="stroke:#A80036;stroke-width:1.0;" x1="214.5" x2="378.5" y1="148.5625" y2="148.5625"/><text fill="#000000" font-family="sans-serif" font-size="13" lengthAdjust="spacing" textLength="77" x="221.5" y="143.4966">getCatalogs</text><polygon fill="#A80036" points="560.5,173.6953,570.5,177.6953,560.5,181.6953,564.5,177.6953" style="stroke:#A80036;stroke-width:1.0;"/><line style="stroke:#A80036;stroke-width:1.0;" x1="394.5" x2="566.5" y1="177.6953" y2="177.6953"/><text fill="#000000" font-family="sans-serif" font-size="13" lengthAdjust="spacing" textLength="85" x="401.5" y="172.6294">repositories()</text><polygon fill="#A80036" points="726.5,202.8281,736.5,206.8281,726.5,210.8281,730.5,206.8281" style="stroke:#A80036;stroke-width:1.0;"/><line style="stroke:#A80036;stroke-width:1.0;" x1="577.5" x2="732.5" y1="206.8281" y2="206.8281"/><text fill="#000000" font-family="sans-serif" font-size="13" lengthAdjust="spacing" textLength="41" x="584.5" y="201.7622">create</text><polygon fill="#A80036" points="882,231.9609,892,235.9609,882,239.9609,886,235.9609" style="stroke:#A80036;stroke-width:1.0;"/><line style="stroke:#A80036;stroke-width:1.0;" x1="743.5" x2="888" y1="235.9609" y2="235.9609"/><text fill="#000000" font-family="sans-serif" font-size="13" lengthAdjust="spacing" textLength="41" x="750.5" y="230.895">create</text><polygon fill="#A80036" points="1024.5,261.0938,1034.5,265.0938,1024.5,269.0938,1028.5,265.0938" style="stroke:#A80036;stroke-width:1.0;"/><line style="stroke:#A80036;stroke-width:1.0;" x1="394.5" x2="1030.5" y1="265.0938" y2="265.0938"/><text fill="#000000" font-family="sans-serif" font-size="13" lengthAdjust="spacing" textLength="127" x="401.5" y="260.0278">teams(collaborator)</text><polygon fill="#A80036" points="887,320.2266,897,324.2266,887,328.2266,891,324.2266" style="stroke:#A80036;stroke-width:1.0;"/><line style="stroke:#A80036;stroke-width:1.0;" x1="394.5" x2="893" y1="324.2266" y2="324.2266"/><text fill="#000000" font-family="sans-serif" font-size="13" lengthAdjust="spacing" textLength="105" x="401.5" y="319.1606">catalogs(teams)</text><polygon fill="#A80036" points="225.5,349.3594,215.5,353.3594,225.5,357.3594,221.5,353.3594" style="stroke:#A80036;stroke-width:1.0;"/><line style="stroke:#A80036;stroke-width:1.0;" x1="219.5" x2="383.5" y1="353.3594" y2="353.3594"/><text fill="#000000" font-family="sans-serif" font-size="13" lengthAdjust="spacing" textLength="56" x="231.5" y="348.2935">Catalogs</text><line style="stroke:#A80036;stroke-width:1.0;" x1="214.5" x2="256.5" y1="382.4922" y2="382.4922"/><line style="stroke:#A80036;stroke-width:1.0;" x1="256.5" x2="256.5" y1="382.4922" y2="395.4922"/><line style="stroke:#A80036;stroke-width:1.0;" x1="215.5" x2="256.5" y1="395.4922" y2="395.4922"/><polygon fill="#A80036" points="225.5,391.4922,215.5,395.4922,225.5,399.4922,221.5,395.4922" style="stroke:#A80036;stroke-width:1.0;"/><text fill="#000000" font-family="sans-serif" font-size="13" lengthAdjust="spacing" textLength="61" x="221.5" y="377.4263">doShow()</text><polygon fill="#A80036" points="202.5,420.625,212.5,424.625,202.5,428.625,206.5,424.625" style="stroke:#A80036;stroke-width:1.0;"/><line style="stroke:#A80036;stroke-width:1.0;stroke-dasharray:2.0,2.0;" x1="23.5" x2="208.5" y1="424.625" y2="424.625"/><text fill="#000000" font-family="sans-serif" font-size="13" lengthAdjust="spacing" textLength="152" x="30.5" y="419.5591">Select a search method</text><polygon fill="#A80036" points="34.5,449.7578,24.5,453.7578,34.5,457.7578,30.5,453.7578" style="stroke:#A80036;stroke-width:1.0;"/><line style="stroke:#A80036;stroke-width:1.0;stroke-dasharray:2.0,2.0;" x1="28.5" x2="213.5" y1="453.7578" y2="453.7578"/><text fill="#000000" font-family="sans-serif" font-size="13" lengthAdjust="spacing" textLength="167" x="40.5" y="448.6919">Ask to insert keyword/title</text><polygon fill="#A80036" points="372.5,478.8906,382.5,482.8906,372.5,486.8906,376.5,482.8906" style="stroke:#A80036;stroke-width:1.0;"/><line style="stroke:#A80036;stroke-width:1.0;" x1="214.5" x2="378.5" y1="482.8906" y2="482.8906"/><text fill="#000000" font-family="sans-serif" font-size="13" lengthAdjust="spacing" textLength="53" x="221.5" y="477.8247">search()</text><polygon fill="#A80036" points="225.5,508.0234,215.5,512.0234,225.5,516.0234,221.5,512.0234" style="stroke:#A80036;stroke-width:1.0;"/><line style="stroke:#A80036;stroke-width:1.0;" x1="219.5" x2="388.5" y1="512.0234" y2="512.0234"/><text fill="#000000" font-family="sans-serif" font-size="13" lengthAdjust="spacing" textLength="54" x="231.5" y="506.9575">catalogs</text><!--MD5=[8731511ee8787579823bec3f5d7929ca]
@startuml
actor User as Actor
participant SearchCatalogUI as UI <<presentation>>
participant SearchCatalogController as Controller <<application>>
participant PersistenceContext as PersistenceContext <<persistence>>
participant RepositoryFactory as RepositoryFactory <<factory>>
database CatalogRepository as CatalogRepository <<repository>>
database TeamRepository as TeamRepository <<Repository>>

UI -> Controller : create
activate Controller


UI -> Controller : getCatalogs


Controller -> PersistenceContext : repositories()
activate PersistenceContext
PersistenceContext -> RepositoryFactory : create
deactivate PersistenceContext
activate RepositoryFactory
RepositoryFactory -> CatalogRepository : create
deactivate RepositoryFactory

activate CatalogRepository

Controller -> TeamRepository : teams(collaborator)
activate TeamRepository
deactivate TeamRepository

Controller -> CatalogRepository : catalogs(teams)
deactivate CatalogRepository
Controller -> UI: Catalogs


UI -> UI : doShow()

Actor - -> UI: Select a search method
UI - -> Actor: Ask to insert keyword/title

UI -> Controller : search()

Controller -> UI : catalogs

deactivate Controller
@enduml

PlantUML version 1.2021.6beta6(Unknown compile time)
(GPL source distribution)
Java Runtime: Java(TM) SE Runtime Environment
JVM: Java HotSpot(TM) 64-Bit Server VM
Default Encoding: UTF-8
Language: en
Country: US
--></g></svg>