<?xml version="1.0" encoding="UTF-8" standalone="no"?><svg xmlns="http://www.w3.org/2000/svg" xmlns:xlink="http://www.w3.org/1999/xlink" contentScriptType="application/ecmascript" contentStyleType="text/css" height="725px" preserveAspectRatio="none" style="width:1182px;height:725px;background:#FFFFFF;" version="1.1" viewBox="0 0 1182 725" width="1182px" zoomAndPan="magnify"><defs><filter height="300%" id="fu4z9bl27c1qd" width="300%" x="-1" y="-1"><feGaussianBlur result="blurOut" stdDeviation="2.0"/><feColorMatrix in="blurOut" result="blurOut2" type="matrix" values="0 0 0 0 0 0 0 0 0 0 0 0 0 0 0 0 0 0 .4 0"/><feOffset dx="4.0" dy="4.0" in="blurOut2" result="blurOut3"/><feBlend in="SourceGraphic" in2="blurOut3" mode="normal"/></filter></defs><g><rect fill="#FFFFFF" filter="url(#fu4z9bl27c1qd)" height="524.125" style="stroke:#A80036;stroke-width:1.0;" width="10" x="264" y="98.2969"/><rect fill="#FFFFFF" filter="url(#fu4z9bl27c1qd)" height="59.1328" style="stroke:#A80036;stroke-width:1.0;" width="10" x="614" y="222.9609"/><rect fill="#FFFFFF" filter="url(#fu4z9bl27c1qd)" height="147.3984" style="stroke:#A80036;stroke-width:1.0;" width="10" x="614" y="445.8906"/><rect fill="#FFFFFF" filter="url(#fu4z9bl27c1qd)" height="30" style="stroke:#A80036;stroke-width:1.0;" width="10" x="806.5" y="475.0234"/><rect fill="#FFFFFF" filter="url(#fu4z9bl27c1qd)" height="30" style="stroke:#A80036;stroke-width:1.0;" width="10" x="1114" y="252.0938"/><rect fill="#FFFFFF" filter="url(#fu4z9bl27c1qd)" height="30" style="stroke:#A80036;stroke-width:1.0;" width="10" x="1114" y="534.1563"/><rect fill="#FFFFFF" filter="url(#fu4z9bl27c1qd)" height="75.3984" style="stroke:#000000;stroke-width:2.0;" width="363.5" x="10" y="342.3594"/><line style="stroke:#A80036;stroke-width:1.0;stroke-dasharray:5.0,5.0;" x1="38" x2="38" y1="88.2969" y2="640.4219"/><line style="stroke:#A80036;stroke-width:1.0;stroke-dasharray:5.0,5.0;" x1="268.5" x2="268.5" y1="88.2969" y2="640.4219"/><line style="stroke:#A80036;stroke-width:1.0;stroke-dasharray:5.0,5.0;" x1="618.5" x2="618.5" y1="88.2969" y2="640.4219"/><line style="stroke:#A80036;stroke-width:1.0;stroke-dasharray:5.0,5.0;" x1="811.5" x2="811.5" y1="88.2969" y2="640.4219"/><line style="stroke:#A80036;stroke-width:1.0;stroke-dasharray:5.0,5.0;" x1="965.5" x2="965.5" y1="88.2969" y2="640.4219"/><line style="stroke:#A80036;stroke-width:1.0;stroke-dasharray:5.0,5.0;" x1="1118.5" x2="1118.5" y1="88.2969" y2="640.4219"/><text fill="#000000" font-family="sans-serif" font-size="14" lengthAdjust="spacing" textLength="30" x="20" y="84.9951">RRH</text><ellipse cx="38" cy="15" fill="#FEFECE" filter="url(#fu4z9bl27c1qd)" rx="8" ry="8" style="stroke:#A80036;stroke-width:2.0;"/><path d="M38,23 L38,50 M25,31 L51,31 M38,50 L25,65 M38,50 L51,65 " fill="none" filter="url(#fu4z9bl27c1qd)" style="stroke:#A80036;stroke-width:2.0;"/><text fill="#000000" font-family="sans-serif" font-size="14" lengthAdjust="spacing" textLength="30" x="20" y="652.417">RRH</text><ellipse cx="38" cy="665.7188" fill="#FEFECE" filter="url(#fu4z9bl27c1qd)" rx="8" ry="8" style="stroke:#A80036;stroke-width:2.0;"/><path d="M38,673.7188 L38,700.7188 M25,681.7188 L51,681.7188 M38,700.7188 L25,715.7188 M38,700.7188 L51,715.7188 " fill="none" filter="url(#fu4z9bl27c1qd)" style="stroke:#A80036;stroke-width:2.0;"/><rect fill="#FEFECE" filter="url(#fu4z9bl27c1qd)" height="46.5938" style="stroke:#A80036;stroke-width:1.5;" width="185" x="174.5" y="36.7031"/><text fill="#000000" font-family="sans-serif" font-size="14" font-style="italic" lengthAdjust="spacing" textLength="108" x="213" y="56.6982">«presentation»</text><text fill="#000000" font-family="sans-serif" font-size="14" lengthAdjust="spacing" textLength="171" x="181.5" y="72.9951">AddTeamCollaboratorUI</text><rect fill="#FEFECE" filter="url(#fu4z9bl27c1qd)" height="46.5938" style="stroke:#A80036;stroke-width:1.5;" width="185" x="174.5" y="639.4219"/><text fill="#000000" font-family="sans-serif" font-size="14" font-style="italic" lengthAdjust="spacing" textLength="108" x="213" y="659.417">«presentation»</text><text fill="#000000" font-family="sans-serif" font-size="14" lengthAdjust="spacing" textLength="171" x="181.5" y="675.7139">AddTeamCollaboratorUI</text><text fill="#000000" font-family="sans-serif" font-size="14" font-style="italic" lengthAdjust="spacing" textLength="97" x="567.5" y="68.6982">«application»</text><text fill="#000000" font-family="sans-serif" font-size="14" lengthAdjust="spacing" textLength="231" x="500.5" y="84.9951">AddTeamCollaboratorController</text><ellipse cx="619" cy="39.7031" fill="#FEFECE" filter="url(#fu4z9bl27c1qd)" rx="12" ry="12" style="stroke:#A80036;stroke-width:2.0;"/><polygon fill="#A80036" points="615,27.7031,621,22.7031,619,27.7031,621,32.7031,615,27.7031" style="stroke:#A80036;stroke-width:1.0;"/><text fill="#000000" font-family="sans-serif" font-size="14" font-style="italic" lengthAdjust="spacing" textLength="97" x="567.5" y="652.417">«application»</text><text fill="#000000" font-family="sans-serif" font-size="14" lengthAdjust="spacing" textLength="231" x="500.5" y="668.7139">AddTeamCollaboratorController</text><ellipse cx="619" cy="688.0156" fill="#FEFECE" filter="url(#fu4z9bl27c1qd)" rx="12" ry="12" style="stroke:#A80036;stroke-width:2.0;"/><polygon fill="#A80036" points="615,676.0156,621,671.0156,619,676.0156,621,681.0156,615,676.0156" style="stroke:#A80036;stroke-width:1.0;"/><rect fill="#FEFECE" filter="url(#fu4z9bl27c1qd)" height="46.5938" style="stroke:#A80036;stroke-width:1.5;" width="124" x="747.5" y="36.7031"/><text fill="#000000" font-family="sans-serif" font-size="14" font-style="italic" lengthAdjust="spacing" textLength="72" x="773.5" y="56.6982">«domain»</text><text fill="#000000" font-family="sans-serif" font-size="14" lengthAdjust="spacing" textLength="110" x="754.5" y="72.9951">theTeam:Team</text><rect fill="#FEFECE" filter="url(#fu4z9bl27c1qd)" height="46.5938" style="stroke:#A80036;stroke-width:1.5;" width="124" x="747.5" y="639.4219"/><text fill="#000000" font-family="sans-serif" font-size="14" font-style="italic" lengthAdjust="spacing" textLength="72" x="773.5" y="659.417">«domain»</text><text fill="#000000" font-family="sans-serif" font-size="14" lengthAdjust="spacing" textLength="110" x="754.5" y="675.7139">theTeam:Team</text><rect fill="#FEFECE" filter="url(#fu4z9bl27c1qd)" height="46.5938" style="stroke:#A80036;stroke-width:1.5;" width="157" x="885.5" y="36.7031"/><text fill="#000000" font-family="sans-serif" font-size="14" font-style="italic" lengthAdjust="spacing" textLength="99" x="914.5" y="56.6982">«Persistence»</text><text fill="#000000" font-family="sans-serif" font-size="14" lengthAdjust="spacing" textLength="143" x="892.5" y="72.9951">PersistenceContext</text><rect fill="#FEFECE" filter="url(#fu4z9bl27c1qd)" height="46.5938" style="stroke:#A80036;stroke-width:1.5;" width="157" x="885.5" y="639.4219"/><text fill="#000000" font-family="sans-serif" font-size="14" font-style="italic" lengthAdjust="spacing" textLength="99" x="914.5" y="659.417">«Persistence»</text><text fill="#000000" font-family="sans-serif" font-size="14" lengthAdjust="spacing" textLength="143" x="892.5" y="675.7139">PersistenceContext</text><text fill="#000000" font-family="sans-serif" font-size="14" font-style="italic" lengthAdjust="spacing" textLength="90" x="1071" y="68.6982">«repository»</text><text fill="#000000" font-family="sans-serif" font-size="14" lengthAdjust="spacing" textLength="119" x="1056.5" y="84.9951">TeamRepository</text><path d="M1101,19.7031 C1101,9.7031 1119,9.7031 1119,9.7031 C1119,9.7031 1137,9.7031 1137,19.7031 L1137,45.7031 C1137,55.7031 1119,55.7031 1119,55.7031 C1119,55.7031 1101,55.7031 1101,45.7031 L1101,19.7031 " fill="#FEFECE" filter="url(#fu4z9bl27c1qd)" style="stroke:#000000;stroke-width:1.5;"/><path d="M1101,19.7031 C1101,29.7031 1119,29.7031 1119,29.7031 C1119,29.7031 1137,29.7031 1137,19.7031 " fill="none" style="stroke:#000000;stroke-width:1.5;"/><text fill="#000000" font-family="sans-serif" font-size="14" font-style="italic" lengthAdjust="spacing" textLength="90" x="1071" y="652.417">«repository»</text><text fill="#000000" font-family="sans-serif" font-size="14" lengthAdjust="spacing" textLength="119" x="1056.5" y="668.7139">TeamRepository</text><path d="M1101,682.0156 C1101,672.0156 1119,672.0156 1119,672.0156 C1119,672.0156 1137,672.0156 1137,682.0156 L1137,708.0156 C1137,718.0156 1119,718.0156 1119,718.0156 C1119,718.0156 1101,718.0156 1101,708.0156 L1101,682.0156 " fill="#FEFECE" filter="url(#fu4z9bl27c1qd)" style="stroke:#000000;stroke-width:1.5;"/><path d="M1101,682.0156 C1101,692.0156 1119,692.0156 1119,692.0156 C1119,692.0156 1137,692.0156 1137,682.0156 " fill="none" style="stroke:#000000;stroke-width:1.5;"/><rect fill="#FFFFFF" filter="url(#fu4z9bl27c1qd)" height="524.125" style="stroke:#A80036;stroke-width:1.0;" width="10" x="264" y="98.2969"/><rect fill="#FFFFFF" filter="url(#fu4z9bl27c1qd)" height="59.1328" style="stroke:#A80036;stroke-width:1.0;" width="10" x="614" y="222.9609"/><rect fill="#FFFFFF" filter="url(#fu4z9bl27c1qd)" height="147.3984" style="stroke:#A80036;stroke-width:1.0;" width="10" x="614" y="445.8906"/><rect fill="#FFFFFF" filter="url(#fu4z9bl27c1qd)" height="30" style="stroke:#A80036;stroke-width:1.0;" width="10" x="806.5" y="475.0234"/><rect fill="#FFFFFF" filter="url(#fu4z9bl27c1qd)" height="30" style="stroke:#A80036;stroke-width:1.0;" width="10" x="1114" y="252.0938"/><rect fill="#FFFFFF" filter="url(#fu4z9bl27c1qd)" height="30" style="stroke:#A80036;stroke-width:1.0;" width="10" x="1114" y="534.1563"/><rect fill="#FFFFFF" filter="url(#fu4z9bl27c1qd)" height="40.2656" style="stroke:#000000;stroke-width:2.0;" width="565" x="171.5" y="98.2969"/><polygon fill="#EEEEEE" points="171.5,98.2969,239.5,98.2969,239.5,105.2969,229.5,115.2969,171.5,115.2969,171.5,98.2969" style="stroke:#000000;stroke-width:2.0;"/><text fill="#000000" font-family="sans-serif" font-size="13" font-weight="bold" lengthAdjust="spacing" textLength="23" x="184.5" y="112.3638">ref</text><text fill="#000000" font-family="sans-serif" font-size="13" lengthAdjust="spacing" textLength="119" x="396.5" y="131.3638">ShowAllTeams_SD</text><polygon fill="#A80036" points="49,160.6953,39,164.6953,49,168.6953,45,164.6953" style="stroke:#A80036;stroke-width:1.0;"/><line style="stroke:#A80036;stroke-width:1.0;stroke-dasharray:2.0,2.0;" x1="43" x2="263" y1="164.6953" y2="164.6953"/><text fill="#000000" font-family="sans-serif" font-size="13" lengthAdjust="spacing" textLength="140" x="55" y="159.6294">Ask to choose a team</text><polygon fill="#A80036" points="252,189.8281,262,193.8281,252,197.8281,256,193.8281" style="stroke:#A80036;stroke-width:1.0;"/><line style="stroke:#A80036;stroke-width:1.0;stroke-dasharray:2.0,2.0;" x1="38" x2="258" y1="193.8281" y2="193.8281"/><text fill="#000000" font-family="sans-serif" font-size="13" lengthAdjust="spacing" textLength="102" x="45" y="188.7622">Select the team</text><polygon fill="#A80036" points="602,218.9609,612,222.9609,602,226.9609,606,222.9609" style="stroke:#A80036;stroke-width:1.0;"/><line style="stroke:#A80036;stroke-width:1.0;stroke-dasharray:2.0,2.0;" x1="274" x2="608" y1="222.9609" y2="222.9609"/><text fill="#000000" font-family="sans-serif" font-size="13" lengthAdjust="spacing" textLength="85" x="281" y="217.895">selectTeam()</text><polygon fill="#A80036" points="1102,248.0938,1112,252.0938,1102,256.0938,1106,252.0938" style="stroke:#A80036;stroke-width:1.0;"/><line style="stroke:#A80036;stroke-width:1.0;stroke-dasharray:2.0,2.0;" x1="624" x2="1108" y1="252.0938" y2="252.0938"/><text fill="#000000" font-family="sans-serif" font-size="13" lengthAdjust="spacing" textLength="147" x="631" y="247.0278">theTeam = findTeam()</text><rect fill="#FFFFFF" filter="url(#fu4z9bl27c1qd)" height="40.2656" style="stroke:#000000;stroke-width:2.0;" width="565" x="171.5" y="290.0938"/><polygon fill="#EEEEEE" points="171.5,290.0938,239.5,290.0938,239.5,297.0938,229.5,307.0938,171.5,307.0938,171.5,290.0938" style="stroke:#000000;stroke-width:2.0;"/><text fill="#000000" font-family="sans-serif" font-size="13" font-weight="bold" lengthAdjust="spacing" textLength="23" x="184.5" y="304.1606">ref</text><text fill="#000000" font-family="sans-serif" font-size="13" lengthAdjust="spacing" textLength="160" x="376" y="323.1606">ShowAllCollaborators_SD</text><path d="M10,342.3594 L88,342.3594 L88,349.3594 L78,359.3594 L10,359.3594 L10,342.3594 " fill="#EEEEEE" style="stroke:#000000;stroke-width:1.0;"/><rect fill="none" height="75.3984" style="stroke:#000000;stroke-width:2.0;" width="363.5" x="10" y="342.3594"/><text fill="#000000" font-family="sans-serif" font-size="13" font-weight="bold" lengthAdjust="spacing" textLength="33" x="25" y="355.4263">loop</text><polygon fill="#A80036" points="49,376.625,39,380.625,49,384.625,45,380.625" style="stroke:#A80036;stroke-width:1.0;"/><line style="stroke:#A80036;stroke-width:1.0;stroke-dasharray:2.0,2.0;" x1="43" x2="263" y1="380.625" y2="380.625"/><text fill="#000000" font-family="sans-serif" font-size="13" lengthAdjust="spacing" textLength="202" x="55" y="375.5591">Ask to choose the collaborators</text><polygon fill="#A80036" points="252,405.7578,262,409.7578,252,413.7578,256,409.7578" style="stroke:#A80036;stroke-width:1.0;"/><line style="stroke:#A80036;stroke-width:1.0;stroke-dasharray:2.0,2.0;" x1="38" x2="258" y1="409.7578" y2="409.7578"/><text fill="#000000" font-family="sans-serif" font-size="13" lengthAdjust="spacing" textLength="131" x="45" y="404.6919">Select a collaborator</text><polygon fill="#A80036" points="602,441.8906,612,445.8906,602,449.8906,606,445.8906" style="stroke:#A80036;stroke-width:1.0;"/><line style="stroke:#A80036;stroke-width:1.0;stroke-dasharray:2.0,2.0;" x1="274" x2="608" y1="445.8906" y2="445.8906"/><text fill="#000000" font-family="sans-serif" font-size="13" lengthAdjust="spacing" textLength="321" x="281" y="440.8247">addTeamCollaborator(theTeam, theCollaborators)</text><polygon fill="#A80036" points="794.5,471.0234,804.5,475.0234,794.5,479.0234,798.5,475.0234" style="stroke:#A80036;stroke-width:1.0;"/><line style="stroke:#A80036;stroke-width:1.0;stroke-dasharray:2.0,2.0;" x1="624" x2="800.5" y1="475.0234" y2="475.0234"/><text fill="#000000" font-family="sans-serif" font-size="13" lengthAdjust="spacing" textLength="110" x="631" y="469.9575">add(collaborator)</text><polygon fill="#A80036" points="1102,530.1563,1112,534.1563,1102,538.1563,1106,534.1563" style="stroke:#A80036;stroke-width:1.0;"/><line style="stroke:#A80036;stroke-width:1.0;" x1="624" x2="1108" y1="534.1563" y2="534.1563"/><text fill="#000000" font-family="sans-serif" font-size="13" lengthAdjust="spacing" textLength="99" x="631" y="529.0903">save(theTeam)</text><polygon fill="#A80036" points="285,589.2891,275,593.2891,285,597.2891,281,593.2891" style="stroke:#A80036;stroke-width:1.0;"/><line style="stroke:#A80036;stroke-width:1.0;" x1="279" x2="618" y1="593.2891" y2="593.2891"/><text fill="#000000" font-family="sans-serif" font-size="13" lengthAdjust="spacing" textLength="58" x="291" y="588.2231">theTeam</text><polygon fill="#A80036" points="49,618.4219,39,622.4219,49,626.4219,45,622.4219" style="stroke:#A80036;stroke-width:1.0;"/><line style="stroke:#A80036;stroke-width:1.0;stroke-dasharray:2.0,2.0;" x1="43" x2="268" y1="622.4219" y2="622.4219"/><text fill="#000000" font-family="sans-serif" font-size="13" lengthAdjust="spacing" textLength="88" x="55" y="617.356">back to menu</text><!--MD5=[e02bcafb5c3f6e0b06d995a8741d8778]
@startuml
actor RRH as Actor
participant AddTeamCollaboratorUI as UI <<presentation>>
control AddTeamCollaboratorController as Controller <<application>>
participant "theTeam:Team" as Domain <<domain>>
participant "PersistenceContext" as PersistenceContext <<Persistence>>
database TeamRepository as RepositoryTeams <<repository>>


activate UI
ref over UI, Controller : ShowAllTeams_SD

UI - -> Actor: Ask to choose a team
Actor - -> UI: Select the team

UI - -> Controller: selectTeam()
activate Controller

Controller - -> RepositoryTeams : theTeam = findTeam()
activate RepositoryTeams
deactivate Controller
deactivate RepositoryTeams

ref over UI, Controller : ShowAllCollaborators_SD

loop

UI- ->Actor: Ask to choose the collaborators
Actor- ->UI: Select a collaborator

end loop

UI - -> Controller : addTeamCollaborator(theTeam, theCollaborators)
activate Controller

Controller - -> Domain : add(collaborator)
activate Domain
deactivate Domain

Controller->RepositoryTeams:save(theTeam)
activate RepositoryTeams
deactivate RepositoryTeams

Controller->UI: theTeam
deactivate Controller

UI- ->Actor: back to menu
deactivate UI
@enduml

PlantUML version 1.2021.6beta6(Unknown compile time)
(GPL source distribution)
Java Runtime: Java(TM) SE Runtime Environment
JVM: Java HotSpot(TM) 64-Bit Server VM
Default Encoding: UTF-8
Language: en
Country: US
--></g></svg>