<?xml version="1.0" encoding="UTF-8" standalone="no"?><svg xmlns="http://www.w3.org/2000/svg" xmlns:xlink="http://www.w3.org/1999/xlink" contentScriptType="application/ecmascript" contentStyleType="text/css" height="416px" preserveAspectRatio="none" style="width:486px;height:416px;background:#FFFFFF;" version="1.1" viewBox="0 0 486 416" width="486px" zoomAndPan="magnify"><defs><filter height="300%" id="f9fl4ow72eila" width="300%" x="-1" y="-1"><feGaussianBlur result="blurOut" stdDeviation="2.0"/><feColorMatrix in="blurOut" result="blurOut2" type="matrix" values="0 0 0 0 0 0 0 0 0 0 0 0 0 0 0 0 0 0 .4 0"/><feOffset dx="4.0" dy="4.0" in="blurOut2" result="blurOut3"/><feBlend in="SourceGraphic" in2="blurOut3" mode="normal"/></filter></defs><g><rect fill="#FFFFFF" filter="url(#f9fl4ow72eila)" height="215.8672" style="stroke:#A80036;stroke-width:1.0;" width="10" x="328" y="98.2969"/><rect fill="#FFFFFF" filter="url(#f9fl4ow72eila)" height="122.4688" style="stroke:#000000;stroke-width:2.0;" width="212" x="260" y="163.5625"/><rect fill="#FFFFFF" height="60.0703" style="stroke:none;stroke-width:1.0;" width="212" x="260" y="225.9609"/><line style="stroke:#A80036;stroke-width:1.0;stroke-dasharray:5.0,5.0;" x1="23" x2="23" y1="88.2969" y2="332.1641"/><line style="stroke:#A80036;stroke-width:1.0;stroke-dasharray:5.0,5.0;" x1="333" x2="333" y1="88.2969" y2="332.1641"/><text fill="#000000" font-family="sans-serif" font-size="14" lengthAdjust="spacing" textLength="30" x="5" y="84.9951">RRH</text><ellipse cx="23" cy="15" fill="#FEFECE" filter="url(#f9fl4ow72eila)" rx="8" ry="8" style="stroke:#A80036;stroke-width:2.0;"/><path d="M23,23 L23,50 M10,31 L36,31 M23,50 L10,65 M23,50 L36,65 " fill="none" filter="url(#f9fl4ow72eila)" style="stroke:#A80036;stroke-width:2.0;"/><text fill="#000000" font-family="sans-serif" font-size="14" lengthAdjust="spacing" textLength="30" x="5" y="344.1592">RRH</text><ellipse cx="23" cy="357.4609" fill="#FEFECE" filter="url(#f9fl4ow72eila)" rx="8" ry="8" style="stroke:#A80036;stroke-width:2.0;"/><path d="M23,365.4609 L23,392.4609 M10,373.4609 L36,373.4609 M23,392.4609 L10,407.4609 M23,392.4609 L36,407.4609 " fill="none" filter="url(#f9fl4ow72eila)" style="stroke:#A80036;stroke-width:2.0;"/><rect fill="#FEFECE" filter="url(#f9fl4ow72eila)" height="46.5938" style="stroke:#A80036;stroke-width:1.5;" width="122" x="270" y="36.7031"/><text fill="#000000" font-family="sans-serif" font-size="14" font-style="italic" lengthAdjust="spacing" textLength="108" x="277" y="56.6982">«presentation»</text><text fill="#000000" font-family="sans-serif" font-size="14" lengthAdjust="spacing" textLength="71" x="295.5" y="72.9951">MainMenu</text><rect fill="#FEFECE" filter="url(#f9fl4ow72eila)" height="46.5938" style="stroke:#A80036;stroke-width:1.5;" width="122" x="270" y="331.1641"/><text fill="#000000" font-family="sans-serif" font-size="14" font-style="italic" lengthAdjust="spacing" textLength="108" x="277" y="351.1592">«presentation»</text><text fill="#000000" font-family="sans-serif" font-size="14" lengthAdjust="spacing" textLength="71" x="295.5" y="367.4561">MainMenu</text><rect fill="#FFFFFF" filter="url(#f9fl4ow72eila)" height="215.8672" style="stroke:#A80036;stroke-width:1.0;" width="10" x="328" y="98.2969"/><polygon fill="#A80036" points="34,115.4297,24,119.4297,34,123.4297,30,119.4297" style="stroke:#A80036;stroke-width:1.0;"/><line style="stroke:#A80036;stroke-width:1.0;" x1="28" x2="327" y1="119.4297" y2="119.4297"/><text fill="#000000" font-family="sans-serif" font-size="13" lengthAdjust="spacing" textLength="281" x="40" y="114.3638">Ask if want to add or remove a Collaborator</text><polygon fill="#A80036" points="316,144.5625,326,148.5625,316,152.5625,320,148.5625" style="stroke:#A80036;stroke-width:1.0;"/><line style="stroke:#A80036;stroke-width:1.0;" x1="23" x2="322" y1="148.5625" y2="148.5625"/><text fill="#000000" font-family="sans-serif" font-size="13" lengthAdjust="spacing" textLength="112" x="30" y="143.4966">Choose an option</text><path d="M260,163.5625 L326,163.5625 L326,170.5625 L316,180.5625 L260,180.5625 L260,163.5625 " fill="#EEEEEE" style="stroke:#000000;stroke-width:1.0;"/><rect fill="none" height="122.4688" style="stroke:#000000;stroke-width:2.0;" width="212" x="260" y="163.5625"/><text fill="#000000" font-family="sans-serif" font-size="13" font-weight="bold" lengthAdjust="spacing" textLength="21" x="275" y="176.6294">alt</text><text fill="#000000" font-family="sans-serif" font-size="11" font-weight="bold" lengthAdjust="spacing" textLength="126" x="341" y="175.7729">[Add Collaborator]</text><rect fill="#FFFFFF" filter="url(#f9fl4ow72eila)" height="40.2656" style="stroke:#000000;stroke-width:2.0;" width="136" x="267" y="180.6953"/><polygon fill="#EEEEEE" points="267,180.6953,335,180.6953,335,187.6953,325,197.6953,267,197.6953,267,180.6953" style="stroke:#000000;stroke-width:2.0;"/><text fill="#000000" font-family="sans-serif" font-size="13" font-weight="bold" lengthAdjust="spacing" textLength="23" x="280" y="194.7622">ref</text><text fill="#000000" font-family="sans-serif" font-size="13" lengthAdjust="spacing" textLength="128" x="273" y="213.7622">AddCollaborator_SD</text><line style="stroke:#000000;stroke-width:1.0;stroke-dasharray:2.0,2.0;" x1="260" x2="472" y1="226.9609" y2="226.9609"/><text fill="#000000" font-family="sans-serif" font-size="11" font-weight="bold" lengthAdjust="spacing" textLength="153" x="265" y="237.1714">[Remove Collaborator]</text><rect fill="#FFFFFF" filter="url(#f9fl4ow72eila)" height="40.2656" style="stroke:#000000;stroke-width:2.0;" width="165" x="267" y="240.7656"/><polygon fill="#EEEEEE" points="267,240.7656,335,240.7656,335,247.7656,325,257.7656,267,257.7656,267,240.7656" style="stroke:#000000;stroke-width:2.0;"/><text fill="#000000" font-family="sans-serif" font-size="13" font-weight="bold" lengthAdjust="spacing" textLength="23" x="280" y="254.8325">ref</text><text fill="#000000" font-family="sans-serif" font-size="13" lengthAdjust="spacing" textLength="157" x="273" y="273.8325">RemoveCollaborator_SD</text><polygon fill="#A80036" points="34,310.1641,24,314.1641,34,318.1641,30,314.1641" style="stroke:#A80036;stroke-width:1.0;"/><line style="stroke:#A80036;stroke-width:1.0;stroke-dasharray:2.0,2.0;" x1="28" x2="332" y1="314.1641" y2="314.1641"/><text fill="#000000" font-family="sans-serif" font-size="13" lengthAdjust="spacing" textLength="88" x="40" y="309.0981">back to menu</text><!--MD5=[1a71f08ddd6d1b96f86a58c453601c6e]
@startuml
actor RRH as Actor
participant MainMenu as UI <<presentation>>

activate UI
UI->Actor: Ask if want to add or remove a Collaborator
Actor->UI: Choose an option

alt Add Collaborator

ref over UI: AddCollaborator_SD

else Remove Collaborator

ref over UI: RemoveCollaborator_SD

end


UI- ->Actor: back to menu
deactivate UI
@enduml

PlantUML version 1.2021.6beta6(Unknown compile time)
(GPL source distribution)
Java Runtime: Java(TM) SE Runtime Environment
JVM: Java HotSpot(TM) 64-Bit Server VM
Default Encoding: UTF-8
Language: en
Country: US
--></g></svg>