<?xml version="1.0" encoding="UTF-8" standalone="no"?><svg xmlns="http://www.w3.org/2000/svg" xmlns:xlink="http://www.w3.org/1999/xlink" contentScriptType="application/ecmascript" contentStyleType="text/css" height="851px" preserveAspectRatio="none" style="width:1227px;height:851px;background:#FFFFFF;" version="1.1" viewBox="0 0 1227 851" width="1227px" zoomAndPan="magnify"><defs><filter height="300%" id="f18cyep0u9or2k" width="300%" x="-1" y="-1"><feGaussianBlur result="blurOut" stdDeviation="2.0"/><feColorMatrix in="blurOut" result="blurOut2" type="matrix" values="0 0 0 0 0 0 0 0 0 0 0 0 0 0 0 0 0 0 .4 0"/><feOffset dx="4.0" dy="4.0" in="blurOut2" result="blurOut3"/><feBlend in="SourceGraphic" in2="blurOut3" mode="normal"/></filter></defs><g><rect fill="#FFFFFF" filter="url(#f18cyep0u9or2k)" height="650.3906" style="stroke:#A80036;stroke-width:1.0;" width="10" x="251" y="98.2969"/><rect fill="#FFFFFF" filter="url(#f18cyep0u9or2k)" height="59.1328" style="stroke:#A80036;stroke-width:1.0;" width="10" x="620" y="222.9609"/><rect fill="#FFFFFF" filter="url(#f18cyep0u9or2k)" height="100.2656" style="stroke:#A80036;stroke-width:1.0;" width="10" x="620" y="311.2266"/><rect fill="#FFFFFF" filter="url(#f18cyep0u9or2k)" height="147.3984" style="stroke:#A80036;stroke-width:1.0;" width="10" x="620" y="565.1563"/><rect fill="#FFFFFF" filter="url(#f18cyep0u9or2k)" height="57.1328" style="stroke:#A80036;stroke-width:1.0;" width="10" x="828" y="340.3594"/><rect fill="#FFFFFF" filter="url(#f18cyep0u9or2k)" height="30" style="stroke:#A80036;stroke-width:1.0;" width="10" x="828" y="594.2891"/><rect fill="#FFFFFF" filter="url(#f18cyep0u9or2k)" height="30" style="stroke:#A80036;stroke-width:1.0;" width="10" x="1135.5" y="252.0938"/><rect fill="#FFFFFF" filter="url(#f18cyep0u9or2k)" height="14" style="stroke:#A80036;stroke-width:1.0;" width="10" x="1135.5" y="369.4922"/><rect fill="#FFFFFF" filter="url(#f18cyep0u9or2k)" height="30" style="stroke:#A80036;stroke-width:1.0;" width="10" x="1135.5" y="653.4219"/><rect fill="#FFFFFF" filter="url(#f18cyep0u9or2k)" height="251.9297" style="stroke:#000000;stroke-width:2.0;" width="1203" x="10" y="468.625"/><line style="stroke:#A80036;stroke-width:1.0;stroke-dasharray:5.0,5.0;" x1="38" x2="38" y1="88.2969" y2="766.6875"/><line style="stroke:#A80036;stroke-width:1.0;stroke-dasharray:5.0,5.0;" x1="256" x2="256" y1="88.2969" y2="766.6875"/><line style="stroke:#A80036;stroke-width:1.0;stroke-dasharray:5.0,5.0;" x1="625" x2="625" y1="88.2969" y2="766.6875"/><line style="stroke:#A80036;stroke-width:1.0;stroke-dasharray:5.0,5.0;" x1="833" x2="833" y1="88.2969" y2="766.6875"/><line style="stroke:#A80036;stroke-width:1.0;stroke-dasharray:5.0,5.0;" x1="987" x2="987" y1="88.2969" y2="766.6875"/><line style="stroke:#A80036;stroke-width:1.0;stroke-dasharray:5.0,5.0;" x1="1140" x2="1140" y1="88.2969" y2="766.6875"/><text fill="#000000" font-family="sans-serif" font-size="14" lengthAdjust="spacing" textLength="30" x="20" y="84.9951">RRH</text><ellipse cx="38" cy="15" fill="#FEFECE" filter="url(#f18cyep0u9or2k)" rx="8" ry="8" style="stroke:#A80036;stroke-width:2.0;"/><path d="M38,23 L38,50 M25,31 L51,31 M38,50 L25,65 M38,50 L51,65 " fill="none" filter="url(#f18cyep0u9or2k)" style="stroke:#A80036;stroke-width:2.0;"/><text fill="#000000" font-family="sans-serif" font-size="14" lengthAdjust="spacing" textLength="30" x="20" y="778.6826">RRH</text><ellipse cx="38" cy="791.9844" fill="#FEFECE" filter="url(#f18cyep0u9or2k)" rx="8" ry="8" style="stroke:#A80036;stroke-width:2.0;"/><path d="M38,799.9844 L38,826.9844 M25,807.9844 L51,807.9844 M38,826.9844 L25,841.9844 M38,826.9844 L51,841.9844 " fill="none" filter="url(#f18cyep0u9or2k)" style="stroke:#A80036;stroke-width:2.0;"/><rect fill="#FEFECE" filter="url(#f18cyep0u9or2k)" height="46.5938" style="stroke:#A80036;stroke-width:1.5;" width="216" x="146" y="36.7031"/><text fill="#000000" font-family="sans-serif" font-size="14" font-style="italic" lengthAdjust="spacing" textLength="108" x="200" y="56.6982">«presentation»</text><text fill="#000000" font-family="sans-serif" font-size="14" lengthAdjust="spacing" textLength="202" x="153" y="72.9951">RemoveTeamCollaboratorUI</text><rect fill="#FEFECE" filter="url(#f18cyep0u9or2k)" height="46.5938" style="stroke:#A80036;stroke-width:1.5;" width="216" x="146" y="765.6875"/><text fill="#000000" font-family="sans-serif" font-size="14" font-style="italic" lengthAdjust="spacing" textLength="108" x="200" y="785.6826">«presentation»</text><text fill="#000000" font-family="sans-serif" font-size="14" lengthAdjust="spacing" textLength="202" x="153" y="801.9795">RemoveTeamCollaboratorUI</text><text fill="#000000" font-family="sans-serif" font-size="14" font-style="italic" lengthAdjust="spacing" textLength="97" x="573.5" y="68.6982">«application»</text><text fill="#000000" font-family="sans-serif" font-size="14" lengthAdjust="spacing" textLength="262" x="491" y="84.9951">RemoveTeamCollaboratorController</text><ellipse cx="625" cy="39.7031" fill="#FEFECE" filter="url(#f18cyep0u9or2k)" rx="12" ry="12" style="stroke:#A80036;stroke-width:2.0;"/><polygon fill="#A80036" points="621,27.7031,627,22.7031,625,27.7031,627,32.7031,621,27.7031" style="stroke:#A80036;stroke-width:1.0;"/><text fill="#000000" font-family="sans-serif" font-size="14" font-style="italic" lengthAdjust="spacing" textLength="97" x="573.5" y="778.6826">«application»</text><text fill="#000000" font-family="sans-serif" font-size="14" lengthAdjust="spacing" textLength="262" x="491" y="794.9795">RemoveTeamCollaboratorController</text><ellipse cx="625" cy="814.2813" fill="#FEFECE" filter="url(#f18cyep0u9or2k)" rx="12" ry="12" style="stroke:#A80036;stroke-width:2.0;"/><polygon fill="#A80036" points="621,802.2813,627,797.2813,625,802.2813,627,807.2813,621,802.2813" style="stroke:#A80036;stroke-width:1.0;"/><rect fill="#FEFECE" filter="url(#f18cyep0u9or2k)" height="46.5938" style="stroke:#A80036;stroke-width:1.5;" width="124" x="769" y="36.7031"/><text fill="#000000" font-family="sans-serif" font-size="14" font-style="italic" lengthAdjust="spacing" textLength="72" x="795" y="56.6982">«domain»</text><text fill="#000000" font-family="sans-serif" font-size="14" lengthAdjust="spacing" textLength="110" x="776" y="72.9951">theTeam:Team</text><rect fill="#FEFECE" filter="url(#f18cyep0u9or2k)" height="46.5938" style="stroke:#A80036;stroke-width:1.5;" width="124" x="769" y="765.6875"/><text fill="#000000" font-family="sans-serif" font-size="14" font-style="italic" lengthAdjust="spacing" textLength="72" x="795" y="785.6826">«domain»</text><text fill="#000000" font-family="sans-serif" font-size="14" lengthAdjust="spacing" textLength="110" x="776" y="801.9795">theTeam:Team</text><rect fill="#FEFECE" filter="url(#f18cyep0u9or2k)" height="46.5938" style="stroke:#A80036;stroke-width:1.5;" width="157" x="907" y="36.7031"/><text fill="#000000" font-family="sans-serif" font-size="14" font-style="italic" lengthAdjust="spacing" textLength="99" x="936" y="56.6982">«Persistence»</text><text fill="#000000" font-family="sans-serif" font-size="14" lengthAdjust="spacing" textLength="143" x="914" y="72.9951">PersistenceContext</text><rect fill="#FEFECE" filter="url(#f18cyep0u9or2k)" height="46.5938" style="stroke:#A80036;stroke-width:1.5;" width="157" x="907" y="765.6875"/><text fill="#000000" font-family="sans-serif" font-size="14" font-style="italic" lengthAdjust="spacing" textLength="99" x="936" y="785.6826">«Persistence»</text><text fill="#000000" font-family="sans-serif" font-size="14" lengthAdjust="spacing" textLength="143" x="914" y="801.9795">PersistenceContext</text><text fill="#000000" font-family="sans-serif" font-size="14" font-style="italic" lengthAdjust="spacing" textLength="90" x="1092.5" y="68.6982">«repository»</text><text fill="#000000" font-family="sans-serif" font-size="14" lengthAdjust="spacing" textLength="119" x="1078" y="84.9951">TeamRepository</text><path d="M1122.5,19.7031 C1122.5,9.7031 1140.5,9.7031 1140.5,9.7031 C1140.5,9.7031 1158.5,9.7031 1158.5,19.7031 L1158.5,45.7031 C1158.5,55.7031 1140.5,55.7031 1140.5,55.7031 C1140.5,55.7031 1122.5,55.7031 1122.5,45.7031 L1122.5,19.7031 " fill="#FEFECE" filter="url(#f18cyep0u9or2k)" style="stroke:#000000;stroke-width:1.5;"/><path d="M1122.5,19.7031 C1122.5,29.7031 1140.5,29.7031 1140.5,29.7031 C1140.5,29.7031 1158.5,29.7031 1158.5,19.7031 " fill="none" style="stroke:#000000;stroke-width:1.5;"/><text fill="#000000" font-family="sans-serif" font-size="14" font-style="italic" lengthAdjust="spacing" textLength="90" x="1092.5" y="778.6826">«repository»</text><text fill="#000000" font-family="sans-serif" font-size="14" lengthAdjust="spacing" textLength="119" x="1078" y="794.9795">TeamRepository</text><path d="M1122.5,808.2813 C1122.5,798.2813 1140.5,798.2813 1140.5,798.2813 C1140.5,798.2813 1158.5,798.2813 1158.5,808.2813 L1158.5,834.2813 C1158.5,844.2813 1140.5,844.2813 1140.5,844.2813 C1140.5,844.2813 1122.5,844.2813 1122.5,834.2813 L1122.5,808.2813 " fill="#FEFECE" filter="url(#f18cyep0u9or2k)" style="stroke:#000000;stroke-width:1.5;"/><path d="M1122.5,808.2813 C1122.5,818.2813 1140.5,818.2813 1140.5,818.2813 C1140.5,818.2813 1158.5,818.2813 1158.5,808.2813 " fill="none" style="stroke:#000000;stroke-width:1.5;"/><rect fill="#FFFFFF" filter="url(#f18cyep0u9or2k)" height="650.3906" style="stroke:#A80036;stroke-width:1.0;" width="10" x="251" y="98.2969"/><rect fill="#FFFFFF" filter="url(#f18cyep0u9or2k)" height="59.1328" style="stroke:#A80036;stroke-width:1.0;" width="10" x="620" y="222.9609"/><rect fill="#FFFFFF" filter="url(#f18cyep0u9or2k)" height="100.2656" style="stroke:#A80036;stroke-width:1.0;" width="10" x="620" y="311.2266"/><rect fill="#FFFFFF" filter="url(#f18cyep0u9or2k)" height="147.3984" style="stroke:#A80036;stroke-width:1.0;" width="10" x="620" y="565.1563"/><rect fill="#FFFFFF" filter="url(#f18cyep0u9or2k)" height="57.1328" style="stroke:#A80036;stroke-width:1.0;" width="10" x="828" y="340.3594"/><rect fill="#FFFFFF" filter="url(#f18cyep0u9or2k)" height="30" style="stroke:#A80036;stroke-width:1.0;" width="10" x="828" y="594.2891"/><rect fill="#FFFFFF" filter="url(#f18cyep0u9or2k)" height="30" style="stroke:#A80036;stroke-width:1.0;" width="10" x="1135.5" y="252.0938"/><rect fill="#FFFFFF" filter="url(#f18cyep0u9or2k)" height="14" style="stroke:#A80036;stroke-width:1.0;" width="10" x="1135.5" y="369.4922"/><rect fill="#FFFFFF" filter="url(#f18cyep0u9or2k)" height="30" style="stroke:#A80036;stroke-width:1.0;" width="10" x="1135.5" y="653.4219"/><rect fill="#FFFFFF" filter="url(#f18cyep0u9or2k)" height="40.2656" style="stroke:#000000;stroke-width:2.0;" width="615" x="143" y="98.2969"/><polygon fill="#EEEEEE" points="143,98.2969,211,98.2969,211,105.2969,201,115.2969,143,115.2969,143,98.2969" style="stroke:#000000;stroke-width:2.0;"/><text fill="#000000" font-family="sans-serif" font-size="13" font-weight="bold" lengthAdjust="spacing" textLength="23" x="156" y="112.3638">ref</text><text fill="#000000" font-family="sans-serif" font-size="13" lengthAdjust="spacing" textLength="119" x="393" y="131.3638">ShowAllTeams_SD</text><polygon fill="#A80036" points="49,160.6953,39,164.6953,49,168.6953,45,164.6953" style="stroke:#A80036;stroke-width:1.0;"/><line style="stroke:#A80036;stroke-width:1.0;stroke-dasharray:2.0,2.0;" x1="43" x2="250" y1="164.6953" y2="164.6953"/><text fill="#000000" font-family="sans-serif" font-size="13" lengthAdjust="spacing" textLength="140" x="55" y="159.6294">Ask to choose a team</text><polygon fill="#A80036" points="239,189.8281,249,193.8281,239,197.8281,243,193.8281" style="stroke:#A80036;stroke-width:1.0;"/><line style="stroke:#A80036;stroke-width:1.0;stroke-dasharray:2.0,2.0;" x1="38" x2="245" y1="193.8281" y2="193.8281"/><text fill="#000000" font-family="sans-serif" font-size="13" lengthAdjust="spacing" textLength="102" x="45" y="188.7622">Select the team</text><polygon fill="#A80036" points="608,218.9609,618,222.9609,608,226.9609,612,222.9609" style="stroke:#A80036;stroke-width:1.0;"/><line style="stroke:#A80036;stroke-width:1.0;stroke-dasharray:2.0,2.0;" x1="261" x2="614" y1="222.9609" y2="222.9609"/><text fill="#000000" font-family="sans-serif" font-size="13" lengthAdjust="spacing" textLength="85" x="268" y="217.895">selectTeam()</text><polygon fill="#A80036" points="1123.5,248.0938,1133.5,252.0938,1123.5,256.0938,1127.5,252.0938" style="stroke:#A80036;stroke-width:1.0;"/><line style="stroke:#A80036;stroke-width:1.0;stroke-dasharray:2.0,2.0;" x1="630" x2="1129.5" y1="252.0938" y2="252.0938"/><text fill="#000000" font-family="sans-serif" font-size="13" lengthAdjust="spacing" textLength="147" x="637" y="247.0278">theTeam = findTeam()</text><polygon fill="#A80036" points="608,307.2266,618,311.2266,608,315.2266,612,311.2266" style="stroke:#A80036;stroke-width:1.0;"/><line style="stroke:#A80036;stroke-width:1.0;stroke-dasharray:2.0,2.0;" x1="261" x2="614" y1="311.2266" y2="311.2266"/><text fill="#000000" font-family="sans-serif" font-size="13" lengthAdjust="spacing" textLength="151" x="268" y="306.1606">collaborators(theTeam)</text><polygon fill="#A80036" points="816,336.3594,826,340.3594,816,344.3594,820,340.3594" style="stroke:#A80036;stroke-width:1.0;"/><line style="stroke:#A80036;stroke-width:1.0;stroke-dasharray:2.0,2.0;" x1="630" x2="822" y1="340.3594" y2="340.3594"/><text fill="#000000" font-family="sans-serif" font-size="13" lengthAdjust="spacing" textLength="151" x="637" y="335.2935">collaborators(theTeam)</text><polygon fill="#A80036" points="1123.5,365.4922,1133.5,369.4922,1123.5,373.4922,1127.5,369.4922" style="stroke:#A80036;stroke-width:1.0;"/><line style="stroke:#A80036;stroke-width:1.0;" x1="838" x2="1129.5" y1="369.4922" y2="369.4922"/><text fill="#000000" font-family="sans-serif" font-size="13" lengthAdjust="spacing" textLength="93" x="845" y="364.4263">collaborators()</text><polygon fill="#A80036" points="849,379.4922,839,383.4922,849,387.4922,845,383.4922" style="stroke:#A80036;stroke-width:1.0;"/><line style="stroke:#A80036;stroke-width:1.0;stroke-dasharray:2.0,2.0;" x1="843" x2="1139.5" y1="383.4922" y2="383.4922"/><polygon fill="#A80036" points="641,393.4922,631,397.4922,641,401.4922,637,397.4922" style="stroke:#A80036;stroke-width:1.0;"/><line style="stroke:#A80036;stroke-width:1.0;stroke-dasharray:2.0,2.0;" x1="635" x2="832" y1="397.4922" y2="397.4922"/><polygon fill="#A80036" points="272,407.4922,262,411.4922,272,415.4922,268,411.4922" style="stroke:#A80036;stroke-width:1.0;"/><line style="stroke:#A80036;stroke-width:1.0;stroke-dasharray:2.0,2.0;" x1="266" x2="624" y1="411.4922" y2="411.4922"/><line style="stroke:#A80036;stroke-width:1.0;" x1="261" x2="303" y1="440.625" y2="440.625"/><line style="stroke:#A80036;stroke-width:1.0;" x1="303" x2="303" y1="440.625" y2="453.625"/><line style="stroke:#A80036;stroke-width:1.0;" x1="262" x2="303" y1="453.625" y2="453.625"/><polygon fill="#A80036" points="272,449.625,262,453.625,272,457.625,268,453.625" style="stroke:#A80036;stroke-width:1.0;"/><text fill="#000000" font-family="sans-serif" font-size="13" lengthAdjust="spacing" textLength="44" x="268" y="435.5591">show()</text><path d="M10,468.625 L88,468.625 L88,475.625 L78,485.625 L10,485.625 L10,468.625 " fill="#EEEEEE" style="stroke:#000000;stroke-width:1.0;"/><rect fill="none" height="251.9297" style="stroke:#000000;stroke-width:2.0;" width="1203" x="10" y="468.625"/><text fill="#000000" font-family="sans-serif" font-size="13" font-weight="bold" lengthAdjust="spacing" textLength="33" x="25" y="481.6919">loop</text><polygon fill="#A80036" points="49,502.8906,39,506.8906,49,510.8906,45,506.8906" style="stroke:#A80036;stroke-width:1.0;"/><line style="stroke:#A80036;stroke-width:1.0;stroke-dasharray:2.0,2.0;" x1="43" x2="250" y1="506.8906" y2="506.8906"/><text fill="#000000" font-family="sans-serif" font-size="13" lengthAdjust="spacing" textLength="189" x="55" y="501.8247">Ask to choose a collaborators</text><polygon fill="#A80036" points="239,532.0234,249,536.0234,239,540.0234,243,536.0234" style="stroke:#A80036;stroke-width:1.0;"/><line style="stroke:#A80036;stroke-width:1.0;stroke-dasharray:2.0,2.0;" x1="38" x2="245" y1="536.0234" y2="536.0234"/><text fill="#000000" font-family="sans-serif" font-size="13" lengthAdjust="spacing" textLength="131" x="45" y="530.9575">Select a collaborator</text><polygon fill="#A80036" points="608,561.1563,618,565.1563,608,569.1563,612,565.1563" style="stroke:#A80036;stroke-width:1.0;"/><line style="stroke:#A80036;stroke-width:1.0;stroke-dasharray:2.0,2.0;" x1="261" x2="614" y1="565.1563" y2="565.1563"/><text fill="#000000" font-family="sans-serif" font-size="13" lengthAdjust="spacing" textLength="340" x="268" y="560.0903">removeTeamCollaborator(theTeam, theCollaborator)</text><polygon fill="#A80036" points="816,590.2891,826,594.2891,816,598.2891,820,594.2891" style="stroke:#A80036;stroke-width:1.0;"/><line style="stroke:#A80036;stroke-width:1.0;stroke-dasharray:2.0,2.0;" x1="630" x2="822" y1="594.2891" y2="594.2891"/><text fill="#000000" font-family="sans-serif" font-size="13" lengthAdjust="spacing" textLength="136" x="637" y="589.2231">remove(collaborator)</text><polygon fill="#A80036" points="1123.5,649.4219,1133.5,653.4219,1123.5,657.4219,1127.5,653.4219" style="stroke:#A80036;stroke-width:1.0;"/><line style="stroke:#A80036;stroke-width:1.0;" x1="630" x2="1129.5" y1="653.4219" y2="653.4219"/><text fill="#000000" font-family="sans-serif" font-size="13" lengthAdjust="spacing" textLength="99" x="637" y="648.356">save(theTeam)</text><polygon fill="#A80036" points="272,708.5547,262,712.5547,272,716.5547,268,712.5547" style="stroke:#A80036;stroke-width:1.0;"/><line style="stroke:#A80036;stroke-width:1.0;" x1="266" x2="624" y1="712.5547" y2="712.5547"/><text fill="#000000" font-family="sans-serif" font-size="13" lengthAdjust="spacing" textLength="58" x="278" y="707.4888">theTeam</text><polygon fill="#A80036" points="49,744.6875,39,748.6875,49,752.6875,45,748.6875" style="stroke:#A80036;stroke-width:1.0;"/><line style="stroke:#A80036;stroke-width:1.0;stroke-dasharray:2.0,2.0;" x1="43" x2="255" y1="748.6875" y2="748.6875"/><text fill="#000000" font-family="sans-serif" font-size="13" lengthAdjust="spacing" textLength="88" x="55" y="743.6216">back to menu</text><!--MD5=[8d93922f200905468019ea0d9f6eee3b]
@startuml
actor RRH as Actor
participant RemoveTeamCollaboratorUI as UI <<presentation>>
control RemoveTeamCollaboratorController as Controller <<application>>
participant "theTeam:Team" as Domain <<domain>>
participant "PersistenceContext" as PersistenceContext <<Persistence>>
database TeamRepository as RepositoryTeams <<repository>>

activate UI
ref over UI, Controller : ShowAllTeams_SD

UI - -> Actor: Ask to choose a team
Actor - -> UI: Select the team

UI - -> Controller: selectTeam()
activate Controller

Controller - -> RepositoryTeams : theTeam = findTeam()
activate RepositoryTeams
deactivate Controller
deactivate RepositoryTeams

UI - -> Controller : collaborators(theTeam)
activate Controller

Controller - -> Domain : collaborators(theTeam)
activate Domain

Domain->RepositoryTeams: collaborators()
activate RepositoryTeams

RepositoryTeams - -> Domain : 
deactivate RepositoryTeams

Domain- ->Controller: 
deactivate Domain

Controller - -> UI
deactivate Controller

UI -> UI : show()

loop

UI- ->Actor: Ask to choose a collaborators
Actor- ->UI: Select a collaborator

UI - -> Controller : removeTeamCollaborator(theTeam, theCollaborator)
activate Controller

Controller - -> Domain : remove(collaborator)
activate Domain
deactivate Domain

Controller->RepositoryTeams:save(theTeam)
activate RepositoryTeams
deactivate RepositoryTeams

Controller->UI: theTeam
deactivate Controller

end loop

UI- ->Actor: back to menu
deactivate UI
@enduml

PlantUML version 1.2021.6beta6(Unknown compile time)
(GPL source distribution)
Java Runtime: Java(TM) SE Runtime Environment
JVM: Java HotSpot(TM) 64-Bit Server VM
Default Encoding: UTF-8
Language: en
Country: US
--></g></svg>