<?xml version="1.0" encoding="UTF-8" standalone="no"?><svg xmlns="http://www.w3.org/2000/svg" xmlns:xlink="http://www.w3.org/1999/xlink" contentScriptType="application/ecmascript" contentStyleType="text/css" height="478px" preserveAspectRatio="none" style="width:779px;height:478px;background:#FFFFFF;" version="1.1" viewBox="0 0 779 478" width="779px" zoomAndPan="magnify"><defs><filter height="300%" id="f1wp31dg32hfxb" width="300%" x="-1" y="-1"><feGaussianBlur result="blurOut" stdDeviation="2.0"/><feColorMatrix in="blurOut" result="blurOut2" type="matrix" values="0 0 0 0 0 0 0 0 0 0 0 0 0 0 0 0 0 0 .4 0"/><feOffset dx="4.0" dy="4.0" in="blurOut2" result="blurOut3"/><feBlend in="SourceGraphic" in2="blurOut3" mode="normal"/></filter></defs><g><rect fill="#FFFFFF" filter="url(#f1wp31dg32hfxb)" height="291.0625" style="stroke:#A80036;stroke-width:1.0;" width="10" x="63" y="93.5938"/><rect fill="#FFFFFF" filter="url(#f1wp31dg32hfxb)" height="218.7969" style="stroke:#A80036;stroke-width:1.0;" width="10" x="210" y="114.7266"/><rect fill="#FFFFFF" filter="url(#f1wp31dg32hfxb)" height="59.1328" style="stroke:#A80036;stroke-width:1.0;" width="10" x="352" y="172.9922"/><rect fill="#FFFFFF" filter="url(#f1wp31dg32hfxb)" height="59.1328" style="stroke:#A80036;stroke-width:1.0;" width="10" x="512" y="202.125"/><rect fill="#FFFFFF" filter="url(#f1wp31dg32hfxb)" height="58.2656" style="stroke:#A80036;stroke-width:1.0;" width="10" x="682.5" y="261.2578"/><line style="stroke:#A80036;stroke-width:1.0;stroke-dasharray:5.0,5.0;" x1="68" x2="68" y1="83.5938" y2="393.6563"/><line style="stroke:#A80036;stroke-width:1.0;stroke-dasharray:5.0,5.0;" x1="214.5" x2="214.5" y1="83.5938" y2="393.6563"/><line style="stroke:#A80036;stroke-width:1.0;stroke-dasharray:5.0,5.0;" x1="356.5" x2="356.5" y1="83.5938" y2="393.6563"/><line style="stroke:#A80036;stroke-width:1.0;stroke-dasharray:5.0,5.0;" x1="516.5" x2="516.5" y1="83.5938" y2="393.6563"/><line style="stroke:#A80036;stroke-width:1.0;stroke-dasharray:5.0,5.0;" x1="687.5" x2="687.5" y1="83.5938" y2="393.6563"/><rect fill="#FEFECE" filter="url(#f1wp31dg32hfxb)" height="46.5938" style="stroke:#A80036;stroke-width:1.5;" width="122" x="5" y="32"/><text fill="#000000" font-family="sans-serif" font-size="14" font-style="italic" lengthAdjust="spacing" textLength="108" x="12" y="51.9951">«presentation»</text><text fill="#000000" font-family="sans-serif" font-size="14" lengthAdjust="spacing" textLength="13" x="59.5" y="68.292">UI</text><rect fill="#FEFECE" filter="url(#f1wp31dg32hfxb)" height="46.5938" style="stroke:#A80036;stroke-width:1.5;" width="122" x="5" y="392.6563"/><text fill="#000000" font-family="sans-serif" font-size="14" font-style="italic" lengthAdjust="spacing" textLength="108" x="12" y="412.6514">«presentation»</text><text fill="#000000" font-family="sans-serif" font-size="14" lengthAdjust="spacing" textLength="13" x="59.5" y="428.9482">UI</text><text fill="#000000" font-family="sans-serif" font-size="14" font-style="italic" lengthAdjust="spacing" textLength="97" x="163.5" y="63.9951">«application»</text><text fill="#000000" font-family="sans-serif" font-size="14" lengthAdjust="spacing" textLength="73" x="175.5" y="80.292">Controller</text><ellipse cx="215" cy="35" fill="#FEFECE" filter="url(#f1wp31dg32hfxb)" rx="12" ry="12" style="stroke:#A80036;stroke-width:2.0;"/><polygon fill="#A80036" points="211,23,217,18,215,23,217,28,211,23" style="stroke:#A80036;stroke-width:1.0;"/><text fill="#000000" font-family="sans-serif" font-size="14" font-style="italic" lengthAdjust="spacing" textLength="97" x="163.5" y="405.6514">«application»</text><text fill="#000000" font-family="sans-serif" font-size="14" lengthAdjust="spacing" textLength="73" x="175.5" y="421.9482">Controller</text><ellipse cx="215" cy="441.25" fill="#FEFECE" filter="url(#f1wp31dg32hfxb)" rx="12" ry="12" style="stroke:#A80036;stroke-width:2.0;"/><polygon fill="#A80036" points="211,429.25,217,424.25,215,429.25,217,434.25,211,429.25" style="stroke:#A80036;stroke-width:1.0;"/><rect fill="#FEFECE" filter="url(#f1wp31dg32hfxb)" height="46.5938" style="stroke:#A80036;stroke-width:1.5;" width="157" x="276.5" y="32"/><text fill="#000000" font-family="sans-serif" font-size="14" font-style="italic" lengthAdjust="spacing" textLength="99" x="305.5" y="51.9951">«Persistence»</text><text fill="#000000" font-family="sans-serif" font-size="14" lengthAdjust="spacing" textLength="143" x="283.5" y="68.292">PersistenceContext</text><rect fill="#FEFECE" filter="url(#f1wp31dg32hfxb)" height="46.5938" style="stroke:#A80036;stroke-width:1.5;" width="157" x="276.5" y="392.6563"/><text fill="#000000" font-family="sans-serif" font-size="14" font-style="italic" lengthAdjust="spacing" textLength="99" x="305.5" y="412.6514">«Persistence»</text><text fill="#000000" font-family="sans-serif" font-size="14" lengthAdjust="spacing" textLength="143" x="283.5" y="428.9482">PersistenceContext</text><text fill="#000000" font-family="sans-serif" font-size="14" font-style="italic" lengthAdjust="spacing" textLength="90" x="469" y="63.9951">«repository»</text><text fill="#000000" font-family="sans-serif" font-size="14" lengthAdjust="spacing" textLength="133" x="447.5" y="80.292">RepositoryFactory</text><path d="M499,15 C499,5 517,5 517,5 C517,5 535,5 535,15 L535,41 C535,51 517,51 517,51 C517,51 499,51 499,41 L499,15 " fill="#FEFECE" filter="url(#f1wp31dg32hfxb)" style="stroke:#000000;stroke-width:1.5;"/><path d="M499,15 C499,25 517,25 517,25 C517,25 535,25 535,15 " fill="none" style="stroke:#000000;stroke-width:1.5;"/><text fill="#000000" font-family="sans-serif" font-size="14" font-style="italic" lengthAdjust="spacing" textLength="90" x="469" y="405.6514">«repository»</text><text fill="#000000" font-family="sans-serif" font-size="14" lengthAdjust="spacing" textLength="133" x="447.5" y="421.9482">RepositoryFactory</text><path d="M499,435.25 C499,425.25 517,425.25 517,425.25 C517,425.25 535,425.25 535,435.25 L535,461.25 C535,471.25 517,471.25 517,471.25 C517,471.25 499,471.25 499,461.25 L499,435.25 " fill="#FEFECE" filter="url(#f1wp31dg32hfxb)" style="stroke:#000000;stroke-width:1.5;"/><path d="M499,435.25 C499,445.25 517,445.25 517,445.25 C517,445.25 535,445.25 535,435.25 " fill="none" style="stroke:#000000;stroke-width:1.5;"/><text fill="#000000" font-family="sans-serif" font-size="14" font-style="italic" lengthAdjust="spacing" textLength="90" x="639.5" y="63.9951">«repository»</text><text fill="#000000" font-family="sans-serif" font-size="14" lengthAdjust="spacing" textLength="176" x="596.5" y="80.292">CollaboratorsRepository</text><path d="M669.5,15 C669.5,5 687.5,5 687.5,5 C687.5,5 705.5,5 705.5,15 L705.5,41 C705.5,51 687.5,51 687.5,51 C687.5,51 669.5,51 669.5,41 L669.5,15 " fill="#FEFECE" filter="url(#f1wp31dg32hfxb)" style="stroke:#000000;stroke-width:1.5;"/><path d="M669.5,15 C669.5,25 687.5,25 687.5,25 C687.5,25 705.5,25 705.5,15 " fill="none" style="stroke:#000000;stroke-width:1.5;"/><text fill="#000000" font-family="sans-serif" font-size="14" font-style="italic" lengthAdjust="spacing" textLength="90" x="639.5" y="405.6514">«repository»</text><text fill="#000000" font-family="sans-serif" font-size="14" lengthAdjust="spacing" textLength="176" x="596.5" y="421.9482">CollaboratorsRepository</text><path d="M669.5,435.25 C669.5,425.25 687.5,425.25 687.5,425.25 C687.5,425.25 705.5,425.25 705.5,435.25 L705.5,461.25 C705.5,471.25 687.5,471.25 687.5,471.25 C687.5,471.25 669.5,471.25 669.5,461.25 L669.5,435.25 " fill="#FEFECE" filter="url(#f1wp31dg32hfxb)" style="stroke:#000000;stroke-width:1.5;"/><path d="M669.5,435.25 C669.5,445.25 687.5,445.25 687.5,445.25 C687.5,445.25 705.5,445.25 705.5,435.25 " fill="none" style="stroke:#000000;stroke-width:1.5;"/><rect fill="#FFFFFF" filter="url(#f1wp31dg32hfxb)" height="291.0625" style="stroke:#A80036;stroke-width:1.0;" width="10" x="63" y="93.5938"/><rect fill="#FFFFFF" filter="url(#f1wp31dg32hfxb)" height="218.7969" style="stroke:#A80036;stroke-width:1.0;" width="10" x="210" y="114.7266"/><rect fill="#FFFFFF" filter="url(#f1wp31dg32hfxb)" height="59.1328" style="stroke:#A80036;stroke-width:1.0;" width="10" x="352" y="172.9922"/><rect fill="#FFFFFF" filter="url(#f1wp31dg32hfxb)" height="59.1328" style="stroke:#A80036;stroke-width:1.0;" width="10" x="512" y="202.125"/><rect fill="#FFFFFF" filter="url(#f1wp31dg32hfxb)" height="58.2656" style="stroke:#A80036;stroke-width:1.0;" width="10" x="682.5" y="261.2578"/><polygon fill="#A80036" points="198,110.7266,208,114.7266,198,118.7266,202,114.7266" style="stroke:#A80036;stroke-width:1.0;"/><line style="stroke:#A80036;stroke-width:1.0;" x1="73" x2="204" y1="114.7266" y2="114.7266"/><text fill="#000000" font-family="sans-serif" font-size="13" lengthAdjust="spacing" textLength="51" x="80" y="109.6606">create()</text><polygon fill="#A80036" points="198,139.8594,208,143.8594,198,147.8594,202,143.8594" style="stroke:#A80036;stroke-width:1.0;"/><line style="stroke:#A80036;stroke-width:1.0;" x1="73" x2="204" y1="143.8594" y2="143.8594"/><text fill="#000000" font-family="sans-serif" font-size="13" lengthAdjust="spacing" textLength="113" x="80" y="138.7935">listCollaborators()</text><polygon fill="#A80036" points="340,168.9922,350,172.9922,340,176.9922,344,172.9922" style="stroke:#A80036;stroke-width:1.0;"/><line style="stroke:#A80036;stroke-width:1.0;" x1="220" x2="346" y1="172.9922" y2="172.9922"/><text fill="#000000" font-family="sans-serif" font-size="13" lengthAdjust="spacing" textLength="85" x="227" y="167.9263">repositories()</text><polygon fill="#A80036" points="500,198.125,510,202.125,500,206.125,504,202.125" style="stroke:#A80036;stroke-width:1.0;"/><line style="stroke:#A80036;stroke-width:1.0;" x1="362" x2="506" y1="202.125" y2="202.125"/><text fill="#000000" font-family="sans-serif" font-size="13" lengthAdjust="spacing" textLength="51" x="369" y="197.0591">create()</text><polygon fill="#A80036" points="670.5,257.2578,680.5,261.2578,670.5,265.2578,674.5,261.2578" style="stroke:#A80036;stroke-width:1.0;"/><line style="stroke:#A80036;stroke-width:1.0;" x1="517" x2="676.5" y1="261.2578" y2="261.2578"/><text fill="#000000" font-family="sans-serif" font-size="13" lengthAdjust="spacing" textLength="51" x="524" y="256.1919">create()</text><polygon fill="#A80036" points="670.5,286.3906,680.5,290.3906,670.5,294.3906,674.5,290.3906" style="stroke:#A80036;stroke-width:1.0;"/><line style="stroke:#A80036;stroke-width:1.0;" x1="220" x2="676.5" y1="290.3906" y2="290.3906"/><text fill="#000000" font-family="sans-serif" font-size="13" lengthAdjust="spacing" textLength="49" x="227" y="285.3247">findAll()</text><polygon fill="#A80036" points="231,315.5234,221,319.5234,231,323.5234,227,319.5234" style="stroke:#A80036;stroke-width:1.0;"/><line style="stroke:#A80036;stroke-width:1.0;stroke-dasharray:2.0,2.0;" x1="225" x2="686.5" y1="319.5234" y2="319.5234"/><text fill="#000000" font-family="sans-serif" font-size="13" lengthAdjust="spacing" textLength="109" x="237" y="314.4575">allCollaborators()</text><polygon fill="#A80036" points="84,329.5234,74,333.5234,84,337.5234,80,333.5234" style="stroke:#A80036;stroke-width:1.0;"/><line style="stroke:#A80036;stroke-width:1.0;stroke-dasharray:2.0,2.0;" x1="78" x2="214" y1="333.5234" y2="333.5234"/><line style="stroke:#A80036;stroke-width:1.0;" x1="73" x2="115" y1="362.6563" y2="362.6563"/><line style="stroke:#A80036;stroke-width:1.0;" x1="115" x2="115" y1="362.6563" y2="375.6563"/><line style="stroke:#A80036;stroke-width:1.0;" x1="74" x2="115" y1="375.6563" y2="375.6563"/><polygon fill="#A80036" points="84,371.6563,74,375.6563,84,379.6563,80,375.6563" style="stroke:#A80036;stroke-width:1.0;"/><text fill="#000000" font-family="sans-serif" font-size="13" lengthAdjust="spacing" textLength="44" x="80" y="357.5903">show()</text><!--MD5=[86b53c966df657a4c49a00884ba39ccd]
@startuml
participant UI as UI <<presentation>>
control Controller as Controller <<application>>
participant "PersistenceContext" as PersistenceContext <<Persistence>>
database RepositoryFactory as RepositoryFactory <<repository>>
database CollaboratorsRepository as RepositoryCollaborators <<repository>>

activate UI

UI->Controller : create()
activate Controller
UI -> Controller : listCollaborators()

Controller -> PersistenceContext: repositories()
activate PersistenceContext

PersistenceContext -> RepositoryFactory : create()
activate RepositoryFactory

deactivate PersistenceContext

RepositoryFactory -> RepositoryCollaborators : create()
deactivate RepositoryFactory

activate RepositoryCollaborators

Controller -> RepositoryCollaborators : findAll()

RepositoryCollaborators - -> Controller :allCollaborators()
deactivate RepositoryCollaborators

Controller- -> UI:
deactivate Controller

UI-> UI:show()
@enduml

PlantUML version 1.2021.6beta6(Unknown compile time)
(GPL source distribution)
Java Runtime: Java(TM) SE Runtime Environment
JVM: Java HotSpot(TM) 64-Bit Server VM
Default Encoding: UTF-8
Language: en
Country: US
--></g></svg>