<?xml version="1.0" encoding="UTF-8" standalone="no"?><svg xmlns="http://www.w3.org/2000/svg" xmlns:xlink="http://www.w3.org/1999/xlink" contentScriptType="application/ecmascript" contentStyleType="text/css" height="478px" preserveAspectRatio="none" style="width:700px;height:478px;background:#FFFFFF;" version="1.1" viewBox="0 0 700 478" width="700px" zoomAndPan="magnify"><defs><filter height="300%" id="f18lb1z588r2zb" width="300%" x="-1" y="-1"><feGaussianBlur result="blurOut" stdDeviation="2.0"/><feColorMatrix in="blurOut" result="blurOut2" type="matrix" values="0 0 0 0 0 0 0 0 0 0 0 0 0 0 0 0 0 0 .4 0"/><feOffset dx="4.0" dy="4.0" in="blurOut2" result="blurOut3"/><feBlend in="SourceGraphic" in2="blurOut3" mode="normal"/></filter></defs><g><rect fill="#FFFFFF" filter="url(#f18lb1z588r2zb)" height="291.0625" style="stroke:#A80036;stroke-width:1.0;" width="10" x="63" y="93.5938"/><rect fill="#FFFFFF" filter="url(#f18lb1z588r2zb)" height="218.7969" style="stroke:#A80036;stroke-width:1.0;" width="10" x="187.5" y="114.7266"/><rect fill="#FFFFFF" filter="url(#f18lb1z588r2zb)" height="59.1328" style="stroke:#A80036;stroke-width:1.0;" width="10" x="329.5" y="172.9922"/><rect fill="#FFFFFF" filter="url(#f18lb1z588r2zb)" height="59.1328" style="stroke:#A80036;stroke-width:1.0;" width="10" x="489.5" y="202.125"/><rect fill="#FFFFFF" filter="url(#f18lb1z588r2zb)" height="58.2656" style="stroke:#A80036;stroke-width:1.0;" width="10" x="631.5" y="261.2578"/><line style="stroke:#A80036;stroke-width:1.0;stroke-dasharray:5.0,5.0;" x1="68" x2="68" y1="83.5938" y2="393.6563"/><line style="stroke:#A80036;stroke-width:1.0;stroke-dasharray:5.0,5.0;" x1="192" x2="192" y1="83.5938" y2="393.6563"/><line style="stroke:#A80036;stroke-width:1.0;stroke-dasharray:5.0,5.0;" x1="334" x2="334" y1="83.5938" y2="393.6563"/><line style="stroke:#A80036;stroke-width:1.0;stroke-dasharray:5.0,5.0;" x1="494" x2="494" y1="83.5938" y2="393.6563"/><line style="stroke:#A80036;stroke-width:1.0;stroke-dasharray:5.0,5.0;" x1="636" x2="636" y1="83.5938" y2="393.6563"/><rect fill="#FEFECE" filter="url(#f18lb1z588r2zb)" height="46.5938" style="stroke:#A80036;stroke-width:1.5;" width="122" x="5" y="32"/><text fill="#000000" font-family="sans-serif" font-size="14" font-style="italic" lengthAdjust="spacing" textLength="108" x="12" y="51.9951">«presentation»</text><text fill="#000000" font-family="sans-serif" font-size="14" lengthAdjust="spacing" textLength="13" x="59.5" y="68.292">UI</text><rect fill="#FEFECE" filter="url(#f18lb1z588r2zb)" height="46.5938" style="stroke:#A80036;stroke-width:1.5;" width="122" x="5" y="392.6563"/><text fill="#000000" font-family="sans-serif" font-size="14" font-style="italic" lengthAdjust="spacing" textLength="108" x="12" y="412.6514">«presentation»</text><text fill="#000000" font-family="sans-serif" font-size="14" lengthAdjust="spacing" textLength="13" x="59.5" y="428.9482">UI</text><text fill="#000000" font-family="sans-serif" font-size="14" font-style="italic" lengthAdjust="spacing" textLength="97" x="141" y="63.9951">«application»</text><text fill="#000000" font-family="sans-serif" font-size="14" lengthAdjust="spacing" textLength="73" x="153" y="80.292">Controller</text><ellipse cx="192.5" cy="35" fill="#FEFECE" filter="url(#f18lb1z588r2zb)" rx="12" ry="12" style="stroke:#A80036;stroke-width:2.0;"/><polygon fill="#A80036" points="188.5,23,194.5,18,192.5,23,194.5,28,188.5,23" style="stroke:#A80036;stroke-width:1.0;"/><text fill="#000000" font-family="sans-serif" font-size="14" font-style="italic" lengthAdjust="spacing" textLength="97" x="141" y="405.6514">«application»</text><text fill="#000000" font-family="sans-serif" font-size="14" lengthAdjust="spacing" textLength="73" x="153" y="421.9482">Controller</text><ellipse cx="192.5" cy="441.25" fill="#FEFECE" filter="url(#f18lb1z588r2zb)" rx="12" ry="12" style="stroke:#A80036;stroke-width:2.0;"/><polygon fill="#A80036" points="188.5,429.25,194.5,424.25,192.5,429.25,194.5,434.25,188.5,429.25" style="stroke:#A80036;stroke-width:1.0;"/><rect fill="#FEFECE" filter="url(#f18lb1z588r2zb)" height="46.5938" style="stroke:#A80036;stroke-width:1.5;" width="157" x="254" y="32"/><text fill="#000000" font-family="sans-serif" font-size="14" font-style="italic" lengthAdjust="spacing" textLength="99" x="283" y="51.9951">«Persistence»</text><text fill="#000000" font-family="sans-serif" font-size="14" lengthAdjust="spacing" textLength="143" x="261" y="68.292">PersistenceContext</text><rect fill="#FEFECE" filter="url(#f18lb1z588r2zb)" height="46.5938" style="stroke:#A80036;stroke-width:1.5;" width="157" x="254" y="392.6563"/><text fill="#000000" font-family="sans-serif" font-size="14" font-style="italic" lengthAdjust="spacing" textLength="99" x="283" y="412.6514">«Persistence»</text><text fill="#000000" font-family="sans-serif" font-size="14" lengthAdjust="spacing" textLength="143" x="261" y="428.9482">PersistenceContext</text><text fill="#000000" font-family="sans-serif" font-size="14" font-style="italic" lengthAdjust="spacing" textLength="90" x="446.5" y="63.9951">«repository»</text><text fill="#000000" font-family="sans-serif" font-size="14" lengthAdjust="spacing" textLength="133" x="425" y="80.292">RepositoryFactory</text><path d="M476.5,15 C476.5,5 494.5,5 494.5,5 C494.5,5 512.5,5 512.5,15 L512.5,41 C512.5,51 494.5,51 494.5,51 C494.5,51 476.5,51 476.5,41 L476.5,15 " fill="#FEFECE" filter="url(#f18lb1z588r2zb)" style="stroke:#000000;stroke-width:1.5;"/><path d="M476.5,15 C476.5,25 494.5,25 494.5,25 C494.5,25 512.5,25 512.5,15 " fill="none" style="stroke:#000000;stroke-width:1.5;"/><text fill="#000000" font-family="sans-serif" font-size="14" font-style="italic" lengthAdjust="spacing" textLength="90" x="446.5" y="405.6514">«repository»</text><text fill="#000000" font-family="sans-serif" font-size="14" lengthAdjust="spacing" textLength="133" x="425" y="421.9482">RepositoryFactory</text><path d="M476.5,435.25 C476.5,425.25 494.5,425.25 494.5,425.25 C494.5,425.25 512.5,425.25 512.5,435.25 L512.5,461.25 C512.5,471.25 494.5,471.25 494.5,471.25 C494.5,471.25 476.5,471.25 476.5,461.25 L476.5,435.25 " fill="#FEFECE" filter="url(#f18lb1z588r2zb)" style="stroke:#000000;stroke-width:1.5;"/><path d="M476.5,435.25 C476.5,445.25 494.5,445.25 494.5,445.25 C494.5,445.25 512.5,445.25 512.5,435.25 " fill="none" style="stroke:#000000;stroke-width:1.5;"/><text fill="#000000" font-family="sans-serif" font-size="14" font-style="italic" lengthAdjust="spacing" textLength="90" x="588.5" y="63.9951">«repository»</text><text fill="#000000" font-family="sans-serif" font-size="14" lengthAdjust="spacing" textLength="119" x="574" y="80.292">TeamRepository</text><path d="M618.5,15 C618.5,5 636.5,5 636.5,5 C636.5,5 654.5,5 654.5,15 L654.5,41 C654.5,51 636.5,51 636.5,51 C636.5,51 618.5,51 618.5,41 L618.5,15 " fill="#FEFECE" filter="url(#f18lb1z588r2zb)" style="stroke:#000000;stroke-width:1.5;"/><path d="M618.5,15 C618.5,25 636.5,25 636.5,25 C636.5,25 654.5,25 654.5,15 " fill="none" style="stroke:#000000;stroke-width:1.5;"/><text fill="#000000" font-family="sans-serif" font-size="14" font-style="italic" lengthAdjust="spacing" textLength="90" x="588.5" y="405.6514">«repository»</text><text fill="#000000" font-family="sans-serif" font-size="14" lengthAdjust="spacing" textLength="119" x="574" y="421.9482">TeamRepository</text><path d="M618.5,435.25 C618.5,425.25 636.5,425.25 636.5,425.25 C636.5,425.25 654.5,425.25 654.5,435.25 L654.5,461.25 C654.5,471.25 636.5,471.25 636.5,471.25 C636.5,471.25 618.5,471.25 618.5,461.25 L618.5,435.25 " fill="#FEFECE" filter="url(#f18lb1z588r2zb)" style="stroke:#000000;stroke-width:1.5;"/><path d="M618.5,435.25 C618.5,445.25 636.5,445.25 636.5,445.25 C636.5,445.25 654.5,445.25 654.5,435.25 " fill="none" style="stroke:#000000;stroke-width:1.5;"/><rect fill="#FFFFFF" filter="url(#f18lb1z588r2zb)" height="291.0625" style="stroke:#A80036;stroke-width:1.0;" width="10" x="63" y="93.5938"/><rect fill="#FFFFFF" filter="url(#f18lb1z588r2zb)" height="218.7969" style="stroke:#A80036;stroke-width:1.0;" width="10" x="187.5" y="114.7266"/><rect fill="#FFFFFF" filter="url(#f18lb1z588r2zb)" height="59.1328" style="stroke:#A80036;stroke-width:1.0;" width="10" x="329.5" y="172.9922"/><rect fill="#FFFFFF" filter="url(#f18lb1z588r2zb)" height="59.1328" style="stroke:#A80036;stroke-width:1.0;" width="10" x="489.5" y="202.125"/><rect fill="#FFFFFF" filter="url(#f18lb1z588r2zb)" height="58.2656" style="stroke:#A80036;stroke-width:1.0;" width="10" x="631.5" y="261.2578"/><polygon fill="#A80036" points="175.5,110.7266,185.5,114.7266,175.5,118.7266,179.5,114.7266" style="stroke:#A80036;stroke-width:1.0;"/><line style="stroke:#A80036;stroke-width:1.0;" x1="73" x2="181.5" y1="114.7266" y2="114.7266"/><text fill="#000000" font-family="sans-serif" font-size="13" lengthAdjust="spacing" textLength="51" x="80" y="109.6606">create()</text><polygon fill="#A80036" points="175.5,139.8594,185.5,143.8594,175.5,147.8594,179.5,143.8594" style="stroke:#A80036;stroke-width:1.0;"/><line style="stroke:#A80036;stroke-width:1.0;" x1="73" x2="181.5" y1="143.8594" y2="143.8594"/><text fill="#000000" font-family="sans-serif" font-size="13" lengthAdjust="spacing" textLength="72" x="80" y="138.7935">listTeams()</text><polygon fill="#A80036" points="317.5,168.9922,327.5,172.9922,317.5,176.9922,321.5,172.9922" style="stroke:#A80036;stroke-width:1.0;"/><line style="stroke:#A80036;stroke-width:1.0;" x1="197.5" x2="323.5" y1="172.9922" y2="172.9922"/><text fill="#000000" font-family="sans-serif" font-size="13" lengthAdjust="spacing" textLength="85" x="204.5" y="167.9263">repositories()</text><polygon fill="#A80036" points="477.5,198.125,487.5,202.125,477.5,206.125,481.5,202.125" style="stroke:#A80036;stroke-width:1.0;"/><line style="stroke:#A80036;stroke-width:1.0;" x1="339.5" x2="483.5" y1="202.125" y2="202.125"/><text fill="#000000" font-family="sans-serif" font-size="13" lengthAdjust="spacing" textLength="51" x="346.5" y="197.0591">create()</text><polygon fill="#A80036" points="619.5,257.2578,629.5,261.2578,619.5,265.2578,623.5,261.2578" style="stroke:#A80036;stroke-width:1.0;"/><line style="stroke:#A80036;stroke-width:1.0;" x1="494.5" x2="625.5" y1="261.2578" y2="261.2578"/><text fill="#000000" font-family="sans-serif" font-size="13" lengthAdjust="spacing" textLength="51" x="501.5" y="256.1919">create()</text><polygon fill="#A80036" points="619.5,286.3906,629.5,290.3906,619.5,294.3906,623.5,290.3906" style="stroke:#A80036;stroke-width:1.0;"/><line style="stroke:#A80036;stroke-width:1.0;" x1="197.5" x2="625.5" y1="290.3906" y2="290.3906"/><text fill="#000000" font-family="sans-serif" font-size="13" lengthAdjust="spacing" textLength="49" x="204.5" y="285.3247">findAll()</text><polygon fill="#A80036" points="208.5,315.5234,198.5,319.5234,208.5,323.5234,204.5,319.5234" style="stroke:#A80036;stroke-width:1.0;"/><line style="stroke:#A80036;stroke-width:1.0;stroke-dasharray:2.0,2.0;" x1="202.5" x2="635.5" y1="319.5234" y2="319.5234"/><text fill="#000000" font-family="sans-serif" font-size="13" lengthAdjust="spacing" textLength="68" x="214.5" y="314.4575">allTeams()</text><polygon fill="#A80036" points="84,329.5234,74,333.5234,84,337.5234,80,333.5234" style="stroke:#A80036;stroke-width:1.0;"/><line style="stroke:#A80036;stroke-width:1.0;stroke-dasharray:2.0,2.0;" x1="78" x2="191.5" y1="333.5234" y2="333.5234"/><line style="stroke:#A80036;stroke-width:1.0;" x1="73" x2="115" y1="362.6563" y2="362.6563"/><line style="stroke:#A80036;stroke-width:1.0;" x1="115" x2="115" y1="362.6563" y2="375.6563"/><line style="stroke:#A80036;stroke-width:1.0;" x1="74" x2="115" y1="375.6563" y2="375.6563"/><polygon fill="#A80036" points="84,371.6563,74,375.6563,84,379.6563,80,375.6563" style="stroke:#A80036;stroke-width:1.0;"/><text fill="#000000" font-family="sans-serif" font-size="13" lengthAdjust="spacing" textLength="44" x="80" y="357.5903">show()</text><!--MD5=[be2cd3d2f6ea8601a301699cbdd4a1f6]
@startuml
participant UI as UI <<presentation>>
control Controller as Controller <<application>>
participant "PersistenceContext" as PersistenceContext <<Persistence>>
database RepositoryFactory as RepositoryFactory <<repository>>
database TeamRepository as RepositoryTeams <<repository>>

activate UI

UI->Controller : create()
activate Controller
UI -> Controller : listTeams()

Controller -> PersistenceContext: repositories()
activate PersistenceContext

PersistenceContext -> RepositoryFactory : create()
activate RepositoryFactory

deactivate PersistenceContext

RepositoryFactory -> RepositoryTeams : create()
deactivate RepositoryFactory

activate RepositoryTeams

Controller -> RepositoryTeams : findAll()

RepositoryTeams - -> Controller :allTeams()
deactivate RepositoryTeams

Controller- -> UI:
deactivate Controller

UI-> UI:show()
@enduml

PlantUML version 1.2021.6beta6(Unknown compile time)
(GPL source distribution)
Java Runtime: Java(TM) SE Runtime Environment
JVM: Java HotSpot(TM) 64-Bit Server VM
Default Encoding: UTF-8
Language: en
Country: US
--></g></svg>