<?xml version="1.0" encoding="UTF-8" standalone="no"?><svg xmlns="http://www.w3.org/2000/svg" xmlns:xlink="http://www.w3.org/1999/xlink" contentScriptType="application/ecmascript" contentStyleType="text/css" height="870px" preserveAspectRatio="none" style="width:394px;height:870px;" version="1.1" viewBox="0 0 394 870" width="394px" zoomAndPan="magnify"><defs><filter height="300%" id="f16z9qv6mro68a" width="300%" x="-1" y="-1"><feGaussianBlur result="blurOut" stdDeviation="2.0"/><feColorMatrix in="blurOut" result="blurOut2" type="matrix" values="0 0 0 0 0 0 0 0 0 0 0 0 0 0 0 0 0 0 .4 0"/><feOffset dx="4.0" dy="4.0" in="blurOut2" result="blurOut3"/><feBlend in="SourceGraphic" in2="blurOut3" mode="normal"/></filter></defs><g><!--MD5=[9681dc6e01e10c6b4fe06895ae94f592]
cluster UI--><polygon fill="#FFFFFF" filter="url(#f16z9qv6mro68a)" points="62,6,84,6,91,28.2969,310,28.2969,310,105,62,105,62,6" style="stroke:#000000;stroke-width:1.5;"/><line style="stroke:#000000;stroke-width:1.5;" x1="62" x2="91" y1="28.2969" y2="28.2969"/><text fill="#000000" font-family="sans-serif" font-size="14" font-weight="bold" lengthAdjust="spacing" textLength="16" x="66" y="20.9951">UI</text><!--MD5=[ed1d20ea533a2a0e7df5ba3c35e56ced]
cluster Controllers--><polygon fill="#FFFFFF" filter="url(#f16z9qv6mro68a)" points="38,138,134,138,141,160.2969,334,160.2969,334,314,38,314,38,138" style="stroke:#000000;stroke-width:1.5;"/><line style="stroke:#000000;stroke-width:1.5;" x1="38" x2="141" y1="160.2969" y2="160.2969"/><text fill="#000000" font-family="sans-serif" font-size="14" font-weight="bold" lengthAdjust="spacing" textLength="90" x="42" y="152.9951">Controllers</text><!--MD5=[121a8bf1197281ab89ed693fab589f94]
cluster Domain--><polygon fill="#FFFFFF" filter="url(#f16z9qv6mro68a)" points="16,347,83,347,90,369.2969,377,369.2969,377,863,16,863,16,347" style="stroke:#000000;stroke-width:1.5;"/><line style="stroke:#000000;stroke-width:1.5;" x1="16" x2="90" y1="369.2969" y2="369.2969"/><text fill="#000000" font-family="sans-serif" font-size="14" font-weight="bold" lengthAdjust="spacing" textLength="61" x="20" y="361.9951">Domain</text><!--MD5=[6388ca4378aa41265fc819bff7012e67]
class EditParkingLotCharacteristicsUI--><rect codeLine="18" fill="#FEFECE" filter="url(#f16z9qv6mro68a)" height="48" id="EditParkingLotCharacteristicsUI" style="stroke:#A80036;stroke-width:1.5;" width="216" x="78" y="41"/><ellipse cx="93" cy="57" fill="#ADD1B2" rx="11" ry="11" style="stroke:#A80036;stroke-width:1.0;"/><path d="M95.3438,52.6719 C94.4063,52.2344 93.8125,52.0938 92.9375,52.0938 C90.3125,52.0938 88.3125,54.1719 88.3125,56.8906 L88.3125,58.0156 C88.3125,60.5938 90.4219,62.4844 93.3125,62.4844 C94.5313,62.4844 95.6875,62.1875 96.4375,61.6406 C97.0156,61.2344 97.3438,60.7813 97.3438,60.3906 C97.3438,59.9375 96.9531,59.5469 96.4844,59.5469 C96.2656,59.5469 96.0625,59.625 95.875,59.8125 C95.4219,60.2969 95.4219,60.2969 95.2344,60.3906 C94.8125,60.6563 94.125,60.7813 93.3594,60.7813 C91.3125,60.7813 90.0156,59.6875 90.0156,57.9844 L90.0156,56.8906 C90.0156,55.1094 91.2656,53.7969 93,53.7969 C93.5781,53.7969 94.1875,53.9531 94.6563,54.2031 C95.1406,54.4844 95.3125,54.7031 95.4063,55.1094 C95.4688,55.5156 95.5,55.6406 95.6406,55.7656 C95.7813,55.9063 96.0156,56.0156 96.2344,56.0156 C96.5,56.0156 96.7656,55.875 96.9375,55.6563 C97.0469,55.5 97.0781,55.3125 97.0781,54.8906 L97.0781,53.4688 C97.0781,53.0313 97.0625,52.9063 96.9688,52.75 C96.8125,52.4844 96.5313,52.3438 96.2344,52.3438 C95.9375,52.3438 95.7344,52.4375 95.5156,52.75 L95.3438,52.6719 Z " fill="#000000"/><text fill="#000000" font-family="sans-serif" font-size="12" lengthAdjust="spacing" textLength="184" x="107" y="61.1543">EditParkingLotCharacteristicsUI</text><line style="stroke:#A80036;stroke-width:1.5;" x1="79" x2="293" y1="73" y2="73"/><line style="stroke:#A80036;stroke-width:1.5;" x1="79" x2="293" y1="81" y2="81"/><!--MD5=[21ceea9946c5f213b8d0aef5d498a518]
class EditParkingLotCharacteristicsController--><rect codeLine="21" fill="#FEFECE" filter="url(#f16z9qv6mro68a)" height="124.8281" id="EditParkingLotCharacteristicsController" style="stroke:#A80036;stroke-width:1.5;" width="263" x="54.5" y="173"/><ellipse cx="69.5" cy="189" fill="#ADD1B2" rx="11" ry="11" style="stroke:#A80036;stroke-width:1.0;"/><path d="M71.8438,184.6719 C70.9063,184.2344 70.3125,184.0938 69.4375,184.0938 C66.8125,184.0938 64.8125,186.1719 64.8125,188.8906 L64.8125,190.0156 C64.8125,192.5938 66.9219,194.4844 69.8125,194.4844 C71.0313,194.4844 72.1875,194.1875 72.9375,193.6406 C73.5156,193.2344 73.8438,192.7813 73.8438,192.3906 C73.8438,191.9375 73.4531,191.5469 72.9844,191.5469 C72.7656,191.5469 72.5625,191.625 72.375,191.8125 C71.9219,192.2969 71.9219,192.2969 71.7344,192.3906 C71.3125,192.6563 70.625,192.7813 69.8594,192.7813 C67.8125,192.7813 66.5156,191.6875 66.5156,189.9844 L66.5156,188.8906 C66.5156,187.1094 67.7656,185.7969 69.5,185.7969 C70.0781,185.7969 70.6875,185.9531 71.1563,186.2031 C71.6406,186.4844 71.8125,186.7031 71.9063,187.1094 C71.9688,187.5156 72,187.6406 72.1406,187.7656 C72.2813,187.9063 72.5156,188.0156 72.7344,188.0156 C73,188.0156 73.2656,187.875 73.4375,187.6563 C73.5469,187.5 73.5781,187.3125 73.5781,186.8906 L73.5781,185.4688 C73.5781,185.0313 73.5625,184.9063 73.4688,184.75 C73.3125,184.4844 73.0313,184.3438 72.7344,184.3438 C72.4375,184.3438 72.2344,184.4375 72.0156,184.75 L71.8438,184.6719 Z " fill="#000000"/><text fill="#000000" font-family="sans-serif" font-size="12" lengthAdjust="spacing" textLength="231" x="83.5" y="193.1543">EditParkingLotCharacteristicsController</text><line style="stroke:#A80036;stroke-width:1.5;" x1="55.5" x2="316.5" y1="205" y2="205"/><line style="stroke:#A80036;stroke-width:1.5;" x1="55.5" x2="316.5" y1="213" y2="213"/><text fill="#000000" font-family="sans-serif" font-size="11" lengthAdjust="spacing" textLength="110" x="60.5" y="227.2104">+getPharmacyList()</text><text fill="#000000" font-family="sans-serif" font-size="11" lengthAdjust="spacing" textLength="159" x="60.5" y="240.0151">+getPharmacy(pharmacyID)</text><text fill="#000000" font-family="sans-serif" font-size="11" lengthAdjust="spacing" textLength="112" x="60.5" y="252.8198">+getParkingLotList()</text><text fill="#000000" font-family="sans-serif" font-size="11" lengthAdjust="spacing" textLength="163" x="60.5" y="265.6245">+getParkingLot(parkingLotID)</text><text fill="#000000" font-family="sans-serif" font-size="11" lengthAdjust="spacing" textLength="152" x="60.5" y="278.4292">+setTotalSpots(totalSpots)</text><text fill="#000000" font-family="sans-serif" font-size="11" lengthAdjust="spacing" textLength="179" x="60.5" y="291.2339">+setChargeSpots(chargeSpots)</text><!--MD5=[99b8db98afdc2c8404e39242ef4c1e65]
class Platform--><rect codeLine="30" fill="#FEFECE" filter="url(#f16z9qv6mro68a)" height="60.8047" id="Platform" style="stroke:#A80036;stroke-width:1.5;" width="122" x="32" y="382"/><ellipse cx="65.9" cy="398" fill="#ADD1B2" rx="11" ry="11" style="stroke:#A80036;stroke-width:1.0;"/><path d="M68.2438,393.6719 C67.3063,393.2344 66.7125,393.0938 65.8375,393.0938 C63.2125,393.0938 61.2125,395.1719 61.2125,397.8906 L61.2125,399.0156 C61.2125,401.5938 63.3219,403.4844 66.2125,403.4844 C67.4313,403.4844 68.5875,403.1875 69.3375,402.6406 C69.9156,402.2344 70.2438,401.7813 70.2438,401.3906 C70.2438,400.9375 69.8531,400.5469 69.3844,400.5469 C69.1656,400.5469 68.9625,400.625 68.775,400.8125 C68.3219,401.2969 68.3219,401.2969 68.1344,401.3906 C67.7125,401.6563 67.025,401.7813 66.2594,401.7813 C64.2125,401.7813 62.9156,400.6875 62.9156,398.9844 L62.9156,397.8906 C62.9156,396.1094 64.1656,394.7969 65.9,394.7969 C66.4781,394.7969 67.0875,394.9531 67.5563,395.2031 C68.0406,395.4844 68.2125,395.7031 68.3063,396.1094 C68.3688,396.5156 68.4,396.6406 68.5406,396.7656 C68.6813,396.9063 68.9156,397.0156 69.1344,397.0156 C69.4,397.0156 69.6656,396.875 69.8375,396.6563 C69.9469,396.5 69.9781,396.3125 69.9781,395.8906 L69.9781,394.4688 C69.9781,394.0313 69.9625,393.9063 69.8688,393.75 C69.7125,393.4844 69.4313,393.3438 69.1344,393.3438 C68.8375,393.3438 68.6344,393.4375 68.4156,393.75 L68.2438,393.6719 Z " fill="#000000"/><text fill="#000000" font-family="sans-serif" font-size="12" lengthAdjust="spacing" textLength="48" x="84.1" y="402.1543">Platform</text><line style="stroke:#A80036;stroke-width:1.5;" x1="33" x2="153" y1="414" y2="414"/><line style="stroke:#A80036;stroke-width:1.5;" x1="33" x2="153" y1="422" y2="422"/><text fill="#000000" font-family="sans-serif" font-size="11" lengthAdjust="spacing" textLength="110" x="38" y="436.2104">+getPharmacyList()</text><!--MD5=[8050ef462d77cf220fd706493bc05cc9]
class PharmacyList--><rect codeLine="42" fill="#FEFECE" filter="url(#f16z9qv6mro68a)" height="60.8047" id="PharmacyList" style="stroke:#A80036;stroke-width:1.5;" width="171" x="189.5" y="382"/><ellipse cx="232.4" cy="398" fill="#ADD1B2" rx="11" ry="11" style="stroke:#A80036;stroke-width:1.0;"/><path d="M234.7438,393.6719 C233.8063,393.2344 233.2125,393.0938 232.3375,393.0938 C229.7125,393.0938 227.7125,395.1719 227.7125,397.8906 L227.7125,399.0156 C227.7125,401.5938 229.8219,403.4844 232.7125,403.4844 C233.9313,403.4844 235.0875,403.1875 235.8375,402.6406 C236.4156,402.2344 236.7438,401.7813 236.7438,401.3906 C236.7438,400.9375 236.3531,400.5469 235.8844,400.5469 C235.6656,400.5469 235.4625,400.625 235.275,400.8125 C234.8219,401.2969 234.8219,401.2969 234.6344,401.3906 C234.2125,401.6563 233.525,401.7813 232.7594,401.7813 C230.7125,401.7813 229.4156,400.6875 229.4156,398.9844 L229.4156,397.8906 C229.4156,396.1094 230.6656,394.7969 232.4,394.7969 C232.9781,394.7969 233.5875,394.9531 234.0563,395.2031 C234.5406,395.4844 234.7125,395.7031 234.8063,396.1094 C234.8688,396.5156 234.9,396.6406 235.0406,396.7656 C235.1813,396.9063 235.4156,397.0156 235.6344,397.0156 C235.9,397.0156 236.1656,396.875 236.3375,396.6563 C236.4469,396.5 236.4781,396.3125 236.4781,395.8906 L236.4781,394.4688 C236.4781,394.0313 236.4625,393.9063 236.3688,393.75 C236.2125,393.4844 235.9313,393.3438 235.6344,393.3438 C235.3375,393.3438 235.1344,393.4375 234.9156,393.75 L234.7438,393.6719 Z " fill="#000000"/><text fill="#000000" font-family="sans-serif" font-size="12" lengthAdjust="spacing" textLength="77" x="252.6" y="402.1543">PharmacyList</text><line style="stroke:#A80036;stroke-width:1.5;" x1="190.5" x2="359.5" y1="414" y2="414"/><line style="stroke:#A80036;stroke-width:1.5;" x1="190.5" x2="359.5" y1="422" y2="422"/><text fill="#000000" font-family="sans-serif" font-size="11" lengthAdjust="spacing" textLength="159" x="195.5" y="436.2104">+getPharmacy(pharmacyID)</text><!--MD5=[7f2a9fafcebe4f099f71398fd3e2ed00]
class Pharmacy--><rect codeLine="34" fill="#FEFECE" filter="url(#f16z9qv6mro68a)" height="112.0234" id="Pharmacy" style="stroke:#A80036;stroke-width:1.5;" width="124" x="209" y="520"/><ellipse cx="239.75" cy="536" fill="#ADD1B2" rx="11" ry="11" style="stroke:#A80036;stroke-width:1.0;"/><path d="M242.0938,531.6719 C241.1563,531.2344 240.5625,531.0938 239.6875,531.0938 C237.0625,531.0938 235.0625,533.1719 235.0625,535.8906 L235.0625,537.0156 C235.0625,539.5938 237.1719,541.4844 240.0625,541.4844 C241.2813,541.4844 242.4375,541.1875 243.1875,540.6406 C243.7656,540.2344 244.0938,539.7813 244.0938,539.3906 C244.0938,538.9375 243.7031,538.5469 243.2344,538.5469 C243.0156,538.5469 242.8125,538.625 242.625,538.8125 C242.1719,539.2969 242.1719,539.2969 241.9844,539.3906 C241.5625,539.6563 240.875,539.7813 240.1094,539.7813 C238.0625,539.7813 236.7656,538.6875 236.7656,536.9844 L236.7656,535.8906 C236.7656,534.1094 238.0156,532.7969 239.75,532.7969 C240.3281,532.7969 240.9375,532.9531 241.4063,533.2031 C241.8906,533.4844 242.0625,533.7031 242.1563,534.1094 C242.2188,534.5156 242.25,534.6406 242.3906,534.7656 C242.5313,534.9063 242.7656,535.0156 242.9844,535.0156 C243.25,535.0156 243.5156,534.875 243.6875,534.6563 C243.7969,534.5 243.8281,534.3125 243.8281,533.8906 L243.8281,532.4688 C243.8281,532.0313 243.8125,531.9063 243.7188,531.75 C243.5625,531.4844 243.2813,531.3438 242.9844,531.3438 C242.6875,531.3438 242.4844,531.4375 242.2656,531.75 L242.0938,531.6719 Z " fill="#000000"/><text fill="#000000" font-family="sans-serif" font-size="12" lengthAdjust="spacing" textLength="57" x="257.25" y="540.1543">Pharmacy</text><line style="stroke:#A80036;stroke-width:1.5;" x1="210" x2="332" y1="552" y2="552"/><text fill="#000000" font-family="sans-serif" font-size="11" lengthAdjust="spacing" textLength="51" x="215" y="566.2104">-String id</text><text fill="#000000" font-family="sans-serif" font-size="11" lengthAdjust="spacing" textLength="107" x="215" y="579.0151">-String designation</text><text fill="#000000" font-family="sans-serif" font-size="11" lengthAdjust="spacing" textLength="73" x="215" y="591.8198">-String email</text><text fill="#000000" font-family="sans-serif" font-size="11" lengthAdjust="spacing" textLength="85" x="215" y="604.6245">-Adress adress</text><line style="stroke:#A80036;stroke-width:1.5;" x1="210" x2="332" y1="611.2188" y2="611.2188"/><text fill="#000000" font-family="sans-serif" font-size="11" lengthAdjust="spacing" textLength="112" x="215" y="625.4292">+getParkingLotList()</text><!--MD5=[8836a49f4083a7550430b1f83332c96a]
class ParkingLot--><rect codeLine="46" fill="#FEFECE" filter="url(#f16z9qv6mro68a)" height="137.6328" id="ParkingLot" style="stroke:#A80036;stroke-width:1.5;" width="186" x="175" y="709"/><ellipse cx="233.25" cy="725" fill="#ADD1B2" rx="11" ry="11" style="stroke:#A80036;stroke-width:1.0;"/><path d="M235.5938,720.6719 C234.6563,720.2344 234.0625,720.0938 233.1875,720.0938 C230.5625,720.0938 228.5625,722.1719 228.5625,724.8906 L228.5625,726.0156 C228.5625,728.5938 230.6719,730.4844 233.5625,730.4844 C234.7813,730.4844 235.9375,730.1875 236.6875,729.6406 C237.2656,729.2344 237.5938,728.7813 237.5938,728.3906 C237.5938,727.9375 237.2031,727.5469 236.7344,727.5469 C236.5156,727.5469 236.3125,727.625 236.125,727.8125 C235.6719,728.2969 235.6719,728.2969 235.4844,728.3906 C235.0625,728.6563 234.375,728.7813 233.6094,728.7813 C231.5625,728.7813 230.2656,727.6875 230.2656,725.9844 L230.2656,724.8906 C230.2656,723.1094 231.5156,721.7969 233.25,721.7969 C233.8281,721.7969 234.4375,721.9531 234.9063,722.2031 C235.3906,722.4844 235.5625,722.7031 235.6563,723.1094 C235.7188,723.5156 235.75,723.6406 235.8906,723.7656 C236.0313,723.9063 236.2656,724.0156 236.4844,724.0156 C236.75,724.0156 237.0156,723.875 237.1875,723.6563 C237.2969,723.5 237.3281,723.3125 237.3281,722.8906 L237.3281,721.4688 C237.3281,721.0313 237.3125,720.9063 237.2188,720.75 C237.0625,720.4844 236.7813,720.3438 236.4844,720.3438 C236.1875,720.3438 235.9844,720.4375 235.7656,720.75 L235.5938,720.6719 Z " fill="#000000"/><text fill="#000000" font-family="sans-serif" font-size="12" lengthAdjust="spacing" textLength="61" x="253.75" y="729.1543">ParkingLot</text><line style="stroke:#A80036;stroke-width:1.5;" x1="176" x2="360" y1="741" y2="741"/><text fill="#000000" font-family="sans-serif" font-size="11" lengthAdjust="spacing" textLength="51" x="181" y="755.2104">-String id</text><text fill="#000000" font-family="sans-serif" font-size="11" lengthAdjust="spacing" textLength="106" x="181" y="768.0151">-Integer totalSpots</text><text fill="#000000" font-family="sans-serif" font-size="11" lengthAdjust="spacing" textLength="120" x="181" y="780.8198">-Integer chargeSpots</text><text fill="#000000" font-family="sans-serif" font-size="11" lengthAdjust="spacing" textLength="67" x="181" y="793.6245">-String type</text><line style="stroke:#A80036;stroke-width:1.5;" x1="176" x2="360" y1="800.2188" y2="800.2188"/><text fill="#000000" font-family="sans-serif" font-size="11" lengthAdjust="spacing" textLength="147" x="181" y="814.4292">-setTotalSpots(totalSpots)</text><text fill="#000000" font-family="sans-serif" font-size="11" lengthAdjust="spacing" textLength="174" x="181" y="827.2339">-setChargeSpots(chargeSpots)</text><text fill="#000000" font-family="sans-serif" font-size="11" lengthAdjust="spacing" textLength="60" x="181" y="840.0386">-getType()</text><!--MD5=[65b9a747693bce554e5cdf08500f2199]
link EditParkingLotCharacteristicsUI to EditParkingLotCharacteristicsController--><path codeLine="56" d="M186,89.076 C186,109.355 186,139.895 186,167.76 " fill="none" id="EditParkingLotCharacteristicsUI-to-EditParkingLotCharacteristicsController" style="stroke:#A80036;stroke-width:1.0;stroke-dasharray:7.0,7.0;"/><polygon fill="#A80036" points="186,172.929,190,163.929,186,167.929,182,163.929,186,172.929" style="stroke:#A80036;stroke-width:1.0;"/><!--MD5=[98c097fd472139e8dd9efd53d8b406dc]
link EditParkingLotCharacteristicsController to Platform--><path codeLine="58" d="M153.212,298.198 C139.151,324.657 123.253,354.573 111.325,377.018 " fill="none" id="EditParkingLotCharacteristicsController-to-Platform" style="stroke:#A80036;stroke-width:1.0;stroke-dasharray:7.0,7.0;"/><polygon fill="#A80036" points="108.842,381.69,116.5982,375.6204,111.1888,377.275,109.5342,371.8655,108.842,381.69" style="stroke:#A80036;stroke-width:1.0;"/><!--MD5=[b742c9e16c3b073ef8b8012c1e9463c0]
link EditParkingLotCharacteristicsController to PharmacyList--><path codeLine="59" d="M217.378,298.198 C230.834,324.657 246.048,354.573 257.463,377.018 " fill="none" id="EditParkingLotCharacteristicsController-to-PharmacyList" style="stroke:#A80036;stroke-width:1.0;stroke-dasharray:7.0,7.0;"/><polygon fill="#A80036" points="259.839,381.69,259.3264,371.8545,257.5733,377.2328,252.1949,375.4797,259.839,381.69" style="stroke:#A80036;stroke-width:1.0;"/><!--MD5=[dcb9e7f24fda9389b72d4bf35ba5a068]
link PharmacyList to Pharmacy--><path codeLine="61" d="M274.266,443.122 C273.736,464.521 273.005,494.059 272.368,519.756 " fill="none" id="PharmacyList-Pharmacy" style="stroke:#A80036;stroke-width:1.0;"/><text fill="#000000" font-family="sans-serif" font-size="13" lengthAdjust="spacing" textLength="33" x="274" y="486.0669">has&gt;</text><text fill="#000000" font-family="sans-serif" font-size="13" lengthAdjust="spacing" textLength="8" x="265.2896" y="463.0854">1</text><text fill="#000000" font-family="sans-serif" font-size="13" lengthAdjust="spacing" textLength="23" x="248.1332" y="509.0608">1..*</text><!--MD5=[54781ac671cb1a8ee43ddd26f3addf70]
link Pharmacy to ParkingLot--><path codeLine="62" d="M270.172,632.18 C269.817,655.883 269.398,683.821 269.023,708.804 " fill="none" id="Pharmacy-ParkingLot" style="stroke:#A80036;stroke-width:1.0;"/><text fill="#000000" font-family="sans-serif" font-size="13" lengthAdjust="spacing" textLength="33" x="270" y="675.0669">has&gt;</text><text fill="#000000" font-family="sans-serif" font-size="13" lengthAdjust="spacing" textLength="8" x="261.5836" y="652.0146">1</text><text fill="#000000" font-family="sans-serif" font-size="13" lengthAdjust="spacing" textLength="23" x="244.9426" y="697.9874">1..*</text><!--MD5=[ddce56dcf24fc9effaed774b14e7d865]
@startuml
skinparam classAttributeIconSize 0

package UI <<Folder>> {
  class EditParkingLotCharacteristicsUI
}

package Controllers <<Folder>> {
  class EditParkingLotCharacteristicsController
}

package Domain <<Folder>> {
  class Platform
  class PharmacyList
  class Pharmacy
  class ParkingLot
}

class EditParkingLotCharacteristicsUI {
}

class EditParkingLotCharacteristicsController {
  +getPharmacyList()
  +getPharmacy(pharmacyID)
  +getParkingLotList()
  +getParkingLot(parkingLotID)
  +setTotalSpots(totalSpots)
  +setChargeSpots(chargeSpots)
}

class Platform {
  +getPharmacyList()
}

class Pharmacy {
  -String id
  -String designation
  -String email
  -Adress adress
  +getParkingLotList()
}

class PharmacyList{
  +getPharmacy(pharmacyID)
}

class ParkingLot{
  -String id
  -Integer totalSpots
  -Integer chargeSpots
  -String type
  -setTotalSpots(totalSpots)
  -setChargeSpots(chargeSpots)
  -getType()
}

EditParkingLotCharacteristicsUI ..> EditParkingLotCharacteristicsController

EditParkingLotCharacteristicsController ..> Platform
EditParkingLotCharacteristicsController ..> PharmacyList

PharmacyList"1" - - "1..*" Pharmacy : has>
Pharmacy"1" - - "1..*" ParkingLot : has>
@enduml

PlantUML version 1.2020.27beta8(Unknown compile time)
(GPL source distribution)
Java Runtime: Java(TM) SE Runtime Environment
JVM: Java HotSpot(TM) 64-Bit Server VM
Default Encoding: UTF-8
Language: en
Country: US
--></g></svg>