<?xml version="1.0" encoding="UTF-8" standalone="no"?><svg xmlns="http://www.w3.org/2000/svg" xmlns:xlink="http://www.w3.org/1999/xlink" contentScriptType="application/ecmascript" contentStyleType="text/css" height="228px" preserveAspectRatio="none" style="width:603px;height:228px;" version="1.1" viewBox="0 0 603 228" width="603px" zoomAndPan="magnify"><defs><filter height="300%" id="f3bhckuqvvcd2" width="300%" x="-1" y="-1"><feGaussianBlur result="blurOut" stdDeviation="2.0"/><feColorMatrix in="blurOut" result="blurOut2" type="matrix" values="0 0 0 0 0 0 0 0 0 0 0 0 0 0 0 0 0 0 .4 0"/><feOffset dx="4.0" dy="4.0" in="blurOut2" result="blurOut3"/><feBlend in="SourceGraphic" in2="blurOut3" mode="normal"/></filter></defs><g><!--MD5=[99b8db98afdc2c8404e39242ef4c1e65]
class Platform--><rect codeLine="3" fill="#FEFECE" filter="url(#f3bhckuqvvcd2)" height="48" id="Platform" style="stroke:#A80036;stroke-width:1.5;" width="80" x="7" y="71"/><ellipse cx="22" cy="87" fill="#ADD1B2" rx="11" ry="11" style="stroke:#A80036;stroke-width:1.0;"/><path d="M24.3438,82.6719 C23.4063,82.2344 22.8125,82.0938 21.9375,82.0938 C19.3125,82.0938 17.3125,84.1719 17.3125,86.8906 L17.3125,88.0156 C17.3125,90.5938 19.4219,92.4844 22.3125,92.4844 C23.5313,92.4844 24.6875,92.1875 25.4375,91.6406 C26.0156,91.2344 26.3438,90.7813 26.3438,90.3906 C26.3438,89.9375 25.9531,89.5469 25.4844,89.5469 C25.2656,89.5469 25.0625,89.625 24.875,89.8125 C24.4219,90.2969 24.4219,90.2969 24.2344,90.3906 C23.8125,90.6563 23.125,90.7813 22.3594,90.7813 C20.3125,90.7813 19.0156,89.6875 19.0156,87.9844 L19.0156,86.8906 C19.0156,85.1094 20.2656,83.7969 22,83.7969 C22.5781,83.7969 23.1875,83.9531 23.6563,84.2031 C24.1406,84.4844 24.3125,84.7031 24.4063,85.1094 C24.4688,85.5156 24.5,85.6406 24.6406,85.7656 C24.7813,85.9063 25.0156,86.0156 25.2344,86.0156 C25.5,86.0156 25.7656,85.875 25.9375,85.6563 C26.0469,85.5 26.0781,85.3125 26.0781,84.8906 L26.0781,83.4688 C26.0781,83.0313 26.0625,82.9063 25.9688,82.75 C25.8125,82.4844 25.5313,82.3438 25.2344,82.3438 C24.9375,82.3438 24.7344,82.4375 24.5156,82.75 L24.3438,82.6719 Z " fill="#000000"/><text fill="#000000" font-family="sans-serif" font-size="12" lengthAdjust="spacing" textLength="48" x="36" y="91.1543">Platform</text><line style="stroke:#A80036;stroke-width:1.5;" x1="8" x2="86" y1="103" y2="103"/><line style="stroke:#A80036;stroke-width:1.5;" x1="8" x2="86" y1="111" y2="111"/><!--MD5=[da547346deef918ea16944ba046651ef]
class Administrator--><rect codeLine="6" fill="#FEFECE" filter="url(#f3bhckuqvvcd2)" height="86.4141" id="Administrator" style="stroke:#A80036;stroke-width:1.5;" width="116" x="222.5" y="7"/><ellipse cx="239.3" cy="23" fill="#ADD1B2" rx="11" ry="11" style="stroke:#A80036;stroke-width:1.0;"/><path d="M241.6438,18.6719 C240.7063,18.2344 240.1125,18.0938 239.2375,18.0938 C236.6125,18.0938 234.6125,20.1719 234.6125,22.8906 L234.6125,24.0156 C234.6125,26.5938 236.7219,28.4844 239.6125,28.4844 C240.8313,28.4844 241.9875,28.1875 242.7375,27.6406 C243.3156,27.2344 243.6438,26.7813 243.6438,26.3906 C243.6438,25.9375 243.2531,25.5469 242.7844,25.5469 C242.5656,25.5469 242.3625,25.625 242.175,25.8125 C241.7219,26.2969 241.7219,26.2969 241.5344,26.3906 C241.1125,26.6563 240.425,26.7813 239.6594,26.7813 C237.6125,26.7813 236.3156,25.6875 236.3156,23.9844 L236.3156,22.8906 C236.3156,21.1094 237.5656,19.7969 239.3,19.7969 C239.8781,19.7969 240.4875,19.9531 240.9563,20.2031 C241.4406,20.4844 241.6125,20.7031 241.7063,21.1094 C241.7688,21.5156 241.8,21.6406 241.9406,21.7656 C242.0813,21.9063 242.3156,22.0156 242.5344,22.0156 C242.8,22.0156 243.0656,21.875 243.2375,21.6563 C243.3469,21.5 243.3781,21.3125 243.3781,20.8906 L243.3781,19.4688 C243.3781,19.0313 243.3625,18.9063 243.2688,18.75 C243.1125,18.4844 242.8313,18.3438 242.5344,18.3438 C242.2375,18.3438 242.0344,18.4375 241.8156,18.75 L241.6438,18.6719 Z " fill="#000000"/><text fill="#000000" font-family="sans-serif" font-size="12" lengthAdjust="spacing" textLength="80" x="253.7" y="27.1543">Administrator</text><line style="stroke:#A80036;stroke-width:1.5;" x1="223.5" x2="337.5" y1="39" y2="39"/><rect fill="none" height="6" style="stroke:#C82930;stroke-width:1.0;" width="6" x="230.5" y="47"/><text fill="#000000" font-family="sans-serif" font-size="11" lengthAdjust="spacing" textLength="47" x="242.5" y="53.2104">String id</text><rect fill="none" height="6" style="stroke:#C82930;stroke-width:1.0;" width="6" x="230.5" y="59.8047"/><text fill="#000000" font-family="sans-serif" font-size="11" lengthAdjust="spacing" textLength="70" x="242.5" y="66.0151">String name</text><rect fill="none" height="6" style="stroke:#C82930;stroke-width:1.0;" width="6" x="230.5" y="72.6094"/><text fill="#000000" font-family="sans-serif" font-size="11" lengthAdjust="spacing" textLength="90" x="242.5" y="78.8198">String password</text><line style="stroke:#A80036;stroke-width:1.5;" x1="223.5" x2="337.5" y1="85.4141" y2="85.4141"/><!--MD5=[7f2a9fafcebe4f099f71398fd3e2ed00]
class Pharmacy--><rect codeLine="12" fill="#FEFECE" filter="url(#f3bhckuqvvcd2)" height="86.4141" id="Pharmacy" style="stroke:#A80036;stroke-width:1.5;" width="129" x="216" y="128"/><ellipse cx="249" cy="144" fill="#ADD1B2" rx="11" ry="11" style="stroke:#A80036;stroke-width:1.0;"/><path d="M251.3438,139.6719 C250.4063,139.2344 249.8125,139.0938 248.9375,139.0938 C246.3125,139.0938 244.3125,141.1719 244.3125,143.8906 L244.3125,145.0156 C244.3125,147.5938 246.4219,149.4844 249.3125,149.4844 C250.5313,149.4844 251.6875,149.1875 252.4375,148.6406 C253.0156,148.2344 253.3438,147.7813 253.3438,147.3906 C253.3438,146.9375 252.9531,146.5469 252.4844,146.5469 C252.2656,146.5469 252.0625,146.625 251.875,146.8125 C251.4219,147.2969 251.4219,147.2969 251.2344,147.3906 C250.8125,147.6563 250.125,147.7813 249.3594,147.7813 C247.3125,147.7813 246.0156,146.6875 246.0156,144.9844 L246.0156,143.8906 C246.0156,142.1094 247.2656,140.7969 249,140.7969 C249.5781,140.7969 250.1875,140.9531 250.6563,141.2031 C251.1406,141.4844 251.3125,141.7031 251.4063,142.1094 C251.4688,142.5156 251.5,142.6406 251.6406,142.7656 C251.7813,142.9063 252.0156,143.0156 252.2344,143.0156 C252.5,143.0156 252.7656,142.875 252.9375,142.6563 C253.0469,142.5 253.0781,142.3125 253.0781,141.8906 L253.0781,140.4688 C253.0781,140.0313 253.0625,139.9063 252.9688,139.75 C252.8125,139.4844 252.5313,139.3438 252.2344,139.3438 C251.9375,139.3438 251.7344,139.4375 251.5156,139.75 L251.3438,139.6719 Z " fill="#000000"/><text fill="#000000" font-family="sans-serif" font-size="12" lengthAdjust="spacing" textLength="57" x="267" y="148.1543">Pharmacy</text><line style="stroke:#A80036;stroke-width:1.5;" x1="217" x2="344" y1="160" y2="160"/><rect fill="none" height="6" style="stroke:#C82930;stroke-width:1.0;" width="6" x="224" y="168"/><text fill="#000000" font-family="sans-serif" font-size="11" lengthAdjust="spacing" textLength="47" x="236" y="174.2104">String id</text><rect fill="none" height="6" style="stroke:#C82930;stroke-width:1.0;" width="6" x="224" y="180.8047"/><text fill="#000000" font-family="sans-serif" font-size="11" lengthAdjust="spacing" textLength="103" x="236" y="187.0151">String designation</text><rect fill="none" height="6" style="stroke:#C82930;stroke-width:1.0;" width="6" x="224" y="193.6094"/><text fill="#000000" font-family="sans-serif" font-size="11" lengthAdjust="spacing" textLength="69" x="236" y="199.8198">String email</text><line style="stroke:#A80036;stroke-width:1.5;" x1="217" x2="344" y1="206.4141" y2="206.4141"/><!--MD5=[8836a49f4083a7550430b1f83332c96a]
class ParkingLot--><rect codeLine="19" fill="#FEFECE" filter="url(#f3bhckuqvvcd2)" height="86.4141" id="ParkingLot" style="stroke:#A80036;stroke-width:1.5;" width="115" x="474" y="128"/><ellipse cx="498.9" cy="144" fill="#ADD1B2" rx="11" ry="11" style="stroke:#A80036;stroke-width:1.0;"/><path d="M501.2438,139.6719 C500.3063,139.2344 499.7125,139.0938 498.8375,139.0938 C496.2125,139.0938 494.2125,141.1719 494.2125,143.8906 L494.2125,145.0156 C494.2125,147.5938 496.3219,149.4844 499.2125,149.4844 C500.4313,149.4844 501.5875,149.1875 502.3375,148.6406 C502.9156,148.2344 503.2438,147.7813 503.2438,147.3906 C503.2438,146.9375 502.8531,146.5469 502.3844,146.5469 C502.1656,146.5469 501.9625,146.625 501.775,146.8125 C501.3219,147.2969 501.3219,147.2969 501.1344,147.3906 C500.7125,147.6563 500.025,147.7813 499.2594,147.7813 C497.2125,147.7813 495.9156,146.6875 495.9156,144.9844 L495.9156,143.8906 C495.9156,142.1094 497.1656,140.7969 498.9,140.7969 C499.4781,140.7969 500.0875,140.9531 500.5563,141.2031 C501.0406,141.4844 501.2125,141.7031 501.3063,142.1094 C501.3688,142.5156 501.4,142.6406 501.5406,142.7656 C501.6813,142.9063 501.9156,143.0156 502.1344,143.0156 C502.4,143.0156 502.6656,142.875 502.8375,142.6563 C502.9469,142.5 502.9781,142.3125 502.9781,141.8906 L502.9781,140.4688 C502.9781,140.0313 502.9625,139.9063 502.8688,139.75 C502.7125,139.4844 502.4313,139.3438 502.1344,139.3438 C501.8375,139.3438 501.6344,139.4375 501.4156,139.75 L501.2438,139.6719 Z " fill="#000000"/><text fill="#000000" font-family="sans-serif" font-size="12" lengthAdjust="spacing" textLength="61" x="515.1" y="148.1543">ParkingLot</text><line style="stroke:#A80036;stroke-width:1.5;" x1="475" x2="588" y1="160" y2="160"/><rect fill="none" height="6" style="stroke:#C82930;stroke-width:1.0;" width="6" x="482" y="168"/><text fill="#000000" font-family="sans-serif" font-size="11" lengthAdjust="spacing" textLength="47" x="494" y="174.2104">String id</text><rect fill="none" height="6" style="stroke:#C82930;stroke-width:1.0;" width="6" x="482" y="180.8047"/><text fill="#000000" font-family="sans-serif" font-size="11" lengthAdjust="spacing" textLength="75" x="494" y="187.0151">int totalSpots</text><rect fill="none" height="6" style="stroke:#C82930;stroke-width:1.0;" width="6" x="482" y="193.6094"/><text fill="#000000" font-family="sans-serif" font-size="11" lengthAdjust="spacing" textLength="89" x="494" y="199.8198">int chargeSpots</text><line style="stroke:#A80036;stroke-width:1.5;" x1="475" x2="588" y1="206.4141" y2="206.4141"/><!--MD5=[4a07f137c208f82f57837154e1cfa51e]
link Platform to Pharmacy--><path codeLine="25" d="M87.009,107.806 C122.188,119.3553 174.578,136.5547 215.823,150.0954 " fill="none" id="Platform-Pharmacy" style="stroke:#A80036;stroke-width:1.0;"/><polygon fill="#000000" points="126.7505,113.126,119.0734,107.5124,117.24,113.097,126.7505,113.126" style="stroke:#000000;stroke-width:1.0;"/><text fill="#000000" font-family="sans-serif" font-size="13" lengthAdjust="spacing" textLength="54" x="131" y="116.0669">contains</text><text fill="#000000" font-family="sans-serif" font-size="13" lengthAdjust="spacing" textLength="8" x="95.1232" y="123.6291">1</text><text fill="#000000" font-family="sans-serif" font-size="13" lengthAdjust="spacing" textLength="7" x="200.94" y="160.5961">*</text><!--MD5=[0f7004bed4496639b3a5258ab2ead378]
link Platform to Administrator--><path codeLine="26" d="M87.009,87.417 C123.992,80.228 179.996,69.342 222.077,61.162 " fill="none" id="Platform-Administrator" style="stroke:#A80036;stroke-width:1.0;"/><polygon fill="#000000" points="126.9081,59.6123,117.4685,58.4533,118.59,64.2232,126.9081,59.6123" style="stroke:#000000;stroke-width:1.0;"/><text fill="#000000" font-family="sans-serif" font-size="13" lengthAdjust="spacing" textLength="54" x="131" y="65.0669">contains</text><text fill="#000000" font-family="sans-serif" font-size="13" lengthAdjust="spacing" textLength="8" x="95.1232" y="99.4808">1</text><text fill="#000000" font-family="sans-serif" font-size="13" lengthAdjust="spacing" textLength="7" x="207.5301" y="75.4862">*</text><!--MD5=[54781ac671cb1a8ee43ddd26f3addf70]
link Pharmacy to ParkingLot--><path codeLine="28" d="M345.3,171 C384.926,171 435.412,171 473.662,171 " fill="none" id="Pharmacy-ParkingLot" style="stroke:#A80036;stroke-width:1.0;"/><polygon fill="#000000" points="385,162.5664,375.9549,159.6275,375.9549,165.5053,385,162.5664" style="stroke:#000000;stroke-width:1.0;"/><text fill="#000000" font-family="sans-serif" font-size="13" lengthAdjust="spacing" textLength="54" x="389" y="167.0669">contains</text><text fill="#000000" font-family="sans-serif" font-size="13" lengthAdjust="spacing" textLength="8" x="352.825" y="183.8718">1</text><text fill="#000000" font-family="sans-serif" font-size="13" lengthAdjust="spacing" textLength="23" x="443.0782" y="183.8718">1..*</text><!--MD5=[d78f8b4c2529d4c4c4d2136bdc485615]
@startuml
left to right direction

class Platform{
}

class Administrator{
  -String id
  -String name
  -String password
}

class Pharmacy {
  -String id
  -String designation
  -String email
}


class ParkingLot {
  -String id
  -int totalSpots
  -int chargeSpots
}

Platform"1" - - "*"Pharmacy : contains >
Platform"1" - - "*"Administrator : contains >

Pharmacy"1" - - "1..*" ParkingLot : contains >
@enduml

PlantUML version 1.2020.27beta8(Unknown compile time)
(GPL source distribution)
Java Runtime: Java(TM) SE Runtime Environment
JVM: Java HotSpot(TM) 64-Bit Server VM
Default Encoding: UTF-8
Language: en
Country: US
--></g></svg>