<?xml version="1.0" encoding="UTF-8" standalone="no"?><svg xmlns="http://www.w3.org/2000/svg" xmlns:xlink="http://www.w3.org/1999/xlink" contentScriptType="application/ecmascript" contentStyleType="text/css" height="985px" preserveAspectRatio="none" style="width:1411px;height:985px;" version="1.1" viewBox="0 0 1411 985" width="1411px" zoomAndPan="magnify"><defs><filter height="300%" id="f1yz6wqfks405" width="300%" x="-1" y="-1"><feGaussianBlur result="blurOut" stdDeviation="2.0"/><feColorMatrix in="blurOut" result="blurOut2" type="matrix" values="0 0 0 0 0 0 0 0 0 0 0 0 0 0 0 0 0 0 .4 0"/><feOffset dx="4.0" dy="4.0" in="blurOut2" result="blurOut3"/><feBlend in="SourceGraphic" in2="blurOut3" mode="normal"/></filter></defs><g><rect fill="#FFFFFF" filter="url(#f1yz6wqfks405)" height="793.8594" style="stroke:#A80036;stroke-width:1.0;" width="10" x="53" y="98.2969"/><rect fill="#FFFFFF" filter="url(#f1yz6wqfks405)" height="117.3984" style="stroke:#A80036;stroke-width:1.0;" width="10" x="511" y="119.4297"/><rect fill="#FFFFFF" filter="url(#f1yz6wqfks405)" height="145.6641" style="stroke:#A80036;stroke-width:1.0;" width="10" x="511" y="265.9609"/><rect fill="#FFFFFF" filter="url(#f1yz6wqfks405)" height="103.3984" style="stroke:#A80036;stroke-width:1.0;" width="10" x="511" y="440.7578"/><rect fill="#FFFFFF" filter="url(#f1yz6wqfks405)" height="29.1328" style="stroke:#A80036;stroke-width:1.0;" width="10" x="511" y="573.2891"/><rect fill="#FFFFFF" filter="url(#f1yz6wqfks405)" height="251.6016" style="stroke:#A80036;stroke-width:1.0;" width="10" x="511" y="631.5547"/><rect fill="#FFFFFF" filter="url(#f1yz6wqfks405)" height="59.1328" style="stroke:#A80036;stroke-width:1.0;" width="10" x="802" y="148.5625"/><rect fill="#FFFFFF" filter="url(#f1yz6wqfks405)" height="29.1328" style="stroke:#A80036;stroke-width:1.0;" width="10" x="802" y="295.0938"/><rect fill="#FFFFFF" filter="url(#f1yz6wqfks405)" height="29.1328" style="stroke:#A80036;stroke-width:1.0;" width="10" x="802" y="353.3594"/><rect fill="#FFFFFF" filter="url(#f1yz6wqfks405)" height="30" style="stroke:#A80036;stroke-width:1.0;" width="10" x="802" y="469.8906"/><rect fill="#FFFFFF" filter="url(#f1yz6wqfks405)" height="59.1328" style="stroke:#A80036;stroke-width:1.0;" width="10" x="802" y="684.8203"/><rect fill="#FFFFFF" filter="url(#f1yz6wqfks405)" height="74.1328" style="stroke:#A80036;stroke-width:1.0;" width="10" x="802" y="787.8906"/><rect fill="#FFFFFF" filter="url(#f1yz6wqfks405)" height="30" style="stroke:#A80036;stroke-width:1.0;" width="10" x="1010.5" y="177.6953"/><rect fill="#FFFFFF" filter="url(#f1yz6wqfks405)" height="30" style="stroke:#A80036;stroke-width:1.0;" width="10" x="1114" y="713.9531"/><rect fill="#FFFFFF" filter="url(#f1yz6wqfks405)" height="30" style="stroke:#A80036;stroke-width:1.0;" width="10" x="1114" y="817.0234"/><rect fill="#FFFFFF" filter="url(#f1yz6wqfks405)" height="29.1328" style="stroke:#A80036;stroke-width:1.0;" width="10" x="1234" y="295.0938"/><rect fill="#FFFFFF" filter="url(#f1yz6wqfks405)" height="29.1328" style="stroke:#A80036;stroke-width:1.0;" width="10" x="1350" y="353.3594"/><rect fill="#FFFFFF" filter="url(#f1yz6wqfks405)" height="208.4688" style="stroke:#000000;stroke-width:2.0;" width="799" x="380.5" y="646.5547"/><rect fill="#FFFFFF" height="103.0703" style="stroke:none;stroke-width:1.0;" width="799" x="380.5" y="751.9531"/><line style="stroke:#A80036;stroke-width:1.0;stroke-dasharray:5.0,5.0;" x1="58" x2="58" y1="88.2969" y2="901.1563"/><line style="stroke:#A80036;stroke-width:1.0;stroke-dasharray:5.0,5.0;" x1="515.5" x2="515.5" y1="88.2969" y2="901.1563"/><line style="stroke:#A80036;stroke-width:1.0;stroke-dasharray:5.0,5.0;" x1="806.5" x2="806.5" y1="88.2969" y2="901.1563"/><line style="stroke:#A80036;stroke-width:1.0;stroke-dasharray:5.0,5.0;" x1="1015.5" x2="1015.5" y1="88.2969" y2="901.1563"/><line style="stroke:#A80036;stroke-width:1.0;stroke-dasharray:5.0,5.0;" x1="1118.5" x2="1118.5" y1="88.2969" y2="901.1563"/><line style="stroke:#A80036;stroke-width:1.0;stroke-dasharray:5.0,5.0;" x1="1238.5" x2="1238.5" y1="88.2969" y2="901.1563"/><line style="stroke:#A80036;stroke-width:1.0;stroke-dasharray:5.0,5.0;" x1="1354.5" x2="1354.5" y1="88.2969" y2="901.1563"/><text fill="#000000" font-family="sans-serif" font-size="14" lengthAdjust="spacing" textLength="100" x="5" y="84.9951">Administrator</text><ellipse cx="58" cy="15" fill="#FEFECE" filter="url(#f1yz6wqfks405)" rx="8" ry="8" style="stroke:#A80036;stroke-width:2.0;"/><path d="M58,23 L58,50 M45,31 L71,31 M58,50 L45,65 M58,50 L71,65 " fill="none" filter="url(#f1yz6wqfks405)" style="stroke:#A80036;stroke-width:2.0;"/><text fill="#000000" font-family="sans-serif" font-size="14" lengthAdjust="spacing" textLength="100" x="5" y="913.1514">Administrator</text><ellipse cx="58" cy="926.4531" fill="#FEFECE" filter="url(#f1yz6wqfks405)" rx="8" ry="8" style="stroke:#A80036;stroke-width:2.0;"/><path d="M58,934.4531 L58,961.4531 M45,942.4531 L71,942.4531 M58,961.4531 L45,976.4531 M58,961.4531 L71,976.4531 " fill="none" filter="url(#f1yz6wqfks405)" style="stroke:#A80036;stroke-width:2.0;"/><rect fill="#FEFECE" filter="url(#f1yz6wqfks405)" height="30.2969" style="stroke:#A80036;stroke-width:1.5;" width="247" x="390.5" y="53"/><text fill="#000000" font-family="sans-serif" font-size="14" lengthAdjust="spacing" textLength="233" x="397.5" y="72.9951">:EditParkingLotCharacteristicsUI</text><rect fill="#FEFECE" filter="url(#f1yz6wqfks405)" height="30.2969" style="stroke:#A80036;stroke-width:1.5;" width="247" x="390.5" y="900.1563"/><text fill="#000000" font-family="sans-serif" font-size="14" lengthAdjust="spacing" textLength="233" x="397.5" y="920.1514">:EditParkingLotCharacteristicsUI</text><rect fill="#FEFECE" filter="url(#f1yz6wqfks405)" height="30.2969" style="stroke:#A80036;stroke-width:1.5;" width="307" x="651.5" y="53"/><text fill="#000000" font-family="sans-serif" font-size="14" lengthAdjust="spacing" textLength="293" x="658.5" y="72.9951">:EditParkingLotCharacteristicsController</text><rect fill="#FEFECE" filter="url(#f1yz6wqfks405)" height="30.2969" style="stroke:#A80036;stroke-width:1.5;" width="307" x="651.5" y="900.1563"/><text fill="#000000" font-family="sans-serif" font-size="14" lengthAdjust="spacing" textLength="293" x="658.5" y="920.1514">:EditParkingLotCharacteristicsController</text><rect fill="#FEFECE" filter="url(#f1yz6wqfks405)" height="30.2969" style="stroke:#A80036;stroke-width:1.5;" width="82" x="972.5" y="53"/><text fill="#000000" font-family="sans-serif" font-size="14" lengthAdjust="spacing" textLength="68" x="979.5" y="72.9951">:Platform</text><rect fill="#FEFECE" filter="url(#f1yz6wqfks405)" height="30.2969" style="stroke:#A80036;stroke-width:1.5;" width="82" x="972.5" y="900.1563"/><text fill="#000000" font-family="sans-serif" font-size="14" lengthAdjust="spacing" textLength="68" x="979.5" y="920.1514">:Platform</text><rect fill="#FEFECE" filter="url(#f1yz6wqfks405)" height="46.5938" style="stroke:#A80036;stroke-width:1.5;" width="97" x="1068.5" y="36.7031"/><text fill="#000000" font-family="sans-serif" font-size="14" lengthAdjust="spacing" textLength="29" x="1100.5" y="56.6982">prkl</text><text fill="#000000" font-family="sans-serif" font-size="14" lengthAdjust="spacing" textLength="83" x="1075.5" y="72.9951">:ParkingLot</text><rect fill="#FEFECE" filter="url(#f1yz6wqfks405)" height="46.5938" style="stroke:#A80036;stroke-width:1.5;" width="97" x="1068.5" y="900.1563"/><text fill="#000000" font-family="sans-serif" font-size="14" lengthAdjust="spacing" textLength="29" x="1100.5" y="920.1514">prkl</text><text fill="#000000" font-family="sans-serif" font-size="14" lengthAdjust="spacing" textLength="83" x="1075.5" y="936.4482">:ParkingLot</text><rect fill="#FEFECE" filter="url(#f1yz6wqfks405)" height="46.5938" style="stroke:#A80036;stroke-width:1.5;" width="115" x="1179.5" y="36.7031"/><text fill="#000000" font-family="sans-serif" font-size="14" lengthAdjust="spacing" textLength="14" x="1228" y="56.6982">pl</text><text fill="#000000" font-family="sans-serif" font-size="14" lengthAdjust="spacing" textLength="101" x="1186.5" y="72.9951">:PharmacyList</text><rect fill="#FEFECE" filter="url(#f1yz6wqfks405)" height="46.5938" style="stroke:#A80036;stroke-width:1.5;" width="115" x="1179.5" y="900.1563"/><text fill="#000000" font-family="sans-serif" font-size="14" lengthAdjust="spacing" textLength="14" x="1228" y="920.1514">pl</text><text fill="#000000" font-family="sans-serif" font-size="14" lengthAdjust="spacing" textLength="101" x="1186.5" y="936.4482">:PharmacyList</text><rect fill="#FEFECE" filter="url(#f1yz6wqfks405)" height="46.5938" style="stroke:#A80036;stroke-width:1.5;" width="89" x="1308.5" y="36.7031"/><text fill="#000000" font-family="sans-serif" font-size="14" lengthAdjust="spacing" textLength="10" x="1346" y="56.6982">p</text><text fill="#000000" font-family="sans-serif" font-size="14" lengthAdjust="spacing" textLength="75" x="1315.5" y="72.9951">:Pharmacy</text><rect fill="#FEFECE" filter="url(#f1yz6wqfks405)" height="46.5938" style="stroke:#A80036;stroke-width:1.5;" width="89" x="1308.5" y="900.1563"/><text fill="#000000" font-family="sans-serif" font-size="14" lengthAdjust="spacing" textLength="10" x="1346" y="920.1514">p</text><text fill="#000000" font-family="sans-serif" font-size="14" lengthAdjust="spacing" textLength="75" x="1315.5" y="936.4482">:Pharmacy</text><rect fill="#FFFFFF" filter="url(#f1yz6wqfks405)" height="793.8594" style="stroke:#A80036;stroke-width:1.0;" width="10" x="53" y="98.2969"/><rect fill="#FFFFFF" filter="url(#f1yz6wqfks405)" height="117.3984" style="stroke:#A80036;stroke-width:1.0;" width="10" x="511" y="119.4297"/><rect fill="#FFFFFF" filter="url(#f1yz6wqfks405)" height="145.6641" style="stroke:#A80036;stroke-width:1.0;" width="10" x="511" y="265.9609"/><rect fill="#FFFFFF" filter="url(#f1yz6wqfks405)" height="103.3984" style="stroke:#A80036;stroke-width:1.0;" width="10" x="511" y="440.7578"/><rect fill="#FFFFFF" filter="url(#f1yz6wqfks405)" height="29.1328" style="stroke:#A80036;stroke-width:1.0;" width="10" x="511" y="573.2891"/><rect fill="#FFFFFF" filter="url(#f1yz6wqfks405)" height="251.6016" style="stroke:#A80036;stroke-width:1.0;" width="10" x="511" y="631.5547"/><rect fill="#FFFFFF" filter="url(#f1yz6wqfks405)" height="59.1328" style="stroke:#A80036;stroke-width:1.0;" width="10" x="802" y="148.5625"/><rect fill="#FFFFFF" filter="url(#f1yz6wqfks405)" height="29.1328" style="stroke:#A80036;stroke-width:1.0;" width="10" x="802" y="295.0938"/><rect fill="#FFFFFF" filter="url(#f1yz6wqfks405)" height="29.1328" style="stroke:#A80036;stroke-width:1.0;" width="10" x="802" y="353.3594"/><rect fill="#FFFFFF" filter="url(#f1yz6wqfks405)" height="30" style="stroke:#A80036;stroke-width:1.0;" width="10" x="802" y="469.8906"/><rect fill="#FFFFFF" filter="url(#f1yz6wqfks405)" height="59.1328" style="stroke:#A80036;stroke-width:1.0;" width="10" x="802" y="684.8203"/><rect fill="#FFFFFF" filter="url(#f1yz6wqfks405)" height="74.1328" style="stroke:#A80036;stroke-width:1.0;" width="10" x="802" y="787.8906"/><rect fill="#FFFFFF" filter="url(#f1yz6wqfks405)" height="30" style="stroke:#A80036;stroke-width:1.0;" width="10" x="1010.5" y="177.6953"/><rect fill="#FFFFFF" filter="url(#f1yz6wqfks405)" height="30" style="stroke:#A80036;stroke-width:1.0;" width="10" x="1114" y="713.9531"/><rect fill="#FFFFFF" filter="url(#f1yz6wqfks405)" height="30" style="stroke:#A80036;stroke-width:1.0;" width="10" x="1114" y="817.0234"/><rect fill="#FFFFFF" filter="url(#f1yz6wqfks405)" height="29.1328" style="stroke:#A80036;stroke-width:1.0;" width="10" x="1234" y="295.0938"/><rect fill="#FFFFFF" filter="url(#f1yz6wqfks405)" height="29.1328" style="stroke:#A80036;stroke-width:1.0;" width="10" x="1350" y="353.3594"/><polygon fill="#A80036" points="499,115.4297,509,119.4297,499,123.4297,503,119.4297" style="stroke:#A80036;stroke-width:1.0;"/><line style="stroke:#A80036;stroke-width:1.0;" x1="63" x2="505" y1="119.4297" y2="119.4297"/><text fill="#000000" font-family="sans-serif" font-size="13" font-weight="bold" lengthAdjust="spacing" textLength="9" x="70" y="114.3638">1</text><text fill="#000000" font-family="sans-serif" font-size="13" lengthAdjust="spacing" textLength="151" x="83" y="114.3638">Start parking lot update</text><polygon fill="#A80036" points="790,144.5625,800,148.5625,790,152.5625,794,148.5625" style="stroke:#A80036;stroke-width:1.0;"/><line style="stroke:#A80036;stroke-width:1.0;" x1="521" x2="796" y1="148.5625" y2="148.5625"/><text fill="#000000" font-family="sans-serif" font-size="13" font-weight="bold" lengthAdjust="spacing" textLength="9" x="528" y="143.4966">2</text><text fill="#000000" font-family="sans-serif" font-size="13" lengthAdjust="spacing" textLength="147" x="541" y="143.4966">pl = getPharmacyList()</text><polygon fill="#A80036" points="998.5,173.6953,1008.5,177.6953,998.5,181.6953,1002.5,177.6953" style="stroke:#A80036;stroke-width:1.0;"/><line style="stroke:#A80036;stroke-width:1.0;" x1="812" x2="1004.5" y1="177.6953" y2="177.6953"/><text fill="#000000" font-family="sans-serif" font-size="13" font-weight="bold" lengthAdjust="spacing" textLength="8" x="819" y="172.6294">3</text><text fill="#000000" font-family="sans-serif" font-size="13" lengthAdjust="spacing" textLength="147" x="831" y="172.6294">pl = getPharmacyList()</text><polygon fill="#A80036" points="74,232.8281,64,236.8281,74,240.8281,70,236.8281" style="stroke:#A80036;stroke-width:1.0;"/><line style="stroke:#A80036;stroke-width:1.0;stroke-dasharray:2.0,2.0;" x1="68" x2="515" y1="236.8281" y2="236.8281"/><text fill="#000000" font-family="sans-serif" font-size="13" font-weight="bold" lengthAdjust="spacing" textLength="9" x="80" y="231.7622">4</text><text fill="#000000" font-family="sans-serif" font-size="13" lengthAdjust="spacing" textLength="387" x="93" y="231.7622">Shows the list of Pharmacies, asking for the selection of one</text><polygon fill="#A80036" points="499,261.9609,509,265.9609,499,269.9609,503,265.9609" style="stroke:#A80036;stroke-width:1.0;"/><line style="stroke:#A80036;stroke-width:1.0;" x1="63" x2="505" y1="265.9609" y2="265.9609"/><text fill="#000000" font-family="sans-serif" font-size="13" font-weight="bold" lengthAdjust="spacing" textLength="9" x="70" y="260.895">5</text><text fill="#000000" font-family="sans-serif" font-size="13" lengthAdjust="spacing" textLength="147" x="83" y="260.895">chooses the pharmacy</text><polygon fill="#A80036" points="790,291.0938,800,295.0938,790,299.0938,794,295.0938" style="stroke:#A80036;stroke-width:1.0;"/><line style="stroke:#A80036;stroke-width:1.0;" x1="521" x2="796" y1="295.0938" y2="295.0938"/><text fill="#000000" font-family="sans-serif" font-size="13" font-weight="bold" lengthAdjust="spacing" textLength="9" x="528" y="290.0278">6</text><text fill="#000000" font-family="sans-serif" font-size="13" lengthAdjust="spacing" textLength="200" x="541" y="290.0278">p = getPharmacy(pharmacyID)</text><polygon fill="#A80036" points="1227,320.2266,1237,324.2266,1227,328.2266,1231,324.2266" style="stroke:#A80036;stroke-width:1.0;"/><line style="stroke:#A80036;stroke-width:1.0;" x1="807" x2="1233" y1="324.2266" y2="324.2266"/><text fill="#000000" font-family="sans-serif" font-size="13" font-weight="bold" lengthAdjust="spacing" textLength="9" x="814" y="319.1606">7</text><text fill="#000000" font-family="sans-serif" font-size="13" lengthAdjust="spacing" textLength="200" x="827" y="319.1606">p = getPharmacy(pharmacyID)</text><polygon fill="#A80036" points="790,349.3594,800,353.3594,790,357.3594,794,353.3594" style="stroke:#A80036;stroke-width:1.0;"/><line style="stroke:#A80036;stroke-width:1.0;" x1="521" x2="796" y1="353.3594" y2="353.3594"/><text fill="#000000" font-family="sans-serif" font-size="13" font-weight="bold" lengthAdjust="spacing" textLength="9" x="528" y="348.2935">8</text><text fill="#000000" font-family="sans-serif" font-size="13" lengthAdjust="spacing" textLength="168" x="541" y="348.2935">prklL = getParkingLotList()</text><polygon fill="#A80036" points="1343,378.4922,1353,382.4922,1343,386.4922,1347,382.4922" style="stroke:#A80036;stroke-width:1.0;"/><line style="stroke:#A80036;stroke-width:1.0;" x1="807" x2="1349" y1="382.4922" y2="382.4922"/><text fill="#000000" font-family="sans-serif" font-size="13" font-weight="bold" lengthAdjust="spacing" textLength="9" x="814" y="377.4263">9</text><text fill="#000000" font-family="sans-serif" font-size="13" lengthAdjust="spacing" textLength="168" x="827" y="377.4263">prklL = getParkingLotList()</text><polygon fill="#A80036" points="74,407.625,64,411.625,74,415.625,70,411.625" style="stroke:#A80036;stroke-width:1.0;"/><line style="stroke:#A80036;stroke-width:1.0;stroke-dasharray:2.0,2.0;" x1="68" x2="515" y1="411.625" y2="411.625"/><text fill="#000000" font-family="sans-serif" font-size="13" font-weight="bold" lengthAdjust="spacing" textLength="19" x="80" y="406.5591">10</text><text fill="#000000" font-family="sans-serif" font-size="13" lengthAdjust="spacing" textLength="375" x="103" y="406.5591">shows the list of parking lots and asks the selection of one</text><polygon fill="#A80036" points="499,436.7578,509,440.7578,499,444.7578,503,440.7578" style="stroke:#A80036;stroke-width:1.0;"/><line style="stroke:#A80036;stroke-width:1.0;" x1="63" x2="505" y1="440.7578" y2="440.7578"/><text fill="#000000" font-family="sans-serif" font-size="13" font-weight="bold" lengthAdjust="spacing" textLength="18" x="70" y="435.6919">11</text><text fill="#000000" font-family="sans-serif" font-size="13" lengthAdjust="spacing" textLength="142" x="92" y="435.6919">Selects the parking lot</text><polygon fill="#A80036" points="790,465.8906,800,469.8906,790,473.8906,794,469.8906" style="stroke:#A80036;stroke-width:1.0;"/><line style="stroke:#A80036;stroke-width:1.0;" x1="521" x2="796" y1="469.8906" y2="469.8906"/><text fill="#000000" font-family="sans-serif" font-size="13" font-weight="bold" lengthAdjust="spacing" textLength="18" x="528" y="464.8247">12</text><text fill="#000000" font-family="sans-serif" font-size="13" lengthAdjust="spacing" textLength="219" x="550" y="464.8247">prkl = getParkingLot(parkingLotID)</text><polygon fill="#A80036" points="74,540.1563,64,544.1563,74,548.1563,70,544.1563" style="stroke:#A80036;stroke-width:1.0;"/><line style="stroke:#A80036;stroke-width:1.0;stroke-dasharray:2.0,2.0;" x1="68" x2="515" y1="544.1563" y2="544.1563"/><text fill="#000000" font-family="sans-serif" font-size="13" font-weight="bold" lengthAdjust="spacing" textLength="17" x="80" y="531.5239">13</text><text fill="#000000" font-family="sans-serif" font-size="13" lengthAdjust="spacing" textLength="360" x="101" y="523.9575">Shows the information of that parking lot and asks what</text><text fill="#000000" font-family="sans-serif" font-size="13" lengthAdjust="spacing" textLength="190" x="105" y="539.0903">attribute he wants to change.</text><polygon fill="#A80036" points="499,569.2891,509,573.2891,499,577.2891,503,573.2891" style="stroke:#A80036;stroke-width:1.0;"/><line style="stroke:#A80036;stroke-width:1.0;" x1="63" x2="505" y1="573.2891" y2="573.2891"/><text fill="#000000" font-family="sans-serif" font-size="13" font-weight="bold" lengthAdjust="spacing" textLength="18" x="70" y="568.2231">14</text><text fill="#000000" font-family="sans-serif" font-size="13" lengthAdjust="spacing" textLength="130" x="92" y="568.2231">Selects the attribute</text><polygon fill="#A80036" points="74,598.4219,64,602.4219,74,606.4219,70,602.4219" style="stroke:#A80036;stroke-width:1.0;"/><line style="stroke:#A80036;stroke-width:1.0;stroke-dasharray:2.0,2.0;" x1="68" x2="515" y1="602.4219" y2="602.4219"/><text fill="#000000" font-family="sans-serif" font-size="13" font-weight="bold" lengthAdjust="spacing" textLength="18" x="80" y="597.356">15</text><text fill="#000000" font-family="sans-serif" font-size="13" lengthAdjust="spacing" textLength="402" x="102" y="597.356">asks the administrator to insert the new value for the attribute</text><polygon fill="#A80036" points="499,627.5547,509,631.5547,499,635.5547,503,631.5547" style="stroke:#A80036;stroke-width:1.0;"/><line style="stroke:#A80036;stroke-width:1.0;" x1="63" x2="505" y1="631.5547" y2="631.5547"/><text fill="#000000" font-family="sans-serif" font-size="13" font-weight="bold" lengthAdjust="spacing" textLength="18" x="70" y="626.4888">16</text><text fill="#000000" font-family="sans-serif" font-size="13" lengthAdjust="spacing" textLength="138" x="92" y="626.4888">inserts the new value</text><path d="M380.5,646.5547 L446.5,646.5547 L446.5,653.5547 L436.5,663.5547 L380.5,663.5547 L380.5,646.5547 " fill="#EEEEEE" style="stroke:#000000;stroke-width:1.0;"/><rect fill="none" height="208.4688" style="stroke:#000000;stroke-width:2.0;" width="799" x="380.5" y="646.5547"/><text fill="#000000" font-family="sans-serif" font-size="13" font-weight="bold" lengthAdjust="spacing" textLength="21" x="395.5" y="659.6216">alt</text><text fill="#000000" font-family="sans-serif" font-size="11" font-weight="bold" lengthAdjust="spacing" textLength="138" x="461.5" y="658.7651">[update total spots]</text><polygon fill="#A80036" points="790,680.8203,800,684.8203,790,688.8203,794,684.8203" style="stroke:#A80036;stroke-width:1.0;"/><line style="stroke:#A80036;stroke-width:1.0;" x1="521" x2="796" y1="684.8203" y2="684.8203"/><text fill="#000000" font-family="sans-serif" font-size="13" font-weight="bold" lengthAdjust="spacing" textLength="18" x="528" y="679.7544">17</text><text fill="#000000" font-family="sans-serif" font-size="13" lengthAdjust="spacing" textLength="163" x="550" y="679.7544">setTotalSpots(totalSpots)</text><polygon fill="#A80036" points="1102,709.9531,1112,713.9531,1102,717.9531,1106,713.9531" style="stroke:#A80036;stroke-width:1.0;"/><line style="stroke:#A80036;stroke-width:1.0;" x1="812" x2="1108" y1="713.9531" y2="713.9531"/><text fill="#000000" font-family="sans-serif" font-size="13" font-weight="bold" lengthAdjust="spacing" textLength="18" x="819" y="708.8872">18</text><text fill="#000000" font-family="sans-serif" font-size="13" lengthAdjust="spacing" textLength="163" x="841" y="708.8872">setTotalSpots(totalSpots)</text><line style="stroke:#000000;stroke-width:1.0;stroke-dasharray:2.0,2.0;" x1="380.5" x2="1179.5" y1="752.9531" y2="752.9531"/><text fill="#000000" font-family="sans-serif" font-size="11" font-weight="bold" lengthAdjust="spacing" textLength="148" x="385.5" y="763.1636">[update charge spots]</text><polygon fill="#A80036" points="790,783.8906,800,787.8906,790,791.8906,794,787.8906" style="stroke:#A80036;stroke-width:1.0;"/><line style="stroke:#A80036;stroke-width:1.0;" x1="521" x2="796" y1="787.8906" y2="787.8906"/><text fill="#000000" font-family="sans-serif" font-size="13" font-weight="bold" lengthAdjust="spacing" textLength="18" x="528" y="782.8247">19</text><text fill="#000000" font-family="sans-serif" font-size="13" lengthAdjust="spacing" textLength="192" x="550" y="782.8247">setChargeSpots(chargeSpots)</text><polygon fill="#A80036" points="1102,813.0234,1112,817.0234,1102,821.0234,1106,817.0234" style="stroke:#A80036;stroke-width:1.0;"/><line style="stroke:#A80036;stroke-width:1.0;" x1="812" x2="1108" y1="817.0234" y2="817.0234"/><text fill="#000000" font-family="sans-serif" font-size="13" font-weight="bold" lengthAdjust="spacing" textLength="19" x="819" y="811.9575">20</text><text fill="#000000" font-family="sans-serif" font-size="13" lengthAdjust="spacing" textLength="192" x="842" y="811.9575">setChargeSpots(chargeSpots)</text><polygon fill="#A80036" points="74,879.1563,64,883.1563,74,887.1563,70,883.1563" style="stroke:#A80036;stroke-width:1.0;"/><line style="stroke:#A80036;stroke-width:1.0;stroke-dasharray:2.0,2.0;" x1="68" x2="515" y1="883.1563" y2="883.1563"/><text fill="#000000" font-family="sans-serif" font-size="13" font-weight="bold" lengthAdjust="spacing" textLength="18" x="80" y="878.0903">21</text><text fill="#000000" font-family="sans-serif" font-size="13" lengthAdjust="spacing" textLength="328" x="102" y="878.0903">saves the data and presents it to the administrator</text><!--MD5=[48eec156b871afcebc4af16b35e05d3a]
@startuml
autonumber

actor "Administrator" as ADM
participant ":EditParkingLotCharacteristicsUI" as UI
participant ":EditParkingLotCharacteristicsController" as CTRL
participant ":Platform" as PLAT
participant "prkl \n:ParkingLot" as PRKL
participant "pl \n:PharmacyList" as PL
participant "p \n:Pharmacy" as P

activate ADM
ADM -> UI :  Start parking lot update
activate UI
UI -> CTRL : pl = getPharmacyList()
activate CTRL
CTRL -> PLAT : pl = getPharmacyList()
activate PLAT
deactivate PLAT
deactivate CTRL
UI - -> ADM : Shows the list of Pharmacies, asking for the selection of one
deactivate UI





ADM -> UI :  chooses the pharmacy
activate UI
UI -> CTRL : p = getPharmacy(pharmacyID)
activate CTRL
activate PL
CTRL -> PL : p = getPharmacy(pharmacyID)
deactivate PL
deactivate CTRL
UI -> CTRL : prklL = getParkingLotList()
activate CTRL
activate P
CTRL -> P : prklL = getParkingLotList()
deactivate P
deactivate CTRL
UI - -> ADM : shows the list of parking lots and asks the selection of one
deactivate UI


ADM -> UI : Selects the parking lot
activate UI
UI -> CTRL : prkl = getParkingLot(parkingLotID)
activate CTRL

deactivate CTRL
UI - -> ADM : Shows the information of that parking lot and asks what\n attribute he wants to change.
deactivate UI


ADM -> UI : Selects the attribute
activate UI

UI - -> ADM : asks the administrator to insert the new value for the attribute
deactivate UI

ADM -> UI : inserts the new value
activate UI
alt update total spots

UI -> CTRL : setTotalSpots(totalSpots)
activate CTRL
CTRL -> PRKL : setTotalSpots(totalSpots)
activate PRKL
deactivate PRKL
deactivate CTRL
else update charge spots


UI -> CTRL : setChargeSpots(chargeSpots)
activate CTRL
CTRL -> PRKL : setChargeSpots(chargeSpots)
activate PRKL
deactivate PRKL

end

deactivate CTRL
UI - -> ADM : saves the data and presents it to the administrator
deactivate UI
@enduml

PlantUML version 1.2020.27beta8(Unknown compile time)
(GPL source distribution)
Java Runtime: Java(TM) SE Runtime Environment
JVM: Java HotSpot(TM) 64-Bit Server VM
Default Encoding: UTF-8
Language: en
Country: US
--></g></svg>