<?xml version="1.0" encoding="UTF-8" standalone="no"?><svg xmlns="http://www.w3.org/2000/svg" xmlns:xlink="http://www.w3.org/1999/xlink" contentScriptType="application/ecmascript" contentStyleType="text/css" height="350px" preserveAspectRatio="none" style="width:767px;height:350px;" version="1.1" viewBox="0 0 767 350" width="767px" zoomAndPan="magnify"><defs><filter height="300%" id="fgr2s3pbbr244" width="300%" x="-1" y="-1"><feGaussianBlur result="blurOut" stdDeviation="2.0"/><feColorMatrix in="blurOut" result="blurOut2" type="matrix" values="0 0 0 0 0 0 0 0 0 0 0 0 0 0 0 0 0 0 .4 0"/><feOffset dx="4.0" dy="4.0" in="blurOut2" result="blurOut3"/><feBlend in="SourceGraphic" in2="blurOut3" mode="normal"/></filter></defs><g><rect fill="#FFFFFF" filter="url(#fgr2s3pbbr244)" height="247.9297" style="stroke:#A80036;stroke-width:1.0;" width="10" x="79.5" y="50.2969"/><rect fill="#FFFFFF" filter="url(#fgr2s3pbbr244)" height="226.7969" style="stroke:#A80036;stroke-width:1.0;" width="10" x="248.5" y="71.4297"/><rect fill="#FFFFFF" filter="url(#fgr2s3pbbr244)" height="126.3984" style="stroke:#A80036;stroke-width:1.0;" width="10" x="430" y="171.8281"/><rect fill="#FFFFFF" filter="url(#fgr2s3pbbr244)" height="30" style="stroke:#A80036;stroke-width:1.0;" width="10" x="603" y="200.9609"/><rect fill="#FFFFFF" filter="url(#fgr2s3pbbr244)" height="38.1328" style="stroke:#A80036;stroke-width:1.0;" width="10" x="718" y="260.0938"/><line style="stroke:#A80036;stroke-width:1.0;stroke-dasharray:5.0,5.0;" x1="84" x2="84" y1="40.2969" y2="307.2266"/><line style="stroke:#A80036;stroke-width:1.0;stroke-dasharray:5.0,5.0;" x1="253" x2="253" y1="40.2969" y2="307.2266"/><line style="stroke:#A80036;stroke-width:1.0;stroke-dasharray:5.0,5.0;" x1="435" x2="435" y1="40.2969" y2="307.2266"/><line style="stroke:#A80036;stroke-width:1.0;stroke-dasharray:5.0,5.0;" x1="608" x2="608" y1="40.2969" y2="307.2266"/><line style="stroke:#A80036;stroke-width:1.0;stroke-dasharray:5.0,5.0;" x1="723" x2="723" y1="40.2969" y2="307.2266"/><rect fill="#FEFECE" filter="url(#fgr2s3pbbr244)" height="30.2969" style="stroke:#A80036;stroke-width:1.5;" width="155" x="5" y="5"/><text fill="#000000" font-family="sans-serif" font-size="14" lengthAdjust="spacingAndGlyphs" textLength="141" x="12" y="24.9951">FactoryBootstrapper</text><rect fill="#FEFECE" filter="url(#fgr2s3pbbr244)" height="30.2969" style="stroke:#A80036;stroke-width:1.5;" width="155" x="5" y="306.2266"/><text fill="#000000" font-family="sans-serif" font-size="14" lengthAdjust="spacingAndGlyphs" textLength="141" x="12" y="326.2217">FactoryBootstrapper</text><rect fill="#FEFECE" filter="url(#fgr2s3pbbr244)" height="30.2969" style="stroke:#A80036;stroke-width:1.5;" width="155" x="174" y="5"/><text fill="#000000" font-family="sans-serif" font-size="14" lengthAdjust="spacingAndGlyphs" textLength="141" x="181" y="24.9951">ServiceBootstrapper</text><rect fill="#FEFECE" filter="url(#fgr2s3pbbr244)" height="30.2969" style="stroke:#A80036;stroke-width:1.5;" width="155" x="174" y="306.2266"/><text fill="#000000" font-family="sans-serif" font-size="14" lengthAdjust="spacingAndGlyphs" textLength="141" x="181" y="326.2217">ServiceBootstrapper</text><rect fill="#FEFECE" filter="url(#fgr2s3pbbr244)" height="30.2969" style="stroke:#A80036;stroke-width:1.5;" width="180" x="343" y="5"/><text fill="#000000" font-family="sans-serif" font-size="14" lengthAdjust="spacingAndGlyphs" textLength="166" x="350" y="24.9951">SpecifyServiceController</text><rect fill="#FEFECE" filter="url(#fgr2s3pbbr244)" height="30.2969" style="stroke:#A80036;stroke-width:1.5;" width="180" x="343" y="306.2266"/><text fill="#000000" font-family="sans-serif" font-size="14" lengthAdjust="spacingAndGlyphs" textLength="166" x="350" y="326.2217">SpecifyServiceController</text><rect fill="#FEFECE" filter="url(#fgr2s3pbbr244)" height="30.2969" style="stroke:#A80036;stroke-width:1.5;" width="138" x="537" y="5"/><text fill="#000000" font-family="sans-serif" font-size="14" lengthAdjust="spacingAndGlyphs" textLength="124" x="544" y="24.9951">ServiceRepository</text><rect fill="#FEFECE" filter="url(#fgr2s3pbbr244)" height="30.2969" style="stroke:#A80036;stroke-width:1.5;" width="138" x="537" y="306.2266"/><text fill="#000000" font-family="sans-serif" font-size="14" lengthAdjust="spacingAndGlyphs" textLength="124" x="544" y="326.2217">ServiceRepository</text><rect fill="#FEFECE" filter="url(#fgr2s3pbbr244)" height="30.2969" style="stroke:#A80036;stroke-width:1.5;" width="64" x="689" y="5"/><text fill="#000000" font-family="sans-serif" font-size="14" lengthAdjust="spacingAndGlyphs" textLength="50" x="696" y="24.9951">Service</text><rect fill="#FEFECE" filter="url(#fgr2s3pbbr244)" height="30.2969" style="stroke:#A80036;stroke-width:1.5;" width="64" x="689" y="306.2266"/><text fill="#000000" font-family="sans-serif" font-size="14" lengthAdjust="spacingAndGlyphs" textLength="50" x="696" y="326.2217">Service</text><rect fill="#FFFFFF" filter="url(#fgr2s3pbbr244)" height="247.9297" style="stroke:#A80036;stroke-width:1.0;" width="10" x="79.5" y="50.2969"/><rect fill="#FFFFFF" filter="url(#fgr2s3pbbr244)" height="226.7969" style="stroke:#A80036;stroke-width:1.0;" width="10" x="248.5" y="71.4297"/><rect fill="#FFFFFF" filter="url(#fgr2s3pbbr244)" height="126.3984" style="stroke:#A80036;stroke-width:1.0;" width="10" x="430" y="171.8281"/><rect fill="#FFFFFF" filter="url(#fgr2s3pbbr244)" height="30" style="stroke:#A80036;stroke-width:1.0;" width="10" x="603" y="200.9609"/><rect fill="#FFFFFF" filter="url(#fgr2s3pbbr244)" height="38.1328" style="stroke:#A80036;stroke-width:1.0;" width="10" x="718" y="260.0938"/><polygon fill="#A80036" points="236.5,67.4297,246.5,71.4297,236.5,75.4297,240.5,71.4297" style="stroke:#A80036;stroke-width:1.0;"/><line style="stroke:#A80036;stroke-width:1.0;" x1="89.5" x2="242.5" y1="71.4297" y2="71.4297"/><text fill="#000000" font-family="sans-serif" font-size="13" lengthAdjust="spacingAndGlyphs" textLength="51" x="96.5" y="66.3638">create()</text><polygon fill="#A80036" points="236.5,96.5625,246.5,100.5625,236.5,104.5625,240.5,100.5625" style="stroke:#A80036;stroke-width:1.0;"/><line style="stroke:#A80036;stroke-width:1.0;" x1="89.5" x2="242.5" y1="100.5625" y2="100.5625"/><text fill="#000000" font-family="sans-serif" font-size="13" lengthAdjust="spacingAndGlyphs" textLength="61" x="96.5" y="95.4966">execute()</text><line style="stroke:#A80036;stroke-width:1.0;" x1="258.5" x2="300.5" y1="129.6953" y2="129.6953"/><line style="stroke:#A80036;stroke-width:1.0;" x1="300.5" x2="300.5" y1="129.6953" y2="142.6953"/><line style="stroke:#A80036;stroke-width:1.0;" x1="259.5" x2="300.5" y1="142.6953" y2="142.6953"/><polygon fill="#A80036" points="269.5,138.6953,259.5,142.6953,269.5,146.6953,265.5,142.6953" style="stroke:#A80036;stroke-width:1.0;"/><text fill="#000000" font-family="sans-serif" font-size="13" lengthAdjust="spacingAndGlyphs" textLength="59" x="265.5" y="124.6294">register()</text><polygon fill="#A80036" points="418,167.8281,428,171.8281,418,175.8281,422,171.8281" style="stroke:#A80036;stroke-width:1.0;"/><line style="stroke:#A80036;stroke-width:1.0;" x1="258.5" x2="424" y1="171.8281" y2="171.8281"/><text fill="#000000" font-family="sans-serif" font-size="13" lengthAdjust="spacingAndGlyphs" textLength="51" x="265.5" y="166.7622">create()</text><polygon fill="#A80036" points="591,196.9609,601,200.9609,591,204.9609,595,200.9609" style="stroke:#A80036;stroke-width:1.0;"/><line style="stroke:#A80036;stroke-width:1.0;" x1="440" x2="597" y1="200.9609" y2="200.9609"/><text fill="#000000" font-family="sans-serif" font-size="13" lengthAdjust="spacingAndGlyphs" textLength="51" x="447" y="195.895">create()</text><polygon fill="#A80036" points="706,256.0938,716,260.0938,706,264.0938,710,260.0938" style="stroke:#A80036;stroke-width:1.0;"/><line style="stroke:#A80036;stroke-width:1.0;" x1="440" x2="712" y1="260.0938" y2="260.0938"/><text fill="#000000" font-family="sans-serif" font-size="13" lengthAdjust="spacingAndGlyphs" textLength="199" x="447" y="255.0278">registerService(all parameters)</text><polygon fill="#A80036" points="619,285.2266,609,289.2266,619,293.2266,615,289.2266" style="stroke:#A80036;stroke-width:1.0;"/><line style="stroke:#A80036;stroke-width:1.0;stroke-dasharray:2.0,2.0;" x1="613" x2="717" y1="289.2266" y2="289.2266"/><text fill="#000000" font-family="sans-serif" font-size="13" lengthAdjust="spacingAndGlyphs" textLength="85" x="625" y="284.1606">save(service)</text><!--MD5=[34204ac1381e36e59bf75ac97403d04b]
@startuml
participant FactoryBootstrapper as FB
participant ServiceBootstrapper as SB
participant SpecifyServiceController as SS
participant ServiceRepository as SR
participant Service as Service

activate FB
FB -> SB : create()
activate SB
FB -> SB : execute()


SB -> SB : register()
SB -> SS : create()
activate SS

SS -> SR : create()
activate SR
deactivate SR

SS -> Service : registerService(all parameters)
activate Service
Service - -> SR : save(service)
@enduml

PlantUML version 1.2020.22(Sun Dec 06 09:36:27 UTC 2020)
(GPL source distribution)
Java Runtime: OpenJDK Runtime Environment
JVM: OpenJDK 64-Bit Server VM
Default Encoding: UTF-8
Language: en
Country: US
--></g></svg>