<?xml version="1.0" encoding="UTF-8" standalone="no"?><svg xmlns="http://www.w3.org/2000/svg" xmlns:xlink="http://www.w3.org/1999/xlink" contentScriptType="application/ecmascript" contentStyleType="text/css" height="1181px" preserveAspectRatio="none" style="width:1702px;height:1181px;" version="1.1" viewBox="0 0 1702 1181" width="1702px" zoomAndPan="magnify"><defs><filter height="300%" id="fngomukdfqlbp" width="300%" x="-1" y="-1"><feGaussianBlur result="blurOut" stdDeviation="2.0"/><feColorMatrix in="blurOut" result="blurOut2" type="matrix" values="0 0 0 0 0 0 0 0 0 0 0 0 0 0 0 0 0 0 .4 0"/><feOffset dx="4.0" dy="4.0" in="blurOut2" result="blurOut3"/><feBlend in="SourceGraphic" in2="blurOut3" mode="normal"/></filter></defs><g><rect fill="#FFFFFF" filter="url(#fngomukdfqlbp)" height="959.9141" style="stroke:#A80036;stroke-width:1.0;" width="10" x="288" y="119.4297"/><rect fill="#FFFFFF" filter="url(#fngomukdfqlbp)" height="379.8594" style="stroke:#A80036;stroke-width:1.0;" width="10" x="700" y="670.3516"/><rect fill="#FFFFFF" filter="url(#fngomukdfqlbp)" height="29.1328" style="stroke:#A80036;stroke-width:1.0;" width="10" x="895" y="699.4844"/><rect fill="#FFFFFF" filter="url(#fngomukdfqlbp)" height="29.1328" style="stroke:#A80036;stroke-width:1.0;" width="10" x="1070.5" y="788.0156"/><rect fill="#FFFFFF" filter="url(#fngomukdfqlbp)" height="58.2656" style="stroke:#A80036;stroke-width:1.0;" width="10" x="1262.5" y="846.2813"/><rect fill="#FFFFFF" filter="url(#fngomukdfqlbp)" height="58.2656" style="stroke:#A80036;stroke-width:1.0;" width="10" x="1428.5" y="933.6797"/><rect fill="#FFFFFF" filter="url(#fngomukdfqlbp)" height="90.5313" style="stroke:#000000;stroke-width:2.0;" width="374" x="20" y="252.0938"/><rect fill="#FFFFFF" filter="url(#fngomukdfqlbp)" height="90.5313" style="stroke:#000000;stroke-width:2.0;" width="374" x="20" y="356.625"/><rect fill="#FFFFFF" filter="url(#fngomukdfqlbp)" height="121.6641" style="stroke:#000000;stroke-width:2.0;" width="394" x="10" y="490.2891"/><rect fill="#FFFFFF" filter="url(#fngomukdfqlbp)" height="90.5313" style="stroke:#000000;stroke-width:2.0;" width="374" x="20" y="514.4219"/><line style="stroke:#A80036;stroke-width:1.0;stroke-dasharray:5.0,5.0;" x1="48" x2="48" y1="88.2969" y2="1097.3438"/><line style="stroke:#A80036;stroke-width:1.0;stroke-dasharray:5.0,5.0;" x1="293" x2="293" y1="88.2969" y2="1097.3438"/><line style="stroke:#A80036;stroke-width:1.0;stroke-dasharray:5.0,5.0;" x1="484" x2="484" y1="88.2969" y2="1097.3438"/><line style="stroke:#A80036;stroke-width:1.0;stroke-dasharray:5.0,5.0;" x1="705" x2="705" y1="88.2969" y2="1097.3438"/><line style="stroke:#A80036;stroke-width:1.0;stroke-dasharray:5.0,5.0;" x1="900" x2="900" y1="88.2969" y2="1097.3438"/><line style="stroke:#A80036;stroke-width:1.0;stroke-dasharray:5.0,5.0;" x1="1075" x2="1075" y1="88.2969" y2="1097.3438"/><line style="stroke:#A80036;stroke-width:1.0;stroke-dasharray:5.0,5.0;" x1="1267" x2="1267" y1="88.2969" y2="1097.3438"/><line style="stroke:#A80036;stroke-width:1.0;stroke-dasharray:5.0,5.0;" x1="1433" x2="1433" y1="88.2969" y2="1097.3438"/><line style="stroke:#A80036;stroke-width:1.0;stroke-dasharray:5.0,5.0;" x1="1610" x2="1610" y1="88.2969" y2="1097.3438"/><text fill="#000000" font-family="sans-serif" font-size="14" lengthAdjust="spacing" textLength="30" x="30" y="84.9951">HRR</text><ellipse cx="48" cy="15" fill="#FEFECE" filter="url(#fngomukdfqlbp)" rx="8" ry="8" style="stroke:#A80036;stroke-width:2.0;"/><path d="M48,23 L48,50 M35,31 L61,31 M48,50 L35,65 M48,50 L61,65 " fill="none" filter="url(#fngomukdfqlbp)" style="stroke:#A80036;stroke-width:2.0;"/><text fill="#000000" font-family="sans-serif" font-size="14" lengthAdjust="spacing" textLength="30" x="30" y="1109.3389">HRR</text><ellipse cx="48" cy="1122.6406" fill="#FEFECE" filter="url(#fngomukdfqlbp)" rx="8" ry="8" style="stroke:#A80036;stroke-width:2.0;"/><path d="M48,1130.6406 L48,1157.6406 M35,1138.6406 L61,1138.6406 M48,1157.6406 L35,1172.6406 M48,1157.6406 L61,1172.6406 " fill="none" filter="url(#fngomukdfqlbp)" style="stroke:#A80036;stroke-width:2.0;"/><rect fill="#FEFECE" filter="url(#fngomukdfqlbp)" height="46.5938" style="stroke:#A80036;stroke-width:1.5;" width="178" x="202" y="36.7031"/><text fill="#000000" font-family="sans-serif" font-size="14" font-style="italic" lengthAdjust="spacing" textLength="108" x="237" y="56.6982">«presentation»</text><text fill="#000000" font-family="sans-serif" font-size="14" lengthAdjust="spacing" textLength="164" x="209" y="72.9951">RegisterCollaboratorUI</text><rect fill="#FEFECE" filter="url(#fngomukdfqlbp)" height="46.5938" style="stroke:#A80036;stroke-width:1.5;" width="178" x="202" y="1096.3438"/><text fill="#000000" font-family="sans-serif" font-size="14" font-style="italic" lengthAdjust="spacing" textLength="108" x="237" y="1116.3389">«presentation»</text><text fill="#000000" font-family="sans-serif" font-size="14" lengthAdjust="spacing" textLength="164" x="209" y="1132.6357">RegisterCollaboratorUI</text><rect fill="#FEFECE" filter="url(#fngomukdfqlbp)" height="46.5938" style="stroke:#A80036;stroke-width:1.5;" width="176" x="394" y="36.7031"/><text fill="#000000" font-family="sans-serif" font-size="14" font-style="italic" lengthAdjust="spacing" textLength="97" x="433.5" y="56.6982">«application»</text><text fill="#000000" font-family="sans-serif" font-size="14" lengthAdjust="spacing" textLength="162" x="401" y="72.9951">CreateTeamController</text><rect fill="#FEFECE" filter="url(#fngomukdfqlbp)" height="46.5938" style="stroke:#A80036;stroke-width:1.5;" width="176" x="394" y="1096.3438"/><text fill="#000000" font-family="sans-serif" font-size="14" font-style="italic" lengthAdjust="spacing" textLength="97" x="433.5" y="1116.3389">«application»</text><text fill="#000000" font-family="sans-serif" font-size="14" lengthAdjust="spacing" textLength="162" x="401" y="1132.6357">CreateTeamController</text><rect fill="#FEFECE" filter="url(#fngomukdfqlbp)" height="46.5938" style="stroke:#A80036;stroke-width:1.5;" width="238" x="584" y="36.7031"/><text fill="#000000" font-family="sans-serif" font-size="14" font-style="italic" lengthAdjust="spacing" textLength="97" x="654.5" y="56.6982">«application»</text><text fill="#000000" font-family="sans-serif" font-size="14" lengthAdjust="spacing" textLength="224" x="591" y="72.9951">RegisterCollaboratorController</text><rect fill="#FEFECE" filter="url(#fngomukdfqlbp)" height="46.5938" style="stroke:#A80036;stroke-width:1.5;" width="238" x="584" y="1096.3438"/><text fill="#000000" font-family="sans-serif" font-size="14" font-style="italic" lengthAdjust="spacing" textLength="97" x="654.5" y="1116.3389">«application»</text><text fill="#000000" font-family="sans-serif" font-size="14" lengthAdjust="spacing" textLength="224" x="591" y="1132.6357">RegisterCollaboratorController</text><rect fill="#FEFECE" filter="url(#fngomukdfqlbp)" height="46.5938" style="stroke:#A80036;stroke-width:1.5;" width="124" x="836" y="36.7031"/><text fill="#000000" font-family="sans-serif" font-size="14" font-style="italic" lengthAdjust="spacing" textLength="72" x="862" y="56.6982">«domain»</text><text fill="#000000" font-family="sans-serif" font-size="14" lengthAdjust="spacing" textLength="110" x="843" y="72.9951">ScriptPassword</text><rect fill="#FEFECE" filter="url(#fngomukdfqlbp)" height="46.5938" style="stroke:#A80036;stroke-width:1.5;" width="124" x="836" y="1096.3438"/><text fill="#000000" font-family="sans-serif" font-size="14" font-style="italic" lengthAdjust="spacing" textLength="72" x="862" y="1116.3389">«domain»</text><text fill="#000000" font-family="sans-serif" font-size="14" lengthAdjust="spacing" textLength="110" x="843" y="1132.6357">ScriptPassword</text><rect fill="#FEFECE" filter="url(#fngomukdfqlbp)" height="46.5938" style="stroke:#A80036;stroke-width:1.5;" width="199" x="974" y="36.7031"/><text fill="#000000" font-family="sans-serif" font-size="14" font-style="italic" lengthAdjust="spacing" textLength="72" x="1037.5" y="56.6982">«domain»</text><text fill="#000000" font-family="sans-serif" font-size="14" lengthAdjust="spacing" textLength="185" x="981" y="72.9951">Collaborator:Collaborator</text><rect fill="#FEFECE" filter="url(#fngomukdfqlbp)" height="46.5938" style="stroke:#A80036;stroke-width:1.5;" width="199" x="974" y="1096.3438"/><text fill="#000000" font-family="sans-serif" font-size="14" font-style="italic" lengthAdjust="spacing" textLength="72" x="1037.5" y="1116.3389">«domain»</text><text fill="#000000" font-family="sans-serif" font-size="14" lengthAdjust="spacing" textLength="185" x="981" y="1132.6357">Collaborator:Collaborator</text><rect fill="#FEFECE" filter="url(#fngomukdfqlbp)" height="46.5938" style="stroke:#A80036;stroke-width:1.5;" width="157" x="1187" y="36.7031"/><text fill="#000000" font-family="sans-serif" font-size="14" font-style="italic" lengthAdjust="spacing" textLength="100" x="1215.5" y="56.6982">«persistence»</text><text fill="#000000" font-family="sans-serif" font-size="14" lengthAdjust="spacing" textLength="143" x="1194" y="72.9951">PersistenceContext</text><rect fill="#FEFECE" filter="url(#fngomukdfqlbp)" height="46.5938" style="stroke:#A80036;stroke-width:1.5;" width="157" x="1187" y="1096.3438"/><text fill="#000000" font-family="sans-serif" font-size="14" font-style="italic" lengthAdjust="spacing" textLength="100" x="1215.5" y="1116.3389">«persistence»</text><text fill="#000000" font-family="sans-serif" font-size="14" lengthAdjust="spacing" textLength="143" x="1194" y="1132.6357">PersistenceContext</text><rect fill="#FEFECE" filter="url(#fngomukdfqlbp)" height="46.5938" style="stroke:#A80036;stroke-width:1.5;" width="147" x="1358" y="36.7031"/><text fill="#000000" font-family="sans-serif" font-size="14" font-style="italic" lengthAdjust="spacing" textLength="68" x="1397.5" y="56.6982">«factory»</text><text fill="#000000" font-family="sans-serif" font-size="14" lengthAdjust="spacing" textLength="133" x="1365" y="72.9951">RepositoryFactory</text><rect fill="#FEFECE" filter="url(#fngomukdfqlbp)" height="46.5938" style="stroke:#A80036;stroke-width:1.5;" width="147" x="1358" y="1096.3438"/><text fill="#000000" font-family="sans-serif" font-size="14" font-style="italic" lengthAdjust="spacing" textLength="68" x="1397.5" y="1116.3389">«factory»</text><text fill="#000000" font-family="sans-serif" font-size="14" lengthAdjust="spacing" textLength="133" x="1365" y="1132.6357">RepositoryFactory</text><text fill="#000000" font-family="sans-serif" font-size="14" font-style="italic" lengthAdjust="spacing" textLength="90" x="1562" y="68.6982">«repository»</text><text fill="#000000" font-family="sans-serif" font-size="14" lengthAdjust="spacing" textLength="176" x="1519" y="84.9951">CollaboratorsRepository</text><path d="M1592,19.7031 C1592,9.7031 1610,9.7031 1610,9.7031 C1610,9.7031 1628,9.7031 1628,19.7031 L1628,45.7031 C1628,55.7031 1610,55.7031 1610,55.7031 C1610,55.7031 1592,55.7031 1592,45.7031 L1592,19.7031 " fill="#FEFECE" filter="url(#fngomukdfqlbp)" style="stroke:#000000;stroke-width:1.5;"/><path d="M1592,19.7031 C1592,29.7031 1610,29.7031 1610,29.7031 C1610,29.7031 1628,29.7031 1628,19.7031 " fill="none" style="stroke:#000000;stroke-width:1.5;"/><text fill="#000000" font-family="sans-serif" font-size="14" font-style="italic" lengthAdjust="spacing" textLength="90" x="1562" y="1109.3389">«repository»</text><text fill="#000000" font-family="sans-serif" font-size="14" lengthAdjust="spacing" textLength="176" x="1519" y="1125.6357">CollaboratorsRepository</text><path d="M1592,1138.9375 C1592,1128.9375 1610,1128.9375 1610,1128.9375 C1610,1128.9375 1628,1128.9375 1628,1138.9375 L1628,1164.9375 C1628,1174.9375 1610,1174.9375 1610,1174.9375 C1610,1174.9375 1592,1174.9375 1592,1164.9375 L1592,1138.9375 " fill="#FEFECE" filter="url(#fngomukdfqlbp)" style="stroke:#000000;stroke-width:1.5;"/><path d="M1592,1138.9375 C1592,1148.9375 1610,1148.9375 1610,1148.9375 C1610,1148.9375 1628,1148.9375 1628,1138.9375 " fill="none" style="stroke:#000000;stroke-width:1.5;"/><rect fill="#FFFFFF" filter="url(#fngomukdfqlbp)" height="959.9141" style="stroke:#A80036;stroke-width:1.0;" width="10" x="288" y="119.4297"/><rect fill="#FFFFFF" filter="url(#fngomukdfqlbp)" height="379.8594" style="stroke:#A80036;stroke-width:1.0;" width="10" x="700" y="670.3516"/><rect fill="#FFFFFF" filter="url(#fngomukdfqlbp)" height="29.1328" style="stroke:#A80036;stroke-width:1.0;" width="10" x="895" y="699.4844"/><rect fill="#FFFFFF" filter="url(#fngomukdfqlbp)" height="29.1328" style="stroke:#A80036;stroke-width:1.0;" width="10" x="1070.5" y="788.0156"/><rect fill="#FFFFFF" filter="url(#fngomukdfqlbp)" height="58.2656" style="stroke:#A80036;stroke-width:1.0;" width="10" x="1262.5" y="846.2813"/><rect fill="#FFFFFF" filter="url(#fngomukdfqlbp)" height="58.2656" style="stroke:#A80036;stroke-width:1.0;" width="10" x="1428.5" y="933.6797"/><polygon fill="#A80036" points="276,115.4297,286,119.4297,276,123.4297,280,119.4297" style="stroke:#A80036;stroke-width:1.0;"/><line style="stroke:#A80036;stroke-width:1.0;stroke-dasharray:2.0,2.0;" x1="48" x2="282" y1="119.4297" y2="119.4297"/><text fill="#000000" font-family="sans-serif" font-size="13" lengthAdjust="spacing" textLength="107" x="55" y="114.3638">Add Collaborator</text><polygon fill="#A80036" points="693,144.5625,703,148.5625,693,152.5625,697,148.5625" style="stroke:#A80036;stroke-width:1.0;"/><line style="stroke:#A80036;stroke-width:1.0;" x1="298" x2="699" y1="148.5625" y2="148.5625"/><text fill="#000000" font-family="sans-serif" font-size="13" lengthAdjust="spacing" textLength="41" x="305" y="143.4966">create</text><polygon fill="#A80036" points="59,173.6953,49,177.6953,59,181.6953,55,177.6953" style="stroke:#A80036;stroke-width:1.0;"/><line style="stroke:#A80036;stroke-width:1.0;stroke-dasharray:2.0,2.0;" x1="53" x2="287" y1="177.6953" y2="177.6953"/><text fill="#000000" font-family="sans-serif" font-size="13" lengthAdjust="spacing" textLength="181" x="65" y="172.6294">Ask collaborator information</text><polygon fill="#A80036" points="276,233.0938,286,237.0938,276,241.0938,280,237.0938" style="stroke:#A80036;stroke-width:1.0;"/><line style="stroke:#A80036;stroke-width:1.0;stroke-dasharray:2.0,2.0;" x1="48" x2="282" y1="237.0938" y2="237.0938"/><text fill="#000000" font-family="sans-serif" font-size="13" lengthAdjust="spacing" textLength="192" x="55" y="201.7622">Short Name, Complete Name,</text><text fill="#000000" font-family="sans-serif" font-size="13" lengthAdjust="spacing" textLength="208" x="59" y="216.895">E-Mail, Mechanographic Number,</text><text fill="#000000" font-family="sans-serif" font-size="13" lengthAdjust="spacing" textLength="212" x="59" y="232.0278">MobilePhone, Birth Date, Address</text><path d="M20,252.0938 L92,252.0938 L92,259.0938 L82,269.0938 L20,269.0938 L20,252.0938 " fill="#EEEEEE" style="stroke:#000000;stroke-width:1.0;"/><rect fill="none" height="90.5313" style="stroke:#000000;stroke-width:2.0;" width="374" x="20" y="252.0938"/><text fill="#000000" font-family="sans-serif" font-size="13" font-weight="bold" lengthAdjust="spacing" textLength="27" x="35" y="265.1606">opt</text><polygon fill="#A80036" points="59,301.4922,49,305.4922,59,309.4922,55,305.4922" style="stroke:#A80036;stroke-width:1.0;"/><line style="stroke:#A80036;stroke-width:1.0;stroke-dasharray:2.0,2.0;" x1="53" x2="287" y1="305.4922" y2="305.4922"/><text fill="#000000" font-family="sans-serif" font-size="13" lengthAdjust="spacing" textLength="61" x="65" y="285.2935">Show List</text><text fill="#000000" font-family="sans-serif" font-size="13" lengthAdjust="spacing" textLength="108" x="65" y="300.4263">of Role functions</text><polygon fill="#A80036" points="276,330.625,286,334.625,276,338.625,280,334.625" style="stroke:#A80036;stroke-width:1.0;"/><line style="stroke:#A80036;stroke-width:1.0;stroke-dasharray:2.0,2.0;" x1="48" x2="282" y1="334.625" y2="334.625"/><text fill="#000000" font-family="sans-serif" font-size="13" lengthAdjust="spacing" textLength="64" x="55" y="329.5591">Role Type</text><path d="M20,356.625 L92,356.625 L92,363.625 L82,373.625 L20,373.625 L20,356.625 " fill="#EEEEEE" style="stroke:#000000;stroke-width:1.0;"/><rect fill="none" height="90.5313" style="stroke:#000000;stroke-width:2.0;" width="374" x="20" y="356.625"/><text fill="#000000" font-family="sans-serif" font-size="13" font-weight="bold" lengthAdjust="spacing" textLength="27" x="35" y="369.6919">opt</text><polygon fill="#A80036" points="59,406.0234,49,410.0234,59,414.0234,55,410.0234" style="stroke:#A80036;stroke-width:1.0;"/><line style="stroke:#A80036;stroke-width:1.0;stroke-dasharray:2.0,2.0;" x1="53" x2="287" y1="410.0234" y2="410.0234"/><text fill="#000000" font-family="sans-serif" font-size="13" lengthAdjust="spacing" textLength="61" x="65" y="389.8247">Show List</text><text fill="#000000" font-family="sans-serif" font-size="13" lengthAdjust="spacing" textLength="102" x="65" y="404.9575">of Collaborators</text><polygon fill="#A80036" points="276,435.1563,286,439.1563,276,443.1563,280,439.1563" style="stroke:#A80036;stroke-width:1.0;"/><line style="stroke:#A80036;stroke-width:1.0;stroke-dasharray:2.0,2.0;" x1="48" x2="282" y1="439.1563" y2="439.1563"/><text fill="#000000" font-family="sans-serif" font-size="13" lengthAdjust="spacing" textLength="27" x="55" y="434.0903">RRH</text><polygon fill="#A80036" points="472,471.2891,482,475.2891,472,479.2891,476,475.2891" style="stroke:#A80036;stroke-width:1.0;"/><line style="stroke:#A80036;stroke-width:1.0;" x1="298" x2="478" y1="475.2891" y2="475.2891"/><text fill="#000000" font-family="sans-serif" font-size="13" lengthAdjust="spacing" textLength="87" x="305" y="470.2231">getTeamsList</text><path d="M10,490.2891 L82,490.2891 L82,497.2891 L72,507.2891 L10,507.2891 L10,490.2891 " fill="#EEEEEE" style="stroke:#000000;stroke-width:1.0;"/><rect fill="none" height="121.6641" style="stroke:#000000;stroke-width:2.0;" width="394" x="10" y="490.2891"/><text fill="#000000" font-family="sans-serif" font-size="13" font-weight="bold" lengthAdjust="spacing" textLength="27" x="25" y="503.356">opt</text><a href="option!=0" target="_top" title="option!=0" xlink:actuate="onRequest" xlink:href="option!=0" xlink:show="new" xlink:title="option!=0" xlink:type="simple"><text fill="#0000FF" font-family="sans-serif" font-size="11" font-weight="bold" lengthAdjust="spacing" text-decoration="underline" textLength="69" x="97" y="502.4995">option!=0</text></a><path d="M20,514.4219 L98,514.4219 L98,521.4219 L88,531.4219 L20,531.4219 L20,514.4219 " fill="#EEEEEE" style="stroke:#000000;stroke-width:1.0;"/><rect fill="none" height="90.5313" style="stroke:#000000;stroke-width:2.0;" width="374" x="20" y="514.4219"/><text fill="#000000" font-family="sans-serif" font-size="13" font-weight="bold" lengthAdjust="spacing" textLength="33" x="35" y="527.4888">loop</text><polygon fill="#A80036" points="59,563.8203,49,567.8203,59,571.8203,55,567.8203" style="stroke:#A80036;stroke-width:1.0;"/><line style="stroke:#A80036;stroke-width:1.0;stroke-dasharray:2.0,2.0;" x1="53" x2="287" y1="567.8203" y2="567.8203"/><text fill="#000000" font-family="sans-serif" font-size="13" lengthAdjust="spacing" textLength="61" x="65" y="547.6216">Show List</text><text fill="#000000" font-family="sans-serif" font-size="13" lengthAdjust="spacing" textLength="61" x="65" y="562.7544">of Teams</text><polygon fill="#A80036" points="276,592.9531,286,596.9531,276,600.9531,280,596.9531" style="stroke:#A80036;stroke-width:1.0;"/><line style="stroke:#A80036;stroke-width:1.0;stroke-dasharray:2.0,2.0;" x1="48" x2="282" y1="596.9531" y2="596.9531"/><text fill="#000000" font-family="sans-serif" font-size="13" lengthAdjust="spacing" textLength="37" x="55" y="591.8872">Team</text><polygon fill="#A80036" points="688,666.3516,698,670.3516,688,674.3516,692,670.3516" style="stroke:#A80036;stroke-width:1.0;"/><line style="stroke:#A80036;stroke-width:1.0;" x1="298" x2="694" y1="670.3516" y2="670.3516"/><text fill="#000000" font-family="sans-serif" font-size="13" lengthAdjust="spacing" textLength="299" x="305" y="635.02">addCollaborator(Short Name, Complete Name,</text><text fill="#000000" font-family="sans-serif" font-size="13" lengthAdjust="spacing" textLength="208" x="309" y="650.1528">E-Mail, Mechanographic Number,</text><text fill="#000000" font-family="sans-serif" font-size="13" lengthAdjust="spacing" textLength="284" x="309" y="665.2856">MobilePhone, Birth Date, Address, TeamList)</text><polygon fill="#A80036" points="883,695.4844,893,699.4844,883,703.4844,887,699.4844" style="stroke:#A80036;stroke-width:1.0;"/><line style="stroke:#A80036;stroke-width:1.0;" x1="710" x2="889" y1="699.4844" y2="699.4844"/><text fill="#000000" font-family="sans-serif" font-size="13" lengthAdjust="spacing" textLength="113" x="717" y="694.4185">createPassword()</text><polygon fill="#A80036" points="721,724.6172,711,728.6172,721,732.6172,717,728.6172" style="stroke:#A80036;stroke-width:1.0;"/><line style="stroke:#A80036;stroke-width:1.0;" x1="715" x2="899" y1="728.6172" y2="728.6172"/><text fill="#000000" font-family="sans-serif" font-size="13" lengthAdjust="spacing" textLength="72" x="727" y="723.5513">password()</text><polygon fill="#A80036" points="1058.5,784.0156,1068.5,788.0156,1058.5,792.0156,1062.5,788.0156" style="stroke:#A80036;stroke-width:1.0;"/><line style="stroke:#A80036;stroke-width:1.0;" x1="710" x2="1064.5" y1="788.0156" y2="788.0156"/><text fill="#000000" font-family="sans-serif" font-size="13" lengthAdjust="spacing" textLength="242" x="717" y="752.6841">create (Short Name, Complete Name,</text><text fill="#000000" font-family="sans-serif" font-size="13" lengthAdjust="spacing" textLength="208" x="721" y="767.8169">E-Mail, Mechanographic Number,</text><text fill="#000000" font-family="sans-serif" font-size="13" lengthAdjust="spacing" textLength="294" x="721" y="782.9497">MobilePhone, Birth Date, TeamList, password)</text><polygon fill="#A80036" points="721,813.1484,711,817.1484,721,821.1484,717,817.1484" style="stroke:#A80036;stroke-width:1.0;"/><line style="stroke:#A80036;stroke-width:1.0;" x1="715" x2="1074.5" y1="817.1484" y2="817.1484"/><text fill="#000000" font-family="sans-serif" font-size="13" lengthAdjust="spacing" textLength="78" x="727" y="812.0825">Collaborator</text><polygon fill="#A80036" points="1250.5,842.2813,1260.5,846.2813,1250.5,850.2813,1254.5,846.2813" style="stroke:#A80036;stroke-width:1.0;"/><line style="stroke:#A80036;stroke-width:1.0;" x1="710" x2="1256.5" y1="846.2813" y2="846.2813"/><text fill="#000000" font-family="sans-serif" font-size="13" lengthAdjust="spacing" textLength="85" x="717" y="841.2153">repositories()</text><polygon fill="#A80036" points="1421.5,871.4141,1431.5,875.4141,1421.5,879.4141,1425.5,875.4141" style="stroke:#A80036;stroke-width:1.0;"/><line style="stroke:#A80036;stroke-width:1.0;" x1="1272.5" x2="1427.5" y1="875.4141" y2="875.4141"/><text fill="#000000" font-family="sans-serif" font-size="13" lengthAdjust="spacing" textLength="41" x="1279.5" y="870.3481">create</text><polygon fill="#A80036" points="721,900.5469,711,904.5469,721,908.5469,717,904.5469" style="stroke:#A80036;stroke-width:1.0;"/><line style="stroke:#A80036;stroke-width:1.0;" x1="715" x2="1266.5" y1="904.5469" y2="904.5469"/><text fill="#000000" font-family="sans-serif" font-size="13" lengthAdjust="spacing" textLength="46" x="727" y="899.481">factory</text><polygon fill="#A80036" points="1416.5,929.6797,1426.5,933.6797,1416.5,937.6797,1420.5,933.6797" style="stroke:#A80036;stroke-width:1.0;"/><line style="stroke:#A80036;stroke-width:1.0;" x1="710" x2="1422.5" y1="933.6797" y2="933.6797"/><text fill="#000000" font-family="sans-serif" font-size="13" lengthAdjust="spacing" textLength="95" x="717" y="928.6138">Collaborators()</text><polygon fill="#A80036" points="1598,958.8125,1608,962.8125,1598,966.8125,1602,962.8125" style="stroke:#A80036;stroke-width:1.0;"/><line style="stroke:#A80036;stroke-width:1.0;" x1="1438.5" x2="1604" y1="962.8125" y2="962.8125"/><text fill="#000000" font-family="sans-serif" font-size="13" lengthAdjust="spacing" textLength="41" x="1445.5" y="957.7466">create</text><polygon fill="#A80036" points="721,987.9453,711,991.9453,721,995.9453,717,991.9453" style="stroke:#A80036;stroke-width:1.0;"/><line style="stroke:#A80036;stroke-width:1.0;" x1="715" x2="1432.5" y1="991.9453" y2="991.9453"/><text fill="#000000" font-family="sans-serif" font-size="13" lengthAdjust="spacing" textLength="147" x="727" y="986.8794">CollaboratorRepository</text><polygon fill="#A80036" points="1598,1017.0781,1608,1021.0781,1598,1025.0781,1602,1021.0781" style="stroke:#A80036;stroke-width:1.0;"/><line style="stroke:#A80036;stroke-width:1.0;" x1="710" x2="1604" y1="1021.0781" y2="1021.0781"/><text fill="#000000" font-family="sans-serif" font-size="13" lengthAdjust="spacing" textLength="119" x="717" y="1016.0122">save(Collaborator)</text><polygon fill="#A80036" points="309,1046.2109,299,1050.2109,309,1054.2109,305,1050.2109" style="stroke:#A80036;stroke-width:1.0;"/><line style="stroke:#A80036;stroke-width:1.0;" x1="303" x2="704" y1="1050.2109" y2="1050.2109"/><text fill="#000000" font-family="sans-serif" font-size="13" lengthAdjust="spacing" textLength="78" x="315" y="1045.145">Collaborator</text><polygon fill="#A80036" points="59,1075.3438,49,1079.3438,59,1083.3438,55,1079.3438" style="stroke:#A80036;stroke-width:1.0;"/><line style="stroke:#A80036;stroke-width:1.0;stroke-dasharray:2.0,2.0;" x1="53" x2="292" y1="1079.3438" y2="1079.3438"/><text fill="#000000" font-family="sans-serif" font-size="13" lengthAdjust="spacing" textLength="154" x="65" y="1074.2778">displayCollaboratorsInfo</text><!--MD5=[1473cc9c793082887af284125b9bb8ad]
@startuml
actor HRR as Actor
participant RegisterCollaboratorUI as UI <<presentation>>
participant CreateTeamController as ControllerT <<application>>
participant RegisterCollaboratorController as Controller <<application>>
participant "ScriptPassword" as script <<domain>>
participant "Collaborator:Collaborator" as Domain <<domain>>
participant PersistenceContext as Persistence <<persistence>>
participant RepositoryFactory as Factory <<factory>>
database CollaboratorsRepository as Repository <<repository>>

Actor - -> UI: Add Collaborator
activate UI
    UI -> Controller: create
    UI - -> Actor: Ask collaborator information
    Actor - -> UI: Short Name, Complete Name,\n E-Mail, Mechanographic Number,\n MobilePhone, Birth Date, Address

    opt
    UI - -> Actor: Show List\nof Role functions
    Actor - -> UI: Role Type
    end

    opt
    UI - -> Actor: Show List\nof Collaborators
    Actor - -> UI: RRH
    end
    
    UI -> ControllerT: getTeamsList
    
    opt [option!=0]
    loop
    UI - -> Actor: Show List\nof Teams
    Actor - -> UI: Team
    end
    end

    UI -> Controller: addCollaborator(Short Name, Complete Name,\n E-Mail, Mechanographic Number,\n MobilePhone, Birth Date, Address, TeamList)

    activate Controller
        Controller -> script: createPassword()
        activate script
         script -> Controller: password()
         deactivate script
            Controller -> Domain: create (Short Name, Complete Name,\n E-Mail, Mechanographic Number,\n MobilePhone, Birth Date, TeamList, password)
            activate Domain
            Domain->Controller: Collaborator
            deactivate Domain
            

        Controller -> Persistence: repositories()
        activate Persistence
            Persistence -> Factory: create
            Persistence -> Controller: factory
        deactivate Persistence

        Controller -> Factory: Collaborators()
        activate Factory
            Factory -> Repository: create
            Factory -> Controller: CollaboratorRepository
        deactivate Factory

        Controller->Repository:save(Collaborator)
        Controller->UI: Collaborator
    deactivate Controller

        UI- ->Actor: displayCollaboratorsInfo
deactivate UI
@enduml

PlantUML version 1.2021.5(Sun Apr 25 11:20:28 UTC 2021)
(GPL source distribution)
Java Runtime: Java(TM) SE Runtime Environment
JVM: Java HotSpot(TM) 64-Bit Server VM
Default Encoding: UTF-8
Language: en
Country: US
--></g></svg>