<?xml version="1.0" encoding="UTF-8" standalone="no"?><svg xmlns="http://www.w3.org/2000/svg" xmlns:xlink="http://www.w3.org/1999/xlink" contentScriptType="application/ecmascript" contentStyleType="text/css" height="764px" preserveAspectRatio="none" style="width:1674px;height:764px;background:#FFFFFF;" version="1.1" viewBox="0 0 1674 764" width="1674px" zoomAndPan="magnify"><defs><filter height="300%" id="fzp4n6f85b4fv" width="300%" x="-1" y="-1"><feGaussianBlur result="blurOut" stdDeviation="2.0"/><feColorMatrix in="blurOut" result="blurOut2" type="matrix" values="0 0 0 0 0 0 0 0 0 0 0 0 0 0 0 0 0 0 .4 0"/><feOffset dx="4.0" dy="4.0" in="blurOut2" result="blurOut3"/><feBlend in="SourceGraphic" in2="blurOut3" mode="normal"/></filter></defs><g><rect fill="#FFFFFF" filter="url(#fzp4n6f85b4fv)" height="600.6563" style="stroke:#A80036;stroke-width:1.0;" width="10" x="85" y="77.2969"/><rect fill="#FFFFFF" filter="url(#fzp4n6f85b4fv)" height="275.1953" style="stroke:#A80036;stroke-width:1.0;" width="10" x="265.5" y="98.4297"/><rect fill="#FFFFFF" filter="url(#fzp4n6f85b4fv)" height="275.1953" style="stroke:#A80036;stroke-width:1.0;" width="10" x="445.5" y="402.7578"/><rect fill="#FFFFFF" filter="url(#fzp4n6f85b4fv)" height="208.9297" style="stroke:#A80036;stroke-width:1.0;" width="10" x="645.5" y="164.6953"/><rect fill="#FFFFFF" filter="url(#fzp4n6f85b4fv)" height="208.9297" style="stroke:#A80036;stroke-width:1.0;" width="10" x="800.5" y="469.0234"/><line style="stroke:#A80036;stroke-width:1.0;stroke-dasharray:5.0,5.0;" x1="90" x2="90" y1="67.2969" y2="695.9531"/><line style="stroke:#A80036;stroke-width:1.0;stroke-dasharray:5.0,5.0;" x1="270" x2="270" y1="67.2969" y2="695.9531"/><line style="stroke:#A80036;stroke-width:1.0;stroke-dasharray:5.0,5.0;" x1="450" x2="450" y1="67.2969" y2="695.9531"/><line style="stroke:#A80036;stroke-width:1.0;stroke-dasharray:5.0,5.0;" x1="650.5" x2="650.5" y1="67.2969" y2="695.9531"/><line style="stroke:#A80036;stroke-width:1.0;stroke-dasharray:5.0,5.0;" x1="805.5" x2="805.5" y1="67.2969" y2="695.9531"/><line style="stroke:#A80036;stroke-width:1.0;stroke-dasharray:5.0,5.0;" x1="967.5" x2="967.5" y1="67.2969" y2="695.9531"/><line style="stroke:#A80036;stroke-width:1.0;stroke-dasharray:5.0,5.0;" x1="1094.5" x2="1094.5" y1="67.2969" y2="695.9531"/><line style="stroke:#A80036;stroke-width:1.0;stroke-dasharray:5.0,5.0;" x1="1176.5" x2="1176.5" y1="67.2969" y2="695.9531"/><line style="stroke:#A80036;stroke-width:1.0;stroke-dasharray:5.0,5.0;" x1="1291.5" x2="1291.5" y1="67.2969" y2="695.9531"/><line style="stroke:#A80036;stroke-width:1.0;stroke-dasharray:5.0,5.0;" x1="1443.5" x2="1443.5" y1="67.2969" y2="695.9531"/><line style="stroke:#A80036;stroke-width:1.0;stroke-dasharray:5.0,5.0;" x1="1599.5" x2="1599.5" y1="67.2969" y2="695.9531"/><rect fill="#FEFECE" filter="url(#fzp4n6f85b4fv)" height="30.2969" style="stroke:#A80036;stroke-width:1.5;" width="166" x="5" y="32"/><text fill="#000000" font-family="sans-serif" font-size="14" lengthAdjust="spacing" textLength="152" x="12" y="51.9951">FactoryBootstrapper</text><rect fill="#FEFECE" filter="url(#fzp4n6f85b4fv)" height="30.2969" style="stroke:#A80036;stroke-width:1.5;" width="166" x="5" y="694.9531"/><text fill="#000000" font-family="sans-serif" font-size="14" lengthAdjust="spacing" textLength="152" x="12" y="714.9482">FactoryBootstrapper</text><rect fill="#FEFECE" filter="url(#fzp4n6f85b4fv)" height="30.2969" style="stroke:#A80036;stroke-width:1.5;" width="167" x="185" y="32"/><text fill="#000000" font-family="sans-serif" font-size="14" lengthAdjust="spacing" textLength="153" x="192" y="51.9951">CatalogBootstrapper</text><rect fill="#FEFECE" filter="url(#fzp4n6f85b4fv)" height="30.2969" style="stroke:#A80036;stroke-width:1.5;" width="167" x="185" y="694.9531"/><text fill="#000000" font-family="sans-serif" font-size="14" lengthAdjust="spacing" textLength="153" x="192" y="714.9482">CatalogBootstrapper</text><rect fill="#FEFECE" filter="url(#fzp4n6f85b4fv)" height="30.2969" style="stroke:#A80036;stroke-width:1.5;" width="165" x="366" y="32"/><text fill="#000000" font-family="sans-serif" font-size="14" lengthAdjust="spacing" textLength="151" x="373" y="51.9951">ServiceBootstrapper</text><rect fill="#FEFECE" filter="url(#fzp4n6f85b4fv)" height="30.2969" style="stroke:#A80036;stroke-width:1.5;" width="165" x="366" y="694.9531"/><text fill="#000000" font-family="sans-serif" font-size="14" lengthAdjust="spacing" textLength="151" x="373" y="714.9482">ServiceBootstrapper</text><rect fill="#FEFECE" filter="url(#fzp4n6f85b4fv)" height="30.2969" style="stroke:#A80036;stroke-width:1.5;" width="142" x="577.5" y="32"/><text fill="#000000" font-family="sans-serif" font-size="14" lengthAdjust="spacing" textLength="128" x="584.5" y="51.9951">CatalogController</text><rect fill="#FEFECE" filter="url(#fzp4n6f85b4fv)" height="30.2969" style="stroke:#A80036;stroke-width:1.5;" width="142" x="577.5" y="694.9531"/><text fill="#000000" font-family="sans-serif" font-size="14" lengthAdjust="spacing" textLength="128" x="584.5" y="714.9482">CatalogController</text><rect fill="#FEFECE" filter="url(#fzp4n6f85b4fv)" height="30.2969" style="stroke:#A80036;stroke-width:1.5;" width="140" x="733.5" y="32"/><text fill="#000000" font-family="sans-serif" font-size="14" lengthAdjust="spacing" textLength="126" x="740.5" y="51.9951">ServiceController</text><rect fill="#FEFECE" filter="url(#fzp4n6f85b4fv)" height="30.2969" style="stroke:#A80036;stroke-width:1.5;" width="140" x="733.5" y="694.9531"/><text fill="#000000" font-family="sans-serif" font-size="14" lengthAdjust="spacing" textLength="126" x="740.5" y="714.9482">ServiceController</text><rect fill="#FEFECE" filter="url(#fzp4n6f85b4fv)" height="30.2969" style="stroke:#A80036;stroke-width:1.5;" width="157" x="887.5" y="32"/><text fill="#000000" font-family="sans-serif" font-size="14" lengthAdjust="spacing" textLength="143" x="894.5" y="51.9951">PersistenceContext</text><rect fill="#FEFECE" filter="url(#fzp4n6f85b4fv)" height="30.2969" style="stroke:#A80036;stroke-width:1.5;" width="157" x="887.5" y="694.9531"/><text fill="#000000" font-family="sans-serif" font-size="14" lengthAdjust="spacing" textLength="143" x="894.5" y="714.9482">PersistenceContext</text><rect fill="#FEFECE" filter="url(#fzp4n6f85b4fv)" height="30.2969" style="stroke:#A80036;stroke-width:1.5;" width="69" x="1058.5" y="32"/><text fill="#000000" font-family="sans-serif" font-size="14" lengthAdjust="spacing" textLength="55" x="1065.5" y="51.9951">Catalog</text><rect fill="#FEFECE" filter="url(#fzp4n6f85b4fv)" height="30.2969" style="stroke:#A80036;stroke-width:1.5;" width="69" x="1058.5" y="694.9531"/><text fill="#000000" font-family="sans-serif" font-size="14" lengthAdjust="spacing" textLength="55" x="1065.5" y="714.9482">Catalog</text><rect fill="#FEFECE" filter="url(#fzp4n6f85b4fv)" height="30.2969" style="stroke:#A80036;stroke-width:1.5;" width="67" x="1141.5" y="32"/><text fill="#000000" font-family="sans-serif" font-size="14" lengthAdjust="spacing" textLength="53" x="1148.5" y="51.9951">Service</text><rect fill="#FEFECE" filter="url(#fzp4n6f85b4fv)" height="30.2969" style="stroke:#A80036;stroke-width:1.5;" width="67" x="1141.5" y="694.9531"/><text fill="#000000" font-family="sans-serif" font-size="14" lengthAdjust="spacing" textLength="53" x="1148.5" y="714.9482">Service</text><text fill="#000000" font-family="sans-serif" font-size="14" lengthAdjust="spacing" textLength="133" x="1222.5" y="63.9951">RepositoryFactory</text><path d="M1274,15 C1274,5 1292,5 1292,5 C1292,5 1310,5 1310,15 L1310,41 C1310,51 1292,51 1292,51 C1292,51 1274,51 1274,41 L1274,15 " fill="#FEFECE" filter="url(#fzp4n6f85b4fv)" style="stroke:#000000;stroke-width:1.5;"/><path d="M1274,15 C1274,25 1292,25 1292,25 C1292,25 1310,25 1310,15 " fill="none" style="stroke:#000000;stroke-width:1.5;"/><text fill="#000000" font-family="sans-serif" font-size="14" lengthAdjust="spacing" textLength="133" x="1222.5" y="707.9482">RepositoryFactory</text><path d="M1274,721.25 C1274,711.25 1292,711.25 1292,711.25 C1292,711.25 1310,711.25 1310,721.25 L1310,747.25 C1310,757.25 1292,757.25 1292,757.25 C1292,757.25 1274,757.25 1274,747.25 L1274,721.25 " fill="#FEFECE" filter="url(#fzp4n6f85b4fv)" style="stroke:#000000;stroke-width:1.5;"/><path d="M1274,721.25 C1274,731.25 1292,731.25 1292,731.25 C1292,731.25 1310,731.25 1310,721.25 " fill="none" style="stroke:#000000;stroke-width:1.5;"/><text fill="#000000" font-family="sans-serif" font-size="14" lengthAdjust="spacing" textLength="139" x="1371.5" y="63.9951">ServicesRepository</text><path d="M1426,15 C1426,5 1444,5 1444,5 C1444,5 1462,5 1462,15 L1462,41 C1462,51 1444,51 1444,51 C1444,51 1426,51 1426,41 L1426,15 " fill="#FEFECE" filter="url(#fzp4n6f85b4fv)" style="stroke:#000000;stroke-width:1.5;"/><path d="M1426,15 C1426,25 1444,25 1444,25 C1444,25 1462,25 1462,15 " fill="none" style="stroke:#000000;stroke-width:1.5;"/><text fill="#000000" font-family="sans-serif" font-size="14" lengthAdjust="spacing" textLength="139" x="1371.5" y="707.9482">ServicesRepository</text><path d="M1426,721.25 C1426,711.25 1444,711.25 1444,711.25 C1444,711.25 1462,711.25 1462,721.25 L1462,747.25 C1462,757.25 1444,757.25 1444,757.25 C1444,757.25 1426,757.25 1426,747.25 L1426,721.25 " fill="#FEFECE" filter="url(#fzp4n6f85b4fv)" style="stroke:#000000;stroke-width:1.5;"/><path d="M1426,721.25 C1426,731.25 1444,731.25 1444,731.25 C1444,731.25 1462,731.25 1462,721.25 " fill="none" style="stroke:#000000;stroke-width:1.5;"/><text fill="#000000" font-family="sans-serif" font-size="14" lengthAdjust="spacing" textLength="141" x="1526.5" y="63.9951">CatalogsRepository</text><path d="M1582,15 C1582,5 1600,5 1600,5 C1600,5 1618,5 1618,15 L1618,41 C1618,51 1600,51 1600,51 C1600,51 1582,51 1582,41 L1582,15 " fill="#FEFECE" filter="url(#fzp4n6f85b4fv)" style="stroke:#000000;stroke-width:1.5;"/><path d="M1582,15 C1582,25 1600,25 1600,25 C1600,25 1618,25 1618,15 " fill="none" style="stroke:#000000;stroke-width:1.5;"/><text fill="#000000" font-family="sans-serif" font-size="14" lengthAdjust="spacing" textLength="141" x="1526.5" y="707.9482">CatalogsRepository</text><path d="M1582,721.25 C1582,711.25 1600,711.25 1600,711.25 C1600,711.25 1618,711.25 1618,721.25 L1618,747.25 C1618,757.25 1600,757.25 1600,757.25 C1600,757.25 1582,757.25 1582,747.25 L1582,721.25 " fill="#FEFECE" filter="url(#fzp4n6f85b4fv)" style="stroke:#000000;stroke-width:1.5;"/><path d="M1582,721.25 C1582,731.25 1600,731.25 1600,731.25 C1600,731.25 1618,731.25 1618,721.25 " fill="none" style="stroke:#000000;stroke-width:1.5;"/><rect fill="#FFFFFF" filter="url(#fzp4n6f85b4fv)" height="600.6563" style="stroke:#A80036;stroke-width:1.0;" width="10" x="85" y="77.2969"/><rect fill="#FFFFFF" filter="url(#fzp4n6f85b4fv)" height="275.1953" style="stroke:#A80036;stroke-width:1.0;" width="10" x="265.5" y="98.4297"/><rect fill="#FFFFFF" filter="url(#fzp4n6f85b4fv)" height="275.1953" style="stroke:#A80036;stroke-width:1.0;" width="10" x="445.5" y="402.7578"/><rect fill="#FFFFFF" filter="url(#fzp4n6f85b4fv)" height="208.9297" style="stroke:#A80036;stroke-width:1.0;" width="10" x="645.5" y="164.6953"/><rect fill="#FFFFFF" filter="url(#fzp4n6f85b4fv)" height="208.9297" style="stroke:#A80036;stroke-width:1.0;" width="10" x="800.5" y="469.0234"/><polygon fill="#A80036" points="253.5,94.4297,263.5,98.4297,253.5,102.4297,257.5,98.4297" style="stroke:#A80036;stroke-width:1.0;"/><line style="stroke:#A80036;stroke-width:1.0;" x1="95" x2="259.5" y1="98.4297" y2="98.4297"/><text fill="#000000" font-family="sans-serif" font-size="13" lengthAdjust="spacing" textLength="51" x="102" y="93.3638">create()</text><polygon fill="#A80036" points="253.5,123.5625,263.5,127.5625,253.5,131.5625,257.5,127.5625" style="stroke:#A80036;stroke-width:1.0;"/><line style="stroke:#A80036;stroke-width:1.0;" x1="95" x2="259.5" y1="127.5625" y2="127.5625"/><text fill="#000000" font-family="sans-serif" font-size="13" lengthAdjust="spacing" textLength="62" x="102" y="122.4966">execute()</text><line style="stroke:#A80036;stroke-width:1.0;" x1="275.5" x2="322.5" y1="151.6953" y2="151.6953"/><line style="stroke:#A80036;stroke-width:1.0;" x1="322.5" x2="322.5" y1="151.6953" y2="164.6953"/><line style="stroke:#A80036;stroke-width:1.0;" x1="281.5" x2="322.5" y1="164.6953" y2="164.6953"/><polygon fill="#A80036" points="291.5,160.6953,281.5,164.6953,291.5,168.6953,287.5,164.6953" style="stroke:#A80036;stroke-width:1.0;"/><text fill="#000000" font-family="sans-serif" font-size="13" lengthAdjust="spacing" textLength="150" x="287.5" y="146.6294">register(Long identifier)</text><polygon fill="#A80036" points="633.5,194.8281,643.5,198.8281,633.5,202.8281,637.5,198.8281" style="stroke:#A80036;stroke-width:1.0;"/><line style="stroke:#A80036;stroke-width:1.0;" x1="275.5" x2="639.5" y1="198.8281" y2="198.8281"/><text fill="#000000" font-family="sans-serif" font-size="13" lengthAdjust="spacing" textLength="51" x="282.5" y="193.7622">create()</text><polygon fill="#A80036" points="956,223.9609,966,227.9609,956,231.9609,960,227.9609" style="stroke:#A80036;stroke-width:1.0;"/><line style="stroke:#A80036;stroke-width:1.0;" x1="655.5" x2="962" y1="227.9609" y2="227.9609"/><text fill="#000000" font-family="sans-serif" font-size="13" lengthAdjust="spacing" textLength="85" x="662.5" y="222.895">repositories()</text><polygon fill="#A80036" points="1280,253.0938,1290,257.0938,1280,261.0938,1284,257.0938" style="stroke:#A80036;stroke-width:1.0;"/><line style="stroke:#A80036;stroke-width:1.0;" x1="968" x2="1286" y1="257.0938" y2="257.0938"/><text fill="#000000" font-family="sans-serif" font-size="13" lengthAdjust="spacing" textLength="51" x="975" y="252.0278">create()</text><polygon fill="#A80036" points="1588,282.2266,1598,286.2266,1588,290.2266,1592,286.2266" style="stroke:#A80036;stroke-width:1.0;"/><line style="stroke:#A80036;stroke-width:1.0;" x1="1292" x2="1594" y1="286.2266" y2="286.2266"/><text fill="#000000" font-family="sans-serif" font-size="13" lengthAdjust="spacing" textLength="51" x="1299" y="281.1606">create()</text><polygon fill="#A80036" points="633.5,311.3594,643.5,315.3594,633.5,319.3594,637.5,315.3594" style="stroke:#A80036;stroke-width:1.0;"/><line style="stroke:#A80036;stroke-width:1.0;" x1="275.5" x2="639.5" y1="315.3594" y2="315.3594"/><text fill="#000000" font-family="sans-serif" font-size="13" lengthAdjust="spacing" textLength="205" x="282.5" y="310.2935">RegisterCatalog(all parameters)</text><polygon fill="#A80036" points="1083,340.4922,1093,344.4922,1083,348.4922,1087,344.4922" style="stroke:#A80036;stroke-width:1.0;"/><line style="stroke:#A80036;stroke-width:1.0;" x1="655.5" x2="1089" y1="344.4922" y2="344.4922"/><text fill="#000000" font-family="sans-serif" font-size="13" lengthAdjust="spacing" textLength="238" x="662.5" y="339.4263">newCatalog = create(all parameters)</text><polygon fill="#A80036" points="1588,369.625,1598,373.625,1588,377.625,1592,373.625" style="stroke:#A80036;stroke-width:1.0;"/><line style="stroke:#A80036;stroke-width:1.0;" x1="650.5" x2="1594" y1="373.625" y2="373.625"/><text fill="#000000" font-family="sans-serif" font-size="13" lengthAdjust="spacing" textLength="117" x="657.5" y="368.5591">save(newCatalog)</text><polygon fill="#A80036" points="433.5,398.7578,443.5,402.7578,433.5,406.7578,437.5,402.7578" style="stroke:#A80036;stroke-width:1.0;"/><line style="stroke:#A80036;stroke-width:1.0;" x1="95" x2="439.5" y1="402.7578" y2="402.7578"/><text fill="#000000" font-family="sans-serif" font-size="13" lengthAdjust="spacing" textLength="51" x="102" y="397.6919">create()</text><polygon fill="#A80036" points="433.5,427.8906,443.5,431.8906,433.5,435.8906,437.5,431.8906" style="stroke:#A80036;stroke-width:1.0;"/><line style="stroke:#A80036;stroke-width:1.0;" x1="95" x2="439.5" y1="431.8906" y2="431.8906"/><text fill="#000000" font-family="sans-serif" font-size="13" lengthAdjust="spacing" textLength="62" x="102" y="426.8247">execute()</text><line style="stroke:#A80036;stroke-width:1.0;" x1="455.5" x2="502.5" y1="456.0234" y2="456.0234"/><line style="stroke:#A80036;stroke-width:1.0;" x1="502.5" x2="502.5" y1="456.0234" y2="469.0234"/><line style="stroke:#A80036;stroke-width:1.0;" x1="461.5" x2="502.5" y1="469.0234" y2="469.0234"/><polygon fill="#A80036" points="471.5,465.0234,461.5,469.0234,471.5,473.0234,467.5,469.0234" style="stroke:#A80036;stroke-width:1.0;"/><text fill="#000000" font-family="sans-serif" font-size="13" lengthAdjust="spacing" textLength="176" x="467.5" y="450.9575">register(String uniqueCode)</text><polygon fill="#A80036" points="788.5,499.1563,798.5,503.1563,788.5,507.1563,792.5,503.1563" style="stroke:#A80036;stroke-width:1.0;"/><line style="stroke:#A80036;stroke-width:1.0;" x1="455.5" x2="794.5" y1="503.1563" y2="503.1563"/><text fill="#000000" font-family="sans-serif" font-size="13" lengthAdjust="spacing" textLength="51" x="462.5" y="498.0903">create()</text><polygon fill="#A80036" points="956,528.2891,966,532.2891,956,536.2891,960,532.2891" style="stroke:#A80036;stroke-width:1.0;"/><line style="stroke:#A80036;stroke-width:1.0;" x1="810.5" x2="962" y1="532.2891" y2="532.2891"/><text fill="#000000" font-family="sans-serif" font-size="13" lengthAdjust="spacing" textLength="85" x="817.5" y="527.2231">repositories()</text><polygon fill="#A80036" points="1280,557.4219,1290,561.4219,1280,565.4219,1284,561.4219" style="stroke:#A80036;stroke-width:1.0;"/><line style="stroke:#A80036;stroke-width:1.0;" x1="968" x2="1286" y1="561.4219" y2="561.4219"/><text fill="#000000" font-family="sans-serif" font-size="13" lengthAdjust="spacing" textLength="51" x="975" y="556.356">create()</text><polygon fill="#A80036" points="1432,586.5547,1442,590.5547,1432,594.5547,1436,590.5547" style="stroke:#A80036;stroke-width:1.0;"/><line style="stroke:#A80036;stroke-width:1.0;" x1="1292" x2="1438" y1="590.5547" y2="590.5547"/><text fill="#000000" font-family="sans-serif" font-size="13" lengthAdjust="spacing" textLength="51" x="1299" y="585.4888">create()</text><polygon fill="#A80036" points="788.5,615.6875,798.5,619.6875,788.5,623.6875,792.5,619.6875" style="stroke:#A80036;stroke-width:1.0;"/><line style="stroke:#A80036;stroke-width:1.0;" x1="455.5" x2="794.5" y1="619.6875" y2="619.6875"/><text fill="#000000" font-family="sans-serif" font-size="13" lengthAdjust="spacing" textLength="203" x="462.5" y="614.6216">RegisterService(all parameters)</text><polygon fill="#A80036" points="1165,644.8203,1175,648.8203,1165,652.8203,1169,648.8203" style="stroke:#A80036;stroke-width:1.0;"/><line style="stroke:#A80036;stroke-width:1.0;" x1="810.5" x2="1171" y1="648.8203" y2="648.8203"/><text fill="#000000" font-family="sans-serif" font-size="13" lengthAdjust="spacing" textLength="236" x="817.5" y="643.7544">newService = create(all parameters)</text><polygon fill="#A80036" points="1432,673.9531,1442,677.9531,1432,681.9531,1436,677.9531" style="stroke:#A80036;stroke-width:1.0;"/><line style="stroke:#A80036;stroke-width:1.0;" x1="805.5" x2="1438" y1="677.9531" y2="677.9531"/><text fill="#000000" font-family="sans-serif" font-size="13" lengthAdjust="spacing" textLength="115" x="812.5" y="672.8872">save(newService)</text><!--MD5=[d11360424448e0b054f64d80aef837b3]
@startuml
participant FactoryBootstrapper as FB
participant CatalogBootstrapper as BC
participant ServiceBootstrapper as BS
participant CatalogController as ControllerC 
participant ServiceController as ControllerS 
participant PersistenceContext as Persistence 
participant Catalog as CA
participant Service as SE
database RepositoryFactory as Factory 
database CatalogsRepository as Repository
database ServicesRepository as Repository2


activate FB
FB -> BC : create()
activate BC
FB -> BC : execute()


BC -> BC : register(Long identifier)
activate ControllerC
BC -> ControllerC : create()


ControllerC -> Persistence : repositories()


Persistence -> Factory : create()
database Repository 
Factory -> Repository : create()

BC -> ControllerC : RegisterCatalog(all parameters)
ControllerC -> CA : newCatalog = create(all parameters)



ControllerC -> Repository : save(newCatalog)
deactivate ControllerC
deactivate BC 


FB -> BS : create()
activate BS
FB -> BS : execute()

BS -> BS : register(String uniqueCode)
activate ControllerS
BS -> ControllerS : create()


ControllerS -> Persistence : repositories()


Persistence -> Factory : create()
database Repository 
Factory -> Repository2 : create()

BS -> ControllerS : RegisterService(all parameters)
ControllerS -> SE : newService = create(all parameters)


ControllerS -> Repository2 : save(newService)
deactivate ControllerS
deactivate BS 
deactivate FB
@enduml

PlantUML version 1.2021.6beta6(Unknown compile time)
(GPL source distribution)
Java Runtime: Java(TM) SE Runtime Environment
JVM: Java HotSpot(TM) 64-Bit Server VM
Default Encoding: UTF-8
Language: en
Country: US
--></g></svg>