<?xml version="1.0" encoding="UTF-8" standalone="no"?><svg xmlns="http://www.w3.org/2000/svg" xmlns:xlink="http://www.w3.org/1999/xlink" contentScriptType="application/ecmascript" contentStyleType="text/css" height="1337px" preserveAspectRatio="none" style="width:672px;height:1337px;" version="1.1" viewBox="0 0 672 1337" width="672px" zoomAndPan="magnify"><defs><filter height="300%" id="f1dmtzjoprndw9" width="300%" x="-1" y="-1"><feGaussianBlur result="blurOut" stdDeviation="2.0"/><feColorMatrix in="blurOut" result="blurOut2" type="matrix" values="0 0 0 0 0 0 0 0 0 0 0 0 0 0 0 0 0 0 .4 0"/><feOffset dx="4.0" dy="4.0" in="blurOut2" result="blurOut3"/><feBlend in="SourceGraphic" in2="blurOut3" mode="normal"/></filter></defs><g><!--MD5=[9681dc6e01e10c6b4fe06895ae94f592]
cluster UI--><polygon fill="#FFFFFF" filter="url(#f1dmtzjoprndw9)" points="188,6,210,6,217,28.2969,346,28.2969,346,105,188,105,188,6" style="stroke:#000000;stroke-width:1.5;"/><line style="stroke:#000000;stroke-width:1.5;" x1="188" x2="217" y1="28.2969" y2="28.2969"/><text fill="#000000" font-family="sans-serif" font-size="14" font-weight="bold" lengthAdjust="spacing" textLength="16" x="192" y="20.9951">UI</text><!--MD5=[ed1d20ea533a2a0e7df5ba3c35e56ced]
cluster Controllers--><polygon fill="#FFFFFF" filter="url(#f1dmtzjoprndw9)" points="108,138,204,138,211,160.2969,426,160.2969,426,391,108,391,108,138" style="stroke:#000000;stroke-width:1.5;"/><line style="stroke:#000000;stroke-width:1.5;" x1="108" x2="211" y1="160.2969" y2="160.2969"/><text fill="#000000" font-family="sans-serif" font-size="14" font-weight="bold" lengthAdjust="spacing" textLength="90" x="112" y="152.9951">Controllers</text><!--MD5=[121a8bf1197281ab89ed693fab589f94]
cluster Domain--><polygon fill="#FFFFFF" filter="url(#f1dmtzjoprndw9)" points="16,424,83,424,90,446.2969,655,446.2969,655,1330,16,1330,16,424" style="stroke:#000000;stroke-width:1.5;"/><line style="stroke:#000000;stroke-width:1.5;" x1="16" x2="90" y1="446.2969" y2="446.2969"/><text fill="#000000" font-family="sans-serif" font-size="14" font-weight="bold" lengthAdjust="spacing" textLength="61" x="20" y="438.9951">Domain</text><!--MD5=[e1df557a82bc5e599254cc6c344b13bd]
class MakeDeliveryUI--><rect codeLine="25" fill="#FEFECE" filter="url(#f1dmtzjoprndw9)" height="48" id="MakeDeliveryUI" style="stroke:#A80036;stroke-width:1.5;" width="126" x="204" y="41"/><ellipse cx="219" cy="57" fill="#ADD1B2" rx="11" ry="11" style="stroke:#A80036;stroke-width:1.0;"/><path d="M221.3438,52.6719 C220.4063,52.2344 219.8125,52.0938 218.9375,52.0938 C216.3125,52.0938 214.3125,54.1719 214.3125,56.8906 L214.3125,58.0156 C214.3125,60.5938 216.4219,62.4844 219.3125,62.4844 C220.5313,62.4844 221.6875,62.1875 222.4375,61.6406 C223.0156,61.2344 223.3438,60.7813 223.3438,60.3906 C223.3438,59.9375 222.9531,59.5469 222.4844,59.5469 C222.2656,59.5469 222.0625,59.625 221.875,59.8125 C221.4219,60.2969 221.4219,60.2969 221.2344,60.3906 C220.8125,60.6563 220.125,60.7813 219.3594,60.7813 C217.3125,60.7813 216.0156,59.6875 216.0156,57.9844 L216.0156,56.8906 C216.0156,55.1094 217.2656,53.7969 219,53.7969 C219.5781,53.7969 220.1875,53.9531 220.6563,54.2031 C221.1406,54.4844 221.3125,54.7031 221.4063,55.1094 C221.4688,55.5156 221.5,55.6406 221.6406,55.7656 C221.7813,55.9063 222.0156,56.0156 222.2344,56.0156 C222.5,56.0156 222.7656,55.875 222.9375,55.6563 C223.0469,55.5 223.0781,55.3125 223.0781,54.8906 L223.0781,53.4688 C223.0781,53.0313 223.0625,52.9063 222.9688,52.75 C222.8125,52.4844 222.5313,52.3438 222.2344,52.3438 C221.9375,52.3438 221.7344,52.4375 221.5156,52.75 L221.3438,52.6719 Z " fill="#000000"/><text fill="#000000" font-family="sans-serif" font-size="12" lengthAdjust="spacing" textLength="94" x="233" y="61.1543">MakeDeliveryUI</text><line style="stroke:#A80036;stroke-width:1.5;" x1="205" x2="329" y1="73" y2="73"/><line style="stroke:#A80036;stroke-width:1.5;" x1="205" x2="329" y1="81" y2="81"/><!--MD5=[4607d7ff5e0981f9e1bd80fa108a382a]
class MakeDeliveryController--><rect codeLine="62" fill="#FEFECE" filter="url(#f1dmtzjoprndw9)" height="201.6563" id="MakeDeliveryController" style="stroke:#A80036;stroke-width:1.5;" width="285" x="124.5" y="173"/><ellipse cx="192.25" cy="189" fill="#ADD1B2" rx="11" ry="11" style="stroke:#A80036;stroke-width:1.0;"/><path d="M194.5938,184.6719 C193.6563,184.2344 193.0625,184.0938 192.1875,184.0938 C189.5625,184.0938 187.5625,186.1719 187.5625,188.8906 L187.5625,190.0156 C187.5625,192.5938 189.6719,194.4844 192.5625,194.4844 C193.7813,194.4844 194.9375,194.1875 195.6875,193.6406 C196.2656,193.2344 196.5938,192.7813 196.5938,192.3906 C196.5938,191.9375 196.2031,191.5469 195.7344,191.5469 C195.5156,191.5469 195.3125,191.625 195.125,191.8125 C194.6719,192.2969 194.6719,192.2969 194.4844,192.3906 C194.0625,192.6563 193.375,192.7813 192.6094,192.7813 C190.5625,192.7813 189.2656,191.6875 189.2656,189.9844 L189.2656,188.8906 C189.2656,187.1094 190.5156,185.7969 192.25,185.7969 C192.8281,185.7969 193.4375,185.9531 193.9063,186.2031 C194.3906,186.4844 194.5625,186.7031 194.6563,187.1094 C194.7188,187.5156 194.75,187.6406 194.8906,187.7656 C195.0313,187.9063 195.2656,188.0156 195.4844,188.0156 C195.75,188.0156 196.0156,187.875 196.1875,187.6563 C196.2969,187.5 196.3281,187.3125 196.3281,186.8906 L196.3281,185.4688 C196.3281,185.0313 196.3125,184.9063 196.2188,184.75 C196.0625,184.4844 195.7813,184.3438 195.4844,184.3438 C195.1875,184.3438 194.9844,184.4375 194.7656,184.75 L194.5938,184.6719 Z " fill="#000000"/><text fill="#000000" font-family="sans-serif" font-size="12" lengthAdjust="spacing" textLength="141" x="212.75" y="193.1543">MakeDeliveryController</text><line style="stroke:#A80036;stroke-width:1.5;" x1="125.5" x2="408.5" y1="205" y2="205"/><line style="stroke:#A80036;stroke-width:1.5;" x1="125.5" x2="408.5" y1="213" y2="213"/><text fill="#000000" font-family="sans-serif" font-size="11" lengthAdjust="spacing" textLength="110" x="130.5" y="227.2104">+getPharmacyList()</text><text fill="#000000" font-family="sans-serif" font-size="11" lengthAdjust="spacing" textLength="152" x="130.5" y="240.0151">+getPharmacy(parmacyID)</text><text fill="#000000" font-family="sans-serif" font-size="11" lengthAdjust="spacing" textLength="99" x="130.5" y="252.8198">+getScooterList()</text><text fill="#000000" font-family="sans-serif" font-size="11" lengthAdjust="spacing" textLength="180" x="130.5" y="265.6245">+getScooter(exclusiveNumber)</text><text fill="#000000" font-family="sans-serif" font-size="11" lengthAdjust="spacing" textLength="96" x="130.5" y="278.4292">+getCourierList()</text><text fill="#000000" font-family="sans-serif" font-size="11" lengthAdjust="spacing" textLength="91" x="130.5" y="291.2339">+getCourier(nif)</text><text fill="#000000" font-family="sans-serif" font-size="11" lengthAdjust="spacing" textLength="90" x="130.5" y="304.0386">+getDroneList()</text><text fill="#000000" font-family="sans-serif" font-size="11" lengthAdjust="spacing" textLength="81" x="130.5" y="316.8433">+getDrone(id)</text><text fill="#000000" font-family="sans-serif" font-size="11" lengthAdjust="spacing" textLength="104" x="130.5" y="329.6479">+getDeliveryList()</text><text fill="#000000" font-family="sans-serif" font-size="11" lengthAdjust="spacing" textLength="145" x="130.5" y="342.4526">+getChoosenDelivery(id)</text><text fill="#000000" font-family="sans-serif" font-size="11" lengthAdjust="spacing" textLength="273" x="130.5" y="355.2573">+addDeliverySelected(delivery,scooter,courier)</text><text fill="#000000" font-family="sans-serif" font-size="11" lengthAdjust="spacing" textLength="222" x="130.5" y="368.062">+addDeliverySelected(delivery,drone)</text><!--MD5=[99b8db98afdc2c8404e39242ef4c1e65]
class Platform--><rect codeLine="77" fill="#FEFECE" filter="url(#f1dmtzjoprndw9)" height="86.4141" id="Platform" style="stroke:#A80036;stroke-width:1.5;" width="122" x="32" y="465.5"/><ellipse cx="65.9" cy="481.5" fill="#ADD1B2" rx="11" ry="11" style="stroke:#A80036;stroke-width:1.0;"/><path d="M68.2438,477.1719 C67.3063,476.7344 66.7125,476.5938 65.8375,476.5938 C63.2125,476.5938 61.2125,478.6719 61.2125,481.3906 L61.2125,482.5156 C61.2125,485.0938 63.3219,486.9844 66.2125,486.9844 C67.4313,486.9844 68.5875,486.6875 69.3375,486.1406 C69.9156,485.7344 70.2438,485.2813 70.2438,484.8906 C70.2438,484.4375 69.8531,484.0469 69.3844,484.0469 C69.1656,484.0469 68.9625,484.125 68.775,484.3125 C68.3219,484.7969 68.3219,484.7969 68.1344,484.8906 C67.7125,485.1563 67.025,485.2813 66.2594,485.2813 C64.2125,485.2813 62.9156,484.1875 62.9156,482.4844 L62.9156,481.3906 C62.9156,479.6094 64.1656,478.2969 65.9,478.2969 C66.4781,478.2969 67.0875,478.4531 67.5563,478.7031 C68.0406,478.9844 68.2125,479.2031 68.3063,479.6094 C68.3688,480.0156 68.4,480.1406 68.5406,480.2656 C68.6813,480.4063 68.9156,480.5156 69.1344,480.5156 C69.4,480.5156 69.6656,480.375 69.8375,480.1563 C69.9469,480 69.9781,479.8125 69.9781,479.3906 L69.9781,477.9688 C69.9781,477.5313 69.9625,477.4063 69.8688,477.25 C69.7125,476.9844 69.4313,476.8438 69.1344,476.8438 C68.8375,476.8438 68.6344,476.9375 68.4156,477.25 L68.2438,477.1719 Z " fill="#000000"/><text fill="#000000" font-family="sans-serif" font-size="12" lengthAdjust="spacing" textLength="48" x="84.1" y="485.6543">Platform</text><line style="stroke:#A80036;stroke-width:1.5;" x1="33" x2="153" y1="497.5" y2="497.5"/><line style="stroke:#A80036;stroke-width:1.5;" x1="33" x2="153" y1="505.5" y2="505.5"/><text fill="#000000" font-family="sans-serif" font-size="11" lengthAdjust="spacing" textLength="110" x="38" y="519.7104">+getPharmacyList()</text><text fill="#000000" font-family="sans-serif" font-size="11" lengthAdjust="spacing" textLength="96" x="38" y="532.5151">+getCourierList()</text><text fill="#000000" font-family="sans-serif" font-size="11" lengthAdjust="spacing" textLength="104" x="38" y="545.3198">+getDeliveryList()</text><!--MD5=[9e412867e2230207caa378eacef9b685]
class DeliveryList--><rect codeLine="111" fill="#FEFECE" filter="url(#f1dmtzjoprndw9)" height="99.2188" id="DeliveryList" style="stroke:#A80036;stroke-width:1.5;" width="450" x="189" y="459"/><ellipse cx="374.75" cy="475" fill="#ADD1B2" rx="11" ry="11" style="stroke:#A80036;stroke-width:1.0;"/><path d="M377.0938,470.6719 C376.1563,470.2344 375.5625,470.0938 374.6875,470.0938 C372.0625,470.0938 370.0625,472.1719 370.0625,474.8906 L370.0625,476.0156 C370.0625,478.5938 372.1719,480.4844 375.0625,480.4844 C376.2813,480.4844 377.4375,480.1875 378.1875,479.6406 C378.7656,479.2344 379.0938,478.7813 379.0938,478.3906 C379.0938,477.9375 378.7031,477.5469 378.2344,477.5469 C378.0156,477.5469 377.8125,477.625 377.625,477.8125 C377.1719,478.2969 377.1719,478.2969 376.9844,478.3906 C376.5625,478.6563 375.875,478.7813 375.1094,478.7813 C373.0625,478.7813 371.7656,477.6875 371.7656,475.9844 L371.7656,474.8906 C371.7656,473.1094 373.0156,471.7969 374.75,471.7969 C375.3281,471.7969 375.9375,471.9531 376.4063,472.2031 C376.8906,472.4844 377.0625,472.7031 377.1563,473.1094 C377.2188,473.5156 377.25,473.6406 377.3906,473.7656 C377.5313,473.9063 377.7656,474.0156 377.9844,474.0156 C378.25,474.0156 378.5156,473.875 378.6875,473.6563 C378.7969,473.5 378.8281,473.3125 378.8281,472.8906 L378.8281,471.4688 C378.8281,471.0313 378.8125,470.9063 378.7188,470.75 C378.5625,470.4844 378.2813,470.3438 377.9844,470.3438 C377.6875,470.3438 377.4844,470.4375 377.2656,470.75 L377.0938,470.6719 Z " fill="#000000"/><text fill="#000000" font-family="sans-serif" font-size="12" lengthAdjust="spacing" textLength="70" x="395.25" y="479.1543">DeliveryList</text><line style="stroke:#A80036;stroke-width:1.5;" x1="190" x2="638" y1="491" y2="491"/><line style="stroke:#A80036;stroke-width:1.5;" x1="190" x2="638" y1="499" y2="499"/><text fill="#000000" font-family="sans-serif" font-size="11" lengthAdjust="spacing" textLength="166" x="195" y="513.2104">+getDeliveryListPharmacy(p)</text><text fill="#000000" font-family="sans-serif" font-size="11" lengthAdjust="spacing" textLength="109" x="195" y="526.0151">+verifyDelivery(id)</text><text fill="#000000" font-family="sans-serif" font-size="11" lengthAdjust="spacing" textLength="438" x="195" y="538.8198">+getEnergySpentInScooterDelivery(distance, scooter, deliveryListPharmacy)</text><text fill="#000000" font-family="sans-serif" font-size="11" lengthAdjust="spacing" textLength="420" x="195" y="551.6245">+getEnergySpentInDroneDelivery(distance, drone, deliveryListPharmacy)</text><!--MD5=[fff5db4abcb6eec6574b9ea9c3ee0eae]
class Delivery--><rect codeLine="103" fill="#FEFECE" filter="url(#f1dmtzjoprndw9)" height="112.0234" id="Delivery" style="stroke:#A80036;stroke-width:1.5;" width="131" x="400.5" y="635"/><ellipse cx="437.55" cy="651" fill="#ADD1B2" rx="11" ry="11" style="stroke:#A80036;stroke-width:1.0;"/><path d="M439.8938,646.6719 C438.9563,646.2344 438.3625,646.0938 437.4875,646.0938 C434.8625,646.0938 432.8625,648.1719 432.8625,650.8906 L432.8625,652.0156 C432.8625,654.5938 434.9719,656.4844 437.8625,656.4844 C439.0813,656.4844 440.2375,656.1875 440.9875,655.6406 C441.5656,655.2344 441.8938,654.7813 441.8938,654.3906 C441.8938,653.9375 441.5031,653.5469 441.0344,653.5469 C440.8156,653.5469 440.6125,653.625 440.425,653.8125 C439.9719,654.2969 439.9719,654.2969 439.7844,654.3906 C439.3625,654.6563 438.675,654.7813 437.9094,654.7813 C435.8625,654.7813 434.5656,653.6875 434.5656,651.9844 L434.5656,650.8906 C434.5656,649.1094 435.8156,647.7969 437.55,647.7969 C438.1281,647.7969 438.7375,647.9531 439.2063,648.2031 C439.6906,648.4844 439.8625,648.7031 439.9563,649.1094 C440.0188,649.5156 440.05,649.6406 440.1906,649.7656 C440.3313,649.9063 440.5656,650.0156 440.7844,650.0156 C441.05,650.0156 441.3156,649.875 441.4875,649.6563 C441.5969,649.5 441.6281,649.3125 441.6281,648.8906 L441.6281,647.4688 C441.6281,647.0313 441.6125,646.9063 441.5188,646.75 C441.3625,646.4844 441.0813,646.3438 440.7844,646.3438 C440.4875,646.3438 440.2844,646.4375 440.0656,646.75 L439.8938,646.6719 Z " fill="#000000"/><text fill="#000000" font-family="sans-serif" font-size="12" lengthAdjust="spacing" textLength="50" x="456.45" y="655.1543">Delivery</text><line style="stroke:#A80036;stroke-width:1.5;" x1="401.5" x2="530.5" y1="667" y2="667"/><text fill="#000000" font-family="sans-serif" font-size="11" lengthAdjust="spacing" textLength="51" x="406.5" y="681.2104">-String id</text><text fill="#000000" font-family="sans-serif" font-size="11" lengthAdjust="spacing" textLength="113" x="406.5" y="694.0151">-date date_delivery</text><text fill="#000000" font-family="sans-serif" font-size="11" lengthAdjust="spacing" textLength="112" x="406.5" y="706.8198">-double totalWeight</text><text fill="#000000" font-family="sans-serif" font-size="11" lengthAdjust="spacing" textLength="90" x="406.5" y="719.6245">-Invoice invoice</text><text fill="#000000" font-family="sans-serif" font-size="11" lengthAdjust="spacing" textLength="119" x="406.5" y="732.4292">-Pharmacy pharmacy</text><line style="stroke:#A80036;stroke-width:1.5;" x1="401.5" x2="530.5" y1="739.0234" y2="739.0234"/><!--MD5=[cec89c727fbcef50c1f468f5118fb168]
class AvailableScooterList--><rect codeLine="89" fill="#FEFECE" filter="url(#f1dmtzjoprndw9)" height="73.6094" id="AvailableScooterList" style="stroke:#A80036;stroke-width:1.5;" width="192" x="32" y="1051"/><ellipse cx="64.1" cy="1067" fill="#ADD1B2" rx="11" ry="11" style="stroke:#A80036;stroke-width:1.0;"/><path d="M66.4438,1062.6719 C65.5063,1062.2344 64.9125,1062.0938 64.0375,1062.0938 C61.4125,1062.0938 59.4125,1064.1719 59.4125,1066.8906 L59.4125,1068.0156 C59.4125,1070.5938 61.5219,1072.4844 64.4125,1072.4844 C65.6313,1072.4844 66.7875,1072.1875 67.5375,1071.6406 C68.1156,1071.2344 68.4438,1070.7813 68.4438,1070.3906 C68.4438,1069.9375 68.0531,1069.5469 67.5844,1069.5469 C67.3656,1069.5469 67.1625,1069.625 66.975,1069.8125 C66.5219,1070.2969 66.5219,1070.2969 66.3344,1070.3906 C65.9125,1070.6563 65.225,1070.7813 64.4594,1070.7813 C62.4125,1070.7813 61.1156,1069.6875 61.1156,1067.9844 L61.1156,1066.8906 C61.1156,1065.1094 62.3656,1063.7969 64.1,1063.7969 C64.6781,1063.7969 65.2875,1063.9531 65.7563,1064.2031 C66.2406,1064.4844 66.4125,1064.7031 66.5063,1065.1094 C66.5688,1065.5156 66.6,1065.6406 66.7406,1065.7656 C66.8813,1065.9063 67.1156,1066.0156 67.3344,1066.0156 C67.6,1066.0156 67.8656,1065.875 68.0375,1065.6563 C68.1469,1065.5 68.1781,1065.3125 68.1781,1064.8906 L68.1781,1063.4688 C68.1781,1063.0313 68.1625,1062.9063 68.0688,1062.75 C67.9125,1062.4844 67.6313,1062.3438 67.3344,1062.3438 C67.0375,1062.3438 66.8344,1062.4375 66.6156,1062.75 L66.4438,1062.6719 Z " fill="#000000"/><text fill="#000000" font-family="sans-serif" font-size="12" lengthAdjust="spacing" textLength="122" x="81.9" y="1071.1543">AvailableScooterList</text><line style="stroke:#A80036;stroke-width:1.5;" x1="33" x2="223" y1="1083" y2="1083"/><line style="stroke:#A80036;stroke-width:1.5;" x1="33" x2="223" y1="1091" y2="1091"/><text fill="#000000" font-family="sans-serif" font-size="11" lengthAdjust="spacing" textLength="99" x="38" y="1105.2104">+getScooterList()</text><text fill="#000000" font-family="sans-serif" font-size="11" lengthAdjust="spacing" textLength="180" x="38" y="1118.0151">+getScooter(exclusiveNumber)</text><!--MD5=[8050ef462d77cf220fd706493bc05cc9]
class PharmacyList--><rect codeLine="83" fill="#FEFECE" filter="url(#f1dmtzjoprndw9)" height="86.4141" id="PharmacyList" style="stroke:#A80036;stroke-width:1.5;" width="171" x="32.5" y="648"/><ellipse cx="75.4" cy="664" fill="#ADD1B2" rx="11" ry="11" style="stroke:#A80036;stroke-width:1.0;"/><path d="M77.7438,659.6719 C76.8063,659.2344 76.2125,659.0938 75.3375,659.0938 C72.7125,659.0938 70.7125,661.1719 70.7125,663.8906 L70.7125,665.0156 C70.7125,667.5938 72.8219,669.4844 75.7125,669.4844 C76.9313,669.4844 78.0875,669.1875 78.8375,668.6406 C79.4156,668.2344 79.7438,667.7813 79.7438,667.3906 C79.7438,666.9375 79.3531,666.5469 78.8844,666.5469 C78.6656,666.5469 78.4625,666.625 78.275,666.8125 C77.8219,667.2969 77.8219,667.2969 77.6344,667.3906 C77.2125,667.6563 76.525,667.7813 75.7594,667.7813 C73.7125,667.7813 72.4156,666.6875 72.4156,664.9844 L72.4156,663.8906 C72.4156,662.1094 73.6656,660.7969 75.4,660.7969 C75.9781,660.7969 76.5875,660.9531 77.0563,661.2031 C77.5406,661.4844 77.7125,661.7031 77.8063,662.1094 C77.8688,662.5156 77.9,662.6406 78.0406,662.7656 C78.1813,662.9063 78.4156,663.0156 78.6344,663.0156 C78.9,663.0156 79.1656,662.875 79.3375,662.6563 C79.4469,662.5 79.4781,662.3125 79.4781,661.8906 L79.4781,660.4688 C79.4781,660.0313 79.4625,659.9063 79.3688,659.75 C79.2125,659.4844 78.9313,659.3438 78.6344,659.3438 C78.3375,659.3438 78.1344,659.4375 77.9156,659.75 L77.7438,659.6719 Z " fill="#000000"/><text fill="#000000" font-family="sans-serif" font-size="12" lengthAdjust="spacing" textLength="77" x="95.6" y="668.1543">PharmacyList</text><line style="stroke:#A80036;stroke-width:1.5;" x1="33.5" x2="202.5" y1="680" y2="680"/><line style="stroke:#A80036;stroke-width:1.5;" x1="33.5" x2="202.5" y1="688" y2="688"/><text fill="#000000" font-family="sans-serif" font-size="11" lengthAdjust="spacing" textLength="159" x="38.5" y="702.2104">+getPharmacy(pharmacyID)</text><text fill="#000000" font-family="sans-serif" font-size="11" lengthAdjust="spacing" textLength="159" x="38.5" y="715.0151">+getAvailableScooterList(p)</text><text fill="#000000" font-family="sans-serif" font-size="11" lengthAdjust="spacing" textLength="90" x="38.5" y="727.8198">+getDroneList()</text><!--MD5=[7f2a9fafcebe4f099f71398fd3e2ed00]
class Pharmacy--><rect codeLine="28" fill="#FEFECE" filter="url(#f1dmtzjoprndw9)" height="150.4375" id="Pharmacy" style="stroke:#A80036;stroke-width:1.5;" width="152" x="49" y="824"/><ellipse cx="92.35" cy="840" fill="#ADD1B2" rx="11" ry="11" style="stroke:#A80036;stroke-width:1.0;"/><path d="M94.6938,835.6719 C93.7563,835.2344 93.1625,835.0938 92.2875,835.0938 C89.6625,835.0938 87.6625,837.1719 87.6625,839.8906 L87.6625,841.0156 C87.6625,843.5938 89.7719,845.4844 92.6625,845.4844 C93.8813,845.4844 95.0375,845.1875 95.7875,844.6406 C96.3656,844.2344 96.6938,843.7813 96.6938,843.3906 C96.6938,842.9375 96.3031,842.5469 95.8344,842.5469 C95.6156,842.5469 95.4125,842.625 95.225,842.8125 C94.7719,843.2969 94.7719,843.2969 94.5844,843.3906 C94.1625,843.6563 93.475,843.7813 92.7094,843.7813 C90.6625,843.7813 89.3656,842.6875 89.3656,840.9844 L89.3656,839.8906 C89.3656,838.1094 90.6156,836.7969 92.35,836.7969 C92.9281,836.7969 93.5375,836.9531 94.0063,837.2031 C94.4906,837.4844 94.6625,837.7031 94.7563,838.1094 C94.8188,838.5156 94.85,838.6406 94.9906,838.7656 C95.1313,838.9063 95.3656,839.0156 95.5844,839.0156 C95.85,839.0156 96.1156,838.875 96.2875,838.6563 C96.3969,838.5 96.4281,838.3125 96.4281,837.8906 L96.4281,836.4688 C96.4281,836.0313 96.4125,835.9063 96.3188,835.75 C96.1625,835.4844 95.8813,835.3438 95.5844,835.3438 C95.2875,835.3438 95.0844,835.4375 94.8656,835.75 L94.6938,835.6719 Z " fill="#000000"/><text fill="#000000" font-family="sans-serif" font-size="12" lengthAdjust="spacing" textLength="57" x="112.65" y="844.1543">Pharmacy</text><line style="stroke:#A80036;stroke-width:1.5;" x1="50" x2="200" y1="856" y2="856"/><text fill="#000000" font-family="sans-serif" font-size="11" lengthAdjust="spacing" textLength="51" x="55" y="870.2104">-String id</text><text fill="#000000" font-family="sans-serif" font-size="11" lengthAdjust="spacing" textLength="107" x="55" y="883.0151">-String designation</text><text fill="#000000" font-family="sans-serif" font-size="11" lengthAdjust="spacing" textLength="73" x="55" y="895.8198">-String email</text><text fill="#000000" font-family="sans-serif" font-size="11" lengthAdjust="spacing" textLength="94" x="55" y="908.6245">-String password</text><text fill="#000000" font-family="sans-serif" font-size="11" lengthAdjust="spacing" textLength="85" x="55" y="921.4292">-Adress adress</text><text fill="#000000" font-family="sans-serif" font-size="11" lengthAdjust="spacing" textLength="89" x="55" y="934.2339">-ParkingLot park</text><text fill="#000000" font-family="sans-serif" font-size="11" lengthAdjust="spacing" textLength="78" x="55" y="947.0386">-ProductList pl</text><text fill="#000000" font-family="sans-serif" font-size="11" lengthAdjust="spacing" textLength="140" x="55" y="959.8433">-AvailableScooterList asl</text><line style="stroke:#A80036;stroke-width:1.5;" x1="50" x2="200" y1="966.4375" y2="966.4375"/><!--MD5=[f4402668d5d5bb8485350c0fdb60ac8e]
class Scooter--><rect codeLine="54" fill="#FEFECE" filter="url(#f1dmtzjoprndw9)" height="112.0234" id="Scooter" style="stroke:#A80036;stroke-width:1.5;" width="161" x="46.5" y="1202"/><ellipse cx="98.75" cy="1218" fill="#ADD1B2" rx="11" ry="11" style="stroke:#A80036;stroke-width:1.0;"/><path d="M101.0938,1213.6719 C100.1563,1213.2344 99.5625,1213.0938 98.6875,1213.0938 C96.0625,1213.0938 94.0625,1215.1719 94.0625,1217.8906 L94.0625,1219.0156 C94.0625,1221.5938 96.1719,1223.4844 99.0625,1223.4844 C100.2813,1223.4844 101.4375,1223.1875 102.1875,1222.6406 C102.7656,1222.2344 103.0938,1221.7813 103.0938,1221.3906 C103.0938,1220.9375 102.7031,1220.5469 102.2344,1220.5469 C102.0156,1220.5469 101.8125,1220.625 101.625,1220.8125 C101.1719,1221.2969 101.1719,1221.2969 100.9844,1221.3906 C100.5625,1221.6563 99.875,1221.7813 99.1094,1221.7813 C97.0625,1221.7813 95.7656,1220.6875 95.7656,1218.9844 L95.7656,1217.8906 C95.7656,1216.1094 97.0156,1214.7969 98.75,1214.7969 C99.3281,1214.7969 99.9375,1214.9531 100.4063,1215.2031 C100.8906,1215.4844 101.0625,1215.7031 101.1563,1216.1094 C101.2188,1216.5156 101.25,1216.6406 101.3906,1216.7656 C101.5313,1216.9063 101.7656,1217.0156 101.9844,1217.0156 C102.25,1217.0156 102.5156,1216.875 102.6875,1216.6563 C102.7969,1216.5 102.8281,1216.3125 102.8281,1215.8906 L102.8281,1214.4688 C102.8281,1214.0313 102.8125,1213.9063 102.7188,1213.75 C102.5625,1213.4844 102.2813,1213.3438 101.9844,1213.3438 C101.6875,1213.3438 101.4844,1213.4375 101.2656,1213.75 L101.0938,1213.6719 Z " fill="#000000"/><text fill="#000000" font-family="sans-serif" font-size="12" lengthAdjust="spacing" textLength="48" x="119.25" y="1222.1543">Scooter</text><line style="stroke:#A80036;stroke-width:1.5;" x1="47.5" x2="206.5" y1="1234" y2="1234"/><text fill="#000000" font-family="sans-serif" font-size="11" lengthAdjust="spacing" textLength="149" x="52.5" y="1248.2104">-Integer exclusiveNumber</text><text fill="#000000" font-family="sans-serif" font-size="11" lengthAdjust="spacing" textLength="107" x="52.5" y="1261.0151">-Double fullCharge</text><text fill="#000000" font-family="sans-serif" font-size="11" lengthAdjust="spacing" textLength="130" x="52.5" y="1273.8198">-Double currentCharge</text><text fill="#000000" font-family="sans-serif" font-size="11" lengthAdjust="spacing" textLength="84" x="52.5" y="1286.6245">-Double power</text><text fill="#000000" font-family="sans-serif" font-size="11" lengthAdjust="spacing" textLength="119" x="52.5" y="1299.4292">-Boolean operational</text><line style="stroke:#A80036;stroke-width:1.5;" x1="47.5" x2="206.5" y1="1306.0234" y2="1306.0234"/><!--MD5=[c6a2171c11447acbe08a3dfeee0e1710]
class Courier--><rect codeLine="39" fill="#FEFECE" filter="url(#f1dmtzjoprndw9)" height="112.0234" id="Courier" style="stroke:#A80036;stroke-width:1.5;" width="177" x="236.5" y="843"/><ellipse cx="298.75" cy="859" fill="#ADD1B2" rx="11" ry="11" style="stroke:#A80036;stroke-width:1.0;"/><path d="M301.0938,854.6719 C300.1563,854.2344 299.5625,854.0938 298.6875,854.0938 C296.0625,854.0938 294.0625,856.1719 294.0625,858.8906 L294.0625,860.0156 C294.0625,862.5938 296.1719,864.4844 299.0625,864.4844 C300.2813,864.4844 301.4375,864.1875 302.1875,863.6406 C302.7656,863.2344 303.0938,862.7813 303.0938,862.3906 C303.0938,861.9375 302.7031,861.5469 302.2344,861.5469 C302.0156,861.5469 301.8125,861.625 301.625,861.8125 C301.1719,862.2969 301.1719,862.2969 300.9844,862.3906 C300.5625,862.6563 299.875,862.7813 299.1094,862.7813 C297.0625,862.7813 295.7656,861.6875 295.7656,859.9844 L295.7656,858.8906 C295.7656,857.1094 297.0156,855.7969 298.75,855.7969 C299.3281,855.7969 299.9375,855.9531 300.4063,856.2031 C300.8906,856.4844 301.0625,856.7031 301.1563,857.1094 C301.2188,857.5156 301.25,857.6406 301.3906,857.7656 C301.5313,857.9063 301.7656,858.0156 301.9844,858.0156 C302.25,858.0156 302.5156,857.875 302.6875,857.6563 C302.7969,857.5 302.8281,857.3125 302.8281,856.8906 L302.8281,855.4688 C302.8281,855.0313 302.8125,854.9063 302.7188,854.75 C302.5625,854.4844 302.2813,854.3438 301.9844,854.3438 C301.6875,854.3438 301.4844,854.4375 301.2656,854.75 L301.0938,854.6719 Z " fill="#000000"/><text fill="#000000" font-family="sans-serif" font-size="12" lengthAdjust="spacing" textLength="44" x="319.25" y="863.1543">Courier</text><line style="stroke:#A80036;stroke-width:1.5;" x1="237.5" x2="412.5" y1="875" y2="875"/><text fill="#000000" font-family="sans-serif" font-size="11" lengthAdjust="spacing" textLength="58" x="242.5" y="889.2104">-String NIF</text><text fill="#000000" font-family="sans-serif" font-size="11" lengthAdjust="spacing" textLength="74" x="242.5" y="902.0151">-String name</text><text fill="#000000" font-family="sans-serif" font-size="11" lengthAdjust="spacing" textLength="94" x="242.5" y="914.8198">-String password</text><text fill="#000000" font-family="sans-serif" font-size="11" lengthAdjust="spacing" textLength="73" x="242.5" y="927.6245">-String email</text><text fill="#000000" font-family="sans-serif" font-size="11" lengthAdjust="spacing" textLength="165" x="242.5" y="940.4292">-String socialSecurityNumber</text><line style="stroke:#A80036;stroke-width:1.5;" x1="237.5" x2="412.5" y1="947.0234" y2="947.0234"/><!--MD5=[2e3f1e60e74253ff42e47f8bfdb04ee2]
class Drone--><rect codeLine="47" fill="#FEFECE" filter="url(#f1dmtzjoprndw9)" height="99.2188" id="Drone" style="stroke:#A80036;stroke-width:1.5;" width="142" x="243" y="1208.5"/><ellipse cx="291.25" cy="1224.5" fill="#ADD1B2" rx="11" ry="11" style="stroke:#A80036;stroke-width:1.0;"/><path d="M293.5938,1220.1719 C292.6563,1219.7344 292.0625,1219.5938 291.1875,1219.5938 C288.5625,1219.5938 286.5625,1221.6719 286.5625,1224.3906 L286.5625,1225.5156 C286.5625,1228.0938 288.6719,1229.9844 291.5625,1229.9844 C292.7813,1229.9844 293.9375,1229.6875 294.6875,1229.1406 C295.2656,1228.7344 295.5938,1228.2813 295.5938,1227.8906 C295.5938,1227.4375 295.2031,1227.0469 294.7344,1227.0469 C294.5156,1227.0469 294.3125,1227.125 294.125,1227.3125 C293.6719,1227.7969 293.6719,1227.7969 293.4844,1227.8906 C293.0625,1228.1563 292.375,1228.2813 291.6094,1228.2813 C289.5625,1228.2813 288.2656,1227.1875 288.2656,1225.4844 L288.2656,1224.3906 C288.2656,1222.6094 289.5156,1221.2969 291.25,1221.2969 C291.8281,1221.2969 292.4375,1221.4531 292.9063,1221.7031 C293.3906,1221.9844 293.5625,1222.2031 293.6563,1222.6094 C293.7188,1223.0156 293.75,1223.1406 293.8906,1223.2656 C294.0313,1223.4063 294.2656,1223.5156 294.4844,1223.5156 C294.75,1223.5156 295.0156,1223.375 295.1875,1223.1563 C295.2969,1223 295.3281,1222.8125 295.3281,1222.3906 L295.3281,1220.9688 C295.3281,1220.5313 295.3125,1220.4063 295.2188,1220.25 C295.0625,1219.9844 294.7813,1219.8438 294.4844,1219.8438 C294.1875,1219.8438 293.9844,1219.9375 293.7656,1220.25 L293.5938,1220.1719 Z " fill="#000000"/><text fill="#000000" font-family="sans-serif" font-size="12" lengthAdjust="spacing" textLength="37" x="311.75" y="1228.6543">Drone</text><line style="stroke:#A80036;stroke-width:1.5;" x1="244" x2="384" y1="1240.5" y2="1240.5"/><text fill="#000000" font-family="sans-serif" font-size="11" lengthAdjust="spacing" textLength="59" x="249" y="1254.7104">-Integer id</text><text fill="#000000" font-family="sans-serif" font-size="11" lengthAdjust="spacing" textLength="107" x="249" y="1267.5151">-Double fullCharge</text><text fill="#000000" font-family="sans-serif" font-size="11" lengthAdjust="spacing" textLength="130" x="249" y="1280.3198">-Double currentCharge</text><text fill="#000000" font-family="sans-serif" font-size="11" lengthAdjust="spacing" textLength="84" x="249" y="1293.1245">-Double power</text><line style="stroke:#A80036;stroke-width:1.5;" x1="244" x2="384" y1="1299.7188" y2="1299.7188"/><!--MD5=[ab4e45abc500e50bc21e9f155afe7709]
class RegisterCourier--><rect codeLine="94" fill="#FEFECE" filter="url(#f1dmtzjoprndw9)" height="60.8047" id="RegisterCourier" style="stroke:#A80036;stroke-width:1.5;" width="126" x="239" y="660.5"/><ellipse cx="254" cy="676.5" fill="#ADD1B2" rx="11" ry="11" style="stroke:#A80036;stroke-width:1.0;"/><path d="M256.3438,672.1719 C255.4063,671.7344 254.8125,671.5938 253.9375,671.5938 C251.3125,671.5938 249.3125,673.6719 249.3125,676.3906 L249.3125,677.5156 C249.3125,680.0938 251.4219,681.9844 254.3125,681.9844 C255.5313,681.9844 256.6875,681.6875 257.4375,681.1406 C258.0156,680.7344 258.3438,680.2813 258.3438,679.8906 C258.3438,679.4375 257.9531,679.0469 257.4844,679.0469 C257.2656,679.0469 257.0625,679.125 256.875,679.3125 C256.4219,679.7969 256.4219,679.7969 256.2344,679.8906 C255.8125,680.1563 255.125,680.2813 254.3594,680.2813 C252.3125,680.2813 251.0156,679.1875 251.0156,677.4844 L251.0156,676.3906 C251.0156,674.6094 252.2656,673.2969 254,673.2969 C254.5781,673.2969 255.1875,673.4531 255.6563,673.7031 C256.1406,673.9844 256.3125,674.2031 256.4063,674.6094 C256.4688,675.0156 256.5,675.1406 256.6406,675.2656 C256.7813,675.4063 257.0156,675.5156 257.2344,675.5156 C257.5,675.5156 257.7656,675.375 257.9375,675.1563 C258.0469,675 258.0781,674.8125 258.0781,674.3906 L258.0781,672.9688 C258.0781,672.5313 258.0625,672.4063 257.9688,672.25 C257.8125,671.9844 257.5313,671.8438 257.2344,671.8438 C256.9375,671.8438 256.7344,671.9375 256.5156,672.25 L256.3438,672.1719 Z " fill="#000000"/><text fill="#000000" font-family="sans-serif" font-size="12" lengthAdjust="spacing" textLength="94" x="268" y="680.6543">RegisterCourier</text><line style="stroke:#A80036;stroke-width:1.5;" x1="240" x2="364" y1="692.5" y2="692.5"/><line style="stroke:#A80036;stroke-width:1.5;" x1="240" x2="364" y1="700.5" y2="700.5"/><text fill="#000000" font-family="sans-serif" font-size="11" lengthAdjust="spacing" textLength="91" x="245" y="714.7104">+getCourier(nif)</text><!--MD5=[d558a649e44dbd2287038447096fc941]
class DroneList--><rect codeLine="98" fill="#FEFECE" filter="url(#f1dmtzjoprndw9)" height="73.6094" id="DroneList" style="stroke:#A80036;stroke-width:1.5;" width="108" x="260" y="1051"/><ellipse cx="283.55" cy="1067" fill="#ADD1B2" rx="11" ry="11" style="stroke:#A80036;stroke-width:1.0;"/><path d="M285.8938,1062.6719 C284.9563,1062.2344 284.3625,1062.0938 283.4875,1062.0938 C280.8625,1062.0938 278.8625,1064.1719 278.8625,1066.8906 L278.8625,1068.0156 C278.8625,1070.5938 280.9719,1072.4844 283.8625,1072.4844 C285.0813,1072.4844 286.2375,1072.1875 286.9875,1071.6406 C287.5656,1071.2344 287.8938,1070.7813 287.8938,1070.3906 C287.8938,1069.9375 287.5031,1069.5469 287.0344,1069.5469 C286.8156,1069.5469 286.6125,1069.625 286.425,1069.8125 C285.9719,1070.2969 285.9719,1070.2969 285.7844,1070.3906 C285.3625,1070.6563 284.675,1070.7813 283.9094,1070.7813 C281.8625,1070.7813 280.5656,1069.6875 280.5656,1067.9844 L280.5656,1066.8906 C280.5656,1065.1094 281.8156,1063.7969 283.55,1063.7969 C284.1281,1063.7969 284.7375,1063.9531 285.2063,1064.2031 C285.6906,1064.4844 285.8625,1064.7031 285.9563,1065.1094 C286.0188,1065.5156 286.05,1065.6406 286.1906,1065.7656 C286.3313,1065.9063 286.5656,1066.0156 286.7844,1066.0156 C287.05,1066.0156 287.3156,1065.875 287.4875,1065.6563 C287.5969,1065.5 287.6281,1065.3125 287.6281,1064.8906 L287.6281,1063.4688 C287.6281,1063.0313 287.6125,1062.9063 287.5188,1062.75 C287.3625,1062.4844 287.0813,1062.3438 286.7844,1062.3438 C286.4875,1062.3438 286.2844,1062.4375 286.0656,1062.75 L285.8938,1062.6719 Z " fill="#000000"/><text fill="#000000" font-family="sans-serif" font-size="12" lengthAdjust="spacing" textLength="57" x="299.45" y="1071.1543">DroneList</text><line style="stroke:#A80036;stroke-width:1.5;" x1="261" x2="367" y1="1083" y2="1083"/><line style="stroke:#A80036;stroke-width:1.5;" x1="261" x2="367" y1="1091" y2="1091"/><text fill="#000000" font-family="sans-serif" font-size="11" lengthAdjust="spacing" textLength="87" x="266" y="1105.2104">+getCourier(id)</text><text fill="#000000" font-family="sans-serif" font-size="11" lengthAdjust="spacing" textLength="96" x="266" y="1118.0151">+getCourierList()</text><!--MD5=[e5137f4a64ef481826abdbfdef48e03c]
link MakeDeliveryUI to MakeDeliveryController--><path codeLine="118" d="M267,89.34 C267,108.83 267,138.1 267,167.57 " fill="none" id="MakeDeliveryUI-to-MakeDeliveryController" style="stroke:#A80036;stroke-width:1.0;stroke-dasharray:7.0,7.0;"/><polygon fill="#A80036" points="267,172.68,271,163.68,267,167.68,263,163.68,267,172.68" style="stroke:#A80036;stroke-width:1.0;"/><!--MD5=[609bcfc69672a60d79ad5fdb7420f4bf]
link MakeDeliveryController to Platform--><path codeLine="120" d="M191.946,375.288 C169.6,405.146 146.183,436.437 127.742,461.078 " fill="none" id="MakeDeliveryController-to-Platform" style="stroke:#A80036;stroke-width:1.0;stroke-dasharray:7.0,7.0;"/><polygon fill="#A80036" points="124.592,465.286,133.1871,460.4772,127.5879,461.2829,126.7821,455.6837,124.592,465.286" style="stroke:#A80036;stroke-width:1.0;"/><!--MD5=[529c23a8d0c463fd23132b420eaed469]
link MakeDeliveryController to DeliveryList--><path codeLine="121" d="M330.408,375.288 C347.672,402.593 365.693,431.096 380.564,454.616 " fill="none" id="MakeDeliveryController-to-DeliveryList" style="stroke:#A80036;stroke-width:1.0;stroke-dasharray:7.0,7.0;"/><polygon fill="#A80036" points="383.303,458.948,381.8748,449.2032,380.6312,454.7217,375.1127,453.4781,383.303,458.948" style="stroke:#A80036;stroke-width:1.0;"/><!--MD5=[4ceb3377d1256b98e7fe864520c13780]
link DeliveryList to Delivery--><path codeLine="123" d="M428.072,558.346 C434.87,581.942 443.056,610.358 450.081,634.742 " fill="none" id="DeliveryList-Delivery" style="stroke:#A80036;stroke-width:1.0;"/><text fill="#000000" font-family="sans-serif" font-size="13" lengthAdjust="spacing" textLength="33" x="441" y="601.0669">has&gt;</text><text fill="#000000" font-family="sans-serif" font-size="13" lengthAdjust="spacing" textLength="8" x="421.4254" y="578.113">1</text><text fill="#000000" font-family="sans-serif" font-size="13" lengthAdjust="spacing" textLength="23" x="423.7393" y="624.0451">1..*</text><!--MD5=[2bc5a413d94b08902b9f3d0151eb30f1]
link Platform to PharmacyList--><path codeLine="125" d="M98.8614,551.819 C102.874,580.787 108.171,619.035 112.175,647.946 " fill="none" id="Platform-PharmacyList" style="stroke:#A80036;stroke-width:1.0;"/><text fill="#000000" font-family="sans-serif" font-size="13" lengthAdjust="spacing" textLength="33" x="107" y="601.0669">has&gt;</text><text fill="#000000" font-family="sans-serif" font-size="13" lengthAdjust="spacing" textLength="8" x="91.1581" y="571.9628">1</text><text fill="#000000" font-family="sans-serif" font-size="13" lengthAdjust="spacing" textLength="8" x="102.6091" y="636.9334">1</text><!--MD5=[c3d6fa65262ae9604dabf49e24d8af00]
link Platform to RegisterCourier--><path codeLine="126" d="M141.737,551.591 C180.336,584.927 233.289,630.659 267.576,660.27 " fill="none" id="Platform-RegisterCourier" style="stroke:#A80036;stroke-width:1.0;"/><text fill="#000000" font-family="sans-serif" font-size="13" lengthAdjust="spacing" textLength="33" x="199" y="601.0669">has&gt;</text><text fill="#000000" font-family="sans-serif" font-size="13" lengthAdjust="spacing" textLength="8" x="141.1466" y="572.0137">1</text><text fill="#000000" font-family="sans-serif" font-size="13" lengthAdjust="spacing" textLength="8" x="251.6511" y="649.4858">1</text><!--MD5=[dcb9e7f24fda9389b72d4bf35ba5a068]
link PharmacyList to Pharmacy--><path codeLine="128" d="M119.433,734.184 C120.309,759.963 121.454,793.66 122.478,823.785 " fill="none" id="PharmacyList-Pharmacy" style="stroke:#A80036;stroke-width:1.0;"/><text fill="#000000" font-family="sans-serif" font-size="13" lengthAdjust="spacing" textLength="33" x="123" y="790.0669">has&gt;</text><text fill="#000000" font-family="sans-serif" font-size="13" lengthAdjust="spacing" textLength="8" x="111.0078" y="754.6221">1</text><text fill="#000000" font-family="sans-serif" font-size="13" lengthAdjust="spacing" textLength="23" x="98.1416" y="812.9536">0..*</text><!--MD5=[ce94835cf0f12533892255aaa455162a]
link RegisterCourier to Courier--><path codeLine="130" d="M305.295,721.515 C308.823,753.11 314.5,803.955 318.856,842.973 " fill="none" id="RegisterCourier-Courier" style="stroke:#A80036;stroke-width:1.0;"/><text fill="#000000" font-family="sans-serif" font-size="13" lengthAdjust="spacing" textLength="33" x="313" y="790.0669">has&gt;</text><text fill="#000000" font-family="sans-serif" font-size="13" lengthAdjust="spacing" textLength="8" x="297.1496" y="741.4563">1</text><text fill="#000000" font-family="sans-serif" font-size="13" lengthAdjust="spacing" textLength="23" x="293.5954" y="831.9075">0..*</text><!--MD5=[f7e86a11a25fbe6e0fc0b440a7aadf29]
link AvailableScooterList to Scooter--><path codeLine="132" d="M127.785,1125.04 C127.652,1147.408 127.479,1176.6 127.328,1201.838 " fill="none" id="AvailableScooterList-Scooter" style="stroke:#A80036;stroke-width:1.0;"/><text fill="#000000" font-family="sans-serif" font-size="13" lengthAdjust="spacing" textLength="33" x="129" y="1168.0669">has&gt;</text><text fill="#000000" font-family="sans-serif" font-size="13" lengthAdjust="spacing" textLength="8" x="119.0605" y="1144.8072">1</text><text fill="#000000" font-family="sans-serif" font-size="13" lengthAdjust="spacing" textLength="23" x="102.8966" y="1190.7552">0..*</text><!--MD5=[a61b24e3c7e805e83741056ccfd59cca]
link Pharmacy to AvailableScooterList--><path codeLine="134" d="M126.19,974.176 C126.614,1000.586 127.072,1029.148 127.421,1050.926 " fill="none" id="Pharmacy-AvailableScooterList" style="stroke:#A80036;stroke-width:1.0;"/><text fill="#000000" font-family="sans-serif" font-size="13" lengthAdjust="spacing" textLength="33" x="128" y="1017.0669">has&gt;</text><text fill="#000000" font-family="sans-serif" font-size="13" lengthAdjust="spacing" textLength="8" x="117.9002" y="994.7531">1</text><text fill="#000000" font-family="sans-serif" font-size="13" lengthAdjust="spacing" textLength="8" x="118.5767" y="1039.8228">1</text><!--MD5=[6db736443b06804355fa998e390120b4]
link Pharmacy to DroneList--><path codeLine="135" d="M199.969,974.176 C226.662,1000.586 255.529,1029.148 277.54,1050.926 " fill="none" id="Pharmacy-DroneList" style="stroke:#A80036;stroke-width:1.0;"/><text fill="#000000" font-family="sans-serif" font-size="13" lengthAdjust="spacing" textLength="33" x="242" y="1017.0669">has&gt;</text><text fill="#000000" font-family="sans-serif" font-size="13" lengthAdjust="spacing" textLength="8" x="199.2877" y="994.7531">1</text><text fill="#000000" font-family="sans-serif" font-size="13" lengthAdjust="spacing" textLength="8" x="262.0802" y="1039.8228">1</text><!--MD5=[6b149993fa9f9cbd4bbdae294781ca50]
link DroneList to Drone--><path codeLine="137" d="M314,1125.04 C314,1149.337 314,1181.683 314,1208.27 " fill="none" id="DroneList-Drone" style="stroke:#A80036;stroke-width:1.0;"/><text fill="#000000" font-family="sans-serif" font-size="13" lengthAdjust="spacing" textLength="33" x="315" y="1168.0669">has&gt;</text><text fill="#000000" font-family="sans-serif" font-size="13" lengthAdjust="spacing" textLength="8" x="305.3125" y="1144.8072">1</text><text fill="#000000" font-family="sans-serif" font-size="13" lengthAdjust="spacing" textLength="23" x="289.3828" y="1197.2829">0..*</text><!--MD5=[3dafc56f19c4e3252962498fd73b4672]
@startuml
skinparam classAttributeIconSize 0

package UI <<Folder>> {
  class MakeDeliveryUI
}

package Controllers <<Folder>> {
  class MakeDeliveryController
}

package Domain <<Folder>> {
  class Platform
  class DeliveryList
  class Delivery
  class AvailableScooterList
  class PharmacyList
  class Pharmacy
  class Scooter
  class Courier
  class Drone
  class RegisterCourier
  class DroneList
}

class MakeDeliveryUI {
}

class Pharmacy{
  -String id
  -String designation
  -String email
  -String password
  -Adress adress
  -ParkingLot park
  -ProductList pl
  -AvailableScooterList asl
}

class Courier{
-String NIF
-String name
-String password
-String email
-String socialSecurityNumber
}

class Drone{
-Integer id
-Double fullCharge
-Double currentCharge
-Double power
}

class Scooter{
-Integer exclusiveNumber
-Double fullCharge
-Double currentCharge
-Double power
-Boolean operational
}

class MakeDeliveryController {
  +getPharmacyList()
  +getPharmacy(parmacyID)
  +getScooterList()
  +getScooter(exclusiveNumber)
  +getCourierList()
  +getCourier(nif)
  +getDroneList()
  +getDrone(id)
  +getDeliveryList()
  +getChoosenDelivery(id)
  +addDeliverySelected(delivery,scooter,courier)
  +addDeliverySelected(delivery,drone)
}

class Platform {
  +getPharmacyList()
  +getCourierList()
  +getDeliveryList()
}

class PharmacyList {
  +getPharmacy(pharmacyID)
  +getAvailableScooterList(p)
  +getDroneList()
}

class AvailableScooterList {
  +getScooterList()
  +getScooter(exclusiveNumber)
}

class RegisterCourier {
  +getCourier(nif)
}

class DroneList {
  +getCourier(id)
  +getCourierList()
}

class Delivery {
  -String id
  -date date_delivery 
  -double totalWeight
  -Invoice invoice
  -Pharmacy pharmacy
}

class DeliveryList {
  +getDeliveryListPharmacy(p)    
  +verifyDelivery(id)
  +getEnergySpentInScooterDelivery(distance, scooter, deliveryListPharmacy)
  +getEnergySpentInDroneDelivery(distance, drone, deliveryListPharmacy)
}

MakeDeliveryUI ..> MakeDeliveryController

MakeDeliveryController ..> Platform
MakeDeliveryController ..> DeliveryList

DeliveryList"1" - - "1..*" Delivery : has>

Platform"1" - - "1" PharmacyList : has>
Platform"1" - - "1" RegisterCourier : has>

PharmacyList"1" - - "0..*" Pharmacy : has>

RegisterCourier"1" - - "0..*" Courier : has>

AvailableScooterList"1" - - "0..*" Scooter : has>

Pharmacy"1" - - "1" AvailableScooterList : has>
Pharmacy"1" - - "1" DroneList : has>

DroneList"1" - - "0..*" Drone : has>
@enduml

PlantUML version 1.2021.01beta3(Unknown compile time)
(GPL source distribution)
Java Runtime: Java(TM) SE Runtime Environment
JVM: Java HotSpot(TM) 64-Bit Server VM
Default Encoding: UTF-8
Language: en
Country: US
--></g></svg>