<?xml version="1.0" encoding="UTF-8" standalone="no"?><svg xmlns="http://www.w3.org/2000/svg" xmlns:xlink="http://www.w3.org/1999/xlink" contentScriptType="application/ecmascript" contentStyleType="text/css" height="339px" preserveAspectRatio="none" style="width:877px;height:339px;" version="1.1" viewBox="0 0 877 339" width="877px" zoomAndPan="magnify"><defs><filter height="300%" id="fpqkvp3r41sej" width="300%" x="-1" y="-1"><feGaussianBlur result="blurOut" stdDeviation="2.0"/><feColorMatrix in="blurOut" result="blurOut2" type="matrix" values="0 0 0 0 0 0 0 0 0 0 0 0 0 0 0 0 0 0 .4 0"/><feOffset dx="4.0" dy="4.0" in="blurOut2" result="blurOut3"/><feBlend in="SourceGraphic" in2="blurOut3" mode="normal"/></filter></defs><g><!--MD5=[99b8db98afdc2c8404e39242ef4c1e65]
class Platform--><rect codeLine="6" fill="#FEFECE" filter="url(#fpqkvp3r41sej)" height="40" id="Platform" style="stroke:#A80036;stroke-width:1.5;" width="80" x="7" y="174.5"/><ellipse cx="22" cy="190.5" fill="#ADD1B2" rx="11" ry="11" style="stroke:#A80036;stroke-width:1.0;"/><path d="M24.3438,186.1719 C23.4063,185.7344 22.8125,185.5938 21.9375,185.5938 C19.3125,185.5938 17.3125,187.6719 17.3125,190.3906 L17.3125,191.5156 C17.3125,194.0938 19.4219,195.9844 22.3125,195.9844 C23.5313,195.9844 24.6875,195.6875 25.4375,195.1406 C26.0156,194.7344 26.3438,194.2813 26.3438,193.8906 C26.3438,193.4375 25.9531,193.0469 25.4844,193.0469 C25.2656,193.0469 25.0625,193.125 24.875,193.3125 C24.4219,193.7969 24.4219,193.7969 24.2344,193.8906 C23.8125,194.1563 23.125,194.2813 22.3594,194.2813 C20.3125,194.2813 19.0156,193.1875 19.0156,191.4844 L19.0156,190.3906 C19.0156,188.6094 20.2656,187.2969 22,187.2969 C22.5781,187.2969 23.1875,187.4531 23.6563,187.7031 C24.1406,187.9844 24.3125,188.2031 24.4063,188.6094 C24.4688,189.0156 24.5,189.1406 24.6406,189.2656 C24.7813,189.4063 25.0156,189.5156 25.2344,189.5156 C25.5,189.5156 25.7656,189.375 25.9375,189.1563 C26.0469,189 26.0781,188.8125 26.0781,188.3906 L26.0781,186.9688 C26.0781,186.5313 26.0625,186.4063 25.9688,186.25 C25.8125,185.9844 25.5313,185.8438 25.2344,185.8438 C24.9375,185.8438 24.7344,185.9375 24.5156,186.25 L24.3438,186.1719 Z " fill="#000000"/><text fill="#000000" font-family="sans-serif" font-size="12" lengthAdjust="spacing" textLength="48" x="36" y="194.6543">Platform</text><line style="stroke:#A80036;stroke-width:1.5;" x1="8" x2="86" y1="206.5" y2="206.5"/><!--MD5=[fff5db4abcb6eec6574b9ea9c3ee0eae]
class Delivery--><rect codeLine="10" fill="#FEFECE" filter="url(#fpqkvp3r41sej)" height="104.0234" id="Delivery" style="stroke:#A80036;stroke-width:1.5;" width="131" x="732" y="164.5"/><ellipse cx="769.05" cy="180.5" fill="#ADD1B2" rx="11" ry="11" style="stroke:#A80036;stroke-width:1.0;"/><path d="M771.3938,176.1719 C770.4563,175.7344 769.8625,175.5938 768.9875,175.5938 C766.3625,175.5938 764.3625,177.6719 764.3625,180.3906 L764.3625,181.5156 C764.3625,184.0938 766.4719,185.9844 769.3625,185.9844 C770.5813,185.9844 771.7375,185.6875 772.4875,185.1406 C773.0656,184.7344 773.3938,184.2813 773.3938,183.8906 C773.3938,183.4375 773.0031,183.0469 772.5344,183.0469 C772.3156,183.0469 772.1125,183.125 771.925,183.3125 C771.4719,183.7969 771.4719,183.7969 771.2844,183.8906 C770.8625,184.1563 770.175,184.2813 769.4094,184.2813 C767.3625,184.2813 766.0656,183.1875 766.0656,181.4844 L766.0656,180.3906 C766.0656,178.6094 767.3156,177.2969 769.05,177.2969 C769.6281,177.2969 770.2375,177.4531 770.7063,177.7031 C771.1906,177.9844 771.3625,178.2031 771.4563,178.6094 C771.5188,179.0156 771.55,179.1406 771.6906,179.2656 C771.8313,179.4063 772.0656,179.5156 772.2844,179.5156 C772.55,179.5156 772.8156,179.375 772.9875,179.1563 C773.0969,179 773.1281,178.8125 773.1281,178.3906 L773.1281,176.9688 C773.1281,176.5313 773.1125,176.4063 773.0188,176.25 C772.8625,175.9844 772.5813,175.8438 772.2844,175.8438 C771.9875,175.8438 771.7844,175.9375 771.5656,176.25 L771.3938,176.1719 Z " fill="#000000"/><text fill="#000000" font-family="sans-serif" font-size="12" lengthAdjust="spacing" textLength="50" x="787.95" y="184.6543">Delivery</text><line style="stroke:#A80036;stroke-width:1.5;" x1="733" x2="862" y1="196.5" y2="196.5"/><text fill="#000000" font-family="sans-serif" font-size="11" lengthAdjust="spacing" textLength="51" x="738" y="210.7104">-String id</text><text fill="#000000" font-family="sans-serif" font-size="11" lengthAdjust="spacing" textLength="113" x="738" y="223.5151">-date date_delivery</text><text fill="#000000" font-family="sans-serif" font-size="11" lengthAdjust="spacing" textLength="112" x="738" y="236.3198">-double totalWeight</text><text fill="#000000" font-family="sans-serif" font-size="11" lengthAdjust="spacing" textLength="90" x="738" y="249.1245">-Invoice invoice</text><text fill="#000000" font-family="sans-serif" font-size="11" lengthAdjust="spacing" textLength="119" x="738" y="261.9292">-Pharmacy pharmacy</text><!--MD5=[7f2a9fafcebe4f099f71398fd3e2ed00]
class Pharmacy--><rect codeLine="19" fill="#FEFECE" filter="url(#fpqkvp3r41sej)" height="104.0234" id="Pharmacy" style="stroke:#A80036;stroke-width:1.5;" width="119" x="214" y="82.5"/><ellipse cx="242.5" cy="98.5" fill="#ADD1B2" rx="11" ry="11" style="stroke:#A80036;stroke-width:1.0;"/><path d="M244.8438,94.1719 C243.9063,93.7344 243.3125,93.5938 242.4375,93.5938 C239.8125,93.5938 237.8125,95.6719 237.8125,98.3906 L237.8125,99.5156 C237.8125,102.0938 239.9219,103.9844 242.8125,103.9844 C244.0313,103.9844 245.1875,103.6875 245.9375,103.1406 C246.5156,102.7344 246.8438,102.2813 246.8438,101.8906 C246.8438,101.4375 246.4531,101.0469 245.9844,101.0469 C245.7656,101.0469 245.5625,101.125 245.375,101.3125 C244.9219,101.7969 244.9219,101.7969 244.7344,101.8906 C244.3125,102.1563 243.625,102.2813 242.8594,102.2813 C240.8125,102.2813 239.5156,101.1875 239.5156,99.4844 L239.5156,98.3906 C239.5156,96.6094 240.7656,95.2969 242.5,95.2969 C243.0781,95.2969 243.6875,95.4531 244.1563,95.7031 C244.6406,95.9844 244.8125,96.2031 244.9063,96.6094 C244.9688,97.0156 245,97.1406 245.1406,97.2656 C245.2813,97.4063 245.5156,97.5156 245.7344,97.5156 C246,97.5156 246.2656,97.375 246.4375,97.1563 C246.5469,97 246.5781,96.8125 246.5781,96.3906 L246.5781,94.9688 C246.5781,94.5313 246.5625,94.4063 246.4688,94.25 C246.3125,93.9844 246.0313,93.8438 245.7344,93.8438 C245.4375,93.8438 245.2344,93.9375 245.0156,94.25 L244.8438,94.1719 Z " fill="#000000"/><text fill="#000000" font-family="sans-serif" font-size="12" lengthAdjust="spacing" textLength="57" x="259.5" y="102.6543">Pharmacy</text><line style="stroke:#A80036;stroke-width:1.5;" x1="215" x2="332" y1="114.5" y2="114.5"/><text fill="#000000" font-family="sans-serif" font-size="11" lengthAdjust="spacing" textLength="51" x="220" y="128.7104">-String id</text><text fill="#000000" font-family="sans-serif" font-size="11" lengthAdjust="spacing" textLength="107" x="220" y="141.5151">-String designation</text><text fill="#000000" font-family="sans-serif" font-size="11" lengthAdjust="spacing" textLength="73" x="220" y="154.3198">-String email</text><text fill="#000000" font-family="sans-serif" font-size="11" lengthAdjust="spacing" textLength="85" x="220" y="167.1245">-Adress adress</text><text fill="#000000" font-family="sans-serif" font-size="11" lengthAdjust="spacing" textLength="107" x="220" y="179.9292">-ParkingLot lotation</text><!--MD5=[c6a2171c11447acbe08a3dfeee0e1710]
class Courier--><rect codeLine="27" fill="#FEFECE" filter="url(#fpqkvp3r41sej)" height="104.0234" id="Courier" style="stroke:#A80036;stroke-width:1.5;" width="177" x="185" y="221.5"/><ellipse cx="247.25" cy="237.5" fill="#ADD1B2" rx="11" ry="11" style="stroke:#A80036;stroke-width:1.0;"/><path d="M249.5938,233.1719 C248.6563,232.7344 248.0625,232.5938 247.1875,232.5938 C244.5625,232.5938 242.5625,234.6719 242.5625,237.3906 L242.5625,238.5156 C242.5625,241.0938 244.6719,242.9844 247.5625,242.9844 C248.7813,242.9844 249.9375,242.6875 250.6875,242.1406 C251.2656,241.7344 251.5938,241.2813 251.5938,240.8906 C251.5938,240.4375 251.2031,240.0469 250.7344,240.0469 C250.5156,240.0469 250.3125,240.125 250.125,240.3125 C249.6719,240.7969 249.6719,240.7969 249.4844,240.8906 C249.0625,241.1563 248.375,241.2813 247.6094,241.2813 C245.5625,241.2813 244.2656,240.1875 244.2656,238.4844 L244.2656,237.3906 C244.2656,235.6094 245.5156,234.2969 247.25,234.2969 C247.8281,234.2969 248.4375,234.4531 248.9063,234.7031 C249.3906,234.9844 249.5625,235.2031 249.6563,235.6094 C249.7188,236.0156 249.75,236.1406 249.8906,236.2656 C250.0313,236.4063 250.2656,236.5156 250.4844,236.5156 C250.75,236.5156 251.0156,236.375 251.1875,236.1563 C251.2969,236 251.3281,235.8125 251.3281,235.3906 L251.3281,233.9688 C251.3281,233.5313 251.3125,233.4063 251.2188,233.25 C251.0625,232.9844 250.7813,232.8438 250.4844,232.8438 C250.1875,232.8438 249.9844,232.9375 249.7656,233.25 L249.5938,233.1719 Z " fill="#000000"/><text fill="#000000" font-family="sans-serif" font-size="12" lengthAdjust="spacing" textLength="44" x="267.75" y="241.6543">Courier</text><line style="stroke:#A80036;stroke-width:1.5;" x1="186" x2="361" y1="253.5" y2="253.5"/><text fill="#000000" font-family="sans-serif" font-size="11" lengthAdjust="spacing" textLength="58" x="191" y="267.7104">-String NIF</text><text fill="#000000" font-family="sans-serif" font-size="11" lengthAdjust="spacing" textLength="74" x="191" y="280.5151">-String name</text><text fill="#000000" font-family="sans-serif" font-size="11" lengthAdjust="spacing" textLength="94" x="191" y="293.3198">-String password</text><text fill="#000000" font-family="sans-serif" font-size="11" lengthAdjust="spacing" textLength="73" x="191" y="306.1245">-String email</text><text fill="#000000" font-family="sans-serif" font-size="11" lengthAdjust="spacing" textLength="165" x="191" y="318.9292">-String socialSecurityNumber</text><!--MD5=[f4402668d5d5bb8485350c0fdb60ac8e]
class Scooter--><rect codeLine="35" fill="#FEFECE" filter="url(#fpqkvp3r41sej)" height="104.0234" id="Scooter" style="stroke:#A80036;stroke-width:1.5;" width="161" x="460" y="133.5"/><ellipse cx="512.25" cy="149.5" fill="#ADD1B2" rx="11" ry="11" style="stroke:#A80036;stroke-width:1.0;"/><path d="M514.5938,145.1719 C513.6563,144.7344 513.0625,144.5938 512.1875,144.5938 C509.5625,144.5938 507.5625,146.6719 507.5625,149.3906 L507.5625,150.5156 C507.5625,153.0938 509.6719,154.9844 512.5625,154.9844 C513.7813,154.9844 514.9375,154.6875 515.6875,154.1406 C516.2656,153.7344 516.5938,153.2813 516.5938,152.8906 C516.5938,152.4375 516.2031,152.0469 515.7344,152.0469 C515.5156,152.0469 515.3125,152.125 515.125,152.3125 C514.6719,152.7969 514.6719,152.7969 514.4844,152.8906 C514.0625,153.1563 513.375,153.2813 512.6094,153.2813 C510.5625,153.2813 509.2656,152.1875 509.2656,150.4844 L509.2656,149.3906 C509.2656,147.6094 510.5156,146.2969 512.25,146.2969 C512.8281,146.2969 513.4375,146.4531 513.9063,146.7031 C514.3906,146.9844 514.5625,147.2031 514.6563,147.6094 C514.7188,148.0156 514.75,148.1406 514.8906,148.2656 C515.0313,148.4063 515.2656,148.5156 515.4844,148.5156 C515.75,148.5156 516.0156,148.375 516.1875,148.1563 C516.2969,148 516.3281,147.8125 516.3281,147.3906 L516.3281,145.9688 C516.3281,145.5313 516.3125,145.4063 516.2188,145.25 C516.0625,144.9844 515.7813,144.8438 515.4844,144.8438 C515.1875,144.8438 514.9844,144.9375 514.7656,145.25 L514.5938,145.1719 Z " fill="#000000"/><text fill="#000000" font-family="sans-serif" font-size="12" lengthAdjust="spacing" textLength="48" x="532.75" y="153.6543">Scooter</text><line style="stroke:#A80036;stroke-width:1.5;" x1="461" x2="620" y1="165.5" y2="165.5"/><text fill="#000000" font-family="sans-serif" font-size="11" lengthAdjust="spacing" textLength="149" x="466" y="179.7104">-Integer exclusiveNumber</text><text fill="#000000" font-family="sans-serif" font-size="11" lengthAdjust="spacing" textLength="107" x="466" y="192.5151">-Double fullCharge</text><text fill="#000000" font-family="sans-serif" font-size="11" lengthAdjust="spacing" textLength="130" x="466" y="205.3198">-Double currentCharge</text><text fill="#000000" font-family="sans-serif" font-size="11" lengthAdjust="spacing" textLength="84" x="466" y="218.1245">-Double power</text><text fill="#000000" font-family="sans-serif" font-size="11" lengthAdjust="spacing" textLength="119" x="466" y="230.9292">-Boolean operational</text><!--MD5=[2e3f1e60e74253ff42e47f8bfdb04ee2]
class Drone--><rect codeLine="43" fill="#FEFECE" filter="url(#fpqkvp3r41sej)" height="91.2188" id="Drone" style="stroke:#A80036;stroke-width:1.5;" width="142" x="469.5" y="7"/><ellipse cx="517.75" cy="23" fill="#ADD1B2" rx="11" ry="11" style="stroke:#A80036;stroke-width:1.0;"/><path d="M520.0938,18.6719 C519.1563,18.2344 518.5625,18.0938 517.6875,18.0938 C515.0625,18.0938 513.0625,20.1719 513.0625,22.8906 L513.0625,24.0156 C513.0625,26.5938 515.1719,28.4844 518.0625,28.4844 C519.2813,28.4844 520.4375,28.1875 521.1875,27.6406 C521.7656,27.2344 522.0938,26.7813 522.0938,26.3906 C522.0938,25.9375 521.7031,25.5469 521.2344,25.5469 C521.0156,25.5469 520.8125,25.625 520.625,25.8125 C520.1719,26.2969 520.1719,26.2969 519.9844,26.3906 C519.5625,26.6563 518.875,26.7813 518.1094,26.7813 C516.0625,26.7813 514.7656,25.6875 514.7656,23.9844 L514.7656,22.8906 C514.7656,21.1094 516.0156,19.7969 517.75,19.7969 C518.3281,19.7969 518.9375,19.9531 519.4063,20.2031 C519.8906,20.4844 520.0625,20.7031 520.1563,21.1094 C520.2188,21.5156 520.25,21.6406 520.3906,21.7656 C520.5313,21.9063 520.7656,22.0156 520.9844,22.0156 C521.25,22.0156 521.5156,21.875 521.6875,21.6563 C521.7969,21.5 521.8281,21.3125 521.8281,20.8906 L521.8281,19.4688 C521.8281,19.0313 521.8125,18.9063 521.7188,18.75 C521.5625,18.4844 521.2813,18.3438 520.9844,18.3438 C520.6875,18.3438 520.4844,18.4375 520.2656,18.75 L520.0938,18.6719 Z " fill="#000000"/><text fill="#000000" font-family="sans-serif" font-size="12" lengthAdjust="spacing" textLength="37" x="538.25" y="27.1543">Drone</text><line style="stroke:#A80036;stroke-width:1.5;" x1="470.5" x2="610.5" y1="39" y2="39"/><text fill="#000000" font-family="sans-serif" font-size="11" lengthAdjust="spacing" textLength="59" x="475.5" y="53.2104">-Integer id</text><text fill="#000000" font-family="sans-serif" font-size="11" lengthAdjust="spacing" textLength="107" x="475.5" y="66.0151">-Double fullCharge</text><text fill="#000000" font-family="sans-serif" font-size="11" lengthAdjust="spacing" textLength="130" x="475.5" y="78.8198">-Double currentCharge</text><text fill="#000000" font-family="sans-serif" font-size="11" lengthAdjust="spacing" textLength="84" x="475.5" y="91.6245">-Double power</text><!--MD5=[4a07f137c208f82f57837154e1cfa51e]
link Platform to Pharmacy--><path codeLine="50" d="M87.1049,184.049 C122.029,174.715 173.685,160.909 213.607,150.24 " fill="none" id="Platform-Pharmacy" style="stroke:#A80036;stroke-width:1.0;"/><polygon fill="#000000" points="126.8305,155.7754,117.3333,155.2716,118.8509,160.9501,126.8305,155.7754" style="stroke:#000000;stroke-width:1.0;"/><text fill="#000000" font-family="sans-serif" font-size="13" lengthAdjust="spacing" textLength="23" x="131" y="161.5669">has</text><text fill="#000000" font-family="sans-serif" font-size="13" lengthAdjust="spacing" textLength="8" x="94.9611" y="195.6021">1</text><text fill="#000000" font-family="sans-serif" font-size="13" lengthAdjust="spacing" textLength="23" x="182.7984" y="164.8548">0..*</text><!--MD5=[f0cfa747e910e280deb3c434245f2238]
link Platform to Courier--><path codeLine="51" d="M87.1049,208.261 C114.115,217.765 151.132,230.7914 184.989,242.7056 " fill="none" id="Platform-Courier" style="stroke:#A80036;stroke-width:1.0;"/><polygon fill="#000000" points="126.7165,212.7261,119.1598,206.9514,117.2087,212.496,126.7165,212.7261" style="stroke:#000000;stroke-width:1.0;"/><text fill="#000000" font-family="sans-serif" font-size="13" lengthAdjust="spacing" textLength="23" x="131" y="215.5669">has</text><text fill="#000000" font-family="sans-serif" font-size="13" lengthAdjust="spacing" textLength="8" x="94.9611" y="224.1268">1</text><text fill="#000000" font-family="sans-serif" font-size="13" lengthAdjust="spacing" textLength="23" x="154.0194" y="252.9206">0..*</text><!--MD5=[cf4f95b832970cfa6e3a3c87e0aa2b32]
link Pharmacy to Scooter--><path codeLine="53" d="M333.312,145.819 C370.518,152.979 419.09,162.327 459.744,170.151 " fill="none" id="Pharmacy-Scooter" style="stroke:#A80036;stroke-width:1.0;"/><polygon fill="#000000" points="401.9099,150.0113,393.5832,145.416,392.4724,151.1879,401.9099,150.0113" style="stroke:#000000;stroke-width:1.0;"/><text fill="#000000" font-family="sans-serif" font-size="13" lengthAdjust="spacing" textLength="23" x="406" y="153.5669">has</text><text fill="#000000" font-family="sans-serif" font-size="13" lengthAdjust="spacing" textLength="8" x="341.0891" y="160.1861">1</text><text fill="#000000" font-family="sans-serif" font-size="13" lengthAdjust="spacing" textLength="23" x="429.1041" y="181.5724">0..*</text><!--MD5=[f8ebe161610107101fe1df9bed99a2fd]
link Pharmacy to Drone--><path codeLine="54" d="M333.312,116.302 C373.415,103.892 426.723,87.397 469.088,74.288 " fill="none" id="Pharmacy-Drone" style="stroke:#A80036;stroke-width:1.0;"/><polygon fill="#000000" points="401.7765,79.5884,392.2669,79.4546,394.0045,85.0697,401.7765,79.5884" style="stroke:#000000;stroke-width:1.0;"/><text fill="#000000" font-family="sans-serif" font-size="13" lengthAdjust="spacing" textLength="23" x="406" y="85.5669">has</text><text fill="#000000" font-family="sans-serif" font-size="13" lengthAdjust="spacing" textLength="8" x="341.0891" y="127.0717">1</text><text fill="#000000" font-family="sans-serif" font-size="13" lengthAdjust="spacing" textLength="23" x="438.4446" y="89.0509">0..*</text><!--MD5=[7471b15d97b16c1e8744ea00ac81bc31]
link Courier to Delivery--><path codeLine="56" d="M362.306,280.5973 C432.703,284.5264 533.791,286.2054 621,272.5 C658.597,266.5913 699.163,254.0754 731.813,242.3717 " fill="none" id="Courier-Delivery" style="stroke:#A80036;stroke-width:1.0;"/><polygon fill="#000000" points="524.9735,263.5519,515.674,261.5593,516.2788,267.406,524.9735,263.5519" style="stroke:#000000;stroke-width:1.0;"/><text fill="#000000" font-family="sans-serif" font-size="13" lengthAdjust="spacing" textLength="36" x="529" y="268.5669">make</text><text fill="#000000" font-family="sans-serif" font-size="13" lengthAdjust="spacing" textLength="23" x="369.9857" y="293.786">0..*</text><text fill="#000000" font-family="sans-serif" font-size="13" lengthAdjust="spacing" textLength="23" x="700.8531" y="257.8857">0..*</text><!--MD5=[a6555772697f24f0ba1eb2fefc99ef48]
link Courier to Scooter--><path codeLine="57" d="M362.005,244.4416 C393.514,233.9784 428.875,222.236 459.692,212.002 " fill="none" id="Courier-Scooter" style="stroke:#A80036;stroke-width:1.0;"/><polygon fill="#000000" points="401.7452,213.4906,392.2348,213.5521,394.0873,219.1304,401.7452,213.4906" style="stroke:#000000;stroke-width:1.0;"/><text fill="#000000" font-family="sans-serif" font-size="13" lengthAdjust="spacing" textLength="23" x="406" y="219.5669">use</text><text fill="#000000" font-family="sans-serif" font-size="13" lengthAdjust="spacing" textLength="23" x="369.9741" y="254.7949">0..*</text><text fill="#000000" font-family="sans-serif" font-size="13" lengthAdjust="spacing" textLength="23" x="429.0477" y="226.8892">0..*</text><!--MD5=[e74c3773f7220de387ccc54998cd9fb1]
link Drone to Delivery--><path codeLine="59" d="M611.517,97.531 C649.115,121.711 695.147,151.316 731.886,174.944 " fill="none" id="Drone-Delivery" style="stroke:#A80036;stroke-width:1.0;"/><polygon fill="#000000" points="660.2054,118.771,654.1875,111.4065,651.0081,116.3502,660.2054,118.771" style="stroke:#000000;stroke-width:1.0;"/><text fill="#000000" font-family="sans-serif" font-size="13" lengthAdjust="spacing" textLength="36" x="665" y="120.5669">make</text><text fill="#000000" font-family="sans-serif" font-size="13" lengthAdjust="spacing" textLength="23" x="598.3745" y="118.2912">0..*</text><text fill="#000000" font-family="sans-serif" font-size="13" lengthAdjust="spacing" textLength="23" x="700.9336" y="183.5045">0..*</text><!--MD5=[28a527f66d52c8f554d5076bfed2ba9e]
@startuml
skinparam classAttributeIconSize 0
hide methods
left to right direction


class Platform{

}

class Delivery {
  -String id
  -date date_delivery 
  -double totalWeight
  -Invoice invoice
  -Pharmacy pharmacy
  
}

class Pharmacy {
  -String id
  -String designation
  -String email
  -Adress adress
  -ParkingLot lotation
}

class Courier{
-String NIF
-String name
-String password
-String email
-String socialSecurityNumber
}

class Scooter{
-Integer exclusiveNumber
-Double fullCharge
-Double currentCharge
-Double power
-Boolean operational
}

class Drone{
-Integer id
-Double fullCharge
-Double currentCharge
-Double power
}

Platform"1" - - "0..*"Pharmacy : has >
Platform"1" - - "0..*"Courier : has >

Pharmacy"1" - - "0..*"Scooter : has >
Pharmacy"1" - - "0..*"Drone : has >

Courier"0..*" - - "0..*" Delivery : make >
Courier"0..*" - - "0..*" Scooter : use >

Drone"0..*" - - "0..*" Delivery : make >
@enduml

PlantUML version 1.2021.01beta3(Unknown compile time)
(GPL source distribution)
Java Runtime: Java(TM) SE Runtime Environment
JVM: Java HotSpot(TM) 64-Bit Server VM
Default Encoding: UTF-8
Language: en
Country: US
--></g></svg>