<?xml version="1.0" encoding="UTF-8" standalone="no"?><svg xmlns="http://www.w3.org/2000/svg" xmlns:xlink="http://www.w3.org/1999/xlink" contentScriptType="application/ecmascript" contentStyleType="text/css" height="869px" preserveAspectRatio="none" style="width:635px;height:869px;" version="1.1" viewBox="0 0 635 869" width="635px" zoomAndPan="magnify"><defs><filter height="300%" id="f17iyo1w9x61ma" width="300%" x="-1" y="-1"><feGaussianBlur result="blurOut" stdDeviation="2.0"/><feColorMatrix in="blurOut" result="blurOut2" type="matrix" values="0 0 0 0 0 0 0 0 0 0 0 0 0 0 0 0 0 0 .4 0"/><feOffset dx="4.0" dy="4.0" in="blurOut2" result="blurOut3"/><feBlend in="SourceGraphic" in2="blurOut3" mode="normal"/></filter></defs><g><!--MD5=[9681dc6e01e10c6b4fe06895ae94f592]
cluster UI--><polygon fill="#FFFFFF" filter="url(#f17iyo1w9x61ma)" points="369,6,391,6,398,28.2969,521,28.2969,521,105,369,105,369,6" style="stroke:#000000;stroke-width:1.5;"/><line style="stroke:#000000;stroke-width:1.5;" x1="369" x2="398" y1="28.2969" y2="28.2969"/><text fill="#000000" font-family="sans-serif" font-size="14" font-weight="bold" lengthAdjust="spacing" textLength="16" x="373" y="20.9951">UI</text><!--MD5=[ed1d20ea533a2a0e7df5ba3c35e56ced]
cluster Controllers--><polygon fill="#FFFFFF" filter="url(#f17iyo1w9x61ma)" points="272,138,368,138,375,160.2969,618,160.2969,618,275,272,275,272,138" style="stroke:#000000;stroke-width:1.5;"/><line style="stroke:#000000;stroke-width:1.5;" x1="272" x2="375" y1="160.2969" y2="160.2969"/><text fill="#000000" font-family="sans-serif" font-size="14" font-weight="bold" lengthAdjust="spacing" textLength="90" x="276" y="152.9951">Controllers</text><!--MD5=[121a8bf1197281ab89ed693fab589f94]
cluster Domain--><polygon fill="#FFFFFF" filter="url(#f17iyo1w9x61ma)" points="16,308,83,308,90,330.2969,525,330.2969,525,862,16,862,16,308" style="stroke:#000000;stroke-width:1.5;"/><line style="stroke:#000000;stroke-width:1.5;" x1="16" x2="90" y1="330.2969" y2="330.2969"/><text fill="#000000" font-family="sans-serif" font-size="14" font-weight="bold" lengthAdjust="spacing" textLength="61" x="20" y="322.9951">Domain</text><!--MD5=[6eea9a658c35fadf523672041f43654c]
class BuyAProductUI--><rect codeLine="19" fill="#FEFECE" filter="url(#f17iyo1w9x61ma)" height="48" id="BuyAProductUI" style="stroke:#A80036;stroke-width:1.5;" width="119" x="385.5" y="41"/><ellipse cx="400.5" cy="57" fill="#ADD1B2" rx="11" ry="11" style="stroke:#A80036;stroke-width:1.0;"/><path d="M402.8438,52.6719 C401.9063,52.2344 401.3125,52.0938 400.4375,52.0938 C397.8125,52.0938 395.8125,54.1719 395.8125,56.8906 L395.8125,58.0156 C395.8125,60.5938 397.9219,62.4844 400.8125,62.4844 C402.0313,62.4844 403.1875,62.1875 403.9375,61.6406 C404.5156,61.2344 404.8438,60.7813 404.8438,60.3906 C404.8438,59.9375 404.4531,59.5469 403.9844,59.5469 C403.7656,59.5469 403.5625,59.625 403.375,59.8125 C402.9219,60.2969 402.9219,60.2969 402.7344,60.3906 C402.3125,60.6563 401.625,60.7813 400.8594,60.7813 C398.8125,60.7813 397.5156,59.6875 397.5156,57.9844 L397.5156,56.8906 C397.5156,55.1094 398.7656,53.7969 400.5,53.7969 C401.0781,53.7969 401.6875,53.9531 402.1563,54.2031 C402.6406,54.4844 402.8125,54.7031 402.9063,55.1094 C402.9688,55.5156 403,55.6406 403.1406,55.7656 C403.2813,55.9063 403.5156,56.0156 403.7344,56.0156 C404,56.0156 404.2656,55.875 404.4375,55.6563 C404.5469,55.5 404.5781,55.3125 404.5781,54.8906 L404.5781,53.4688 C404.5781,53.0313 404.5625,52.9063 404.4688,52.75 C404.3125,52.4844 404.0313,52.3438 403.7344,52.3438 C403.4375,52.3438 403.2344,52.4375 403.0156,52.75 L402.8438,52.6719 Z " fill="#000000"/><text fill="#000000" font-family="sans-serif" font-size="12" lengthAdjust="spacing" textLength="87" x="414.5" y="61.1543">BuyAProductUI</text><line style="stroke:#A80036;stroke-width:1.5;" x1="386.5" x2="503.5" y1="73" y2="73"/><line style="stroke:#A80036;stroke-width:1.5;" x1="386.5" x2="503.5" y1="81" y2="81"/><!--MD5=[eb6a9a87dff48ef0cf01b757f13f650d]
class BuyAProductController--><rect codeLine="22" fill="#FEFECE" filter="url(#f17iyo1w9x61ma)" height="86.4141" id="BuyAProductController" style="stroke:#A80036;stroke-width:1.5;" width="314" x="288" y="173"/><ellipse cx="373.75" cy="189" fill="#ADD1B2" rx="11" ry="11" style="stroke:#A80036;stroke-width:1.0;"/><path d="M376.0938,184.6719 C375.1563,184.2344 374.5625,184.0938 373.6875,184.0938 C371.0625,184.0938 369.0625,186.1719 369.0625,188.8906 L369.0625,190.0156 C369.0625,192.5938 371.1719,194.4844 374.0625,194.4844 C375.2813,194.4844 376.4375,194.1875 377.1875,193.6406 C377.7656,193.2344 378.0938,192.7813 378.0938,192.3906 C378.0938,191.9375 377.7031,191.5469 377.2344,191.5469 C377.0156,191.5469 376.8125,191.625 376.625,191.8125 C376.1719,192.2969 376.1719,192.2969 375.9844,192.3906 C375.5625,192.6563 374.875,192.7813 374.1094,192.7813 C372.0625,192.7813 370.7656,191.6875 370.7656,189.9844 L370.7656,188.8906 C370.7656,187.1094 372.0156,185.7969 373.75,185.7969 C374.3281,185.7969 374.9375,185.9531 375.4063,186.2031 C375.8906,186.4844 376.0625,186.7031 376.1563,187.1094 C376.2188,187.5156 376.25,187.6406 376.3906,187.7656 C376.5313,187.9063 376.7656,188.0156 376.9844,188.0156 C377.25,188.0156 377.5156,187.875 377.6875,187.6563 C377.7969,187.5 377.8281,187.3125 377.8281,186.8906 L377.8281,185.4688 C377.8281,185.0313 377.8125,184.9063 377.7188,184.75 C377.5625,184.4844 377.2813,184.3438 376.9844,184.3438 C376.6875,184.3438 376.4844,184.4375 376.2656,184.75 L376.0938,184.6719 Z " fill="#000000"/><text fill="#000000" font-family="sans-serif" font-size="12" lengthAdjust="spacing" textLength="134" x="394.25" y="193.1543">BuyAProductController</text><line style="stroke:#A80036;stroke-width:1.5;" x1="289" x2="601" y1="205" y2="205"/><line style="stroke:#A80036;stroke-width:1.5;" x1="289" x2="601" y1="213" y2="213"/><text fill="#000000" font-family="sans-serif" font-size="11" lengthAdjust="spacing" textLength="72" x="294" y="227.2104">+getCLient()</text><text fill="#000000" font-family="sans-serif" font-size="11" lengthAdjust="spacing" textLength="110" x="294" y="240.0151">+getPharmacyList()</text><text fill="#000000" font-family="sans-serif" font-size="11" lengthAdjust="spacing" textLength="302" x="294" y="252.8198">+fowardDeliveryToClosestPharmacy(pl, clientAdress)</text><!--MD5=[99b8db98afdc2c8404e39242ef4c1e65]
class Platform--><rect codeLine="28" fill="#FEFECE" filter="url(#f17iyo1w9x61ma)" height="73.6094" id="Platform" style="stroke:#A80036;stroke-width:1.5;" width="128" x="381" y="343"/><ellipse cx="417.6" cy="359" fill="#ADD1B2" rx="11" ry="11" style="stroke:#A80036;stroke-width:1.0;"/><path d="M419.9438,354.6719 C419.0063,354.2344 418.4125,354.0938 417.5375,354.0938 C414.9125,354.0938 412.9125,356.1719 412.9125,358.8906 L412.9125,360.0156 C412.9125,362.5938 415.0219,364.4844 417.9125,364.4844 C419.1313,364.4844 420.2875,364.1875 421.0375,363.6406 C421.6156,363.2344 421.9438,362.7813 421.9438,362.3906 C421.9438,361.9375 421.5531,361.5469 421.0844,361.5469 C420.8656,361.5469 420.6625,361.625 420.475,361.8125 C420.0219,362.2969 420.0219,362.2969 419.8344,362.3906 C419.4125,362.6563 418.725,362.7813 417.9594,362.7813 C415.9125,362.7813 414.6156,361.6875 414.6156,359.9844 L414.6156,358.8906 C414.6156,357.1094 415.8656,355.7969 417.6,355.7969 C418.1781,355.7969 418.7875,355.9531 419.2563,356.2031 C419.7406,356.4844 419.9125,356.7031 420.0063,357.1094 C420.0688,357.5156 420.1,357.6406 420.2406,357.7656 C420.3813,357.9063 420.6156,358.0156 420.8344,358.0156 C421.1,358.0156 421.3656,357.875 421.5375,357.6563 C421.6469,357.5 421.6781,357.3125 421.6781,356.8906 L421.6781,355.4688 C421.6781,355.0313 421.6625,354.9063 421.5688,354.75 C421.4125,354.4844 421.1313,354.3438 420.8344,354.3438 C420.5375,354.3438 420.3344,354.4375 420.1156,354.75 L419.9438,354.6719 Z " fill="#000000"/><text fill="#000000" font-family="sans-serif" font-size="12" lengthAdjust="spacing" textLength="48" x="436.4" y="363.1543">Platform</text><line style="stroke:#A80036;stroke-width:1.5;" x1="382" x2="508" y1="375" y2="375"/><line style="stroke:#A80036;stroke-width:1.5;" x1="382" x2="508" y1="383" y2="383"/><text fill="#000000" font-family="sans-serif" font-size="11" lengthAdjust="spacing" textLength="116" x="387" y="397.2104">+getClientRegister()</text><text fill="#000000" font-family="sans-serif" font-size="11" lengthAdjust="spacing" textLength="110" x="387" y="410.0151">+getPharmacyList()</text><!--MD5=[8050ef462d77cf220fd706493bc05cc9]
class PharmacyList--><rect codeLine="59" fill="#FEFECE" filter="url(#f17iyo1w9x61ma)" height="60.8047" id="PharmacyList" style="stroke:#A80036;stroke-width:1.5;" width="314" x="32" y="349.5"/><ellipse cx="146.25" cy="365.5" fill="#ADD1B2" rx="11" ry="11" style="stroke:#A80036;stroke-width:1.0;"/><path d="M148.5938,361.1719 C147.6563,360.7344 147.0625,360.5938 146.1875,360.5938 C143.5625,360.5938 141.5625,362.6719 141.5625,365.3906 L141.5625,366.5156 C141.5625,369.0938 143.6719,370.9844 146.5625,370.9844 C147.7813,370.9844 148.9375,370.6875 149.6875,370.1406 C150.2656,369.7344 150.5938,369.2813 150.5938,368.8906 C150.5938,368.4375 150.2031,368.0469 149.7344,368.0469 C149.5156,368.0469 149.3125,368.125 149.125,368.3125 C148.6719,368.7969 148.6719,368.7969 148.4844,368.8906 C148.0625,369.1563 147.375,369.2813 146.6094,369.2813 C144.5625,369.2813 143.2656,368.1875 143.2656,366.4844 L143.2656,365.3906 C143.2656,363.6094 144.5156,362.2969 146.25,362.2969 C146.8281,362.2969 147.4375,362.4531 147.9063,362.7031 C148.3906,362.9844 148.5625,363.2031 148.6563,363.6094 C148.7188,364.0156 148.75,364.1406 148.8906,364.2656 C149.0313,364.4063 149.2656,364.5156 149.4844,364.5156 C149.75,364.5156 150.0156,364.375 150.1875,364.1563 C150.2969,364 150.3281,363.8125 150.3281,363.3906 L150.3281,361.9688 C150.3281,361.5313 150.3125,361.4063 150.2188,361.25 C150.0625,360.9844 149.7813,360.8438 149.4844,360.8438 C149.1875,360.8438 148.9844,360.9375 148.7656,361.25 L148.5938,361.1719 Z " fill="#000000"/><text fill="#000000" font-family="sans-serif" font-size="12" lengthAdjust="spacing" textLength="77" x="166.75" y="369.6543">PharmacyList</text><line style="stroke:#A80036;stroke-width:1.5;" x1="33" x2="345" y1="381.5" y2="381.5"/><line style="stroke:#A80036;stroke-width:1.5;" x1="33" x2="345" y1="389.5" y2="389.5"/><text fill="#000000" font-family="sans-serif" font-size="11" lengthAdjust="spacing" textLength="302" x="38" y="403.7104">+fowardDeliveryToClosestPharmacy(pl, clientAdress)</text><!--MD5=[7f2a9fafcebe4f099f71398fd3e2ed00]
class Pharmacy--><rect codeLine="50" fill="#FEFECE" filter="url(#f17iyo1w9x61ma)" height="124.8281" id="Pharmacy" style="stroke:#A80036;stroke-width:1.5;" width="119" x="129.5" y="494"/><ellipse cx="158" cy="510" fill="#ADD1B2" rx="11" ry="11" style="stroke:#A80036;stroke-width:1.0;"/><path d="M160.3438,505.6719 C159.4063,505.2344 158.8125,505.0938 157.9375,505.0938 C155.3125,505.0938 153.3125,507.1719 153.3125,509.8906 L153.3125,511.0156 C153.3125,513.5938 155.4219,515.4844 158.3125,515.4844 C159.5313,515.4844 160.6875,515.1875 161.4375,514.6406 C162.0156,514.2344 162.3438,513.7813 162.3438,513.3906 C162.3438,512.9375 161.9531,512.5469 161.4844,512.5469 C161.2656,512.5469 161.0625,512.625 160.875,512.8125 C160.4219,513.2969 160.4219,513.2969 160.2344,513.3906 C159.8125,513.6563 159.125,513.7813 158.3594,513.7813 C156.3125,513.7813 155.0156,512.6875 155.0156,510.9844 L155.0156,509.8906 C155.0156,508.1094 156.2656,506.7969 158,506.7969 C158.5781,506.7969 159.1875,506.9531 159.6563,507.2031 C160.1406,507.4844 160.3125,507.7031 160.4063,508.1094 C160.4688,508.5156 160.5,508.6406 160.6406,508.7656 C160.7813,508.9063 161.0156,509.0156 161.2344,509.0156 C161.5,509.0156 161.7656,508.875 161.9375,508.6563 C162.0469,508.5 162.0781,508.3125 162.0781,507.8906 L162.0781,506.4688 C162.0781,506.0313 162.0625,505.9063 161.9688,505.75 C161.8125,505.4844 161.5313,505.3438 161.2344,505.3438 C160.9375,505.3438 160.7344,505.4375 160.5156,505.75 L160.3438,505.6719 Z " fill="#000000"/><text fill="#000000" font-family="sans-serif" font-size="12" lengthAdjust="spacing" textLength="57" x="175" y="514.1543">Pharmacy</text><line style="stroke:#A80036;stroke-width:1.5;" x1="130.5" x2="247.5" y1="526" y2="526"/><text fill="#000000" font-family="sans-serif" font-size="11" lengthAdjust="spacing" textLength="51" x="135.5" y="540.2104">-String id</text><text fill="#000000" font-family="sans-serif" font-size="11" lengthAdjust="spacing" textLength="107" x="135.5" y="553.0151">-String designation</text><text fill="#000000" font-family="sans-serif" font-size="11" lengthAdjust="spacing" textLength="73" x="135.5" y="565.8198">-String email</text><text fill="#000000" font-family="sans-serif" font-size="11" lengthAdjust="spacing" textLength="85" x="135.5" y="578.6245">-Adress adress</text><text fill="#000000" font-family="sans-serif" font-size="11" lengthAdjust="spacing" textLength="100" x="135.5" y="591.4292">-Integer parkLimit</text><line style="stroke:#A80036;stroke-width:1.5;" x1="130.5" x2="247.5" y1="598.0234" y2="598.0234"/><text fill="#000000" font-family="sans-serif" font-size="11" lengthAdjust="spacing" textLength="96" x="135.5" y="612.2339">+getProductList()</text><!--MD5=[0fcd3375de399c91a906cd30f47c8789]
class ClientRegister--><rect codeLine="45" fill="#FEFECE" filter="url(#f17iyo1w9x61ma)" height="73.6094" id="ClientRegister" style="stroke:#A80036;stroke-width:1.5;" width="127" x="381.5" y="519.5"/><ellipse cx="401.9" cy="535.5" fill="#ADD1B2" rx="11" ry="11" style="stroke:#A80036;stroke-width:1.0;"/><path d="M404.2438,531.1719 C403.3063,530.7344 402.7125,530.5938 401.8375,530.5938 C399.2125,530.5938 397.2125,532.6719 397.2125,535.3906 L397.2125,536.5156 C397.2125,539.0938 399.3219,540.9844 402.2125,540.9844 C403.4313,540.9844 404.5875,540.6875 405.3375,540.1406 C405.9156,539.7344 406.2438,539.2813 406.2438,538.8906 C406.2438,538.4375 405.8531,538.0469 405.3844,538.0469 C405.1656,538.0469 404.9625,538.125 404.775,538.3125 C404.3219,538.7969 404.3219,538.7969 404.1344,538.8906 C403.7125,539.1563 403.025,539.2813 402.2594,539.2813 C400.2125,539.2813 398.9156,538.1875 398.9156,536.4844 L398.9156,535.3906 C398.9156,533.6094 400.1656,532.2969 401.9,532.2969 C402.4781,532.2969 403.0875,532.4531 403.5563,532.7031 C404.0406,532.9844 404.2125,533.2031 404.3063,533.6094 C404.3688,534.0156 404.4,534.1406 404.5406,534.2656 C404.6813,534.4063 404.9156,534.5156 405.1344,534.5156 C405.4,534.5156 405.6656,534.375 405.8375,534.1563 C405.9469,534 405.9781,533.8125 405.9781,533.3906 L405.9781,531.9688 C405.9781,531.5313 405.9625,531.4063 405.8688,531.25 C405.7125,530.9844 405.4313,530.8438 405.1344,530.8438 C404.8375,530.8438 404.6344,530.9375 404.4156,531.25 L404.2438,531.1719 Z " fill="#000000"/><text fill="#000000" font-family="sans-serif" font-size="12" lengthAdjust="spacing" textLength="83" x="417.1" y="539.6543">ClientRegister</text><line style="stroke:#A80036;stroke-width:1.5;" x1="382.5" x2="507.5" y1="551.5" y2="551.5"/><line style="stroke:#A80036;stroke-width:1.5;" x1="382.5" x2="507.5" y1="559.5" y2="559.5"/><text fill="#000000" font-family="sans-serif" font-size="11" lengthAdjust="spacing" textLength="115" x="387.5" y="573.7104">+getClientByEmail()</text><text fill="#000000" font-family="sans-serif" font-size="11" lengthAdjust="spacing" textLength="106" x="387.5" y="586.5151">+getAdress(client)</text><!--MD5=[ed6624c6556d5e7b1bd23032162d20b7]
class Client--><rect codeLine="33" fill="#FEFECE" filter="url(#f17iyo1w9x61ma)" height="150.4375" id="Client" style="stroke:#A80036;stroke-width:1.5;" width="106" x="392" y="696"/><ellipse cx="425.45" cy="712" fill="#ADD1B2" rx="11" ry="11" style="stroke:#A80036;stroke-width:1.0;"/><path d="M427.7938,707.6719 C426.8563,707.2344 426.2625,707.0938 425.3875,707.0938 C422.7625,707.0938 420.7625,709.1719 420.7625,711.8906 L420.7625,713.0156 C420.7625,715.5938 422.8719,717.4844 425.7625,717.4844 C426.9813,717.4844 428.1375,717.1875 428.8875,716.6406 C429.4656,716.2344 429.7938,715.7813 429.7938,715.3906 C429.7938,714.9375 429.4031,714.5469 428.9344,714.5469 C428.7156,714.5469 428.5125,714.625 428.325,714.8125 C427.8719,715.2969 427.8719,715.2969 427.6844,715.3906 C427.2625,715.6563 426.575,715.7813 425.8094,715.7813 C423.7625,715.7813 422.4656,714.6875 422.4656,712.9844 L422.4656,711.8906 C422.4656,710.1094 423.7156,708.7969 425.45,708.7969 C426.0281,708.7969 426.6375,708.9531 427.1063,709.2031 C427.5906,709.4844 427.7625,709.7031 427.8563,710.1094 C427.9188,710.5156 427.95,710.6406 428.0906,710.7656 C428.2313,710.9063 428.4656,711.0156 428.6844,711.0156 C428.95,711.0156 429.2156,710.875 429.3875,710.6563 C429.4969,710.5 429.5281,710.3125 429.5281,709.8906 L429.5281,708.4688 C429.5281,708.0313 429.5125,707.9063 429.4188,707.75 C429.2625,707.4844 428.9813,707.3438 428.6844,707.3438 C428.3875,707.3438 428.1844,707.4375 427.9656,707.75 L427.7938,707.6719 Z " fill="#000000"/><text fill="#000000" font-family="sans-serif" font-size="12" lengthAdjust="spacing" textLength="33" x="443.55" y="716.1543">Client</text><line style="stroke:#A80036;stroke-width:1.5;" x1="393" x2="497" y1="728" y2="728"/><text fill="#000000" font-family="sans-serif" font-size="11" lengthAdjust="spacing" textLength="51" x="398" y="742.2104">-String id</text><text fill="#000000" font-family="sans-serif" font-size="11" lengthAdjust="spacing" textLength="74" x="398" y="755.0151">-String name</text><text fill="#000000" font-family="sans-serif" font-size="11" lengthAdjust="spacing" textLength="94" x="398" y="767.8198">-String password</text><text fill="#000000" font-family="sans-serif" font-size="11" lengthAdjust="spacing" textLength="73" x="398" y="780.6245">-String email</text><text fill="#000000" font-family="sans-serif" font-size="11" lengthAdjust="spacing" textLength="58" x="398" y="793.4292">-String NIF</text><text fill="#000000" font-family="sans-serif" font-size="11" lengthAdjust="spacing" textLength="68" x="398" y="806.2339">-String IBAN</text><text fill="#000000" font-family="sans-serif" font-size="11" lengthAdjust="spacing" textLength="85" x="398" y="819.0386">-double credits</text><text fill="#000000" font-family="sans-serif" font-size="11" lengthAdjust="spacing" textLength="92" x="398" y="831.8433">-Adress address</text><line style="stroke:#A80036;stroke-width:1.5;" x1="393" x2="497" y1="838.4375" y2="838.4375"/><!--MD5=[7242fb6db1977c86abfde97f79f90d47]
link BuyAProductUI to BuyAProductController--><path codeLine="63" d="M445,89.281 C445,110.229 445,141.649 445,167.836 " fill="none" id="BuyAProductUI-to-BuyAProductController" style="stroke:#A80036;stroke-width:1.0;stroke-dasharray:7.0,7.0;"/><polygon fill="#A80036" points="445,172.999,449,163.999,445,167.999,441,163.999,445,172.999" style="stroke:#A80036;stroke-width:1.0;"/><!--MD5=[1640679de5121f8a4678ca82d50045a2]
link BuyAProductController to Platform--><path codeLine="65" d="M445,259.141 C445,283.385 445,313.716 445,337.8 " fill="none" id="BuyAProductController-to-Platform" style="stroke:#A80036;stroke-width:1.0;stroke-dasharray:7.0,7.0;"/><polygon fill="#A80036" points="445,342.84,449,333.84,445,337.84,441,333.84,445,342.84" style="stroke:#A80036;stroke-width:1.0;"/><!--MD5=[5dd6367b4ff97805334df4335001b46b]
link BuyAProductController to PharmacyList--><path codeLine="66" d="M378.407,259.141 C335.24,286.458 279.86,321.503 240.15,346.632 " fill="none" id="BuyAProductController-to-PharmacyList" style="stroke:#A80036;stroke-width:1.0;stroke-dasharray:7.0,7.0;"/><polygon fill="#A80036" points="235.873,349.338,245.6168,347.9036,240.0976,346.6635,241.3377,341.1443,235.873,349.338" style="stroke:#A80036;stroke-width:1.0;"/><!--MD5=[49041f85611d143f41c27ae4156e71ae]
link ClientRegister to Client--><path codeLine="68" d="M445,593.548 C445,621.493 445,661.166 445,695.818 " fill="none" id="ClientRegister-Client" style="stroke:#A80036;stroke-width:1.0;"/><text fill="#000000" font-family="sans-serif" font-size="13" lengthAdjust="spacing" textLength="33" x="446" y="662.0669">has&gt;</text><text fill="#000000" font-family="sans-serif" font-size="13" lengthAdjust="spacing" textLength="8" x="436.3375" y="613.0365">1</text><text fill="#000000" font-family="sans-serif" font-size="13" lengthAdjust="spacing" textLength="23" x="420.9039" y="684.9897">1..*</text><!--MD5=[e924296dfa741f01004a0e89d4468287]
link BuyAProductController to ClientRegister--><path codeLine="71" d="M498.829,259.053 C510.269,270.94 520.767,284.823 527,300 C546.754,348.102 540.734,366.846 527,417 C517.158,452.944 495.315,489.025 476.648,515.347 " fill="none" id="BuyAProductController-to-ClientRegister" style="stroke:#A80036;stroke-width:1.0;stroke-dasharray:7.0,7.0;"/><polygon fill="#A80036" points="473.681,519.486,482.1759,514.5023,476.5943,515.4225,475.6742,509.8409,473.681,519.486" style="stroke:#A80036;stroke-width:1.0;"/><!--MD5=[9d300a128616d978fad49290fd17a35f]
link Platform to ClientRegister--><path codeLine="72" d="M445,417.157 C445,445.467 445,484.859 445,514.371 " fill="none" id="Platform-to-ClientRegister" style="stroke:#A80036;stroke-width:1.0;stroke-dasharray:7.0,7.0;"/><polygon fill="#A80036" points="445,519.39,449,510.39,445,514.39,441,510.39,445,519.39" style="stroke:#A80036;stroke-width:1.0;"/><!--MD5=[dcb9e7f24fda9389b72d4bf35ba5a068]
link PharmacyList to Pharmacy--><path codeLine="74" d="M189,410.602 C189,433.355 189,465.577 189,493.859 " fill="none" id="PharmacyList-Pharmacy" style="stroke:#A80036;stroke-width:1.0;"/><text fill="#000000" font-family="sans-serif" font-size="13" lengthAdjust="spacing" textLength="33" x="190" y="460.0669">has&gt;</text><text fill="#000000" font-family="sans-serif" font-size="13" lengthAdjust="spacing" textLength="8" x="180.175" y="430.5613">1</text><text fill="#000000" font-family="sans-serif" font-size="13" lengthAdjust="spacing" textLength="23" x="164.6703" y="482.8335">1..*</text><!--MD5=[9322cc0518f23d8606892fb845a2eb65]
@startuml
skinparam classAttributeIconSize 0

package UI <<Folder>> {
  class BuyAProductUI
}

package Controllers <<Folder>> {
  class BuyAProductController
}

package Domain <<Folder>> {
  class Platform
  class PharmacyList
  class Pharmacy
  class ClientRegister
  class Client
}

class BuyAProductUI {
}

class BuyAProductController {
  +getCLient()  
  +getPharmacyList()
  +fowardDeliveryToClosestPharmacy(pl, clientAdress)
}

class Platform {
  +getClientRegister()
  +getPharmacyList()
}

class Client{
-String id
-String name
-String password
-String email
-String NIF
-String IBAN
-double credits
-Adress address

}

class ClientRegister {
  +getClientByEmail()
  +getAdress(client)
}

class Pharmacy {
  -String id
  -String designation
  -String email
  -Adress adress
  -Integer parkLimit
  +getProductList()
}

class PharmacyList{
  +fowardDeliveryToClosestPharmacy(pl, clientAdress)
}

BuyAProductUI ..> BuyAProductController

BuyAProductController ..> Platform
BuyAProductController ..> PharmacyList

ClientRegister"1" - - "1..*" Client : has>


BuyAProductController ..> ClientRegister
Platform ..> ClientRegister

PharmacyList"1" - - "1..*" Pharmacy : has>
@enduml

PlantUML version 1.2021.01beta3(Unknown compile time)
(GPL source distribution)
Java Runtime: Java(TM) SE Runtime Environment
JVM: Java HotSpot(TM) 64-Bit Server VM
Default Encoding: UTF-8
Language: en
Country: US
--></g></svg>