<?xml version="1.0" encoding="UTF-8" standalone="no"?><svg xmlns="http://www.w3.org/2000/svg" xmlns:xlink="http://www.w3.org/1999/xlink" contentScriptType="application/ecmascript" contentStyleType="text/css" height="309px" preserveAspectRatio="none" style="width:587px;height:309px;" version="1.1" viewBox="0 0 587 309" width="587px" zoomAndPan="magnify"><defs><filter height="300%" id="f1ro7d44nhgbkl" width="300%" x="-1" y="-1"><feGaussianBlur result="blurOut" stdDeviation="2.0"/><feColorMatrix in="blurOut" result="blurOut2" type="matrix" values="0 0 0 0 0 0 0 0 0 0 0 0 0 0 0 0 0 0 .4 0"/><feOffset dx="4.0" dy="4.0" in="blurOut2" result="blurOut3"/><feBlend in="SourceGraphic" in2="blurOut3" mode="normal"/></filter></defs><g><rect fill="#FFFFFF" filter="url(#f1ro7d44nhgbkl)" height="108.5313" style="stroke:#A80036;stroke-width:1.0;" width="10" x="24.5" y="98.2969"/><rect fill="#FFFFFF" filter="url(#f1ro7d44nhgbkl)" height="29.1328" style="stroke:#A80036;stroke-width:1.0;" width="10" x="533.5" y="119.4297"/><rect fill="#FFFFFF" filter="url(#f1ro7d44nhgbkl)" height="29.1328" style="stroke:#A80036;stroke-width:1.0;" width="10" x="533.5" y="177.6953"/><line style="stroke:#A80036;stroke-width:1.0;stroke-dasharray:5.0,5.0;" x1="29" x2="29" y1="88.2969" y2="224.8281"/><line style="stroke:#A80036;stroke-width:1.0;stroke-dasharray:5.0,5.0;" x1="538" x2="538" y1="88.2969" y2="224.8281"/><text fill="#000000" font-family="sans-serif" font-size="14" lengthAdjust="spacing" textLength="43" x="5" y="84.9951">Client</text><ellipse cx="29.5" cy="15" fill="#FEFECE" filter="url(#f1ro7d44nhgbkl)" rx="8" ry="8" style="stroke:#A80036;stroke-width:2.0;"/><path d="M29.5,23 L29.5,50 M16.5,31 L42.5,31 M29.5,50 L16.5,65 M29.5,50 L42.5,65 " fill="none" filter="url(#f1ro7d44nhgbkl)" style="stroke:#A80036;stroke-width:2.0;"/><text fill="#000000" font-family="sans-serif" font-size="14" lengthAdjust="spacing" textLength="43" x="5" y="236.8232">Client</text><ellipse cx="29.5" cy="250.125" fill="#FEFECE" filter="url(#f1ro7d44nhgbkl)" rx="8" ry="8" style="stroke:#A80036;stroke-width:2.0;"/><path d="M29.5,258.125 L29.5,285.125 M16.5,266.125 L42.5,266.125 M29.5,285.125 L16.5,300.125 M29.5,285.125 L42.5,300.125 " fill="none" filter="url(#f1ro7d44nhgbkl)" style="stroke:#A80036;stroke-width:2.0;"/><rect fill="#FEFECE" filter="url(#f1ro7d44nhgbkl)" height="30.2969" style="stroke:#A80036;stroke-width:1.5;" width="73" x="500" y="53"/><text fill="#000000" font-family="sans-serif" font-size="14" lengthAdjust="spacing" textLength="59" x="507" y="72.9951">:System</text><rect fill="#FEFECE" filter="url(#f1ro7d44nhgbkl)" height="30.2969" style="stroke:#A80036;stroke-width:1.5;" width="73" x="500" y="223.8281"/><text fill="#000000" font-family="sans-serif" font-size="14" lengthAdjust="spacing" textLength="59" x="507" y="243.8232">:System</text><rect fill="#FFFFFF" filter="url(#f1ro7d44nhgbkl)" height="108.5313" style="stroke:#A80036;stroke-width:1.0;" width="10" x="24.5" y="98.2969"/><rect fill="#FFFFFF" filter="url(#f1ro7d44nhgbkl)" height="29.1328" style="stroke:#A80036;stroke-width:1.0;" width="10" x="533.5" y="119.4297"/><rect fill="#FFFFFF" filter="url(#f1ro7d44nhgbkl)" height="29.1328" style="stroke:#A80036;stroke-width:1.0;" width="10" x="533.5" y="177.6953"/><polygon fill="#A80036" points="521.5,115.4297,531.5,119.4297,521.5,123.4297,525.5,119.4297" style="stroke:#A80036;stroke-width:1.0;"/><line style="stroke:#A80036;stroke-width:1.0;" x1="34.5" x2="527.5" y1="119.4297" y2="119.4297"/><text fill="#000000" font-family="sans-serif" font-size="13" font-weight="bold" lengthAdjust="spacing" textLength="9" x="41.5" y="114.3638">1</text><text fill="#000000" font-family="sans-serif" font-size="13" lengthAdjust="spacing" textLength="221" x="54.5" y="114.3638">wants to perform a online delivery</text><polygon fill="#A80036" points="45.5,144.5625,35.5,148.5625,45.5,152.5625,41.5,148.5625" style="stroke:#A80036;stroke-width:1.0;"/><line style="stroke:#A80036;stroke-width:1.0;stroke-dasharray:2.0,2.0;" x1="39.5" x2="537.5" y1="148.5625" y2="148.5625"/><text fill="#000000" font-family="sans-serif" font-size="13" font-weight="bold" lengthAdjust="spacing" textLength="9" x="51.5" y="143.4966">2</text><text fill="#000000" font-family="sans-serif" font-size="13" lengthAdjust="spacing" textLength="462" x="64.5" y="143.4966">suggests the closest pharmacy to his location and asks for confirmation</text><polygon fill="#A80036" points="521.5,173.6953,531.5,177.6953,521.5,181.6953,525.5,177.6953" style="stroke:#A80036;stroke-width:1.0;"/><line style="stroke:#A80036;stroke-width:1.0;" x1="34.5" x2="527.5" y1="177.6953" y2="177.6953"/><text fill="#000000" font-family="sans-serif" font-size="13" font-weight="bold" lengthAdjust="spacing" textLength="8" x="41.5" y="172.6294">3</text><text fill="#000000" font-family="sans-serif" font-size="13" lengthAdjust="spacing" textLength="56" x="53.5" y="172.6294">confirms</text><polygon fill="#A80036" points="40.5,202.8281,30.5,206.8281,40.5,210.8281,36.5,206.8281" style="stroke:#A80036;stroke-width:1.0;"/><line style="stroke:#A80036;stroke-width:1.0;stroke-dasharray:2.0,2.0;" x1="34.5" x2="537.5" y1="206.8281" y2="206.8281"/><text fill="#000000" font-family="sans-serif" font-size="13" font-weight="bold" lengthAdjust="spacing" textLength="9" x="46.5" y="201.7622">4</text><text fill="#000000" font-family="sans-serif" font-size="13" lengthAdjust="spacing" textLength="98" x="59.5" y="201.7622">successful task</text><!--MD5=[5f6e801e24aa505650dd87e88c0e3200]
@startuml
autonumber
actor "Client" as CL

activate CL
CL -> ":System" : wants to perform a online delivery
activate ":System"
":System" - -> CL :  suggests the closest pharmacy to his location and asks for confirmation
deactivate ":System"
CL -> ":System" : confirms
activate ":System"
":System" - -> CL :  successful task 
deactivate ":System"
deactivate CL
@enduml

PlantUML version 1.2021.01beta3(Unknown compile time)
(GPL source distribution)
Java Runtime: Java(TM) SE Runtime Environment
JVM: Java HotSpot(TM) 64-Bit Server VM
Default Encoding: UTF-8
Language: en
Country: US
--></g></svg>