<?xml version="1.0" encoding="UTF-8" standalone="no"?><svg xmlns="http://www.w3.org/2000/svg" xmlns:xlink="http://www.w3.org/1999/xlink" contentScriptType="application/ecmascript" contentStyleType="text/css" height="412px" preserveAspectRatio="none" style="width:941px;height:412px;" version="1.1" viewBox="0 0 941 412" width="941px" zoomAndPan="magnify"><defs><filter height="300%" id="finiymw6bogwf" width="300%" x="-1" y="-1"><feGaussianBlur result="blurOut" stdDeviation="2.0"/><feColorMatrix in="blurOut" result="blurOut2" type="matrix" values="0 0 0 0 0 0 0 0 0 0 0 0 0 0 0 0 0 0 .4 0"/><feOffset dx="4.0" dy="4.0" in="blurOut2" result="blurOut3"/><feBlend in="SourceGraphic" in2="blurOut3" mode="normal"/></filter></defs><g><!--MD5=[ed6624c6556d5e7b1bd23032162d20b7]
class Client--><rect codeLine="5" fill="#FEFECE" filter="url(#finiymw6bogwf)" height="180.8516" id="Client" style="stroke:#A80036;stroke-width:1.5;" width="155" x="227" y="7"/><ellipse cx="283.75" cy="23" fill="#ADD1B2" rx="11" ry="11" style="stroke:#A80036;stroke-width:1.0;"/><path d="M286.0938,18.6719 C285.1563,18.2344 284.5625,18.0938 283.6875,18.0938 C281.0625,18.0938 279.0625,20.1719 279.0625,22.8906 L279.0625,24.0156 C279.0625,26.5938 281.1719,28.4844 284.0625,28.4844 C285.2813,28.4844 286.4375,28.1875 287.1875,27.6406 C287.7656,27.2344 288.0938,26.7813 288.0938,26.3906 C288.0938,25.9375 287.7031,25.5469 287.2344,25.5469 C287.0156,25.5469 286.8125,25.625 286.625,25.8125 C286.1719,26.2969 286.1719,26.2969 285.9844,26.3906 C285.5625,26.6563 284.875,26.7813 284.1094,26.7813 C282.0625,26.7813 280.7656,25.6875 280.7656,23.9844 L280.7656,22.8906 C280.7656,21.1094 282.0156,19.7969 283.75,19.7969 C284.3281,19.7969 284.9375,19.9531 285.4063,20.2031 C285.8906,20.4844 286.0625,20.7031 286.1563,21.1094 C286.2188,21.5156 286.25,21.6406 286.3906,21.7656 C286.5313,21.9063 286.7656,22.0156 286.9844,22.0156 C287.25,22.0156 287.5156,21.875 287.6875,21.6563 C287.7969,21.5 287.8281,21.3125 287.8281,20.8906 L287.8281,19.4688 C287.8281,19.0313 287.8125,18.9063 287.7188,18.75 C287.5625,18.4844 287.2813,18.3438 286.9844,18.3438 C286.6875,18.3438 286.4844,18.4375 286.2656,18.75 L286.0938,18.6719 Z " fill="#000000"/><text fill="#000000" font-family="sans-serif" font-size="12" lengthAdjust="spacing" textLength="33" x="304.25" y="27.1543">Client</text><line style="stroke:#A80036;stroke-width:1.5;" x1="228" x2="381" y1="39" y2="39"/><text fill="#000000" font-family="sans-serif" font-size="11" lengthAdjust="spacing" textLength="51" x="233" y="53.2104">-String id</text><text fill="#000000" font-family="sans-serif" font-size="11" lengthAdjust="spacing" textLength="74" x="233" y="66.0151">-String name</text><text fill="#000000" font-family="sans-serif" font-size="11" lengthAdjust="spacing" textLength="94" x="233" y="78.8198">-String password</text><text fill="#000000" font-family="sans-serif" font-size="11" lengthAdjust="spacing" textLength="73" x="233" y="91.6245">-String email</text><text fill="#000000" font-family="sans-serif" font-size="11" lengthAdjust="spacing" textLength="66" x="233" y="104.4292">-Integer NIF</text><text fill="#000000" font-family="sans-serif" font-size="11" lengthAdjust="spacing" textLength="75" x="233" y="117.2339">-String street</text><text fill="#000000" font-family="sans-serif" font-size="11" lengthAdjust="spacing" textLength="105" x="233" y="130.0386">-String postalCode</text><text fill="#000000" font-family="sans-serif" font-size="11" lengthAdjust="spacing" textLength="81" x="233" y="142.8433">-String locality</text><text fill="#000000" font-family="sans-serif" font-size="11" lengthAdjust="spacing" textLength="143" x="233" y="155.6479">-double decimalDegree1</text><text fill="#000000" font-family="sans-serif" font-size="11" lengthAdjust="spacing" textLength="143" x="233" y="168.4526">-double decimalDegree2</text><text fill="#000000" font-family="sans-serif" font-size="11" lengthAdjust="spacing" textLength="85" x="233" y="181.2573">-double credits</text><!--MD5=[99b8db98afdc2c8404e39242ef4c1e65]
class Platform--><rect codeLine="19" fill="#FEFECE" filter="url(#finiymw6bogwf)" height="40" id="Platform" style="stroke:#A80036;stroke-width:1.5;" width="80" x="7" y="221.5"/><ellipse cx="22" cy="237.5" fill="#ADD1B2" rx="11" ry="11" style="stroke:#A80036;stroke-width:1.0;"/><path d="M24.3438,233.1719 C23.4063,232.7344 22.8125,232.5938 21.9375,232.5938 C19.3125,232.5938 17.3125,234.6719 17.3125,237.3906 L17.3125,238.5156 C17.3125,241.0938 19.4219,242.9844 22.3125,242.9844 C23.5313,242.9844 24.6875,242.6875 25.4375,242.1406 C26.0156,241.7344 26.3438,241.2813 26.3438,240.8906 C26.3438,240.4375 25.9531,240.0469 25.4844,240.0469 C25.2656,240.0469 25.0625,240.125 24.875,240.3125 C24.4219,240.7969 24.4219,240.7969 24.2344,240.8906 C23.8125,241.1563 23.125,241.2813 22.3594,241.2813 C20.3125,241.2813 19.0156,240.1875 19.0156,238.4844 L19.0156,237.3906 C19.0156,235.6094 20.2656,234.2969 22,234.2969 C22.5781,234.2969 23.1875,234.4531 23.6563,234.7031 C24.1406,234.9844 24.3125,235.2031 24.4063,235.6094 C24.4688,236.0156 24.5,236.1406 24.6406,236.2656 C24.7813,236.4063 25.0156,236.5156 25.2344,236.5156 C25.5,236.5156 25.7656,236.375 25.9375,236.1563 C26.0469,236 26.0781,235.8125 26.0781,235.3906 L26.0781,233.9688 C26.0781,233.5313 26.0625,233.4063 25.9688,233.25 C25.8125,232.9844 25.5313,232.8438 25.2344,232.8438 C24.9375,232.8438 24.7344,232.9375 24.5156,233.25 L24.3438,233.1719 Z " fill="#000000"/><text fill="#000000" font-family="sans-serif" font-size="12" lengthAdjust="spacing" textLength="48" x="36" y="241.6543">Platform</text><line style="stroke:#A80036;stroke-width:1.5;" x1="8" x2="86" y1="253.5" y2="253.5"/><!--MD5=[7f2a9fafcebe4f099f71398fd3e2ed00]
class Pharmacy--><rect codeLine="22" fill="#FEFECE" filter="url(#finiymw6bogwf)" height="78.4141" id="Pharmacy" style="stroke:#A80036;stroke-width:1.5;" width="119" x="808" y="238.5"/><ellipse cx="836.5" cy="254.5" fill="#ADD1B2" rx="11" ry="11" style="stroke:#A80036;stroke-width:1.0;"/><path d="M838.8438,250.1719 C837.9063,249.7344 837.3125,249.5938 836.4375,249.5938 C833.8125,249.5938 831.8125,251.6719 831.8125,254.3906 L831.8125,255.5156 C831.8125,258.0938 833.9219,259.9844 836.8125,259.9844 C838.0313,259.9844 839.1875,259.6875 839.9375,259.1406 C840.5156,258.7344 840.8438,258.2813 840.8438,257.8906 C840.8438,257.4375 840.4531,257.0469 839.9844,257.0469 C839.7656,257.0469 839.5625,257.125 839.375,257.3125 C838.9219,257.7969 838.9219,257.7969 838.7344,257.8906 C838.3125,258.1563 837.625,258.2813 836.8594,258.2813 C834.8125,258.2813 833.5156,257.1875 833.5156,255.4844 L833.5156,254.3906 C833.5156,252.6094 834.7656,251.2969 836.5,251.2969 C837.0781,251.2969 837.6875,251.4531 838.1563,251.7031 C838.6406,251.9844 838.8125,252.2031 838.9063,252.6094 C838.9688,253.0156 839,253.1406 839.1406,253.2656 C839.2813,253.4063 839.5156,253.5156 839.7344,253.5156 C840,253.5156 840.2656,253.375 840.4375,253.1563 C840.5469,253 840.5781,252.8125 840.5781,252.3906 L840.5781,250.9688 C840.5781,250.5313 840.5625,250.4063 840.4688,250.25 C840.3125,249.9844 840.0313,249.8438 839.7344,249.8438 C839.4375,249.8438 839.2344,249.9375 839.0156,250.25 L838.8438,250.1719 Z " fill="#000000"/><text fill="#000000" font-family="sans-serif" font-size="12" lengthAdjust="spacing" textLength="57" x="853.5" y="258.6543">Pharmacy</text><line style="stroke:#A80036;stroke-width:1.5;" x1="809" x2="926" y1="270.5" y2="270.5"/><text fill="#000000" font-family="sans-serif" font-size="11" lengthAdjust="spacing" textLength="51" x="814" y="284.7104">-String id</text><text fill="#000000" font-family="sans-serif" font-size="11" lengthAdjust="spacing" textLength="107" x="814" y="297.5151">-String designation</text><text fill="#000000" font-family="sans-serif" font-size="11" lengthAdjust="spacing" textLength="73" x="814" y="310.3198">-String email</text><!--MD5=[fff5db4abcb6eec6574b9ea9c3ee0eae]
class Delivery--><rect codeLine="28" fill="#FEFECE" filter="url(#finiymw6bogwf)" height="104.0234" id="Delivery" style="stroke:#A80036;stroke-width:1.5;" width="131" x="522" y="294.5"/><ellipse cx="559.05" cy="310.5" fill="#ADD1B2" rx="11" ry="11" style="stroke:#A80036;stroke-width:1.0;"/><path d="M561.3938,306.1719 C560.4563,305.7344 559.8625,305.5938 558.9875,305.5938 C556.3625,305.5938 554.3625,307.6719 554.3625,310.3906 L554.3625,311.5156 C554.3625,314.0938 556.4719,315.9844 559.3625,315.9844 C560.5813,315.9844 561.7375,315.6875 562.4875,315.1406 C563.0656,314.7344 563.3938,314.2813 563.3938,313.8906 C563.3938,313.4375 563.0031,313.0469 562.5344,313.0469 C562.3156,313.0469 562.1125,313.125 561.925,313.3125 C561.4719,313.7969 561.4719,313.7969 561.2844,313.8906 C560.8625,314.1563 560.175,314.2813 559.4094,314.2813 C557.3625,314.2813 556.0656,313.1875 556.0656,311.4844 L556.0656,310.3906 C556.0656,308.6094 557.3156,307.2969 559.05,307.2969 C559.6281,307.2969 560.2375,307.4531 560.7063,307.7031 C561.1906,307.9844 561.3625,308.2031 561.4563,308.6094 C561.5188,309.0156 561.55,309.1406 561.6906,309.2656 C561.8313,309.4063 562.0656,309.5156 562.2844,309.5156 C562.55,309.5156 562.8156,309.375 562.9875,309.1563 C563.0969,309 563.1281,308.8125 563.1281,308.3906 L563.1281,306.9688 C563.1281,306.5313 563.1125,306.4063 563.0188,306.25 C562.8625,305.9844 562.5813,305.8438 562.2844,305.8438 C561.9875,305.8438 561.7844,305.9375 561.5656,306.25 L561.3938,306.1719 Z " fill="#000000"/><text fill="#000000" font-family="sans-serif" font-size="12" lengthAdjust="spacing" textLength="50" x="577.95" y="314.6543">Delivery</text><line style="stroke:#A80036;stroke-width:1.5;" x1="523" x2="652" y1="326.5" y2="326.5"/><text fill="#000000" font-family="sans-serif" font-size="11" lengthAdjust="spacing" textLength="51" x="528" y="340.7104">-String id</text><text fill="#000000" font-family="sans-serif" font-size="11" lengthAdjust="spacing" textLength="113" x="528" y="353.5151">-date date_delivery</text><text fill="#000000" font-family="sans-serif" font-size="11" lengthAdjust="spacing" textLength="112" x="528" y="366.3198">-double totalWeight</text><text fill="#000000" font-family="sans-serif" font-size="11" lengthAdjust="spacing" textLength="90" x="528" y="379.1245">-Invoice invoice</text><text fill="#000000" font-family="sans-serif" font-size="11" lengthAdjust="spacing" textLength="119" x="528" y="391.9292">-Pharmacy pharmacy</text><!--MD5=[c6a2171c11447acbe08a3dfeee0e1710]
class Courier--><rect codeLine="37" fill="#FEFECE" filter="url(#finiymw6bogwf)" height="104.0234" id="Courier" style="stroke:#A80036;stroke-width:1.5;" width="177" x="216" y="294.5"/><ellipse cx="278.25" cy="310.5" fill="#ADD1B2" rx="11" ry="11" style="stroke:#A80036;stroke-width:1.0;"/><path d="M280.5938,306.1719 C279.6563,305.7344 279.0625,305.5938 278.1875,305.5938 C275.5625,305.5938 273.5625,307.6719 273.5625,310.3906 L273.5625,311.5156 C273.5625,314.0938 275.6719,315.9844 278.5625,315.9844 C279.7813,315.9844 280.9375,315.6875 281.6875,315.1406 C282.2656,314.7344 282.5938,314.2813 282.5938,313.8906 C282.5938,313.4375 282.2031,313.0469 281.7344,313.0469 C281.5156,313.0469 281.3125,313.125 281.125,313.3125 C280.6719,313.7969 280.6719,313.7969 280.4844,313.8906 C280.0625,314.1563 279.375,314.2813 278.6094,314.2813 C276.5625,314.2813 275.2656,313.1875 275.2656,311.4844 L275.2656,310.3906 C275.2656,308.6094 276.5156,307.2969 278.25,307.2969 C278.8281,307.2969 279.4375,307.4531 279.9063,307.7031 C280.3906,307.9844 280.5625,308.2031 280.6563,308.6094 C280.7188,309.0156 280.75,309.1406 280.8906,309.2656 C281.0313,309.4063 281.2656,309.5156 281.4844,309.5156 C281.75,309.5156 282.0156,309.375 282.1875,309.1563 C282.2969,309 282.3281,308.8125 282.3281,308.3906 L282.3281,306.9688 C282.3281,306.5313 282.3125,306.4063 282.2188,306.25 C282.0625,305.9844 281.7813,305.8438 281.4844,305.8438 C281.1875,305.8438 280.9844,305.9375 280.7656,306.25 L280.5938,306.1719 Z " fill="#000000"/><text fill="#000000" font-family="sans-serif" font-size="12" lengthAdjust="spacing" textLength="44" x="298.75" y="314.6543">Courier</text><line style="stroke:#A80036;stroke-width:1.5;" x1="217" x2="392" y1="326.5" y2="326.5"/><text fill="#000000" font-family="sans-serif" font-size="11" lengthAdjust="spacing" textLength="58" x="222" y="340.7104">-String NIF</text><text fill="#000000" font-family="sans-serif" font-size="11" lengthAdjust="spacing" textLength="74" x="222" y="353.5151">-String name</text><text fill="#000000" font-family="sans-serif" font-size="11" lengthAdjust="spacing" textLength="94" x="222" y="366.3198">-String password</text><text fill="#000000" font-family="sans-serif" font-size="11" lengthAdjust="spacing" textLength="73" x="222" y="379.1245">-String email</text><text fill="#000000" font-family="sans-serif" font-size="11" lengthAdjust="spacing" textLength="165" x="222" y="391.9292">-String socialSecurityNumber</text><!--MD5=[f0cfa747e910e280deb3c434245f2238]
link Platform to Courier--><path codeLine="46" d="M77.0214,261.718 C89.033,269.514 103.3299,278.079 117,284.5 C148.347,299.2238 184.154,312.0185 215.958,322.0992 " fill="none" id="Platform-Courier" style="stroke:#A80036;stroke-width:1.0;"/><polygon fill="#000000" points="142.0857,278.0593,134.9615,271.7587,132.6187,277.1495,142.0857,278.0593" style="stroke:#000000;stroke-width:1.0;"/><text fill="#000000" font-family="sans-serif" font-size="13" lengthAdjust="spacing" textLength="23" x="146.5" y="280.5669">has</text><text fill="#000000" font-family="sans-serif" font-size="13" lengthAdjust="spacing" textLength="8" x="76.3399" y="281.5993">1</text><text fill="#000000" font-family="sans-serif" font-size="13" lengthAdjust="spacing" textLength="23" x="184.9859" y="332.8237">0..*</text><!--MD5=[7471b15d97b16c1e8744ea00ac81bc31]
link Courier to Delivery--><path codeLine="48" d="M393.254,346.5 C434.801,346.5 483.545,346.5 521.684,346.5 " fill="none" id="Courier-Delivery" style="stroke:#A80036;stroke-width:1.0;"/><polygon fill="#000000" points="442,338.0664,432.9549,335.1275,432.9549,341.0053,442,338.0664" style="stroke:#000000;stroke-width:1.0;"/><text fill="#000000" font-family="sans-serif" font-size="13" lengthAdjust="spacing" textLength="36" x="446" y="342.5669">make</text><text fill="#000000" font-family="sans-serif" font-size="13" lengthAdjust="spacing" textLength="23" x="400.9297" y="359.1453">0..*</text><text fill="#000000" font-family="sans-serif" font-size="13" lengthAdjust="spacing" textLength="23" x="491.0732" y="359.3106">0..*</text><!--MD5=[4a07f137c208f82f57837154e1cfa51e]
link Platform to Pharmacy--><path codeLine="50" d="M87.2022,243.224 C219.546,249.045 650.312,267.991 807.989,274.927 " fill="none" id="Platform-Pharmacy" style="stroke:#A80036;stroke-width:1.0;"/><polygon fill="#000000" points="432.9952,249.2861,424.088,245.9526,423.8297,251.8247,432.9952,249.2861" style="stroke:#000000;stroke-width:1.0;"/><text fill="#000000" font-family="sans-serif" font-size="13" lengthAdjust="spacing" textLength="54" x="437" y="253.5669">contains</text><text fill="#000000" font-family="sans-serif" font-size="13" lengthAdjust="spacing" textLength="8" x="95.0757" y="256.9457">1</text><text fill="#000000" font-family="sans-serif" font-size="13" lengthAdjust="spacing" textLength="8" x="791.8517" y="287.6071">1</text><!--MD5=[6f4f5a959b7eecf0b4982552d890dec0]
link Platform to Client--><path codeLine="52" d="M83.5262,221.477 C120.411,200.689 179.258,167.523 226.809,140.723 " fill="none" id="Platform-Client" style="stroke:#A80036;stroke-width:1.0;"/><polygon fill="#000000" points="126.3558,154.6115,117.0331,156.4922,119.919,161.6128,126.3558,154.6115" style="stroke:#000000;stroke-width:1.0;"/><text fill="#000000" font-family="sans-serif" font-size="13" lengthAdjust="spacing" textLength="54" x="131" y="161.5669">contains</text><text fill="#000000" font-family="sans-serif" font-size="13" lengthAdjust="spacing" textLength="8" x="85.0808" y="210.4785">1</text><text fill="#000000" font-family="sans-serif" font-size="13" lengthAdjust="spacing" textLength="23" x="195.8654" y="157.3199">0..*</text><!--MD5=[8a8d3dd8b2b8fdf23d4a5b7dbd89188c]
link Delivery to Pharmacy--><path codeLine="54" d="M653.328,330.4096 C700.017,318.8214 762.495,303.3142 807.733,292.086 " fill="none" id="Delivery-Pharmacy" style="stroke:#A80036;stroke-width:1.0;"/><text fill="#000000" font-family="sans-serif" font-size="13" lengthAdjust="spacing" textLength="93" x="684" y="295.5669">forwarded to&gt;</text><text fill="#000000" font-family="sans-serif" font-size="13" lengthAdjust="spacing" textLength="23" x="660.94" y="341.6363">0..*</text><text fill="#000000" font-family="sans-serif" font-size="13" lengthAdjust="spacing" textLength="8" x="791.9614" y="306.8275">1</text><!--MD5=[18ec9dd8c2c974f94b5ab01290ff260f]
@startuml
skinparam classAttributeIconSize 0
hide methods
left to right direction

class Client{
  -String id
  -String name
  -String password
  -String email
  -Integer NIF
  -String street
  -String postalCode
  -String locality
  -double decimalDegree1
  -double decimalDegree2
  -double credits

}
class Platform{
}

class Pharmacy {
  -String id
  -String designation
  -String email
}

class Delivery {
  -String id
  -date date_delivery 
  -double totalWeight
  -Invoice invoice
  -Pharmacy pharmacy
  
}

class Courier{
-String NIF
-String name
-String password
-String email
-String socialSecurityNumber

}

Platform"1" - - "0..*"Courier : has >

Courier"0..*" - - "0..*" Delivery : make >

Platform"1" - - "1"Pharmacy : contains >

Platform"1" - - "0..*"Client : contains >

Delivery"0..*" - - "1"Pharmacy: forwarded to>
@enduml

PlantUML version 1.2021.01beta3(Unknown compile time)
(GPL source distribution)
Java Runtime: Java(TM) SE Runtime Environment
JVM: Java HotSpot(TM) 64-Bit Server VM
Default Encoding: UTF-8
Language: en
Country: US
--></g></svg>