<?xml version="1.0" encoding="UTF-8" standalone="no"?><svg xmlns="http://www.w3.org/2000/svg" xmlns:xlink="http://www.w3.org/1999/xlink" contentScriptType="application/ecmascript" contentStyleType="text/css" height="890px" preserveAspectRatio="none" style="width:2596px;height:890px;background:#FFFFFF;" version="1.1" viewBox="0 0 2596 890" width="2596px" zoomAndPan="magnify"><defs><filter height="300%" id="f1tjbhhrl1408p" width="300%" x="-1" y="-1"><feGaussianBlur result="blurOut" stdDeviation="2.0"/><feColorMatrix in="blurOut" result="blurOut2" type="matrix" values="0 0 0 0 0 0 0 0 0 0 0 0 0 0 0 0 0 0 .4 0"/><feOffset dx="4.0" dy="4.0" in="blurOut2" result="blurOut3"/><feBlend in="SourceGraphic" in2="blurOut3" mode="normal"/></filter></defs><g><rect fill="#FFFFFF" filter="url(#f1tjbhhrl1408p)" height="677.0547" style="stroke:#A80036;stroke-width:1.0;" width="10" x="289.5" y="119.4297"/><rect fill="#FFFFFF" filter="url(#f1tjbhhrl1408p)" height="388.7266" style="stroke:#A80036;stroke-width:1.0;" width="10" x="769.5" y="398.7578"/><rect fill="#FFFFFF" filter="url(#f1tjbhhrl1408p)" height="29.1328" style="stroke:#A80036;stroke-width:1.0;" width="10" x="961.5" y="554.4219"/><rect fill="#FFFFFF" filter="url(#f1tjbhhrl1408p)" height="29.1328" style="stroke:#A80036;stroke-width:1.0;" width="10" x="961.5" y="700.0859"/><rect fill="#FFFFFF" filter="url(#f1tjbhhrl1408p)" height="29.1328" style="stroke:#A80036;stroke-width:1.0;" width="10" x="1127.5" y="583.5547"/><rect fill="#FFFFFF" filter="url(#f1tjbhhrl1408p)" height="29.1328" style="stroke:#A80036;stroke-width:1.0;" width="10" x="1127.5" y="729.2188"/><rect fill="#FFFFFF" filter="url(#f1tjbhhrl1408p)" height="29.1328" style="stroke:#A80036;stroke-width:1.0;" width="10" x="2319.5" y="758.3516"/><rect fill="#FFFFFF" filter="url(#f1tjbhhrl1408p)" height="29.1328" style="stroke:#A80036;stroke-width:1.0;" width="10" x="2496" y="612.6875"/><rect fill="#FFFFFF" filter="url(#f1tjbhhrl1408p)" height="104.5313" style="stroke:#000000;stroke-width:2.0;" width="2242.5" x="10" y="192.6953"/><line style="stroke:#A80036;stroke-width:1.0;stroke-dasharray:5.0,5.0;" x1="38" x2="38" y1="88.2969" y2="805.4844"/><line style="stroke:#A80036;stroke-width:1.0;stroke-dasharray:5.0,5.0;" x1="294" x2="294" y1="88.2969" y2="805.4844"/><line style="stroke:#A80036;stroke-width:1.0;stroke-dasharray:5.0,5.0;" x1="774" x2="774" y1="88.2969" y2="805.4844"/><line style="stroke:#A80036;stroke-width:1.0;stroke-dasharray:5.0,5.0;" x1="966" x2="966" y1="88.2969" y2="805.4844"/><line style="stroke:#A80036;stroke-width:1.0;stroke-dasharray:5.0,5.0;" x1="1132" x2="1132" y1="88.2969" y2="805.4844"/><line style="stroke:#A80036;stroke-width:1.0;stroke-dasharray:5.0,5.0;" x1="1735.5" x2="1735.5" y1="88.2969" y2="805.4844"/><line style="stroke:#A80036;stroke-width:1.0;stroke-dasharray:5.0,5.0;" x1="1851.5" x2="1851.5" y1="88.2969" y2="805.4844"/><line style="stroke:#A80036;stroke-width:1.0;stroke-dasharray:5.0,5.0;" x1="1967.5" x2="1967.5" y1="88.2969" y2="805.4844"/><line style="stroke:#A80036;stroke-width:1.0;stroke-dasharray:5.0,5.0;" x1="2067.5" x2="2067.5" y1="88.2969" y2="805.4844"/><line style="stroke:#A80036;stroke-width:1.0;stroke-dasharray:5.0,5.0;" x1="2182.5" x2="2182.5" y1="88.2969" y2="805.4844"/><line style="stroke:#A80036;stroke-width:1.0;stroke-dasharray:5.0,5.0;" x1="2324.5" x2="2324.5" y1="88.2969" y2="805.4844"/><line style="stroke:#A80036;stroke-width:1.0;stroke-dasharray:5.0,5.0;" x1="2500.5" x2="2500.5" y1="88.2969" y2="805.4844"/><text fill="#000000" font-family="sans-serif" font-size="14" lengthAdjust="spacing" textLength="31" x="20" y="84.9951">User</text><ellipse cx="38.5" cy="15" fill="#FEFECE" filter="url(#f1tjbhhrl1408p)" rx="8" ry="8" style="stroke:#A80036;stroke-width:2.0;"/><path d="M38.5,23 L38.5,50 M25.5,31 L51.5,31 M38.5,50 L25.5,65 M38.5,50 L51.5,65 " fill="none" filter="url(#f1tjbhhrl1408p)" style="stroke:#A80036;stroke-width:2.0;"/><text fill="#000000" font-family="sans-serif" font-size="14" lengthAdjust="spacing" textLength="31" x="20" y="817.4795">User</text><ellipse cx="38.5" cy="830.7813" fill="#FEFECE" filter="url(#f1tjbhhrl1408p)" rx="8" ry="8" style="stroke:#A80036;stroke-width:2.0;"/><path d="M38.5,838.7813 L38.5,865.7813 M25.5,846.7813 L51.5,846.7813 M38.5,865.7813 L25.5,880.7813 M38.5,865.7813 L51.5,880.7813 " fill="none" filter="url(#f1tjbhhrl1408p)" style="stroke:#A80036;stroke-width:2.0;"/><rect fill="#FEFECE" filter="url(#f1tjbhhrl1408p)" height="46.5938" style="stroke:#A80036;stroke-width:1.5;" width="139" x="223" y="36.7031"/><text fill="#000000" font-family="sans-serif" font-size="14" font-style="italic" lengthAdjust="spacing" textLength="108" x="238.5" y="56.6982">«presentation»</text><text fill="#000000" font-family="sans-serif" font-size="14" lengthAdjust="spacing" textLength="125" x="230" y="72.9951">RequestServiceUI</text><rect fill="#FEFECE" filter="url(#f1tjbhhrl1408p)" height="46.5938" style="stroke:#A80036;stroke-width:1.5;" width="139" x="223" y="804.4844"/><text fill="#000000" font-family="sans-serif" font-size="14" font-style="italic" lengthAdjust="spacing" textLength="108" x="238.5" y="824.4795">«presentation»</text><text fill="#000000" font-family="sans-serif" font-size="14" lengthAdjust="spacing" textLength="125" x="230" y="840.7764">RequestServiceUI</text><rect fill="#FEFECE" filter="url(#f1tjbhhrl1408p)" height="46.5938" style="stroke:#A80036;stroke-width:1.5;" width="199" x="673" y="36.7031"/><text fill="#000000" font-family="sans-serif" font-size="14" font-style="italic" lengthAdjust="spacing" textLength="97" x="724" y="56.6982">«application»</text><text fill="#000000" font-family="sans-serif" font-size="14" lengthAdjust="spacing" textLength="185" x="680" y="72.9951">RequestServiceController</text><rect fill="#FEFECE" filter="url(#f1tjbhhrl1408p)" height="46.5938" style="stroke:#A80036;stroke-width:1.5;" width="199" x="673" y="804.4844"/><text fill="#000000" font-family="sans-serif" font-size="14" font-style="italic" lengthAdjust="spacing" textLength="97" x="724" y="824.4795">«application»</text><text fill="#000000" font-family="sans-serif" font-size="14" lengthAdjust="spacing" textLength="185" x="680" y="840.7764">RequestServiceController</text><rect fill="#FEFECE" filter="url(#f1tjbhhrl1408p)" height="46.5938" style="stroke:#A80036;stroke-width:1.5;" width="157" x="886" y="36.7031"/><text fill="#000000" font-family="sans-serif" font-size="14" font-style="italic" lengthAdjust="spacing" textLength="100" x="914.5" y="56.6982">«persistence»</text><text fill="#000000" font-family="sans-serif" font-size="14" lengthAdjust="spacing" textLength="143" x="893" y="72.9951">PersistenceContext</text><rect fill="#FEFECE" filter="url(#f1tjbhhrl1408p)" height="46.5938" style="stroke:#A80036;stroke-width:1.5;" width="157" x="886" y="804.4844"/><text fill="#000000" font-family="sans-serif" font-size="14" font-style="italic" lengthAdjust="spacing" textLength="100" x="914.5" y="824.4795">«persistence»</text><text fill="#000000" font-family="sans-serif" font-size="14" lengthAdjust="spacing" textLength="143" x="893" y="840.7764">PersistenceContext</text><rect fill="#FEFECE" filter="url(#f1tjbhhrl1408p)" height="46.5938" style="stroke:#A80036;stroke-width:1.5;" width="147" x="1057" y="36.7031"/><text fill="#000000" font-family="sans-serif" font-size="14" font-style="italic" lengthAdjust="spacing" textLength="68" x="1096.5" y="56.6982">«factory»</text><text fill="#000000" font-family="sans-serif" font-size="14" lengthAdjust="spacing" textLength="133" x="1064" y="72.9951">RepositoryFactory</text><rect fill="#FEFECE" filter="url(#f1tjbhhrl1408p)" height="46.5938" style="stroke:#A80036;stroke-width:1.5;" width="147" x="1057" y="804.4844"/><text fill="#000000" font-family="sans-serif" font-size="14" font-style="italic" lengthAdjust="spacing" textLength="68" x="1096.5" y="824.4795">«factory»</text><text fill="#000000" font-family="sans-serif" font-size="14" lengthAdjust="spacing" textLength="133" x="1064" y="840.7764">RepositoryFactory</text><rect fill="#FEFECE" filter="url(#f1tjbhhrl1408p)" height="46.5938" style="stroke:#A80036;stroke-width:1.5;" width="86" x="1690.5" y="36.7031"/><text fill="#000000" font-family="sans-serif" font-size="14" font-style="italic" lengthAdjust="spacing" textLength="72" x="1697.5" y="56.6982">«domain»</text><text fill="#000000" font-family="sans-serif" font-size="14" lengthAdjust="spacing" textLength="59" x="1704" y="72.9951">Request</text><rect fill="#FEFECE" filter="url(#f1tjbhhrl1408p)" height="46.5938" style="stroke:#A80036;stroke-width:1.5;" width="86" x="1690.5" y="804.4844"/><text fill="#000000" font-family="sans-serif" font-size="14" font-style="italic" lengthAdjust="spacing" textLength="72" x="1697.5" y="824.4795">«domain»</text><text fill="#000000" font-family="sans-serif" font-size="14" lengthAdjust="spacing" textLength="59" x="1704" y="840.7764">Request</text><rect fill="#FEFECE" filter="url(#f1tjbhhrl1408p)" height="46.5938" style="stroke:#A80036;stroke-width:1.5;" width="118" x="1790.5" y="36.7031"/><text fill="#000000" font-family="sans-serif" font-size="14" font-style="italic" lengthAdjust="spacing" textLength="72" x="1813.5" y="56.6982">«domain»</text><text fill="#000000" font-family="sans-serif" font-size="14" lengthAdjust="spacing" textLength="104" x="1797.5" y="72.9951">TaskExecution</text><rect fill="#FEFECE" filter="url(#f1tjbhhrl1408p)" height="46.5938" style="stroke:#A80036;stroke-width:1.5;" width="118" x="1790.5" y="804.4844"/><text fill="#000000" font-family="sans-serif" font-size="14" font-style="italic" lengthAdjust="spacing" textLength="72" x="1813.5" y="824.4795">«domain»</text><text fill="#000000" font-family="sans-serif" font-size="14" lengthAdjust="spacing" textLength="104" x="1797.5" y="840.7764">TaskExecution</text><rect fill="#FEFECE" filter="url(#f1tjbhhrl1408p)" height="46.5938" style="stroke:#A80036;stroke-width:1.5;" width="86" x="1922.5" y="36.7031"/><text fill="#000000" font-family="sans-serif" font-size="14" font-style="italic" lengthAdjust="spacing" textLength="72" x="1929.5" y="56.6982">«domain»</text><text fill="#000000" font-family="sans-serif" font-size="14" lengthAdjust="spacing" textLength="53" x="1939" y="72.9951">Service</text><rect fill="#FEFECE" filter="url(#f1tjbhhrl1408p)" height="46.5938" style="stroke:#A80036;stroke-width:1.5;" width="86" x="1922.5" y="804.4844"/><text fill="#000000" font-family="sans-serif" font-size="14" font-style="italic" lengthAdjust="spacing" textLength="72" x="1929.5" y="824.4795">«domain»</text><text fill="#000000" font-family="sans-serif" font-size="14" lengthAdjust="spacing" textLength="53" x="1939" y="840.7764">Service</text><rect fill="#FEFECE" filter="url(#f1tjbhhrl1408p)" height="46.5938" style="stroke:#A80036;stroke-width:1.5;" width="86" x="2022.5" y="36.7031"/><text fill="#000000" font-family="sans-serif" font-size="14" font-style="italic" lengthAdjust="spacing" textLength="72" x="2029.5" y="56.6982">«domain»</text><text fill="#000000" font-family="sans-serif" font-size="14" lengthAdjust="spacing" textLength="68" x="2031.5" y="72.9951">Workflow</text><rect fill="#FEFECE" filter="url(#f1tjbhhrl1408p)" height="46.5938" style="stroke:#A80036;stroke-width:1.5;" width="86" x="2022.5" y="804.4844"/><text fill="#000000" font-family="sans-serif" font-size="14" font-style="italic" lengthAdjust="spacing" textLength="72" x="2029.5" y="824.4795">«domain»</text><text fill="#000000" font-family="sans-serif" font-size="14" lengthAdjust="spacing" textLength="68" x="2031.5" y="840.7764">Workflow</text><rect fill="#FEFECE" filter="url(#f1tjbhhrl1408p)" height="46.5938" style="stroke:#A80036;stroke-width:1.5;" width="116" x="2122.5" y="36.7031"/><text fill="#000000" font-family="sans-serif" font-size="14" font-style="italic" lengthAdjust="spacing" textLength="97" x="2132" y="56.6982">«application»</text><text fill="#000000" font-family="sans-serif" font-size="14" lengthAdjust="spacing" textLength="102" x="2129.5" y="72.9951">FormValidator</text><rect fill="#FEFECE" filter="url(#f1tjbhhrl1408p)" height="46.5938" style="stroke:#A80036;stroke-width:1.5;" width="116" x="2122.5" y="804.4844"/><text fill="#000000" font-family="sans-serif" font-size="14" font-style="italic" lengthAdjust="spacing" textLength="97" x="2132" y="824.4795">«application»</text><text fill="#000000" font-family="sans-serif" font-size="14" lengthAdjust="spacing" textLength="102" x="2129.5" y="840.7764">FormValidator</text><text fill="#000000" font-family="sans-serif" font-size="14" font-style="italic" lengthAdjust="spacing" textLength="90" x="2276.5" y="68.6982">«repository»</text><text fill="#000000" font-family="sans-serif" font-size="14" lengthAdjust="spacing" textLength="138" x="2252.5" y="84.9951">RequestRepository</text><path d="M2306.5,19.7031 C2306.5,9.7031 2324.5,9.7031 2324.5,9.7031 C2324.5,9.7031 2342.5,9.7031 2342.5,19.7031 L2342.5,45.7031 C2342.5,55.7031 2324.5,55.7031 2324.5,55.7031 C2324.5,55.7031 2306.5,55.7031 2306.5,45.7031 L2306.5,19.7031 " fill="#FEFECE" filter="url(#f1tjbhhrl1408p)" style="stroke:#000000;stroke-width:1.5;"/><path d="M2306.5,19.7031 C2306.5,29.7031 2324.5,29.7031 2324.5,29.7031 C2324.5,29.7031 2342.5,29.7031 2342.5,19.7031 " fill="none" style="stroke:#000000;stroke-width:1.5;"/><text fill="#000000" font-family="sans-serif" font-size="14" font-style="italic" lengthAdjust="spacing" textLength="90" x="2276.5" y="817.4795">«repository»</text><text fill="#000000" font-family="sans-serif" font-size="14" lengthAdjust="spacing" textLength="138" x="2252.5" y="833.7764">RequestRepository</text><path d="M2306.5,847.0781 C2306.5,837.0781 2324.5,837.0781 2324.5,837.0781 C2324.5,837.0781 2342.5,837.0781 2342.5,847.0781 L2342.5,873.0781 C2342.5,883.0781 2324.5,883.0781 2324.5,883.0781 C2324.5,883.0781 2306.5,883.0781 2306.5,873.0781 L2306.5,847.0781 " fill="#FEFECE" filter="url(#f1tjbhhrl1408p)" style="stroke:#000000;stroke-width:1.5;"/><path d="M2306.5,847.0781 C2306.5,857.0781 2324.5,857.0781 2324.5,857.0781 C2324.5,857.0781 2342.5,857.0781 2342.5,847.0781 " fill="none" style="stroke:#000000;stroke-width:1.5;"/><text fill="#000000" font-family="sans-serif" font-size="14" font-style="italic" lengthAdjust="spacing" textLength="90" x="2453" y="68.6982">«repository»</text><text fill="#000000" font-family="sans-serif" font-size="14" lengthAdjust="spacing" textLength="183" x="2406.5" y="84.9951">TaskExecutionRepository</text><path d="M2483,19.7031 C2483,9.7031 2501,9.7031 2501,9.7031 C2501,9.7031 2519,9.7031 2519,19.7031 L2519,45.7031 C2519,55.7031 2501,55.7031 2501,55.7031 C2501,55.7031 2483,55.7031 2483,45.7031 L2483,19.7031 " fill="#FEFECE" filter="url(#f1tjbhhrl1408p)" style="stroke:#000000;stroke-width:1.5;"/><path d="M2483,19.7031 C2483,29.7031 2501,29.7031 2501,29.7031 C2501,29.7031 2519,29.7031 2519,19.7031 " fill="none" style="stroke:#000000;stroke-width:1.5;"/><text fill="#000000" font-family="sans-serif" font-size="14" font-style="italic" lengthAdjust="spacing" textLength="90" x="2453" y="817.4795">«repository»</text><text fill="#000000" font-family="sans-serif" font-size="14" lengthAdjust="spacing" textLength="183" x="2406.5" y="833.7764">TaskExecutionRepository</text><path d="M2483,847.0781 C2483,837.0781 2501,837.0781 2501,837.0781 C2501,837.0781 2519,837.0781 2519,847.0781 L2519,873.0781 C2519,883.0781 2501,883.0781 2501,883.0781 C2501,883.0781 2483,883.0781 2483,873.0781 L2483,847.0781 " fill="#FEFECE" filter="url(#f1tjbhhrl1408p)" style="stroke:#000000;stroke-width:1.5;"/><path d="M2483,847.0781 C2483,857.0781 2501,857.0781 2501,857.0781 C2501,857.0781 2519,857.0781 2519,847.0781 " fill="none" style="stroke:#000000;stroke-width:1.5;"/><rect fill="#FFFFFF" filter="url(#f1tjbhhrl1408p)" height="677.0547" style="stroke:#A80036;stroke-width:1.0;" width="10" x="289.5" y="119.4297"/><rect fill="#FFFFFF" filter="url(#f1tjbhhrl1408p)" height="388.7266" style="stroke:#A80036;stroke-width:1.0;" width="10" x="769.5" y="398.7578"/><rect fill="#FFFFFF" filter="url(#f1tjbhhrl1408p)" height="29.1328" style="stroke:#A80036;stroke-width:1.0;" width="10" x="961.5" y="554.4219"/><rect fill="#FFFFFF" filter="url(#f1tjbhhrl1408p)" height="29.1328" style="stroke:#A80036;stroke-width:1.0;" width="10" x="961.5" y="700.0859"/><rect fill="#FFFFFF" filter="url(#f1tjbhhrl1408p)" height="29.1328" style="stroke:#A80036;stroke-width:1.0;" width="10" x="1127.5" y="583.5547"/><rect fill="#FFFFFF" filter="url(#f1tjbhhrl1408p)" height="29.1328" style="stroke:#A80036;stroke-width:1.0;" width="10" x="1127.5" y="729.2188"/><rect fill="#FFFFFF" filter="url(#f1tjbhhrl1408p)" height="29.1328" style="stroke:#A80036;stroke-width:1.0;" width="10" x="2319.5" y="758.3516"/><rect fill="#FFFFFF" filter="url(#f1tjbhhrl1408p)" height="29.1328" style="stroke:#A80036;stroke-width:1.0;" width="10" x="2496" y="612.6875"/><polygon fill="#A80036" points="277.5,115.4297,287.5,119.4297,277.5,123.4297,281.5,119.4297" style="stroke:#A80036;stroke-width:1.0;"/><line style="stroke:#A80036;stroke-width:1.0;" x1="38.5" x2="283.5" y1="119.4297" y2="119.4297"/><text fill="#000000" font-family="sans-serif" font-size="13" lengthAdjust="spacing" textLength="107" x="45.5" y="114.3638">selects a service</text><polygon fill="#A80036" points="49.5,144.5625,39.5,148.5625,49.5,152.5625,45.5,148.5625" style="stroke:#A80036;stroke-width:1.0;"/><line style="stroke:#A80036;stroke-width:1.0;" x1="43.5" x2="288.5" y1="148.5625" y2="148.5625"/><text fill="#000000" font-family="sans-serif" font-size="13" lengthAdjust="spacing" textLength="227" x="55.5" y="143.4966">asks for data(priority,deadline,files)</text><polygon fill="#A80036" points="277.5,173.6953,287.5,177.6953,277.5,181.6953,281.5,177.6953" style="stroke:#A80036;stroke-width:1.0;"/><line style="stroke:#A80036;stroke-width:1.0;" x1="38.5" x2="283.5" y1="177.6953" y2="177.6953"/><text fill="#000000" font-family="sans-serif" font-size="13" lengthAdjust="spacing" textLength="169" x="45.5" y="172.6294">introduces requested data</text><path d="M10,192.6953 L88,192.6953 L88,199.6953 L78,209.6953 L10,209.6953 L10,192.6953 " fill="#EEEEEE" style="stroke:#000000;stroke-width:1.0;"/><rect fill="none" height="104.5313" style="stroke:#000000;stroke-width:2.0;" width="2242.5" x="10" y="192.6953"/><text fill="#000000" font-family="sans-serif" font-size="13" font-weight="bold" lengthAdjust="spacing" textLength="33" x="25" y="205.7622">loop</text><text fill="#000000" font-family="sans-serif" font-size="11" font-weight="bold" lengthAdjust="spacing" textLength="194" x="103" y="204.9058">[until form response is valid]</text><polygon fill="#A80036" points="49.5,226.9609,39.5,230.9609,49.5,234.9609,45.5,230.9609" style="stroke:#A80036;stroke-width:1.0;"/><line style="stroke:#A80036;stroke-width:1.0;" x1="43.5" x2="288.5" y1="230.9609" y2="230.9609"/><text fill="#000000" font-family="sans-serif" font-size="13" lengthAdjust="spacing" textLength="151" x="55.5" y="225.895">asks for Form response</text><polygon fill="#A80036" points="277.5,256.0938,287.5,260.0938,277.5,264.0938,281.5,260.0938" style="stroke:#A80036;stroke-width:1.0;"/><line style="stroke:#A80036;stroke-width:1.0;" x1="38.5" x2="283.5" y1="260.0938" y2="260.0938"/><text fill="#000000" font-family="sans-serif" font-size="13" lengthAdjust="spacing" textLength="169" x="45.5" y="255.0278">introduces requested data</text><polygon fill="#A80036" points="2170.5,285.2266,2180.5,289.2266,2170.5,293.2266,2174.5,289.2266" style="stroke:#A80036;stroke-width:1.0;"/><line style="stroke:#A80036;stroke-width:1.0;" x1="299.5" x2="2176.5" y1="289.2266" y2="289.2266"/><text fill="#000000" font-family="sans-serif" font-size="13" lengthAdjust="spacing" textLength="277" x="306.5" y="284.1606">verifyData(script,formResponse,attributes)</text><polygon fill="#A80036" points="49.5,336.4922,39.5,340.4922,49.5,344.4922,45.5,340.4922" style="stroke:#A80036;stroke-width:1.0;"/><line style="stroke:#A80036;stroke-width:1.0;" x1="43.5" x2="288.5" y1="340.4922" y2="340.4922"/><text fill="#000000" font-family="sans-serif" font-size="13" lengthAdjust="spacing" textLength="193" x="55.5" y="320.2935">asks if the user wants to send</text><text fill="#000000" font-family="sans-serif" font-size="13" lengthAdjust="spacing" textLength="192" x="59.5" y="335.4263">the request or save it as draft</text><polygon fill="#A80036" points="277.5,365.625,287.5,369.625,277.5,373.625,281.5,369.625" style="stroke:#A80036;stroke-width:1.0;"/><line style="stroke:#A80036;stroke-width:1.0;" x1="38.5" x2="283.5" y1="369.625" y2="369.625"/><text fill="#000000" font-family="sans-serif" font-size="13" lengthAdjust="spacing" textLength="89" x="45.5" y="364.5591">selects option</text><polygon fill="#A80036" points="757.5,394.7578,767.5,398.7578,757.5,402.7578,761.5,398.7578" style="stroke:#A80036;stroke-width:1.0;"/><line style="stroke:#A80036;stroke-width:1.0;" x1="299.5" x2="763.5" y1="398.7578" y2="398.7578"/><text fill="#000000" font-family="sans-serif" font-size="13" lengthAdjust="spacing" textLength="41" x="306.5" y="393.6919">create</text><polygon fill="#A80036" points="757.5,428.8906,767.5,432.8906,757.5,436.8906,761.5,432.8906" style="stroke:#A80036;stroke-width:1.0;"/><line style="stroke:#A80036;stroke-width:1.0;" x1="299.5" x2="763.5" y1="432.8906" y2="432.8906"/><text fill="#000000" font-family="sans-serif" font-size="13" lengthAdjust="spacing" textLength="446" x="306.5" y="427.8247">requestService(priority, deadline, files, service,formResponse,isDraft)</text><path d="M30,411.7578 L30,436.7578 L280,436.7578 L280,421.7578 L270,411.7578 L30,411.7578 " fill="#FBFB77" filter="url(#f1tjbhhrl1408p)" style="stroke:#A80036;stroke-width:1.0;"/><path d="M270,411.7578 L270,421.7578 L280,421.7578 L270,411.7578 " fill="#FBFB77" style="stroke:#A80036;stroke-width:1.0;"/><text fill="#000000" font-family="sans-serif" font-size="13" lengthAdjust="spacing" textLength="229" x="36" y="428.8247">can be saved as draft or as request</text><polygon fill="#A80036" points="1955.5,463.0234,1965.5,467.0234,1955.5,471.0234,1959.5,467.0234" style="stroke:#A80036;stroke-width:1.0;"/><line style="stroke:#A80036;stroke-width:1.0;" x1="779.5" x2="1961.5" y1="467.0234" y2="467.0234"/><text fill="#000000" font-family="sans-serif" font-size="13" lengthAdjust="spacing" textLength="75" x="786.5" y="461.9575">workflows()</text><polygon fill="#A80036" points="2055.5,492.1563,2065.5,496.1563,2055.5,500.1563,2059.5,496.1563" style="stroke:#A80036;stroke-width:1.0;"/><line style="stroke:#A80036;stroke-width:1.0;" x1="779.5" x2="2061.5" y1="496.1563" y2="496.1563"/><text fill="#000000" font-family="sans-serif" font-size="13" lengthAdjust="spacing" textLength="44" x="786.5" y="491.0903">tasks()</text><polygon fill="#A80036" points="1839.5,521.2891,1849.5,525.2891,1839.5,529.2891,1843.5,525.2891" style="stroke:#A80036;stroke-width:1.0;"/><line style="stroke:#A80036;stroke-width:1.0;" x1="779.5" x2="1845.5" y1="525.2891" y2="525.2891"/><text fill="#000000" font-family="sans-serif" font-size="13" lengthAdjust="spacing" textLength="256" x="786.5" y="520.2231">newTaskExecution=create(task, status)</text><polygon fill="#A80036" points="949.5,550.4219,959.5,554.4219,949.5,558.4219,953.5,554.4219" style="stroke:#A80036;stroke-width:1.0;"/><line style="stroke:#A80036;stroke-width:1.0;" x1="779.5" x2="955.5" y1="554.4219" y2="554.4219"/><text fill="#000000" font-family="sans-serif" font-size="13" lengthAdjust="spacing" textLength="85" x="786.5" y="549.356">repositories()</text><polygon fill="#A80036" points="1115.5,579.5547,1125.5,583.5547,1115.5,587.5547,1119.5,583.5547" style="stroke:#A80036;stroke-width:1.0;"/><line style="stroke:#A80036;stroke-width:1.0;" x1="966.5" x2="1121.5" y1="583.5547" y2="583.5547"/><text fill="#000000" font-family="sans-serif" font-size="13" lengthAdjust="spacing" textLength="41" x="973.5" y="578.4888">create</text><polygon fill="#A80036" points="2484,608.6875,2494,612.6875,2484,616.6875,2488,612.6875" style="stroke:#A80036;stroke-width:1.0;"/><line style="stroke:#A80036;stroke-width:1.0;" x1="1132.5" x2="2490" y1="612.6875" y2="612.6875"/><text fill="#000000" font-family="sans-serif" font-size="13" lengthAdjust="spacing" textLength="41" x="1139.5" y="607.6216">create</text><polygon fill="#A80036" points="2489,637.8203,2499,641.8203,2489,645.8203,2493,641.8203" style="stroke:#A80036;stroke-width:1.0;"/><line style="stroke:#A80036;stroke-width:1.0;" x1="779.5" x2="2495" y1="641.8203" y2="641.8203"/><text fill="#000000" font-family="sans-serif" font-size="13" lengthAdjust="spacing" textLength="161" x="786.5" y="636.7544">save(newTaskExecution)</text><polygon fill="#A80036" points="1723.5,666.9531,1733.5,670.9531,1723.5,674.9531,1727.5,670.9531" style="stroke:#A80036;stroke-width:1.0;"/><line style="stroke:#A80036;stroke-width:1.0;" x1="779.5" x2="1729.5" y1="670.9531" y2="670.9531"/><text fill="#000000" font-family="sans-serif" font-size="13" lengthAdjust="spacing" textLength="932" x="786.5" y="665.8872">newRequest=create(uniqueCode, service, collaborator,dateOfRequest, type, priority, deadline, files,status,isDraft,formResponse,taskExecutions)</text><polygon fill="#A80036" points="949.5,696.0859,959.5,700.0859,949.5,704.0859,953.5,700.0859" style="stroke:#A80036;stroke-width:1.0;"/><line style="stroke:#A80036;stroke-width:1.0;" x1="779.5" x2="955.5" y1="700.0859" y2="700.0859"/><text fill="#000000" font-family="sans-serif" font-size="13" lengthAdjust="spacing" textLength="85" x="786.5" y="695.02">repositories()</text><polygon fill="#A80036" points="1115.5,725.2188,1125.5,729.2188,1115.5,733.2188,1119.5,729.2188" style="stroke:#A80036;stroke-width:1.0;"/><line style="stroke:#A80036;stroke-width:1.0;" x1="966.5" x2="1121.5" y1="729.2188" y2="729.2188"/><text fill="#000000" font-family="sans-serif" font-size="13" lengthAdjust="spacing" textLength="41" x="973.5" y="724.1528">create</text><polygon fill="#A80036" points="2307.5,754.3516,2317.5,758.3516,2307.5,762.3516,2311.5,758.3516" style="stroke:#A80036;stroke-width:1.0;"/><line style="stroke:#A80036;stroke-width:1.0;" x1="1132.5" x2="2313.5" y1="758.3516" y2="758.3516"/><text fill="#000000" font-family="sans-serif" font-size="13" lengthAdjust="spacing" textLength="41" x="1139.5" y="753.2856">create</text><polygon fill="#A80036" points="2312.5,783.4844,2322.5,787.4844,2312.5,791.4844,2316.5,787.4844" style="stroke:#A80036;stroke-width:1.0;"/><line style="stroke:#A80036;stroke-width:1.0;" x1="774.5" x2="2318.5" y1="787.4844" y2="787.4844"/><text fill="#000000" font-family="sans-serif" font-size="13" lengthAdjust="spacing" textLength="121" x="781.5" y="782.4185">save(newRequest)</text><!--MD5=[5abe33ef686a499abc5f2a47405dc8c0]
@startuml
actor User as Actor
participant RequestServiceUI as UI <<presentation>>
participant RequestServiceController as Controller <<application>>
participant PersistenceContext as PersistenceContext <<persistence>>
participant RepositoryFactory as RepositoryFactory <<factory>>
participant Request as Request <<domain>>
participant TaskExecution as TaskExecution <<domain>>
participant Service as Service <<domain>>
participant Workflow as Workflow <<domain>>
participant FormValidator as FormValidator <<application>>
database RequestRepository as RequestRepository <<repository>>
database TaskExecutionRepository as TaskExecutionRepository <<repository>>

Actor -> UI : selects a service
activate UI
UI -> Actor : asks for data(priority,deadline,files)
Actor -> UI : introduces requested data

loop until form response is valid

UI -> Actor : asks for Form response

Actor -> UI : introduces requested data

UI -> FormValidator : verifyData(script,formResponse,attributes)

end loop

UI -> Actor : asks if the user wants to send \n the request or save it as draft

Actor -> UI : selects option


UI -> Controller : create
activate Controller



UI -> Controller : requestService(priority, deadline, files, service,formResponse,isDraft)

note left: can be saved as draft or as request

Controller -> Service : workflows()

Controller -> Workflow : tasks()

Controller -> TaskExecution : newTaskExecution=create(task, status)

Controller -> PersistenceContext : repositories()
activate PersistenceContext
PersistenceContext -> RepositoryFactory : create
deactivate PersistenceContext
activate RepositoryFactory
RepositoryFactory -> TaskExecutionRepository : create
deactivate RepositoryFactory
activate  TaskExecutionRepository

Controller -> TaskExecutionRepository : save(newTaskExecution)
deactivate TaskExecutionRepository

Controller -> Request : newRequest=create(uniqueCode, service, collaborator,dateOfRequest, type, priority, deadline, files,status,isDraft,formResponse,taskExecutions)
Controller -> PersistenceContext : repositories()
activate PersistenceContext
PersistenceContext -> RepositoryFactory : create
deactivate PersistenceContext
activate RepositoryFactory
RepositoryFactory -> RequestRepository : create
deactivate RepositoryFactory
activate  RequestRepository

Controller -> RequestRepository : save(newRequest)
deactivate RequestRepository


deactivate Controller
@enduml

PlantUML version 1.2021.7(Sun May 23 12:40:07 UTC 2021)
(GPL source distribution)
Java Runtime: Java(TM) SE Runtime Environment
JVM: Java HotSpot(TM) 64-Bit Server VM
Default Encoding: UTF-8
Language: en
Country: US
--></g></svg>