<?xml version="1.0" encoding="UTF-8" standalone="no"?><svg xmlns="http://www.w3.org/2000/svg" xmlns:xlink="http://www.w3.org/1999/xlink" contentScriptType="application/ecmascript" contentStyleType="text/css" height="1085px" preserveAspectRatio="none" style="width:1356px;height:1085px;background:#FFFFFF;" version="1.1" viewBox="0 0 1356 1085" width="1356px" zoomAndPan="magnify"><defs><filter height="300%" id="f1i49mqyhezste" width="300%" x="-1" y="-1"><feGaussianBlur result="blurOut" stdDeviation="2.0"/><feColorMatrix in="blurOut" result="blurOut2" type="matrix" values="0 0 0 0 0 0 0 0 0 0 0 0 0 0 0 0 0 0 .4 0"/><feOffset dx="4.0" dy="4.0" in="blurOut2" result="blurOut3"/><feBlend in="SourceGraphic" in2="blurOut3" mode="normal"/></filter></defs><g><rect fill="#FFFFFF" filter="url(#f1i49mqyhezste)" height="863.1953" style="stroke:#A80036;stroke-width:1.0;" width="10" x="327.5" y="119.4297"/><rect fill="#FFFFFF" filter="url(#f1i49mqyhezste)" height="174.7969" style="stroke:#A80036;stroke-width:1.0;" width="10" x="673.5" y="148.5625"/><rect fill="#FFFFFF" filter="url(#f1i49mqyhezste)" height="58.2656" style="stroke:#A80036;stroke-width:1.0;" width="10" x="673.5" y="559.4219"/><rect fill="#FFFFFF" filter="url(#f1i49mqyhezste)" height="58.2656" style="stroke:#A80036;stroke-width:1.0;" width="10" x="673.5" y="719.8906"/><rect fill="#FFFFFF" filter="url(#f1i49mqyhezste)" height="59.1328" style="stroke:#A80036;stroke-width:1.0;" width="10" x="673.5" y="880.3594"/><rect fill="#FFFFFF" filter="url(#f1i49mqyhezste)" height="29.1328" style="stroke:#A80036;stroke-width:1.0;" width="10" x="948" y="206.8281"/><rect fill="#FFFFFF" filter="url(#f1i49mqyhezste)" height="29.1328" style="stroke:#A80036;stroke-width:1.0;" width="10" x="1114" y="235.9609"/><rect fill="#FFFFFF" filter="url(#f1i49mqyhezste)" height="29.1328" style="stroke:#A80036;stroke-width:1.0;" width="10" x="1258.5" y="265.0938"/><rect fill="#FFFFFF" filter="url(#f1i49mqyhezste)" height="30" style="stroke:#A80036;stroke-width:1.0;" width="10" x="1258.5" y="909.4922"/><rect fill="#FFFFFF" filter="url(#f1i49mqyhezste)" height="574" style="stroke:#000000;stroke-width:2.0;" width="1332.5" x="10" y="380.4922"/><rect fill="#FFFFFF" filter="url(#f1i49mqyhezste)" height="484.6016" style="stroke:#000000;stroke-width:2.0;" width="1312.5" x="20" y="462.8906"/><rect fill="#FFFFFF" height="160.4688" style="stroke:none;stroke-width:1.0;" width="1312.5" x="20" y="625.6875"/><rect fill="#FFFFFF" height="161.3359" style="stroke:none;stroke-width:1.0;" width="1312.5" x="20" y="786.1563"/><line style="stroke:#A80036;stroke-width:1.0;stroke-dasharray:5.0,5.0;" x1="48" x2="48" y1="88.2969" y2="1000.625"/><line style="stroke:#A80036;stroke-width:1.0;stroke-dasharray:5.0,5.0;" x1="332.5" x2="332.5" y1="88.2969" y2="1000.625"/><line style="stroke:#A80036;stroke-width:1.0;stroke-dasharray:5.0,5.0;" x1="678.5" x2="678.5" y1="88.2969" y2="1000.625"/><line style="stroke:#A80036;stroke-width:1.0;stroke-dasharray:5.0,5.0;" x1="816.5" x2="816.5" y1="88.2969" y2="1000.625"/><line style="stroke:#A80036;stroke-width:1.0;stroke-dasharray:5.0,5.0;" x1="952.5" x2="952.5" y1="88.2969" y2="1000.625"/><line style="stroke:#A80036;stroke-width:1.0;stroke-dasharray:5.0,5.0;" x1="1118.5" x2="1118.5" y1="88.2969" y2="1000.625"/><line style="stroke:#A80036;stroke-width:1.0;stroke-dasharray:5.0,5.0;" x1="1263.5" x2="1263.5" y1="88.2969" y2="1000.625"/><text fill="#000000" font-family="sans-serif" font-size="14" lengthAdjust="spacing" textLength="31" x="30" y="84.9951">User</text><ellipse cx="48.5" cy="15" fill="#FEFECE" filter="url(#f1i49mqyhezste)" rx="8" ry="8" style="stroke:#A80036;stroke-width:2.0;"/><path d="M48.5,23 L48.5,50 M35.5,31 L61.5,31 M48.5,50 L35.5,65 M48.5,50 L61.5,65 " fill="none" filter="url(#f1i49mqyhezste)" style="stroke:#A80036;stroke-width:2.0;"/><text fill="#000000" font-family="sans-serif" font-size="14" lengthAdjust="spacing" textLength="31" x="30" y="1012.6201">User</text><ellipse cx="48.5" cy="1025.9219" fill="#FEFECE" filter="url(#f1i49mqyhezste)" rx="8" ry="8" style="stroke:#A80036;stroke-width:2.0;"/><path d="M48.5,1033.9219 L48.5,1060.9219 M35.5,1041.9219 L61.5,1041.9219 M48.5,1060.9219 L35.5,1075.9219 M48.5,1060.9219 L61.5,1075.9219 " fill="none" filter="url(#f1i49mqyhezste)" style="stroke:#A80036;stroke-width:2.0;"/><rect fill="#FEFECE" filter="url(#f1i49mqyhezste)" height="46.5938" style="stroke:#A80036;stroke-width:1.5;" width="122" x="269.5" y="36.7031"/><text fill="#000000" font-family="sans-serif" font-size="14" font-style="italic" lengthAdjust="spacing" textLength="108" x="276.5" y="56.6982">«presentation»</text><text fill="#000000" font-family="sans-serif" font-size="14" lengthAdjust="spacing" textLength="86" x="287.5" y="72.9951">ClaimTaskUI</text><rect fill="#FEFECE" filter="url(#f1i49mqyhezste)" height="46.5938" style="stroke:#A80036;stroke-width:1.5;" width="122" x="269.5" y="999.625"/><text fill="#000000" font-family="sans-serif" font-size="14" font-style="italic" lengthAdjust="spacing" textLength="108" x="276.5" y="1019.6201">«presentation»</text><text fill="#000000" font-family="sans-serif" font-size="14" lengthAdjust="spacing" textLength="86" x="287.5" y="1035.917">ClaimTaskUI</text><rect fill="#FEFECE" filter="url(#f1i49mqyhezste)" height="46.5938" style="stroke:#A80036;stroke-width:1.5;" width="160" x="596.5" y="36.7031"/><text fill="#000000" font-family="sans-serif" font-size="14" font-style="italic" lengthAdjust="spacing" textLength="97" x="628" y="56.6982">«application»</text><text fill="#000000" font-family="sans-serif" font-size="14" lengthAdjust="spacing" textLength="146" x="603.5" y="72.9951">ClaimTaskController</text><rect fill="#FEFECE" filter="url(#f1i49mqyhezste)" height="46.5938" style="stroke:#A80036;stroke-width:1.5;" width="160" x="596.5" y="999.625"/><text fill="#000000" font-family="sans-serif" font-size="14" font-style="italic" lengthAdjust="spacing" textLength="97" x="628" y="1019.6201">«application»</text><text fill="#000000" font-family="sans-serif" font-size="14" lengthAdjust="spacing" textLength="146" x="603.5" y="1035.917">ClaimTaskController</text><rect fill="#FEFECE" filter="url(#f1i49mqyhezste)" height="46.5938" style="stroke:#A80036;stroke-width:1.5;" width="88" x="770.5" y="36.7031"/><text fill="#000000" font-family="sans-serif" font-size="14" font-style="italic" lengthAdjust="spacing" textLength="74" x="777.5" y="56.6982">«Domain»</text><text fill="#000000" font-family="sans-serif" font-size="14" lengthAdjust="spacing" textLength="33" x="798" y="72.9951">Task</text><rect fill="#FEFECE" filter="url(#f1i49mqyhezste)" height="46.5938" style="stroke:#A80036;stroke-width:1.5;" width="88" x="770.5" y="999.625"/><text fill="#000000" font-family="sans-serif" font-size="14" font-style="italic" lengthAdjust="spacing" textLength="74" x="777.5" y="1019.6201">«Domain»</text><text fill="#000000" font-family="sans-serif" font-size="14" lengthAdjust="spacing" textLength="33" x="798" y="1035.917">Task</text><rect fill="#FEFECE" filter="url(#f1i49mqyhezste)" height="46.5938" style="stroke:#A80036;stroke-width:1.5;" width="157" x="872.5" y="36.7031"/><text fill="#000000" font-family="sans-serif" font-size="14" font-style="italic" lengthAdjust="spacing" textLength="100" x="901" y="56.6982">«persistence»</text><text fill="#000000" font-family="sans-serif" font-size="14" lengthAdjust="spacing" textLength="143" x="879.5" y="72.9951">PersistenceContext</text><rect fill="#FEFECE" filter="url(#f1i49mqyhezste)" height="46.5938" style="stroke:#A80036;stroke-width:1.5;" width="157" x="872.5" y="999.625"/><text fill="#000000" font-family="sans-serif" font-size="14" font-style="italic" lengthAdjust="spacing" textLength="100" x="901" y="1019.6201">«persistence»</text><text fill="#000000" font-family="sans-serif" font-size="14" lengthAdjust="spacing" textLength="143" x="879.5" y="1035.917">PersistenceContext</text><rect fill="#FEFECE" filter="url(#f1i49mqyhezste)" height="46.5938" style="stroke:#A80036;stroke-width:1.5;" width="147" x="1043.5" y="36.7031"/><text fill="#000000" font-family="sans-serif" font-size="14" font-style="italic" lengthAdjust="spacing" textLength="68" x="1083" y="56.6982">«factory»</text><text fill="#000000" font-family="sans-serif" font-size="14" lengthAdjust="spacing" textLength="133" x="1050.5" y="72.9951">RepositoryFactory</text><rect fill="#FEFECE" filter="url(#f1i49mqyhezste)" height="46.5938" style="stroke:#A80036;stroke-width:1.5;" width="147" x="1043.5" y="999.625"/><text fill="#000000" font-family="sans-serif" font-size="14" font-style="italic" lengthAdjust="spacing" textLength="68" x="1083" y="1019.6201">«factory»</text><text fill="#000000" font-family="sans-serif" font-size="14" lengthAdjust="spacing" textLength="133" x="1050.5" y="1035.917">RepositoryFactory</text><text fill="#000000" font-family="sans-serif" font-size="14" font-style="italic" lengthAdjust="spacing" textLength="90" x="1215.5" y="68.6982">«repository»</text><text fill="#000000" font-family="sans-serif" font-size="14" lengthAdjust="spacing" textLength="112" x="1204.5" y="84.9951">TaskRepository</text><path d="M1245.5,19.7031 C1245.5,9.7031 1263.5,9.7031 1263.5,9.7031 C1263.5,9.7031 1281.5,9.7031 1281.5,19.7031 L1281.5,45.7031 C1281.5,55.7031 1263.5,55.7031 1263.5,55.7031 C1263.5,55.7031 1245.5,55.7031 1245.5,45.7031 L1245.5,19.7031 " fill="#FEFECE" filter="url(#f1i49mqyhezste)" style="stroke:#000000;stroke-width:1.5;"/><path d="M1245.5,19.7031 C1245.5,29.7031 1263.5,29.7031 1263.5,29.7031 C1263.5,29.7031 1281.5,29.7031 1281.5,19.7031 " fill="none" style="stroke:#000000;stroke-width:1.5;"/><text fill="#000000" font-family="sans-serif" font-size="14" font-style="italic" lengthAdjust="spacing" textLength="90" x="1215.5" y="1012.6201">«repository»</text><text fill="#000000" font-family="sans-serif" font-size="14" lengthAdjust="spacing" textLength="112" x="1204.5" y="1028.917">TaskRepository</text><path d="M1245.5,1042.2188 C1245.5,1032.2188 1263.5,1032.2188 1263.5,1032.2188 C1263.5,1032.2188 1281.5,1032.2188 1281.5,1042.2188 L1281.5,1068.2188 C1281.5,1078.2188 1263.5,1078.2188 1263.5,1078.2188 C1263.5,1078.2188 1245.5,1078.2188 1245.5,1068.2188 L1245.5,1042.2188 " fill="#FEFECE" filter="url(#f1i49mqyhezste)" style="stroke:#000000;stroke-width:1.5;"/><path d="M1245.5,1042.2188 C1245.5,1052.2188 1263.5,1052.2188 1263.5,1052.2188 C1263.5,1052.2188 1281.5,1052.2188 1281.5,1042.2188 " fill="none" style="stroke:#000000;stroke-width:1.5;"/><rect fill="#FFFFFF" filter="url(#f1i49mqyhezste)" height="863.1953" style="stroke:#A80036;stroke-width:1.0;" width="10" x="327.5" y="119.4297"/><rect fill="#FFFFFF" filter="url(#f1i49mqyhezste)" height="174.7969" style="stroke:#A80036;stroke-width:1.0;" width="10" x="673.5" y="148.5625"/><rect fill="#FFFFFF" filter="url(#f1i49mqyhezste)" height="58.2656" style="stroke:#A80036;stroke-width:1.0;" width="10" x="673.5" y="559.4219"/><rect fill="#FFFFFF" filter="url(#f1i49mqyhezste)" height="58.2656" style="stroke:#A80036;stroke-width:1.0;" width="10" x="673.5" y="719.8906"/><rect fill="#FFFFFF" filter="url(#f1i49mqyhezste)" height="59.1328" style="stroke:#A80036;stroke-width:1.0;" width="10" x="673.5" y="880.3594"/><rect fill="#FFFFFF" filter="url(#f1i49mqyhezste)" height="29.1328" style="stroke:#A80036;stroke-width:1.0;" width="10" x="948" y="206.8281"/><rect fill="#FFFFFF" filter="url(#f1i49mqyhezste)" height="29.1328" style="stroke:#A80036;stroke-width:1.0;" width="10" x="1114" y="235.9609"/><rect fill="#FFFFFF" filter="url(#f1i49mqyhezste)" height="29.1328" style="stroke:#A80036;stroke-width:1.0;" width="10" x="1258.5" y="265.0938"/><rect fill="#FFFFFF" filter="url(#f1i49mqyhezste)" height="30" style="stroke:#A80036;stroke-width:1.0;" width="10" x="1258.5" y="909.4922"/><polygon fill="#A80036" points="315.5,115.4297,325.5,119.4297,315.5,123.4297,319.5,119.4297" style="stroke:#A80036;stroke-width:1.0;"/><line style="stroke:#A80036;stroke-width:1.0;" x1="48.5" x2="321.5" y1="119.4297" y2="119.4297"/><text fill="#000000" font-family="sans-serif" font-size="13" lengthAdjust="spacing" textLength="137" x="55.5" y="114.3638">wants to claim a task</text><polygon fill="#A80036" points="661.5,144.5625,671.5,148.5625,661.5,152.5625,665.5,148.5625" style="stroke:#A80036;stroke-width:1.0;"/><line style="stroke:#A80036;stroke-width:1.0;" x1="337.5" x2="667.5" y1="148.5625" y2="148.5625"/><text fill="#000000" font-family="sans-serif" font-size="13" lengthAdjust="spacing" textLength="41" x="344.5" y="143.4966">create</text><polygon fill="#A80036" points="661.5,173.6953,671.5,177.6953,661.5,181.6953,665.5,177.6953" style="stroke:#A80036;stroke-width:1.0;"/><line style="stroke:#A80036;stroke-width:1.0;" x1="337.5" x2="667.5" y1="177.6953" y2="177.6953"/><text fill="#000000" font-family="sans-serif" font-size="13" lengthAdjust="spacing" textLength="126" x="344.5" y="172.6294">getAvailableTasks()</text><polygon fill="#A80036" points="936,202.8281,946,206.8281,936,210.8281,940,206.8281" style="stroke:#A80036;stroke-width:1.0;"/><line style="stroke:#A80036;stroke-width:1.0;" x1="683.5" x2="942" y1="206.8281" y2="206.8281"/><text fill="#000000" font-family="sans-serif" font-size="13" lengthAdjust="spacing" textLength="85" x="690.5" y="201.7622">repositories()</text><polygon fill="#A80036" points="1102,231.9609,1112,235.9609,1102,239.9609,1106,235.9609" style="stroke:#A80036;stroke-width:1.0;"/><line style="stroke:#A80036;stroke-width:1.0;" x1="953" x2="1108" y1="235.9609" y2="235.9609"/><text fill="#000000" font-family="sans-serif" font-size="13" lengthAdjust="spacing" textLength="41" x="960" y="230.895">create</text><polygon fill="#A80036" points="1246.5,261.0938,1256.5,265.0938,1246.5,269.0938,1250.5,265.0938" style="stroke:#A80036;stroke-width:1.0;"/><line style="stroke:#A80036;stroke-width:1.0;" x1="1119" x2="1252.5" y1="265.0938" y2="265.0938"/><text fill="#000000" font-family="sans-serif" font-size="13" lengthAdjust="spacing" textLength="41" x="1126" y="260.0278">create</text><polygon fill="#A80036" points="1251.5,290.2266,1261.5,294.2266,1251.5,298.2266,1255.5,294.2266" style="stroke:#A80036;stroke-width:1.0;"/><line style="stroke:#A80036;stroke-width:1.0;" x1="683.5" x2="1257.5" y1="294.2266" y2="294.2266"/><text fill="#000000" font-family="sans-serif" font-size="13" lengthAdjust="spacing" textLength="44" x="690.5" y="289.1606">tasks()</text><polygon fill="#A80036" points="348.5,319.3594,338.5,323.3594,348.5,327.3594,344.5,323.3594" style="stroke:#A80036;stroke-width:1.0;"/><line style="stroke:#A80036;stroke-width:1.0;" x1="342.5" x2="677.5" y1="323.3594" y2="323.3594"/><text fill="#000000" font-family="sans-serif" font-size="13" lengthAdjust="spacing" textLength="37" x="354.5" y="318.2935">Tasks</text><line style="stroke:#A80036;stroke-width:1.0;" x1="337.5" x2="379.5" y1="352.4922" y2="352.4922"/><line style="stroke:#A80036;stroke-width:1.0;" x1="379.5" x2="379.5" y1="352.4922" y2="365.4922"/><line style="stroke:#A80036;stroke-width:1.0;" x1="338.5" x2="379.5" y1="365.4922" y2="365.4922"/><polygon fill="#A80036" points="348.5,361.4922,338.5,365.4922,348.5,369.4922,344.5,365.4922" style="stroke:#A80036;stroke-width:1.0;"/><text fill="#000000" font-family="sans-serif" font-size="13" lengthAdjust="spacing" textLength="61" x="344.5" y="347.4263">doShow()</text><path d="M10,380.4922 L88,380.4922 L88,387.4922 L78,397.4922 L10,397.4922 L10,380.4922 " fill="#EEEEEE" style="stroke:#000000;stroke-width:1.0;"/><rect fill="none" height="574" style="stroke:#000000;stroke-width:2.0;" width="1332.5" x="10" y="380.4922"/><text fill="#000000" font-family="sans-serif" font-size="13" font-weight="bold" lengthAdjust="spacing" textLength="33" x="25" y="393.5591">loop</text><polygon fill="#A80036" points="59.5,414.7578,49.5,418.7578,59.5,422.7578,55.5,418.7578" style="stroke:#A80036;stroke-width:1.0;"/><line style="stroke:#A80036;stroke-width:1.0;stroke-dasharray:2.0,2.0;" x1="53.5" x2="326.5" y1="418.7578" y2="418.7578"/><text fill="#000000" font-family="sans-serif" font-size="13" lengthAdjust="spacing" textLength="255" x="65.5" y="413.6919">ask if want to order, filter or claim tasks</text><polygon fill="#A80036" points="315.5,443.8906,325.5,447.8906,315.5,451.8906,319.5,447.8906" style="stroke:#A80036;stroke-width:1.0;"/><line style="stroke:#A80036;stroke-width:1.0;stroke-dasharray:2.0,2.0;" x1="48.5" x2="321.5" y1="447.8906" y2="447.8906"/><text fill="#000000" font-family="sans-serif" font-size="13" lengthAdjust="spacing" textLength="117" x="55.5" y="442.8247">Choose the option</text><path d="M20,462.8906 L92,462.8906 L92,469.8906 L82,479.8906 L20,479.8906 L20,462.8906 " fill="#EEEEEE" style="stroke:#000000;stroke-width:1.0;"/><rect fill="none" height="484.6016" style="stroke:#000000;stroke-width:2.0;" width="1312.5" x="20" y="462.8906"/><text fill="#000000" font-family="sans-serif" font-size="13" font-weight="bold" lengthAdjust="spacing" textLength="27" x="35" y="475.9575">opt</text><text fill="#000000" font-family="sans-serif" font-size="11" font-weight="bold" lengthAdjust="spacing" textLength="47" x="107" y="475.1011">[order]</text><polygon fill="#A80036" points="59.5,497.1563,49.5,501.1563,59.5,505.1563,55.5,501.1563" style="stroke:#A80036;stroke-width:1.0;"/><line style="stroke:#A80036;stroke-width:1.0;stroke-dasharray:2.0,2.0;" x1="53.5" x2="326.5" y1="501.1563" y2="501.1563"/><text fill="#000000" font-family="sans-serif" font-size="13" lengthAdjust="spacing" textLength="119" x="65.5" y="496.0903">ask the parameter</text><polygon fill="#A80036" points="315.5,526.2891,325.5,530.2891,315.5,534.2891,319.5,530.2891" style="stroke:#A80036;stroke-width:1.0;"/><line style="stroke:#A80036;stroke-width:1.0;stroke-dasharray:2.0,2.0;" x1="48.5" x2="321.5" y1="530.2891" y2="530.2891"/><text fill="#000000" font-family="sans-serif" font-size="13" lengthAdjust="spacing" textLength="143" x="55.5" y="525.2231">choose the parameter</text><polygon fill="#A80036" points="661.5,555.4219,671.5,559.4219,661.5,563.4219,665.5,559.4219" style="stroke:#A80036;stroke-width:1.0;"/><line style="stroke:#A80036;stroke-width:1.0;stroke-dasharray:2.0,2.0;" x1="337.5" x2="667.5" y1="559.4219" y2="559.4219"/><text fill="#000000" font-family="sans-serif" font-size="13" lengthAdjust="spacing" textLength="215" x="344.5" y="554.356">orderByPriority(tasks, parameter)</text><polygon fill="#A80036" points="661.5,584.5547,671.5,588.5547,661.5,592.5547,665.5,588.5547" style="stroke:#A80036;stroke-width:1.0;"/><line style="stroke:#A80036;stroke-width:1.0;stroke-dasharray:2.0,2.0;" x1="337.5" x2="667.5" y1="588.5547" y2="588.5547"/><text fill="#000000" font-family="sans-serif" font-size="13" lengthAdjust="spacing" textLength="229" x="344.5" y="583.4888">orderByCriticality(tasks, parameter)</text><polygon fill="#A80036" points="666.5,613.6875,676.5,617.6875,666.5,621.6875,670.5,617.6875" style="stroke:#A80036;stroke-width:1.0;"/><line style="stroke:#A80036;stroke-width:1.0;stroke-dasharray:2.0,2.0;" x1="337.5" x2="672.5" y1="617.6875" y2="617.6875"/><text fill="#000000" font-family="sans-serif" font-size="13" lengthAdjust="spacing" textLength="312" x="344.5" y="612.6216">orderByCompletationDeadline(tasks, parameter)</text><line style="stroke:#000000;stroke-width:1.0;stroke-dasharray:2.0,2.0;" x1="20" x2="1332.5" y1="626.6875" y2="626.6875"/><text fill="#000000" font-family="sans-serif" font-size="11" font-weight="bold" lengthAdjust="spacing" textLength="46" x="25" y="636.8979">[filter]</text><polygon fill="#A80036" points="59.5,657.625,49.5,661.625,59.5,665.625,55.5,661.625" style="stroke:#A80036;stroke-width:1.0;"/><line style="stroke:#A80036;stroke-width:1.0;stroke-dasharray:2.0,2.0;" x1="53.5" x2="326.5" y1="661.625" y2="661.625"/><text fill="#000000" font-family="sans-serif" font-size="13" lengthAdjust="spacing" textLength="119" x="65.5" y="656.5591">ask the parameter</text><polygon fill="#A80036" points="315.5,686.7578,325.5,690.7578,315.5,694.7578,319.5,690.7578" style="stroke:#A80036;stroke-width:1.0;"/><line style="stroke:#A80036;stroke-width:1.0;stroke-dasharray:2.0,2.0;" x1="48.5" x2="321.5" y1="690.7578" y2="690.7578"/><text fill="#000000" font-family="sans-serif" font-size="13" lengthAdjust="spacing" textLength="143" x="55.5" y="685.6919">choose the parameter</text><polygon fill="#A80036" points="661.5,715.8906,671.5,719.8906,661.5,723.8906,665.5,719.8906" style="stroke:#A80036;stroke-width:1.0;"/><line style="stroke:#A80036;stroke-width:1.0;stroke-dasharray:2.0,2.0;" x1="337.5" x2="667.5" y1="719.8906" y2="719.8906"/><text fill="#000000" font-family="sans-serif" font-size="13" lengthAdjust="spacing" textLength="210" x="344.5" y="714.8247">filterByPriority(tasks, parameter)</text><polygon fill="#A80036" points="661.5,745.0234,671.5,749.0234,661.5,753.0234,665.5,749.0234" style="stroke:#A80036;stroke-width:1.0;"/><line style="stroke:#A80036;stroke-width:1.0;stroke-dasharray:2.0,2.0;" x1="337.5" x2="667.5" y1="749.0234" y2="749.0234"/><text fill="#000000" font-family="sans-serif" font-size="13" lengthAdjust="spacing" textLength="224" x="344.5" y="743.9575">filterByCriticality(tasks, parameter)</text><polygon fill="#A80036" points="666.5,774.1563,676.5,778.1563,666.5,782.1563,670.5,778.1563" style="stroke:#A80036;stroke-width:1.0;"/><line style="stroke:#A80036;stroke-width:1.0;stroke-dasharray:2.0,2.0;" x1="337.5" x2="672.5" y1="778.1563" y2="778.1563"/><text fill="#000000" font-family="sans-serif" font-size="13" lengthAdjust="spacing" textLength="307" x="344.5" y="773.0903">filterByCompletationDeadline(tasks, parameter)</text><line style="stroke:#000000;stroke-width:1.0;stroke-dasharray:2.0,2.0;" x1="20" x2="1332.5" y1="787.1563" y2="787.1563"/><text fill="#000000" font-family="sans-serif" font-size="11" font-weight="bold" lengthAdjust="spacing" textLength="45" x="25" y="797.3667">[claim]</text><polygon fill="#A80036" points="59.5,818.0938,49.5,822.0938,59.5,826.0938,55.5,822.0938" style="stroke:#A80036;stroke-width:1.0;"/><line style="stroke:#A80036;stroke-width:1.0;stroke-dasharray:2.0,2.0;" x1="53.5" x2="326.5" y1="822.0938" y2="822.0938"/><text fill="#000000" font-family="sans-serif" font-size="13" lengthAdjust="spacing" textLength="131" x="65.5" y="817.0278">Show pending Tasks</text><polygon fill="#A80036" points="315.5,847.2266,325.5,851.2266,315.5,855.2266,319.5,851.2266" style="stroke:#A80036;stroke-width:1.0;"/><line style="stroke:#A80036;stroke-width:1.0;stroke-dasharray:2.0,2.0;" x1="48.5" x2="321.5" y1="851.2266" y2="851.2266"/><text fill="#000000" font-family="sans-serif" font-size="13" lengthAdjust="spacing" textLength="100" x="55.5" y="846.1606">claims one task</text><polygon fill="#A80036" points="661.5,876.3594,671.5,880.3594,661.5,884.3594,665.5,880.3594" style="stroke:#A80036;stroke-width:1.0;"/><line style="stroke:#A80036;stroke-width:1.0;" x1="337.5" x2="667.5" y1="880.3594" y2="880.3594"/><text fill="#000000" font-family="sans-serif" font-size="13" lengthAdjust="spacing" textLength="101" x="344.5" y="875.2935">claimTask(task)</text><polygon fill="#A80036" points="1246.5,905.4922,1256.5,909.4922,1246.5,913.4922,1250.5,909.4922" style="stroke:#A80036;stroke-width:1.0;"/><line style="stroke:#A80036;stroke-width:1.0;stroke-dasharray:2.0,2.0;" x1="683.5" x2="1252.5" y1="909.4922" y2="909.4922"/><text fill="#000000" font-family="sans-serif" font-size="13" lengthAdjust="spacing" textLength="68" x="690.5" y="904.4263">save(task)</text><polygon fill="#A80036" points="59.5,978.625,49.5,982.625,59.5,986.625,55.5,982.625" style="stroke:#A80036;stroke-width:1.0;"/><line style="stroke:#A80036;stroke-width:1.0;stroke-dasharray:2.0,2.0;" x1="53.5" x2="331.5" y1="982.625" y2="982.625"/><text fill="#000000" font-family="sans-serif" font-size="13" lengthAdjust="spacing" textLength="88" x="65.5" y="977.5591">back to menu</text><!--MD5=[bd5d9f308f1558bbb24f69cda20e0e0e]
@startuml
actor User as Actor
participant ClaimTaskUI as UI <<presentation>>
participant ClaimTaskController as Controller <<application>>
participant Task as Domain <<Domain>>
participant PersistenceContext as PersistenceContext <<persistence>>
participant RepositoryFactory as RepositoryFactory <<factory>>
database TaskRepository as TaskRepository <<repository>>

Actor -> UI : wants to claim a task
activate UI
UI -> Controller : create
activate Controller


UI -> Controller : getAvailableTasks()


Controller -> PersistenceContext : repositories()
activate PersistenceContext
PersistenceContext -> RepositoryFactory : create
deactivate PersistenceContext
activate RepositoryFactory
RepositoryFactory -> TaskRepository : create
deactivate RepositoryFactory

activate TaskRepository

Controller -> TaskRepository : tasks()
deactivate TaskRepository
Controller -> UI: Tasks
deactivate Controller

UI -> UI : doShow()

loop

UI- ->Actor: ask if want to order, filter or claim tasks
Actor- ->UI: Choose the option


opt order

UI- ->Actor: ask the parameter
Actor- ->UI: choose the parameter

UI- ->Controller: orderByPriority(tasks, parameter)
activate Controller
UI- ->Controller: orderByCriticality(tasks, parameter)
UI- ->Controller: orderByCompletationDeadline(tasks, parameter)
deactivate Controller

else filter

UI- ->Actor: ask the parameter
Actor- ->UI: choose the parameter

UI- ->Controller: filterByPriority(tasks, parameter)
activate Controller
UI- ->Controller: filterByCriticality(tasks, parameter)
UI- ->Controller: filterByCompletationDeadline(tasks, parameter)
deactivate Controller

else claim

UI - -> Actor: Show pending Tasks

Actor - -> UI: claims one task

UI ->Controller: claimTask(task)
activate Controller

Controller - -> TaskRepository: save(task)
activate TaskRepository
deactivate TaskRepository

deactivate Controller

end

end opt

UI - -> Actor : back to menu

deactivate UI
@enduml

PlantUML version 1.2021.7(Sun May 23 12:40:07 UTC 2021)
(GPL source distribution)
Java Runtime: Java(TM) SE Runtime Environment
JVM: Java HotSpot(TM) 64-Bit Server VM
Default Encoding: UTF-8
Language: en
Country: US
--></g></svg>