<?xml version="1.0" encoding="UTF-8" standalone="no"?><svg xmlns="http://www.w3.org/2000/svg" xmlns:xlink="http://www.w3.org/1999/xlink" contentScriptType="application/ecmascript" contentStyleType="text/css" height="609px" preserveAspectRatio="none" style="width:999px;height:609px;background:#FFFFFF;" version="1.1" viewBox="0 0 999 609" width="999px" zoomAndPan="magnify"><defs><filter height="300%" id="f2twqofst61j9" width="300%" x="-1" y="-1"><feGaussianBlur result="blurOut" stdDeviation="2.0"/><feColorMatrix in="blurOut" result="blurOut2" type="matrix" values="0 0 0 0 0 0 0 0 0 0 0 0 0 0 0 0 0 0 .4 0"/><feOffset dx="4.0" dy="4.0" in="blurOut2" result="blurOut3"/><feBlend in="SourceGraphic" in2="blurOut3" mode="normal"/></filter></defs><g><rect fill="#FFFFFF" filter="url(#f2twqofst61j9)" height="405.8594" style="stroke:#A80036;stroke-width:1.0;" width="10" x="73.5" y="93.5938"/><rect fill="#FFFFFF" filter="url(#f2twqofst61j9)" height="384.7266" style="stroke:#A80036;stroke-width:1.0;" width="10" x="260.5" y="114.7266"/><rect fill="#FFFFFF" filter="url(#f2twqofst61j9)" height="29.1328" style="stroke:#A80036;stroke-width:1.0;" width="10" x="454.5" y="172.9922"/><rect fill="#FFFFFF" filter="url(#f2twqofst61j9)" height="29.1328" style="stroke:#A80036;stroke-width:1.0;" width="10" x="454.5" y="318.6563"/><rect fill="#FFFFFF" filter="url(#f2twqofst61j9)" height="29.1328" style="stroke:#A80036;stroke-width:1.0;" width="10" x="614.5" y="202.125"/><rect fill="#FFFFFF" filter="url(#f2twqofst61j9)" height="29.1328" style="stroke:#A80036;stroke-width:1.0;" width="10" x="614.5" y="347.7891"/><rect fill="#FFFFFF" filter="url(#f2twqofst61j9)" height="58.2656" style="stroke:#A80036;stroke-width:1.0;" width="10" x="779.5" y="231.2578"/><rect fill="#FFFFFF" filter="url(#f2twqofst61j9)" height="58.2656" style="stroke:#A80036;stroke-width:1.0;" width="10" x="934" y="376.9219"/><line style="stroke:#A80036;stroke-width:1.0;stroke-dasharray:5.0,5.0;" x1="78" x2="78" y1="83.5938" y2="524.4531"/><line style="stroke:#A80036;stroke-width:1.0;stroke-dasharray:5.0,5.0;" x1="265" x2="265" y1="83.5938" y2="524.4531"/><line style="stroke:#A80036;stroke-width:1.0;stroke-dasharray:5.0,5.0;" x1="459" x2="459" y1="83.5938" y2="524.4531"/><line style="stroke:#A80036;stroke-width:1.0;stroke-dasharray:5.0,5.0;" x1="619" x2="619" y1="83.5938" y2="524.4531"/><line style="stroke:#A80036;stroke-width:1.0;stroke-dasharray:5.0,5.0;" x1="784" x2="784" y1="83.5938" y2="524.4531"/><line style="stroke:#A80036;stroke-width:1.0;stroke-dasharray:5.0,5.0;" x1="939" x2="939" y1="83.5938" y2="524.4531"/><rect fill="#FEFECE" filter="url(#f2twqofst61j9)" height="46.5938" style="stroke:#A80036;stroke-width:1.5;" width="143" x="5" y="32"/><text fill="#000000" font-family="sans-serif" font-size="14" font-style="italic" lengthAdjust="spacing" textLength="108" x="22.5" y="51.9951">«presentation»</text><text fill="#000000" font-family="sans-serif" font-size="14" lengthAdjust="spacing" textLength="129" x="12" y="68.292">doPendingTasksUI</text><rect fill="#FEFECE" filter="url(#f2twqofst61j9)" height="46.5938" style="stroke:#A80036;stroke-width:1.5;" width="143" x="5" y="523.4531"/><text fill="#000000" font-family="sans-serif" font-size="14" font-style="italic" lengthAdjust="spacing" textLength="108" x="22.5" y="543.4482">«presentation»</text><text fill="#000000" font-family="sans-serif" font-size="14" lengthAdjust="spacing" textLength="129" x="12" y="559.7451">doPendingTasksUI</text><rect fill="#FEFECE" filter="url(#f2twqofst61j9)" height="46.5938" style="stroke:#A80036;stroke-width:1.5;" width="203" x="162" y="32"/><text fill="#000000" font-family="sans-serif" font-size="14" font-style="italic" lengthAdjust="spacing" textLength="97" x="215" y="51.9951">«application»</text><text fill="#000000" font-family="sans-serif" font-size="14" lengthAdjust="spacing" textLength="189" x="169" y="68.292">doPendingTasksController</text><rect fill="#FEFECE" filter="url(#f2twqofst61j9)" height="46.5938" style="stroke:#A80036;stroke-width:1.5;" width="203" x="162" y="523.4531"/><text fill="#000000" font-family="sans-serif" font-size="14" font-style="italic" lengthAdjust="spacing" textLength="97" x="215" y="543.4482">«application»</text><text fill="#000000" font-family="sans-serif" font-size="14" lengthAdjust="spacing" textLength="189" x="169" y="559.7451">doPendingTasksController</text><rect fill="#FEFECE" filter="url(#f2twqofst61j9)" height="46.5938" style="stroke:#A80036;stroke-width:1.5;" width="157" x="379" y="32"/><text fill="#000000" font-family="sans-serif" font-size="14" font-style="italic" lengthAdjust="spacing" textLength="99" x="408" y="51.9951">«Persistence»</text><text fill="#000000" font-family="sans-serif" font-size="14" lengthAdjust="spacing" textLength="143" x="386" y="68.292">PersistenceContext</text><rect fill="#FEFECE" filter="url(#f2twqofst61j9)" height="46.5938" style="stroke:#A80036;stroke-width:1.5;" width="157" x="379" y="523.4531"/><text fill="#000000" font-family="sans-serif" font-size="14" font-style="italic" lengthAdjust="spacing" textLength="99" x="408" y="543.4482">«Persistence»</text><text fill="#000000" font-family="sans-serif" font-size="14" lengthAdjust="spacing" textLength="143" x="386" y="559.7451">PersistenceContext</text><text fill="#000000" font-family="sans-serif" font-size="14" font-style="italic" lengthAdjust="spacing" textLength="90" x="571.5" y="63.9951">«repository»</text><text fill="#000000" font-family="sans-serif" font-size="14" lengthAdjust="spacing" textLength="133" x="550" y="80.292">RepositoryFactory</text><path d="M601.5,15 C601.5,5 619.5,5 619.5,5 C619.5,5 637.5,5 637.5,15 L637.5,41 C637.5,51 619.5,51 619.5,51 C619.5,51 601.5,51 601.5,41 L601.5,15 " fill="#FEFECE" filter="url(#f2twqofst61j9)" style="stroke:#000000;stroke-width:1.5;"/><path d="M601.5,15 C601.5,25 619.5,25 619.5,25 C619.5,25 637.5,25 637.5,15 " fill="none" style="stroke:#000000;stroke-width:1.5;"/><text fill="#000000" font-family="sans-serif" font-size="14" font-style="italic" lengthAdjust="spacing" textLength="90" x="571.5" y="536.4482">«repository»</text><text fill="#000000" font-family="sans-serif" font-size="14" lengthAdjust="spacing" textLength="133" x="550" y="552.7451">RepositoryFactory</text><path d="M601.5,566.0469 C601.5,556.0469 619.5,556.0469 619.5,556.0469 C619.5,556.0469 637.5,556.0469 637.5,566.0469 L637.5,592.0469 C637.5,602.0469 619.5,602.0469 619.5,602.0469 C619.5,602.0469 601.5,602.0469 601.5,592.0469 L601.5,566.0469 " fill="#FEFECE" filter="url(#f2twqofst61j9)" style="stroke:#000000;stroke-width:1.5;"/><path d="M601.5,566.0469 C601.5,576.0469 619.5,576.0469 619.5,576.0469 C619.5,576.0469 637.5,576.0469 637.5,566.0469 " fill="none" style="stroke:#000000;stroke-width:1.5;"/><text fill="#000000" font-family="sans-serif" font-size="14" font-style="italic" lengthAdjust="spacing" textLength="90" x="736.5" y="63.9951">«repository»</text><text fill="#000000" font-family="sans-serif" font-size="14" lengthAdjust="spacing" textLength="165" x="699" y="80.292">ColaboratorRepository</text><path d="M766.5,15 C766.5,5 784.5,5 784.5,5 C784.5,5 802.5,5 802.5,15 L802.5,41 C802.5,51 784.5,51 784.5,51 C784.5,51 766.5,51 766.5,41 L766.5,15 " fill="#FEFECE" filter="url(#f2twqofst61j9)" style="stroke:#000000;stroke-width:1.5;"/><path d="M766.5,15 C766.5,25 784.5,25 784.5,25 C784.5,25 802.5,25 802.5,15 " fill="none" style="stroke:#000000;stroke-width:1.5;"/><text fill="#000000" font-family="sans-serif" font-size="14" font-style="italic" lengthAdjust="spacing" textLength="90" x="736.5" y="536.4482">«repository»</text><text fill="#000000" font-family="sans-serif" font-size="14" lengthAdjust="spacing" textLength="165" x="699" y="552.7451">ColaboratorRepository</text><path d="M766.5,566.0469 C766.5,556.0469 784.5,556.0469 784.5,556.0469 C784.5,556.0469 802.5,556.0469 802.5,566.0469 L802.5,592.0469 C802.5,602.0469 784.5,602.0469 784.5,602.0469 C784.5,602.0469 766.5,602.0469 766.5,592.0469 L766.5,566.0469 " fill="#FEFECE" filter="url(#f2twqofst61j9)" style="stroke:#000000;stroke-width:1.5;"/><path d="M766.5,566.0469 C766.5,576.0469 784.5,576.0469 784.5,576.0469 C784.5,576.0469 802.5,576.0469 802.5,566.0469 " fill="none" style="stroke:#000000;stroke-width:1.5;"/><text fill="#000000" font-family="sans-serif" font-size="14" font-style="italic" lengthAdjust="spacing" textLength="90" x="891" y="63.9951">«repository»</text><text fill="#000000" font-family="sans-serif" font-size="14" lengthAdjust="spacing" textLength="112" x="880" y="80.292">TaskRepository</text><path d="M921,15 C921,5 939,5 939,5 C939,5 957,5 957,15 L957,41 C957,51 939,51 939,51 C939,51 921,51 921,41 L921,15 " fill="#FEFECE" filter="url(#f2twqofst61j9)" style="stroke:#000000;stroke-width:1.5;"/><path d="M921,15 C921,25 939,25 939,25 C939,25 957,25 957,15 " fill="none" style="stroke:#000000;stroke-width:1.5;"/><text fill="#000000" font-family="sans-serif" font-size="14" font-style="italic" lengthAdjust="spacing" textLength="90" x="891" y="536.4482">«repository»</text><text fill="#000000" font-family="sans-serif" font-size="14" lengthAdjust="spacing" textLength="112" x="880" y="552.7451">TaskRepository</text><path d="M921,566.0469 C921,556.0469 939,556.0469 939,556.0469 C939,556.0469 957,556.0469 957,566.0469 L957,592.0469 C957,602.0469 939,602.0469 939,602.0469 C939,602.0469 921,602.0469 921,592.0469 L921,566.0469 " fill="#FEFECE" filter="url(#f2twqofst61j9)" style="stroke:#000000;stroke-width:1.5;"/><path d="M921,566.0469 C921,576.0469 939,576.0469 939,576.0469 C939,576.0469 957,576.0469 957,566.0469 " fill="none" style="stroke:#000000;stroke-width:1.5;"/><rect fill="#FFFFFF" filter="url(#f2twqofst61j9)" height="405.8594" style="stroke:#A80036;stroke-width:1.0;" width="10" x="73.5" y="93.5938"/><rect fill="#FFFFFF" filter="url(#f2twqofst61j9)" height="384.7266" style="stroke:#A80036;stroke-width:1.0;" width="10" x="260.5" y="114.7266"/><rect fill="#FFFFFF" filter="url(#f2twqofst61j9)" height="29.1328" style="stroke:#A80036;stroke-width:1.0;" width="10" x="454.5" y="172.9922"/><rect fill="#FFFFFF" filter="url(#f2twqofst61j9)" height="29.1328" style="stroke:#A80036;stroke-width:1.0;" width="10" x="454.5" y="318.6563"/><rect fill="#FFFFFF" filter="url(#f2twqofst61j9)" height="29.1328" style="stroke:#A80036;stroke-width:1.0;" width="10" x="614.5" y="202.125"/><rect fill="#FFFFFF" filter="url(#f2twqofst61j9)" height="29.1328" style="stroke:#A80036;stroke-width:1.0;" width="10" x="614.5" y="347.7891"/><rect fill="#FFFFFF" filter="url(#f2twqofst61j9)" height="58.2656" style="stroke:#A80036;stroke-width:1.0;" width="10" x="779.5" y="231.2578"/><rect fill="#FFFFFF" filter="url(#f2twqofst61j9)" height="58.2656" style="stroke:#A80036;stroke-width:1.0;" width="10" x="934" y="376.9219"/><polygon fill="#A80036" points="248.5,110.7266,258.5,114.7266,248.5,118.7266,252.5,114.7266" style="stroke:#A80036;stroke-width:1.0;"/><line style="stroke:#A80036;stroke-width:1.0;" x1="83.5" x2="254.5" y1="114.7266" y2="114.7266"/><text fill="#000000" font-family="sans-serif" font-size="13" lengthAdjust="spacing" textLength="51" x="90.5" y="109.6606">create()</text><polygon fill="#A80036" points="248.5,139.8594,258.5,143.8594,248.5,147.8594,252.5,143.8594" style="stroke:#A80036;stroke-width:1.0;"/><line style="stroke:#A80036;stroke-width:1.0;" x1="83.5" x2="254.5" y1="143.8594" y2="143.8594"/><text fill="#000000" font-family="sans-serif" font-size="13" lengthAdjust="spacing" textLength="116" x="90.5" y="138.7935">listpendingTasks()</text><polygon fill="#A80036" points="442.5,168.9922,452.5,172.9922,442.5,176.9922,446.5,172.9922" style="stroke:#A80036;stroke-width:1.0;"/><line style="stroke:#A80036;stroke-width:1.0;" x1="270.5" x2="448.5" y1="172.9922" y2="172.9922"/><text fill="#000000" font-family="sans-serif" font-size="13" lengthAdjust="spacing" textLength="85" x="277.5" y="167.9263">repositories()</text><polygon fill="#A80036" points="602.5,198.125,612.5,202.125,602.5,206.125,606.5,202.125" style="stroke:#A80036;stroke-width:1.0;"/><line style="stroke:#A80036;stroke-width:1.0;" x1="459.5" x2="608.5" y1="202.125" y2="202.125"/><text fill="#000000" font-family="sans-serif" font-size="13" lengthAdjust="spacing" textLength="51" x="466.5" y="197.0591">create()</text><polygon fill="#A80036" points="767.5,227.2578,777.5,231.2578,767.5,235.2578,771.5,231.2578" style="stroke:#A80036;stroke-width:1.0;"/><line style="stroke:#A80036;stroke-width:1.0;" x1="619.5" x2="773.5" y1="231.2578" y2="231.2578"/><text fill="#000000" font-family="sans-serif" font-size="13" lengthAdjust="spacing" textLength="51" x="626.5" y="226.1919">create()</text><polygon fill="#A80036" points="767.5,256.3906,777.5,260.3906,767.5,264.3906,771.5,260.3906" style="stroke:#A80036;stroke-width:1.0;"/><line style="stroke:#A80036;stroke-width:1.0;" x1="270.5" x2="773.5" y1="260.3906" y2="260.3906"/><text fill="#000000" font-family="sans-serif" font-size="13" lengthAdjust="spacing" textLength="195" x="277.5" y="255.3247">findColaboratorByEmail(email)</text><polygon fill="#A80036" points="281.5,285.5234,271.5,289.5234,281.5,293.5234,277.5,289.5234" style="stroke:#A80036;stroke-width:1.0;"/><line style="stroke:#A80036;stroke-width:1.0;" x1="275.5" x2="783.5" y1="289.5234" y2="289.5234"/><text fill="#000000" font-family="sans-serif" font-size="13" lengthAdjust="spacing" textLength="73" x="287.5" y="284.4575">colaborator</text><polygon fill="#A80036" points="442.5,314.6563,452.5,318.6563,442.5,322.6563,446.5,318.6563" style="stroke:#A80036;stroke-width:1.0;"/><line style="stroke:#A80036;stroke-width:1.0;" x1="270.5" x2="448.5" y1="318.6563" y2="318.6563"/><text fill="#000000" font-family="sans-serif" font-size="13" lengthAdjust="spacing" textLength="85" x="277.5" y="313.5903">repositories()</text><polygon fill="#A80036" points="602.5,343.7891,612.5,347.7891,602.5,351.7891,606.5,347.7891" style="stroke:#A80036;stroke-width:1.0;"/><line style="stroke:#A80036;stroke-width:1.0;" x1="459.5" x2="608.5" y1="347.7891" y2="347.7891"/><text fill="#000000" font-family="sans-serif" font-size="13" lengthAdjust="spacing" textLength="51" x="466.5" y="342.7231">create()</text><polygon fill="#A80036" points="922,372.9219,932,376.9219,922,380.9219,926,376.9219" style="stroke:#A80036;stroke-width:1.0;"/><line style="stroke:#A80036;stroke-width:1.0;" x1="619.5" x2="928" y1="376.9219" y2="376.9219"/><text fill="#000000" font-family="sans-serif" font-size="13" lengthAdjust="spacing" textLength="51" x="626.5" y="371.856">create()</text><polygon fill="#A80036" points="922,402.0547,932,406.0547,922,410.0547,926,406.0547" style="stroke:#A80036;stroke-width:1.0;"/><line style="stroke:#A80036;stroke-width:1.0;" x1="270.5" x2="928" y1="406.0547" y2="406.0547"/><text fill="#000000" font-family="sans-serif" font-size="13" lengthAdjust="spacing" textLength="270" x="277.5" y="400.9888">findPendingTasksColaborator(colaborator)</text><polygon fill="#A80036" points="281.5,431.1875,271.5,435.1875,281.5,439.1875,277.5,435.1875" style="stroke:#A80036;stroke-width:1.0;"/><line style="stroke:#A80036;stroke-width:1.0;" x1="275.5" x2="938" y1="435.1875" y2="435.1875"/><text fill="#000000" font-family="sans-serif" font-size="13" lengthAdjust="spacing" textLength="34" x="287.5" y="430.1216">tasks</text><polygon fill="#A80036" points="94.5,460.3203,84.5,464.3203,94.5,468.3203,90.5,464.3203" style="stroke:#A80036;stroke-width:1.0;"/><line style="stroke:#A80036;stroke-width:1.0;" x1="88.5" x2="259.5" y1="464.3203" y2="464.3203"/><text fill="#000000" font-family="sans-serif" font-size="13" lengthAdjust="spacing" textLength="34" x="100.5" y="459.2544">tasks</text><line style="stroke:#A80036;stroke-width:1.0;" x1="83.5" x2="125.5" y1="498.4531" y2="498.4531"/><line style="stroke:#A80036;stroke-width:1.0;" x1="125.5" x2="125.5" y1="498.4531" y2="511.4531"/><line style="stroke:#A80036;stroke-width:1.0;" x1="78.5" x2="125.5" y1="511.4531" y2="511.4531"/><polygon fill="#A80036" points="88.5,507.4531,78.5,511.4531,88.5,515.4531,84.5,511.4531" style="stroke:#A80036;stroke-width:1.0;"/><text fill="#000000" font-family="sans-serif" font-size="13" lengthAdjust="spacing" textLength="51" x="90.5" y="493.3872">doShow</text><!--MD5=[b6c5487d992c23e45d64dd4cf47ed4fb]
@startuml
participant doPendingTasksUI as UI <<presentation>>
participant doPendingTasksController as Controller <<application>>
participant "PersistenceContext" as PersistenceContext <<Persistence>>
database RepositoryFactory as RepositoryFactory <<repository>>
database ColaboratorRepository as ColaboratorRepository <<repository>>
database TaskRepository as TR <<repository>>

activate UI

UI->Controller : create()
activate Controller
UI -> Controller : listpendingTasks()

Controller -> PersistenceContext: repositories()
activate PersistenceContext

PersistenceContext -> RepositoryFactory : create()
deactivate PersistenceContext
activate RepositoryFactory

RepositoryFactory -> ColaboratorRepository : create()
deactivate RepositoryFactory
activate ColaboratorRepository

Controller -> ColaboratorRepository: findColaboratorByEmail(email)
ColaboratorRepository -> Controller: colaborator
deactivate ColaboratorRepository

Controller -> PersistenceContext: repositories()
activate PersistenceContext

PersistenceContext -> RepositoryFactory : create()
deactivate PersistenceContext
activate RepositoryFactory

RepositoryFactory -> TR : create()
deactivate RepositoryFactory
activate TR
Controller -> TR: findPendingTasksColaborator(colaborator)
TR -> Controller: tasks
deactivate TR

Controller -> UI : tasks

UI -> UI :doShow

deactivate Controller
deactivate UI
@enduml

PlantUML version 1.2021.7(Sun May 23 12:40:07 UTC 2021)
(GPL source distribution)
Java Runtime: Java(TM) SE Runtime Environment
JVM: Java HotSpot(TM) 64-Bit Server VM
Default Encoding: UTF-8
Language: en
Country: US
--></g></svg>