<?xml version="1.0" encoding="UTF-8" standalone="no"?><svg xmlns="http://www.w3.org/2000/svg" xmlns:xlink="http://www.w3.org/1999/xlink" contentScriptType="application/ecmascript" contentStyleType="text/css" height="1084px" preserveAspectRatio="none" style="width:1352px;height:1084px;background:#FFFFFF;" version="1.1" viewBox="0 0 1352 1084" width="1352px" zoomAndPan="magnify"><defs><filter height="300%" id="f676lbpri62sk" width="300%" x="-1" y="-1"><feGaussianBlur result="blurOut" stdDeviation="2.0"/><feColorMatrix in="blurOut" result="blurOut2" type="matrix" values="0 0 0 0 0 0 0 0 0 0 0 0 0 0 0 0 0 0 .4 0"/><feOffset dx="4.0" dy="4.0" in="blurOut2" result="blurOut3"/><feBlend in="SourceGraphic" in2="blurOut3" mode="normal"/></filter></defs><g><rect fill="#FFFFFF" filter="url(#f676lbpri62sk)" height="883.5938" style="stroke:#A80036;stroke-width:1.0;" width="10" x="18.5" y="98.2969"/><rect fill="#FFFFFF" filter="url(#f676lbpri62sk)" height="862.4609" style="stroke:#A80036;stroke-width:1.0;" width="10" x="358.5" y="119.4297"/><rect fill="#FFFFFF" filter="url(#f676lbpri62sk)" height="30" style="stroke:#A80036;stroke-width:1.0;" width="10" x="727.5" y="252.0938"/><rect fill="#FFFFFF" filter="url(#f676lbpri62sk)" height="282.4688" style="stroke:#A80036;stroke-width:1.0;" width="10" x="727.5" y="425.625"/><rect fill="#FFFFFF" filter="url(#f676lbpri62sk)" height="177.3984" style="stroke:#A80036;stroke-width:1.0;" width="10" x="727.5" y="768.3594"/><rect fill="#FFFFFF" filter="url(#f676lbpri62sk)" height="30" style="stroke:#A80036;stroke-width:1.0;" width="10" x="901" y="335.3594"/><rect fill="#FFFFFF" filter="url(#f676lbpri62sk)" height="30" style="stroke:#A80036;stroke-width:1.0;" width="10" x="1032" y="454.7578"/><rect fill="#FFFFFF" filter="url(#f676lbpri62sk)" height="30" style="stroke:#A80036;stroke-width:1.0;" width="10" x="1032" y="538.0234"/><rect fill="#FFFFFF" filter="url(#f676lbpri62sk)" height="30" style="stroke:#A80036;stroke-width:1.0;" width="10" x="1032" y="797.4922"/><rect fill="#FFFFFF" filter="url(#f676lbpri62sk)" height="30" style="stroke:#A80036;stroke-width:1.0;" width="10" x="1032" y="856.625"/><rect fill="#FFFFFF" filter="url(#f676lbpri62sk)" height="30" style="stroke:#A80036;stroke-width:1.0;" width="10" x="1149" y="611.9609"/><rect fill="#FFFFFF" filter="url(#f676lbpri62sk)" height="30" style="stroke:#A80036;stroke-width:1.0;" width="10" x="1264" y="678.0938"/><rect fill="#FFFFFF" filter="url(#f676lbpri62sk)" height="30" style="stroke:#A80036;stroke-width:1.0;" width="10" x="1264" y="915.7578"/><rect fill="#FFFFFF" filter="url(#f676lbpri62sk)" height="76.2656" style="stroke:#000000;stroke-width:2.0;" width="696" x="280" y="297.0938"/><rect fill="#FFFFFF" filter="url(#f676lbpri62sk)" height="328.7344" style="stroke:#000000;stroke-width:2.0;" width="1058" x="280" y="387.3594"/><rect fill="#FFFFFF" filter="url(#f676lbpri62sk)" height="150.2031" style="stroke:#000000;stroke-width:2.0;" width="591" x="619" y="499.7578"/><rect fill="#FFFFFF" height="73.9375" style="stroke:none;stroke-width:1.0;" width="591" x="619" y="576.0234"/><rect fill="#FFFFFF" filter="url(#f676lbpri62sk)" height="223.6641" style="stroke:#000000;stroke-width:2.0;" width="1058" x="280" y="730.0938"/><line style="stroke:#A80036;stroke-width:1.0;stroke-dasharray:5.0,5.0;" x1="23" x2="23" y1="88.2969" y2="999.8906"/><line style="stroke:#A80036;stroke-width:1.0;stroke-dasharray:5.0,5.0;" x1="363" x2="363" y1="88.2969" y2="999.8906"/><line style="stroke:#A80036;stroke-width:1.0;stroke-dasharray:5.0,5.0;" x1="732" x2="732" y1="88.2969" y2="999.8906"/><line style="stroke:#A80036;stroke-width:1.0;stroke-dasharray:5.0,5.0;" x1="906" x2="906" y1="88.2969" y2="999.8906"/><line style="stroke:#A80036;stroke-width:1.0;stroke-dasharray:5.0,5.0;" x1="1037" x2="1037" y1="88.2969" y2="999.8906"/><line style="stroke:#A80036;stroke-width:1.0;stroke-dasharray:5.0,5.0;" x1="1154" x2="1154" y1="88.2969" y2="999.8906"/><line style="stroke:#A80036;stroke-width:1.0;stroke-dasharray:5.0,5.0;" x1="1269" x2="1269" y1="88.2969" y2="999.8906"/><text fill="#000000" font-family="sans-serif" font-size="14" lengthAdjust="spacing" textLength="31" x="5" y="84.9951">User</text><ellipse cx="23.5" cy="15" fill="#FEFECE" filter="url(#f676lbpri62sk)" rx="8" ry="8" style="stroke:#A80036;stroke-width:2.0;"/><path d="M23.5,23 L23.5,50 M10.5,31 L36.5,31 M23.5,50 L10.5,65 M23.5,50 L36.5,65 " fill="none" filter="url(#f676lbpri62sk)" style="stroke:#A80036;stroke-width:2.0;"/><text fill="#000000" font-family="sans-serif" font-size="14" lengthAdjust="spacing" textLength="31" x="5" y="1011.8857">User</text><ellipse cx="23.5" cy="1025.1875" fill="#FEFECE" filter="url(#f676lbpri62sk)" rx="8" ry="8" style="stroke:#A80036;stroke-width:2.0;"/><path d="M23.5,1033.1875 L23.5,1060.1875 M10.5,1041.1875 L36.5,1041.1875 M23.5,1060.1875 L10.5,1075.1875 M23.5,1060.1875 L36.5,1075.1875 " fill="none" filter="url(#f676lbpri62sk)" style="stroke:#A80036;stroke-width:2.0;"/><rect fill="#FEFECE" filter="url(#f676lbpri62sk)" height="46.5938" style="stroke:#A80036;stroke-width:1.5;" width="143" x="290" y="36.7031"/><text fill="#000000" font-family="sans-serif" font-size="14" font-style="italic" lengthAdjust="spacing" textLength="108" x="307.5" y="56.6982">«presentation»</text><text fill="#000000" font-family="sans-serif" font-size="14" lengthAdjust="spacing" textLength="129" x="297" y="72.9951">doPendingTasksUI</text><rect fill="#FEFECE" filter="url(#f676lbpri62sk)" height="46.5938" style="stroke:#A80036;stroke-width:1.5;" width="143" x="290" y="998.8906"/><text fill="#000000" font-family="sans-serif" font-size="14" font-style="italic" lengthAdjust="spacing" textLength="108" x="307.5" y="1018.8857">«presentation»</text><text fill="#000000" font-family="sans-serif" font-size="14" lengthAdjust="spacing" textLength="129" x="297" y="1035.1826">doPendingTasksUI</text><rect fill="#FEFECE" filter="url(#f676lbpri62sk)" height="46.5938" style="stroke:#A80036;stroke-width:1.5;" width="203" x="629" y="36.7031"/><text fill="#000000" font-family="sans-serif" font-size="14" font-style="italic" lengthAdjust="spacing" textLength="97" x="682" y="56.6982">«application»</text><text fill="#000000" font-family="sans-serif" font-size="14" lengthAdjust="spacing" textLength="189" x="636" y="72.9951">doPendingTasksController</text><rect fill="#FEFECE" filter="url(#f676lbpri62sk)" height="46.5938" style="stroke:#A80036;stroke-width:1.5;" width="203" x="629" y="998.8906"/><text fill="#000000" font-family="sans-serif" font-size="14" font-style="italic" lengthAdjust="spacing" textLength="97" x="682" y="1018.8857">«application»</text><text fill="#000000" font-family="sans-serif" font-size="14" lengthAdjust="spacing" textLength="189" x="636" y="1035.1826">doPendingTasksController</text><rect fill="#FEFECE" filter="url(#f676lbpri62sk)" height="46.5938" style="stroke:#A80036;stroke-width:1.5;" width="116" x="846" y="36.7031"/><text fill="#000000" font-family="sans-serif" font-size="14" font-style="italic" lengthAdjust="spacing" textLength="97" x="855.5" y="56.6982">«application»</text><text fill="#000000" font-family="sans-serif" font-size="14" lengthAdjust="spacing" textLength="102" x="853" y="72.9951">FormValidator</text><rect fill="#FEFECE" filter="url(#f676lbpri62sk)" height="46.5938" style="stroke:#A80036;stroke-width:1.5;" width="116" x="846" y="998.8906"/><text fill="#000000" font-family="sans-serif" font-size="14" font-style="italic" lengthAdjust="spacing" textLength="97" x="855.5" y="1018.8857">«application»</text><text fill="#000000" font-family="sans-serif" font-size="14" lengthAdjust="spacing" textLength="102" x="853" y="1035.1826">FormValidator</text><rect fill="#FEFECE" filter="url(#f676lbpri62sk)" height="46.5938" style="stroke:#A80036;stroke-width:1.5;" width="118" x="976" y="36.7031"/><text fill="#000000" font-family="sans-serif" font-size="14" font-style="italic" lengthAdjust="spacing" textLength="74" x="998" y="56.6982">«Domain»</text><text fill="#000000" font-family="sans-serif" font-size="14" lengthAdjust="spacing" textLength="104" x="983" y="72.9951">TaskExecution</text><rect fill="#FEFECE" filter="url(#f676lbpri62sk)" height="46.5938" style="stroke:#A80036;stroke-width:1.5;" width="118" x="976" y="998.8906"/><text fill="#000000" font-family="sans-serif" font-size="14" font-style="italic" lengthAdjust="spacing" textLength="74" x="998" y="1018.8857">«Domain»</text><text fill="#000000" font-family="sans-serif" font-size="14" lengthAdjust="spacing" textLength="104" x="983" y="1035.1826">TaskExecution</text><rect fill="#FEFECE" filter="url(#f676lbpri62sk)" height="46.5938" style="stroke:#A80036;stroke-width:1.5;" width="88" x="1108" y="36.7031"/><text fill="#000000" font-family="sans-serif" font-size="14" font-style="italic" lengthAdjust="spacing" textLength="74" x="1115" y="56.6982">«Domain»</text><text fill="#000000" font-family="sans-serif" font-size="14" lengthAdjust="spacing" textLength="59" x="1122.5" y="72.9951">Request</text><rect fill="#FEFECE" filter="url(#f676lbpri62sk)" height="46.5938" style="stroke:#A80036;stroke-width:1.5;" width="88" x="1108" y="998.8906"/><text fill="#000000" font-family="sans-serif" font-size="14" font-style="italic" lengthAdjust="spacing" textLength="74" x="1115" y="1018.8857">«Domain»</text><text fill="#000000" font-family="sans-serif" font-size="14" lengthAdjust="spacing" textLength="59" x="1122.5" y="1035.1826">Request</text><text fill="#000000" font-family="sans-serif" font-size="14" font-style="italic" lengthAdjust="spacing" textLength="90" x="1221" y="68.6982">«repository»</text><text fill="#000000" font-family="sans-serif" font-size="14" lengthAdjust="spacing" textLength="112" x="1210" y="84.9951">TaskRepository</text><path d="M1251,19.7031 C1251,9.7031 1269,9.7031 1269,9.7031 C1269,9.7031 1287,9.7031 1287,19.7031 L1287,45.7031 C1287,55.7031 1269,55.7031 1269,55.7031 C1269,55.7031 1251,55.7031 1251,45.7031 L1251,19.7031 " fill="#FEFECE" filter="url(#f676lbpri62sk)" style="stroke:#000000;stroke-width:1.5;"/><path d="M1251,19.7031 C1251,29.7031 1269,29.7031 1269,29.7031 C1269,29.7031 1287,29.7031 1287,19.7031 " fill="none" style="stroke:#000000;stroke-width:1.5;"/><text fill="#000000" font-family="sans-serif" font-size="14" font-style="italic" lengthAdjust="spacing" textLength="90" x="1221" y="1011.8857">«repository»</text><text fill="#000000" font-family="sans-serif" font-size="14" lengthAdjust="spacing" textLength="112" x="1210" y="1028.1826">TaskRepository</text><path d="M1251,1041.4844 C1251,1031.4844 1269,1031.4844 1269,1031.4844 C1269,1031.4844 1287,1031.4844 1287,1041.4844 L1287,1067.4844 C1287,1077.4844 1269,1077.4844 1269,1077.4844 C1269,1077.4844 1251,1077.4844 1251,1067.4844 L1251,1041.4844 " fill="#FEFECE" filter="url(#f676lbpri62sk)" style="stroke:#000000;stroke-width:1.5;"/><path d="M1251,1041.4844 C1251,1051.4844 1269,1051.4844 1269,1051.4844 C1269,1051.4844 1287,1051.4844 1287,1041.4844 " fill="none" style="stroke:#000000;stroke-width:1.5;"/><rect fill="#FFFFFF" filter="url(#f676lbpri62sk)" height="883.5938" style="stroke:#A80036;stroke-width:1.0;" width="10" x="18.5" y="98.2969"/><rect fill="#FFFFFF" filter="url(#f676lbpri62sk)" height="862.4609" style="stroke:#A80036;stroke-width:1.0;" width="10" x="358.5" y="119.4297"/><rect fill="#FFFFFF" filter="url(#f676lbpri62sk)" height="30" style="stroke:#A80036;stroke-width:1.0;" width="10" x="727.5" y="252.0938"/><rect fill="#FFFFFF" filter="url(#f676lbpri62sk)" height="282.4688" style="stroke:#A80036;stroke-width:1.0;" width="10" x="727.5" y="425.625"/><rect fill="#FFFFFF" filter="url(#f676lbpri62sk)" height="177.3984" style="stroke:#A80036;stroke-width:1.0;" width="10" x="727.5" y="768.3594"/><rect fill="#FFFFFF" filter="url(#f676lbpri62sk)" height="30" style="stroke:#A80036;stroke-width:1.0;" width="10" x="901" y="335.3594"/><rect fill="#FFFFFF" filter="url(#f676lbpri62sk)" height="30" style="stroke:#A80036;stroke-width:1.0;" width="10" x="1032" y="454.7578"/><rect fill="#FFFFFF" filter="url(#f676lbpri62sk)" height="30" style="stroke:#A80036;stroke-width:1.0;" width="10" x="1032" y="538.0234"/><rect fill="#FFFFFF" filter="url(#f676lbpri62sk)" height="30" style="stroke:#A80036;stroke-width:1.0;" width="10" x="1032" y="797.4922"/><rect fill="#FFFFFF" filter="url(#f676lbpri62sk)" height="30" style="stroke:#A80036;stroke-width:1.0;" width="10" x="1032" y="856.625"/><rect fill="#FFFFFF" filter="url(#f676lbpri62sk)" height="30" style="stroke:#A80036;stroke-width:1.0;" width="10" x="1149" y="611.9609"/><rect fill="#FFFFFF" filter="url(#f676lbpri62sk)" height="30" style="stroke:#A80036;stroke-width:1.0;" width="10" x="1264" y="678.0938"/><rect fill="#FFFFFF" filter="url(#f676lbpri62sk)" height="30" style="stroke:#A80036;stroke-width:1.0;" width="10" x="1264" y="915.7578"/><polygon fill="#A80036" points="346.5,115.4297,356.5,119.4297,346.5,123.4297,350.5,119.4297" style="stroke:#A80036;stroke-width:1.0;"/><line style="stroke:#A80036;stroke-width:1.0;" x1="28.5" x2="352.5" y1="119.4297" y2="119.4297"/><text fill="#000000" font-family="sans-serif" font-size="13" font-weight="bold" lengthAdjust="spacing" textLength="9" x="35.5" y="114.3638">1</text><text fill="#000000" font-family="sans-serif" font-size="13" lengthAdjust="spacing" textLength="188" x="48.5" y="114.3638">ask for all your pending tasks</text><rect fill="#FFFFFF" filter="url(#f676lbpri62sk)" height="40.2656" style="stroke:#000000;stroke-width:2.0;" width="548" x="287" y="127.4297"/><polygon fill="#EEEEEE" points="287,127.4297,355,127.4297,355,134.4297,345,144.4297,287,144.4297,287,127.4297" style="stroke:#000000;stroke-width:2.0;"/><text fill="#000000" font-family="sans-serif" font-size="13" font-weight="bold" lengthAdjust="spacing" textLength="23" x="300" y="141.4966">ref</text><text fill="#000000" font-family="sans-serif" font-size="13" lengthAdjust="spacing" textLength="137" x="494.5" y="160.4966">findPendingTasks_SD</text><polygon fill="#A80036" points="39.5,189.8281,29.5,193.8281,39.5,197.8281,35.5,193.8281" style="stroke:#A80036;stroke-width:1.0;"/><line style="stroke:#A80036;stroke-width:1.0;" x1="33.5" x2="357.5" y1="193.8281" y2="193.8281"/><text fill="#000000" font-family="sans-serif" font-size="13" font-weight="bold" lengthAdjust="spacing" textLength="9" x="45.5" y="188.7622">2</text><text fill="#000000" font-family="sans-serif" font-size="13" lengthAdjust="spacing" textLength="89" x="58.5" y="188.7622">pending tasks</text><polygon fill="#A80036" points="346.5,218.9609,356.5,222.9609,346.5,226.9609,350.5,222.9609" style="stroke:#A80036;stroke-width:1.0;"/><line style="stroke:#A80036;stroke-width:1.0;" x1="28.5" x2="352.5" y1="222.9609" y2="222.9609"/><text fill="#000000" font-family="sans-serif" font-size="13" font-weight="bold" lengthAdjust="spacing" textLength="8" x="35.5" y="217.895">3</text><text fill="#000000" font-family="sans-serif" font-size="13" lengthAdjust="spacing" textLength="185" x="47.5" y="217.895">choose one tasks to be done</text><polygon fill="#A80036" points="715.5,248.0938,725.5,252.0938,715.5,256.0938,719.5,252.0938" style="stroke:#A80036;stroke-width:1.0;"/><line style="stroke:#A80036;stroke-width:1.0;" x1="368.5" x2="721.5" y1="252.0938" y2="252.0938"/><text fill="#000000" font-family="sans-serif" font-size="13" font-weight="bold" lengthAdjust="spacing" textLength="9" x="375.5" y="247.0278">4</text><text fill="#000000" font-family="sans-serif" font-size="13" lengthAdjust="spacing" textLength="136" x="388.5" y="247.0278">checkTaskType(task)</text><path d="M280,297.0938 L358,297.0938 L358,304.0938 L348,314.0938 L280,314.0938 L280,297.0938 " fill="#EEEEEE" style="stroke:#000000;stroke-width:1.0;"/><rect fill="none" height="76.2656" style="stroke:#000000;stroke-width:2.0;" width="696" x="280" y="297.0938"/><text fill="#000000" font-family="sans-serif" font-size="13" font-weight="bold" lengthAdjust="spacing" textLength="33" x="295" y="310.1606">loop</text><text fill="#000000" font-family="sans-serif" font-size="11" font-weight="bold" lengthAdjust="spacing" textLength="146" x="373" y="309.3042">[until all data is valid]</text><polygon fill="#A80036" points="889,331.3594,899,335.3594,889,339.3594,893,335.3594" style="stroke:#A80036;stroke-width:1.0;"/><line style="stroke:#A80036;stroke-width:1.0;" x1="368.5" x2="895" y1="335.3594" y2="335.3594"/><text fill="#000000" font-family="sans-serif" font-size="13" font-weight="bold" lengthAdjust="spacing" textLength="9" x="375.5" y="330.2935">5</text><text fill="#000000" font-family="sans-serif" font-size="13" lengthAdjust="spacing" textLength="247" x="388.5" y="330.2935">verifyData(script,formsData,atributes)</text><path d="M280,387.3594 L352,387.3594 L352,394.3594 L342,404.3594 L280,404.3594 L280,387.3594 " fill="#EEEEEE" style="stroke:#000000;stroke-width:1.0;"/><rect fill="none" height="328.7344" style="stroke:#000000;stroke-width:2.0;" width="1058" x="280" y="387.3594"/><text fill="#000000" font-family="sans-serif" font-size="13" font-weight="bold" lengthAdjust="spacing" textLength="27" x="295" y="400.4263">opt</text><text fill="#000000" font-family="sans-serif" font-size="11" font-weight="bold" lengthAdjust="spacing" textLength="166" x="367" y="399.5698">[if it is an approval task]</text><polygon fill="#A80036" points="715.5,421.625,725.5,425.625,715.5,429.625,719.5,425.625" style="stroke:#A80036;stroke-width:1.0;"/><line style="stroke:#A80036;stroke-width:1.0;" x1="368.5" x2="721.5" y1="425.625" y2="425.625"/><text fill="#000000" font-family="sans-serif" font-size="13" font-weight="bold" lengthAdjust="spacing" textLength="9" x="375.5" y="420.5591">6</text><text fill="#000000" font-family="sans-serif" font-size="13" lengthAdjust="spacing" textLength="327" x="388.5" y="420.5591">doApprovalTask(task, formsData, isTaskApproved)</text><polygon fill="#A80036" points="1020,450.7578,1030,454.7578,1020,458.7578,1024,454.7578" style="stroke:#A80036;stroke-width:1.0;"/><line style="stroke:#A80036;stroke-width:1.0;" x1="737.5" x2="1026" y1="454.7578" y2="454.7578"/><text fill="#000000" font-family="sans-serif" font-size="13" font-weight="bold" lengthAdjust="spacing" textLength="9" x="744.5" y="449.6919">7</text><text fill="#000000" font-family="sans-serif" font-size="13" lengthAdjust="spacing" textLength="195" x="757.5" y="449.6919">updateFormsData(formsData)</text><path d="M619,499.7578 L685,499.7578 L685,506.7578 L675,516.7578 L619,516.7578 L619,499.7578 " fill="#EEEEEE" style="stroke:#000000;stroke-width:1.0;"/><rect fill="none" height="150.2031" style="stroke:#000000;stroke-width:2.0;" width="591" x="619" y="499.7578"/><text fill="#000000" font-family="sans-serif" font-size="13" font-weight="bold" lengthAdjust="spacing" textLength="21" x="634" y="512.8247">alt</text><text fill="#000000" font-family="sans-serif" font-size="11" font-weight="bold" lengthAdjust="spacing" textLength="156" x="700" y="511.9683">[isTaskApproved : true]</text><polygon fill="#A80036" points="1020,534.0234,1030,538.0234,1020,542.0234,1024,538.0234" style="stroke:#A80036;stroke-width:1.0;"/><line style="stroke:#A80036;stroke-width:1.0;" x1="737.5" x2="1026" y1="538.0234" y2="538.0234"/><text fill="#000000" font-family="sans-serif" font-size="13" font-weight="bold" lengthAdjust="spacing" textLength="9" x="744.5" y="532.9575">8</text><text fill="#000000" font-family="sans-serif" font-size="13" lengthAdjust="spacing" textLength="206" x="757.5" y="532.9575">changeTaskStatus(COMPLETED)</text><line style="stroke:#000000;stroke-width:1.0;stroke-dasharray:2.0,2.0;" x1="619" x2="1210" y1="577.0234" y2="577.0234"/><text fill="#000000" font-family="sans-serif" font-size="11" font-weight="bold" lengthAdjust="spacing" textLength="161" x="624" y="587.2339">[isTaskApproved : false]</text><polygon fill="#A80036" points="1137,607.9609,1147,611.9609,1137,615.9609,1141,611.9609" style="stroke:#A80036;stroke-width:1.0;"/><line style="stroke:#A80036;stroke-width:1.0;" x1="737.5" x2="1143" y1="611.9609" y2="611.9609"/><text fill="#000000" font-family="sans-serif" font-size="13" font-weight="bold" lengthAdjust="spacing" textLength="9" x="744.5" y="606.895">9</text><text fill="#000000" font-family="sans-serif" font-size="13" lengthAdjust="spacing" textLength="215" x="757.5" y="606.895">changeRequestStatus(REJECTED)</text><polygon fill="#A80036" points="1252,674.0938,1262,678.0938,1252,682.0938,1256,678.0938" style="stroke:#A80036;stroke-width:1.0;"/><line style="stroke:#A80036;stroke-width:1.0;" x1="737.5" x2="1258" y1="678.0938" y2="678.0938"/><text fill="#000000" font-family="sans-serif" font-size="13" font-weight="bold" lengthAdjust="spacing" textLength="19" x="744.5" y="673.0278">10</text><text fill="#000000" font-family="sans-serif" font-size="13" lengthAdjust="spacing" textLength="83" x="767.5" y="673.0278">save(Tarefa)</text><path d="M280,730.0938 L352,730.0938 L352,737.0938 L342,747.0938 L280,747.0938 L280,730.0938 " fill="#EEEEEE" style="stroke:#000000;stroke-width:1.0;"/><rect fill="none" height="223.6641" style="stroke:#000000;stroke-width:2.0;" width="1058" x="280" y="730.0938"/><text fill="#000000" font-family="sans-serif" font-size="13" font-weight="bold" lengthAdjust="spacing" textLength="27" x="295" y="743.1606">opt</text><text fill="#000000" font-family="sans-serif" font-size="11" font-weight="bold" lengthAdjust="spacing" textLength="178" x="367" y="742.3042">[if it is an resolution task]</text><polygon fill="#A80036" points="715.5,764.3594,725.5,768.3594,715.5,772.3594,719.5,768.3594" style="stroke:#A80036;stroke-width:1.0;"/><line style="stroke:#A80036;stroke-width:1.0;" x1="368.5" x2="721.5" y1="768.3594" y2="768.3594"/><text fill="#000000" font-family="sans-serif" font-size="13" font-weight="bold" lengthAdjust="spacing" textLength="18" x="375.5" y="763.2935">11</text><text fill="#000000" font-family="sans-serif" font-size="13" lengthAdjust="spacing" textLength="227" x="397.5" y="763.2935">doResolutionTask(task, formsData)</text><polygon fill="#A80036" points="1020,793.4922,1030,797.4922,1020,801.4922,1024,797.4922" style="stroke:#A80036;stroke-width:1.0;"/><line style="stroke:#A80036;stroke-width:1.0;" x1="737.5" x2="1026" y1="797.4922" y2="797.4922"/><text fill="#000000" font-family="sans-serif" font-size="13" font-weight="bold" lengthAdjust="spacing" textLength="18" x="744.5" y="792.4263">12</text><text fill="#000000" font-family="sans-serif" font-size="13" lengthAdjust="spacing" textLength="195" x="766.5" y="792.4263">updateFormsData(formsData)</text><polygon fill="#A80036" points="1020,852.625,1030,856.625,1020,860.625,1024,856.625" style="stroke:#A80036;stroke-width:1.0;"/><line style="stroke:#A80036;stroke-width:1.0;" x1="737.5" x2="1026" y1="856.625" y2="856.625"/><text fill="#000000" font-family="sans-serif" font-size="13" font-weight="bold" lengthAdjust="spacing" textLength="17" x="744.5" y="851.5591">13</text><text fill="#000000" font-family="sans-serif" font-size="13" lengthAdjust="spacing" textLength="206" x="765.5" y="851.5591">changeTaskStatus(COMPLETED)</text><polygon fill="#A80036" points="1252,911.7578,1262,915.7578,1252,919.7578,1256,915.7578" style="stroke:#A80036;stroke-width:1.0;"/><line style="stroke:#A80036;stroke-width:1.0;" x1="737.5" x2="1258" y1="915.7578" y2="915.7578"/><text fill="#000000" font-family="sans-serif" font-size="13" font-weight="bold" lengthAdjust="spacing" textLength="18" x="744.5" y="910.6919">14</text><text fill="#000000" font-family="sans-serif" font-size="13" lengthAdjust="spacing" textLength="83" x="766.5" y="910.6919">save(Tarefa)</text><polygon fill="#A80036" points="34.5,977.8906,24.5,981.8906,34.5,985.8906,30.5,981.8906" style="stroke:#A80036;stroke-width:1.0;"/><line style="stroke:#A80036;stroke-width:1.0;" x1="28.5" x2="362.5" y1="981.8906" y2="981.8906"/><text fill="#000000" font-family="sans-serif" font-size="13" font-weight="bold" lengthAdjust="spacing" textLength="18" x="40.5" y="976.8247">15</text><text fill="#000000" font-family="sans-serif" font-size="13" lengthAdjust="spacing" textLength="284" x="62.5" y="976.8247">inform that task has successfully completed</text><!--MD5=[b0d34c6b347615e3c16fe83c6733eba8]
@startuml
autonumber

actor User as Actor
participant doPendingTasksUI as UI <<presentation>>
participant doPendingTasksController as CTRL <<application>>
participant FormValidator as FV <<application>>
participant TaskExecution as T <<Domain>>
participant Request as R <<Domain>>
database TaskRepository as TR <<repository>>



Activate Actor
Actor -> UI : ask for all your pending tasks 
activate UI
ref over UI, CTRL : findPendingTasks_SD
UI -> Actor : pending tasks

Actor -> UI : choose one tasks to be done 

UI -> CTRL : checkTaskType(task)
activate CTRL
deactivate CTRL

loop until all data is valid
UI -> FV : verifyData(script,formsData,atributes)
activate FV
deactivate FV
end loop

opt  if it is an approval task 

UI -> CTRL : doApprovalTask(task, formsData, isTaskApproved)
activate CTRL
CTRL -> T : updateFormsData(formsData)
activate T
deactivate T

alt isTaskApproved : true
CTRL -> T : changeTaskStatus(COMPLETED)
activate T
deactivate T
else isTaskApproved : false
CTRL -> R : changeRequestStatus(REJECTED)
activate R
deactivate R
end opt
CTRL -> TR : save(Tarefa)
activate TR
deactivate TR
deactivate CTRL
end opt

opt  if it is an resolution task 

UI -> CTRL : doResolutionTask(task, formsData)
activate CTRL
CTRL -> T : updateFormsData(formsData)
activate T
deactivate T
CTRL -> T : changeTaskStatus(COMPLETED)
activate T
deactivate T
CTRL -> TR : save(Tarefa)
activate TR
deactivate TR
deactivate CTRL
end opt

UI -> Actor : inform that task has successfully completed
deactivate UI
deactivate Actor
@enduml

PlantUML version 1.2021.7(Sun May 23 12:40:07 UTC 2021)
(GPL source distribution)
Java Runtime: Java(TM) SE Runtime Environment
JVM: Java HotSpot(TM) 64-Bit Server VM
Default Encoding: UTF-8
Language: en
Country: US
--></g></svg>