<?xml version="1.0" encoding="UTF-8" standalone="no"?><svg xmlns="http://www.w3.org/2000/svg" xmlns:xlink="http://www.w3.org/1999/xlink" contentScriptType="application/ecmascript" contentStyleType="text/css" height="1030px" preserveAspectRatio="none" style="width:753px;height:1030px;" version="1.1" viewBox="0 0 753 1030" width="753px" zoomAndPan="magnify"><defs><filter height="300%" id="f1cfqkb1vjgifb" width="300%" x="-1" y="-1"><feGaussianBlur result="blurOut" stdDeviation="2.0"/><feColorMatrix in="blurOut" result="blurOut2" type="matrix" values="0 0 0 0 0 0 0 0 0 0 0 0 0 0 0 0 0 0 .4 0"/><feOffset dx="4.0" dy="4.0" in="blurOut2" result="blurOut3"/><feBlend in="SourceGraphic" in2="blurOut3" mode="normal"/></filter></defs><g><!--MD5=[9681dc6e01e10c6b4fe06895ae94f592]
cluster UI--><polygon fill="#FFFFFF" filter="url(#f1cfqkb1vjgifb)" points="296,6,318,6,325,28.2969,456,28.2969,456,105,296,105,296,6" style="stroke:#000000;stroke-width:1.5;"/><line style="stroke:#000000;stroke-width:1.5;" x1="296" x2="325" y1="28.2969" y2="28.2969"/><text fill="#000000" font-family="sans-serif" font-size="14" font-weight="bold" lengthAdjust="spacing" textLength="16" x="300" y="20.9951">UI</text><!--MD5=[ed1d20ea533a2a0e7df5ba3c35e56ced]
cluster Controllers--><polygon fill="#FFFFFF" filter="url(#f1cfqkb1vjgifb)" points="16,138,112,138,119,160.2969,736,160.2969,736,263,16,263,16,138" style="stroke:#000000;stroke-width:1.5;"/><line style="stroke:#000000;stroke-width:1.5;" x1="16" x2="119" y1="160.2969" y2="160.2969"/><text fill="#000000" font-family="sans-serif" font-size="14" font-weight="bold" lengthAdjust="spacing" textLength="90" x="20" y="152.9951">Controllers</text><!--MD5=[121a8bf1197281ab89ed693fab589f94]
cluster Domain--><polygon fill="#FFFFFF" filter="url(#f1cfqkb1vjgifb)" points="177,296,244,296,251,318.2969,501,318.2969,501,1023,177,1023,177,296" style="stroke:#000000;stroke-width:1.5;"/><line style="stroke:#000000;stroke-width:1.5;" x1="177" x2="251" y1="318.2969" y2="318.2969"/><text fill="#000000" font-family="sans-serif" font-size="14" font-weight="bold" lengthAdjust="spacing" textLength="61" x="181" y="310.9951">Domain</text><!--MD5=[71152100d89f377ebd8dc97f1c2b0d02]
class RegisterClientUI--><rect codeLine="17" fill="#FEFECE" filter="url(#f1cfqkb1vjgifb)" height="48" id="RegisterClientUI" style="stroke:#A80036;stroke-width:1.5;" width="127" x="312.5" y="41"/><ellipse cx="327.5" cy="57" fill="#ADD1B2" rx="11" ry="11" style="stroke:#A80036;stroke-width:1.0;"/><path d="M329.8438,52.6719 C328.9063,52.2344 328.3125,52.0938 327.4375,52.0938 C324.8125,52.0938 322.8125,54.1719 322.8125,56.8906 L322.8125,58.0156 C322.8125,60.5938 324.9219,62.4844 327.8125,62.4844 C329.0313,62.4844 330.1875,62.1875 330.9375,61.6406 C331.5156,61.2344 331.8438,60.7813 331.8438,60.3906 C331.8438,59.9375 331.4531,59.5469 330.9844,59.5469 C330.7656,59.5469 330.5625,59.625 330.375,59.8125 C329.9219,60.2969 329.9219,60.2969 329.7344,60.3906 C329.3125,60.6563 328.625,60.7813 327.8594,60.7813 C325.8125,60.7813 324.5156,59.6875 324.5156,57.9844 L324.5156,56.8906 C324.5156,55.1094 325.7656,53.7969 327.5,53.7969 C328.0781,53.7969 328.6875,53.9531 329.1563,54.2031 C329.6406,54.4844 329.8125,54.7031 329.9063,55.1094 C329.9688,55.5156 330,55.6406 330.1406,55.7656 C330.2813,55.9063 330.5156,56.0156 330.7344,56.0156 C331,56.0156 331.2656,55.875 331.4375,55.6563 C331.5469,55.5 331.5781,55.3125 331.5781,54.8906 L331.5781,53.4688 C331.5781,53.0313 331.5625,52.9063 331.4688,52.75 C331.3125,52.4844 331.0313,52.3438 330.7344,52.3438 C330.4375,52.3438 330.2344,52.4375 330.0156,52.75 L329.8438,52.6719 Z " fill="#000000"/><text fill="#000000" font-family="sans-serif" font-size="12" lengthAdjust="spacing" textLength="95" x="341.5" y="61.1543">RegisterClientUI</text><line style="stroke:#A80036;stroke-width:1.5;" x1="313.5" x2="438.5" y1="73" y2="73"/><line style="stroke:#A80036;stroke-width:1.5;" x1="313.5" x2="438.5" y1="81" y2="81"/><!--MD5=[1a7fda4a36185bcd740bdf14b2b3a45e]
class RegisterClientController--><rect codeLine="20" fill="#FEFECE" filter="url(#f1cfqkb1vjgifb)" height="73.6094" id="RegisterClientController" style="stroke:#A80036;stroke-width:1.5;" width="688" x="32" y="173"/><ellipse cx="300.75" cy="189" fill="#ADD1B2" rx="11" ry="11" style="stroke:#A80036;stroke-width:1.0;"/><path d="M303.0938,184.6719 C302.1563,184.2344 301.5625,184.0938 300.6875,184.0938 C298.0625,184.0938 296.0625,186.1719 296.0625,188.8906 L296.0625,190.0156 C296.0625,192.5938 298.1719,194.4844 301.0625,194.4844 C302.2813,194.4844 303.4375,194.1875 304.1875,193.6406 C304.7656,193.2344 305.0938,192.7813 305.0938,192.3906 C305.0938,191.9375 304.7031,191.5469 304.2344,191.5469 C304.0156,191.5469 303.8125,191.625 303.625,191.8125 C303.1719,192.2969 303.1719,192.2969 302.9844,192.3906 C302.5625,192.6563 301.875,192.7813 301.1094,192.7813 C299.0625,192.7813 297.7656,191.6875 297.7656,189.9844 L297.7656,188.8906 C297.7656,187.1094 299.0156,185.7969 300.75,185.7969 C301.3281,185.7969 301.9375,185.9531 302.4063,186.2031 C302.8906,186.4844 303.0625,186.7031 303.1563,187.1094 C303.2188,187.5156 303.25,187.6406 303.3906,187.7656 C303.5313,187.9063 303.7656,188.0156 303.9844,188.0156 C304.25,188.0156 304.5156,187.875 304.6875,187.6563 C304.7969,187.5 304.8281,187.3125 304.8281,186.8906 L304.8281,185.4688 C304.8281,185.0313 304.8125,184.9063 304.7188,184.75 C304.5625,184.4844 304.2813,184.3438 303.9844,184.3438 C303.6875,184.3438 303.4844,184.4375 303.2656,184.75 L303.0938,184.6719 Z " fill="#000000"/><text fill="#000000" font-family="sans-serif" font-size="12" lengthAdjust="spacing" textLength="142" x="321.25" y="193.1543">RegisterClientController</text><line style="stroke:#A80036;stroke-width:1.5;" x1="33" x2="719" y1="205" y2="205"/><line style="stroke:#A80036;stroke-width:1.5;" x1="33" x2="719" y1="213" y2="213"/><text fill="#000000" font-family="sans-serif" font-size="11" lengthAdjust="spacing" textLength="676" x="38" y="227.2104">+newClient(name, password, e-mail, NIF, street, doorNumber, postalCode, locality, decimalDegree1, decimalDegree2)</text><text fill="#000000" font-family="sans-serif" font-size="11" lengthAdjust="spacing" textLength="94" x="38" y="240.0151">+registerClient()</text><!--MD5=[99b8db98afdc2c8404e39242ef4c1e65]
class Platform--><rect codeLine="25" fill="#FEFECE" filter="url(#f1cfqkb1vjgifb)" height="60.8047" id="Platform" style="stroke:#A80036;stroke-width:1.5;" width="128" x="234" y="331"/><ellipse cx="270.6" cy="347" fill="#ADD1B2" rx="11" ry="11" style="stroke:#A80036;stroke-width:1.0;"/><path d="M272.9438,342.6719 C272.0063,342.2344 271.4125,342.0938 270.5375,342.0938 C267.9125,342.0938 265.9125,344.1719 265.9125,346.8906 L265.9125,348.0156 C265.9125,350.5938 268.0219,352.4844 270.9125,352.4844 C272.1313,352.4844 273.2875,352.1875 274.0375,351.6406 C274.6156,351.2344 274.9438,350.7813 274.9438,350.3906 C274.9438,349.9375 274.5531,349.5469 274.0844,349.5469 C273.8656,349.5469 273.6625,349.625 273.475,349.8125 C273.0219,350.2969 273.0219,350.2969 272.8344,350.3906 C272.4125,350.6563 271.725,350.7813 270.9594,350.7813 C268.9125,350.7813 267.6156,349.6875 267.6156,347.9844 L267.6156,346.8906 C267.6156,345.1094 268.8656,343.7969 270.6,343.7969 C271.1781,343.7969 271.7875,343.9531 272.2563,344.2031 C272.7406,344.4844 272.9125,344.7031 273.0063,345.1094 C273.0688,345.5156 273.1,345.6406 273.2406,345.7656 C273.3813,345.9063 273.6156,346.0156 273.8344,346.0156 C274.1,346.0156 274.3656,345.875 274.5375,345.6563 C274.6469,345.5 274.6781,345.3125 274.6781,344.8906 L274.6781,343.4688 C274.6781,343.0313 274.6625,342.9063 274.5688,342.75 C274.4125,342.4844 274.1313,342.3438 273.8344,342.3438 C273.5375,342.3438 273.3344,342.4375 273.1156,342.75 L272.9438,342.6719 Z " fill="#000000"/><text fill="#000000" font-family="sans-serif" font-size="12" lengthAdjust="spacing" textLength="48" x="289.4" y="351.1543">Platform</text><line style="stroke:#A80036;stroke-width:1.5;" x1="235" x2="361" y1="363" y2="363"/><line style="stroke:#A80036;stroke-width:1.5;" x1="235" x2="361" y1="371" y2="371"/><text fill="#000000" font-family="sans-serif" font-size="11" lengthAdjust="spacing" textLength="116" x="240" y="385.2104">+getClientRegister()</text><!--MD5=[0fcd3375de399c91a906cd30f47c8789]
class ClientRegister--><rect codeLine="29" fill="#FEFECE" filter="url(#f1cfqkb1vjgifb)" height="124.8281" id="ClientRegister" style="stroke:#A80036;stroke-width:1.5;" width="291" x="193.5" y="453"/><ellipse cx="293.25" cy="469" fill="#ADD1B2" rx="11" ry="11" style="stroke:#A80036;stroke-width:1.0;"/><path d="M295.5938,464.6719 C294.6563,464.2344 294.0625,464.0938 293.1875,464.0938 C290.5625,464.0938 288.5625,466.1719 288.5625,468.8906 L288.5625,470.0156 C288.5625,472.5938 290.6719,474.4844 293.5625,474.4844 C294.7813,474.4844 295.9375,474.1875 296.6875,473.6406 C297.2656,473.2344 297.5938,472.7813 297.5938,472.3906 C297.5938,471.9375 297.2031,471.5469 296.7344,471.5469 C296.5156,471.5469 296.3125,471.625 296.125,471.8125 C295.6719,472.2969 295.6719,472.2969 295.4844,472.3906 C295.0625,472.6563 294.375,472.7813 293.6094,472.7813 C291.5625,472.7813 290.2656,471.6875 290.2656,469.9844 L290.2656,468.8906 C290.2656,467.1094 291.5156,465.7969 293.25,465.7969 C293.8281,465.7969 294.4375,465.9531 294.9063,466.2031 C295.3906,466.4844 295.5625,466.7031 295.6563,467.1094 C295.7188,467.5156 295.75,467.6406 295.8906,467.7656 C296.0313,467.9063 296.2656,468.0156 296.4844,468.0156 C296.75,468.0156 297.0156,467.875 297.1875,467.6563 C297.2969,467.5 297.3281,467.3125 297.3281,466.8906 L297.3281,465.4688 C297.3281,465.0313 297.3125,464.9063 297.2188,464.75 C297.0625,464.4844 296.7813,464.3438 296.4844,464.3438 C296.1875,464.3438 295.9844,464.4375 295.7656,464.75 L295.5938,464.6719 Z " fill="#000000"/><text fill="#000000" font-family="sans-serif" font-size="12" lengthAdjust="spacing" textLength="83" x="313.75" y="473.1543">ClientRegister</text><line style="stroke:#A80036;stroke-width:1.5;" x1="194.5" x2="483.5" y1="485" y2="485"/><line style="stroke:#A80036;stroke-width:1.5;" x1="194.5" x2="483.5" y1="493" y2="493"/><text fill="#000000" font-family="sans-serif" font-size="11" lengthAdjust="spacing" textLength="279" x="199.5" y="507.2104">+newClient(name, password, e-mail, NIF, adress)</text><text fill="#000000" font-family="sans-serif" font-size="11" lengthAdjust="spacing" textLength="133" x="199.5" y="520.0151">+generateId(name,NIF)</text><text fill="#000000" font-family="sans-serif" font-size="11" lengthAdjust="spacing" textLength="174" x="199.5" y="532.8198">+validateClientByEmail(email)</text><text fill="#000000" font-family="sans-serif" font-size="11" lengthAdjust="spacing" textLength="127" x="199.5" y="545.6245">+registerClient(Client)</text><text fill="#000000" font-family="sans-serif" font-size="11" lengthAdjust="spacing" textLength="129" x="199.5" y="558.4292">+validateClient(Client)</text><text fill="#000000" font-family="sans-serif" font-size="11" lengthAdjust="spacing" textLength="104" x="199.5" y="571.2339">+addClient(Client)</text><!--MD5=[ed6624c6556d5e7b1bd23032162d20b7]
class Client--><rect codeLine="38" fill="#FEFECE" filter="url(#f1cfqkb1vjgifb)" height="150.4375" id="Client" style="stroke:#A80036;stroke-width:1.5;" width="106" x="286" y="655"/><ellipse cx="319.45" cy="671" fill="#ADD1B2" rx="11" ry="11" style="stroke:#A80036;stroke-width:1.0;"/><path d="M321.7938,666.6719 C320.8563,666.2344 320.2625,666.0938 319.3875,666.0938 C316.7625,666.0938 314.7625,668.1719 314.7625,670.8906 L314.7625,672.0156 C314.7625,674.5938 316.8719,676.4844 319.7625,676.4844 C320.9813,676.4844 322.1375,676.1875 322.8875,675.6406 C323.4656,675.2344 323.7938,674.7813 323.7938,674.3906 C323.7938,673.9375 323.4031,673.5469 322.9344,673.5469 C322.7156,673.5469 322.5125,673.625 322.325,673.8125 C321.8719,674.2969 321.8719,674.2969 321.6844,674.3906 C321.2625,674.6563 320.575,674.7813 319.8094,674.7813 C317.7625,674.7813 316.4656,673.6875 316.4656,671.9844 L316.4656,670.8906 C316.4656,669.1094 317.7156,667.7969 319.45,667.7969 C320.0281,667.7969 320.6375,667.9531 321.1063,668.2031 C321.5906,668.4844 321.7625,668.7031 321.8563,669.1094 C321.9188,669.5156 321.95,669.6406 322.0906,669.7656 C322.2313,669.9063 322.4656,670.0156 322.6844,670.0156 C322.95,670.0156 323.2156,669.875 323.3875,669.6563 C323.4969,669.5 323.5281,669.3125 323.5281,668.8906 L323.5281,667.4688 C323.5281,667.0313 323.5125,666.9063 323.4188,666.75 C323.2625,666.4844 322.9813,666.3438 322.6844,666.3438 C322.3875,666.3438 322.1844,666.4375 321.9656,666.75 L321.7938,666.6719 Z " fill="#000000"/><text fill="#000000" font-family="sans-serif" font-size="12" lengthAdjust="spacing" textLength="33" x="337.55" y="675.1543">Client</text><line style="stroke:#A80036;stroke-width:1.5;" x1="287" x2="391" y1="687" y2="687"/><text fill="#000000" font-family="sans-serif" font-size="11" lengthAdjust="spacing" textLength="51" x="292" y="701.2104">-String id</text><text fill="#000000" font-family="sans-serif" font-size="11" lengthAdjust="spacing" textLength="74" x="292" y="714.0151">-String name</text><text fill="#000000" font-family="sans-serif" font-size="11" lengthAdjust="spacing" textLength="94" x="292" y="726.8198">-String password</text><text fill="#000000" font-family="sans-serif" font-size="11" lengthAdjust="spacing" textLength="73" x="292" y="739.6245">-String email</text><text fill="#000000" font-family="sans-serif" font-size="11" lengthAdjust="spacing" textLength="58" x="292" y="752.4292">-String NIF</text><text fill="#000000" font-family="sans-serif" font-size="11" lengthAdjust="spacing" textLength="68" x="292" y="765.2339">-String IBAN</text><text fill="#000000" font-family="sans-serif" font-size="11" lengthAdjust="spacing" textLength="85" x="292" y="778.0386">-double credits</text><text fill="#000000" font-family="sans-serif" font-size="11" lengthAdjust="spacing" textLength="92" x="292" y="790.8433">-Adress address</text><line style="stroke:#A80036;stroke-width:1.5;" x1="287" x2="391" y1="797.4375" y2="797.4375"/><!--MD5=[b35291ba1c8cd17b5117d9f7197fc21c]
class Adress--><rect codeLine="49" fill="#FEFECE" filter="url(#f1cfqkb1vjgifb)" height="124.8281" id="Adress" style="stroke:#A80036;stroke-width:1.5;" width="155" x="261.5" y="882"/><ellipse cx="313.25" cy="898" fill="#ADD1B2" rx="11" ry="11" style="stroke:#A80036;stroke-width:1.0;"/><path d="M315.5938,893.6719 C314.6563,893.2344 314.0625,893.0938 313.1875,893.0938 C310.5625,893.0938 308.5625,895.1719 308.5625,897.8906 L308.5625,899.0156 C308.5625,901.5938 310.6719,903.4844 313.5625,903.4844 C314.7813,903.4844 315.9375,903.1875 316.6875,902.6406 C317.2656,902.2344 317.5938,901.7813 317.5938,901.3906 C317.5938,900.9375 317.2031,900.5469 316.7344,900.5469 C316.5156,900.5469 316.3125,900.625 316.125,900.8125 C315.6719,901.2969 315.6719,901.2969 315.4844,901.3906 C315.0625,901.6563 314.375,901.7813 313.6094,901.7813 C311.5625,901.7813 310.2656,900.6875 310.2656,898.9844 L310.2656,897.8906 C310.2656,896.1094 311.5156,894.7969 313.25,894.7969 C313.8281,894.7969 314.4375,894.9531 314.9063,895.2031 C315.3906,895.4844 315.5625,895.7031 315.6563,896.1094 C315.7188,896.5156 315.75,896.6406 315.8906,896.7656 C316.0313,896.9063 316.2656,897.0156 316.4844,897.0156 C316.75,897.0156 317.0156,896.875 317.1875,896.6563 C317.2969,896.5 317.3281,896.3125 317.3281,895.8906 L317.3281,894.4688 C317.3281,894.0313 317.3125,893.9063 317.2188,893.75 C317.0625,893.4844 316.7813,893.3438 316.4844,893.3438 C316.1875,893.3438 315.9844,893.4375 315.7656,893.75 L315.5938,893.6719 Z " fill="#000000"/><text fill="#000000" font-family="sans-serif" font-size="12" lengthAdjust="spacing" textLength="43" x="333.75" y="902.1543">Adress</text><line style="stroke:#A80036;stroke-width:1.5;" x1="262.5" x2="415.5" y1="914" y2="914"/><text fill="#000000" font-family="sans-serif" font-size="11" lengthAdjust="spacing" textLength="75" x="267.5" y="928.2104">-String street</text><text fill="#000000" font-family="sans-serif" font-size="11" lengthAdjust="spacing" textLength="92" x="267.5" y="941.0151">-int doorNumber</text><text fill="#000000" font-family="sans-serif" font-size="11" lengthAdjust="spacing" textLength="105" x="267.5" y="953.8198">-String postalCode</text><text fill="#000000" font-family="sans-serif" font-size="11" lengthAdjust="spacing" textLength="81" x="267.5" y="966.6245">-String locality</text><text fill="#000000" font-family="sans-serif" font-size="11" lengthAdjust="spacing" textLength="143" x="267.5" y="979.4292">-double decimalDegree1</text><text fill="#000000" font-family="sans-serif" font-size="11" lengthAdjust="spacing" textLength="143" x="267.5" y="992.2339">-double decimalDegree2</text><line style="stroke:#A80036;stroke-width:1.5;" x1="262.5" x2="415.5" y1="998.8281" y2="998.8281"/><!--MD5=[98d2d934d445daef8d5bcbeea20c1f70]
link RegisterClientUI to RegisterClientController--><path codeLine="58" d="M376,89.294 C376,110.514 376,142.337 376,167.839 " fill="none" id="RegisterClientUI-to-RegisterClientController" style="stroke:#A80036;stroke-width:1.0;stroke-dasharray:7.0,7.0;"/><polygon fill="#A80036" points="376,172.85,380,163.85,376,167.85,372,163.85,376,172.85" style="stroke:#A80036;stroke-width:1.0;"/><!--MD5=[c909fe01cea01eb2120ec70027a25e7b]
link RegisterClientController to Platform--><path codeLine="60" d="M357.118,247.19 C344.607,271.17 328.291,302.442 315.971,326.057 " fill="none" id="RegisterClientController-to-Platform" style="stroke:#A80036;stroke-width:1.0;stroke-dasharray:7.0,7.0;"/><polygon fill="#A80036" points="313.562,330.673,321.2715,324.5441,315.8749,326.2401,314.1789,320.8435,313.562,330.673" style="stroke:#A80036;stroke-width:1.0;"/><!--MD5=[45cb1e218330fb4abb8ce90d460639ca]
link RegisterClientController to ClientRegister--><path codeLine="61" d="M378.259,247.024 C378.966,259.942 379.653,274.618 380,288 C381.199,334.207 387.432,346.379 380,392 C376.984,410.513 371.563,430.005 365.629,447.86 " fill="none" id="RegisterClientController-to-ClientRegister" style="stroke:#A80036;stroke-width:1.0;stroke-dasharray:7.0,7.0;"/><polygon fill="#A80036" points="363.944,452.85,370.6136,445.6032,365.544,448.1129,363.0343,443.0432,363.944,452.85" style="stroke:#A80036;stroke-width:1.0;"/><!--MD5=[9d300a128616d978fad49290fd17a35f]
link Platform to ClientRegister--><path codeLine="63" d="M306.003,392.168 C310.299,408.097 315.78,428.418 321.036,447.901 " fill="none" id="Platform-to-ClientRegister" style="stroke:#A80036;stroke-width:1.0;stroke-dasharray:7.0,7.0;"/><polygon fill="#A80036" points="322.366,452.833,323.8833,443.1017,321.0635,448.0056,316.1596,445.1858,322.366,452.833" style="stroke:#A80036;stroke-width:1.0;"/><!--MD5=[49041f85611d143f41c27ae4156e71ae]
link ClientRegister to Client--><path codeLine="65" d="M339,578.249 C339,602.145 339,629.706 339,654.674 " fill="none" id="ClientRegister-Client" style="stroke:#A80036;stroke-width:1.0;"/><text fill="#000000" font-family="sans-serif" font-size="13" lengthAdjust="spacing" textLength="33" x="340" y="621.0669">has&gt;</text><text fill="#000000" font-family="sans-serif" font-size="13" lengthAdjust="spacing" textLength="8" x="330.5625" y="598.016">1</text><text fill="#000000" font-family="sans-serif" font-size="13" lengthAdjust="spacing" textLength="23" x="314.9039" y="643.832">1..*</text><!--MD5=[5e2a77ac8cb2ce8495915d4213d8353b]
link Client to Adress--><path codeLine="67" d="M339,805.024 C339,830.058 339,857.728 339,881.711 " fill="none" id="Client-Adress" style="stroke:#A80036;stroke-width:1.0;"/><text fill="#000000" font-family="sans-serif" font-size="13" lengthAdjust="spacing" textLength="33" x="340" y="848.0669">has&gt;</text><text fill="#000000" font-family="sans-serif" font-size="13" lengthAdjust="spacing" textLength="8" x="330.5875" y="825.5855">1</text><text fill="#000000" font-family="sans-serif" font-size="13" lengthAdjust="spacing" textLength="8" x="330.5625" y="871.1067">1</text><!--MD5=[a14c813fd97a3f5c39979607088b31ad]
@startuml
skinparam classAttributeIconSize 0

package UI <<Folder>> {
  class RegisterClientUI
}

package Controllers <<Folder>> {
  class RegisterClientController
}

package Domain <<Folder>> {
class Platform
class ClientRegister
class Client
class Adress
}
class RegisterClientUI {
}

class RegisterClientController {
  +newClient(name, password, e-mail, NIF, street, doorNumber, postalCode, locality, decimalDegree1, decimalDegree2)
  +registerClient()
}

class Platform {
  +getClientRegister()
}

class ClientRegister {
  +newClient(name, password, e-mail, NIF, adress)
  +generateId(name,NIF)
  +validateClientByEmail(email)
  +registerClient(Client)
  +validateClient(Client)
  +addClient(Client)
}

class Client{
-String id
-String name
-String password
-String email
-String NIF
-String IBAN
-double credits
-Adress address
}

class Adress{
-String street
-int doorNumber
-String postalCode
-String locality
-double decimalDegree1
-double decimalDegree2
}

RegisterClientUI ..> RegisterClientController

RegisterClientController ..> Platform
RegisterClientController ..> ClientRegister

Platform ..> ClientRegister

ClientRegister"1" - - "1..*" Client : has>

Client"1" - - "1" Adress : has>
@enduml

PlantUML version 1.2020.27beta8(Unknown compile time)
(GPL source distribution)
Java Runtime: Java(TM) SE Runtime Environment
JVM: Java HotSpot(TM) 64-Bit Server VM
Default Encoding: UTF-8
Language: en
Country: US
--></g></svg>