<?xml version="1.0" encoding="UTF-8" standalone="no"?><svg xmlns="http://www.w3.org/2000/svg" xmlns:xlink="http://www.w3.org/1999/xlink" contentScriptType="application/ecmascript" contentStyleType="text/css" height="955px" preserveAspectRatio="none" style="width:1933px;height:955px;" version="1.1" viewBox="0 0 1933 955" width="1933px" zoomAndPan="magnify"><defs><filter height="300%" id="f6azb24j8151u" width="300%" x="-1" y="-1"><feGaussianBlur result="blurOut" stdDeviation="2.0"/><feColorMatrix in="blurOut" result="blurOut2" type="matrix" values="0 0 0 0 0 0 0 0 0 0 0 0 0 0 0 0 0 0 .4 0"/><feOffset dx="4.0" dy="4.0" in="blurOut2" result="blurOut3"/><feBlend in="SourceGraphic" in2="blurOut3" mode="normal"/></filter></defs><g><rect fill="#FFFFFF" filter="url(#f6azb24j8151u)" height="763.6797" style="stroke:#A80036;stroke-width:1.0;" width="10" x="62" y="98.2969"/><rect fill="#FFFFFF" filter="url(#f6azb24j8151u)" height="44.2656" style="stroke:#A80036;stroke-width:1.0;" width="10" x="557" y="119.4297"/><rect fill="#FFFFFF" filter="url(#f6azb24j8151u)" height="414.0859" style="stroke:#A80036;stroke-width:1.0;" width="10" x="557" y="192.8281"/><rect fill="#FFFFFF" filter="url(#f6azb24j8151u)" height="216.9297" style="stroke:#A80036;stroke-width:1.0;" width="10" x="557" y="636.0469"/><rect fill="#FFFFFF" filter="url(#f6azb24j8151u)" height="340.6875" style="stroke:#A80036;stroke-width:1.0;" width="10" x="987" y="237.0938"/><rect fill="#FFFFFF" filter="url(#f6azb24j8151u)" height="187.7969" style="stroke:#A80036;stroke-width:1.0;" width="10" x="987" y="665.1797"/><rect fill="#FFFFFF" filter="url(#f6azb24j8151u)" height="30" style="stroke:#A80036;stroke-width:1.0;" width="10" x="1206" y="266.2266"/><rect fill="#FFFFFF" filter="url(#f6azb24j8151u)" height="44.2656" style="stroke:#A80036;stroke-width:1.0;" width="10" x="1376" y="340.4922"/><rect fill="#FFFFFF" filter="url(#f6azb24j8151u)" height="71.2656" style="stroke:#A80036;stroke-width:1.0;" width="10" x="1484" y="414.9219"/><rect fill="#FFFFFF" filter="url(#f6azb24j8151u)" height="30" style="stroke:#A80036;stroke-width:1.0;" width="10" x="1484" y="547.7813"/><rect fill="#FFFFFF" filter="url(#f6azb24j8151u)" height="122.5313" style="stroke:#A80036;stroke-width:1.0;" width="10" x="1484" y="694.3125"/><line style="stroke:#A80036;stroke-width:1.0;stroke-dasharray:5.0,5.0;" x1="67" x2="67" y1="88.2969" y2="870.9766"/><line style="stroke:#A80036;stroke-width:1.0;stroke-dasharray:5.0,5.0;" x1="562" x2="562" y1="88.2969" y2="870.9766"/><line style="stroke:#A80036;stroke-width:1.0;stroke-dasharray:5.0,5.0;" x1="992" x2="992" y1="88.2969" y2="870.9766"/><line style="stroke:#A80036;stroke-width:1.0;stroke-dasharray:5.0,5.0;" x1="1211" x2="1211" y1="88.2969" y2="870.9766"/><line style="stroke:#A80036;stroke-width:1.0;stroke-dasharray:5.0,5.0;" x1="1380.5" x2="1380.5" y1="88.2969" y2="870.9766"/><line style="stroke:#A80036;stroke-width:1.0;stroke-dasharray:5.0,5.0;" x1="1488.5" x2="1488.5" y1="88.2969" y2="870.9766"/><line style="stroke:#A80036;stroke-width:1.0;stroke-dasharray:5.0,5.0;" x1="1790" x2="1790" y1="381.1406" y2="870.9766"/><line style="stroke:#A80036;stroke-width:1.0;stroke-dasharray:5.0,5.0;" x1="1891" x2="1891" y1="505.8516" y2="870.9766"/><text fill="#000000" font-family="sans-serif" font-size="14" lengthAdjust="spacing" textLength="118" x="5" y="84.9951">UnregisterClient</text><ellipse cx="67" cy="15" fill="#FEFECE" filter="url(#f6azb24j8151u)" rx="8" ry="8" style="stroke:#A80036;stroke-width:2.0;"/><path d="M67,23 L67,50 M54,31 L80,31 M67,50 L54,65 M67,50 L80,65 " fill="none" filter="url(#f6azb24j8151u)" style="stroke:#A80036;stroke-width:2.0;"/><text fill="#000000" font-family="sans-serif" font-size="14" lengthAdjust="spacing" textLength="118" x="5" y="882.9717">UnregisterClient</text><ellipse cx="67" cy="896.2734" fill="#FEFECE" filter="url(#f6azb24j8151u)" rx="8" ry="8" style="stroke:#A80036;stroke-width:2.0;"/><path d="M67,904.2734 L67,931.2734 M54,912.2734 L80,912.2734 M67,931.2734 L54,946.2734 M67,931.2734 L80,946.2734 " fill="none" filter="url(#f6azb24j8151u)" style="stroke:#A80036;stroke-width:2.0;"/><rect fill="#FEFECE" filter="url(#f6azb24j8151u)" height="30.2969" style="stroke:#A80036;stroke-width:1.5;" width="136" x="492" y="53"/><text fill="#000000" font-family="sans-serif" font-size="14" lengthAdjust="spacing" textLength="122" x="499" y="72.9951">:RegisterClientUI</text><rect fill="#FEFECE" filter="url(#f6azb24j8151u)" height="30.2969" style="stroke:#A80036;stroke-width:1.5;" width="136" x="492" y="869.9766"/><text fill="#000000" font-family="sans-serif" font-size="14" lengthAdjust="spacing" textLength="122" x="499" y="889.9717">:RegisterClientUI</text><rect fill="#FEFECE" filter="url(#f6azb24j8151u)" height="30.2969" style="stroke:#A80036;stroke-width:1.5;" width="196" x="892" y="53"/><text fill="#000000" font-family="sans-serif" font-size="14" lengthAdjust="spacing" textLength="182" x="899" y="72.9951">:RegisterClientController</text><rect fill="#FEFECE" filter="url(#f6azb24j8151u)" height="30.2969" style="stroke:#A80036;stroke-width:1.5;" width="196" x="892" y="869.9766"/><text fill="#000000" font-family="sans-serif" font-size="14" lengthAdjust="spacing" textLength="182" x="899" y="889.9717">:RegisterClientController</text><rect fill="#FEFECE" filter="url(#f6azb24j8151u)" height="30.2969" style="stroke:#A80036;stroke-width:1.5;" width="82" x="1168" y="53"/><text fill="#000000" font-family="sans-serif" font-size="14" lengthAdjust="spacing" textLength="68" x="1175" y="72.9951">:Platform</text><rect fill="#FEFECE" filter="url(#f6azb24j8151u)" height="30.2969" style="stroke:#A80036;stroke-width:1.5;" width="82" x="1168" y="869.9766"/><text fill="#000000" font-family="sans-serif" font-size="14" lengthAdjust="spacing" textLength="68" x="1175" y="889.9717">:Platform</text><rect fill="#FEFECE" filter="url(#f6azb24j8151u)" height="30.2969" style="stroke:#A80036;stroke-width:1.5;" width="67" x="1345.5" y="53"/><text fill="#000000" font-family="sans-serif" font-size="14" lengthAdjust="spacing" textLength="53" x="1352.5" y="72.9951">:Adress</text><rect fill="#FEFECE" filter="url(#f6azb24j8151u)" height="30.2969" style="stroke:#A80036;stroke-width:1.5;" width="67" x="1345.5" y="869.9766"/><text fill="#000000" font-family="sans-serif" font-size="14" lengthAdjust="spacing" textLength="53" x="1352.5" y="889.9717">:Adress</text><rect fill="#FEFECE" filter="url(#f6azb24j8151u)" height="46.5938" style="stroke:#A80036;stroke-width:1.5;" width="121" x="1426.5" y="36.7031"/><text fill="#000000" font-family="sans-serif" font-size="14" lengthAdjust="spacing" textLength="47" x="1463.5" y="56.6982">rclient</text><text fill="#000000" font-family="sans-serif" font-size="14" lengthAdjust="spacing" textLength="107" x="1433.5" y="72.9951">:clientRegister</text><rect fill="#FEFECE" filter="url(#f6azb24j8151u)" height="46.5938" style="stroke:#A80036;stroke-width:1.5;" width="121" x="1426.5" y="869.9766"/><text fill="#000000" font-family="sans-serif" font-size="14" lengthAdjust="spacing" textLength="47" x="1463.5" y="889.9717">rclient</text><text fill="#000000" font-family="sans-serif" font-size="14" lengthAdjust="spacing" textLength="107" x="1433.5" y="906.2686">:clientRegister</text><rect fill="#FEFECE" filter="url(#f6azb24j8151u)" height="30.2969" style="stroke:#A80036;stroke-width:1.5;" width="113" x="1732" y="869.9766"/><text fill="#000000" font-family="sans-serif" font-size="14" lengthAdjust="spacing" textLength="99" x="1739" y="889.9717">adress:Adress</text><rect fill="#FEFECE" filter="url(#f6azb24j8151u)" height="46.5938" style="stroke:#A80036;stroke-width:1.5;" width="60" x="1859" y="869.9766"/><text fill="#000000" font-family="sans-serif" font-size="14" lengthAdjust="spacing" textLength="41" x="1868.5" y="889.9717">client</text><text fill="#000000" font-family="sans-serif" font-size="14" lengthAdjust="spacing" textLength="46" x="1866" y="906.2686">:client</text><rect fill="#FFFFFF" filter="url(#f6azb24j8151u)" height="763.6797" style="stroke:#A80036;stroke-width:1.0;" width="10" x="62" y="98.2969"/><rect fill="#FFFFFF" filter="url(#f6azb24j8151u)" height="44.2656" style="stroke:#A80036;stroke-width:1.0;" width="10" x="557" y="119.4297"/><rect fill="#FFFFFF" filter="url(#f6azb24j8151u)" height="414.0859" style="stroke:#A80036;stroke-width:1.0;" width="10" x="557" y="192.8281"/><rect fill="#FFFFFF" filter="url(#f6azb24j8151u)" height="216.9297" style="stroke:#A80036;stroke-width:1.0;" width="10" x="557" y="636.0469"/><rect fill="#FFFFFF" filter="url(#f6azb24j8151u)" height="340.6875" style="stroke:#A80036;stroke-width:1.0;" width="10" x="987" y="237.0938"/><rect fill="#FFFFFF" filter="url(#f6azb24j8151u)" height="187.7969" style="stroke:#A80036;stroke-width:1.0;" width="10" x="987" y="665.1797"/><rect fill="#FFFFFF" filter="url(#f6azb24j8151u)" height="30" style="stroke:#A80036;stroke-width:1.0;" width="10" x="1206" y="266.2266"/><rect fill="#FFFFFF" filter="url(#f6azb24j8151u)" height="44.2656" style="stroke:#A80036;stroke-width:1.0;" width="10" x="1376" y="340.4922"/><rect fill="#FFFFFF" filter="url(#f6azb24j8151u)" height="71.2656" style="stroke:#A80036;stroke-width:1.0;" width="10" x="1484" y="414.9219"/><rect fill="#FFFFFF" filter="url(#f6azb24j8151u)" height="30" style="stroke:#A80036;stroke-width:1.0;" width="10" x="1484" y="547.7813"/><rect fill="#FFFFFF" filter="url(#f6azb24j8151u)" height="122.5313" style="stroke:#A80036;stroke-width:1.0;" width="10" x="1484" y="694.3125"/><polygon fill="#A80036" points="545,115.4297,555,119.4297,545,123.4297,549,119.4297" style="stroke:#A80036;stroke-width:1.0;"/><line style="stroke:#A80036;stroke-width:1.0;" x1="72" x2="551" y1="119.4297" y2="119.4297"/><text fill="#000000" font-family="sans-serif" font-size="13" font-weight="bold" lengthAdjust="spacing" textLength="9" x="79" y="114.3638">1</text><text fill="#000000" font-family="sans-serif" font-size="13" lengthAdjust="spacing" textLength="145" x="92" y="114.3638">start client registration</text><polygon fill="#A80036" points="83,159.6953,73,163.6953,83,167.6953,79,163.6953" style="stroke:#A80036;stroke-width:1.0;"/><line style="stroke:#A80036;stroke-width:1.0;stroke-dasharray:2.0,2.0;" x1="77" x2="561" y1="163.6953" y2="163.6953"/><text fill="#000000" font-family="sans-serif" font-size="13" font-weight="bold" lengthAdjust="spacing" textLength="9" x="89" y="151.063">2</text><text fill="#000000" font-family="sans-serif" font-size="13" lengthAdjust="spacing" textLength="368" x="102" y="143.4966">requests all data (e.g.name, password, e-mail, NIF,street,</text><text fill="#000000" font-family="sans-serif" font-size="13" lengthAdjust="spacing" textLength="444" x="106" y="158.6294">doorNumber postalCode, locality, decimalDegree1, decimalDegree2).</text><polygon fill="#A80036" points="545,188.8281,555,192.8281,545,196.8281,549,192.8281" style="stroke:#A80036;stroke-width:1.0;"/><line style="stroke:#A80036;stroke-width:1.0;" x1="72" x2="551" y1="192.8281" y2="192.8281"/><text fill="#000000" font-family="sans-serif" font-size="13" font-weight="bold" lengthAdjust="spacing" textLength="8" x="79" y="187.7622">3</text><text fill="#000000" font-family="sans-serif" font-size="13" lengthAdjust="spacing" textLength="93" x="91" y="187.7622">introduce data</text><polygon fill="#A80036" points="975,233.0938,985,237.0938,975,241.0938,979,237.0938" style="stroke:#A80036;stroke-width:1.0;"/><line style="stroke:#A80036;stroke-width:1.0;" x1="567" x2="981" y1="237.0938" y2="237.0938"/><text fill="#000000" font-family="sans-serif" font-size="13" font-weight="bold" lengthAdjust="spacing" textLength="9" x="574" y="224.4614">4</text><text fill="#000000" font-family="sans-serif" font-size="13" lengthAdjust="spacing" textLength="388" x="587" y="216.895">newClient(name, password, e-mail, NIF, street, doorNumber,</text><text fill="#000000" font-family="sans-serif" font-size="13" lengthAdjust="spacing" textLength="360" x="587" y="232.0278">postalCode, locality, decimalDegree1, decimalDegree2).</text><polygon fill="#A80036" points="1194,262.2266,1204,266.2266,1194,270.2266,1198,266.2266" style="stroke:#A80036;stroke-width:1.0;"/><line style="stroke:#A80036;stroke-width:1.0;" x1="997" x2="1200" y1="266.2266" y2="266.2266"/><text fill="#000000" font-family="sans-serif" font-size="13" font-weight="bold" lengthAdjust="spacing" textLength="9" x="1004" y="261.1606">5</text><text fill="#000000" font-family="sans-serif" font-size="13" lengthAdjust="spacing" textLength="177" x="1017" y="261.1606">rclient = getClientRegister()</text><polygon fill="#A80036" points="1364,336.4922,1374,340.4922,1364,344.4922,1368,340.4922" style="stroke:#A80036;stroke-width:1.0;"/><line style="stroke:#A80036;stroke-width:1.0;" x1="997" x2="1370" y1="340.4922" y2="340.4922"/><text fill="#000000" font-family="sans-serif" font-size="13" font-weight="bold" lengthAdjust="spacing" textLength="9" x="1004" y="327.8599">6</text><text fill="#000000" font-family="sans-serif" font-size="13" lengthAdjust="spacing" textLength="347" x="1017" y="320.2935">adress = newAdress(street, doorNumber, postalCode,</text><text fill="#000000" font-family="sans-serif" font-size="13" lengthAdjust="spacing" textLength="280" x="1021" y="335.4263">locality, decimalDegree1, decimalDegree2).</text><polygon fill="#A80036" points="1720,380.7578,1730,384.7578,1720,388.7578,1724,384.7578" style="stroke:#A80036;stroke-width:1.0;"/><line style="stroke:#A80036;stroke-width:1.0;stroke-dasharray:2.0,2.0;" x1="1381" x2="1726" y1="384.7578" y2="384.7578"/><text fill="#000000" font-family="sans-serif" font-size="13" font-weight="bold" lengthAdjust="spacing" textLength="9" x="1388" y="372.1255">7</text><text fill="#000000" font-family="sans-serif" font-size="13" lengthAdjust="spacing" textLength="309" x="1401" y="364.5591">create(street, doorNumber, postalCode, locality,</text><text fill="#000000" font-family="sans-serif" font-size="13" lengthAdjust="spacing" textLength="227" x="1405" y="379.6919">decimalDegree1, decimalDegree2).</text><rect fill="#FEFECE" filter="url(#f6azb24j8151u)" height="30.2969" style="stroke:#A80036;stroke-width:1.5;" width="113" x="1732" y="348.4922"/><text fill="#000000" font-family="sans-serif" font-size="14" lengthAdjust="spacing" textLength="99" x="1739" y="368.4873">adress:Adress</text><polygon fill="#A80036" points="1472,410.9219,1482,414.9219,1472,418.9219,1476,414.9219" style="stroke:#A80036;stroke-width:1.0;"/><line style="stroke:#A80036;stroke-width:1.0;" x1="997" x2="1478" y1="414.9219" y2="414.9219"/><text fill="#000000" font-family="sans-serif" font-size="13" font-weight="bold" lengthAdjust="spacing" textLength="9" x="1004" y="409.856">8</text><text fill="#000000" font-family="sans-serif" font-size="13" lengthAdjust="spacing" textLength="362" x="1017" y="409.856">client = newClient(name, password, e-mail, NIF, adress).</text><line style="stroke:#A80036;stroke-width:1.0;" x1="1494" x2="1536" y1="444.0547" y2="444.0547"/><line style="stroke:#A80036;stroke-width:1.0;" x1="1536" x2="1536" y1="444.0547" y2="457.0547"/><line style="stroke:#A80036;stroke-width:1.0;" x1="1495" x2="1536" y1="457.0547" y2="457.0547"/><polygon fill="#A80036" points="1505,453.0547,1495,457.0547,1505,461.0547,1501,457.0547" style="stroke:#A80036;stroke-width:1.0;"/><text fill="#000000" font-family="sans-serif" font-size="13" font-weight="bold" lengthAdjust="spacing" textLength="9" x="1501" y="438.9888">9</text><text fill="#000000" font-family="sans-serif" font-size="13" lengthAdjust="spacing" textLength="139" x="1514" y="438.9888">generateId(name,NIF)</text><polygon fill="#A80036" points="1847,482.1875,1857,486.1875,1847,490.1875,1851,486.1875" style="stroke:#A80036;stroke-width:1.0;"/><line style="stroke:#A80036;stroke-width:1.0;stroke-dasharray:2.0,2.0;" x1="1489" x2="1853" y1="486.1875" y2="486.1875"/><text fill="#000000" font-family="sans-serif" font-size="13" font-weight="bold" lengthAdjust="spacing" textLength="19" x="1496" y="481.1216">10</text><text fill="#000000" font-family="sans-serif" font-size="13" lengthAdjust="spacing" textLength="307" x="1519" y="481.1216">create(id, name, password, e-mail, NIF, adress).</text><rect fill="#FEFECE" filter="url(#f6azb24j8151u)" height="46.5938" style="stroke:#A80036;stroke-width:1.5;" width="60" x="1859" y="465.0547"/><text fill="#000000" font-family="sans-serif" font-size="14" lengthAdjust="spacing" textLength="41" x="1868.5" y="485.0498">client</text><text fill="#000000" font-family="sans-serif" font-size="14" lengthAdjust="spacing" textLength="46" x="1866" y="501.3467">:client</text><polygon fill="#A80036" points="1472,543.7813,1482,547.7813,1472,551.7813,1476,547.7813" style="stroke:#A80036;stroke-width:1.0;"/><line style="stroke:#A80036;stroke-width:1.0;" x1="997" x2="1478" y1="547.7813" y2="547.7813"/><text fill="#000000" font-family="sans-serif" font-size="13" font-weight="bold" lengthAdjust="spacing" textLength="18" x="1004" y="542.7153">11</text><text fill="#000000" font-family="sans-serif" font-size="13" lengthAdjust="spacing" textLength="187" x="1026" y="542.7153">validateClientByEmail(email).</text><polygon fill="#A80036" points="83,602.9141,73,606.9141,83,610.9141,79,606.9141" style="stroke:#A80036;stroke-width:1.0;"/><line style="stroke:#A80036;stroke-width:1.0;stroke-dasharray:2.0,2.0;" x1="77" x2="561" y1="606.9141" y2="606.9141"/><text fill="#000000" font-family="sans-serif" font-size="13" font-weight="bold" lengthAdjust="spacing" textLength="18" x="89" y="601.8481">12</text><text fill="#000000" font-family="sans-serif" font-size="13" lengthAdjust="spacing" textLength="284" x="111" y="601.8481">shows client data and asks for confirmation.</text><polygon fill="#A80036" points="545,632.0469,555,636.0469,545,640.0469,549,636.0469" style="stroke:#A80036;stroke-width:1.0;"/><line style="stroke:#A80036;stroke-width:1.0;" x1="72" x2="551" y1="636.0469" y2="636.0469"/><text fill="#000000" font-family="sans-serif" font-size="13" font-weight="bold" lengthAdjust="spacing" textLength="17" x="79" y="630.981">13</text><text fill="#000000" font-family="sans-serif" font-size="13" lengthAdjust="spacing" textLength="56" x="100" y="630.981">confirms</text><polygon fill="#A80036" points="975,661.1797,985,665.1797,975,669.1797,979,665.1797" style="stroke:#A80036;stroke-width:1.0;"/><line style="stroke:#A80036;stroke-width:1.0;" x1="567" x2="981" y1="665.1797" y2="665.1797"/><text fill="#000000" font-family="sans-serif" font-size="13" font-weight="bold" lengthAdjust="spacing" textLength="18" x="574" y="660.1138">14</text><text fill="#000000" font-family="sans-serif" font-size="13" lengthAdjust="spacing" textLength="95" x="596" y="660.1138">registerClient()</text><polygon fill="#A80036" points="1472,690.3125,1482,694.3125,1472,698.3125,1476,694.3125" style="stroke:#A80036;stroke-width:1.0;"/><line style="stroke:#A80036;stroke-width:1.0;" x1="997" x2="1478" y1="694.3125" y2="694.3125"/><text fill="#000000" font-family="sans-serif" font-size="13" font-weight="bold" lengthAdjust="spacing" textLength="18" x="1004" y="689.2466">15</text><text fill="#000000" font-family="sans-serif" font-size="13" lengthAdjust="spacing" textLength="131" x="1026" y="689.2466">registerClient(Client)</text><line style="stroke:#A80036;stroke-width:1.0;" x1="1494" x2="1536" y1="723.4453" y2="723.4453"/><line style="stroke:#A80036;stroke-width:1.0;" x1="1536" x2="1536" y1="723.4453" y2="736.4453"/><line style="stroke:#A80036;stroke-width:1.0;" x1="1495" x2="1536" y1="736.4453" y2="736.4453"/><polygon fill="#A80036" points="1505,732.4453,1495,736.4453,1505,740.4453,1501,736.4453" style="stroke:#A80036;stroke-width:1.0;"/><text fill="#000000" font-family="sans-serif" font-size="13" font-weight="bold" lengthAdjust="spacing" textLength="18" x="1501" y="718.3794">16</text><text fill="#000000" font-family="sans-serif" font-size="13" lengthAdjust="spacing" textLength="133" x="1523" y="718.3794">validateClient(Client)</text><rect fill="#FFFFFF" filter="url(#f6azb24j8151u)" height="40.2656" style="stroke:#000000;stroke-width:2.0;" width="385.5" x="1165" y="744.4453"/><polygon fill="#EEEEEE" points="1165,744.4453,1233,744.4453,1233,751.4453,1223,761.4453,1165,761.4453,1165,744.4453" style="stroke:#000000;stroke-width:2.0;"/><text fill="#000000" font-family="sans-serif" font-size="13" font-weight="bold" lengthAdjust="spacing" textLength="23" x="1178" y="758.5122">ref</text><text fill="#000000" font-family="sans-serif" font-size="13" lengthAdjust="spacing" textLength="274" x="1222.75" y="777.5122">AUCKL3-23 RegisterClientAsUser(withRole)</text><line style="stroke:#A80036;stroke-width:1.0;" x1="1494" x2="1536" y1="815.8438" y2="815.8438"/><line style="stroke:#A80036;stroke-width:1.0;" x1="1536" x2="1536" y1="815.8438" y2="828.8438"/><line style="stroke:#A80036;stroke-width:1.0;" x1="1489" x2="1536" y1="828.8438" y2="828.8438"/><polygon fill="#A80036" points="1499,824.8438,1489,828.8438,1499,832.8438,1495,828.8438" style="stroke:#A80036;stroke-width:1.0;"/><text fill="#000000" font-family="sans-serif" font-size="13" font-weight="bold" lengthAdjust="spacing" textLength="18" x="1501" y="810.7778">17</text><text fill="#000000" font-family="sans-serif" font-size="13" lengthAdjust="spacing" textLength="106" x="1523" y="810.7778">addClient(Client)</text><polygon fill="#A80036" points="83,848.9766,73,852.9766,83,856.9766,79,852.9766" style="stroke:#A80036;stroke-width:1.0;"/><line style="stroke:#A80036;stroke-width:1.0;stroke-dasharray:2.0,2.0;" x1="77" x2="561" y1="852.9766" y2="852.9766"/><text fill="#000000" font-family="sans-serif" font-size="13" font-weight="bold" lengthAdjust="spacing" textLength="18" x="89" y="847.9106">18</text><text fill="#000000" font-family="sans-serif" font-size="13" lengthAdjust="spacing" textLength="377" x="111" y="847.9106">informs the UnregisterUser of the success of the operation</text><!--MD5=[5497fe19354cf0a223863bba8d26533d]
@startuml
autonumber

actor "UnregisterClient" as c
participant ":RegisterClientUI" as UI
participant ":RegisterClientController" as CTRL
participant ":Platform" as PLAT
participant ":Adress" as ADRL
participant "rclient\n:clientRegister" as RCLI
participant "adress:Adress" as ADR
participant "client\n:client" as CLI

activate c
c -> UI : start client registration
activate UI

UI - -> c : requests all data (e.g.name, password, e-mail, NIF,street,\n doorNumber postalCode, locality, decimalDegree1, decimalDegree2).
deactivate UI

c -> UI : introduce data
activate UI
UI -> CTRL : newClient(name, password, e-mail, NIF, street, doorNumber,\npostalCode, locality, decimalDegree1, decimalDegree2).
activate CTRL
CTRL -> PLAT : rclient = getClientRegister()
activate PLAT
deactivate PLAT
CTRL -> ADRL : adress = newAdress(street, doorNumber, postalCode,\n locality, decimalDegree1, decimalDegree2).
activate ADRL
ADRL - -> ADR **: create(street, doorNumber, postalCode, locality,\n decimalDegree1, decimalDegree2).
deactivate ADRL
CTRL -> RCLI: client = newClient(name, password, e-mail, NIF, adress).
activate RCLI
RCLI -> RCLI : generateId(name,NIF)
RCLI - -> CLI **: create(id, name, password, e-mail, NIF, adress).
deactivate RCLI
CTRL -> RCLI: validateClientByEmail(email).
activate RCLI
deactivate RCLI
deactivate CTRL
deactivate RCLI
UI - -> c : shows client data and asks for confirmation.
deactivate UI

c -> UI : confirms
activate UI

UI -> CTRL: registerClient()
activate CTRL
CTRL -> RCLI: registerClient(Client)
activate RCLI
RCLI -> RCLI : validateClient(Client)
ref over PLAT,RCLI
AUCKL3-23 RegisterClientAsUser(withRole)
end
RCLI -> RCLI: addClient(Client)
deactivate RCLI

UI - -> c: informs the UnregisterUser of the success of the operation

deactivate CTRL
deactivate UI
@enduml

PlantUML version 1.2020.27beta8(Unknown compile time)
(GPL source distribution)
Java Runtime: Java(TM) SE Runtime Environment
JVM: Java HotSpot(TM) 64-Bit Server VM
Default Encoding: UTF-8
Language: en
Country: US
--></g></svg>