<?xml version="1.0" encoding="UTF-8" standalone="no"?><svg xmlns="http://www.w3.org/2000/svg" xmlns:xlink="http://www.w3.org/1999/xlink" contentScriptType="application/ecmascript" contentStyleType="text/css" height="677px" preserveAspectRatio="none" style="width:1176px;height:677px;" version="1.1" viewBox="0 0 1176 677" width="1176px" zoomAndPan="magnify"><defs><filter height="300%" id="f15el12g5jly1o" width="300%" x="-1" y="-1"><feGaussianBlur result="blurOut" stdDeviation="2.0"/><feColorMatrix in="blurOut" result="blurOut2" type="matrix" values="0 0 0 0 0 0 0 0 0 0 0 0 0 0 0 0 0 0 .4 0"/><feOffset dx="4.0" dy="4.0" in="blurOut2" result="blurOut3"/><feBlend in="SourceGraphic" in2="blurOut3" mode="normal"/></filter></defs><g><rect fill="#FFFFFF" filter="url(#f15el12g5jly1o)" height="476.7266" style="stroke:#A80036;stroke-width:1.0;" width="10" x="53" y="98.2969"/><rect fill="#FFFFFF" filter="url(#f15el12g5jly1o)" height="191.6641" style="stroke:#A80036;stroke-width:1.0;" width="10" x="482" y="119.4297"/><rect fill="#FFFFFF" filter="url(#f15el12g5jly1o)" height="176.5313" style="stroke:#A80036;stroke-width:1.0;" width="10" x="482" y="340.2266"/><rect fill="#FFFFFF" filter="url(#f15el12g5jly1o)" height="29.1328" style="stroke:#A80036;stroke-width:1.0;" width="10" x="482" y="545.8906"/><rect fill="#FFFFFF" filter="url(#f15el12g5jly1o)" height="118.2656" style="stroke:#A80036;stroke-width:1.0;" width="10" x="698" y="148.5625"/><rect fill="#FFFFFF" filter="url(#f15el12g5jly1o)" height="118.2656" style="stroke:#A80036;stroke-width:1.0;" width="10" x="698" y="369.3594"/><rect fill="#FFFFFF" filter="url(#f15el12g5jly1o)" height="30" style="stroke:#A80036;stroke-width:1.0;" width="10" x="886" y="177.6953"/><rect fill="#FFFFFF" filter="url(#f15el12g5jly1o)" height="30" style="stroke:#A80036;stroke-width:1.0;" width="10" x="998.5" y="236.8281"/><rect fill="#FFFFFF" filter="url(#f15el12g5jly1o)" height="30" style="stroke:#A80036;stroke-width:1.0;" width="10" x="998.5" y="398.4922"/><rect fill="#FFFFFF" filter="url(#f15el12g5jly1o)" height="30" style="stroke:#A80036;stroke-width:1.0;" width="10" x="998.5" y="457.625"/><line style="stroke:#A80036;stroke-width:1.0;stroke-dasharray:5.0,5.0;" x1="58" x2="58" y1="88.2969" y2="593.0234"/><line style="stroke:#A80036;stroke-width:1.0;stroke-dasharray:5.0,5.0;" x1="486.5" x2="486.5" y1="88.2969" y2="593.0234"/><line style="stroke:#A80036;stroke-width:1.0;stroke-dasharray:5.0,5.0;" x1="702.5" x2="702.5" y1="88.2969" y2="593.0234"/><line style="stroke:#A80036;stroke-width:1.0;stroke-dasharray:5.0,5.0;" x1="891" x2="891" y1="88.2969" y2="593.0234"/><line style="stroke:#A80036;stroke-width:1.0;stroke-dasharray:5.0,5.0;" x1="1003" x2="1003" y1="88.2969" y2="593.0234"/><line style="stroke:#A80036;stroke-width:1.0;stroke-dasharray:5.0,5.0;" x1="1119" x2="1119" y1="88.2969" y2="593.0234"/><text fill="#000000" font-family="sans-serif" font-size="14" lengthAdjust="spacing" textLength="100" x="5" y="84.9951">Administrator</text><ellipse cx="58" cy="15" fill="#FEFECE" filter="url(#f15el12g5jly1o)" rx="8" ry="8" style="stroke:#A80036;stroke-width:2.0;"/><path d="M58,23 L58,50 M45,31 L71,31 M58,50 L45,65 M58,50 L71,65 " fill="none" filter="url(#f15el12g5jly1o)" style="stroke:#A80036;stroke-width:2.0;"/><text fill="#000000" font-family="sans-serif" font-size="14" lengthAdjust="spacing" textLength="100" x="5" y="605.0186">Administrator</text><ellipse cx="58" cy="618.3203" fill="#FEFECE" filter="url(#f15el12g5jly1o)" rx="8" ry="8" style="stroke:#A80036;stroke-width:2.0;"/><path d="M58,626.3203 L58,653.3203 M45,634.3203 L71,634.3203 M58,653.3203 L45,668.3203 M58,653.3203 L71,668.3203 " fill="none" filter="url(#f15el12g5jly1o)" style="stroke:#A80036;stroke-width:2.0;"/><rect fill="#FEFECE" filter="url(#f15el12g5jly1o)" height="30.2969" style="stroke:#A80036;stroke-width:1.5;" width="161" x="404.5" y="53"/><text fill="#000000" font-family="sans-serif" font-size="14" lengthAdjust="spacing" textLength="147" x="411.5" y="72.9951">:RemovePharmacyUI</text><rect fill="#FEFECE" filter="url(#f15el12g5jly1o)" height="30.2969" style="stroke:#A80036;stroke-width:1.5;" width="161" x="404.5" y="592.0234"/><text fill="#000000" font-family="sans-serif" font-size="14" lengthAdjust="spacing" textLength="147" x="411.5" y="612.0186">:RemovePharmacyUI</text><rect fill="#FEFECE" filter="url(#f15el12g5jly1o)" height="30.2969" style="stroke:#A80036;stroke-width:1.5;" width="221" x="590.5" y="53"/><text fill="#000000" font-family="sans-serif" font-size="14" lengthAdjust="spacing" textLength="207" x="597.5" y="72.9951">:RemovePharmacyController</text><rect fill="#FEFECE" filter="url(#f15el12g5jly1o)" height="30.2969" style="stroke:#A80036;stroke-width:1.5;" width="221" x="590.5" y="592.0234"/><text fill="#000000" font-family="sans-serif" font-size="14" lengthAdjust="spacing" textLength="207" x="597.5" y="612.0186">:RemovePharmacyController</text><rect fill="#FEFECE" filter="url(#f15el12g5jly1o)" height="30.2969" style="stroke:#A80036;stroke-width:1.5;" width="82" x="848" y="53"/><text fill="#000000" font-family="sans-serif" font-size="14" lengthAdjust="spacing" textLength="68" x="855" y="72.9951">:Platform</text><rect fill="#FEFECE" filter="url(#f15el12g5jly1o)" height="30.2969" style="stroke:#A80036;stroke-width:1.5;" width="82" x="848" y="592.0234"/><text fill="#000000" font-family="sans-serif" font-size="14" lengthAdjust="spacing" textLength="68" x="855" y="612.0186">:Platform</text><rect fill="#FEFECE" filter="url(#f15el12g5jly1o)" height="46.5938" style="stroke:#A80036;stroke-width:1.5;" width="115" x="944" y="36.7031"/><text fill="#000000" font-family="sans-serif" font-size="14" lengthAdjust="spacing" textLength="14" x="992.5" y="56.6982">pl</text><text fill="#000000" font-family="sans-serif" font-size="14" lengthAdjust="spacing" textLength="101" x="951" y="72.9951">:PharmacyList</text><rect fill="#FEFECE" filter="url(#f15el12g5jly1o)" height="46.5938" style="stroke:#A80036;stroke-width:1.5;" width="115" x="944" y="592.0234"/><text fill="#000000" font-family="sans-serif" font-size="14" lengthAdjust="spacing" textLength="14" x="992.5" y="612.0186">pl</text><text fill="#000000" font-family="sans-serif" font-size="14" lengthAdjust="spacing" textLength="101" x="951" y="628.3154">:PharmacyList</text><rect fill="#FEFECE" filter="url(#f15el12g5jly1o)" height="46.5938" style="stroke:#A80036;stroke-width:1.5;" width="89" x="1073" y="36.7031"/><text fill="#000000" font-family="sans-serif" font-size="14" lengthAdjust="spacing" textLength="10" x="1110.5" y="56.6982">p</text><text fill="#000000" font-family="sans-serif" font-size="14" lengthAdjust="spacing" textLength="75" x="1080" y="72.9951">:Pharmacy</text><rect fill="#FEFECE" filter="url(#f15el12g5jly1o)" height="46.5938" style="stroke:#A80036;stroke-width:1.5;" width="89" x="1073" y="592.0234"/><text fill="#000000" font-family="sans-serif" font-size="14" lengthAdjust="spacing" textLength="10" x="1110.5" y="612.0186">p</text><text fill="#000000" font-family="sans-serif" font-size="14" lengthAdjust="spacing" textLength="75" x="1080" y="628.3154">:Pharmacy</text><rect fill="#FFFFFF" filter="url(#f15el12g5jly1o)" height="476.7266" style="stroke:#A80036;stroke-width:1.0;" width="10" x="53" y="98.2969"/><rect fill="#FFFFFF" filter="url(#f15el12g5jly1o)" height="191.6641" style="stroke:#A80036;stroke-width:1.0;" width="10" x="482" y="119.4297"/><rect fill="#FFFFFF" filter="url(#f15el12g5jly1o)" height="176.5313" style="stroke:#A80036;stroke-width:1.0;" width="10" x="482" y="340.2266"/><rect fill="#FFFFFF" filter="url(#f15el12g5jly1o)" height="29.1328" style="stroke:#A80036;stroke-width:1.0;" width="10" x="482" y="545.8906"/><rect fill="#FFFFFF" filter="url(#f15el12g5jly1o)" height="118.2656" style="stroke:#A80036;stroke-width:1.0;" width="10" x="698" y="148.5625"/><rect fill="#FFFFFF" filter="url(#f15el12g5jly1o)" height="118.2656" style="stroke:#A80036;stroke-width:1.0;" width="10" x="698" y="369.3594"/><rect fill="#FFFFFF" filter="url(#f15el12g5jly1o)" height="30" style="stroke:#A80036;stroke-width:1.0;" width="10" x="886" y="177.6953"/><rect fill="#FFFFFF" filter="url(#f15el12g5jly1o)" height="30" style="stroke:#A80036;stroke-width:1.0;" width="10" x="998.5" y="236.8281"/><rect fill="#FFFFFF" filter="url(#f15el12g5jly1o)" height="30" style="stroke:#A80036;stroke-width:1.0;" width="10" x="998.5" y="398.4922"/><rect fill="#FFFFFF" filter="url(#f15el12g5jly1o)" height="30" style="stroke:#A80036;stroke-width:1.0;" width="10" x="998.5" y="457.625"/><polygon fill="#A80036" points="470,115.4297,480,119.4297,470,123.4297,474,119.4297" style="stroke:#A80036;stroke-width:1.0;"/><line style="stroke:#A80036;stroke-width:1.0;" x1="63" x2="476" y1="119.4297" y2="119.4297"/><text fill="#000000" font-family="sans-serif" font-size="13" font-weight="bold" lengthAdjust="spacing" textLength="9" x="70" y="114.3638">1</text><text fill="#000000" font-family="sans-serif" font-size="13" lengthAdjust="spacing" textLength="303" x="83" y="114.3638">wants to remove a pharmacy from the system</text><polygon fill="#A80036" points="686,144.5625,696,148.5625,686,152.5625,690,148.5625" style="stroke:#A80036;stroke-width:1.0;"/><line style="stroke:#A80036;stroke-width:1.0;" x1="492" x2="692" y1="148.5625" y2="148.5625"/><text fill="#000000" font-family="sans-serif" font-size="13" font-weight="bold" lengthAdjust="spacing" textLength="9" x="499" y="143.4966">2</text><text fill="#000000" font-family="sans-serif" font-size="13" lengthAdjust="spacing" textLength="118" x="512" y="143.4966">getPharmacyList()</text><polygon fill="#A80036" points="874,173.6953,884,177.6953,874,181.6953,878,177.6953" style="stroke:#A80036;stroke-width:1.0;"/><line style="stroke:#A80036;stroke-width:1.0;" x1="708" x2="880" y1="177.6953" y2="177.6953"/><text fill="#000000" font-family="sans-serif" font-size="13" font-weight="bold" lengthAdjust="spacing" textLength="8" x="715" y="172.6294">3</text><text fill="#000000" font-family="sans-serif" font-size="13" lengthAdjust="spacing" textLength="147" x="727" y="172.6294">pl = getPharmacyList()</text><polygon fill="#A80036" points="986.5,232.8281,996.5,236.8281,986.5,240.8281,990.5,236.8281" style="stroke:#A80036;stroke-width:1.0;"/><line style="stroke:#A80036;stroke-width:1.0;" x1="708" x2="992.5" y1="236.8281" y2="236.8281"/><text fill="#000000" font-family="sans-serif" font-size="13" font-weight="bold" lengthAdjust="spacing" textLength="9" x="715" y="231.7622">4</text><text fill="#000000" font-family="sans-serif" font-size="13" lengthAdjust="spacing" textLength="144" x="728" y="231.7622">p = getPharmacyList()</text><polygon fill="#A80036" points="74,307.0938,64,311.0938,74,315.0938,70,311.0938" style="stroke:#A80036;stroke-width:1.0;"/><line style="stroke:#A80036;stroke-width:1.0;stroke-dasharray:2.0,2.0;" x1="68" x2="486" y1="311.0938" y2="311.0938"/><text fill="#000000" font-family="sans-serif" font-size="13" font-weight="bold" lengthAdjust="spacing" textLength="9" x="80" y="298.4614">5</text><text fill="#000000" font-family="sans-serif" font-size="13" lengthAdjust="spacing" textLength="356" x="93" y="290.895">shows the list of pharmacies already in the system and</text><text fill="#000000" font-family="sans-serif" font-size="13" lengthAdjust="spacing" textLength="324" x="97" y="306.0278">asks to choose the pharmacy he wants to remove</text><polygon fill="#A80036" points="470,336.2266,480,340.2266,470,344.2266,474,340.2266" style="stroke:#A80036;stroke-width:1.0;"/><line style="stroke:#A80036;stroke-width:1.0;" x1="63" x2="476" y1="340.2266" y2="340.2266"/><text fill="#000000" font-family="sans-serif" font-size="13" font-weight="bold" lengthAdjust="spacing" textLength="9" x="70" y="335.1606">6</text><text fill="#000000" font-family="sans-serif" font-size="13" lengthAdjust="spacing" textLength="281" x="83" y="335.1606">chooses the pharmacy he wants to remove</text><polygon fill="#A80036" points="686,365.3594,696,369.3594,686,373.3594,690,369.3594" style="stroke:#A80036;stroke-width:1.0;"/><line style="stroke:#A80036;stroke-width:1.0;" x1="492" x2="692" y1="369.3594" y2="369.3594"/><text fill="#000000" font-family="sans-serif" font-size="13" font-weight="bold" lengthAdjust="spacing" textLength="9" x="499" y="364.2935">7</text><text fill="#000000" font-family="sans-serif" font-size="13" lengthAdjust="spacing" textLength="174" x="512" y="364.2935">getPharmacy(pharmacyID)</text><polygon fill="#A80036" points="986.5,394.4922,996.5,398.4922,986.5,402.4922,990.5,398.4922" style="stroke:#A80036;stroke-width:1.0;"/><line style="stroke:#A80036;stroke-width:1.0;" x1="708" x2="992.5" y1="398.4922" y2="398.4922"/><text fill="#000000" font-family="sans-serif" font-size="13" font-weight="bold" lengthAdjust="spacing" textLength="9" x="715" y="393.4263">8</text><text fill="#000000" font-family="sans-serif" font-size="13" lengthAdjust="spacing" textLength="257" x="728" y="393.4263">pharmacy = getPharmacy(pharmacyID)</text><polygon fill="#A80036" points="986.5,453.625,996.5,457.625,986.5,461.625,990.5,457.625" style="stroke:#A80036;stroke-width:1.0;"/><line style="stroke:#A80036;stroke-width:1.0;" x1="708" x2="992.5" y1="457.625" y2="457.625"/><text fill="#000000" font-family="sans-serif" font-size="13" font-weight="bold" lengthAdjust="spacing" textLength="9" x="715" y="452.5591">9</text><text fill="#000000" font-family="sans-serif" font-size="13" lengthAdjust="spacing" textLength="245" x="728" y="452.5591">removePharmacyFromList(pharmacy)</text><polygon fill="#A80036" points="74,512.7578,64,516.7578,74,520.7578,70,516.7578" style="stroke:#A80036;stroke-width:1.0;"/><line style="stroke:#A80036;stroke-width:1.0;stroke-dasharray:2.0,2.0;" x1="68" x2="486" y1="516.7578" y2="516.7578"/><text fill="#000000" font-family="sans-serif" font-size="13" font-weight="bold" lengthAdjust="spacing" textLength="19" x="80" y="511.6919">10</text><text fill="#000000" font-family="sans-serif" font-size="13" lengthAdjust="spacing" textLength="233" x="103" y="511.6919">removes the pharmacy from the list</text><polygon fill="#A80036" points="470,541.8906,480,545.8906,470,549.8906,474,545.8906" style="stroke:#A80036;stroke-width:1.0;"/><line style="stroke:#A80036;stroke-width:1.0;stroke-dasharray:2.0,2.0;" x1="63" x2="476" y1="545.8906" y2="545.8906"/><text fill="#000000" font-family="sans-serif" font-size="13" font-weight="bold" lengthAdjust="spacing" textLength="18" x="70" y="540.8247">11</text><text fill="#000000" font-family="sans-serif" font-size="13" lengthAdjust="spacing" textLength="56" x="92" y="540.8247">confirms</text><polygon fill="#A80036" points="69,571.0234,59,575.0234,69,579.0234,65,575.0234" style="stroke:#A80036;stroke-width:1.0;"/><line style="stroke:#A80036;stroke-width:1.0;stroke-dasharray:2.0,2.0;" x1="63" x2="486" y1="575.0234" y2="575.0234"/><text fill="#000000" font-family="sans-serif" font-size="13" font-weight="bold" lengthAdjust="spacing" textLength="18" x="75" y="569.9575">12</text><text fill="#000000" font-family="sans-serif" font-size="13" lengthAdjust="spacing" textLength="373" x="97" y="569.9575">informs the Administrator of the success of the operation.</text><!--MD5=[902720e8ff4e0da4e764db64b1f21777]
@startuml
autonumber

actor "Administrator" as ADM
participant ":RemovePharmacyUI" as UI
participant ":RemovePharmacyController" as CTRL
participant ":Platform" as PLAT
participant "pl \n:PharmacyList" as PL
participant "p \n:Pharmacy" as P

activate ADM
ADM -> UI :   wants to remove a pharmacy from the system
activate UI
UI -> CTRL : getPharmacyList()
activate CTRL
CTRL -> PLAT : pl = getPharmacyList()
activate PLAT
deactivate PLAT
CTRL -> PL : p = getPharmacyList()
activate PL
deactivate PL
deactivate CTRL
UI - -> ADM : shows the list of pharmacies already in the system and\n asks to choose the pharmacy he wants to remove
deactivate UI


ADM -> UI :  chooses the pharmacy he wants to remove
activate UI
UI -> CTRL : getPharmacy(pharmacyID)
activate CTRL
CTRL -> PL : pharmacy = getPharmacy(pharmacyID)
activate PL
deactivate PL
CTRL -> PL : removePharmacyFromList(pharmacy)
activate PL
deactivate PL
deactivate CTRL
UI - -> ADM : removes the pharmacy from the list
deactivate UI

ADM - -> UI : confirms
activate UI
UI - -> ADM : informs the Administrator of the success of the operation.
deactivate UI
deactivate ADM
@enduml

PlantUML version 1.2020.27beta8(Unknown compile time)
(GPL source distribution)
Java Runtime: Java(TM) SE Runtime Environment
JVM: Java HotSpot(TM) 64-Bit Server VM
Default Encoding: UTF-8
Language: en
Country: US
--></g></svg>