<?xml version="1.0" encoding="UTF-8" standalone="no"?><svg xmlns="http://www.w3.org/2000/svg" xmlns:xlink="http://www.w3.org/1999/xlink" contentScriptType="application/ecmascript" contentStyleType="text/css" height="789px" preserveAspectRatio="none" style="width:297px;height:789px;" version="1.1" viewBox="0 0 297 789" width="297px" zoomAndPan="magnify"><defs><filter height="300%" id="ffo38d95ucaf" width="300%" x="-1" y="-1"><feGaussianBlur result="blurOut" stdDeviation="2.0"/><feColorMatrix in="blurOut" result="blurOut2" type="matrix" values="0 0 0 0 0 0 0 0 0 0 0 0 0 0 0 0 0 0 .4 0"/><feOffset dx="4.0" dy="4.0" in="blurOut2" result="blurOut3"/><feBlend in="SourceGraphic" in2="blurOut3" mode="normal"/></filter></defs><g><!--MD5=[9681dc6e01e10c6b4fe06895ae94f592]
cluster UI--><polygon fill="#FFFFFF" filter="url(#ffo38d95ucaf)" points="67,6,89,6,96,28.2969,225,28.2969,225,105,67,105,67,6" style="stroke:#000000;stroke-width:1.5;"/><line style="stroke:#000000;stroke-width:1.5;" x1="67" x2="96" y1="28.2969" y2="28.2969"/><text fill="#000000" font-family="sans-serif" font-size="14" font-weight="bold" lengthAdjust="spacing" textLength="16" x="71" y="20.9951">UI</text><!--MD5=[ed1d20ea533a2a0e7df5ba3c35e56ced]
cluster Controllers--><polygon fill="#FFFFFF" filter="url(#ffo38d95ucaf)" points="44,138,140,138,147,160.2969,248,160.2969,248,263,44,263,44,138" style="stroke:#000000;stroke-width:1.5;"/><line style="stroke:#000000;stroke-width:1.5;" x1="44" x2="147" y1="160.2969" y2="160.2969"/><text fill="#000000" font-family="sans-serif" font-size="14" font-weight="bold" lengthAdjust="spacing" textLength="90" x="48" y="152.9951">Controllers</text><!--MD5=[121a8bf1197281ab89ed693fab589f94]
cluster Domain--><polygon fill="#FFFFFF" filter="url(#ffo38d95ucaf)" points="16,296,83,296,90,318.2969,280,318.2969,280,782,16,782,16,296" style="stroke:#000000;stroke-width:1.5;"/><line style="stroke:#000000;stroke-width:1.5;" x1="16" x2="90" y1="318.2969" y2="318.2969"/><text fill="#000000" font-family="sans-serif" font-size="14" font-weight="bold" lengthAdjust="spacing" textLength="61" x="20" y="310.9951">Domain</text><!--MD5=[afca977313436463ee0602965f696200]
class AddPharmacyUI--><rect codeLine="16" fill="#FEFECE" filter="url(#ffo38d95ucaf)" height="48" id="AddPharmacyUI" style="stroke:#A80036;stroke-width:1.5;" width="125" x="83.5" y="41"/><ellipse cx="98.5" cy="57" fill="#ADD1B2" rx="11" ry="11" style="stroke:#A80036;stroke-width:1.0;"/><path d="M100.8438,52.6719 C99.9063,52.2344 99.3125,52.0938 98.4375,52.0938 C95.8125,52.0938 93.8125,54.1719 93.8125,56.8906 L93.8125,58.0156 C93.8125,60.5938 95.9219,62.4844 98.8125,62.4844 C100.0313,62.4844 101.1875,62.1875 101.9375,61.6406 C102.5156,61.2344 102.8438,60.7813 102.8438,60.3906 C102.8438,59.9375 102.4531,59.5469 101.9844,59.5469 C101.7656,59.5469 101.5625,59.625 101.375,59.8125 C100.9219,60.2969 100.9219,60.2969 100.7344,60.3906 C100.3125,60.6563 99.625,60.7813 98.8594,60.7813 C96.8125,60.7813 95.5156,59.6875 95.5156,57.9844 L95.5156,56.8906 C95.5156,55.1094 96.7656,53.7969 98.5,53.7969 C99.0781,53.7969 99.6875,53.9531 100.1563,54.2031 C100.6406,54.4844 100.8125,54.7031 100.9063,55.1094 C100.9688,55.5156 101,55.6406 101.1406,55.7656 C101.2813,55.9063 101.5156,56.0156 101.7344,56.0156 C102,56.0156 102.2656,55.875 102.4375,55.6563 C102.5469,55.5 102.5781,55.3125 102.5781,54.8906 L102.5781,53.4688 C102.5781,53.0313 102.5625,52.9063 102.4688,52.75 C102.3125,52.4844 102.0313,52.3438 101.7344,52.3438 C101.4375,52.3438 101.2344,52.4375 101.0156,52.75 L100.8438,52.6719 Z " fill="#000000"/><text fill="#000000" font-family="sans-serif" font-size="12" lengthAdjust="spacing" textLength="93" x="112.5" y="61.1543">AddPharmacyUI</text><line style="stroke:#A80036;stroke-width:1.5;" x1="84.5" x2="207.5" y1="73" y2="73"/><line style="stroke:#A80036;stroke-width:1.5;" x1="84.5" x2="207.5" y1="81" y2="81"/><!--MD5=[e0425a06abd9ecf8db7e60ffeb8d0d57]
class AddPharmacyController--><rect codeLine="19" fill="#FEFECE" filter="url(#ffo38d95ucaf)" height="73.6094" id="AddPharmacyController" style="stroke:#A80036;stroke-width:1.5;" width="172" x="60" y="173"/><ellipse cx="75" cy="189" fill="#ADD1B2" rx="11" ry="11" style="stroke:#A80036;stroke-width:1.0;"/><path d="M77.3438,184.6719 C76.4063,184.2344 75.8125,184.0938 74.9375,184.0938 C72.3125,184.0938 70.3125,186.1719 70.3125,188.8906 L70.3125,190.0156 C70.3125,192.5938 72.4219,194.4844 75.3125,194.4844 C76.5313,194.4844 77.6875,194.1875 78.4375,193.6406 C79.0156,193.2344 79.3438,192.7813 79.3438,192.3906 C79.3438,191.9375 78.9531,191.5469 78.4844,191.5469 C78.2656,191.5469 78.0625,191.625 77.875,191.8125 C77.4219,192.2969 77.4219,192.2969 77.2344,192.3906 C76.8125,192.6563 76.125,192.7813 75.3594,192.7813 C73.3125,192.7813 72.0156,191.6875 72.0156,189.9844 L72.0156,188.8906 C72.0156,187.1094 73.2656,185.7969 75,185.7969 C75.5781,185.7969 76.1875,185.9531 76.6563,186.2031 C77.1406,186.4844 77.3125,186.7031 77.4063,187.1094 C77.4688,187.5156 77.5,187.6406 77.6406,187.7656 C77.7813,187.9063 78.0156,188.0156 78.2344,188.0156 C78.5,188.0156 78.7656,187.875 78.9375,187.6563 C79.0469,187.5 79.0781,187.3125 79.0781,186.8906 L79.0781,185.4688 C79.0781,185.0313 79.0625,184.9063 78.9688,184.75 C78.8125,184.4844 78.5313,184.3438 78.2344,184.3438 C77.9375,184.3438 77.7344,184.4375 77.5156,184.75 L77.3438,184.6719 Z " fill="#000000"/><text fill="#000000" font-family="sans-serif" font-size="12" lengthAdjust="spacing" textLength="140" x="89" y="193.1543">AddPharmacyController</text><line style="stroke:#A80036;stroke-width:1.5;" x1="61" x2="231" y1="205" y2="205"/><line style="stroke:#A80036;stroke-width:1.5;" x1="61" x2="231" y1="213" y2="213"/><text fill="#000000" font-family="sans-serif" font-size="11" lengthAdjust="spacing" textLength="110" x="66" y="227.2104">+getPharmacyList()</text><text fill="#000000" font-family="sans-serif" font-size="11" lengthAdjust="spacing" textLength="159" x="66" y="240.0151">+getPharmacy(pharmacyID)</text><!--MD5=[99b8db98afdc2c8404e39242ef4c1e65]
class Platform--><rect codeLine="24" fill="#FEFECE" filter="url(#ffo38d95ucaf)" height="60.8047" id="Platform" style="stroke:#A80036;stroke-width:1.5;" width="122" x="44" y="331"/><ellipse cx="77.9" cy="347" fill="#ADD1B2" rx="11" ry="11" style="stroke:#A80036;stroke-width:1.0;"/><path d="M80.2438,342.6719 C79.3063,342.2344 78.7125,342.0938 77.8375,342.0938 C75.2125,342.0938 73.2125,344.1719 73.2125,346.8906 L73.2125,348.0156 C73.2125,350.5938 75.3219,352.4844 78.2125,352.4844 C79.4313,352.4844 80.5875,352.1875 81.3375,351.6406 C81.9156,351.2344 82.2438,350.7813 82.2438,350.3906 C82.2438,349.9375 81.8531,349.5469 81.3844,349.5469 C81.1656,349.5469 80.9625,349.625 80.775,349.8125 C80.3219,350.2969 80.3219,350.2969 80.1344,350.3906 C79.7125,350.6563 79.025,350.7813 78.2594,350.7813 C76.2125,350.7813 74.9156,349.6875 74.9156,347.9844 L74.9156,346.8906 C74.9156,345.1094 76.1656,343.7969 77.9,343.7969 C78.4781,343.7969 79.0875,343.9531 79.5563,344.2031 C80.0406,344.4844 80.2125,344.7031 80.3063,345.1094 C80.3688,345.5156 80.4,345.6406 80.5406,345.7656 C80.6813,345.9063 80.9156,346.0156 81.1344,346.0156 C81.4,346.0156 81.6656,345.875 81.8375,345.6563 C81.9469,345.5 81.9781,345.3125 81.9781,344.8906 L81.9781,343.4688 C81.9781,343.0313 81.9625,342.9063 81.8688,342.75 C81.7125,342.4844 81.4313,342.3438 81.1344,342.3438 C80.8375,342.3438 80.6344,342.4375 80.4156,342.75 L80.2438,342.6719 Z " fill="#000000"/><text fill="#000000" font-family="sans-serif" font-size="12" lengthAdjust="spacing" textLength="48" x="96.1" y="351.1543">Platform</text><line style="stroke:#A80036;stroke-width:1.5;" x1="45" x2="165" y1="363" y2="363"/><line style="stroke:#A80036;stroke-width:1.5;" x1="45" x2="165" y1="371" y2="371"/><text fill="#000000" font-family="sans-serif" font-size="11" lengthAdjust="spacing" textLength="110" x="50" y="385.2104">+getPharmacyList()</text><!--MD5=[8050ef462d77cf220fd706493bc05cc9]
class PharmacyList--><rect codeLine="28" fill="#FEFECE" filter="url(#ffo38d95ucaf)" height="86.4141" id="PharmacyList" style="stroke:#A80036;stroke-width:1.5;" width="232" x="32" y="453"/><ellipse cx="105.25" cy="469" fill="#ADD1B2" rx="11" ry="11" style="stroke:#A80036;stroke-width:1.0;"/><path d="M107.5938,464.6719 C106.6563,464.2344 106.0625,464.0938 105.1875,464.0938 C102.5625,464.0938 100.5625,466.1719 100.5625,468.8906 L100.5625,470.0156 C100.5625,472.5938 102.6719,474.4844 105.5625,474.4844 C106.7813,474.4844 107.9375,474.1875 108.6875,473.6406 C109.2656,473.2344 109.5938,472.7813 109.5938,472.3906 C109.5938,471.9375 109.2031,471.5469 108.7344,471.5469 C108.5156,471.5469 108.3125,471.625 108.125,471.8125 C107.6719,472.2969 107.6719,472.2969 107.4844,472.3906 C107.0625,472.6563 106.375,472.7813 105.6094,472.7813 C103.5625,472.7813 102.2656,471.6875 102.2656,469.9844 L102.2656,468.8906 C102.2656,467.1094 103.5156,465.7969 105.25,465.7969 C105.8281,465.7969 106.4375,465.9531 106.9063,466.2031 C107.3906,466.4844 107.5625,466.7031 107.6563,467.1094 C107.7188,467.5156 107.75,467.6406 107.8906,467.7656 C108.0313,467.9063 108.2656,468.0156 108.4844,468.0156 C108.75,468.0156 109.0156,467.875 109.1875,467.6563 C109.2969,467.5 109.3281,467.3125 109.3281,466.8906 L109.3281,465.4688 C109.3281,465.0313 109.3125,464.9063 109.2188,464.75 C109.0625,464.4844 108.7813,464.3438 108.4844,464.3438 C108.1875,464.3438 107.9844,464.4375 107.7656,464.75 L107.5938,464.6719 Z " fill="#000000"/><text fill="#000000" font-family="sans-serif" font-size="12" lengthAdjust="spacing" textLength="77" x="125.75" y="473.1543">PharmacyList</text><line style="stroke:#A80036;stroke-width:1.5;" x1="33" x2="263" y1="485" y2="485"/><line style="stroke:#A80036;stroke-width:1.5;" x1="33" x2="263" y1="493" y2="493"/><text fill="#000000" font-family="sans-serif" font-size="11" lengthAdjust="spacing" textLength="110" x="38" y="507.2104">+getPharmacyList()</text><text fill="#000000" font-family="sans-serif" font-size="11" lengthAdjust="spacing" textLength="159" x="38" y="520.0151">+getPharmacy(pharmacyID)</text><text fill="#000000" font-family="sans-serif" font-size="11" lengthAdjust="spacing" textLength="220" x="38" y="532.8198">+removePharmacyFromList(pharmacy)</text><!--MD5=[7f2a9fafcebe4f099f71398fd3e2ed00]
class Pharmacy--><rect codeLine="34" fill="#FEFECE" filter="url(#ffo38d95ucaf)" height="150.4375" id="Pharmacy" style="stroke:#A80036;stroke-width:1.5;" width="152" x="72" y="616"/><ellipse cx="115.35" cy="632" fill="#ADD1B2" rx="11" ry="11" style="stroke:#A80036;stroke-width:1.0;"/><path d="M117.6938,627.6719 C116.7563,627.2344 116.1625,627.0938 115.2875,627.0938 C112.6625,627.0938 110.6625,629.1719 110.6625,631.8906 L110.6625,633.0156 C110.6625,635.5938 112.7719,637.4844 115.6625,637.4844 C116.8813,637.4844 118.0375,637.1875 118.7875,636.6406 C119.3656,636.2344 119.6938,635.7813 119.6938,635.3906 C119.6938,634.9375 119.3031,634.5469 118.8344,634.5469 C118.6156,634.5469 118.4125,634.625 118.225,634.8125 C117.7719,635.2969 117.7719,635.2969 117.5844,635.3906 C117.1625,635.6563 116.475,635.7813 115.7094,635.7813 C113.6625,635.7813 112.3656,634.6875 112.3656,632.9844 L112.3656,631.8906 C112.3656,630.1094 113.6156,628.7969 115.35,628.7969 C115.9281,628.7969 116.5375,628.9531 117.0063,629.2031 C117.4906,629.4844 117.6625,629.7031 117.7563,630.1094 C117.8188,630.5156 117.85,630.6406 117.9906,630.7656 C118.1313,630.9063 118.3656,631.0156 118.5844,631.0156 C118.85,631.0156 119.1156,630.875 119.2875,630.6563 C119.3969,630.5 119.4281,630.3125 119.4281,629.8906 L119.4281,628.4688 C119.4281,628.0313 119.4125,627.9063 119.3188,627.75 C119.1625,627.4844 118.8813,627.3438 118.5844,627.3438 C118.2875,627.3438 118.0844,627.4375 117.8656,627.75 L117.6938,627.6719 Z " fill="#000000"/><text fill="#000000" font-family="sans-serif" font-size="12" lengthAdjust="spacing" textLength="57" x="135.65" y="636.1543">Pharmacy</text><line style="stroke:#A80036;stroke-width:1.5;" x1="73" x2="223" y1="648" y2="648"/><text fill="#000000" font-family="sans-serif" font-size="11" lengthAdjust="spacing" textLength="51" x="78" y="662.2104">-String id</text><text fill="#000000" font-family="sans-serif" font-size="11" lengthAdjust="spacing" textLength="107" x="78" y="675.0151">-String designation</text><text fill="#000000" font-family="sans-serif" font-size="11" lengthAdjust="spacing" textLength="94" x="78" y="687.8198">-String password</text><text fill="#000000" font-family="sans-serif" font-size="11" lengthAdjust="spacing" textLength="73" x="78" y="700.6245">-String email</text><text fill="#000000" font-family="sans-serif" font-size="11" lengthAdjust="spacing" textLength="92" x="78" y="713.4292">-Adress address</text><text fill="#000000" font-family="sans-serif" font-size="11" lengthAdjust="spacing" textLength="89" x="78" y="726.2339">-ParkingLot park</text><text fill="#000000" font-family="sans-serif" font-size="11" lengthAdjust="spacing" textLength="78" x="78" y="739.0386">-ProductList pl</text><text fill="#000000" font-family="sans-serif" font-size="11" lengthAdjust="spacing" textLength="140" x="78" y="751.8433">-AvailableScooterList asl</text><line style="stroke:#A80036;stroke-width:1.5;" x1="73" x2="223" y1="758.4375" y2="758.4375"/><!--MD5=[d5b9e85e5e0c2d9da338957472c367a0]
link AddPharmacyUI to AddPharmacyController--><path codeLine="45" d="M146,89.294 C146,110.514 146,142.337 146,167.839 " fill="none" id="AddPharmacyUI-to-AddPharmacyController" style="stroke:#A80036;stroke-width:1.0;stroke-dasharray:7.0,7.0;"/><polygon fill="#A80036" points="146,172.85,150,163.85,146,167.85,142,163.85,146,172.85" style="stroke:#A80036;stroke-width:1.0;"/><!--MD5=[03cbc6543ef85e2ac1c7e3ff03c9fa1a]
link AddPharmacyController to Platform--><path codeLine="47" d="M136.075,247.19 C129.526,271.07 120.994,302.181 114.527,325.761 " fill="none" id="AddPharmacyController-to-Platform" style="stroke:#A80036;stroke-width:1.0;stroke-dasharray:7.0,7.0;"/><polygon fill="#A80036" points="113.18,330.673,119.4188,323.0521,114.503,325.8512,111.7039,320.9354,113.18,330.673" style="stroke:#A80036;stroke-width:1.0;"/><!--MD5=[476b9dd07d372989599c0f4be4f874a7]
link AddPharmacyController to PharmacyList--><path codeLine="48" d="M168.166,247.305 C174.592,259.751 180.748,274.063 184,288 C194.503,333.013 191.734,346.429 184,392 C180.813,410.778 174.576,430.694 168.177,447.958 " fill="none" id="AddPharmacyController-to-PharmacyList" style="stroke:#A80036;stroke-width:1.0;stroke-dasharray:7.0,7.0;"/><polygon fill="#A80036" points="166.37,452.754,173.2865,445.7424,168.133,448.0751,165.8002,442.9216,166.37,452.754" style="stroke:#A80036;stroke-width:1.0;"/><!--MD5=[2bc5a413d94b08902b9f3d0151eb30f1]
link Platform to PharmacyList--><path codeLine="50" d="M114.65,392.236 C119.946,408.555 126.638,429.174 132.634,447.652 " fill="none" id="Platform-to-PharmacyList" style="stroke:#A80036;stroke-width:1.0;stroke-dasharray:7.0,7.0;"/><polygon fill="#A80036" points="134.305,452.802,135.3325,443.0069,132.7621,448.046,127.7229,445.4756,134.305,452.802" style="stroke:#A80036;stroke-width:1.0;"/><!--MD5=[dcb9e7f24fda9389b72d4bf35ba5a068]
link PharmacyList to Pharmacy--><path codeLine="52" d="M148,539.355 C148,561.769 148,589.946 148,615.849 " fill="none" id="PharmacyList-Pharmacy" style="stroke:#A80036;stroke-width:1.0;"/><text fill="#000000" font-family="sans-serif" font-size="13" lengthAdjust="spacing" textLength="33" x="149" y="582.0669">has&gt;</text><text fill="#000000" font-family="sans-serif" font-size="13" lengthAdjust="spacing" textLength="8" x="139.3625" y="559.5045">1</text><text fill="#000000" font-family="sans-serif" font-size="13" lengthAdjust="spacing" textLength="23" x="123.9039" y="605.0237">1..*</text><!--MD5=[194c49906eae2edb2d99b2e1dcf67670]
@startuml
skinparam classAttributeIconSize 0

package UI <<Folder>> {
  class AddPharmacyUI
}

package Controllers <<Folder>> {
  class AddPharmacyController
}

package Domain <<Folder>> {
class Platform
class PharmacyList
class Pharmacy
}
class AddPharmacyUI {
}

class AddPharmacyController {
  +getPharmacyList()
  +getPharmacy(pharmacyID)
}

class Platform {
  +getPharmacyList()
}

class PharmacyList {
  +getPharmacyList()
  +getPharmacy(pharmacyID)
  +removePharmacyFromList(pharmacy)
}

class Pharmacy{
-String id
-String designation
-String password
-String email
-Adress address
-ParkingLot park
-ProductList pl
-AvailableScooterList asl
}

AddPharmacyUI ..> AddPharmacyController

AddPharmacyController ..> Platform
AddPharmacyController ..> PharmacyList

Platform ..> PharmacyList

PharmacyList"1" - - "1..*" Pharmacy : has>
@enduml

PlantUML version 1.2020.27beta8(Unknown compile time)
(GPL source distribution)
Java Runtime: Java(TM) SE Runtime Environment
JVM: Java HotSpot(TM) 64-Bit Server VM
Default Encoding: UTF-8
Language: en
Country: US
--></g></svg>