<?xml version="1.0" encoding="UTF-8" standalone="no"?><svg xmlns="http://www.w3.org/2000/svg" xmlns:xlink="http://www.w3.org/1999/xlink" contentScriptType="application/ecmascript" contentStyleType="text/css" height="382px" preserveAspectRatio="none" style="width:526px;height:382px;" version="1.1" viewBox="0 0 526 382" width="526px" zoomAndPan="magnify"><defs><filter height="300%" id="fm8e8w3iq26e8" width="300%" x="-1" y="-1"><feGaussianBlur result="blurOut" stdDeviation="2.0"/><feColorMatrix in="blurOut" result="blurOut2" type="matrix" values="0 0 0 0 0 0 0 0 0 0 0 0 0 0 0 0 0 0 .4 0"/><feOffset dx="4.0" dy="4.0" in="blurOut2" result="blurOut3"/><feBlend in="SourceGraphic" in2="blurOut3" mode="normal"/></filter></defs><g><rect fill="#FFFFFF" filter="url(#fm8e8w3iq26e8)" height="181.9297" style="stroke:#A80036;stroke-width:1.0;" width="10" x="53" y="98.2969"/><rect fill="#FFFFFF" filter="url(#fm8e8w3iq26e8)" height="44.2656" style="stroke:#A80036;stroke-width:1.0;" width="10" x="473" y="119.4297"/><rect fill="#FFFFFF" filter="url(#fm8e8w3iq26e8)" height="29.1328" style="stroke:#A80036;stroke-width:1.0;" width="10" x="473" y="192.8281"/><rect fill="#FFFFFF" filter="url(#fm8e8w3iq26e8)" height="29.1328" style="stroke:#A80036;stroke-width:1.0;" width="10" x="473" y="251.0938"/><line style="stroke:#A80036;stroke-width:1.0;stroke-dasharray:5.0,5.0;" x1="58" x2="58" y1="88.2969" y2="298.2266"/><line style="stroke:#A80036;stroke-width:1.0;stroke-dasharray:5.0,5.0;" x1="477.5" x2="477.5" y1="88.2969" y2="298.2266"/><text fill="#000000" font-family="sans-serif" font-size="14" lengthAdjust="spacing" textLength="100" x="5" y="84.9951">Administrator</text><ellipse cx="58" cy="15" fill="#FEFECE" filter="url(#fm8e8w3iq26e8)" rx="8" ry="8" style="stroke:#A80036;stroke-width:2.0;"/><path d="M58,23 L58,50 M45,31 L71,31 M58,50 L45,65 M58,50 L71,65 " fill="none" filter="url(#fm8e8w3iq26e8)" style="stroke:#A80036;stroke-width:2.0;"/><text fill="#000000" font-family="sans-serif" font-size="14" lengthAdjust="spacing" textLength="100" x="5" y="310.2217">Administrator</text><ellipse cx="58" cy="323.5234" fill="#FEFECE" filter="url(#fm8e8w3iq26e8)" rx="8" ry="8" style="stroke:#A80036;stroke-width:2.0;"/><path d="M58,331.5234 L58,358.5234 M45,339.5234 L71,339.5234 M58,358.5234 L45,373.5234 M58,358.5234 L71,373.5234 " fill="none" filter="url(#fm8e8w3iq26e8)" style="stroke:#A80036;stroke-width:2.0;"/><rect fill="#FEFECE" filter="url(#fm8e8w3iq26e8)" height="30.2969" style="stroke:#A80036;stroke-width:1.5;" width="73" x="439.5" y="53"/><text fill="#000000" font-family="sans-serif" font-size="14" lengthAdjust="spacing" textLength="59" x="446.5" y="72.9951">:System</text><rect fill="#FEFECE" filter="url(#fm8e8w3iq26e8)" height="30.2969" style="stroke:#A80036;stroke-width:1.5;" width="73" x="439.5" y="297.2266"/><text fill="#000000" font-family="sans-serif" font-size="14" lengthAdjust="spacing" textLength="59" x="446.5" y="317.2217">:System</text><rect fill="#FFFFFF" filter="url(#fm8e8w3iq26e8)" height="181.9297" style="stroke:#A80036;stroke-width:1.0;" width="10" x="53" y="98.2969"/><rect fill="#FFFFFF" filter="url(#fm8e8w3iq26e8)" height="44.2656" style="stroke:#A80036;stroke-width:1.0;" width="10" x="473" y="119.4297"/><rect fill="#FFFFFF" filter="url(#fm8e8w3iq26e8)" height="29.1328" style="stroke:#A80036;stroke-width:1.0;" width="10" x="473" y="192.8281"/><rect fill="#FFFFFF" filter="url(#fm8e8w3iq26e8)" height="29.1328" style="stroke:#A80036;stroke-width:1.0;" width="10" x="473" y="251.0938"/><polygon fill="#A80036" points="461,115.4297,471,119.4297,461,123.4297,465,119.4297" style="stroke:#A80036;stroke-width:1.0;"/><line style="stroke:#A80036;stroke-width:1.0;" x1="63" x2="467" y1="119.4297" y2="119.4297"/><text fill="#000000" font-family="sans-serif" font-size="13" font-weight="bold" lengthAdjust="spacing" textLength="9" x="70" y="114.3638">1</text><text fill="#000000" font-family="sans-serif" font-size="13" lengthAdjust="spacing" textLength="303" x="83" y="114.3638">wants to remove a pharmacy from the system</text><polygon fill="#A80036" points="74,159.6953,64,163.6953,74,167.6953,70,163.6953" style="stroke:#A80036;stroke-width:1.0;"/><line style="stroke:#A80036;stroke-width:1.0;stroke-dasharray:2.0,2.0;" x1="68" x2="477" y1="163.6953" y2="163.6953"/><text fill="#000000" font-family="sans-serif" font-size="13" font-weight="bold" lengthAdjust="spacing" textLength="9" x="80" y="151.063">2</text><text fill="#000000" font-family="sans-serif" font-size="13" lengthAdjust="spacing" textLength="356" x="93" y="143.4966">shows the list of pharmacies already in the system and</text><text fill="#000000" font-family="sans-serif" font-size="13" lengthAdjust="spacing" textLength="324" x="97" y="158.6294">asks to choose the pharmacy he wants to remove</text><polygon fill="#A80036" points="461,188.8281,471,192.8281,461,196.8281,465,192.8281" style="stroke:#A80036;stroke-width:1.0;"/><line style="stroke:#A80036;stroke-width:1.0;" x1="63" x2="467" y1="192.8281" y2="192.8281"/><text fill="#000000" font-family="sans-serif" font-size="13" font-weight="bold" lengthAdjust="spacing" textLength="8" x="70" y="187.7622">3</text><text fill="#000000" font-family="sans-serif" font-size="13" lengthAdjust="spacing" textLength="281" x="82" y="187.7622">chooses the pharmacy he wants to remove</text><polygon fill="#A80036" points="74,217.9609,64,221.9609,74,225.9609,70,221.9609" style="stroke:#A80036;stroke-width:1.0;"/><line style="stroke:#A80036;stroke-width:1.0;stroke-dasharray:2.0,2.0;" x1="68" x2="477" y1="221.9609" y2="221.9609"/><text fill="#000000" font-family="sans-serif" font-size="13" font-weight="bold" lengthAdjust="spacing" textLength="9" x="80" y="216.895">4</text><text fill="#000000" font-family="sans-serif" font-size="13" lengthAdjust="spacing" textLength="233" x="93" y="216.895">removes the pharmacy from the list</text><polygon fill="#A80036" points="461,247.0938,471,251.0938,461,255.0938,465,251.0938" style="stroke:#A80036;stroke-width:1.0;"/><line style="stroke:#A80036;stroke-width:1.0;" x1="63" x2="467" y1="251.0938" y2="251.0938"/><text fill="#000000" font-family="sans-serif" font-size="13" font-weight="bold" lengthAdjust="spacing" textLength="9" x="70" y="246.0278">5</text><text fill="#000000" font-family="sans-serif" font-size="13" lengthAdjust="spacing" textLength="60" x="83" y="246.0278">confirms.</text><polygon fill="#A80036" points="69,276.2266,59,280.2266,69,284.2266,65,280.2266" style="stroke:#A80036;stroke-width:1.0;"/><line style="stroke:#A80036;stroke-width:1.0;stroke-dasharray:2.0,2.0;" x1="63" x2="477" y1="280.2266" y2="280.2266"/><text fill="#000000" font-family="sans-serif" font-size="13" font-weight="bold" lengthAdjust="spacing" textLength="9" x="75" y="275.1606">6</text><text fill="#000000" font-family="sans-serif" font-size="13" lengthAdjust="spacing" textLength="373" x="88" y="275.1606">informs the Administrator of the success of the operation.</text><!--MD5=[e55d398237e0464c7cd07aa11f401c63]
@startuml
autonumber

actor "Administrator" as A
participant ":System" as SIST

activate A
A -> SIST : wants to remove a pharmacy from the system
activate SIST
SIST - -> A : shows the list of pharmacies already in the system and\n asks to choose the pharmacy he wants to remove
deactivate SIST

A -> SIST : chooses the pharmacy he wants to remove
activate SIST
SIST - -> A : removes the pharmacy from the list
deactivate SIST

A -> SIST : confirms.
activate SIST
    SIST - -> A : informs the Administrator of the success of the operation.
deactivate SIST
deactivate A
@enduml

PlantUML version 1.2020.27beta8(Unknown compile time)
(GPL source distribution)
Java Runtime: Java(TM) SE Runtime Environment
JVM: Java HotSpot(TM) 64-Bit Server VM
Default Encoding: UTF-8
Language: en
Country: US
--></g></svg>