<?xml version="1.0" encoding="UTF-8" standalone="no"?><svg xmlns="http://www.w3.org/2000/svg" xmlns:xlink="http://www.w3.org/1999/xlink" contentScriptType="application/ecmascript" contentStyleType="text/css" height="163px" preserveAspectRatio="none" style="width:592px;height:163px;" version="1.1" viewBox="0 0 592 163" width="592px" zoomAndPan="magnify"><defs><filter height="300%" id="fytyh1du003bg" width="300%" x="-1" y="-1"><feGaussianBlur result="blurOut" stdDeviation="2.0"/><feColorMatrix in="blurOut" result="blurOut2" type="matrix" values="0 0 0 0 0 0 0 0 0 0 0 0 0 0 0 0 0 0 .4 0"/><feOffset dx="4.0" dy="4.0" in="blurOut2" result="blurOut3"/><feBlend in="SourceGraphic" in2="blurOut3" mode="normal"/></filter></defs><g><!--MD5=[99b8db98afdc2c8404e39242ef4c1e65]
class Platform--><rect codeLine="6" fill="#FEFECE" filter="url(#fytyh1du003bg)" height="40" id="Platform" style="stroke:#A80036;stroke-width:1.5;" width="80" x="7" y="58"/><ellipse cx="22" cy="74" fill="#ADD1B2" rx="11" ry="11" style="stroke:#A80036;stroke-width:1.0;"/><path d="M24.3438,69.6719 C23.4063,69.2344 22.8125,69.0938 21.9375,69.0938 C19.3125,69.0938 17.3125,71.1719 17.3125,73.8906 L17.3125,75.0156 C17.3125,77.5938 19.4219,79.4844 22.3125,79.4844 C23.5313,79.4844 24.6875,79.1875 25.4375,78.6406 C26.0156,78.2344 26.3438,77.7813 26.3438,77.3906 C26.3438,76.9375 25.9531,76.5469 25.4844,76.5469 C25.2656,76.5469 25.0625,76.625 24.875,76.8125 C24.4219,77.2969 24.4219,77.2969 24.2344,77.3906 C23.8125,77.6563 23.125,77.7813 22.3594,77.7813 C20.3125,77.7813 19.0156,76.6875 19.0156,74.9844 L19.0156,73.8906 C19.0156,72.1094 20.2656,70.7969 22,70.7969 C22.5781,70.7969 23.1875,70.9531 23.6563,71.2031 C24.1406,71.4844 24.3125,71.7031 24.4063,72.1094 C24.4688,72.5156 24.5,72.6406 24.6406,72.7656 C24.7813,72.9063 25.0156,73.0156 25.2344,73.0156 C25.5,73.0156 25.7656,72.875 25.9375,72.6563 C26.0469,72.5 26.0781,72.3125 26.0781,71.8906 L26.0781,70.4688 C26.0781,70.0313 26.0625,69.9063 25.9688,69.75 C25.8125,69.4844 25.5313,69.3438 25.2344,69.3438 C24.9375,69.3438 24.7344,69.4375 24.5156,69.75 L24.3438,69.6719 Z " fill="#000000"/><text fill="#000000" font-family="sans-serif" font-size="12" lengthAdjust="spacing" textLength="48" x="36" y="78.1543">Platform</text><line style="stroke:#A80036;stroke-width:1.5;" x1="8" x2="86" y1="90" y2="90"/><!--MD5=[b35291ba1c8cd17b5117d9f7197fc21c]
class Adress--><rect codeLine="10" fill="#FEFECE" filter="url(#fytyh1du003bg)" height="116.8281" id="Adress" style="stroke:#A80036;stroke-width:1.5;" width="143" x="435" y="19.5"/><ellipse cx="480.75" cy="35.5" fill="#ADD1B2" rx="11" ry="11" style="stroke:#A80036;stroke-width:1.0;"/><path d="M483.0938,31.1719 C482.1563,30.7344 481.5625,30.5938 480.6875,30.5938 C478.0625,30.5938 476.0625,32.6719 476.0625,35.3906 L476.0625,36.5156 C476.0625,39.0938 478.1719,40.9844 481.0625,40.9844 C482.2813,40.9844 483.4375,40.6875 484.1875,40.1406 C484.7656,39.7344 485.0938,39.2813 485.0938,38.8906 C485.0938,38.4375 484.7031,38.0469 484.2344,38.0469 C484.0156,38.0469 483.8125,38.125 483.625,38.3125 C483.1719,38.7969 483.1719,38.7969 482.9844,38.8906 C482.5625,39.1563 481.875,39.2813 481.1094,39.2813 C479.0625,39.2813 477.7656,38.1875 477.7656,36.4844 L477.7656,35.3906 C477.7656,33.6094 479.0156,32.2969 480.75,32.2969 C481.3281,32.2969 481.9375,32.4531 482.4063,32.7031 C482.8906,32.9844 483.0625,33.2031 483.1563,33.6094 C483.2188,34.0156 483.25,34.1406 483.3906,34.2656 C483.5313,34.4063 483.7656,34.5156 483.9844,34.5156 C484.25,34.5156 484.5156,34.375 484.6875,34.1563 C484.7969,34 484.8281,33.8125 484.8281,33.3906 L484.8281,31.9688 C484.8281,31.5313 484.8125,31.4063 484.7188,31.25 C484.5625,30.9844 484.2813,30.8438 483.9844,30.8438 C483.6875,30.8438 483.4844,30.9375 483.2656,31.25 L483.0938,31.1719 Z " fill="#000000"/><text fill="#000000" font-family="sans-serif" font-size="12" lengthAdjust="spacing" textLength="43" x="501.25" y="39.6543">Adress</text><line style="stroke:#A80036;stroke-width:1.5;" x1="436" x2="577" y1="51.5" y2="51.5"/><text fill="#000000" font-family="sans-serif" font-size="11" lengthAdjust="spacing" textLength="75" x="441" y="65.7104">-String street</text><text fill="#000000" font-family="sans-serif" font-size="11" lengthAdjust="spacing" textLength="92" x="441" y="78.5151">-int doorNumber</text><text fill="#000000" font-family="sans-serif" font-size="11" lengthAdjust="spacing" textLength="105" x="441" y="91.3198">-String postalCode</text><text fill="#000000" font-family="sans-serif" font-size="11" lengthAdjust="spacing" textLength="81" x="441" y="104.1245">-String locality</text><text fill="#000000" font-family="sans-serif" font-size="11" lengthAdjust="spacing" textLength="131" x="441" y="116.9292">-Float decimalDegree1</text><text fill="#000000" font-family="sans-serif" font-size="11" lengthAdjust="spacing" textLength="131" x="441" y="129.7339">-Float decimalDegree2</text><!--MD5=[7f2a9fafcebe4f099f71398fd3e2ed00]
class Pharmacy--><rect codeLine="19" fill="#FEFECE" filter="url(#fytyh1du003bg)" height="142.4375" id="Pharmacy" style="stroke:#A80036;stroke-width:1.5;" width="152" x="185" y="7"/><ellipse cx="228.35" cy="23" fill="#ADD1B2" rx="11" ry="11" style="stroke:#A80036;stroke-width:1.0;"/><path d="M230.6938,18.6719 C229.7563,18.2344 229.1625,18.0938 228.2875,18.0938 C225.6625,18.0938 223.6625,20.1719 223.6625,22.8906 L223.6625,24.0156 C223.6625,26.5938 225.7719,28.4844 228.6625,28.4844 C229.8813,28.4844 231.0375,28.1875 231.7875,27.6406 C232.3656,27.2344 232.6938,26.7813 232.6938,26.3906 C232.6938,25.9375 232.3031,25.5469 231.8344,25.5469 C231.6156,25.5469 231.4125,25.625 231.225,25.8125 C230.7719,26.2969 230.7719,26.2969 230.5844,26.3906 C230.1625,26.6563 229.475,26.7813 228.7094,26.7813 C226.6625,26.7813 225.3656,25.6875 225.3656,23.9844 L225.3656,22.8906 C225.3656,21.1094 226.6156,19.7969 228.35,19.7969 C228.9281,19.7969 229.5375,19.9531 230.0063,20.2031 C230.4906,20.4844 230.6625,20.7031 230.7563,21.1094 C230.8188,21.5156 230.85,21.6406 230.9906,21.7656 C231.1313,21.9063 231.3656,22.0156 231.5844,22.0156 C231.85,22.0156 232.1156,21.875 232.2875,21.6563 C232.3969,21.5 232.4281,21.3125 232.4281,20.8906 L232.4281,19.4688 C232.4281,19.0313 232.4125,18.9063 232.3188,18.75 C232.1625,18.4844 231.8813,18.3438 231.5844,18.3438 C231.2875,18.3438 231.0844,18.4375 230.8656,18.75 L230.6938,18.6719 Z " fill="#000000"/><text fill="#000000" font-family="sans-serif" font-size="12" lengthAdjust="spacing" textLength="57" x="248.65" y="27.1543">Pharmacy</text><line style="stroke:#A80036;stroke-width:1.5;" x1="186" x2="336" y1="39" y2="39"/><text fill="#000000" font-family="sans-serif" font-size="11" lengthAdjust="spacing" textLength="51" x="191" y="53.2104">-String id</text><text fill="#000000" font-family="sans-serif" font-size="11" lengthAdjust="spacing" textLength="107" x="191" y="66.0151">-String designation</text><text fill="#000000" font-family="sans-serif" font-size="11" lengthAdjust="spacing" textLength="94" x="191" y="78.8198">-String password</text><text fill="#000000" font-family="sans-serif" font-size="11" lengthAdjust="spacing" textLength="73" x="191" y="91.6245">-String email</text><text fill="#000000" font-family="sans-serif" font-size="11" lengthAdjust="spacing" textLength="92" x="191" y="104.4292">-Adress address</text><text fill="#000000" font-family="sans-serif" font-size="11" lengthAdjust="spacing" textLength="89" x="191" y="117.2339">-ParkingLot park</text><text fill="#000000" font-family="sans-serif" font-size="11" lengthAdjust="spacing" textLength="78" x="191" y="130.0386">-ProductList pl</text><text fill="#000000" font-family="sans-serif" font-size="11" lengthAdjust="spacing" textLength="140" x="191" y="142.8433">-AvailableScooterList asl</text><!--MD5=[4a07f137c208f82f57837154e1cfa51e]
link Platform to Pharmacy--><path codeLine="30" d="M87.3787,78 C114.68,78 151.898,78 184.786,78 " fill="none" id="Platform-Pharmacy" style="stroke:#A80036;stroke-width:1.0;"/><polygon fill="#000000" points="127,69.5664,117.9549,66.6275,117.9549,72.5053,127,69.5664" style="stroke:#000000;stroke-width:1.0;"/><text fill="#000000" font-family="sans-serif" font-size="13" lengthAdjust="spacing" textLength="23" x="131" y="74.0669">has</text><text fill="#000000" font-family="sans-serif" font-size="13" lengthAdjust="spacing" textLength="8" x="95.0063" y="91.3674">1</text><text fill="#000000" font-family="sans-serif" font-size="13" lengthAdjust="spacing" textLength="23" x="153.974" y="90.7213">0..*</text><!--MD5=[55f0023f3d7135b0af0bd85f6874eacf]
link Pharmacy to Adress--><path codeLine="32" d="M337.045,78 C368.207,78 404.18,78 434.861,78 " fill="none" id="Pharmacy-Adress" style="stroke:#A80036;stroke-width:1.0;"/><polygon fill="#000000" points="377,69.5664,367.9549,66.6275,367.9549,72.5053,377,69.5664" style="stroke:#000000;stroke-width:1.0;"/><text fill="#000000" font-family="sans-serif" font-size="13" lengthAdjust="spacing" textLength="23" x="381" y="74.0669">has</text><text fill="#000000" font-family="sans-serif" font-size="13" lengthAdjust="spacing" textLength="8" x="344.9244" y="90.7902">1</text><text fill="#000000" font-family="sans-serif" font-size="13" lengthAdjust="spacing" textLength="8" x="419.0607" y="90.856">1</text><!--MD5=[4132ee79372d2da91103d43017da7441]
@startuml
skinparam classAttributeIconSize 0
hide methods
left to right direction


class Platform{

}

class Adress {
 -String street
 -int doorNumber
 -String postalCode
 -String locality
 -Float decimalDegree1
 -Float decimalDegree2
}

class Pharmacy{
-String id
-String designation
-String password
-String email
-Adress address
-ParkingLot park
-ProductList pl
-AvailableScooterList asl
}

Platform"1" - - "0..*"Pharmacy : has >

Pharmacy"1" - - "1" Adress : has >
@enduml

PlantUML version 1.2020.27beta8(Unknown compile time)
(GPL source distribution)
Java Runtime: Java(TM) SE Runtime Environment
JVM: Java HotSpot(TM) 64-Bit Server VM
Default Encoding: UTF-8
Language: en
Country: US
--></g></svg>