<?xml version="1.0" encoding="UTF-8" standalone="no"?><svg xmlns="http://www.w3.org/2000/svg" xmlns:xlink="http://www.w3.org/1999/xlink" contentScriptType="application/ecmascript" contentStyleType="text/css" height="272px" preserveAspectRatio="none" style="width:900px;height:272px;" version="1.1" viewBox="0 0 900 272" width="900px" zoomAndPan="magnify"><defs><filter height="300%" id="f346iodtcjz4m" width="300%" x="-1" y="-1"><feGaussianBlur result="blurOut" stdDeviation="2.0"/><feColorMatrix in="blurOut" result="blurOut2" type="matrix" values="0 0 0 0 0 0 0 0 0 0 0 0 0 0 0 0 0 0 .4 0"/><feOffset dx="4.0" dy="4.0" in="blurOut2" result="blurOut3"/><feBlend in="SourceGraphic" in2="blurOut3" mode="normal"/></filter></defs><g><!--MD5=[ed6624c6556d5e7b1bd23032162d20b7]
class Client--><rect codeLine="5" fill="#FEFECE" filter="url(#f346iodtcjz4m)" height="180.8516" id="Client" style="stroke:#A80036;stroke-width:1.5;" width="155" x="365" y="7"/><ellipse cx="421.75" cy="23" fill="#ADD1B2" rx="11" ry="11" style="stroke:#A80036;stroke-width:1.0;"/><path d="M424.0938,18.6719 C423.1563,18.2344 422.5625,18.0938 421.6875,18.0938 C419.0625,18.0938 417.0625,20.1719 417.0625,22.8906 L417.0625,24.0156 C417.0625,26.5938 419.1719,28.4844 422.0625,28.4844 C423.2813,28.4844 424.4375,28.1875 425.1875,27.6406 C425.7656,27.2344 426.0938,26.7813 426.0938,26.3906 C426.0938,25.9375 425.7031,25.5469 425.2344,25.5469 C425.0156,25.5469 424.8125,25.625 424.625,25.8125 C424.1719,26.2969 424.1719,26.2969 423.9844,26.3906 C423.5625,26.6563 422.875,26.7813 422.1094,26.7813 C420.0625,26.7813 418.7656,25.6875 418.7656,23.9844 L418.7656,22.8906 C418.7656,21.1094 420.0156,19.7969 421.75,19.7969 C422.3281,19.7969 422.9375,19.9531 423.4063,20.2031 C423.8906,20.4844 424.0625,20.7031 424.1563,21.1094 C424.2188,21.5156 424.25,21.6406 424.3906,21.7656 C424.5313,21.9063 424.7656,22.0156 424.9844,22.0156 C425.25,22.0156 425.5156,21.875 425.6875,21.6563 C425.7969,21.5 425.8281,21.3125 425.8281,20.8906 L425.8281,19.4688 C425.8281,19.0313 425.8125,18.9063 425.7188,18.75 C425.5625,18.4844 425.2813,18.3438 424.9844,18.3438 C424.6875,18.3438 424.4844,18.4375 424.2656,18.75 L424.0938,18.6719 Z " fill="#000000"/><text fill="#000000" font-family="sans-serif" font-size="12" lengthAdjust="spacing" textLength="33" x="442.25" y="27.1543">Client</text><line style="stroke:#A80036;stroke-width:1.5;" x1="366" x2="519" y1="39" y2="39"/><text fill="#000000" font-family="sans-serif" font-size="11" lengthAdjust="spacing" textLength="51" x="371" y="53.2104">-String id</text><text fill="#000000" font-family="sans-serif" font-size="11" lengthAdjust="spacing" textLength="74" x="371" y="66.0151">-String name</text><text fill="#000000" font-family="sans-serif" font-size="11" lengthAdjust="spacing" textLength="94" x="371" y="78.8198">-String password</text><text fill="#000000" font-family="sans-serif" font-size="11" lengthAdjust="spacing" textLength="73" x="371" y="91.6245">-String email</text><text fill="#000000" font-family="sans-serif" font-size="11" lengthAdjust="spacing" textLength="66" x="371" y="104.4292">-Integer NIF</text><text fill="#000000" font-family="sans-serif" font-size="11" lengthAdjust="spacing" textLength="75" x="371" y="117.2339">-String street</text><text fill="#000000" font-family="sans-serif" font-size="11" lengthAdjust="spacing" textLength="105" x="371" y="130.0386">-String postalCode</text><text fill="#000000" font-family="sans-serif" font-size="11" lengthAdjust="spacing" textLength="81" x="371" y="142.8433">-String locality</text><text fill="#000000" font-family="sans-serif" font-size="11" lengthAdjust="spacing" textLength="143" x="371" y="155.6479">-double decimalDegree1</text><text fill="#000000" font-family="sans-serif" font-size="11" lengthAdjust="spacing" textLength="143" x="371" y="168.4526">-double decimalDegree2</text><text fill="#000000" font-family="sans-serif" font-size="11" lengthAdjust="spacing" textLength="85" x="371" y="181.2573">-double credits</text><!--MD5=[99b8db98afdc2c8404e39242ef4c1e65]
class Platform--><rect codeLine="19" fill="#FEFECE" filter="url(#f346iodtcjz4m)" height="40" id="Platform" style="stroke:#A80036;stroke-width:1.5;" width="80" x="7" y="124.5"/><ellipse cx="22" cy="140.5" fill="#ADD1B2" rx="11" ry="11" style="stroke:#A80036;stroke-width:1.0;"/><path d="M24.3438,136.1719 C23.4063,135.7344 22.8125,135.5938 21.9375,135.5938 C19.3125,135.5938 17.3125,137.6719 17.3125,140.3906 L17.3125,141.5156 C17.3125,144.0938 19.4219,145.9844 22.3125,145.9844 C23.5313,145.9844 24.6875,145.6875 25.4375,145.1406 C26.0156,144.7344 26.3438,144.2813 26.3438,143.8906 C26.3438,143.4375 25.9531,143.0469 25.4844,143.0469 C25.2656,143.0469 25.0625,143.125 24.875,143.3125 C24.4219,143.7969 24.4219,143.7969 24.2344,143.8906 C23.8125,144.1563 23.125,144.2813 22.3594,144.2813 C20.3125,144.2813 19.0156,143.1875 19.0156,141.4844 L19.0156,140.3906 C19.0156,138.6094 20.2656,137.2969 22,137.2969 C22.5781,137.2969 23.1875,137.4531 23.6563,137.7031 C24.1406,137.9844 24.3125,138.2031 24.4063,138.6094 C24.4688,139.0156 24.5,139.1406 24.6406,139.2656 C24.7813,139.4063 25.0156,139.5156 25.2344,139.5156 C25.5,139.5156 25.7656,139.375 25.9375,139.1563 C26.0469,139 26.0781,138.8125 26.0781,138.3906 L26.0781,136.9688 C26.0781,136.5313 26.0625,136.4063 25.9688,136.25 C25.8125,135.9844 25.5313,135.8438 25.2344,135.8438 C24.9375,135.8438 24.7344,135.9375 24.5156,136.25 L24.3438,136.1719 Z " fill="#000000"/><text fill="#000000" font-family="sans-serif" font-size="12" lengthAdjust="spacing" textLength="48" x="36" y="144.6543">Platform</text><line style="stroke:#A80036;stroke-width:1.5;" x1="8" x2="86" y1="156.5" y2="156.5"/><!--MD5=[72136138052d025cffdce3c22fbd185f]
class Product--><rect codeLine="22" fill="#FEFECE" filter="url(#f346iodtcjz4m)" height="91.2188" id="Product" style="stroke:#A80036;stroke-width:1.5;" width="86" x="550" y="167"/><ellipse cx="569.05" cy="183" fill="#ADD1B2" rx="11" ry="11" style="stroke:#A80036;stroke-width:1.0;"/><path d="M571.3938,178.6719 C570.4563,178.2344 569.8625,178.0938 568.9875,178.0938 C566.3625,178.0938 564.3625,180.1719 564.3625,182.8906 L564.3625,184.0156 C564.3625,186.5938 566.4719,188.4844 569.3625,188.4844 C570.5813,188.4844 571.7375,188.1875 572.4875,187.6406 C573.0656,187.2344 573.3938,186.7813 573.3938,186.3906 C573.3938,185.9375 573.0031,185.5469 572.5344,185.5469 C572.3156,185.5469 572.1125,185.625 571.925,185.8125 C571.4719,186.2969 571.4719,186.2969 571.2844,186.3906 C570.8625,186.6563 570.175,186.7813 569.4094,186.7813 C567.3625,186.7813 566.0656,185.6875 566.0656,183.9844 L566.0656,182.8906 C566.0656,181.1094 567.3156,179.7969 569.05,179.7969 C569.6281,179.7969 570.2375,179.9531 570.7063,180.2031 C571.1906,180.4844 571.3625,180.7031 571.4563,181.1094 C571.5188,181.5156 571.55,181.6406 571.6906,181.7656 C571.8313,181.9063 572.0656,182.0156 572.2844,182.0156 C572.55,182.0156 572.8156,181.875 572.9875,181.6563 C573.0969,181.5 573.1281,181.3125 573.1281,180.8906 L573.1281,179.4688 C573.1281,179.0313 573.1125,178.9063 573.0188,178.75 C572.8625,178.4844 572.5813,178.3438 572.2844,178.3438 C571.9875,178.3438 571.7844,178.4375 571.5656,178.75 L571.3938,178.6719 Z " fill="#000000"/><text fill="#000000" font-family="sans-serif" font-size="12" lengthAdjust="spacing" textLength="45" x="583.95" y="187.1543">Product</text><line style="stroke:#A80036;stroke-width:1.5;" x1="551" x2="635" y1="199" y2="199"/><text fill="#000000" font-family="sans-serif" font-size="11" lengthAdjust="spacing" textLength="51" x="556" y="213.2104">-String id</text><text fill="#000000" font-family="sans-serif" font-size="11" lengthAdjust="spacing" textLength="74" x="556" y="226.0151">-String nome</text><text fill="#000000" font-family="sans-serif" font-size="11" lengthAdjust="spacing" textLength="61" x="556" y="238.8198">-float price</text><text fill="#000000" font-family="sans-serif" font-size="11" lengthAdjust="spacing" textLength="71" x="556" y="251.6245">-float weight</text><!--MD5=[894442645724153f40a9f7a43026dbfc]
class Invoice--><rect codeLine="29" fill="#FEFECE" filter="url(#f346iodtcjz4m)" height="78.4141" id="Invoice" style="stroke:#A80036;stroke-width:1.5;" width="121" x="765" y="96.5"/><ellipse cx="800.7" cy="112.5" fill="#ADD1B2" rx="11" ry="11" style="stroke:#A80036;stroke-width:1.0;"/><path d="M803.0438,108.1719 C802.1063,107.7344 801.5125,107.5938 800.6375,107.5938 C798.0125,107.5938 796.0125,109.6719 796.0125,112.3906 L796.0125,113.5156 C796.0125,116.0938 798.1219,117.9844 801.0125,117.9844 C802.2313,117.9844 803.3875,117.6875 804.1375,117.1406 C804.7156,116.7344 805.0438,116.2813 805.0438,115.8906 C805.0438,115.4375 804.6531,115.0469 804.1844,115.0469 C803.9656,115.0469 803.7625,115.125 803.575,115.3125 C803.1219,115.7969 803.1219,115.7969 802.9344,115.8906 C802.5125,116.1563 801.825,116.2813 801.0594,116.2813 C799.0125,116.2813 797.7156,115.1875 797.7156,113.4844 L797.7156,112.3906 C797.7156,110.6094 798.9656,109.2969 800.7,109.2969 C801.2781,109.2969 801.8875,109.4531 802.3563,109.7031 C802.8406,109.9844 803.0125,110.2031 803.1063,110.6094 C803.1688,111.0156 803.2,111.1406 803.3406,111.2656 C803.4813,111.4063 803.7156,111.5156 803.9344,111.5156 C804.2,111.5156 804.4656,111.375 804.6375,111.1563 C804.7469,111 804.7781,110.8125 804.7781,110.3906 L804.7781,108.9688 C804.7781,108.5313 804.7625,108.4063 804.6688,108.25 C804.5125,107.9844 804.2313,107.8438 803.9344,107.8438 C803.6375,107.8438 803.4344,107.9375 803.2156,108.25 L803.0438,108.1719 Z " fill="#000000"/><text fill="#000000" font-family="sans-serif" font-size="12" lengthAdjust="spacing" textLength="43" x="819.3" y="116.6543">Invoice</text><line style="stroke:#A80036;stroke-width:1.5;" x1="766" x2="885" y1="128.5" y2="128.5"/><text fill="#000000" font-family="sans-serif" font-size="11" lengthAdjust="spacing" textLength="51" x="771" y="142.7104">-String id</text><text fill="#000000" font-family="sans-serif" font-size="11" lengthAdjust="spacing" textLength="109" x="771" y="155.5151">-Date date_invoice</text><text fill="#000000" font-family="sans-serif" font-size="11" lengthAdjust="spacing" textLength="61" x="771" y="168.3198">-float price</text><!--MD5=[7f2a9fafcebe4f099f71398fd3e2ed00]
class Pharmacy--><rect codeLine="37" fill="#FEFECE" filter="url(#f346iodtcjz4m)" height="78.4141" id="Pharmacy" style="stroke:#A80036;stroke-width:1.5;" width="119" x="216" y="167.5"/><ellipse cx="244.5" cy="183.5" fill="#ADD1B2" rx="11" ry="11" style="stroke:#A80036;stroke-width:1.0;"/><path d="M246.8438,179.1719 C245.9063,178.7344 245.3125,178.5938 244.4375,178.5938 C241.8125,178.5938 239.8125,180.6719 239.8125,183.3906 L239.8125,184.5156 C239.8125,187.0938 241.9219,188.9844 244.8125,188.9844 C246.0313,188.9844 247.1875,188.6875 247.9375,188.1406 C248.5156,187.7344 248.8438,187.2813 248.8438,186.8906 C248.8438,186.4375 248.4531,186.0469 247.9844,186.0469 C247.7656,186.0469 247.5625,186.125 247.375,186.3125 C246.9219,186.7969 246.9219,186.7969 246.7344,186.8906 C246.3125,187.1563 245.625,187.2813 244.8594,187.2813 C242.8125,187.2813 241.5156,186.1875 241.5156,184.4844 L241.5156,183.3906 C241.5156,181.6094 242.7656,180.2969 244.5,180.2969 C245.0781,180.2969 245.6875,180.4531 246.1563,180.7031 C246.6406,180.9844 246.8125,181.2031 246.9063,181.6094 C246.9688,182.0156 247,182.1406 247.1406,182.2656 C247.2813,182.4063 247.5156,182.5156 247.7344,182.5156 C248,182.5156 248.2656,182.375 248.4375,182.1563 C248.5469,182 248.5781,181.8125 248.5781,181.3906 L248.5781,179.9688 C248.5781,179.5313 248.5625,179.4063 248.4688,179.25 C248.3125,178.9844 248.0313,178.8438 247.7344,178.8438 C247.4375,178.8438 247.2344,178.9375 247.0156,179.25 L246.8438,179.1719 Z " fill="#000000"/><text fill="#000000" font-family="sans-serif" font-size="12" lengthAdjust="spacing" textLength="57" x="261.5" y="187.6543">Pharmacy</text><line style="stroke:#A80036;stroke-width:1.5;" x1="217" x2="334" y1="199.5" y2="199.5"/><text fill="#000000" font-family="sans-serif" font-size="11" lengthAdjust="spacing" textLength="51" x="222" y="213.7104">-String id</text><text fill="#000000" font-family="sans-serif" font-size="11" lengthAdjust="spacing" textLength="107" x="222" y="226.5151">-String designation</text><text fill="#000000" font-family="sans-serif" font-size="11" lengthAdjust="spacing" textLength="73" x="222" y="239.3198">-String email</text><!--MD5=[4a07f137c208f82f57837154e1cfa51e]
link Platform to Pharmacy--><path codeLine="43" d="M87.0035,155.964 C96.7856,158.7955 107.267,161.7921 117,164.5 C149.58,173.5646 186.063,183.3184 215.705,191.1427 " fill="none" id="Platform-Pharmacy" style="stroke:#A80036;stroke-width:1.0;"/><polygon fill="#000000" points="126.8231,157.3847,118.8729,152.1649,117.3232,157.8348,126.8231,157.3847" style="stroke:#000000;stroke-width:1.0;"/><text fill="#000000" font-family="sans-serif" font-size="13" lengthAdjust="spacing" textLength="54" x="131" y="160.5669">contains</text><text fill="#000000" font-family="sans-serif" font-size="13" lengthAdjust="spacing" textLength="8" x="95.1166" y="171.5396">1</text><text fill="#000000" font-family="sans-serif" font-size="13" lengthAdjust="spacing" textLength="8" x="199.93" y="202.2348">1</text><!--MD5=[737ca6dd1a667cd849e932d7cf955580]
link Pharmacy to Product--><path codeLine="45" d="M335.417,215.6142 C345.272,216.8151 355.409,217.8527 365,218.5 C433.733,223.1386 451.171,221.3629 520,218.5 C529.65,218.0986 540.009,217.3959 549.777,216.6094 " fill="none" id="Pharmacy-Product" style="stroke:#A80036;stroke-width:1.0;"/><polygon fill="#000000" points="433.4999,210.0896,424.4686,207.1087,424.4413,212.9865,433.4999,210.0896" style="stroke:#000000;stroke-width:1.0;"/><text fill="#000000" font-family="sans-serif" font-size="13" lengthAdjust="spacing" textLength="23" x="437.5" y="214.5669">has</text><text fill="#000000" font-family="sans-serif" font-size="13" lengthAdjust="spacing" textLength="8" x="342.8074" y="229.5859">1</text><text fill="#000000" font-family="sans-serif" font-size="13" lengthAdjust="spacing" textLength="23" x="519.0816" y="230.3028">0..*</text><!--MD5=[6f4f5a959b7eecf0b4982552d890dec0]
link Platform to Client--><path codeLine="47" d="M87.1689,139.822 C151.709,132.113 281.534,116.606 364.841,106.656 " fill="none" id="Platform-Client" style="stroke:#A80036;stroke-width:1.0;"/><polygon fill="#000000" points="126.9647,119.4734,117.6349,117.628,118.332,123.4643,126.9647,119.4734" style="stroke:#000000;stroke-width:1.0;"/><text fill="#000000" font-family="sans-serif" font-size="13" lengthAdjust="spacing" textLength="54" x="131" y="124.5669">contains</text><text fill="#000000" font-family="sans-serif" font-size="13" lengthAdjust="spacing" textLength="8" x="95.0365" y="152.4034">1</text><text fill="#000000" font-family="sans-serif" font-size="13" lengthAdjust="spacing" textLength="23" x="333.9003" y="120.2188">0..*</text><!--MD5=[4c559bd69cf03a5fb42ddf850315a670]
link Product to Invoice--><path codeLine="49" d="M636.009,198.4665 C672.108,186.4075 724.576,168.8804 764.994,155.378 " fill="none" id="Product-Invoice" style="stroke:#A80036;stroke-width:1.0;"/><polygon fill="#000000" points="666.2576,159.6506,675.7679,159.5722,673.9055,153.9972,666.2576,159.6506" style="stroke:#000000;stroke-width:1.0;"/><text fill="#000000" font-family="sans-serif" font-size="13" lengthAdjust="spacing" textLength="54" x="680" y="162.5669">contains</text><text fill="#000000" font-family="sans-serif" font-size="13" lengthAdjust="spacing" textLength="23" x="644.015" y="209.5675">0..*</text><text fill="#000000" font-family="sans-serif" font-size="13" lengthAdjust="spacing" textLength="23" x="734.1183" y="170.424">0..*</text><!--MD5=[b25e04a5aed6ca08716b8f390ea19208]
link Client to Invoice--><path codeLine="51" d="M520.143,105.144 C592.287,112.34 698.842,122.967 764.848,129.55 " fill="none" id="Client-Invoice" style="stroke:#A80036;stroke-width:1.0;"/><polygon fill="#000000" points="568.4753,100.5626,559.7666,96.7405,559.1832,102.5894,568.4753,100.5626" style="stroke:#000000;stroke-width:1.0;"/><text fill="#000000" font-family="sans-serif" font-size="13" lengthAdjust="spacing" textLength="54" x="572.5" y="104.5669">receives</text><text fill="#000000" font-family="sans-serif" font-size="13" lengthAdjust="spacing" textLength="8" x="527.9246" y="118.6677">1</text><text fill="#000000" font-family="sans-serif" font-size="13" lengthAdjust="spacing" textLength="23" x="733.9564" y="141.771">0..*</text><!--MD5=[48f9a00204073d53a2506ce66faf113c]
@startuml
skinparam classAttributeIconSize 0
hide methods
left to right direction

class Client{
  -String id
  -String name
  -String password
  -String email
  -Integer NIF
  -String street
  -String postalCode
  -String locality
  -double decimalDegree1
  -double decimalDegree2
  -double credits

}
class Platform{
}

class Product{
  -String id
  -String nome
  -float price
  -float weight
}

class Invoice{
  -String id
  -Date date_invoice
  -float price
  

}

class Pharmacy {
  -String id
  -String designation
  -String email
}

Platform"1" - - "1"Pharmacy : contains >

Pharmacy"1" - - "0..*"Product : has >

Platform"1" - - "0..*"Client : contains >

Product"0..*" - - "0..*"Invoice : contains <

Client"1" - - "0..*"Invoice : receives >
@enduml

PlantUML version 1.2020.27beta7(Unknown compile time)
(GPL source distribution)
Java Runtime: Java(TM) SE Runtime Environment
JVM: Java HotSpot(TM) 64-Bit Server VM
Default Encoding: UTF-8
Language: en
Country: US
--></g></svg>