<?xml version="1.0" encoding="UTF-8" standalone="no"?><svg xmlns="http://www.w3.org/2000/svg" xmlns:xlink="http://www.w3.org/1999/xlink" contentScriptType="application/ecmascript" contentStyleType="text/css" height="1173px" preserveAspectRatio="none" style="width:561px;height:1173px;" version="1.1" viewBox="0 0 561 1173" width="561px" zoomAndPan="magnify"><defs><filter height="300%" id="f1929mp26o22rn" width="300%" x="-1" y="-1"><feGaussianBlur result="blurOut" stdDeviation="2.0"/><feColorMatrix in="blurOut" result="blurOut2" type="matrix" values="0 0 0 0 0 0 0 0 0 0 0 0 0 0 0 0 0 0 .4 0"/><feOffset dx="4.0" dy="4.0" in="blurOut2" result="blurOut3"/><feBlend in="SourceGraphic" in2="blurOut3" mode="normal"/></filter></defs><g><!--MD5=[9681dc6e01e10c6b4fe06895ae94f592]
cluster UI--><polygon fill="#FFFFFF" filter="url(#f1929mp26o22rn)" points="350,6,372,6,379,28.2969,502,28.2969,502,105,350,105,350,6" style="stroke:#000000;stroke-width:1.5;"/><line style="stroke:#000000;stroke-width:1.5;" x1="350" x2="379" y1="28.2969" y2="28.2969"/><text fill="#000000" font-family="sans-serif" font-size="14" font-weight="bold" lengthAdjust="spacing" textLength="16" x="354" y="20.9951">UI</text><!--MD5=[ed1d20ea533a2a0e7df5ba3c35e56ced]
cluster Controllers--><polygon fill="#FFFFFF" filter="url(#f1929mp26o22rn)" points="321,138,417,138,424,160.2969,531,160.2969,531,391,321,391,321,138" style="stroke:#000000;stroke-width:1.5;"/><line style="stroke:#000000;stroke-width:1.5;" x1="321" x2="424" y1="160.2969" y2="160.2969"/><text fill="#000000" font-family="sans-serif" font-size="14" font-weight="bold" lengthAdjust="spacing" textLength="90" x="325" y="152.9951">Controllers</text><!--MD5=[121a8bf1197281ab89ed693fab589f94]
cluster Domain--><polygon fill="#FFFFFF" filter="url(#f1929mp26o22rn)" points="16,424,83,424,90,446.2969,528,446.2969,528,1166,16,1166,16,424" style="stroke:#000000;stroke-width:1.5;"/><line style="stroke:#000000;stroke-width:1.5;" x1="16" x2="90" y1="446.2969" y2="446.2969"/><text fill="#000000" font-family="sans-serif" font-size="14" font-weight="bold" lengthAdjust="spacing" textLength="61" x="20" y="438.9951">Domain</text><!--MD5=[6eea9a658c35fadf523672041f43654c]
class BuyAProductUI--><rect codeLine="23" fill="#FEFECE" filter="url(#f1929mp26o22rn)" height="48" id="BuyAProductUI" style="stroke:#A80036;stroke-width:1.5;" width="119" x="366.5" y="41"/><ellipse cx="381.5" cy="57" fill="#ADD1B2" rx="11" ry="11" style="stroke:#A80036;stroke-width:1.0;"/><path d="M383.8438,52.6719 C382.9063,52.2344 382.3125,52.0938 381.4375,52.0938 C378.8125,52.0938 376.8125,54.1719 376.8125,56.8906 L376.8125,58.0156 C376.8125,60.5938 378.9219,62.4844 381.8125,62.4844 C383.0313,62.4844 384.1875,62.1875 384.9375,61.6406 C385.5156,61.2344 385.8438,60.7813 385.8438,60.3906 C385.8438,59.9375 385.4531,59.5469 384.9844,59.5469 C384.7656,59.5469 384.5625,59.625 384.375,59.8125 C383.9219,60.2969 383.9219,60.2969 383.7344,60.3906 C383.3125,60.6563 382.625,60.7813 381.8594,60.7813 C379.8125,60.7813 378.5156,59.6875 378.5156,57.9844 L378.5156,56.8906 C378.5156,55.1094 379.7656,53.7969 381.5,53.7969 C382.0781,53.7969 382.6875,53.9531 383.1563,54.2031 C383.6406,54.4844 383.8125,54.7031 383.9063,55.1094 C383.9688,55.5156 384,55.6406 384.1406,55.7656 C384.2813,55.9063 384.5156,56.0156 384.7344,56.0156 C385,56.0156 385.2656,55.875 385.4375,55.6563 C385.5469,55.5 385.5781,55.3125 385.5781,54.8906 L385.5781,53.4688 C385.5781,53.0313 385.5625,52.9063 385.4688,52.75 C385.3125,52.4844 385.0313,52.3438 384.7344,52.3438 C384.4375,52.3438 384.2344,52.4375 384.0156,52.75 L383.8438,52.6719 Z " fill="#000000"/><text fill="#000000" font-family="sans-serif" font-size="12" lengthAdjust="spacing" textLength="87" x="395.5" y="61.1543">BuyAProductUI</text><line style="stroke:#A80036;stroke-width:1.5;" x1="367.5" x2="484.5" y1="73" y2="73"/><line style="stroke:#A80036;stroke-width:1.5;" x1="367.5" x2="484.5" y1="81" y2="81"/><!--MD5=[eb6a9a87dff48ef0cf01b757f13f650d]
class BuyAProductController--><rect codeLine="37" fill="#FEFECE" filter="url(#f1929mp26o22rn)" height="201.6563" id="BuyAProductController" style="stroke:#A80036;stroke-width:1.5;" width="178" x="337" y="173"/><ellipse cx="357.4" cy="189" fill="#ADD1B2" rx="11" ry="11" style="stroke:#A80036;stroke-width:1.0;"/><path d="M359.7438,184.6719 C358.8063,184.2344 358.2125,184.0938 357.3375,184.0938 C354.7125,184.0938 352.7125,186.1719 352.7125,188.8906 L352.7125,190.0156 C352.7125,192.5938 354.8219,194.4844 357.7125,194.4844 C358.9313,194.4844 360.0875,194.1875 360.8375,193.6406 C361.4156,193.2344 361.7438,192.7813 361.7438,192.3906 C361.7438,191.9375 361.3531,191.5469 360.8844,191.5469 C360.6656,191.5469 360.4625,191.625 360.275,191.8125 C359.8219,192.2969 359.8219,192.2969 359.6344,192.3906 C359.2125,192.6563 358.525,192.7813 357.7594,192.7813 C355.7125,192.7813 354.4156,191.6875 354.4156,189.9844 L354.4156,188.8906 C354.4156,187.1094 355.6656,185.7969 357.4,185.7969 C357.9781,185.7969 358.5875,185.9531 359.0563,186.2031 C359.5406,186.4844 359.7125,186.7031 359.8063,187.1094 C359.8688,187.5156 359.9,187.6406 360.0406,187.7656 C360.1813,187.9063 360.4156,188.0156 360.6344,188.0156 C360.9,188.0156 361.1656,187.875 361.3375,187.6563 C361.4469,187.5 361.4781,187.3125 361.4781,186.8906 L361.4781,185.4688 C361.4781,185.0313 361.4625,184.9063 361.3688,184.75 C361.2125,184.4844 360.9313,184.3438 360.6344,184.3438 C360.3375,184.3438 360.1344,184.4375 359.9156,184.75 L359.7438,184.6719 Z " fill="#000000"/><text fill="#000000" font-family="sans-serif" font-size="12" lengthAdjust="spacing" textLength="134" x="372.6" y="193.1543">BuyAProductController</text><line style="stroke:#A80036;stroke-width:1.5;" x1="338" x2="514" y1="205" y2="205"/><line style="stroke:#A80036;stroke-width:1.5;" x1="338" x2="514" y1="213" y2="213"/><text fill="#000000" font-family="sans-serif" font-size="11" lengthAdjust="spacing" textLength="110" x="343" y="227.2104">+getPharmacyList()</text><text fill="#000000" font-family="sans-serif" font-size="11" lengthAdjust="spacing" textLength="159" x="343" y="240.0151">+getPharmacy(pharmacyID)</text><text fill="#000000" font-family="sans-serif" font-size="11" lengthAdjust="spacing" textLength="96" x="343" y="252.8198">+getProductList()</text><text fill="#000000" font-family="sans-serif" font-size="11" lengthAdjust="spacing" textLength="131" x="343" y="265.6245">+getProduct(productID)</text><text fill="#000000" font-family="sans-serif" font-size="11" lengthAdjust="spacing" textLength="166" x="343" y="278.4292">+preencherMapa(pr,quantity)</text><text fill="#000000" font-family="sans-serif" font-size="11" lengthAdjust="spacing" textLength="69" x="343" y="291.2339">+getClient()</text><text fill="#000000" font-family="sans-serif" font-size="11" lengthAdjust="spacing" textLength="100" x="343" y="304.0386">+newInvoice(mp)</text><text fill="#000000" font-family="sans-serif" font-size="11" lengthAdjust="spacing" textLength="80" x="343" y="316.8433">+generateId()</text><text fill="#000000" font-family="sans-serif" font-size="11" lengthAdjust="spacing" textLength="64" x="343" y="329.6479">+getDate()</text><text fill="#000000" font-family="sans-serif" font-size="11" lengthAdjust="spacing" textLength="66" x="343" y="342.4526">+calcPrice()</text><text fill="#000000" font-family="sans-serif" font-size="11" lengthAdjust="spacing" textLength="104" x="343" y="355.2573">+getDeliveryList()</text><text fill="#000000" font-family="sans-serif" font-size="11" lengthAdjust="spacing" textLength="110" x="343" y="368.062">+registerDelivery()</text><!--MD5=[99b8db98afdc2c8404e39242ef4c1e65]
class Platform--><rect codeLine="52" fill="#FEFECE" filter="url(#f1929mp26o22rn)" height="86.4141" id="Platform" style="stroke:#A80036;stroke-width:1.5;" width="128" x="177" y="459"/><ellipse cx="213.6" cy="475" fill="#ADD1B2" rx="11" ry="11" style="stroke:#A80036;stroke-width:1.0;"/><path d="M215.9438,470.6719 C215.0063,470.2344 214.4125,470.0938 213.5375,470.0938 C210.9125,470.0938 208.9125,472.1719 208.9125,474.8906 L208.9125,476.0156 C208.9125,478.5938 211.0219,480.4844 213.9125,480.4844 C215.1313,480.4844 216.2875,480.1875 217.0375,479.6406 C217.6156,479.2344 217.9438,478.7813 217.9438,478.3906 C217.9438,477.9375 217.5531,477.5469 217.0844,477.5469 C216.8656,477.5469 216.6625,477.625 216.475,477.8125 C216.0219,478.2969 216.0219,478.2969 215.8344,478.3906 C215.4125,478.6563 214.725,478.7813 213.9594,478.7813 C211.9125,478.7813 210.6156,477.6875 210.6156,475.9844 L210.6156,474.8906 C210.6156,473.1094 211.8656,471.7969 213.6,471.7969 C214.1781,471.7969 214.7875,471.9531 215.2563,472.2031 C215.7406,472.4844 215.9125,472.7031 216.0063,473.1094 C216.0688,473.5156 216.1,473.6406 216.2406,473.7656 C216.3813,473.9063 216.6156,474.0156 216.8344,474.0156 C217.1,474.0156 217.3656,473.875 217.5375,473.6563 C217.6469,473.5 217.6781,473.3125 217.6781,472.8906 L217.6781,471.4688 C217.6781,471.0313 217.6625,470.9063 217.5688,470.75 C217.4125,470.4844 217.1313,470.3438 216.8344,470.3438 C216.5375,470.3438 216.3344,470.4375 216.1156,470.75 L215.9438,470.6719 Z " fill="#000000"/><text fill="#000000" font-family="sans-serif" font-size="12" lengthAdjust="spacing" textLength="48" x="232.4" y="479.1543">Platform</text><line style="stroke:#A80036;stroke-width:1.5;" x1="178" x2="304" y1="491" y2="491"/><line style="stroke:#A80036;stroke-width:1.5;" x1="178" x2="304" y1="499" y2="499"/><text fill="#000000" font-family="sans-serif" font-size="11" lengthAdjust="spacing" textLength="110" x="183" y="513.2104">+getPharmacyList()</text><text fill="#000000" font-family="sans-serif" font-size="11" lengthAdjust="spacing" textLength="116" x="183" y="526.0151">+getClientRegister()</text><text fill="#000000" font-family="sans-serif" font-size="11" lengthAdjust="spacing" textLength="104" x="183" y="538.8198">+getDeliveryList()</text><!--MD5=[72136138052d025cffdce3c22fbd185f]
class Product--><rect codeLine="63" fill="#FEFECE" filter="url(#f1929mp26o22rn)" height="99.2188" id="Product" style="stroke:#A80036;stroke-width:1.5;" width="86" x="383" y="1051"/><ellipse cx="402.05" cy="1067" fill="#ADD1B2" rx="11" ry="11" style="stroke:#A80036;stroke-width:1.0;"/><path d="M404.3938,1062.6719 C403.4563,1062.2344 402.8625,1062.0938 401.9875,1062.0938 C399.3625,1062.0938 397.3625,1064.1719 397.3625,1066.8906 L397.3625,1068.0156 C397.3625,1070.5938 399.4719,1072.4844 402.3625,1072.4844 C403.5813,1072.4844 404.7375,1072.1875 405.4875,1071.6406 C406.0656,1071.2344 406.3938,1070.7813 406.3938,1070.3906 C406.3938,1069.9375 406.0031,1069.5469 405.5344,1069.5469 C405.3156,1069.5469 405.1125,1069.625 404.925,1069.8125 C404.4719,1070.2969 404.4719,1070.2969 404.2844,1070.3906 C403.8625,1070.6563 403.175,1070.7813 402.4094,1070.7813 C400.3625,1070.7813 399.0656,1069.6875 399.0656,1067.9844 L399.0656,1066.8906 C399.0656,1065.1094 400.3156,1063.7969 402.05,1063.7969 C402.6281,1063.7969 403.2375,1063.9531 403.7063,1064.2031 C404.1906,1064.4844 404.3625,1064.7031 404.4563,1065.1094 C404.5188,1065.5156 404.55,1065.6406 404.6906,1065.7656 C404.8313,1065.9063 405.0656,1066.0156 405.2844,1066.0156 C405.55,1066.0156 405.8156,1065.875 405.9875,1065.6563 C406.0969,1065.5 406.1281,1065.3125 406.1281,1064.8906 L406.1281,1063.4688 C406.1281,1063.0313 406.1125,1062.9063 406.0188,1062.75 C405.8625,1062.4844 405.5813,1062.3438 405.2844,1062.3438 C404.9875,1062.3438 404.7844,1062.4375 404.5656,1062.75 L404.3938,1062.6719 Z " fill="#000000"/><text fill="#000000" font-family="sans-serif" font-size="12" lengthAdjust="spacing" textLength="45" x="416.95" y="1071.1543">Product</text><line style="stroke:#A80036;stroke-width:1.5;" x1="384" x2="468" y1="1083" y2="1083"/><text fill="#000000" font-family="sans-serif" font-size="11" lengthAdjust="spacing" textLength="51" x="389" y="1097.2104">-String id</text><text fill="#000000" font-family="sans-serif" font-size="11" lengthAdjust="spacing" textLength="74" x="389" y="1110.0151">-String nome</text><text fill="#000000" font-family="sans-serif" font-size="11" lengthAdjust="spacing" textLength="61" x="389" y="1122.8198">-float price</text><text fill="#000000" font-family="sans-serif" font-size="11" lengthAdjust="spacing" textLength="71" x="389" y="1135.6245">-float weight</text><line style="stroke:#A80036;stroke-width:1.5;" x1="384" x2="468" y1="1142.2188" y2="1142.2188"/><!--MD5=[8050ef462d77cf220fd706493bc05cc9]
class PharmacyList--><rect codeLine="80" fill="#FEFECE" filter="url(#f1929mp26o22rn)" height="60.8047" id="PharmacyList" style="stroke:#A80036;stroke-width:1.5;" width="171" x="340.5" y="471.5"/><ellipse cx="383.4" cy="487.5" fill="#ADD1B2" rx="11" ry="11" style="stroke:#A80036;stroke-width:1.0;"/><path d="M385.7438,483.1719 C384.8063,482.7344 384.2125,482.5938 383.3375,482.5938 C380.7125,482.5938 378.7125,484.6719 378.7125,487.3906 L378.7125,488.5156 C378.7125,491.0938 380.8219,492.9844 383.7125,492.9844 C384.9313,492.9844 386.0875,492.6875 386.8375,492.1406 C387.4156,491.7344 387.7438,491.2813 387.7438,490.8906 C387.7438,490.4375 387.3531,490.0469 386.8844,490.0469 C386.6656,490.0469 386.4625,490.125 386.275,490.3125 C385.8219,490.7969 385.8219,490.7969 385.6344,490.8906 C385.2125,491.1563 384.525,491.2813 383.7594,491.2813 C381.7125,491.2813 380.4156,490.1875 380.4156,488.4844 L380.4156,487.3906 C380.4156,485.6094 381.6656,484.2969 383.4,484.2969 C383.9781,484.2969 384.5875,484.4531 385.0563,484.7031 C385.5406,484.9844 385.7125,485.2031 385.8063,485.6094 C385.8688,486.0156 385.9,486.1406 386.0406,486.2656 C386.1813,486.4063 386.4156,486.5156 386.6344,486.5156 C386.9,486.5156 387.1656,486.375 387.3375,486.1563 C387.4469,486 387.4781,485.8125 387.4781,485.3906 L387.4781,483.9688 C387.4781,483.5313 387.4625,483.4063 387.3688,483.25 C387.2125,482.9844 386.9313,482.8438 386.6344,482.8438 C386.3375,482.8438 386.1344,482.9375 385.9156,483.25 L385.7438,483.1719 Z " fill="#000000"/><text fill="#000000" font-family="sans-serif" font-size="12" lengthAdjust="spacing" textLength="77" x="403.6" y="491.6543">PharmacyList</text><line style="stroke:#A80036;stroke-width:1.5;" x1="341.5" x2="510.5" y1="503.5" y2="503.5"/><line style="stroke:#A80036;stroke-width:1.5;" x1="341.5" x2="510.5" y1="511.5" y2="511.5"/><text fill="#000000" font-family="sans-serif" font-size="11" lengthAdjust="spacing" textLength="159" x="346.5" y="525.7104">+getPharmacy(pharmacyID)</text><!--MD5=[7f2a9fafcebe4f099f71398fd3e2ed00]
class Pharmacy--><rect codeLine="71" fill="#FEFECE" filter="url(#f1929mp26o22rn)" height="124.8281" id="Pharmacy" style="stroke:#A80036;stroke-width:1.5;" width="119" x="366.5" y="622"/><ellipse cx="395" cy="638" fill="#ADD1B2" rx="11" ry="11" style="stroke:#A80036;stroke-width:1.0;"/><path d="M397.3438,633.6719 C396.4063,633.2344 395.8125,633.0938 394.9375,633.0938 C392.3125,633.0938 390.3125,635.1719 390.3125,637.8906 L390.3125,639.0156 C390.3125,641.5938 392.4219,643.4844 395.3125,643.4844 C396.5313,643.4844 397.6875,643.1875 398.4375,642.6406 C399.0156,642.2344 399.3438,641.7813 399.3438,641.3906 C399.3438,640.9375 398.9531,640.5469 398.4844,640.5469 C398.2656,640.5469 398.0625,640.625 397.875,640.8125 C397.4219,641.2969 397.4219,641.2969 397.2344,641.3906 C396.8125,641.6563 396.125,641.7813 395.3594,641.7813 C393.3125,641.7813 392.0156,640.6875 392.0156,638.9844 L392.0156,637.8906 C392.0156,636.1094 393.2656,634.7969 395,634.7969 C395.5781,634.7969 396.1875,634.9531 396.6563,635.2031 C397.1406,635.4844 397.3125,635.7031 397.4063,636.1094 C397.4688,636.5156 397.5,636.6406 397.6406,636.7656 C397.7813,636.9063 398.0156,637.0156 398.2344,637.0156 C398.5,637.0156 398.7656,636.875 398.9375,636.6563 C399.0469,636.5 399.0781,636.3125 399.0781,635.8906 L399.0781,634.4688 C399.0781,634.0313 399.0625,633.9063 398.9688,633.75 C398.8125,633.4844 398.5313,633.3438 398.2344,633.3438 C397.9375,633.3438 397.7344,633.4375 397.5156,633.75 L397.3438,633.6719 Z " fill="#000000"/><text fill="#000000" font-family="sans-serif" font-size="12" lengthAdjust="spacing" textLength="57" x="412" y="642.1543">Pharmacy</text><line style="stroke:#A80036;stroke-width:1.5;" x1="367.5" x2="484.5" y1="654" y2="654"/><text fill="#000000" font-family="sans-serif" font-size="11" lengthAdjust="spacing" textLength="51" x="372.5" y="668.2104">-String id</text><text fill="#000000" font-family="sans-serif" font-size="11" lengthAdjust="spacing" textLength="107" x="372.5" y="681.0151">-String designation</text><text fill="#000000" font-family="sans-serif" font-size="11" lengthAdjust="spacing" textLength="73" x="372.5" y="693.8198">-String email</text><text fill="#000000" font-family="sans-serif" font-size="11" lengthAdjust="spacing" textLength="85" x="372.5" y="706.6245">-Adress adress</text><text fill="#000000" font-family="sans-serif" font-size="11" lengthAdjust="spacing" textLength="100" x="372.5" y="719.4292">-Integer parkLimit</text><line style="stroke:#A80036;stroke-width:1.5;" x1="367.5" x2="484.5" y1="726.0234" y2="726.0234"/><text fill="#000000" font-family="sans-serif" font-size="11" lengthAdjust="spacing" textLength="96" x="372.5" y="740.2339">+getProductList()</text><!--MD5=[44262eafef82e22c9662f871d8bd43ff]
class ProductList--><rect codeLine="84" fill="#FEFECE" filter="url(#f1929mp26o22rn)" height="60.8047" id="ProductList" style="stroke:#A80036;stroke-width:1.5;" width="143" x="354.5" y="868.5"/><ellipse cx="390.2" cy="884.5" fill="#ADD1B2" rx="11" ry="11" style="stroke:#A80036;stroke-width:1.0;"/><path d="M392.5438,880.1719 C391.6063,879.7344 391.0125,879.5938 390.1375,879.5938 C387.5125,879.5938 385.5125,881.6719 385.5125,884.3906 L385.5125,885.5156 C385.5125,888.0938 387.6219,889.9844 390.5125,889.9844 C391.7313,889.9844 392.8875,889.6875 393.6375,889.1406 C394.2156,888.7344 394.5438,888.2813 394.5438,887.8906 C394.5438,887.4375 394.1531,887.0469 393.6844,887.0469 C393.4656,887.0469 393.2625,887.125 393.075,887.3125 C392.6219,887.7969 392.6219,887.7969 392.4344,887.8906 C392.0125,888.1563 391.325,888.2813 390.5594,888.2813 C388.5125,888.2813 387.2156,887.1875 387.2156,885.4844 L387.2156,884.3906 C387.2156,882.6094 388.4656,881.2969 390.2,881.2969 C390.7781,881.2969 391.3875,881.4531 391.8563,881.7031 C392.3406,881.9844 392.5125,882.2031 392.6063,882.6094 C392.6688,883.0156 392.7,883.1406 392.8406,883.2656 C392.9813,883.4063 393.2156,883.5156 393.4344,883.5156 C393.7,883.5156 393.9656,883.375 394.1375,883.1563 C394.2469,883 394.2781,882.8125 394.2781,882.3906 L394.2781,880.9688 C394.2781,880.5313 394.2625,880.4063 394.1688,880.25 C394.0125,879.9844 393.7313,879.8438 393.4344,879.8438 C393.1375,879.8438 392.9344,879.9375 392.7156,880.25 L392.5438,880.1719 Z " fill="#000000"/><text fill="#000000" font-family="sans-serif" font-size="12" lengthAdjust="spacing" textLength="65" x="408.8" y="888.6543">ProductList</text><line style="stroke:#A80036;stroke-width:1.5;" x1="355.5" x2="496.5" y1="900.5" y2="900.5"/><line style="stroke:#A80036;stroke-width:1.5;" x1="355.5" x2="496.5" y1="908.5" y2="908.5"/><text fill="#000000" font-family="sans-serif" font-size="11" lengthAdjust="spacing" textLength="131" x="360.5" y="922.7104">+getProduct(productID)</text><!--MD5=[0fcd3375de399c91a906cd30f47c8789]
class ClientRegister--><rect codeLine="58" fill="#FEFECE" filter="url(#f1929mp26o22rn)" height="60.8047" id="ClientRegister" style="stroke:#A80036;stroke-width:1.5;" width="127" x="177.5" y="654"/><ellipse cx="197.9" cy="670" fill="#ADD1B2" rx="11" ry="11" style="stroke:#A80036;stroke-width:1.0;"/><path d="M200.2438,665.6719 C199.3063,665.2344 198.7125,665.0938 197.8375,665.0938 C195.2125,665.0938 193.2125,667.1719 193.2125,669.8906 L193.2125,671.0156 C193.2125,673.5938 195.3219,675.4844 198.2125,675.4844 C199.4313,675.4844 200.5875,675.1875 201.3375,674.6406 C201.9156,674.2344 202.2438,673.7813 202.2438,673.3906 C202.2438,672.9375 201.8531,672.5469 201.3844,672.5469 C201.1656,672.5469 200.9625,672.625 200.775,672.8125 C200.3219,673.2969 200.3219,673.2969 200.1344,673.3906 C199.7125,673.6563 199.025,673.7813 198.2594,673.7813 C196.2125,673.7813 194.9156,672.6875 194.9156,670.9844 L194.9156,669.8906 C194.9156,668.1094 196.1656,666.7969 197.9,666.7969 C198.4781,666.7969 199.0875,666.9531 199.5563,667.2031 C200.0406,667.4844 200.2125,667.7031 200.3063,668.1094 C200.3688,668.5156 200.4,668.6406 200.5406,668.7656 C200.6813,668.9063 200.9156,669.0156 201.1344,669.0156 C201.4,669.0156 201.6656,668.875 201.8375,668.6563 C201.9469,668.5 201.9781,668.3125 201.9781,667.8906 L201.9781,666.4688 C201.9781,666.0313 201.9625,665.9063 201.8688,665.75 C201.7125,665.4844 201.4313,665.3438 201.1344,665.3438 C200.8375,665.3438 200.6344,665.4375 200.4156,665.75 L200.2438,665.6719 Z " fill="#000000"/><text fill="#000000" font-family="sans-serif" font-size="12" lengthAdjust="spacing" textLength="83" x="213.1" y="674.1543">ClientRegister</text><line style="stroke:#A80036;stroke-width:1.5;" x1="178.5" x2="303.5" y1="686" y2="686"/><line style="stroke:#A80036;stroke-width:1.5;" x1="178.5" x2="303.5" y1="694" y2="694"/><text fill="#000000" font-family="sans-serif" font-size="11" lengthAdjust="spacing" textLength="115" x="183.5" y="708.2104">+getClientByEmail()</text><!--MD5=[ed6624c6556d5e7b1bd23032162d20b7]
class Client--><rect codeLine="26" fill="#FEFECE" filter="url(#f1929mp26o22rn)" height="150.4375" id="Client" style="stroke:#A80036;stroke-width:1.5;" width="106" x="106" y="824"/><ellipse cx="139.45" cy="840" fill="#ADD1B2" rx="11" ry="11" style="stroke:#A80036;stroke-width:1.0;"/><path d="M141.7938,835.6719 C140.8563,835.2344 140.2625,835.0938 139.3875,835.0938 C136.7625,835.0938 134.7625,837.1719 134.7625,839.8906 L134.7625,841.0156 C134.7625,843.5938 136.8719,845.4844 139.7625,845.4844 C140.9813,845.4844 142.1375,845.1875 142.8875,844.6406 C143.4656,844.2344 143.7938,843.7813 143.7938,843.3906 C143.7938,842.9375 143.4031,842.5469 142.9344,842.5469 C142.7156,842.5469 142.5125,842.625 142.325,842.8125 C141.8719,843.2969 141.8719,843.2969 141.6844,843.3906 C141.2625,843.6563 140.575,843.7813 139.8094,843.7813 C137.7625,843.7813 136.4656,842.6875 136.4656,840.9844 L136.4656,839.8906 C136.4656,838.1094 137.7156,836.7969 139.45,836.7969 C140.0281,836.7969 140.6375,836.9531 141.1063,837.2031 C141.5906,837.4844 141.7625,837.7031 141.8563,838.1094 C141.9188,838.5156 141.95,838.6406 142.0906,838.7656 C142.2313,838.9063 142.4656,839.0156 142.6844,839.0156 C142.95,839.0156 143.2156,838.875 143.3875,838.6563 C143.4969,838.5 143.5281,838.3125 143.5281,837.8906 L143.5281,836.4688 C143.5281,836.0313 143.5125,835.9063 143.4188,835.75 C143.2625,835.4844 142.9813,835.3438 142.6844,835.3438 C142.3875,835.3438 142.1844,835.4375 141.9656,835.75 L141.7938,835.6719 Z " fill="#000000"/><text fill="#000000" font-family="sans-serif" font-size="12" lengthAdjust="spacing" textLength="33" x="157.55" y="844.1543">Client</text><line style="stroke:#A80036;stroke-width:1.5;" x1="107" x2="211" y1="856" y2="856"/><text fill="#000000" font-family="sans-serif" font-size="11" lengthAdjust="spacing" textLength="51" x="112" y="870.2104">-String id</text><text fill="#000000" font-family="sans-serif" font-size="11" lengthAdjust="spacing" textLength="74" x="112" y="883.0151">-String name</text><text fill="#000000" font-family="sans-serif" font-size="11" lengthAdjust="spacing" textLength="94" x="112" y="895.8198">-String password</text><text fill="#000000" font-family="sans-serif" font-size="11" lengthAdjust="spacing" textLength="73" x="112" y="908.6245">-String email</text><text fill="#000000" font-family="sans-serif" font-size="11" lengthAdjust="spacing" textLength="58" x="112" y="921.4292">-String NIF</text><text fill="#000000" font-family="sans-serif" font-size="11" lengthAdjust="spacing" textLength="68" x="112" y="934.2339">-String IBAN</text><text fill="#000000" font-family="sans-serif" font-size="11" lengthAdjust="spacing" textLength="85" x="112" y="947.0386">-double credits</text><text fill="#000000" font-family="sans-serif" font-size="11" lengthAdjust="spacing" textLength="92" x="112" y="959.8433">-Adress address</text><line style="stroke:#A80036;stroke-width:1.5;" x1="107" x2="211" y1="966.4375" y2="966.4375"/><!--MD5=[894442645724153f40a9f7a43026dbfc]
class Invoice--><rect codeLine="88" fill="#FEFECE" filter="url(#f1929mp26o22rn)" height="86.4141" id="Invoice" style="stroke:#A80036;stroke-width:1.5;" width="75" x="58.5" y="641.5"/><ellipse cx="73.5" cy="657.5" fill="#ADD1B2" rx="11" ry="11" style="stroke:#A80036;stroke-width:1.0;"/><path d="M75.8438,653.1719 C74.9063,652.7344 74.3125,652.5938 73.4375,652.5938 C70.8125,652.5938 68.8125,654.6719 68.8125,657.3906 L68.8125,658.5156 C68.8125,661.0938 70.9219,662.9844 73.8125,662.9844 C75.0313,662.9844 76.1875,662.6875 76.9375,662.1406 C77.5156,661.7344 77.8438,661.2813 77.8438,660.8906 C77.8438,660.4375 77.4531,660.0469 76.9844,660.0469 C76.7656,660.0469 76.5625,660.125 76.375,660.3125 C75.9219,660.7969 75.9219,660.7969 75.7344,660.8906 C75.3125,661.1563 74.625,661.2813 73.8594,661.2813 C71.8125,661.2813 70.5156,660.1875 70.5156,658.4844 L70.5156,657.3906 C70.5156,655.6094 71.7656,654.2969 73.5,654.2969 C74.0781,654.2969 74.6875,654.4531 75.1563,654.7031 C75.6406,654.9844 75.8125,655.2031 75.9063,655.6094 C75.9688,656.0156 76,656.1406 76.1406,656.2656 C76.2813,656.4063 76.5156,656.5156 76.7344,656.5156 C77,656.5156 77.2656,656.375 77.4375,656.1563 C77.5469,656 77.5781,655.8125 77.5781,655.3906 L77.5781,653.9688 C77.5781,653.5313 77.5625,653.4063 77.4688,653.25 C77.3125,652.9844 77.0313,652.8438 76.7344,652.8438 C76.4375,652.8438 76.2344,652.9375 76.0156,653.25 L75.8438,653.1719 Z " fill="#000000"/><text fill="#000000" font-family="sans-serif" font-size="12" lengthAdjust="spacing" textLength="43" x="87.5" y="661.6543">Invoice</text><line style="stroke:#A80036;stroke-width:1.5;" x1="59.5" x2="132.5" y1="673.5" y2="673.5"/><text fill="#000000" font-family="sans-serif" font-size="11" lengthAdjust="spacing" textLength="51" x="64.5" y="687.7104">-String id</text><text fill="#000000" font-family="sans-serif" font-size="11" lengthAdjust="spacing" textLength="62" x="64.5" y="700.5151">-Date date</text><text fill="#000000" font-family="sans-serif" font-size="11" lengthAdjust="spacing" textLength="61" x="64.5" y="713.3198">-float price</text><line style="stroke:#A80036;stroke-width:1.5;" x1="59.5" x2="132.5" y1="719.9141" y2="719.9141"/><!--MD5=[fff5db4abcb6eec6574b9ea9c3ee0eae]
class Delivery--><rect codeLine="94" fill="#FEFECE" filter="url(#f1929mp26o22rn)" height="86.4141" id="Delivery" style="stroke:#A80036;stroke-width:1.5;" width="110" x="32" y="459"/><ellipse cx="59.6" cy="475" fill="#ADD1B2" rx="11" ry="11" style="stroke:#A80036;stroke-width:1.0;"/><path d="M61.9438,470.6719 C61.0063,470.2344 60.4125,470.0938 59.5375,470.0938 C56.9125,470.0938 54.9125,472.1719 54.9125,474.8906 L54.9125,476.0156 C54.9125,478.5938 57.0219,480.4844 59.9125,480.4844 C61.1313,480.4844 62.2875,480.1875 63.0375,479.6406 C63.6156,479.2344 63.9438,478.7813 63.9438,478.3906 C63.9438,477.9375 63.5531,477.5469 63.0844,477.5469 C62.8656,477.5469 62.6625,477.625 62.475,477.8125 C62.0219,478.2969 62.0219,478.2969 61.8344,478.3906 C61.4125,478.6563 60.725,478.7813 59.9594,478.7813 C57.9125,478.7813 56.6156,477.6875 56.6156,475.9844 L56.6156,474.8906 C56.6156,473.1094 57.8656,471.7969 59.6,471.7969 C60.1781,471.7969 60.7875,471.9531 61.2563,472.2031 C61.7406,472.4844 61.9125,472.7031 62.0063,473.1094 C62.0688,473.5156 62.1,473.6406 62.2406,473.7656 C62.3813,473.9063 62.6156,474.0156 62.8344,474.0156 C63.1,474.0156 63.3656,473.875 63.5375,473.6563 C63.6469,473.5 63.6781,473.3125 63.6781,472.8906 L63.6781,471.4688 C63.6781,471.0313 63.6625,470.9063 63.5688,470.75 C63.4125,470.4844 63.1313,470.3438 62.8344,470.3438 C62.5375,470.3438 62.3344,470.4375 62.1156,470.75 L61.9438,470.6719 Z " fill="#000000"/><text fill="#000000" font-family="sans-serif" font-size="12" lengthAdjust="spacing" textLength="50" x="76.4" y="479.1543">Delivery</text><line style="stroke:#A80036;stroke-width:1.5;" x1="33" x2="141" y1="491" y2="491"/><text fill="#000000" font-family="sans-serif" font-size="11" lengthAdjust="spacing" textLength="51" x="38" y="505.2104">-String id</text><text fill="#000000" font-family="sans-serif" font-size="11" lengthAdjust="spacing" textLength="62" x="38" y="518.0151">-Date date</text><text fill="#000000" font-family="sans-serif" font-size="11" lengthAdjust="spacing" textLength="98" x="38" y="530.8198">-float totalWeight</text><line style="stroke:#A80036;stroke-width:1.5;" x1="33" x2="141" y1="537.4141" y2="537.4141"/><!--MD5=[7242fb6db1977c86abfde97f79f90d47]
link BuyAProductUI to BuyAProductController--><path codeLine="100" d="M426,89.34 C426,108.83 426,138.1 426,167.57 " fill="none" id="BuyAProductUI-to-BuyAProductController" style="stroke:#A80036;stroke-width:1.0;stroke-dasharray:7.0,7.0;"/><polygon fill="#A80036" points="426,172.68,430,163.68,426,167.68,422,163.68,426,172.68" style="stroke:#A80036;stroke-width:1.0;"/><!--MD5=[1640679de5121f8a4678ca82d50045a2]
link BuyAProductController to Platform--><path codeLine="102" d="M344.048,375.114 C321.299,402.905 297.687,431.75 278.814,454.805 " fill="none" id="BuyAProductController-to-Platform" style="stroke:#A80036;stroke-width:1.0;stroke-dasharray:7.0,7.0;"/><polygon fill="#A80036" points="275.587,458.747,284.3825,454.3154,278.7537,454.8776,278.1915,449.2487,275.587,458.747" style="stroke:#A80036;stroke-width:1.0;"/><!--MD5=[5dd6367b4ff97805334df4335001b46b]
link BuyAProductController to PharmacyList--><path codeLine="103" d="M426,375.114 C426,407.741 426,441.821 426,466.28 " fill="none" id="BuyAProductController-to-PharmacyList" style="stroke:#A80036;stroke-width:1.0;stroke-dasharray:7.0,7.0;"/><polygon fill="#A80036" points="426,471.349,430,462.349,426,466.349,422,462.349,426,471.349" style="stroke:#A80036;stroke-width:1.0;"/><!--MD5=[e924296dfa741f01004a0e89d4468287]
link BuyAProductController to ClientRegister--><path codeLine="105" d="M510.32,375.186 C517.909,388.281 524.439,402.023 529,416 C546.787,470.504 554.101,493.453 529,545 C490.906,623.23 429.763,589.619 349,622 C329.245,629.92 308.679,640.868 290.861,651.334 " fill="none" id="BuyAProductController-to-ClientRegister" style="stroke:#A80036;stroke-width:1.0;stroke-dasharray:7.0,7.0;"/><polygon fill="#A80036" points="286.392,653.982,296.1739,652.8357,290.6936,651.4333,292.096,645.953,286.392,653.982" style="stroke:#A80036;stroke-width:1.0;"/><!--MD5=[9d300a128616d978fad49290fd17a35f]
link Platform to ClientRegister--><path codeLine="106" d="M241,545.319 C241,576.709 241,618.998 241,648.493 " fill="none" id="Platform-to-ClientRegister" style="stroke:#A80036;stroke-width:1.0;stroke-dasharray:7.0,7.0;"/><polygon fill="#A80036" points="241,653.846,245,644.846,241,648.846,237,644.846,241,653.846" style="stroke:#A80036;stroke-width:1.0;"/><!--MD5=[dcb9e7f24fda9389b72d4bf35ba5a068]
link PharmacyList to Pharmacy--><path codeLine="108" d="M426,532.806 C426,556.937 426,591.739 426,621.82 " fill="none" id="PharmacyList-Pharmacy" style="stroke:#A80036;stroke-width:1.0;"/><text fill="#000000" font-family="sans-serif" font-size="13" lengthAdjust="spacing" textLength="33" x="427" y="588.0669">has&gt;</text><text fill="#000000" font-family="sans-serif" font-size="13" lengthAdjust="spacing" textLength="8" x="417.2125" y="552.4467">1</text><text fill="#000000" font-family="sans-serif" font-size="13" lengthAdjust="spacing" textLength="23" x="401.6703" y="610.7899">1..*</text><!--MD5=[da7a88b3261d7b5c096a3d384c8541e6]
link ProductList to Product--><path codeLine="109" d="M426,929.867 C426,961.825 426,1013.013 426,1050.81 " fill="none" id="ProductList-Product" style="stroke:#A80036;stroke-width:1.0;"/><text fill="#000000" font-family="sans-serif" font-size="13" lengthAdjust="spacing" textLength="33" x="427" y="1017.0669">has&gt;</text><text fill="#000000" font-family="sans-serif" font-size="13" lengthAdjust="spacing" textLength="8" x="417.2375" y="949.2789">1</text><text fill="#000000" font-family="sans-serif" font-size="13" lengthAdjust="spacing" textLength="23" x="401.3828" y="1039.8285">1..*</text><!--MD5=[92b8f75a2639539bed747d3dbb9f2876]
link Pharmacy to ProductList--><path codeLine="110" d="M426,747.249 C426,787.075 426,837.082 426,868.299 " fill="none" id="Pharmacy-ProductList" style="stroke:#A80036;stroke-width:1.0;"/><text fill="#000000" font-family="sans-serif" font-size="13" lengthAdjust="spacing" textLength="33" x="427" y="790.0669">has&gt;</text><text fill="#000000" font-family="sans-serif" font-size="13" lengthAdjust="spacing" textLength="8" x="417.5625" y="767.016">1</text><text fill="#000000" font-family="sans-serif" font-size="13" lengthAdjust="spacing" textLength="8" x="417.175" y="857.5208">1</text><!--MD5=[49041f85611d143f41c27ae4156e71ae]
link ClientRegister to Client--><path codeLine="111" d="M229.598,715.047 C218.773,743.101 202.052,786.432 187.6,823.883 " fill="none" id="ClientRegister-Client" style="stroke:#A80036;stroke-width:1.0;"/><text fill="#000000" font-family="sans-serif" font-size="13" lengthAdjust="spacing" textLength="33" x="206" y="790.0669">has&gt;</text><text fill="#000000" font-family="sans-serif" font-size="13" lengthAdjust="spacing" textLength="8" x="218.4213" y="734.9949">1</text><text fill="#000000" font-family="sans-serif" font-size="13" lengthAdjust="spacing" textLength="23" x="166.2298" y="813.0609">1..*</text><!--MD5=[d526f5d30672b9ad1f9eb1a68f9d4e48]
link Invoice to Client--><path codeLine="113" d="M95.105,727.682 C95.6776,748.064 97.8661,772.671 104,794 C106.879,804.011 110.794,814.161 115.217,823.997 " fill="none" id="Invoice-Client" style="stroke:#A80036;stroke-width:1.0;stroke-dasharray:7.0,7.0;"/><polygon fill="#000000" points="110.022,790.4608,111.05,781.006,105.2963,782.2075,110.022,790.4608" style="stroke:#000000;stroke-width:1.0;"/><text fill="#000000" font-family="sans-serif" font-size="13" lengthAdjust="spacing" textLength="69" x="118" y="790.0669">references</text><text fill="#000000" font-family="sans-serif" font-size="13" lengthAdjust="spacing" textLength="23" x="70.0521" y="748.1198">1..*</text><text fill="#000000" font-family="sans-serif" font-size="13" lengthAdjust="spacing" textLength="8" x="102.5134" y="812.9275">1</text><!--MD5=[bab10b5ff8ad0ec9f872ee4edc1fdb82]
link Delivery to Invoice--><path codeLine="115" d="M89.1101,545.319 C90.5545,574.287 92.4616,612.535 93.9031,641.446 " fill="none" id="Delivery-Invoice" style="stroke:#A80036;stroke-width:1.0;stroke-dasharray:7.0,7.0;"/><polygon fill="#000000" points="97.249,588.5602,99.7338,579.38,93.8633,579.6727,97.249,588.5602" style="stroke:#000000;stroke-width:1.0;"/><text fill="#000000" font-family="sans-serif" font-size="13" lengthAdjust="spacing" textLength="69" x="106" y="588.0669">references</text><text fill="#000000" font-family="sans-serif" font-size="13" lengthAdjust="spacing" textLength="8" x="80.8089" y="565.4628">1</text><text fill="#000000" font-family="sans-serif" font-size="13" lengthAdjust="spacing" textLength="8" x="84.9314" y="630.4334">1</text><!--MD5=[28289505db6a640ee01bc8a85a7ef86f]
@startuml
skinparam classAttributeIconSize 0

package UI <<Folder>> {
  class BuyAProductUI
}

package Controllers <<Folder>> {
  class BuyAProductController
}

package Domain <<Folder>> {
  class Platform
  class Product
  class PharmacyList
  class Pharmacy
  class ProductList
  class ClientRegister
  class Client
  class Invoice
  class Delivery
}

class BuyAProductUI {
}

class Client{
-String id
-String name
-String password
-String email
-String NIF
-String IBAN
-double credits
-Adress address

}
class BuyAProductController {
  +getPharmacyList()
  +getPharmacy(pharmacyID)
  +getProductList()
  +getProduct(productID)
  +preencherMapa(pr,quantity)
  +getClient()
  +newInvoice(mp)
  +generateId()
  +getDate()
  +calcPrice()
  +getDeliveryList()
  +registerDelivery()
}

class Platform {
  +getPharmacyList()
  +getClientRegister()
  +getDeliveryList()
}

class ClientRegister {
  +getClientByEmail()

}

class Product {
  -String id
  -String nome
  -float price
  -float weight
}


class Pharmacy {
  -String id
  -String designation
  -String email
  -Adress adress
  -Integer parkLimit
  +getProductList()
}

class PharmacyList{
  +getPharmacy(pharmacyID)
}

class ProductList{
  +getProduct(productID)
}

class Invoice{
  -String id
  -Date date
  -float price
}

class Delivery{
  -String id
  -Date date
  -float totalWeight

}
BuyAProductUI ..> BuyAProductController

BuyAProductController ..> Platform
BuyAProductController ..> PharmacyList

BuyAProductController ..> ClientRegister
Platform ..> ClientRegister

PharmacyList"1" - - "1..*" Pharmacy : has>
ProductList"1" - - "1..*" Product : has>
Pharmacy"1" - - "1" ProductList : has>
ClientRegister"1" - - "1..*" Client : has>

Invoice"1..*".. "1" Client : references >

Delivery"1".."1" Invoice : references >
@enduml

PlantUML version 1.2020.27beta7(Unknown compile time)
(GPL source distribution)
Java Runtime: Java(TM) SE Runtime Environment
JVM: Java HotSpot(TM) 64-Bit Server VM
Default Encoding: UTF-8
Language: en
Country: US
--></g></svg>