<?xml version="1.0" encoding="UTF-8" standalone="no"?><svg xmlns="http://www.w3.org/2000/svg" xmlns:xlink="http://www.w3.org/1999/xlink" contentScriptType="application/ecmascript" contentStyleType="text/css" height="126px" preserveAspectRatio="none" style="width:609px;height:126px;" version="1.1" viewBox="0 0 609 126" width="609px" zoomAndPan="magnify"><defs><filter height="300%" id="ffnuk44dsecv1" width="300%" x="-1" y="-1"><feGaussianBlur result="blurOut" stdDeviation="2.0"/><feColorMatrix in="blurOut" result="blurOut2" type="matrix" values="0 0 0 0 0 0 0 0 0 0 0 0 0 0 0 0 0 0 .4 0"/><feOffset dx="4.0" dy="4.0" in="blurOut2" result="blurOut3"/><feBlend in="SourceGraphic" in2="blurOut3" mode="normal"/></filter></defs><g><!--MD5=[99b8db98afdc2c8404e39242ef4c1e65]
class Platform--><rect codeLine="6" fill="#FEFECE" filter="url(#ffnuk44dsecv1)" height="40" id="Platform" style="stroke:#A80036;stroke-width:1.5;" width="80" x="7" y="47"/><ellipse cx="22" cy="63" fill="#ADD1B2" rx="11" ry="11" style="stroke:#A80036;stroke-width:1.0;"/><path d="M24.3438,58.6719 C23.4063,58.2344 22.8125,58.0938 21.9375,58.0938 C19.3125,58.0938 17.3125,60.1719 17.3125,62.8906 L17.3125,64.0156 C17.3125,66.5938 19.4219,68.4844 22.3125,68.4844 C23.5313,68.4844 24.6875,68.1875 25.4375,67.6406 C26.0156,67.2344 26.3438,66.7813 26.3438,66.3906 C26.3438,65.9375 25.9531,65.5469 25.4844,65.5469 C25.2656,65.5469 25.0625,65.625 24.875,65.8125 C24.4219,66.2969 24.4219,66.2969 24.2344,66.3906 C23.8125,66.6563 23.125,66.7813 22.3594,66.7813 C20.3125,66.7813 19.0156,65.6875 19.0156,63.9844 L19.0156,62.8906 C19.0156,61.1094 20.2656,59.7969 22,59.7969 C22.5781,59.7969 23.1875,59.9531 23.6563,60.2031 C24.1406,60.4844 24.3125,60.7031 24.4063,61.1094 C24.4688,61.5156 24.5,61.6406 24.6406,61.7656 C24.7813,61.9063 25.0156,62.0156 25.2344,62.0156 C25.5,62.0156 25.7656,61.875 25.9375,61.6563 C26.0469,61.5 26.0781,61.3125 26.0781,60.8906 L26.0781,59.4688 C26.0781,59.0313 26.0625,58.9063 25.9688,58.75 C25.8125,58.4844 25.5313,58.3438 25.2344,58.3438 C24.9375,58.3438 24.7344,58.4375 24.5156,58.75 L24.3438,58.6719 Z " fill="#000000"/><text fill="#000000" font-family="sans-serif" font-size="12" lengthAdjust="spacing" textLength="48" x="36" y="67.1543">Platform</text><line style="stroke:#A80036;stroke-width:1.5;" x1="8" x2="86" y1="79" y2="79"/><!--MD5=[25d27397beb7751a92f927503ed5c06c]
class Administator--><rect codeLine="9" fill="#FEFECE" filter="url(#ffnuk44dsecv1)" height="40" id="Administator" style="stroke:#A80036;stroke-width:1.5;" width="107" x="185" y="7"/><ellipse cx="200" cy="23" fill="#ADD1B2" rx="11" ry="11" style="stroke:#A80036;stroke-width:1.0;"/><path d="M202.3438,18.6719 C201.4063,18.2344 200.8125,18.0938 199.9375,18.0938 C197.3125,18.0938 195.3125,20.1719 195.3125,22.8906 L195.3125,24.0156 C195.3125,26.5938 197.4219,28.4844 200.3125,28.4844 C201.5313,28.4844 202.6875,28.1875 203.4375,27.6406 C204.0156,27.2344 204.3438,26.7813 204.3438,26.3906 C204.3438,25.9375 203.9531,25.5469 203.4844,25.5469 C203.2656,25.5469 203.0625,25.625 202.875,25.8125 C202.4219,26.2969 202.4219,26.2969 202.2344,26.3906 C201.8125,26.6563 201.125,26.7813 200.3594,26.7813 C198.3125,26.7813 197.0156,25.6875 197.0156,23.9844 L197.0156,22.8906 C197.0156,21.1094 198.2656,19.7969 200,19.7969 C200.5781,19.7969 201.1875,19.9531 201.6563,20.2031 C202.1406,20.4844 202.3125,20.7031 202.4063,21.1094 C202.4688,21.5156 202.5,21.6406 202.6406,21.7656 C202.7813,21.9063 203.0156,22.0156 203.2344,22.0156 C203.5,22.0156 203.7656,21.875 203.9375,21.6563 C204.0469,21.5 204.0781,21.3125 204.0781,20.8906 L204.0781,19.4688 C204.0781,19.0313 204.0625,18.9063 203.9688,18.75 C203.8125,18.4844 203.5313,18.3438 203.2344,18.3438 C202.9375,18.3438 202.7344,18.4375 202.5156,18.75 L202.3438,18.6719 Z " fill="#000000"/><text fill="#000000" font-family="sans-serif" font-size="12" lengthAdjust="spacing" textLength="75" x="214" y="27.1543">Administator</text><line style="stroke:#A80036;stroke-width:1.5;" x1="186" x2="291" y1="39" y2="39"/><!--MD5=[c6a2171c11447acbe08a3dfeee0e1710]
class Courier--><rect codeLine="12" fill="#FEFECE" filter="url(#ffnuk44dsecv1)" height="91.2188" id="Courier" style="stroke:#A80036;stroke-width:1.5;" width="179" x="416" y="21.5"/><ellipse cx="479.25" cy="37.5" fill="#ADD1B2" rx="11" ry="11" style="stroke:#A80036;stroke-width:1.0;"/><path d="M481.5938,33.1719 C480.6563,32.7344 480.0625,32.5938 479.1875,32.5938 C476.5625,32.5938 474.5625,34.6719 474.5625,37.3906 L474.5625,38.5156 C474.5625,41.0938 476.6719,42.9844 479.5625,42.9844 C480.7813,42.9844 481.9375,42.6875 482.6875,42.1406 C483.2656,41.7344 483.5938,41.2813 483.5938,40.8906 C483.5938,40.4375 483.2031,40.0469 482.7344,40.0469 C482.5156,40.0469 482.3125,40.125 482.125,40.3125 C481.6719,40.7969 481.6719,40.7969 481.4844,40.8906 C481.0625,41.1563 480.375,41.2813 479.6094,41.2813 C477.5625,41.2813 476.2656,40.1875 476.2656,38.4844 L476.2656,37.3906 C476.2656,35.6094 477.5156,34.2969 479.25,34.2969 C479.8281,34.2969 480.4375,34.4531 480.9063,34.7031 C481.3906,34.9844 481.5625,35.2031 481.6563,35.6094 C481.7188,36.0156 481.75,36.1406 481.8906,36.2656 C482.0313,36.4063 482.2656,36.5156 482.4844,36.5156 C482.75,36.5156 483.0156,36.375 483.1875,36.1563 C483.2969,36 483.3281,35.8125 483.3281,35.3906 L483.3281,33.9688 C483.3281,33.5313 483.3125,33.4063 483.2188,33.25 C483.0625,32.9844 482.7813,32.8438 482.4844,32.8438 C482.1875,32.8438 481.9844,32.9375 481.7656,33.25 L481.5938,33.1719 Z " fill="#000000"/><text fill="#000000" font-family="sans-serif" font-size="12" lengthAdjust="spacing" textLength="44" x="499.75" y="41.6543">Courier</text><line style="stroke:#A80036;stroke-width:1.5;" x1="417" x2="594" y1="53.5" y2="53.5"/><text fill="#000000" font-family="sans-serif" font-size="11" lengthAdjust="spacing" textLength="74" x="422" y="67.7104">-String name</text><text fill="#000000" font-family="sans-serif" font-size="11" lengthAdjust="spacing" textLength="58" x="422" y="80.5151">-String NIF</text><text fill="#000000" font-family="sans-serif" font-size="11" lengthAdjust="spacing" textLength="167" x="422" y="93.3198">-String SocialSecurityNumber</text><text fill="#000000" font-family="sans-serif" font-size="11" lengthAdjust="spacing" textLength="73" x="422" y="106.1245">-String email</text><!--MD5=[adc9222e597a9dc9a64df6764d4713a9]
link Platform to Administator--><path codeLine="20" d="M87.2645,58.712 C115.559,52.7394 154.047,44.6154 184.983,38.0854 " fill="none" id="Platform-Administator" style="stroke:#A80036;stroke-width:1.0;"/><polygon fill="#000000" points="126.8922,35.5338,117.4351,34.5263,118.6491,40.2774,126.8922,35.5338" style="stroke:#000000;stroke-width:1.0;"/><text fill="#000000" font-family="sans-serif" font-size="13" lengthAdjust="spacing" textLength="23" x="131" y="41.0669">has</text><text fill="#000000" font-family="sans-serif" font-size="13" lengthAdjust="spacing" textLength="8" x="94.8725" y="70.6549">1</text><text fill="#000000" font-family="sans-serif" font-size="13" lengthAdjust="spacing" textLength="7" x="169.965" y="52.7752">*</text><!--MD5=[f0cfa747e910e280deb3c434245f2238]
link Platform to Courier--><path codeLine="21" d="M87.1897,72.0755 C114.543,75.3551 151.93,79.3147 185,81 C263.046,84.9774 351.852,80.3492 415.994,75.3759 " fill="none" id="Platform-Courier" style="stroke:#A80036;stroke-width:1.0;"/><polygon fill="#000000" points="229.4997,72.6166,220.4846,69.587,220.4256,75.4646,229.4997,72.6166" style="stroke:#000000;stroke-width:1.0;"/><text fill="#000000" font-family="sans-serif" font-size="13" lengthAdjust="spacing" textLength="23" x="233.5" y="77.0669">has</text><text fill="#000000" font-family="sans-serif" font-size="13" lengthAdjust="spacing" textLength="8" x="95.061" y="86.3942">1</text><text fill="#000000" font-family="sans-serif" font-size="13" lengthAdjust="spacing" textLength="7" x="401.0013" y="88.8034">*</text><!--MD5=[40e5d4ff122e1853bd00673e03411a8e]
link Administator to Courier--><path codeLine="23" d="M292.172,34.9505 C327.493,40.2819 374.878,47.4345 415.924,53.63 " fill="none" id="Administator-Courier" style="stroke:#A80036;stroke-width:1.0;"/><polygon fill="#000000" points="331.944,32.3127,323.4389,28.0567,322.5616,33.8687,331.944,32.3127" style="stroke:#000000;stroke-width:1.0;"/><text fill="#000000" font-family="sans-serif" font-size="13" lengthAdjust="spacing" textLength="49" x="336" y="36.0669">register</text><text fill="#000000" font-family="sans-serif" font-size="13" lengthAdjust="spacing" textLength="8" x="299.9217" y="49.1025">1</text><text fill="#000000" font-family="sans-serif" font-size="13" lengthAdjust="spacing" textLength="7" x="400.9253" y="65.1887">*</text><!--MD5=[15ee27070538612d5e1322317649b5df]
@startuml
skinparam classAttributeIconSize 0
hide methods
left to right direction


class Platform{
}

class Administator{
}

class Courier {
  -String name
  -String NIF
  -String SocialSecurityNumber
  -String email
}


Platform"1" - - "*"Administator : has >
Platform"1" - - "*"Courier : has >

Administator "1" - - "*" Courier : register >
@enduml

PlantUML version 1.2020.27beta7(Unknown compile time)
(GPL source distribution)
Java Runtime: Java(TM) SE Runtime Environment
JVM: Java HotSpot(TM) 64-Bit Server VM
Default Encoding: UTF-8
Language: en
Country: US
--></g></svg>