<?xml version="1.0" encoding="UTF-8" standalone="no"?><svg xmlns="http://www.w3.org/2000/svg" xmlns:xlink="http://www.w3.org/1999/xlink" contentScriptType="application/ecmascript" contentStyleType="text/css" height="382px" preserveAspectRatio="none" style="width:444px;height:382px;" version="1.1" viewBox="0 0 444 382" width="444px" zoomAndPan="magnify"><defs><filter height="300%" id="fxhvi7fm0l7l7" width="300%" x="-1" y="-1"><feGaussianBlur result="blurOut" stdDeviation="2.0"/><feColorMatrix in="blurOut" result="blurOut2" type="matrix" values="0 0 0 0 0 0 0 0 0 0 0 0 0 0 0 0 0 0 .4 0"/><feOffset dx="4.0" dy="4.0" in="blurOut2" result="blurOut3"/><feBlend in="SourceGraphic" in2="blurOut3" mode="normal"/></filter></defs><g><rect fill="#FFFFFF" filter="url(#fxhvi7fm0l7l7)" height="181.9297" style="stroke:#A80036;stroke-width:1.0;" width="10" x="48.5" y="98.2969"/><rect fill="#FFFFFF" filter="url(#fxhvi7fm0l7l7)" height="44.2656" style="stroke:#A80036;stroke-width:1.0;" width="10" x="392.5" y="119.4297"/><rect fill="#FFFFFF" filter="url(#fxhvi7fm0l7l7)" height="29.1328" style="stroke:#A80036;stroke-width:1.0;" width="10" x="392.5" y="192.8281"/><rect fill="#FFFFFF" filter="url(#fxhvi7fm0l7l7)" height="29.1328" style="stroke:#A80036;stroke-width:1.0;" width="10" x="392.5" y="251.0938"/><line style="stroke:#A80036;stroke-width:1.0;stroke-dasharray:5.0,5.0;" x1="53" x2="53" y1="88.2969" y2="298.2266"/><line style="stroke:#A80036;stroke-width:1.0;stroke-dasharray:5.0,5.0;" x1="397.5" x2="397.5" y1="88.2969" y2="298.2266"/><text fill="#000000" font-family="sans-serif" font-size="14" lengthAdjust="spacingAndGlyphs" textLength="91" x="5" y="84.9951">Administrator</text><ellipse cx="53.5" cy="15" fill="#FEFECE" filter="url(#fxhvi7fm0l7l7)" rx="8" ry="8" style="stroke:#A80036;stroke-width:2.0;"/><path d="M53.5,23 L53.5,50 M40.5,31 L66.5,31 M53.5,50 L40.5,65 M53.5,50 L66.5,65 " fill="none" filter="url(#fxhvi7fm0l7l7)" style="stroke:#A80036;stroke-width:2.0;"/><text fill="#000000" font-family="sans-serif" font-size="14" lengthAdjust="spacingAndGlyphs" textLength="91" x="5" y="310.2217">Administrator</text><ellipse cx="53.5" cy="323.5234" fill="#FEFECE" filter="url(#fxhvi7fm0l7l7)" rx="8" ry="8" style="stroke:#A80036;stroke-width:2.0;"/><path d="M53.5,331.5234 L53.5,358.5234 M40.5,339.5234 L66.5,339.5234 M53.5,358.5234 L40.5,373.5234 M53.5,358.5234 L66.5,373.5234 " fill="none" filter="url(#fxhvi7fm0l7l7)" style="stroke:#A80036;stroke-width:2.0;"/><rect fill="#FEFECE" filter="url(#fxhvi7fm0l7l7)" height="30.2969" style="stroke:#A80036;stroke-width:1.5;" width="70" x="360.5" y="53"/><text fill="#000000" font-family="sans-serif" font-size="14" lengthAdjust="spacingAndGlyphs" textLength="56" x="367.5" y="72.9951">:System</text><rect fill="#FEFECE" filter="url(#fxhvi7fm0l7l7)" height="30.2969" style="stroke:#A80036;stroke-width:1.5;" width="70" x="360.5" y="297.2266"/><text fill="#000000" font-family="sans-serif" font-size="14" lengthAdjust="spacingAndGlyphs" textLength="56" x="367.5" y="317.2217">:System</text><rect fill="#FFFFFF" filter="url(#fxhvi7fm0l7l7)" height="181.9297" style="stroke:#A80036;stroke-width:1.0;" width="10" x="48.5" y="98.2969"/><rect fill="#FFFFFF" filter="url(#fxhvi7fm0l7l7)" height="44.2656" style="stroke:#A80036;stroke-width:1.0;" width="10" x="392.5" y="119.4297"/><rect fill="#FFFFFF" filter="url(#fxhvi7fm0l7l7)" height="29.1328" style="stroke:#A80036;stroke-width:1.0;" width="10" x="392.5" y="192.8281"/><rect fill="#FFFFFF" filter="url(#fxhvi7fm0l7l7)" height="29.1328" style="stroke:#A80036;stroke-width:1.0;" width="10" x="392.5" y="251.0938"/><polygon fill="#A80036" points="380.5,115.4297,390.5,119.4297,380.5,123.4297,384.5,119.4297" style="stroke:#A80036;stroke-width:1.0;"/><line style="stroke:#A80036;stroke-width:1.0;" x1="58.5" x2="386.5" y1="119.4297" y2="119.4297"/><text fill="#000000" font-family="sans-serif" font-size="13" font-weight="bold" lengthAdjust="spacingAndGlyphs" textLength="9" x="65.5" y="114.3638">1</text><text fill="#000000" font-family="sans-serif" font-size="13" lengthAdjust="spacingAndGlyphs" textLength="97" x="78.5" y="114.3638">register courier</text><polygon fill="#A80036" points="69.5,159.6953,59.5,163.6953,69.5,167.6953,65.5,163.6953" style="stroke:#A80036;stroke-width:1.0;"/><line style="stroke:#A80036;stroke-width:1.0;stroke-dasharray:2.0,2.0;" x1="63.5" x2="396.5" y1="163.6953" y2="163.6953"/><text fill="#000000" font-family="sans-serif" font-size="13" font-weight="bold" lengthAdjust="spacingAndGlyphs" textLength="9" x="75.5" y="151.063">2</text><text fill="#000000" font-family="sans-serif" font-size="13" lengthAdjust="spacingAndGlyphs" textLength="222" x="88.5" y="143.4966">asks for the data about the courier</text><text fill="#000000" font-family="sans-serif" font-size="13" lengthAdjust="spacingAndGlyphs" textLength="297" x="88.5" y="158.6294">(i.e. name, NIF, Social Security number, email)</text><polygon fill="#A80036" points="380.5,188.8281,390.5,192.8281,380.5,196.8281,384.5,192.8281" style="stroke:#A80036;stroke-width:1.0;"/><line style="stroke:#A80036;stroke-width:1.0;" x1="58.5" x2="386.5" y1="192.8281" y2="192.8281"/><text fill="#000000" font-family="sans-serif" font-size="13" font-weight="bold" lengthAdjust="spacingAndGlyphs" textLength="9" x="65.5" y="187.7622">3</text><text fill="#000000" font-family="sans-serif" font-size="13" lengthAdjust="spacingAndGlyphs" textLength="168" x="78.5" y="187.7622">enters the requested data</text><polygon fill="#A80036" points="69.5,217.9609,59.5,221.9609,69.5,225.9609,65.5,221.9609" style="stroke:#A80036;stroke-width:1.0;"/><line style="stroke:#A80036;stroke-width:1.0;stroke-dasharray:2.0,2.0;" x1="63.5" x2="396.5" y1="221.9609" y2="221.9609"/><text fill="#000000" font-family="sans-serif" font-size="13" font-weight="bold" lengthAdjust="spacingAndGlyphs" textLength="9" x="75.5" y="216.895">4</text><text fill="#000000" font-family="sans-serif" font-size="13" lengthAdjust="spacingAndGlyphs" textLength="242" x="88.5" y="216.895">displays the data, asking confirmation</text><polygon fill="#A80036" points="380.5,247.0938,390.5,251.0938,380.5,255.0938,384.5,251.0938" style="stroke:#A80036;stroke-width:1.0;"/><line style="stroke:#A80036;stroke-width:1.0;" x1="58.5" x2="386.5" y1="251.0938" y2="251.0938"/><text fill="#000000" font-family="sans-serif" font-size="13" font-weight="bold" lengthAdjust="spacingAndGlyphs" textLength="9" x="65.5" y="246.0278">5</text><text fill="#000000" font-family="sans-serif" font-size="13" lengthAdjust="spacingAndGlyphs" textLength="55" x="78.5" y="246.0278">confirms</text><polygon fill="#A80036" points="64.5,276.2266,54.5,280.2266,64.5,284.2266,60.5,280.2266" style="stroke:#A80036;stroke-width:1.0;"/><line style="stroke:#A80036;stroke-width:1.0;stroke-dasharray:2.0,2.0;" x1="58.5" x2="396.5" y1="280.2266" y2="280.2266"/><text fill="#000000" font-family="sans-serif" font-size="13" font-weight="bold" lengthAdjust="spacingAndGlyphs" textLength="9" x="70.5" y="275.1606">6</text><text fill="#000000" font-family="sans-serif" font-size="13" lengthAdjust="spacingAndGlyphs" textLength="116" x="83.5" y="275.1606">operation success</text><!--MD5=[80db1e8e4e12903e218ca28e9cdfde6e]
@startuml
autonumber
actor "Administrator" as UNR

activate UNR
UNR -> ":System" : register courier
activate ":System"
":System" - -> UNR : asks for the data about the courier \n(i.e. name, NIF, Social Security number, email)
deactivate ":System"

UNR -> ":System" : enters the requested data
activate ":System"
":System" - -> UNR : displays the data, asking confirmation
deactivate ":System"

UNR -> ":System" : confirms
activate ":System"
":System" - -> UNR : operation success
deactivate ":System"

deactivate UNR
@enduml

PlantUML version 1.2020.22(Sun Dec 06 09:36:27 UTC 2020)
(GPL source distribution)
Java Runtime: OpenJDK Runtime Environment
JVM: OpenJDK 64-Bit Server VM
Default Encoding: UTF-8
Language: en
Country: US
--></g></svg>