<?xml version="1.0" encoding="UTF-8" standalone="no"?><svg xmlns="http://www.w3.org/2000/svg" xmlns:xlink="http://www.w3.org/1999/xlink" contentScriptType="application/ecmascript" contentStyleType="text/css" height="675px" preserveAspectRatio="none" style="width:351px;height:675px;" version="1.1" viewBox="0 0 351 675" width="351px" zoomAndPan="magnify"><defs><filter height="300%" id="fh4kiuq40qv0h" width="300%" x="-1" y="-1"><feGaussianBlur result="blurOut" stdDeviation="2.0"/><feColorMatrix in="blurOut" result="blurOut2" type="matrix" values="0 0 0 0 0 0 0 0 0 0 0 0 0 0 0 0 0 0 .4 0"/><feOffset dx="4.0" dy="4.0" in="blurOut2" result="blurOut3"/><feBlend in="SourceGraphic" in2="blurOut3" mode="normal"/></filter></defs><g><!--MD5=[c365f98fde6e762b4385e710efedc7b8]
class RegisterCourierUI--><rect codeLine="3" fill="#FEFECE" filter="url(#fh4kiuq40qv0h)" height="48" id="RegisterCourierUI" style="stroke:#A80036;stroke-width:1.5;" width="141" x="101.5" y="7"/><ellipse cx="116.5" cy="23" fill="#ADD1B2" rx="11" ry="11" style="stroke:#A80036;stroke-width:1.0;"/><path d="M119.4688,28.6406 Q118.8906,28.9375 118.25,29.0781 Q117.6094,29.2344 116.9063,29.2344 Q114.4063,29.2344 113.0781,27.5938 Q111.7656,25.9375 111.7656,22.8125 Q111.7656,19.6875 113.0781,18.0313 Q114.4063,16.375 116.9063,16.375 Q117.6094,16.375 118.25,16.5313 Q118.9063,16.6875 119.4688,16.9844 L119.4688,19.7031 Q118.8438,19.125 118.25,18.8594 Q117.6563,18.5781 117.0313,18.5781 Q115.6875,18.5781 115,19.6563 Q114.3125,20.7188 114.3125,22.8125 Q114.3125,24.9063 115,25.9844 Q115.6875,27.0469 117.0313,27.0469 Q117.6563,27.0469 118.25,26.7813 Q118.8438,26.5 119.4688,25.9219 L119.4688,28.6406 Z " fill="#000000"/><text fill="#000000" font-family="sans-serif" font-size="12" lengthAdjust="spacingAndGlyphs" textLength="109" x="130.5" y="27.1543">RegisterCourierUI</text><line style="stroke:#A80036;stroke-width:1.5;" x1="102.5" x2="241.5" y1="39" y2="39"/><line style="stroke:#A80036;stroke-width:1.5;" x1="102.5" x2="241.5" y1="47" y2="47"/><!--MD5=[4eb0c4884421df88d70952c6803fb262]
class RegisterCourierController--><rect codeLine="6" fill="#FEFECE" filter="url(#fh4kiuq40qv0h)" height="73.6094" id="RegisterCourierController" style="stroke:#A80036;stroke-width:1.5;" width="330" x="7" y="116"/><ellipse cx="88.75" cy="132" fill="#ADD1B2" rx="11" ry="11" style="stroke:#A80036;stroke-width:1.0;"/><path d="M91.7188,137.6406 Q91.1406,137.9375 90.5,138.0781 Q89.8594,138.2344 89.1563,138.2344 Q86.6563,138.2344 85.3281,136.5938 Q84.0156,134.9375 84.0156,131.8125 Q84.0156,128.6875 85.3281,127.0313 Q86.6563,125.375 89.1563,125.375 Q89.8594,125.375 90.5,125.5313 Q91.1563,125.6875 91.7188,125.9844 L91.7188,128.7031 Q91.0938,128.125 90.5,127.8594 Q89.9063,127.5781 89.2813,127.5781 Q87.9375,127.5781 87.25,128.6563 Q86.5625,129.7188 86.5625,131.8125 Q86.5625,133.9063 87.25,134.9844 Q87.9375,136.0469 89.2813,136.0469 Q89.9063,136.0469 90.5,135.7813 Q91.0938,135.5 91.7188,134.9219 L91.7188,137.6406 Z " fill="#000000"/><text fill="#000000" font-family="sans-serif" font-size="12" lengthAdjust="spacingAndGlyphs" textLength="158" x="109.25" y="136.1543">RegisterCourierController</text><line style="stroke:#A80036;stroke-width:1.5;" x1="8" x2="336" y1="148" y2="148"/><line style="stroke:#A80036;stroke-width:1.5;" x1="8" x2="336" y1="156" y2="156"/><text fill="#000000" font-family="sans-serif" font-size="11" lengthAdjust="spacingAndGlyphs" textLength="318" x="13" y="170.2104">+newCourier(name, NIF, Social Security number, email)</text><text fill="#000000" font-family="sans-serif" font-size="11" lengthAdjust="spacingAndGlyphs" textLength="122" x="13" y="183.0151">+registerFreelancer()</text><!--MD5=[99b8db98afdc2c8404e39242ef4c1e65]
class Platform--><rect codeLine="11" fill="#FEFECE" filter="url(#fh4kiuq40qv0h)" height="60.8047" id="Platform" style="stroke:#A80036;stroke-width:1.5;" width="109" x="63.5" y="251"/><ellipse cx="89.75" cy="267" fill="#ADD1B2" rx="11" ry="11" style="stroke:#A80036;stroke-width:1.0;"/><path d="M92.7188,272.6406 Q92.1406,272.9375 91.5,273.0781 Q90.8594,273.2344 90.1563,273.2344 Q87.6563,273.2344 86.3281,271.5938 Q85.0156,269.9375 85.0156,266.8125 Q85.0156,263.6875 86.3281,262.0313 Q87.6563,260.375 90.1563,260.375 Q90.8594,260.375 91.5,260.5313 Q92.1563,260.6875 92.7188,260.9844 L92.7188,263.7031 Q92.0938,263.125 91.5,262.8594 Q90.9063,262.5781 90.2813,262.5781 Q88.9375,262.5781 88.25,263.6563 Q87.5625,264.7188 87.5625,266.8125 Q87.5625,268.9063 88.25,269.9844 Q88.9375,271.0469 90.2813,271.0469 Q90.9063,271.0469 91.5,270.7813 Q92.0938,270.5 92.7188,269.9219 L92.7188,272.6406 Z " fill="#000000"/><text fill="#000000" font-family="sans-serif" font-size="12" lengthAdjust="spacingAndGlyphs" textLength="52" x="106.25" y="271.1543">Platform</text><line style="stroke:#A80036;stroke-width:1.5;" x1="64.5" x2="171.5" y1="283" y2="283"/><line style="stroke:#A80036;stroke-width:1.5;" x1="64.5" x2="171.5" y1="291" y2="291"/><text fill="#000000" font-family="sans-serif" font-size="11" lengthAdjust="spacingAndGlyphs" textLength="97" x="69.5" y="305.2104">+getCourierList()</text><!--MD5=[455f4d4a84b1567ee96d7dad078f1422]
class CourierList--><rect codeLine="15" fill="#FEFECE" filter="url(#fh4kiuq40qv0h)" height="112.0234" id="CourierList" style="stroke:#A80036;stroke-width:1.5;" width="330" x="7" y="373"/><ellipse cx="134.75" cy="389" fill="#ADD1B2" rx="11" ry="11" style="stroke:#A80036;stroke-width:1.0;"/><path d="M137.7188,394.6406 Q137.1406,394.9375 136.5,395.0781 Q135.8594,395.2344 135.1563,395.2344 Q132.6563,395.2344 131.3281,393.5938 Q130.0156,391.9375 130.0156,388.8125 Q130.0156,385.6875 131.3281,384.0313 Q132.6563,382.375 135.1563,382.375 Q135.8594,382.375 136.5,382.5313 Q137.1563,382.6875 137.7188,382.9844 L137.7188,385.7031 Q137.0938,385.125 136.5,384.8594 Q135.9063,384.5781 135.2813,384.5781 Q133.9375,384.5781 133.25,385.6563 Q132.5625,386.7188 132.5625,388.8125 Q132.5625,390.9063 133.25,391.9844 Q133.9375,393.0469 135.2813,393.0469 Q135.9063,393.0469 136.5,392.7813 Q137.0938,392.5 137.7188,391.9219 L137.7188,394.6406 Z " fill="#000000"/><text fill="#000000" font-family="sans-serif" font-size="12" lengthAdjust="spacingAndGlyphs" textLength="66" x="155.25" y="393.1543">CourierList</text><line style="stroke:#A80036;stroke-width:1.5;" x1="8" x2="336" y1="405" y2="405"/><line style="stroke:#A80036;stroke-width:1.5;" x1="8" x2="336" y1="413" y2="413"/><text fill="#000000" font-family="sans-serif" font-size="11" lengthAdjust="spacingAndGlyphs" textLength="318" x="13" y="427.2104">+newCourier(name, NIF, Social Security number, email)</text><text fill="#000000" font-family="sans-serif" font-size="11" lengthAdjust="spacingAndGlyphs" textLength="128" x="13" y="440.0151">+validateCourier(cour)</text><text fill="#000000" font-family="sans-serif" font-size="11" lengthAdjust="spacingAndGlyphs" textLength="129" x="13" y="452.8198">+registerCourier(cour)</text><text fill="#000000" font-family="sans-serif" font-size="11" lengthAdjust="spacingAndGlyphs" textLength="128" x="13" y="465.6245">+validateCourier(cour)</text><text fill="#000000" font-family="sans-serif" font-size="11" lengthAdjust="spacingAndGlyphs" textLength="105" x="13" y="478.4292">+addCourier(cour)</text><!--MD5=[c6a2171c11447acbe08a3dfeee0e1710]
class Courier--><rect codeLine="23" fill="#FEFECE" filter="url(#fh4kiuq40qv0h)" height="99.2188" id="Courier" style="stroke:#A80036;stroke-width:1.5;" width="159" x="92.5" y="562"/><ellipse cx="145.25" cy="578" fill="#ADD1B2" rx="11" ry="11" style="stroke:#A80036;stroke-width:1.0;"/><path d="M148.2188,583.6406 Q147.6406,583.9375 147,584.0781 Q146.3594,584.2344 145.6563,584.2344 Q143.1563,584.2344 141.8281,582.5938 Q140.5156,580.9375 140.5156,577.8125 Q140.5156,574.6875 141.8281,573.0313 Q143.1563,571.375 145.6563,571.375 Q146.3594,571.375 147,571.5313 Q147.6563,571.6875 148.2188,571.9844 L148.2188,574.7031 Q147.5938,574.125 147,573.8594 Q146.4063,573.5781 145.7813,573.5781 Q144.4375,573.5781 143.75,574.6563 Q143.0625,575.7188 143.0625,577.8125 Q143.0625,579.9063 143.75,580.9844 Q144.4375,582.0469 145.7813,582.0469 Q146.4063,582.0469 147,581.7813 Q147.5938,581.5 148.2188,580.9219 L148.2188,583.6406 Z " fill="#000000"/><text fill="#000000" font-family="sans-serif" font-size="12" lengthAdjust="spacingAndGlyphs" textLength="45" x="165.75" y="582.1543">Courier</text><line style="stroke:#A80036;stroke-width:1.5;" x1="93.5" x2="250.5" y1="594" y2="594"/><text fill="#000000" font-family="sans-serif" font-size="11" lengthAdjust="spacingAndGlyphs" textLength="74" x="98.5" y="608.2104">-String name</text><text fill="#000000" font-family="sans-serif" font-size="11" lengthAdjust="spacingAndGlyphs" textLength="39" x="98.5" y="621.0151">-int NIF</text><text fill="#000000" font-family="sans-serif" font-size="11" lengthAdjust="spacingAndGlyphs" textLength="147" x="98.5" y="633.8198">-int SocialSecurityNumber</text><text fill="#000000" font-family="sans-serif" font-size="11" lengthAdjust="spacingAndGlyphs" textLength="73" x="98.5" y="646.6245">-String email</text><line style="stroke:#A80036;stroke-width:1.5;" x1="93.5" x2="250.5" y1="653.2188" y2="653.2188"/><!--MD5=[fbe36f4f0629c0e5b3af8fecd61c50b1]
link RegisterCourierUI to RegisterCourierController--><path codeLine="30" d="M172,55.1033 C172,70.972 172,92.1768 172,110.7934 " fill="none" id="RegisterCourierUI-to-RegisterCourierController" style="stroke:#A80036;stroke-width:1.0;stroke-dasharray:7.0,7.0;"/><polygon fill="#A80036" points="172,115.9691,176,106.9691,172,110.9691,168,106.9691,172,115.9691" style="stroke:#A80036;stroke-width:1.0;"/><!--MD5=[216a4a785881ea8fb285cd6d0dfc805d]
link RegisterCourierController to Platform--><path codeLine="32" d="M156.381,190.1675 C148.9782,207.7833 140.1784,228.7237 132.8734,246.1069 " fill="none" id="RegisterCourierController-to-Platform" style="stroke:#A80036;stroke-width:1.0;stroke-dasharray:7.0,7.0;"/><polygon fill="#A80036" points="130.855,250.9098,138.0294,244.1624,132.7921,246.3003,130.6542,241.063,130.855,250.9098" style="stroke:#A80036;stroke-width:1.0;"/><!--MD5=[cd7302385626b6cdb21b83319b3b5300]
link RegisterCourierController to CourierList--><path codeLine="33" d="M180.4386,190.0092 C184.1796,208.2624 188.1486,230.6719 190,251 C193.5443,289.9168 189.2574,333.5739 183.9806,367.9125 " fill="none" id="RegisterCourierController-to-CourierList" style="stroke:#A80036;stroke-width:1.0;stroke-dasharray:7.0,7.0;"/><polygon fill="#A80036" points="183.1957,372.9095,188.544,364.6394,183.9717,367.9701,180.641,363.3978,183.1957,372.9095" style="stroke:#A80036;stroke-width:1.0;"/><!--MD5=[8e112e2feda94a7cb4dd2e8be9e487fa]
link Platform to CourierList--><path codeLine="35" d="M129.1888,312.0621 C135.1125,328.2424 142.6038,348.7048 149.6578,367.9726 " fill="none" id="Platform-to-CourierList" style="stroke:#A80036;stroke-width:1.0;"/><polygon fill="#A80036" points="151.4405,372.8421,152.1024,363.0155,149.7215,368.1469,144.5901,365.7659,151.4405,372.8421" style="stroke:#A80036;stroke-width:1.0;"/><text fill="#000000" font-family="sans-serif" font-size="13" lengthAdjust="spacingAndGlyphs" textLength="8" x="122.6715" y="332.0131">1</text><text fill="#000000" font-family="sans-serif" font-size="13" lengthAdjust="spacingAndGlyphs" textLength="8" x="140.2938" y="361.7598">1</text><!--MD5=[d5df135ac96a6f2d61014a7165561be8]
link CourierList to Courier--><path codeLine="37" d="M172,485.2452 C172,509.7525 172,538.2304 172,561.9305 " fill="none" id="CourierList-Courier" style="stroke:#A80036;stroke-width:1.0;"/><text fill="#000000" font-family="sans-serif" font-size="13" lengthAdjust="spacingAndGlyphs" textLength="34" x="173" y="528.0669">has&gt;</text><text fill="#000000" font-family="sans-serif" font-size="13" lengthAdjust="spacingAndGlyphs" textLength="8" x="163.5125" y="505.0877">1</text><text fill="#000000" font-family="sans-serif" font-size="13" lengthAdjust="spacingAndGlyphs" textLength="23" x="147.3828" y="550.966">1..*</text><!--MD5=[16ef6d1ccd0ec39c9bb98460a881e347]
@startuml
skinparam classAttributeIconSize 0

class RegisterCourierUI {
}

class RegisterCourierController {
  +newCourier(name, NIF, Social Security number, email)
  +registerFreelancer()
}

class Platform {
  + getCourierList()
}

class CourierList {
  +newCourier(name, NIF, Social Security number, email)
  +validateCourier(cour)
  +registerCourier(cour)
  +validateCourier(cour)
  +addCourier(cour)
}

class Courier{
  -String name
  -int NIF
  -int SocialSecurityNumber
  -String email
}

RegisterCourierUI ..> RegisterCourierController

RegisterCourierController ..> Platform
RegisterCourierController ..> CourierList

Platform "1" - -> "1" CourierList

CourierList "1" - - "1..*" Courier : has>
@enduml

PlantUML version 1.2020.22(Sun Dec 06 09:36:27 UTC 2020)
(GPL source distribution)
Java Runtime: OpenJDK Runtime Environment
JVM: OpenJDK 64-Bit Server VM
Default Encoding: UTF-8
Language: en
Country: US
--></g></svg>