<?xml version="1.0" encoding="UTF-8" standalone="no"?><svg xmlns="http://www.w3.org/2000/svg" xmlns:xlink="http://www.w3.org/1999/xlink" contentScriptType="application/ecmascript" contentStyleType="text/css" height="448px" preserveAspectRatio="none" style="width:821px;height:448px;background:#FFFFFF;" version="1.1" viewBox="0 0 821 448" width="821px" zoomAndPan="magnify"><defs><filter height="300%" id="f195qd8cnpqati" width="300%" x="-1" y="-1"><feGaussianBlur result="blurOut" stdDeviation="2.0"/><feColorMatrix in="blurOut" result="blurOut2" type="matrix" values="0 0 0 0 0 0 0 0 0 0 0 0 0 0 0 0 0 0 .4 0"/><feOffset dx="4.0" dy="4.0" in="blurOut2" result="blurOut3"/><feBlend in="SourceGraphic" in2="blurOut3" mode="normal"/></filter></defs><g><rect fill="#FFFFFF" filter="url(#f195qd8cnpqati)" height="261.0625" style="stroke:#A80036;stroke-width:1.0;" width="10" x="67.5" y="93.5938"/><rect fill="#FFFFFF" filter="url(#f195qd8cnpqati)" height="239.9297" style="stroke:#A80036;stroke-width:1.0;" width="10" x="245" y="114.7266"/><rect fill="#FFFFFF" filter="url(#f195qd8cnpqati)" height="29.1328" style="stroke:#A80036;stroke-width:1.0;" width="10" x="435.5" y="172.9922"/><rect fill="#FFFFFF" filter="url(#f195qd8cnpqati)" height="29.1328" style="stroke:#A80036;stroke-width:1.0;" width="10" x="595.5" y="202.125"/><rect fill="#FFFFFF" filter="url(#f195qd8cnpqati)" height="58.2656" style="stroke:#A80036;stroke-width:1.0;" width="10" x="745" y="231.2578"/><line style="stroke:#A80036;stroke-width:1.0;stroke-dasharray:5.0,5.0;" x1="72" x2="72" y1="83.5938" y2="363.6563"/><line style="stroke:#A80036;stroke-width:1.0;stroke-dasharray:5.0,5.0;" x1="250" x2="250" y1="83.5938" y2="363.6563"/><line style="stroke:#A80036;stroke-width:1.0;stroke-dasharray:5.0,5.0;" x1="440" x2="440" y1="83.5938" y2="363.6563"/><line style="stroke:#A80036;stroke-width:1.0;stroke-dasharray:5.0,5.0;" x1="600" x2="600" y1="83.5938" y2="363.6563"/><line style="stroke:#A80036;stroke-width:1.0;stroke-dasharray:5.0,5.0;" x1="750" x2="750" y1="83.5938" y2="363.6563"/><rect fill="#FEFECE" filter="url(#f195qd8cnpqati)" height="46.5938" style="stroke:#A80036;stroke-width:1.5;" width="131" x="5" y="32"/><text fill="#000000" font-family="sans-serif" font-size="14" font-style="italic" lengthAdjust="spacing" textLength="108" x="16.5" y="51.9951">«presentation»</text><text fill="#000000" font-family="sans-serif" font-size="14" lengthAdjust="spacing" textLength="117" x="12" y="68.292">AssignCriticityUI</text><rect fill="#FEFECE" filter="url(#f195qd8cnpqati)" height="46.5938" style="stroke:#A80036;stroke-width:1.5;" width="131" x="5" y="362.6563"/><text fill="#000000" font-family="sans-serif" font-size="14" font-style="italic" lengthAdjust="spacing" textLength="108" x="16.5" y="382.6514">«presentation»</text><text fill="#000000" font-family="sans-serif" font-size="14" lengthAdjust="spacing" textLength="117" x="12" y="398.9482">AssignCriticityUI</text><rect fill="#FEFECE" filter="url(#f195qd8cnpqati)" height="46.5938" style="stroke:#A80036;stroke-width:1.5;" width="196" x="150" y="32"/><text fill="#000000" font-family="sans-serif" font-size="14" font-style="italic" lengthAdjust="spacing" textLength="97" x="199.5" y="51.9951">«application»</text><text fill="#000000" font-family="sans-serif" font-size="14" lengthAdjust="spacing" textLength="182" x="157" y="68.292">AssignCriticallyController</text><rect fill="#FEFECE" filter="url(#f195qd8cnpqati)" height="46.5938" style="stroke:#A80036;stroke-width:1.5;" width="196" x="150" y="362.6563"/><text fill="#000000" font-family="sans-serif" font-size="14" font-style="italic" lengthAdjust="spacing" textLength="97" x="199.5" y="382.6514">«application»</text><text fill="#000000" font-family="sans-serif" font-size="14" lengthAdjust="spacing" textLength="182" x="157" y="398.9482">AssignCriticallyController</text><rect fill="#FEFECE" filter="url(#f195qd8cnpqati)" height="46.5938" style="stroke:#A80036;stroke-width:1.5;" width="157" x="360" y="32"/><text fill="#000000" font-family="sans-serif" font-size="14" font-style="italic" lengthAdjust="spacing" textLength="99" x="389" y="51.9951">«Persistence»</text><text fill="#000000" font-family="sans-serif" font-size="14" lengthAdjust="spacing" textLength="143" x="367" y="68.292">PersistenceContext</text><rect fill="#FEFECE" filter="url(#f195qd8cnpqati)" height="46.5938" style="stroke:#A80036;stroke-width:1.5;" width="157" x="360" y="362.6563"/><text fill="#000000" font-family="sans-serif" font-size="14" font-style="italic" lengthAdjust="spacing" textLength="99" x="389" y="382.6514">«Persistence»</text><text fill="#000000" font-family="sans-serif" font-size="14" lengthAdjust="spacing" textLength="143" x="367" y="398.9482">PersistenceContext</text><text fill="#000000" font-family="sans-serif" font-size="14" font-style="italic" lengthAdjust="spacing" textLength="90" x="552.5" y="63.9951">«repository»</text><text fill="#000000" font-family="sans-serif" font-size="14" lengthAdjust="spacing" textLength="133" x="531" y="80.292">RepositoryFactory</text><path d="M582.5,15 C582.5,5 600.5,5 600.5,5 C600.5,5 618.5,5 618.5,15 L618.5,41 C618.5,51 600.5,51 600.5,51 C600.5,51 582.5,51 582.5,41 L582.5,15 " fill="#FEFECE" filter="url(#f195qd8cnpqati)" style="stroke:#000000;stroke-width:1.5;"/><path d="M582.5,15 C582.5,25 600.5,25 600.5,25 C600.5,25 618.5,25 618.5,15 " fill="none" style="stroke:#000000;stroke-width:1.5;"/><text fill="#000000" font-family="sans-serif" font-size="14" font-style="italic" lengthAdjust="spacing" textLength="90" x="552.5" y="375.6514">«repository»</text><text fill="#000000" font-family="sans-serif" font-size="14" lengthAdjust="spacing" textLength="133" x="531" y="391.9482">RepositoryFactory</text><path d="M582.5,405.25 C582.5,395.25 600.5,395.25 600.5,395.25 C600.5,395.25 618.5,395.25 618.5,405.25 L618.5,431.25 C618.5,441.25 600.5,441.25 600.5,441.25 C600.5,441.25 582.5,441.25 582.5,431.25 L582.5,405.25 " fill="#FEFECE" filter="url(#f195qd8cnpqati)" style="stroke:#000000;stroke-width:1.5;"/><path d="M582.5,405.25 C582.5,415.25 600.5,415.25 600.5,415.25 C600.5,415.25 618.5,415.25 618.5,405.25 " fill="none" style="stroke:#000000;stroke-width:1.5;"/><text fill="#000000" font-family="sans-serif" font-size="14" font-style="italic" lengthAdjust="spacing" textLength="90" x="702" y="63.9951">«repository»</text><text fill="#000000" font-family="sans-serif" font-size="14" lengthAdjust="spacing" textLength="134" x="680" y="80.292">CatalogRepository</text><path d="M732,15 C732,5 750,5 750,5 C750,5 768,5 768,15 L768,41 C768,51 750,51 750,51 C750,51 732,51 732,41 L732,15 " fill="#FEFECE" filter="url(#f195qd8cnpqati)" style="stroke:#000000;stroke-width:1.5;"/><path d="M732,15 C732,25 750,25 750,25 C750,25 768,25 768,15 " fill="none" style="stroke:#000000;stroke-width:1.5;"/><text fill="#000000" font-family="sans-serif" font-size="14" font-style="italic" lengthAdjust="spacing" textLength="90" x="702" y="375.6514">«repository»</text><text fill="#000000" font-family="sans-serif" font-size="14" lengthAdjust="spacing" textLength="134" x="680" y="391.9482">CatalogRepository</text><path d="M732,405.25 C732,395.25 750,395.25 750,395.25 C750,395.25 768,395.25 768,405.25 L768,431.25 C768,441.25 750,441.25 750,441.25 C750,441.25 732,441.25 732,431.25 L732,405.25 " fill="#FEFECE" filter="url(#f195qd8cnpqati)" style="stroke:#000000;stroke-width:1.5;"/><path d="M732,405.25 C732,415.25 750,415.25 750,415.25 C750,415.25 768,415.25 768,405.25 " fill="none" style="stroke:#000000;stroke-width:1.5;"/><rect fill="#FFFFFF" filter="url(#f195qd8cnpqati)" height="261.0625" style="stroke:#A80036;stroke-width:1.0;" width="10" x="67.5" y="93.5938"/><rect fill="#FFFFFF" filter="url(#f195qd8cnpqati)" height="239.9297" style="stroke:#A80036;stroke-width:1.0;" width="10" x="245" y="114.7266"/><rect fill="#FFFFFF" filter="url(#f195qd8cnpqati)" height="29.1328" style="stroke:#A80036;stroke-width:1.0;" width="10" x="435.5" y="172.9922"/><rect fill="#FFFFFF" filter="url(#f195qd8cnpqati)" height="29.1328" style="stroke:#A80036;stroke-width:1.0;" width="10" x="595.5" y="202.125"/><rect fill="#FFFFFF" filter="url(#f195qd8cnpqati)" height="58.2656" style="stroke:#A80036;stroke-width:1.0;" width="10" x="745" y="231.2578"/><polygon fill="#A80036" points="233,110.7266,243,114.7266,233,118.7266,237,114.7266" style="stroke:#A80036;stroke-width:1.0;"/><line style="stroke:#A80036;stroke-width:1.0;" x1="77.5" x2="239" y1="114.7266" y2="114.7266"/><text fill="#000000" font-family="sans-serif" font-size="13" lengthAdjust="spacing" textLength="51" x="84.5" y="109.6606">create()</text><polygon fill="#A80036" points="233,139.8594,243,143.8594,233,147.8594,237,143.8594" style="stroke:#A80036;stroke-width:1.0;"/><line style="stroke:#A80036;stroke-width:1.0;" x1="77.5" x2="239" y1="143.8594" y2="143.8594"/><text fill="#000000" font-family="sans-serif" font-size="13" lengthAdjust="spacing" textLength="128" x="84.5" y="138.7935">listCriticalityLevels()</text><polygon fill="#A80036" points="423.5,168.9922,433.5,172.9922,423.5,176.9922,427.5,172.9922" style="stroke:#A80036;stroke-width:1.0;"/><line style="stroke:#A80036;stroke-width:1.0;" x1="255" x2="429.5" y1="172.9922" y2="172.9922"/><text fill="#000000" font-family="sans-serif" font-size="13" lengthAdjust="spacing" textLength="85" x="262" y="167.9263">repositories()</text><polygon fill="#A80036" points="583.5,198.125,593.5,202.125,583.5,206.125,587.5,202.125" style="stroke:#A80036;stroke-width:1.0;"/><line style="stroke:#A80036;stroke-width:1.0;" x1="440.5" x2="589.5" y1="202.125" y2="202.125"/><text fill="#000000" font-family="sans-serif" font-size="13" lengthAdjust="spacing" textLength="51" x="447.5" y="197.0591">create()</text><polygon fill="#A80036" points="733,227.2578,743,231.2578,733,235.2578,737,231.2578" style="stroke:#A80036;stroke-width:1.0;"/><line style="stroke:#A80036;stroke-width:1.0;" x1="600.5" x2="739" y1="231.2578" y2="231.2578"/><text fill="#000000" font-family="sans-serif" font-size="13" lengthAdjust="spacing" textLength="51" x="607.5" y="226.1919">create()</text><polygon fill="#A80036" points="733,256.3906,743,260.3906,733,264.3906,737,260.3906" style="stroke:#A80036;stroke-width:1.0;"/><line style="stroke:#A80036;stroke-width:1.0;" x1="255" x2="739" y1="260.3906" y2="260.3906"/><text fill="#000000" font-family="sans-serif" font-size="13" lengthAdjust="spacing" textLength="49" x="262" y="255.3247">findAll()</text><polygon fill="#A80036" points="266,285.5234,256,289.5234,266,293.5234,262,289.5234" style="stroke:#A80036;stroke-width:1.0;"/><line style="stroke:#A80036;stroke-width:1.0;" x1="260" x2="749" y1="289.5234" y2="289.5234"/><text fill="#000000" font-family="sans-serif" font-size="13" lengthAdjust="spacing" textLength="124" x="272" y="284.4575">allCriticalityLevels()</text><polygon fill="#A80036" points="88.5,299.5234,78.5,303.5234,88.5,307.5234,84.5,303.5234" style="stroke:#A80036;stroke-width:1.0;"/><line style="stroke:#A80036;stroke-width:1.0;" x1="82.5" x2="244" y1="303.5234" y2="303.5234"/><line style="stroke:#A80036;stroke-width:1.0;" x1="77.5" x2="119.5" y1="337.6563" y2="337.6563"/><line style="stroke:#A80036;stroke-width:1.0;" x1="119.5" x2="119.5" y1="337.6563" y2="350.6563"/><line style="stroke:#A80036;stroke-width:1.0;" x1="72.5" x2="119.5" y1="350.6563" y2="350.6563"/><polygon fill="#A80036" points="82.5,346.6563,72.5,350.6563,82.5,354.6563,78.5,350.6563" style="stroke:#A80036;stroke-width:1.0;"/><text fill="#000000" font-family="sans-serif" font-size="13" lengthAdjust="spacing" textLength="51" x="84.5" y="332.5903">doShow</text><!--MD5=[45684da6f4f1d763cf594464734a234c]
@startuml
participant AssignCriticityUI as UI <<presentation>>
participant AssignCriticallyController as Controller <<application>>
participant "PersistenceContext" as PersistenceContext <<Persistence>>
database RepositoryFactory as RepositoryFactory <<repository>>
database CatalogRepository as CatalogRepository <<repository>>

activate UI

UI->Controller : create()
activate Controller
UI -> Controller : listCriticalityLevels()

Controller -> PersistenceContext: repositories()
activate PersistenceContext

PersistenceContext -> RepositoryFactory : create()
deactivate PersistenceContext
activate RepositoryFactory

RepositoryFactory -> CatalogRepository : create()
deactivate RepositoryFactory
activate CatalogRepository

Controller -> CatalogRepository: findAll()
CatalogRepository -> Controller: allCriticalityLevels()
deactivate CatalogRepository

Controller -> UI

UI -> UI :doShow

deactivate CatalogRepository
@enduml

PlantUML version 1.2021.6beta6(Unknown compile time)
(GPL source distribution)
Java Runtime: Java(TM) SE Runtime Environment
JVM: Java HotSpot(TM) 64-Bit Server VM
Default Encoding: UTF-8
Language: en
Country: US
--></g></svg>