<?xml version="1.0" encoding="UTF-8" standalone="no"?><svg xmlns="http://www.w3.org/2000/svg" xmlns:xlink="http://www.w3.org/1999/xlink" contentScriptType="application/ecmascript" contentStyleType="text/css" height="448px" preserveAspectRatio="none" style="width:840px;height:448px;background:#FFFFFF;" version="1.1" viewBox="0 0 840 448" width="840px" zoomAndPan="magnify"><defs><filter height="300%" id="f99ngusnzms0s" width="300%" x="-1" y="-1"><feGaussianBlur result="blurOut" stdDeviation="2.0"/><feColorMatrix in="blurOut" result="blurOut2" type="matrix" values="0 0 0 0 0 0 0 0 0 0 0 0 0 0 0 0 0 0 .4 0"/><feOffset dx="4.0" dy="4.0" in="blurOut2" result="blurOut3"/><feBlend in="SourceGraphic" in2="blurOut3" mode="normal"/></filter></defs><g><rect fill="#FFFFFF" filter="url(#f99ngusnzms0s)" height="261.0625" style="stroke:#A80036;stroke-width:1.0;" width="10" x="73.5" y="93.5938"/><rect fill="#FFFFFF" filter="url(#f99ngusnzms0s)" height="239.9297" style="stroke:#A80036;stroke-width:1.0;" width="10" x="260.5" y="114.7266"/><rect fill="#FFFFFF" filter="url(#f99ngusnzms0s)" height="29.1328" style="stroke:#A80036;stroke-width:1.0;" width="10" x="454.5" y="172.9922"/><rect fill="#FFFFFF" filter="url(#f99ngusnzms0s)" height="29.1328" style="stroke:#A80036;stroke-width:1.0;" width="10" x="614.5" y="202.125"/><rect fill="#FFFFFF" filter="url(#f99ngusnzms0s)" height="58.2656" style="stroke:#A80036;stroke-width:1.0;" width="10" x="764" y="231.2578"/><line style="stroke:#A80036;stroke-width:1.0;stroke-dasharray:5.0,5.0;" x1="78" x2="78" y1="83.5938" y2="363.6563"/><line style="stroke:#A80036;stroke-width:1.0;stroke-dasharray:5.0,5.0;" x1="265" x2="265" y1="83.5938" y2="363.6563"/><line style="stroke:#A80036;stroke-width:1.0;stroke-dasharray:5.0,5.0;" x1="459" x2="459" y1="83.5938" y2="363.6563"/><line style="stroke:#A80036;stroke-width:1.0;stroke-dasharray:5.0,5.0;" x1="619" x2="619" y1="83.5938" y2="363.6563"/><line style="stroke:#A80036;stroke-width:1.0;stroke-dasharray:5.0,5.0;" x1="769" x2="769" y1="83.5938" y2="363.6563"/><rect fill="#FEFECE" filter="url(#f99ngusnzms0s)" height="46.5938" style="stroke:#A80036;stroke-width:1.5;" width="143" x="5" y="32"/><text fill="#000000" font-family="sans-serif" font-size="14" font-style="italic" lengthAdjust="spacing" textLength="108" x="22.5" y="51.9951">«presentation»</text><text fill="#000000" font-family="sans-serif" font-size="14" lengthAdjust="spacing" textLength="129" x="12" y="68.292">AssignCriticalityUI</text><rect fill="#FEFECE" filter="url(#f99ngusnzms0s)" height="46.5938" style="stroke:#A80036;stroke-width:1.5;" width="143" x="5" y="362.6563"/><text fill="#000000" font-family="sans-serif" font-size="14" font-style="italic" lengthAdjust="spacing" textLength="108" x="22.5" y="382.6514">«presentation»</text><text fill="#000000" font-family="sans-serif" font-size="14" lengthAdjust="spacing" textLength="129" x="12" y="398.9482">AssignCriticalityUI</text><rect fill="#FEFECE" filter="url(#f99ngusnzms0s)" height="46.5938" style="stroke:#A80036;stroke-width:1.5;" width="203" x="162" y="32"/><text fill="#000000" font-family="sans-serif" font-size="14" font-style="italic" lengthAdjust="spacing" textLength="97" x="215" y="51.9951">«application»</text><text fill="#000000" font-family="sans-serif" font-size="14" lengthAdjust="spacing" textLength="189" x="169" y="68.292">AssignCriticalityController</text><rect fill="#FEFECE" filter="url(#f99ngusnzms0s)" height="46.5938" style="stroke:#A80036;stroke-width:1.5;" width="203" x="162" y="362.6563"/><text fill="#000000" font-family="sans-serif" font-size="14" font-style="italic" lengthAdjust="spacing" textLength="97" x="215" y="382.6514">«application»</text><text fill="#000000" font-family="sans-serif" font-size="14" lengthAdjust="spacing" textLength="189" x="169" y="398.9482">AssignCriticalityController</text><rect fill="#FEFECE" filter="url(#f99ngusnzms0s)" height="46.5938" style="stroke:#A80036;stroke-width:1.5;" width="157" x="379" y="32"/><text fill="#000000" font-family="sans-serif" font-size="14" font-style="italic" lengthAdjust="spacing" textLength="99" x="408" y="51.9951">«Persistence»</text><text fill="#000000" font-family="sans-serif" font-size="14" lengthAdjust="spacing" textLength="143" x="386" y="68.292">PersistenceContext</text><rect fill="#FEFECE" filter="url(#f99ngusnzms0s)" height="46.5938" style="stroke:#A80036;stroke-width:1.5;" width="157" x="379" y="362.6563"/><text fill="#000000" font-family="sans-serif" font-size="14" font-style="italic" lengthAdjust="spacing" textLength="99" x="408" y="382.6514">«Persistence»</text><text fill="#000000" font-family="sans-serif" font-size="14" lengthAdjust="spacing" textLength="143" x="386" y="398.9482">PersistenceContext</text><text fill="#000000" font-family="sans-serif" font-size="14" font-style="italic" lengthAdjust="spacing" textLength="90" x="571.5" y="63.9951">«repository»</text><text fill="#000000" font-family="sans-serif" font-size="14" lengthAdjust="spacing" textLength="133" x="550" y="80.292">RepositoryFactory</text><path d="M601.5,15 C601.5,5 619.5,5 619.5,5 C619.5,5 637.5,5 637.5,15 L637.5,41 C637.5,51 619.5,51 619.5,51 C619.5,51 601.5,51 601.5,41 L601.5,15 " fill="#FEFECE" filter="url(#f99ngusnzms0s)" style="stroke:#000000;stroke-width:1.5;"/><path d="M601.5,15 C601.5,25 619.5,25 619.5,25 C619.5,25 637.5,25 637.5,15 " fill="none" style="stroke:#000000;stroke-width:1.5;"/><text fill="#000000" font-family="sans-serif" font-size="14" font-style="italic" lengthAdjust="spacing" textLength="90" x="571.5" y="375.6514">«repository»</text><text fill="#000000" font-family="sans-serif" font-size="14" lengthAdjust="spacing" textLength="133" x="550" y="391.9482">RepositoryFactory</text><path d="M601.5,405.25 C601.5,395.25 619.5,395.25 619.5,395.25 C619.5,395.25 637.5,395.25 637.5,405.25 L637.5,431.25 C637.5,441.25 619.5,441.25 619.5,441.25 C619.5,441.25 601.5,441.25 601.5,431.25 L601.5,405.25 " fill="#FEFECE" filter="url(#f99ngusnzms0s)" style="stroke:#000000;stroke-width:1.5;"/><path d="M601.5,405.25 C601.5,415.25 619.5,415.25 619.5,415.25 C619.5,415.25 637.5,415.25 637.5,405.25 " fill="none" style="stroke:#000000;stroke-width:1.5;"/><text fill="#000000" font-family="sans-serif" font-size="14" font-style="italic" lengthAdjust="spacing" textLength="90" x="721" y="63.9951">«repository»</text><text fill="#000000" font-family="sans-serif" font-size="14" lengthAdjust="spacing" textLength="134" x="699" y="80.292">CatalogRepository</text><path d="M751,15 C751,5 769,5 769,5 C769,5 787,5 787,15 L787,41 C787,51 769,51 769,51 C769,51 751,51 751,41 L751,15 " fill="#FEFECE" filter="url(#f99ngusnzms0s)" style="stroke:#000000;stroke-width:1.5;"/><path d="M751,15 C751,25 769,25 769,25 C769,25 787,25 787,15 " fill="none" style="stroke:#000000;stroke-width:1.5;"/><text fill="#000000" font-family="sans-serif" font-size="14" font-style="italic" lengthAdjust="spacing" textLength="90" x="721" y="375.6514">«repository»</text><text fill="#000000" font-family="sans-serif" font-size="14" lengthAdjust="spacing" textLength="134" x="699" y="391.9482">CatalogRepository</text><path d="M751,405.25 C751,395.25 769,395.25 769,395.25 C769,395.25 787,395.25 787,405.25 L787,431.25 C787,441.25 769,441.25 769,441.25 C769,441.25 751,441.25 751,431.25 L751,405.25 " fill="#FEFECE" filter="url(#f99ngusnzms0s)" style="stroke:#000000;stroke-width:1.5;"/><path d="M751,405.25 C751,415.25 769,415.25 769,415.25 C769,415.25 787,415.25 787,405.25 " fill="none" style="stroke:#000000;stroke-width:1.5;"/><rect fill="#FFFFFF" filter="url(#f99ngusnzms0s)" height="261.0625" style="stroke:#A80036;stroke-width:1.0;" width="10" x="73.5" y="93.5938"/><rect fill="#FFFFFF" filter="url(#f99ngusnzms0s)" height="239.9297" style="stroke:#A80036;stroke-width:1.0;" width="10" x="260.5" y="114.7266"/><rect fill="#FFFFFF" filter="url(#f99ngusnzms0s)" height="29.1328" style="stroke:#A80036;stroke-width:1.0;" width="10" x="454.5" y="172.9922"/><rect fill="#FFFFFF" filter="url(#f99ngusnzms0s)" height="29.1328" style="stroke:#A80036;stroke-width:1.0;" width="10" x="614.5" y="202.125"/><rect fill="#FFFFFF" filter="url(#f99ngusnzms0s)" height="58.2656" style="stroke:#A80036;stroke-width:1.0;" width="10" x="764" y="231.2578"/><polygon fill="#A80036" points="248.5,110.7266,258.5,114.7266,248.5,118.7266,252.5,114.7266" style="stroke:#A80036;stroke-width:1.0;"/><line style="stroke:#A80036;stroke-width:1.0;" x1="83.5" x2="254.5" y1="114.7266" y2="114.7266"/><text fill="#000000" font-family="sans-serif" font-size="13" lengthAdjust="spacing" textLength="51" x="90.5" y="109.6606">create()</text><polygon fill="#A80036" points="248.5,139.8594,258.5,143.8594,248.5,147.8594,252.5,143.8594" style="stroke:#A80036;stroke-width:1.0;"/><line style="stroke:#A80036;stroke-width:1.0;" x1="83.5" x2="254.5" y1="143.8594" y2="143.8594"/><text fill="#000000" font-family="sans-serif" font-size="13" lengthAdjust="spacing" textLength="84" x="90.5" y="138.7935">listCatalogs()</text><polygon fill="#A80036" points="442.5,168.9922,452.5,172.9922,442.5,176.9922,446.5,172.9922" style="stroke:#A80036;stroke-width:1.0;"/><line style="stroke:#A80036;stroke-width:1.0;" x1="270.5" x2="448.5" y1="172.9922" y2="172.9922"/><text fill="#000000" font-family="sans-serif" font-size="13" lengthAdjust="spacing" textLength="85" x="277.5" y="167.9263">repositories()</text><polygon fill="#A80036" points="602.5,198.125,612.5,202.125,602.5,206.125,606.5,202.125" style="stroke:#A80036;stroke-width:1.0;"/><line style="stroke:#A80036;stroke-width:1.0;" x1="459.5" x2="608.5" y1="202.125" y2="202.125"/><text fill="#000000" font-family="sans-serif" font-size="13" lengthAdjust="spacing" textLength="51" x="466.5" y="197.0591">create()</text><polygon fill="#A80036" points="752,227.2578,762,231.2578,752,235.2578,756,231.2578" style="stroke:#A80036;stroke-width:1.0;"/><line style="stroke:#A80036;stroke-width:1.0;" x1="619.5" x2="758" y1="231.2578" y2="231.2578"/><text fill="#000000" font-family="sans-serif" font-size="13" lengthAdjust="spacing" textLength="51" x="626.5" y="226.1919">create()</text><polygon fill="#A80036" points="752,256.3906,762,260.3906,752,264.3906,756,260.3906" style="stroke:#A80036;stroke-width:1.0;"/><line style="stroke:#A80036;stroke-width:1.0;" x1="270.5" x2="758" y1="260.3906" y2="260.3906"/><text fill="#000000" font-family="sans-serif" font-size="13" lengthAdjust="spacing" textLength="49" x="277.5" y="255.3247">findAll()</text><polygon fill="#A80036" points="281.5,285.5234,271.5,289.5234,281.5,293.5234,277.5,289.5234" style="stroke:#A80036;stroke-width:1.0;"/><line style="stroke:#A80036;stroke-width:1.0;" x1="275.5" x2="768" y1="289.5234" y2="289.5234"/><text fill="#000000" font-family="sans-serif" font-size="13" lengthAdjust="spacing" textLength="80" x="287.5" y="284.4575">allCatalogs()</text><polygon fill="#A80036" points="94.5,299.5234,84.5,303.5234,94.5,307.5234,90.5,303.5234" style="stroke:#A80036;stroke-width:1.0;"/><line style="stroke:#A80036;stroke-width:1.0;" x1="88.5" x2="259.5" y1="303.5234" y2="303.5234"/><line style="stroke:#A80036;stroke-width:1.0;" x1="83.5" x2="125.5" y1="337.6563" y2="337.6563"/><line style="stroke:#A80036;stroke-width:1.0;" x1="125.5" x2="125.5" y1="337.6563" y2="350.6563"/><line style="stroke:#A80036;stroke-width:1.0;" x1="78.5" x2="125.5" y1="350.6563" y2="350.6563"/><polygon fill="#A80036" points="88.5,346.6563,78.5,350.6563,88.5,354.6563,84.5,350.6563" style="stroke:#A80036;stroke-width:1.0;"/><text fill="#000000" font-family="sans-serif" font-size="13" lengthAdjust="spacing" textLength="51" x="90.5" y="332.5903">doShow</text><!--MD5=[96e4b8a9ae01af9502d9f12f43111a3b]
@startuml
participant AssignCriticalityUI as UI <<presentation>>
participant AssignCriticalityController as Controller <<application>>
participant "PersistenceContext" as PersistenceContext <<Persistence>>
database RepositoryFactory as RepositoryFactory <<repository>>
database CatalogRepository as CatalogRepository <<repository>>

activate UI

UI->Controller : create()
activate Controller
UI -> Controller : listCatalogs()

Controller -> PersistenceContext: repositories()
activate PersistenceContext

PersistenceContext -> RepositoryFactory : create()
deactivate PersistenceContext
activate RepositoryFactory

RepositoryFactory -> CatalogRepository : create()
deactivate RepositoryFactory
activate CatalogRepository

Controller -> CatalogRepository: findAll()
CatalogRepository -> Controller: allCatalogs()
deactivate CatalogRepository

Controller -> UI

UI -> UI :doShow

deactivate CatalogRepository
@enduml

PlantUML version 1.2021.6beta6(Unknown compile time)
(GPL source distribution)
Java Runtime: Java(TM) SE Runtime Environment
JVM: Java HotSpot(TM) 64-Bit Server VM
Default Encoding: UTF-8
Language: en
Country: US
--></g></svg>