<?xml version="1.0" encoding="UTF-8" standalone="no"?><svg xmlns="http://www.w3.org/2000/svg" xmlns:xlink="http://www.w3.org/1999/xlink" contentScriptType="application/ecmascript" contentStyleType="text/css" height="693px" preserveAspectRatio="none" style="width:1152px;height:693px;background:#FFFFFF;" version="1.1" viewBox="0 0 1152 693" width="1152px" zoomAndPan="magnify"><defs><filter height="300%" id="fuyoipxbarktm" width="300%" x="-1" y="-1"><feGaussianBlur result="blurOut" stdDeviation="2.0"/><feColorMatrix in="blurOut" result="blurOut2" type="matrix" values="0 0 0 0 0 0 0 0 0 0 0 0 0 0 0 0 0 0 .4 0"/><feOffset dx="4.0" dy="4.0" in="blurOut2" result="blurOut3"/><feBlend in="SourceGraphic" in2="blurOut3" mode="normal"/></filter></defs><g><rect fill="#FFFFFF" filter="url(#fuyoipxbarktm)" height="492.9922" style="stroke:#A80036;stroke-width:1.0;" width="10" x="218" y="98.2969"/><rect fill="#FFFFFF" filter="url(#fuyoipxbarktm)" height="59.1328" style="stroke:#A80036;stroke-width:1.0;" width="10" x="564" y="222.9609"/><rect fill="#FFFFFF" filter="url(#fuyoipxbarktm)" height="147.3984" style="stroke:#A80036;stroke-width:1.0;" width="10" x="564" y="414.7578"/><rect fill="#FFFFFF" filter="url(#fuyoipxbarktm)" height="30" style="stroke:#A80036;stroke-width:1.0;" width="10" x="764" y="443.8906"/><rect fill="#FFFFFF" filter="url(#fuyoipxbarktm)" height="30" style="stroke:#A80036;stroke-width:1.0;" width="10" x="1076.5" y="252.0938"/><rect fill="#FFFFFF" filter="url(#fuyoipxbarktm)" height="30" style="stroke:#A80036;stroke-width:1.0;" width="10" x="1076.5" y="503.0234"/><line style="stroke:#A80036;stroke-width:1.0;stroke-dasharray:5.0,5.0;" x1="23" x2="23" y1="88.2969" y2="609.2891"/><line style="stroke:#A80036;stroke-width:1.0;stroke-dasharray:5.0,5.0;" x1="223" x2="223" y1="88.2969" y2="609.2891"/><line style="stroke:#A80036;stroke-width:1.0;stroke-dasharray:5.0,5.0;" x1="569" x2="569" y1="88.2969" y2="609.2891"/><line style="stroke:#A80036;stroke-width:1.0;stroke-dasharray:5.0,5.0;" x1="768.5" x2="768.5" y1="88.2969" y2="609.2891"/><line style="stroke:#A80036;stroke-width:1.0;stroke-dasharray:5.0,5.0;" x1="920.5" x2="920.5" y1="88.2969" y2="609.2891"/><line style="stroke:#A80036;stroke-width:1.0;stroke-dasharray:5.0,5.0;" x1="1081.5" x2="1081.5" y1="88.2969" y2="609.2891"/><text fill="#000000" font-family="sans-serif" font-size="14" lengthAdjust="spacing" textLength="30" x="5" y="84.9951">GSH</text><ellipse cx="23" cy="15" fill="#FEFECE" filter="url(#fuyoipxbarktm)" rx="8" ry="8" style="stroke:#A80036;stroke-width:2.0;"/><path d="M23,23 L23,50 M10,31 L36,31 M23,50 L10,65 M23,50 L36,65 " fill="none" filter="url(#fuyoipxbarktm)" style="stroke:#A80036;stroke-width:2.0;"/><text fill="#000000" font-family="sans-serif" font-size="14" lengthAdjust="spacing" textLength="30" x="5" y="621.2842">GSH</text><ellipse cx="23" cy="634.5859" fill="#FEFECE" filter="url(#fuyoipxbarktm)" rx="8" ry="8" style="stroke:#A80036;stroke-width:2.0;"/><path d="M23,642.5859 L23,669.5859 M10,650.5859 L36,650.5859 M23,669.5859 L10,684.5859 M23,669.5859 L36,684.5859 " fill="none" filter="url(#fuyoipxbarktm)" style="stroke:#A80036;stroke-width:2.0;"/><rect fill="#FEFECE" filter="url(#fuyoipxbarktm)" height="46.5938" style="stroke:#A80036;stroke-width:1.5;" width="132" x="155" y="36.7031"/><text fill="#000000" font-family="sans-serif" font-size="14" font-style="italic" lengthAdjust="spacing" textLength="108" x="167" y="56.6982">«presentation»</text><text fill="#000000" font-family="sans-serif" font-size="14" lengthAdjust="spacing" textLength="118" x="162" y="72.9951">AssignCriticalyUI</text><rect fill="#FEFECE" filter="url(#fuyoipxbarktm)" height="46.5938" style="stroke:#A80036;stroke-width:1.5;" width="132" x="155" y="608.2891"/><text fill="#000000" font-family="sans-serif" font-size="14" font-style="italic" lengthAdjust="spacing" textLength="108" x="167" y="628.2842">«presentation»</text><text fill="#000000" font-family="sans-serif" font-size="14" lengthAdjust="spacing" textLength="118" x="162" y="644.5811">AssignCriticalyUI</text><rect fill="#FEFECE" filter="url(#fuyoipxbarktm)" height="46.5938" style="stroke:#A80036;stroke-width:1.5;" width="192" x="471" y="36.7031"/><text fill="#000000" font-family="sans-serif" font-size="14" font-style="italic" lengthAdjust="spacing" textLength="97" x="518.5" y="56.6982">«application»</text><text fill="#000000" font-family="sans-serif" font-size="14" lengthAdjust="spacing" textLength="178" x="478" y="72.9951">AssignCriticalyController</text><rect fill="#FEFECE" filter="url(#fuyoipxbarktm)" height="46.5938" style="stroke:#A80036;stroke-width:1.5;" width="192" x="471" y="608.2891"/><text fill="#000000" font-family="sans-serif" font-size="14" font-style="italic" lengthAdjust="spacing" textLength="97" x="518.5" y="628.2842">«application»</text><text fill="#000000" font-family="sans-serif" font-size="14" lengthAdjust="spacing" textLength="178" x="478" y="644.5811">AssignCriticalyController</text><rect fill="#FEFECE" filter="url(#fuyoipxbarktm)" height="46.5938" style="stroke:#A80036;stroke-width:1.5;" width="119" x="707.5" y="36.7031"/><text fill="#000000" font-family="sans-serif" font-size="14" font-style="italic" lengthAdjust="spacing" textLength="72" x="731" y="56.6982">«domain»</text><text fill="#000000" font-family="sans-serif" font-size="14" lengthAdjust="spacing" textLength="105" x="714.5" y="72.9951">catalog:Ctalog</text><rect fill="#FEFECE" filter="url(#fuyoipxbarktm)" height="46.5938" style="stroke:#A80036;stroke-width:1.5;" width="119" x="707.5" y="608.2891"/><text fill="#000000" font-family="sans-serif" font-size="14" font-style="italic" lengthAdjust="spacing" textLength="72" x="731" y="628.2842">«domain»</text><text fill="#000000" font-family="sans-serif" font-size="14" lengthAdjust="spacing" textLength="105" x="714.5" y="644.5811">catalog:Ctalog</text><rect fill="#FEFECE" filter="url(#fuyoipxbarktm)" height="46.5938" style="stroke:#A80036;stroke-width:1.5;" width="157" x="840.5" y="36.7031"/><text fill="#000000" font-family="sans-serif" font-size="14" font-style="italic" lengthAdjust="spacing" textLength="99" x="869.5" y="56.6982">«Persistence»</text><text fill="#000000" font-family="sans-serif" font-size="14" lengthAdjust="spacing" textLength="143" x="847.5" y="72.9951">PersistenceContext</text><rect fill="#FEFECE" filter="url(#fuyoipxbarktm)" height="46.5938" style="stroke:#A80036;stroke-width:1.5;" width="157" x="840.5" y="608.2891"/><text fill="#000000" font-family="sans-serif" font-size="14" font-style="italic" lengthAdjust="spacing" textLength="99" x="869.5" y="628.2842">«Persistence»</text><text fill="#000000" font-family="sans-serif" font-size="14" lengthAdjust="spacing" textLength="143" x="847.5" y="644.5811">PersistenceContext</text><text fill="#000000" font-family="sans-serif" font-size="14" font-style="italic" lengthAdjust="spacing" textLength="90" x="1033.5" y="68.6982">«repository»</text><text fill="#000000" font-family="sans-serif" font-size="14" lengthAdjust="spacing" textLength="134" x="1011.5" y="84.9951">CatalogRepository</text><path d="M1063.5,19.7031 C1063.5,9.7031 1081.5,9.7031 1081.5,9.7031 C1081.5,9.7031 1099.5,9.7031 1099.5,19.7031 L1099.5,45.7031 C1099.5,55.7031 1081.5,55.7031 1081.5,55.7031 C1081.5,55.7031 1063.5,55.7031 1063.5,45.7031 L1063.5,19.7031 " fill="#FEFECE" filter="url(#fuyoipxbarktm)" style="stroke:#000000;stroke-width:1.5;"/><path d="M1063.5,19.7031 C1063.5,29.7031 1081.5,29.7031 1081.5,29.7031 C1081.5,29.7031 1099.5,29.7031 1099.5,19.7031 " fill="none" style="stroke:#000000;stroke-width:1.5;"/><text fill="#000000" font-family="sans-serif" font-size="14" font-style="italic" lengthAdjust="spacing" textLength="90" x="1033.5" y="621.2842">«repository»</text><text fill="#000000" font-family="sans-serif" font-size="14" lengthAdjust="spacing" textLength="134" x="1011.5" y="637.5811">CatalogRepository</text><path d="M1063.5,650.8828 C1063.5,640.8828 1081.5,640.8828 1081.5,640.8828 C1081.5,640.8828 1099.5,640.8828 1099.5,650.8828 L1099.5,676.8828 C1099.5,686.8828 1081.5,686.8828 1081.5,686.8828 C1081.5,686.8828 1063.5,686.8828 1063.5,676.8828 L1063.5,650.8828 " fill="#FEFECE" filter="url(#fuyoipxbarktm)" style="stroke:#000000;stroke-width:1.5;"/><path d="M1063.5,650.8828 C1063.5,660.8828 1081.5,660.8828 1081.5,660.8828 C1081.5,660.8828 1099.5,660.8828 1099.5,650.8828 " fill="none" style="stroke:#000000;stroke-width:1.5;"/><rect fill="#FFFFFF" filter="url(#fuyoipxbarktm)" height="492.9922" style="stroke:#A80036;stroke-width:1.0;" width="10" x="218" y="98.2969"/><rect fill="#FFFFFF" filter="url(#fuyoipxbarktm)" height="59.1328" style="stroke:#A80036;stroke-width:1.0;" width="10" x="564" y="222.9609"/><rect fill="#FFFFFF" filter="url(#fuyoipxbarktm)" height="147.3984" style="stroke:#A80036;stroke-width:1.0;" width="10" x="564" y="414.7578"/><rect fill="#FFFFFF" filter="url(#fuyoipxbarktm)" height="30" style="stroke:#A80036;stroke-width:1.0;" width="10" x="764" y="443.8906"/><rect fill="#FFFFFF" filter="url(#fuyoipxbarktm)" height="30" style="stroke:#A80036;stroke-width:1.0;" width="10" x="1076.5" y="252.0938"/><rect fill="#FFFFFF" filter="url(#fuyoipxbarktm)" height="30" style="stroke:#A80036;stroke-width:1.0;" width="10" x="1076.5" y="503.0234"/><rect fill="#FFFFFF" filter="url(#fuyoipxbarktm)" height="40.2656" style="stroke:#000000;stroke-width:2.0;" width="514" x="152" y="98.2969"/><polygon fill="#EEEEEE" points="152,98.2969,220,98.2969,220,105.2969,210,115.2969,152,115.2969,152,98.2969" style="stroke:#000000;stroke-width:2.0;"/><text fill="#000000" font-family="sans-serif" font-size="13" font-weight="bold" lengthAdjust="spacing" textLength="23" x="165" y="112.3638">ref</text><text fill="#000000" font-family="sans-serif" font-size="13" lengthAdjust="spacing" textLength="131" x="345.5" y="131.3638">ShowAllCatalogs_SD</text><polygon fill="#A80036" points="34,160.6953,24,164.6953,34,168.6953,30,164.6953" style="stroke:#A80036;stroke-width:1.0;"/><line style="stroke:#A80036;stroke-width:1.0;stroke-dasharray:2.0,2.0;" x1="28" x2="217" y1="164.6953" y2="164.6953"/><text fill="#000000" font-family="sans-serif" font-size="13" lengthAdjust="spacing" textLength="155" x="40" y="159.6294">Ask to choose a Catalog</text><polygon fill="#A80036" points="206,189.8281,216,193.8281,206,197.8281,210,193.8281" style="stroke:#A80036;stroke-width:1.0;"/><line style="stroke:#A80036;stroke-width:1.0;stroke-dasharray:2.0,2.0;" x1="23" x2="212" y1="193.8281" y2="193.8281"/><text fill="#000000" font-family="sans-serif" font-size="13" lengthAdjust="spacing" textLength="109" x="30" y="188.7622">Select the Catlog</text><polygon fill="#A80036" points="552,218.9609,562,222.9609,552,226.9609,556,222.9609" style="stroke:#A80036;stroke-width:1.0;"/><line style="stroke:#A80036;stroke-width:1.0;stroke-dasharray:2.0,2.0;" x1="228" x2="558" y1="222.9609" y2="222.9609"/><text fill="#000000" font-family="sans-serif" font-size="13" lengthAdjust="spacing" textLength="97" x="235" y="217.895">selectCatalog()</text><polygon fill="#A80036" points="1064.5,248.0938,1074.5,252.0938,1064.5,256.0938,1068.5,252.0938" style="stroke:#A80036;stroke-width:1.0;"/><line style="stroke:#A80036;stroke-width:1.0;stroke-dasharray:2.0,2.0;" x1="574" x2="1070.5" y1="252.0938" y2="252.0938"/><text fill="#000000" font-family="sans-serif" font-size="13" lengthAdjust="spacing" textLength="171" x="581" y="247.0278">theCatalog = findCatalog()</text><rect fill="#FFFFFF" filter="url(#fuyoipxbarktm)" height="40.2656" style="stroke:#000000;stroke-width:2.0;" width="514" x="152" y="290.0938"/><polygon fill="#EEEEEE" points="152,290.0938,220,290.0938,220,297.0938,210,307.0938,152,307.0938,152,290.0938" style="stroke:#000000;stroke-width:2.0;"/><text fill="#000000" font-family="sans-serif" font-size="13" font-weight="bold" lengthAdjust="spacing" textLength="23" x="165" y="304.1606">ref</text><text fill="#000000" font-family="sans-serif" font-size="13" lengthAdjust="spacing" textLength="175" x="323.5" y="323.1606">ShowAllCriticalityLevels_SD</text><polygon fill="#A80036" points="34,352.4922,24,356.4922,34,360.4922,30,356.4922" style="stroke:#A80036;stroke-width:1.0;"/><line style="stroke:#A80036;stroke-width:1.0;stroke-dasharray:2.0,2.0;" x1="28" x2="217" y1="356.4922" y2="356.4922"/><text fill="#000000" font-family="sans-serif" font-size="13" lengthAdjust="spacing" textLength="171" x="40" y="351.4263">Ask to choose the citicality</text><polygon fill="#A80036" points="206,381.625,216,385.625,206,389.625,210,385.625" style="stroke:#A80036;stroke-width:1.0;"/><line style="stroke:#A80036;stroke-width:1.0;stroke-dasharray:2.0,2.0;" x1="23" x2="212" y1="385.625" y2="385.625"/><text fill="#000000" font-family="sans-serif" font-size="13" lengthAdjust="spacing" textLength="107" x="30" y="380.5591">Select a citicality</text><polygon fill="#A80036" points="552,410.7578,562,414.7578,552,418.7578,556,414.7578" style="stroke:#A80036;stroke-width:1.0;"/><line style="stroke:#A80036;stroke-width:1.0;stroke-dasharray:2.0,2.0;" x1="228" x2="558" y1="414.7578" y2="414.7578"/><text fill="#000000" font-family="sans-serif" font-size="13" lengthAdjust="spacing" textLength="317" x="235" y="409.6919">assignCriticalityCatalog(theCatalog, theCriticality)</text><polygon fill="#A80036" points="752,439.8906,762,443.8906,752,447.8906,756,443.8906" style="stroke:#A80036;stroke-width:1.0;"/><line style="stroke:#A80036;stroke-width:1.0;stroke-dasharray:2.0,2.0;" x1="574" x2="758" y1="443.8906" y2="443.8906"/><text fill="#000000" font-family="sans-serif" font-size="13" lengthAdjust="spacing" textLength="171" x="581" y="438.8247">addcriticality(theCriticality)</text><polygon fill="#A80036" points="1064.5,499.0234,1074.5,503.0234,1064.5,507.0234,1068.5,503.0234" style="stroke:#A80036;stroke-width:1.0;"/><line style="stroke:#A80036;stroke-width:1.0;" x1="574" x2="1070.5" y1="503.0234" y2="503.0234"/><text fill="#000000" font-family="sans-serif" font-size="13" lengthAdjust="spacing" textLength="111" x="581" y="497.9575">save(theCatalog)</text><polygon fill="#A80036" points="239,558.1563,229,562.1563,239,566.1563,235,562.1563" style="stroke:#A80036;stroke-width:1.0;"/><line style="stroke:#A80036;stroke-width:1.0;" x1="233" x2="568" y1="562.1563" y2="562.1563"/><text fill="#000000" font-family="sans-serif" font-size="13" lengthAdjust="spacing" textLength="70" x="245" y="557.0903">theCatalog</text><polygon fill="#A80036" points="34,587.2891,24,591.2891,34,595.2891,30,591.2891" style="stroke:#A80036;stroke-width:1.0;"/><line style="stroke:#A80036;stroke-width:1.0;stroke-dasharray:2.0,2.0;" x1="28" x2="222" y1="591.2891" y2="591.2891"/><text fill="#000000" font-family="sans-serif" font-size="13" lengthAdjust="spacing" textLength="88" x="40" y="586.2231">back to menu</text><!--MD5=[f257ae08c57ba782024f8ae3be4634e2]
@startuml
actor GSH as Actor
participant AssignCriticalyUI as UI <<presentation>>
participant AssignCriticalyController as Controller <<application>>
participant "catalog:Ctalog" as Domain <<domain>>
participant "PersistenceContext" as PersistenceContext <<Persistence>>
database CatalogRepository as RepositoryCatalog <<repository>>


activate UI
ref over UI, Controller : ShowAllCatalogs_SD

UI - -> Actor: Ask to choose a Catalog
Actor - -> UI: Select the Catlog

UI - -> Controller: selectCatalog()
activate Controller

Controller - -> RepositoryCatalog : theCatalog = findCatalog()
activate RepositoryCatalog
deactivate Controller
deactivate RepositoryCatalog

ref over UI, Controller : ShowAllCriticalityLevels_SD


UI- ->Actor: Ask to choose the citicality
Actor- ->UI: Select a citicality


UI - -> Controller : assignCriticalityCatalog(theCatalog, theCriticality)
activate Controller

Controller - -> Domain : addcriticality(theCriticality)
activate Domain
deactivate Domain

Controller->RepositoryCatalog:save(theCatalog)
activate RepositoryCatalog
deactivate RepositoryCatalog

Controller->UI: theCatalog
deactivate Controller

UI- ->Actor: back to menu
deactivate UI
@enduml

PlantUML version 1.2021.6beta6(Unknown compile time)
(GPL source distribution)
Java Runtime: Java(TM) SE Runtime Environment
JVM: Java HotSpot(TM) 64-Bit Server VM
Default Encoding: UTF-8
Language: en
Country: US
--></g></svg>