<?xml version="1.0" encoding="UTF-8" standalone="no"?><svg xmlns="http://www.w3.org/2000/svg" xmlns:xlink="http://www.w3.org/1999/xlink" contentScriptType="application/ecmascript" contentStyleType="text/css" height="1682px" preserveAspectRatio="none" style="width:529px;height:1682px;" version="1.1" viewBox="0 0 529 1682" width="529px" zoomAndPan="magnify"><defs><filter height="300%" id="f1fmt8aktllpob" width="300%" x="-1" y="-1"><feGaussianBlur result="blurOut" stdDeviation="2.0"/><feColorMatrix in="blurOut" result="blurOut2" type="matrix" values="0 0 0 0 0 0 0 0 0 0 0 0 0 0 0 0 0 0 .4 0"/><feOffset dx="4.0" dy="4.0" in="blurOut2" result="blurOut3"/><feBlend in="SourceGraphic" in2="blurOut3" mode="normal"/></filter></defs><g><ellipse cx="354.834" cy="365.8668" fill="#FEFECE" filter="url(#f1fmt8aktllpob)" rx="119.834" ry="26.3668" style="stroke:#A80036;stroke-width:1.5;"/><text fill="#000000" font-family="sans-serif" font-size="14" lengthAdjust="spacingAndGlyphs" textLength="219" x="245.334" y="370.5152">AUCKL3-9 - Add Scooter to a list</text><ellipse cx="354.9091" cy="459.1818" fill="#FEFECE" filter="url(#f1fmt8aktllpob)" rx="146.4091" ry="31.6818" style="stroke:#A80036;stroke-width:1.5;"/><text fill="#000000" font-family="sans-serif" font-size="14" lengthAdjust="spacingAndGlyphs" textLength="275" x="217.4091" y="463.8303">AUCKL3-10 - Remove Scooter from a list</text><ellipse cx="354.8908" cy="553.7782" fill="#FEFECE" filter="url(#f1fmt8aktllpob)" rx="126.8908" ry="27.7782" style="stroke:#A80036;stroke-width:1.5;"/><text fill="#000000" font-family="sans-serif" font-size="14" lengthAdjust="spacingAndGlyphs" textLength="234" x="237.8908" y="558.4266">AUCKL3-11 - Insert pharmacy data</text><ellipse cx="354.7652" cy="642.153" fill="#FEFECE" filter="url(#f1fmt8aktllpob)" rx="113.7652" ry="25.153" style="stroke:#A80036;stroke-width:1.5;"/><text fill="#000000" font-family="sans-serif" font-size="14" lengthAdjust="spacingAndGlyphs" textLength="206" x="251.7652" y="646.8015">AUCKL3-12 - Register Scooter</text><ellipse cx="354.9942" cy="727.8988" fill="#FEFECE" filter="url(#f1fmt8aktllpob)" rx="117.4942" ry="25.8988" style="stroke:#A80036;stroke-width:1.5;"/><text fill="#000000" font-family="sans-serif" font-size="14" lengthAdjust="spacingAndGlyphs" textLength="214" x="247.9942" y="732.5473">AUCKL3-16 - Execute a delivery</text><ellipse cx="355.1502" cy="276.93" fill="#FEFECE" filter="url(#f1fmt8aktllpob)" rx="122.6502" ry="26.93" style="stroke:#A80036;stroke-width:1.5;"/><text fill="#000000" font-family="sans-serif" font-size="14" lengthAdjust="spacingAndGlyphs" textLength="225" x="242.6502" y="281.5785">AUCKL3-19 - Charge the Scooter</text><ellipse cx="355.0329" cy="160.8066" fill="#FEFECE" filter="url(#f1fmt8aktllpob)" rx="104.5329" ry="23.3066" style="stroke:#A80036;stroke-width:1.5;"/><text fill="#000000" font-family="sans-serif" font-size="14" lengthAdjust="spacingAndGlyphs" textLength="186" x="262.0329" y="165.455">AUCKL3-21 - Buy a product</text><ellipse cx="354.7652" cy="45.153" fill="#FEFECE" filter="url(#f1fmt8aktllpob)" rx="113.7652" ry="25.153" style="stroke:#A80036;stroke-width:1.5;"/><text fill="#000000" font-family="sans-serif" font-size="14" lengthAdjust="spacingAndGlyphs" textLength="206" x="251.7652" y="49.8015">AUCKL3-23 - Insert Client data</text><ellipse cx="354.9616" cy="814.9923" fill="#FEFECE" filter="url(#f1fmt8aktllpob)" rx="117.9616" ry="25.9923" style="stroke:#A80036;stroke-width:1.5;"/><text fill="#000000" font-family="sans-serif" font-size="14" lengthAdjust="spacingAndGlyphs" textLength="215" x="247.4616" y="819.6408">AUCKL3-88 - Insert courier data</text><ellipse cx="355.2042" cy="898.9408" fill="#FEFECE" filter="url(#f1fmt8aktllpob)" rx="102.7042" ry="22.9408" style="stroke:#A80036;stroke-width:1.5;"/><text fill="#000000" font-family="sans-serif" font-size="14" lengthAdjust="spacingAndGlyphs" textLength="182" x="264.2042" y="903.5893">AUCKL3-94 - Update stock</text><ellipse cx="354.9911" cy="980.8982" fill="#FEFECE" filter="url(#f1fmt8aktllpob)" rx="104.9911" ry="23.3982" style="stroke:#A80036;stroke-width:1.5;"/><text fill="#000000" font-family="sans-serif" font-size="14" lengthAdjust="spacingAndGlyphs" textLength="187" x="261.4911" y="985.5466">AUCKL3-95 - Insert product</text><ellipse cx="355.2013" cy="1067.9403" fill="#FEFECE" filter="url(#f1fmt8aktllpob)" rx="130.2013" ry="28.4403" style="stroke:#A80036;stroke-width:1.5;"/><text fill="#000000" font-family="sans-serif" font-size="14" lengthAdjust="spacingAndGlyphs" textLength="241" x="234.7013" y="1072.5887">AUCKL3-112 - Register Pharmacies</text><ellipse cx="354.7817" cy="1166.9563" fill="#FEFECE" filter="url(#f1fmt8aktllpob)" rx="162.7817" ry="34.9563" style="stroke:#A80036;stroke-width:1.5;"/><text fill="#000000" font-family="sans-serif" font-size="14" lengthAdjust="spacingAndGlyphs" textLength="309" x="200.2817" y="1171.6048">AUCKL3-115 - Edit Parking Lot characteristics</text><ellipse cx="354.8655" cy="1263.7731" fill="#FEFECE" filter="url(#f1fmt8aktllpob)" rx="119.3655" ry="26.2731" style="stroke:#A80036;stroke-width:1.5;"/><text fill="#000000" font-family="sans-serif" font-size="14" lengthAdjust="spacingAndGlyphs" textLength="218" x="245.8655" y="1268.4215">AUCKL3-116 - Insert Parking Lot</text><ellipse cx="354.8359" cy="1350.9672" fill="#FEFECE" filter="url(#f1fmt8aktllpob)" rx="112.8359" ry="24.9672" style="stroke:#A80036;stroke-width:1.5;"/><text fill="#000000" font-family="sans-serif" font-size="14" lengthAdjust="spacingAndGlyphs" textLength="204" x="252.8359" y="1355.6156">AUCKL3-117 - Register Drone</text><ellipse cx="355.1894" cy="1441.9379" fill="#FEFECE" filter="url(#f1fmt8aktllpob)" rx="140.1894" ry="30.4379" style="stroke:#A80036;stroke-width:1.5;"/><text fill="#000000" font-family="sans-serif" font-size="14" lengthAdjust="spacingAndGlyphs" textLength="262" x="224.1894" y="1446.5863">AUCKL3-118 - Add Drone to Pharmacy</text><ellipse cx="354.7817" cy="1542.9563" fill="#FEFECE" filter="url(#f1fmt8aktllpob)" rx="162.7817" ry="34.9563" style="stroke:#A80036;stroke-width:1.5;"/><text fill="#000000" font-family="sans-serif" font-size="14" lengthAdjust="spacingAndGlyphs" textLength="309" x="200.2817" y="1547.6048">AUCKL3-119 - Remove Drone from Pharmacy</text><ellipse cx="355.2013" cy="1641.9403" fill="#FEFECE" filter="url(#f1fmt8aktllpob)" rx="130.2013" ry="28.4403" style="stroke:#A80036;stroke-width:1.5;"/><text fill="#000000" font-family="sans-serif" font-size="14" lengthAdjust="spacingAndGlyphs" textLength="241" x="234.7013" y="1646.5887">AUCKL3-121 - Make Drone Delivery</text><!--MD5=[5bb58f447e60c14e9d23282c6a4405f4]
entity ADM--><ellipse cx="69" cy="950" fill="#FEFECE" filter="url(#f1fmt8aktllpob)" rx="8" ry="8" style="stroke:#A80036;stroke-width:1.5;"/><path d="M69,958 L69,985 M56,966 L82,966 M69,985 L56,1000 M69,985 L82,1000 " fill="none" filter="url(#f1fmt8aktllpob)" style="stroke:#A80036;stroke-width:1.5;"/><text fill="#000000" font-family="sans-serif" font-size="14" lengthAdjust="spacingAndGlyphs" textLength="91" x="23.5" y="1018.4951">Administrator</text><!--MD5=[feb24ab1ac7d313d5e87bfa18397eed0]
entity MAN--><ellipse cx="69" cy="130" fill="#FEFECE" filter="url(#f1fmt8aktllpob)" rx="8" ry="8" style="stroke:#A80036;stroke-width:1.5;"/><path d="M69,138 L69,165 M56,146 L82,146 M69,165 L56,180 M69,165 L82,180 " fill="none" filter="url(#f1fmt8aktllpob)" style="stroke:#A80036;stroke-width:1.5;"/><text fill="#000000" font-family="sans-serif" font-size="14" lengthAdjust="spacingAndGlyphs" textLength="39" x="49.5" y="198.4951">Client</text><!--MD5=[b5af4e906b5608882632c7d969b5b8a1]
entity CO--><ellipse cx="69" cy="246" fill="#FEFECE" filter="url(#f1fmt8aktllpob)" rx="8" ry="8" style="stroke:#A80036;stroke-width:1.5;"/><path d="M69,254 L69,281 M56,262 L82,262 M69,281 L56,296 M69,281 L82,296 " fill="none" filter="url(#f1fmt8aktllpob)" style="stroke:#A80036;stroke-width:1.5;"/><text fill="#000000" font-family="sans-serif" font-size="14" lengthAdjust="spacingAndGlyphs" textLength="50" x="44" y="314.4951">Courier</text><!--MD5=[281a7807f21f92981e4891b591808956]
entity UU--><ellipse cx="69" cy="14" fill="#FEFECE" filter="url(#f1fmt8aktllpob)" rx="8" ry="8" style="stroke:#A80036;stroke-width:1.5;"/><path d="M69,22 L69,49 M56,30 L82,30 M69,49 L56,64 M69,49 L82,64 " fill="none" filter="url(#f1fmt8aktllpob)" style="stroke:#A80036;stroke-width:1.5;"/><text fill="#000000" font-family="sans-serif" font-size="14" lengthAdjust="spacingAndGlyphs" textLength="126" x="6" y="82.4951">Unregistered User</text><!--MD5=[18ce05042804bf44dcb7a3204862a39a]
link ADM to UC1--><path d="M72.3469,940.2148 C82.7947,822.7754 118.5856,487.2949 192,410 C205.5845,395.6974 223.2911,385.8739 242.0136,379.1629 " fill="none" id="ADM-to-UC1" style="stroke:#A80036;stroke-width:1.0;"/><polygon fill="#A80036" points="246.7936,377.5229,236.9826,376.6603,242.0642,379.1456,239.5789,384.2272,246.7936,377.5229" style="stroke:#A80036;stroke-width:1.0;"/><!--MD5=[afb96f077b5aad6802be8a4e992892ce]
link ADM to UC2--><path d="M74.4433,940.4789 C88.9912,837.935 131.8026,571.8251 192,509 C203.692,496.7976 218.2764,487.551 233.8813,480.5489 " fill="none" id="ADM-to-UC2" style="stroke:#A80036;stroke-width:1.0;"/><polygon fill="#A80036" points="238.7549,478.447,228.9066,478.338,234.1636,480.427,232.0746,485.684,238.7549,478.447" style="stroke:#A80036;stroke-width:1.0;"/><!--MD5=[db1eef6a14ce759cd1b7bb831ae99df7]
link ADM to UC3--><path d="M77.1018,940.215 C95.3796,852.1044 142.1326,648.0452 192,600 C205.7422,586.7599 222.9924,577.2765 241.0888,570.496 " fill="none" id="ADM-to-UC3" style="stroke:#A80036;stroke-width:1.0;"/><polygon fill="#A80036" points="246.2131,568.6544,236.3906,567.9341,241.5078,570.3455,239.0964,575.4627,246.2131,568.6544" style="stroke:#A80036;stroke-width:1.0;"/><!--MD5=[75201264684ae616ead1678418b4a491]
link ADM to UC4--><path d="M74.3205,940.4251 C84.898,876.4532 114.6376,752.5034 192,685 C208.0261,671.0163 228.0892,661.5067 248.6057,655.0579 " fill="none" id="ADM-to-UC4" style="stroke:#A80036;stroke-width:1.0;"/><polygon fill="#A80036" points="253.5469,653.5652,243.7747,652.3389,248.7605,655.0112,246.0883,659.997,253.5469,653.5652" style="stroke:#A80036;stroke-width:1.0;"/><!--MD5=[8e3e6826ef82c24011b2d42ab8b1f2ae]
link ADM to UC5--><path d="M82.1991,940.3573 C99.7232,892.8571 135.2435,815.2594 192,772 C209.0497,759.0049 229.6614,749.8437 250.4083,743.3864 " fill="none" id="ADM-to-UC5" style="stroke:#A80036;stroke-width:1.0;"/><polygon fill="#A80036" points="255.3989,741.8849,245.6281,740.6475,250.6109,743.3255,247.933,748.3083,255.3989,741.8849" style="stroke:#A80036;stroke-width:1.0;"/><!--MD5=[b228c7a7ebb1dc8ed63dbccd84ede524]
link ADM to UC9--><path d="M100.3818,940.3362 C123.0993,913.5466 156.0316,879.713 192,859 C211.9545,847.5089 235.0117,838.9268 257.3882,832.5506 " fill="none" id="ADM-to-UC9" style="stroke:#A80036;stroke-width:1.0;"/><polygon fill="#A80036" points="262.4519,831.1415,252.709,829.7009,257.635,832.4821,254.8539,837.4081,262.4519,831.1415" style="stroke:#A80036;stroke-width:1.0;"/><!--MD5=[f2aeeef0e7f82e4bd55d88af897bea0b]
link ADM to UC10--><path d="M114.5943,964.8913 C137.6633,956.9737 166.1796,947.5391 192,940 C220.0833,931.8001 251.1707,923.7344 278.6017,916.9555 " fill="none" id="ADM-to-UC10" style="stroke:#A80036;stroke-width:1.0;"/><polygon fill="#A80036" points="283.6796,915.7049,273.9842,913.9732,278.8247,916.9006,275.8973,921.7411,283.6796,915.7049" style="stroke:#A80036;stroke-width:1.0;"/><!--MD5=[09c8f0596f04e0f1f852d912de51c40d]
link ADM to UC11--><path d="M114.6338,981 C149.6361,981 199.46,981 244.6782,981 " fill="none" id="ADM-to-UC11" style="stroke:#A80036;stroke-width:1.0;"/><polygon fill="#A80036" points="249.8846,981,240.8846,977,244.8846,981,240.8846,985,249.8846,981" style="stroke:#A80036;stroke-width:1.0;"/><!--MD5=[781d2fd99e122bdadeb00b9e8a4cb347]
link ADM to UC12--><path d="M114.6886,996.7941 C137.7812,1004.633 166.2901,1014.092 192,1022 C216.6353,1029.5775 243.5106,1037.359 268.2035,1044.3164 " fill="none" id="ADM-to-UC12" style="stroke:#A80036;stroke-width:1.0;"/><polygon fill="#A80036" points="273.1117,1045.6965,265.5306,1039.4094,268.2984,1044.3429,263.3649,1047.1107,273.1117,1045.6965" style="stroke:#A80036;stroke-width:1.0;"/><!--MD5=[89184bc4fda4fa846ce9477335a6b33e]
link ADM to UC13--><path d="M97.5981,1021.691 C120.1808,1051.0945 154.1212,1089.7526 192,1114 C207.3485,1123.825 224.6819,1131.9824 242.1721,1138.7077 " fill="none" id="ADM-to-UC13" style="stroke:#A80036;stroke-width:1.0;"/><polygon fill="#A80036" points="247.1078,1140.5669,240.0954,1133.6512,242.4287,1138.8044,237.2755,1141.1377,247.1078,1140.5669" style="stroke:#A80036;stroke-width:1.0;"/><!--MD5=[e7e1e4e9f8489381c98d20b1474157c4]
link ADM to UC14--><path d="M78.9409,1021.7667 C94.1297,1075.3062 128.2966,1168.5299 192,1220 C208.1472,1233.0463 227.8353,1242.2417 247.8694,1248.7183 " fill="none" id="ADM-to-UC14" style="stroke:#A80036;stroke-width:1.0;"/><polygon fill="#A80036" points="252.6928,1250.2241,245.2939,1243.7236,247.92,1248.734,242.9097,1251.3601,252.6928,1250.2241" style="stroke:#A80036;stroke-width:1.0;"/><!--MD5=[24d644a6e8cfc14a663ee52fa44b3ee4]
link ADM to UC15--><path d="M72.4785,1021.5068 C80.6342,1090.6734 107.2564,1231.4759 192,1308 C207.7857,1322.2546 227.7448,1331.8813 248.2358,1338.3588 " fill="none" id="ADM-to-UC15" style="stroke:#A80036;stroke-width:1.0;"/><polygon fill="#A80036" points="253.1723,1339.8568,245.7216,1333.4158,248.3877,1338.4049,243.3986,1341.0711,253.1723,1339.8568" style="stroke:#A80036;stroke-width:1.0;"/><!--MD5=[02742756c1c0c354ce8446f89adcbfa6]
link ADM to UC16--><path d="M76.0294,1021.6015 C92.9553,1114.9117 138.5539,1340.7179 192,1394 C204.4126,1406.3746 219.8435,1415.5906 236.223,1422.4478 " fill="none" id="ADM-to-UC16" style="stroke:#A80036;stroke-width:1.0;"/><polygon fill="#A80036" points="240.8663,1424.32,234.0153,1417.2445,236.2291,1422.4501,231.0235,1424.664,240.8663,1424.32" style="stroke:#A80036;stroke-width:1.0;"/><!--MD5=[740d49164564d0dbfb709a8659c7f1f5]
link ADM to UC17--><path d="M73.7207,1021.8229 C87.0134,1130.0676 128.0081,1420.8623 192,1490 C202.442,1501.2817 215.3075,1510.1685 229.193,1517.1674 " fill="none" id="ADM-to-UC17" style="stroke:#A80036;stroke-width:1.0;"/><polygon fill="#A80036" points="233.939,1519.4694,227.5871,1511.9426,229.4403,1517.2873,224.0956,1519.1405,233.939,1519.4694" style="stroke:#A80036;stroke-width:1.0;"/><!--MD5=[e99d2a5174385cf80c08584e238e34ca]
link ADM to UC18--><path d="M71.705,1021.7499 C80.7034,1145.1161 113.6166,1511.2801 192,1596 C204.4119,1609.4153 220.4056,1619.0279 237.5102,1625.8936 " fill="none" id="ADM-to-UC18" style="stroke:#A80036;stroke-width:1.0;"/><polygon fill="#A80036" points="242.3619,1627.7581,235.3959,1620.7957,237.6947,1625.9644,232.526,1628.2632,242.3619,1627.7581" style="stroke:#A80036;stroke-width:1.0;"/><!--MD5=[740f52da7b9367d3c62da3c06473e2d7]
link MAN to UC7--><path d="M88.6579,161 C120.7542,161 186.6809,161 244.9098,161 " fill="none" id="MAN-to-UC7" style="stroke:#A80036;stroke-width:1.0;"/><polygon fill="#A80036" points="250.1598,161,241.1598,157,245.1598,161,241.1598,165,250.1598,161" style="stroke:#A80036;stroke-width:1.0;"/><!--MD5=[980c96a9d2d6a561803d016e26da8f75]
link CO to UC6--><path d="M94.1299,277 C124.242,277 176.9345,277 227.116,277 " fill="none" id="CO-to-UC6" style="stroke:#A80036;stroke-width:1.0;"/><polygon fill="#A80036" points="232.2763,277,223.2763,273,227.2763,277,223.2763,281,232.2763,277" style="stroke:#A80036;stroke-width:1.0;"/><!--MD5=[04dd723f08f7742c088e8c4ca226a45b]
link UU to UC8--><path d="M132.118,45 C162.535,45 200.0517,45 235.5728,45 " fill="none" id="UU-to-UC8" style="stroke:#A80036;stroke-width:1.0;"/><polygon fill="#A80036" points="240.7981,45,231.7981,41,235.7981,45,231.7981,49,240.7981,45" style="stroke:#A80036;stroke-width:1.0;"/><!--MD5=[a8b61645078abe22dd4f58a4eed459ae]
@startuml
usecase UC1 as "AUCKL3-9 - Add Scooter to a list"
usecase UC2 as "AUCKL3-10 - Remove Scooter from a list"
usecase UC3 as "AUCKL3-11 - Insert pharmacy data"
usecase UC4 as "AUCKL3-12 - Register Scooter"
usecase UC5 as "AUCKL3-16 - Execute a delivery"
usecase UC6 as "AUCKL3-19 - Charge the Scooter"
usecase UC7 as "AUCKL3-21 - Buy a product"
usecase UC8 as "AUCKL3-23 - Insert Client data"
usecase UC9 as "AUCKL3-88 - Insert courier data"
usecase UC10 as "AUCKL3-94 - Update stock"
usecase UC11 as "AUCKL3-95 - Insert product"
usecase UC12 as "AUCKL3-112 - Register Pharmacies"
usecase UC13 as "AUCKL3-115 - Edit Parking Lot characteristics"
usecase UC14 as "AUCKL3-116 - Insert Parking Lot"
usecase UC15 as "AUCKL3-117 - Register Drone"
usecase UC16 as "AUCKL3-118 - Add Drone to Pharmacy"
usecase UC17 as "AUCKL3-119 - Remove Drone from Pharmacy"
usecase UC18 as "AUCKL3-121 - Make Drone Delivery"


actor "Administrator" as ADM
actor "Client" as MAN
actor "Courier" as CO
actor "Unregistered User" as UU

left to right direction

ADM - ->(UC1)
ADM - ->(UC2)
ADM - ->(UC3)
ADM - ->(UC4)
ADM - ->(UC5)
ADM - ->(UC9)
ADM - ->(UC10)
ADM - ->(UC11)
ADM - ->(UC12)
ADM - ->(UC13)
ADM - ->(UC14)
ADM - ->(UC15)
ADM - ->(UC16)
ADM - ->(UC17)
ADM - ->(UC18)

MAN - ->(UC7)

CO - ->(UC6)

UU - ->(UC8)
@enduml

PlantUML version 1.2020.22(Sun Dec 06 09:36:27 UTC 2020)
(GPL source distribution)
Java Runtime: OpenJDK Runtime Environment
JVM: OpenJDK 64-Bit Server VM
Default Encoding: UTF-8
Language: en
Country: US
--></g></svg>