<?xml version="1.0" encoding="UTF-8" standalone="no"?><svg xmlns="http://www.w3.org/2000/svg" xmlns:xlink="http://www.w3.org/1999/xlink" contentScriptType="application/ecmascript" contentStyleType="text/css" height="772px" preserveAspectRatio="none" style="width:870px;height:772px;background:#FFFFFF;" version="1.1" viewBox="0 0 870 772" width="870px" zoomAndPan="magnify"><defs><filter height="300%" id="f1wgr56mfxn5ab" width="300%" x="-1" y="-1"><feGaussianBlur result="blurOut" stdDeviation="2.0"/><feColorMatrix in="blurOut" result="blurOut2" type="matrix" values="0 0 0 0 0 0 0 0 0 0 0 0 0 0 0 0 0 0 .4 0"/><feOffset dx="4.0" dy="4.0" in="blurOut2" result="blurOut3"/><feBlend in="SourceGraphic" in2="blurOut3" mode="normal"/></filter></defs><g><rect fill="#FFFFFF" filter="url(#f1wgr56mfxn5ab)" height="660.7969" style="stroke:#A80036;stroke-width:1.0;" width="10" x="81.5" y="50.2969"/><rect fill="#FFFFFF" filter="url(#f1wgr56mfxn5ab)" height="29.1328" style="stroke:#A80036;stroke-width:1.0;" width="10" x="316.5" y="113.5625"/><rect fill="#FFFFFF" filter="url(#f1wgr56mfxn5ab)" height="30" style="stroke:#A80036;stroke-width:1.0;" width="10" x="463" y="195.9609"/><rect fill="#FFFFFF" filter="url(#f1wgr56mfxn5ab)" height="30" style="stroke:#A80036;stroke-width:1.0;" width="10" x="463" y="368.1641"/><rect fill="#FFFFFF" filter="url(#f1wgr56mfxn5ab)" height="30" style="stroke:#A80036;stroke-width:1.0;" width="10" x="463" y="681.0938"/><rect fill="#FFFFFF" filter="url(#f1wgr56mfxn5ab)" height="30" style="stroke:#A80036;stroke-width:1.0;" width="10" x="648.5" y="255.0938"/><rect fill="#FFFFFF" filter="url(#f1wgr56mfxn5ab)" height="30" style="stroke:#A80036;stroke-width:1.0;" width="10" x="648.5" y="427.2969"/><rect fill="#FFFFFF" filter="url(#f1wgr56mfxn5ab)" height="30" style="stroke:#A80036;stroke-width:1.0;" width="10" x="794.5" y="562.8281"/><rect fill="#FFFFFF" filter="url(#f1wgr56mfxn5ab)" height="30" style="stroke:#A80036;stroke-width:1.0;" width="10" x="794.5" y="621.9609"/><rect fill="#FFFFFF" filter="url(#f1wgr56mfxn5ab)" height="377" style="stroke:#000000;stroke-width:2.0;" width="728.5" x="10" y="157.6953"/><rect fill="#FFFFFF" height="202.4688" style="stroke:none;stroke-width:1.0;" width="728.5" x="10" y="332.2266"/><line style="stroke:#A80036;stroke-width:1.0;stroke-dasharray:5.0,5.0;" x1="86" x2="86" y1="40.2969" y2="729.0938"/><line style="stroke:#A80036;stroke-width:1.0;stroke-dasharray:5.0,5.0;" x1="321.5" x2="321.5" y1="40.2969" y2="729.0938"/><line style="stroke:#A80036;stroke-width:1.0;stroke-dasharray:5.0,5.0;" x1="467.5" x2="467.5" y1="40.2969" y2="729.0938"/><line style="stroke:#A80036;stroke-width:1.0;stroke-dasharray:5.0,5.0;" x1="653.5" x2="653.5" y1="40.2969" y2="729.0938"/><line style="stroke:#A80036;stroke-width:1.0;stroke-dasharray:5.0,5.0;" x1="799.5" x2="799.5" y1="40.2969" y2="729.0938"/><rect fill="#FEFECE" filter="url(#f1wgr56mfxn5ab)" height="30.2969" style="stroke:#A80036;stroke-width:1.5;" width="129" x="20" y="5"/><text fill="#000000" font-family="sans-serif" font-size="14" lengthAdjust="spacing" textLength="115" x="27" y="24.9951">WorkflowServer</text><rect fill="#FEFECE" filter="url(#f1wgr56mfxn5ab)" height="30.2969" style="stroke:#A80036;stroke-width:1.5;" width="129" x="20" y="728.0938"/><text fill="#000000" font-family="sans-serif" font-size="14" lengthAdjust="spacing" textLength="115" x="27" y="748.0889">WorkflowServer</text><rect fill="#FEFECE" filter="url(#f1wgr56mfxn5ab)" height="30.2969" style="stroke:#A80036;stroke-width:1.5;" width="68" x="285.5" y="5"/><text fill="#000000" font-family="sans-serif" font-size="14" lengthAdjust="spacing" textLength="54" x="292.5" y="24.9951">System</text><rect fill="#FEFECE" filter="url(#f1wgr56mfxn5ab)" height="30.2969" style="stroke:#A80036;stroke-width:1.5;" width="68" x="285.5" y="728.0938"/><text fill="#000000" font-family="sans-serif" font-size="14" lengthAdjust="spacing" textLength="54" x="292.5" y="748.0889">System</text><rect fill="#FEFECE" filter="url(#f1wgr56mfxn5ab)" height="30.2969" style="stroke:#A80036;stroke-width:1.5;" width="197" x="367.5" y="5"/><text fill="#000000" font-family="sans-serif" font-size="14" lengthAdjust="spacing" textLength="183" x="374.5" y="24.9951">TaskExecutionRepository</text><rect fill="#FEFECE" filter="url(#f1wgr56mfxn5ab)" height="30.2969" style="stroke:#A80036;stroke-width:1.5;" width="197" x="367.5" y="728.0938"/><text fill="#000000" font-family="sans-serif" font-size="14" lengthAdjust="spacing" textLength="183" x="374.5" y="748.0889">TaskExecutionRepository</text><rect fill="#FEFECE" filter="url(#f1wgr56mfxn5ab)" height="30.2969" style="stroke:#A80036;stroke-width:1.5;" width="146" x="578.5" y="5"/><text fill="#000000" font-family="sans-serif" font-size="14" lengthAdjust="spacing" textLength="132" x="585.5" y="24.9951">catalogRepository</text><rect fill="#FEFECE" filter="url(#f1wgr56mfxn5ab)" height="30.2969" style="stroke:#A80036;stroke-width:1.5;" width="146" x="578.5" y="728.0938"/><text fill="#000000" font-family="sans-serif" font-size="14" lengthAdjust="spacing" textLength="132" x="585.5" y="748.0889">catalogRepository</text><rect fill="#FEFECE" filter="url(#f1wgr56mfxn5ab)" height="30.2969" style="stroke:#A80036;stroke-width:1.5;" width="118" x="738.5" y="5"/><text fill="#000000" font-family="sans-serif" font-size="14" lengthAdjust="spacing" textLength="104" x="745.5" y="24.9951">TaskExecution</text><rect fill="#FEFECE" filter="url(#f1wgr56mfxn5ab)" height="30.2969" style="stroke:#A80036;stroke-width:1.5;" width="118" x="738.5" y="728.0938"/><text fill="#000000" font-family="sans-serif" font-size="14" lengthAdjust="spacing" textLength="104" x="745.5" y="748.0889">TaskExecution</text><rect fill="#FFFFFF" filter="url(#f1wgr56mfxn5ab)" height="660.7969" style="stroke:#A80036;stroke-width:1.0;" width="10" x="81.5" y="50.2969"/><rect fill="#FFFFFF" filter="url(#f1wgr56mfxn5ab)" height="29.1328" style="stroke:#A80036;stroke-width:1.0;" width="10" x="316.5" y="113.5625"/><rect fill="#FFFFFF" filter="url(#f1wgr56mfxn5ab)" height="30" style="stroke:#A80036;stroke-width:1.0;" width="10" x="463" y="195.9609"/><rect fill="#FFFFFF" filter="url(#f1wgr56mfxn5ab)" height="30" style="stroke:#A80036;stroke-width:1.0;" width="10" x="463" y="368.1641"/><rect fill="#FFFFFF" filter="url(#f1wgr56mfxn5ab)" height="30" style="stroke:#A80036;stroke-width:1.0;" width="10" x="463" y="681.0938"/><rect fill="#FFFFFF" filter="url(#f1wgr56mfxn5ab)" height="30" style="stroke:#A80036;stroke-width:1.0;" width="10" x="648.5" y="255.0938"/><rect fill="#FFFFFF" filter="url(#f1wgr56mfxn5ab)" height="30" style="stroke:#A80036;stroke-width:1.0;" width="10" x="648.5" y="427.2969"/><rect fill="#FFFFFF" filter="url(#f1wgr56mfxn5ab)" height="30" style="stroke:#A80036;stroke-width:1.0;" width="10" x="794.5" y="562.8281"/><rect fill="#FFFFFF" filter="url(#f1wgr56mfxn5ab)" height="30" style="stroke:#A80036;stroke-width:1.0;" width="10" x="794.5" y="621.9609"/><line style="stroke:#A80036;stroke-width:1.0;" x1="91.5" x2="133.5" y1="71.4297" y2="71.4297"/><line style="stroke:#A80036;stroke-width:1.0;" x1="133.5" x2="133.5" y1="71.4297" y2="84.4297"/><line style="stroke:#A80036;stroke-width:1.0;" x1="92.5" x2="133.5" y1="84.4297" y2="84.4297"/><polygon fill="#A80036" points="102.5,80.4297,92.5,84.4297,102.5,88.4297,98.5,84.4297" style="stroke:#A80036;stroke-width:1.0;"/><text fill="#000000" font-family="sans-serif" font-size="13" lengthAdjust="spacing" textLength="124" x="98.5" y="66.3638">managingRequests</text><polygon fill="#A80036" points="304.5,109.5625,314.5,113.5625,304.5,117.5625,308.5,113.5625" style="stroke:#A80036;stroke-width:1.0;"/><line style="stroke:#A80036;stroke-width:1.0;" x1="91.5" x2="310.5" y1="113.5625" y2="113.5625"/><text fill="#000000" font-family="sans-serif" font-size="13" lengthAdjust="spacing" textLength="206" x="98.5" y="108.4966">callTaskExecutorAlgoritms(task)</text><polygon fill="#A80036" points="102.5,138.6953,92.5,142.6953,102.5,146.6953,98.5,142.6953" style="stroke:#A80036;stroke-width:1.0;"/><line style="stroke:#A80036;stroke-width:1.0;stroke-dasharray:2.0,2.0;" x1="96.5" x2="320.5" y1="142.6953" y2="142.6953"/><text fill="#000000" font-family="sans-serif" font-size="13" lengthAdjust="spacing" textLength="61" x="108.5" y="137.6294">algorithm</text><path d="M10,157.6953 L76,157.6953 L76,164.6953 L66,174.6953 L10,174.6953 L10,157.6953 " fill="#EEEEEE" style="stroke:#000000;stroke-width:1.0;"/><rect fill="none" height="377" style="stroke:#000000;stroke-width:2.0;" width="728.5" x="10" y="157.6953"/><text fill="#000000" font-family="sans-serif" font-size="13" font-weight="bold" lengthAdjust="spacing" textLength="21" x="25" y="170.7622">alt</text><text fill="#000000" font-family="sans-serif" font-size="11" font-weight="bold" lengthAdjust="spacing" textLength="41" x="91" y="169.9058">[FCFS]</text><polygon fill="#A80036" points="451,191.9609,461,195.9609,451,199.9609,455,195.9609" style="stroke:#A80036;stroke-width:1.0;"/><line style="stroke:#A80036;stroke-width:1.0;" x1="91.5" x2="457" y1="195.9609" y2="195.9609"/><text fill="#000000" font-family="sans-serif" font-size="13" lengthAdjust="spacing" textLength="218" x="98.5" y="190.895">request = findRequestTasks(task)</text><polygon fill="#A80036" points="636.5,251.0938,646.5,255.0938,636.5,259.0938,640.5,255.0938" style="stroke:#A80036;stroke-width:1.0;"/><line style="stroke:#A80036;stroke-width:1.0;" x1="91.5" x2="642.5" y1="255.0938" y2="255.0938"/><text fill="#000000" font-family="sans-serif" font-size="13" lengthAdjust="spacing" textLength="211" x="98.5" y="250.0278">catalog = findByService(request)</text><line style="stroke:#A80036;stroke-width:1.0;" x1="91.5" x2="133.5" y1="305.1602" y2="305.1602"/><line style="stroke:#A80036;stroke-width:1.0;" x1="133.5" x2="133.5" y1="305.1602" y2="318.1602"/><line style="stroke:#A80036;stroke-width:1.0;" x1="92.5" x2="133.5" y1="318.1602" y2="318.1602"/><polygon fill="#A80036" points="102.5,314.1602,92.5,318.1602,102.5,322.1602,98.5,318.1602" style="stroke:#A80036;stroke-width:1.0;"/><path d="M141,298.0938 L141,323.0938 L421,323.0938 L421,308.0938 L411,298.0938 L141,298.0938 " fill="#FBFB77" filter="url(#f1wgr56mfxn5ab)" style="stroke:#A80036;stroke-width:1.0;"/><path d="M411,298.0938 L411,308.0938 L421,308.0938 L411,298.0938 " fill="#FBFB77" style="stroke:#A80036;stroke-width:1.0;"/><text fill="#000000" font-family="sans-serif" font-size="13" lengthAdjust="spacing" textLength="259" x="147" y="315.1606">check the next collaborator in the queue</text><line style="stroke:#000000;stroke-width:1.0;stroke-dasharray:2.0,2.0;" x1="10" x2="738.5" y1="333.2266" y2="333.2266"/><text fill="#000000" font-family="sans-serif" font-size="11" font-weight="bold" lengthAdjust="spacing" textLength="49" x="15" y="343.437">[Other]</text><polygon fill="#A80036" points="451,364.1641,461,368.1641,451,372.1641,455,368.1641" style="stroke:#A80036;stroke-width:1.0;"/><line style="stroke:#A80036;stroke-width:1.0;" x1="91.5" x2="457" y1="368.1641" y2="368.1641"/><text fill="#000000" font-family="sans-serif" font-size="13" lengthAdjust="spacing" textLength="218" x="98.5" y="363.0981">request = findRequestTasks(task)</text><polygon fill="#A80036" points="636.5,423.2969,646.5,427.2969,636.5,431.2969,640.5,427.2969" style="stroke:#A80036;stroke-width:1.0;"/><line style="stroke:#A80036;stroke-width:1.0;" x1="91.5" x2="642.5" y1="427.2969" y2="427.2969"/><text fill="#000000" font-family="sans-serif" font-size="13" lengthAdjust="spacing" textLength="211" x="98.5" y="422.231">catalog = findByService(request)</text><line style="stroke:#A80036;stroke-width:1.0;" x1="91.5" x2="133.5" y1="492.4961" y2="492.4961"/><line style="stroke:#A80036;stroke-width:1.0;" x1="133.5" x2="133.5" y1="492.4961" y2="505.4961"/><line style="stroke:#A80036;stroke-width:1.0;" x1="92.5" x2="133.5" y1="505.4961" y2="505.4961"/><polygon fill="#A80036" points="102.5,501.4961,92.5,505.4961,102.5,509.4961,98.5,505.4961" style="stroke:#A80036;stroke-width:1.0;"/><path d="M141,470.2969 L141,525.2969 L650,525.2969 L650,480.2969 L640,470.2969 L141,470.2969 " fill="#FBFB77" filter="url(#f1wgr56mfxn5ab)" style="stroke:#A80036;stroke-width:1.0;"/><path d="M640,470.2969 L640,480.2969 L650,480.2969 L640,470.2969 " fill="#FBFB77" style="stroke:#A80036;stroke-width:1.0;"/><text fill="#000000" font-family="sans-serif" font-size="13" lengthAdjust="spacing" textLength="410" x="147" y="487.3638">runs through the list of teams in that catalog and for each team</text><text fill="#000000" font-family="sans-serif" font-size="13" lengthAdjust="spacing" textLength="406" x="147" y="502.4966">uns through all its collaborators. For each collaborator, get their</text><text fill="#000000" font-family="sans-serif" font-size="13" lengthAdjust="spacing" textLength="488" x="147" y="517.6294">pending tasks and check which one has the lowest average time of all tasks</text><polygon fill="#A80036" points="782.5,558.8281,792.5,562.8281,782.5,566.8281,786.5,562.8281" style="stroke:#A80036;stroke-width:1.0;"/><line style="stroke:#A80036;stroke-width:1.0;" x1="91.5" x2="788.5" y1="562.8281" y2="562.8281"/><text fill="#000000" font-family="sans-serif" font-size="13" lengthAdjust="spacing" textLength="162" x="98.5" y="557.7622">changeClaimTaskDate(d)</text><polygon fill="#A80036" points="782.5,617.9609,792.5,621.9609,782.5,625.9609,786.5,621.9609" style="stroke:#A80036;stroke-width:1.0;"/><line style="stroke:#A80036;stroke-width:1.0;" x1="91.5" x2="788.5" y1="621.9609" y2="621.9609"/><text fill="#000000" font-family="sans-serif" font-size="13" lengthAdjust="spacing" textLength="331" x="98.5" y="616.895">changeResponsibleCollaborator(assignCollaborator)</text><polygon fill="#A80036" points="451,677.0938,461,681.0938,451,685.0938,455,681.0938" style="stroke:#A80036;stroke-width:1.0;"/><line style="stroke:#A80036;stroke-width:1.0;" x1="91.5" x2="457" y1="681.0938" y2="681.0938"/><text fill="#000000" font-family="sans-serif" font-size="13" lengthAdjust="spacing" textLength="68" x="98.5" y="676.0278">save(task)</text><!--MD5=[4f8afa54ed63400b72d1a5f10852f77b]
@startuml
activate WorkflowServer
WorkflowServer -> WorkflowServer : managingRequests
WorkflowServer -> System : callTaskExecutorAlgoritms(task)
activate System
System - -> WorkflowServer : algorithm
deactivate System

alt FCFS
WorkflowServer -> TaskExecutionRepository : request = findRequestTasks(task)
activate TaskExecutionRepository
deactivate TaskExecutionRepository

WorkflowServer -> catalogRepository : catalog = findByService(request)
activate catalogRepository
deactivate catalogRepository

WorkflowServer -> WorkflowServer : 
note right : check the next collaborator in the queue

else Other
WorkflowServer -> TaskExecutionRepository : request = findRequestTasks(task)
activate TaskExecutionRepository
deactivate TaskExecutionRepository

WorkflowServer -> catalogRepository : catalog = findByService(request)
activate catalogRepository
deactivate catalogRepository

WorkflowServer -> WorkflowServer : 
note right : runs through the list of teams in that catalog and for each team \nuns through all its collaborators. For each collaborator, get their \npending tasks and check which one has the lowest average time of all tasks

end


WorkflowServer -> TaskExecution : changeClaimTaskDate(d)
activate TaskExecution
deactivate TaskExecution

WorkflowServer -> TaskExecution : changeResponsibleCollaborator(assignCollaborator)
activate TaskExecution
deactivate TaskExecution

WorkflowServer -> TaskExecutionRepository : save(task)
activate TaskExecutionRepository
deactivate TaskExecutionRepository

deactivate WorkflowServer
@enduml

PlantUML version 1.2021.7(Sun May 23 12:40:07 UTC 2021)
(GPL source distribution)
Java Runtime: Java(TM) SE Runtime Environment
JVM: Java HotSpot(TM) 64-Bit Server VM
Default Encoding: UTF-8
Language: en
Country: US
--></g></svg>