<?xml version="1.0" encoding="UTF-8" standalone="no"?><svg xmlns="http://www.w3.org/2000/svg" xmlns:xlink="http://www.w3.org/1999/xlink" contentScriptType="application/ecmascript" contentStyleType="text/css" height="857px" preserveAspectRatio="none" style="width:1599px;height:857px;" version="1.1" viewBox="0 0 1599 857" width="1599px" zoomAndPan="magnify"><defs><filter height="300%" id="f1qiebctbvwg2o" width="300%" x="-1" y="-1"><feGaussianBlur result="blurOut" stdDeviation="2.0"/><feColorMatrix in="blurOut" result="blurOut2" type="matrix" values="0 0 0 0 0 0 0 0 0 0 0 0 0 0 0 0 0 0 .4 0"/><feOffset dx="4.0" dy="4.0" in="blurOut2" result="blurOut3"/><feBlend in="SourceGraphic" in2="blurOut3" mode="normal"/></filter></defs><g><rect fill="#FFFFFF" filter="url(#f1qiebctbvwg2o)" height="639.7891" style="stroke:#A80036;stroke-width:1.0;" width="10" x="580" y="114.7266"/><rect fill="#FFFFFF" filter="url(#f1qiebctbvwg2o)" height="523.2578" style="stroke:#A80036;stroke-width:1.0;" width="10" x="760.5" y="172.9922"/><rect fill="#FFFFFF" filter="url(#f1qiebctbvwg2o)" height="523.2578" style="stroke:#A80036;stroke-width:1.0;" width="10" x="926.5" y="202.125"/><rect fill="#FFFFFF" filter="url(#f1qiebctbvwg2o)" height="29.1328" style="stroke:#A80036;stroke-width:1.0;" width="10" x="1099.5" y="472.3203"/><rect fill="#FFFFFF" filter="url(#f1qiebctbvwg2o)" height="29.1328" style="stroke:#A80036;stroke-width:1.0;" width="10" x="1277.5" y="231.2578"/><rect fill="#FFFFFF" filter="url(#f1qiebctbvwg2o)" height="29.1328" style="stroke:#A80036;stroke-width:1.0;" width="10" x="1530.5" y="725.3828"/><rect fill="#FFFFFF" filter="url(#f1qiebctbvwg2o)" height="234.0625" style="stroke:#000000;stroke-width:2.0;" width="1192" x="10" y="346.6563"/><line style="stroke:#A80036;stroke-width:1.0;stroke-dasharray:5.0,5.0;" x1="83" x2="83" y1="83.5938" y2="772.5156"/><line style="stroke:#A80036;stroke-width:1.0;stroke-dasharray:5.0,5.0;" x1="585" x2="585" y1="83.5938" y2="772.5156"/><line style="stroke:#A80036;stroke-width:1.0;stroke-dasharray:5.0,5.0;" x1="765" x2="765" y1="83.5938" y2="772.5156"/><line style="stroke:#A80036;stroke-width:1.0;stroke-dasharray:5.0,5.0;" x1="931" x2="931" y1="83.5938" y2="772.5156"/><line style="stroke:#A80036;stroke-width:1.0;stroke-dasharray:5.0,5.0;" x1="1104" x2="1104" y1="83.5938" y2="772.5156"/><line style="stroke:#A80036;stroke-width:1.0;stroke-dasharray:5.0,5.0;" x1="1282" x2="1282" y1="83.5938" y2="772.5156"/><line style="stroke:#A80036;stroke-width:1.0;stroke-dasharray:5.0,5.0;" x1="1418" x2="1418" y1="83.5938" y2="772.5156"/><line style="stroke:#A80036;stroke-width:1.0;stroke-dasharray:5.0,5.0;" x1="1535" x2="1535" y1="83.5938" y2="772.5156"/><rect fill="#FEFECE" filter="url(#f1qiebctbvwg2o)" height="46.5938" style="stroke:#A80036;stroke-width:1.5;" width="122" x="20" y="32"/><text fill="#000000" font-family="sans-serif" font-size="14" font-style="italic" lengthAdjust="spacing" textLength="108" x="27" y="51.9951">«presentation»</text><text fill="#000000" font-family="sans-serif" font-size="14" lengthAdjust="spacing" textLength="102" x="30" y="68.292">CreateTeamUI</text><rect fill="#FEFECE" filter="url(#f1qiebctbvwg2o)" height="46.5938" style="stroke:#A80036;stroke-width:1.5;" width="122" x="20" y="771.5156"/><text fill="#000000" font-family="sans-serif" font-size="14" font-style="italic" lengthAdjust="spacing" textLength="108" x="27" y="791.5107">«presentation»</text><text fill="#000000" font-family="sans-serif" font-size="14" lengthAdjust="spacing" textLength="102" x="30" y="807.8076">CreateTeamUI</text><rect fill="#FEFECE" filter="url(#f1qiebctbvwg2o)" height="46.5938" style="stroke:#A80036;stroke-width:1.5;" width="176" x="495" y="32"/><text fill="#000000" font-family="sans-serif" font-size="14" font-style="italic" lengthAdjust="spacing" textLength="97" x="534.5" y="51.9951">«application»</text><text fill="#000000" font-family="sans-serif" font-size="14" lengthAdjust="spacing" textLength="162" x="502" y="68.292">CreateTeamController</text><rect fill="#FEFECE" filter="url(#f1qiebctbvwg2o)" height="46.5938" style="stroke:#A80036;stroke-width:1.5;" width="176" x="495" y="771.5156"/><text fill="#000000" font-family="sans-serif" font-size="14" font-style="italic" lengthAdjust="spacing" textLength="97" x="534.5" y="791.5107">«application»</text><text fill="#000000" font-family="sans-serif" font-size="14" lengthAdjust="spacing" textLength="162" x="502" y="807.8076">CreateTeamController</text><rect fill="#FEFECE" filter="url(#f1qiebctbvwg2o)" height="46.5938" style="stroke:#A80036;stroke-width:1.5;" width="157" x="685" y="32"/><text fill="#000000" font-family="sans-serif" font-size="14" font-style="italic" lengthAdjust="spacing" textLength="100" x="713.5" y="51.9951">«persistence»</text><text fill="#000000" font-family="sans-serif" font-size="14" lengthAdjust="spacing" textLength="143" x="692" y="68.292">PersistenceContext</text><rect fill="#FEFECE" filter="url(#f1qiebctbvwg2o)" height="46.5938" style="stroke:#A80036;stroke-width:1.5;" width="157" x="685" y="771.5156"/><text fill="#000000" font-family="sans-serif" font-size="14" font-style="italic" lengthAdjust="spacing" textLength="100" x="713.5" y="791.5107">«persistence»</text><text fill="#000000" font-family="sans-serif" font-size="14" lengthAdjust="spacing" textLength="143" x="692" y="807.8076">PersistenceContext</text><rect fill="#FEFECE" filter="url(#f1qiebctbvwg2o)" height="46.5938" style="stroke:#A80036;stroke-width:1.5;" width="147" x="856" y="32"/><text fill="#000000" font-family="sans-serif" font-size="14" font-style="italic" lengthAdjust="spacing" textLength="68" x="895.5" y="51.9951">«factory»</text><text fill="#000000" font-family="sans-serif" font-size="14" lengthAdjust="spacing" textLength="133" x="863" y="68.292">RepositoryFactory</text><rect fill="#FEFECE" filter="url(#f1qiebctbvwg2o)" height="46.5938" style="stroke:#A80036;stroke-width:1.5;" width="147" x="856" y="771.5156"/><text fill="#000000" font-family="sans-serif" font-size="14" font-style="italic" lengthAdjust="spacing" textLength="68" x="895.5" y="791.5107">«factory»</text><text fill="#000000" font-family="sans-serif" font-size="14" lengthAdjust="spacing" textLength="133" x="863" y="807.8076">RepositoryFactory</text><text fill="#000000" font-family="sans-serif" font-size="14" font-style="italic" lengthAdjust="spacing" textLength="90" x="1056.5" y="63.9951">«repository»</text><text fill="#000000" font-family="sans-serif" font-size="14" lengthAdjust="spacing" textLength="169" x="1017" y="80.292">CollaboratorRepository</text><path d="M1086.5,15 C1086.5,5 1104.5,5 1104.5,5 C1104.5,5 1122.5,5 1122.5,15 L1122.5,41 C1122.5,51 1104.5,51 1104.5,51 C1104.5,51 1086.5,51 1086.5,41 L1086.5,15 " fill="#FEFECE" filter="url(#f1qiebctbvwg2o)" style="stroke:#000000;stroke-width:1.5;"/><path d="M1086.5,15 C1086.5,25 1104.5,25 1104.5,25 C1104.5,25 1122.5,25 1122.5,15 " fill="none" style="stroke:#000000;stroke-width:1.5;"/><text fill="#000000" font-family="sans-serif" font-size="14" font-style="italic" lengthAdjust="spacing" textLength="90" x="1056.5" y="784.5107">«repository»</text><text fill="#000000" font-family="sans-serif" font-size="14" lengthAdjust="spacing" textLength="169" x="1017" y="800.8076">CollaboratorRepository</text><path d="M1086.5,814.1094 C1086.5,804.1094 1104.5,804.1094 1104.5,804.1094 C1104.5,804.1094 1122.5,804.1094 1122.5,814.1094 L1122.5,840.1094 C1122.5,850.1094 1104.5,850.1094 1104.5,850.1094 C1104.5,850.1094 1086.5,850.1094 1086.5,840.1094 L1086.5,814.1094 " fill="#FEFECE" filter="url(#f1qiebctbvwg2o)" style="stroke:#000000;stroke-width:1.5;"/><path d="M1086.5,814.1094 C1086.5,824.1094 1104.5,824.1094 1104.5,824.1094 C1104.5,824.1094 1122.5,824.1094 1122.5,814.1094 " fill="none" style="stroke:#000000;stroke-width:1.5;"/><text fill="#000000" font-family="sans-serif" font-size="14" font-style="italic" lengthAdjust="spacing" textLength="90" x="1234.5" y="63.9951">«repository»</text><text fill="#000000" font-family="sans-serif" font-size="14" lengthAdjust="spacing" textLength="155" x="1202" y="80.292">TeamTypeRepository</text><path d="M1264.5,15 C1264.5,5 1282.5,5 1282.5,5 C1282.5,5 1300.5,5 1300.5,15 L1300.5,41 C1300.5,51 1282.5,51 1282.5,51 C1282.5,51 1264.5,51 1264.5,41 L1264.5,15 " fill="#FEFECE" filter="url(#f1qiebctbvwg2o)" style="stroke:#000000;stroke-width:1.5;"/><path d="M1264.5,15 C1264.5,25 1282.5,25 1282.5,25 C1282.5,25 1300.5,25 1300.5,15 " fill="none" style="stroke:#000000;stroke-width:1.5;"/><text fill="#000000" font-family="sans-serif" font-size="14" font-style="italic" lengthAdjust="spacing" textLength="90" x="1234.5" y="784.5107">«repository»</text><text fill="#000000" font-family="sans-serif" font-size="14" lengthAdjust="spacing" textLength="155" x="1202" y="800.8076">TeamTypeRepository</text><path d="M1264.5,814.1094 C1264.5,804.1094 1282.5,804.1094 1282.5,804.1094 C1282.5,804.1094 1300.5,804.1094 1300.5,814.1094 L1300.5,840.1094 C1300.5,850.1094 1282.5,850.1094 1282.5,850.1094 C1282.5,850.1094 1264.5,850.1094 1264.5,840.1094 L1264.5,814.1094 " fill="#FEFECE" filter="url(#f1qiebctbvwg2o)" style="stroke:#000000;stroke-width:1.5;"/><path d="M1264.5,814.1094 C1264.5,824.1094 1282.5,824.1094 1282.5,824.1094 C1282.5,824.1094 1300.5,824.1094 1300.5,814.1094 " fill="none" style="stroke:#000000;stroke-width:1.5;"/><rect fill="#FEFECE" filter="url(#f1qiebctbvwg2o)" height="46.5938" style="stroke:#A80036;stroke-width:1.5;" width="86" x="1373" y="32"/><text fill="#000000" font-family="sans-serif" font-size="14" font-style="italic" lengthAdjust="spacing" textLength="72" x="1380" y="51.9951">«domain»</text><text fill="#000000" font-family="sans-serif" font-size="14" lengthAdjust="spacing" textLength="40" x="1396" y="68.292">Team</text><rect fill="#FEFECE" filter="url(#f1qiebctbvwg2o)" height="46.5938" style="stroke:#A80036;stroke-width:1.5;" width="86" x="1373" y="771.5156"/><text fill="#000000" font-family="sans-serif" font-size="14" font-style="italic" lengthAdjust="spacing" textLength="72" x="1380" y="791.5107">«domain»</text><text fill="#000000" font-family="sans-serif" font-size="14" lengthAdjust="spacing" textLength="40" x="1396" y="807.8076">Team</text><text fill="#000000" font-family="sans-serif" font-size="14" font-style="italic" lengthAdjust="spacing" textLength="90" x="1487.5" y="63.9951">«repository»</text><text fill="#000000" font-family="sans-serif" font-size="14" lengthAdjust="spacing" textLength="119" x="1473" y="80.292">TeamRepository</text><path d="M1517.5,15 C1517.5,5 1535.5,5 1535.5,5 C1535.5,5 1553.5,5 1553.5,15 L1553.5,41 C1553.5,51 1535.5,51 1535.5,51 C1535.5,51 1517.5,51 1517.5,41 L1517.5,15 " fill="#FEFECE" filter="url(#f1qiebctbvwg2o)" style="stroke:#000000;stroke-width:1.5;"/><path d="M1517.5,15 C1517.5,25 1535.5,25 1535.5,25 C1535.5,25 1553.5,25 1553.5,15 " fill="none" style="stroke:#000000;stroke-width:1.5;"/><text fill="#000000" font-family="sans-serif" font-size="14" font-style="italic" lengthAdjust="spacing" textLength="90" x="1487.5" y="784.5107">«repository»</text><text fill="#000000" font-family="sans-serif" font-size="14" lengthAdjust="spacing" textLength="119" x="1473" y="800.8076">TeamRepository</text><path d="M1517.5,814.1094 C1517.5,804.1094 1535.5,804.1094 1535.5,804.1094 C1535.5,804.1094 1553.5,804.1094 1553.5,814.1094 L1553.5,840.1094 C1553.5,850.1094 1535.5,850.1094 1535.5,850.1094 C1535.5,850.1094 1517.5,850.1094 1517.5,840.1094 L1517.5,814.1094 " fill="#FEFECE" filter="url(#f1qiebctbvwg2o)" style="stroke:#000000;stroke-width:1.5;"/><path d="M1517.5,814.1094 C1517.5,824.1094 1535.5,824.1094 1535.5,824.1094 C1535.5,824.1094 1553.5,824.1094 1553.5,814.1094 " fill="none" style="stroke:#000000;stroke-width:1.5;"/><rect fill="#FFFFFF" filter="url(#f1qiebctbvwg2o)" height="639.7891" style="stroke:#A80036;stroke-width:1.0;" width="10" x="580" y="114.7266"/><rect fill="#FFFFFF" filter="url(#f1qiebctbvwg2o)" height="523.2578" style="stroke:#A80036;stroke-width:1.0;" width="10" x="760.5" y="172.9922"/><rect fill="#FFFFFF" filter="url(#f1qiebctbvwg2o)" height="523.2578" style="stroke:#A80036;stroke-width:1.0;" width="10" x="926.5" y="202.125"/><rect fill="#FFFFFF" filter="url(#f1qiebctbvwg2o)" height="29.1328" style="stroke:#A80036;stroke-width:1.0;" width="10" x="1099.5" y="472.3203"/><rect fill="#FFFFFF" filter="url(#f1qiebctbvwg2o)" height="29.1328" style="stroke:#A80036;stroke-width:1.0;" width="10" x="1277.5" y="231.2578"/><rect fill="#FFFFFF" filter="url(#f1qiebctbvwg2o)" height="29.1328" style="stroke:#A80036;stroke-width:1.0;" width="10" x="1530.5" y="725.3828"/><polygon fill="#A80036" points="568,110.7266,578,114.7266,568,118.7266,572,114.7266" style="stroke:#A80036;stroke-width:1.0;"/><line style="stroke:#A80036;stroke-width:1.0;" x1="83" x2="574" y1="114.7266" y2="114.7266"/><text fill="#000000" font-family="sans-serif" font-size="13" lengthAdjust="spacing" textLength="41" x="90" y="109.6606">create</text><polygon fill="#A80036" points="568,139.8594,578,143.8594,568,147.8594,572,143.8594" style="stroke:#A80036;stroke-width:1.0;"/><line style="stroke:#A80036;stroke-width:1.0;" x1="83" x2="574" y1="143.8594" y2="143.8594"/><text fill="#000000" font-family="sans-serif" font-size="13" lengthAdjust="spacing" textLength="97" x="90" y="138.7935">getTeamTypes</text><polygon fill="#A80036" points="748.5,168.9922,758.5,172.9922,748.5,176.9922,752.5,172.9922" style="stroke:#A80036;stroke-width:1.0;"/><line style="stroke:#A80036;stroke-width:1.0;" x1="590" x2="754.5" y1="172.9922" y2="172.9922"/><text fill="#000000" font-family="sans-serif" font-size="13" lengthAdjust="spacing" textLength="85" x="597" y="167.9263">repositories()</text><polygon fill="#A80036" points="914.5,198.125,924.5,202.125,914.5,206.125,918.5,202.125" style="stroke:#A80036;stroke-width:1.0;"/><line style="stroke:#A80036;stroke-width:1.0;" x1="770.5" x2="920.5" y1="202.125" y2="202.125"/><text fill="#000000" font-family="sans-serif" font-size="13" lengthAdjust="spacing" textLength="41" x="777.5" y="197.0591">create</text><polygon fill="#A80036" points="1265.5,227.2578,1275.5,231.2578,1265.5,235.2578,1269.5,231.2578" style="stroke:#A80036;stroke-width:1.0;"/><line style="stroke:#A80036;stroke-width:1.0;" x1="936.5" x2="1271.5" y1="231.2578" y2="231.2578"/><text fill="#000000" font-family="sans-serif" font-size="13" lengthAdjust="spacing" textLength="41" x="943.5" y="226.1919">create</text><polygon fill="#A80036" points="1270.5,256.3906,1280.5,260.3906,1270.5,264.3906,1274.5,260.3906" style="stroke:#A80036;stroke-width:1.0;"/><line style="stroke:#A80036;stroke-width:1.0;" x1="590" x2="1276.5" y1="260.3906" y2="260.3906"/><text fill="#000000" font-family="sans-serif" font-size="13" lengthAdjust="spacing" textLength="39" x="597" y="255.3247">findAll</text><polygon fill="#A80036" points="94,285.5234,84,289.5234,94,293.5234,90,289.5234" style="stroke:#A80036;stroke-width:1.0;"/><line style="stroke:#A80036;stroke-width:1.0;stroke-dasharray:2.0,2.0;" x1="88" x2="579" y1="289.5234" y2="289.5234"/><text fill="#000000" font-family="sans-serif" font-size="13" lengthAdjust="spacing" textLength="76" x="100" y="284.4575">TeamTypes</text><line style="stroke:#A80036;stroke-width:1.0;" x1="83" x2="125" y1="318.6563" y2="318.6563"/><line style="stroke:#A80036;stroke-width:1.0;" x1="125" x2="125" y1="318.6563" y2="331.6563"/><line style="stroke:#A80036;stroke-width:1.0;" x1="84" x2="125" y1="331.6563" y2="331.6563"/><polygon fill="#A80036" points="94,327.6563,84,331.6563,94,335.6563,90,331.6563" style="stroke:#A80036;stroke-width:1.0;"/><text fill="#000000" font-family="sans-serif" font-size="13" lengthAdjust="spacing" textLength="61" x="90" y="313.5903">doShow()</text><path d="M10,346.6563 L88,346.6563 L88,353.6563 L78,363.6563 L10,363.6563 L10,346.6563 " fill="#EEEEEE" style="stroke:#000000;stroke-width:1.0;"/><rect fill="none" height="234.0625" style="stroke:#000000;stroke-width:2.0;" width="1192" x="10" y="346.6563"/><text fill="#000000" font-family="sans-serif" font-size="13" font-weight="bold" lengthAdjust="spacing" textLength="33" x="25" y="359.7231">loop</text><polygon fill="#A80036" points="568,380.9219,578,384.9219,568,388.9219,572,384.9219" style="stroke:#A80036;stroke-width:1.0;"/><line style="stroke:#A80036;stroke-width:1.0;" x1="83" x2="574" y1="384.9219" y2="384.9219"/><text fill="#000000" font-family="sans-serif" font-size="13" lengthAdjust="spacing" textLength="106" x="90" y="379.856">getCollaborators</text><polygon fill="#A80036" points="748.5,410.0547,758.5,414.0547,748.5,418.0547,752.5,414.0547" style="stroke:#A80036;stroke-width:1.0;"/><line style="stroke:#A80036;stroke-width:1.0;" x1="590" x2="754.5" y1="414.0547" y2="414.0547"/><text fill="#000000" font-family="sans-serif" font-size="13" lengthAdjust="spacing" textLength="85" x="597" y="408.9888">repositories()</text><polygon fill="#A80036" points="914.5,439.1875,924.5,443.1875,914.5,447.1875,918.5,443.1875" style="stroke:#A80036;stroke-width:1.0;"/><line style="stroke:#A80036;stroke-width:1.0;" x1="770.5" x2="920.5" y1="443.1875" y2="443.1875"/><text fill="#000000" font-family="sans-serif" font-size="13" lengthAdjust="spacing" textLength="41" x="777.5" y="438.1216">create</text><polygon fill="#A80036" points="1087.5,468.3203,1097.5,472.3203,1087.5,476.3203,1091.5,472.3203" style="stroke:#A80036;stroke-width:1.0;"/><line style="stroke:#A80036;stroke-width:1.0;" x1="936.5" x2="1093.5" y1="472.3203" y2="472.3203"/><text fill="#000000" font-family="sans-serif" font-size="13" lengthAdjust="spacing" textLength="41" x="943.5" y="467.2544">create</text><polygon fill="#A80036" points="1092.5,497.4531,1102.5,501.4531,1092.5,505.4531,1096.5,501.4531" style="stroke:#A80036;stroke-width:1.0;"/><line style="stroke:#A80036;stroke-width:1.0;" x1="590" x2="1098.5" y1="501.4531" y2="501.4531"/><text fill="#000000" font-family="sans-serif" font-size="13" lengthAdjust="spacing" textLength="39" x="597" y="496.3872">findAll</text><polygon fill="#A80036" points="94,526.5859,84,530.5859,94,534.5859,90,530.5859" style="stroke:#A80036;stroke-width:1.0;"/><line style="stroke:#A80036;stroke-width:1.0;stroke-dasharray:2.0,2.0;" x1="88" x2="579" y1="530.5859" y2="530.5859"/><text fill="#000000" font-family="sans-serif" font-size="13" lengthAdjust="spacing" textLength="85" x="100" y="525.52">Collaborators</text><line style="stroke:#A80036;stroke-width:1.0;" x1="83" x2="125" y1="559.7188" y2="559.7188"/><line style="stroke:#A80036;stroke-width:1.0;" x1="125" x2="125" y1="559.7188" y2="572.7188"/><line style="stroke:#A80036;stroke-width:1.0;" x1="84" x2="125" y1="572.7188" y2="572.7188"/><polygon fill="#A80036" points="94,568.7188,84,572.7188,94,576.7188,90,572.7188" style="stroke:#A80036;stroke-width:1.0;"/><text fill="#000000" font-family="sans-serif" font-size="13" lengthAdjust="spacing" textLength="61" x="90" y="554.6528">doShow()</text><polygon fill="#A80036" points="568,604.8516,578,608.8516,568,612.8516,572,608.8516" style="stroke:#A80036;stroke-width:1.0;"/><line style="stroke:#A80036;stroke-width:1.0;" x1="83" x2="574" y1="608.8516" y2="608.8516"/><text fill="#000000" font-family="sans-serif" font-size="13" lengthAdjust="spacing" textLength="473" x="90" y="603.7856">createTeam(uniqueCode, acronym, designation, teamType, colaborators)</text><polygon fill="#A80036" points="1406,633.9844,1416,637.9844,1406,641.9844,1410,637.9844" style="stroke:#A80036;stroke-width:1.0;"/><line style="stroke:#A80036;stroke-width:1.0;" x1="590" x2="1412" y1="637.9844" y2="637.9844"/><text fill="#000000" font-family="sans-serif" font-size="13" lengthAdjust="spacing" textLength="510" x="597" y="632.9185">newTeam=create(uniqueCode, acronym, designation, teamType, colaborators)</text><polygon fill="#A80036" points="748.5,663.1172,758.5,667.1172,748.5,671.1172,752.5,667.1172" style="stroke:#A80036;stroke-width:1.0;"/><line style="stroke:#A80036;stroke-width:1.0;" x1="590" x2="754.5" y1="667.1172" y2="667.1172"/><text fill="#000000" font-family="sans-serif" font-size="13" lengthAdjust="spacing" textLength="85" x="597" y="662.0513">repositories()</text><polygon fill="#A80036" points="914.5,692.25,924.5,696.25,914.5,700.25,918.5,696.25" style="stroke:#A80036;stroke-width:1.0;"/><line style="stroke:#A80036;stroke-width:1.0;" x1="765.5" x2="920.5" y1="696.25" y2="696.25"/><text fill="#000000" font-family="sans-serif" font-size="13" lengthAdjust="spacing" textLength="41" x="772.5" y="691.1841">create</text><polygon fill="#A80036" points="1518.5,721.3828,1528.5,725.3828,1518.5,729.3828,1522.5,725.3828" style="stroke:#A80036;stroke-width:1.0;"/><line style="stroke:#A80036;stroke-width:1.0;" x1="931.5" x2="1524.5" y1="725.3828" y2="725.3828"/><text fill="#000000" font-family="sans-serif" font-size="13" lengthAdjust="spacing" textLength="41" x="938.5" y="720.3169">create</text><polygon fill="#A80036" points="1523.5,750.5156,1533.5,754.5156,1523.5,758.5156,1527.5,754.5156" style="stroke:#A80036;stroke-width:1.0;"/><line style="stroke:#A80036;stroke-width:1.0;" x1="585" x2="1529.5" y1="754.5156" y2="754.5156"/><text fill="#000000" font-family="sans-serif" font-size="13" lengthAdjust="spacing" textLength="105" x="592" y="749.4497">save(newTeam)</text><!--MD5=[148952548fd2202458af4ea002adc72b]
@startuml
participant CreateTeamUI as CreateTeamUI <<presentation>>
participant CreateTeamController as CreateTeamController <<application>>
participant PersistenceContext as PersistenceContext <<persistence>>
participant RepositoryFactory as RepositoryFactory <<factory>>
database CollaboratorRepository as CollaboratorRepository <<repository>>
database TeamTypeRepository as TeamTypeRepository <<repository>>
participant Team as Team <<domain>>
database TeamRepository as TeamRepository <<repository>>


CreateTeamUI -> CreateTeamController : create
activate CreateTeamController


CreateTeamUI -> CreateTeamController : getTeamTypes
CreateTeamController -> PersistenceContext : repositories()
activate PersistenceContext
PersistenceContext -> RepositoryFactory : create
activate RepositoryFactory
RepositoryFactory -> TeamTypeRepository : create
activate TeamTypeRepository
CreateTeamController -> TeamTypeRepository : findAll
deactivate TeamTypeRepository
CreateTeamController - -> CreateTeamUI: TeamTypes

CreateTeamUI -> CreateTeamUI : doShow()


loop
CreateTeamUI -> CreateTeamController : getCollaborators
CreateTeamController -> PersistenceContext : repositories()
PersistenceContext -> RepositoryFactory : create
RepositoryFactory -> CollaboratorRepository : create
activate CollaboratorRepository
CreateTeamController -> CollaboratorRepository : findAll
deactivate CollaboratorRepository
CreateTeamController - -> CreateTeamUI: Collaborators

CreateTeamUI -> CreateTeamUI : doShow()
end


CreateTeamUI -> CreateTeamController : createTeam(uniqueCode, acronym, designation, teamType, colaborators)
CreateTeamController -> Team : newTeam=create(uniqueCode, acronym, designation, teamType, colaborators)
CreateTeamController -> PersistenceContext : repositories()
PersistenceContext -> RepositoryFactory : create
deactivate PersistenceContext
RepositoryFactory -> TeamRepository : create
deactivate RepositoryFactory
activate TeamRepository

CreateTeamController -> TeamRepository : save(newTeam)
deactivate TeamRepository
deactivate CreateTeamController
@enduml

PlantUML version 1.2021.6beta2(Unknown compile time)
(GPL source distribution)
Java Runtime: Java(TM) SE Runtime Environment
JVM: Java HotSpot(TM) 64-Bit Server VM
Default Encoding: UTF-8
Language: en
Country: US
--></g></svg>