<?xml version="1.0" encoding="UTF-8" standalone="no"?><svg xmlns="http://www.w3.org/2000/svg" xmlns:xlink="http://www.w3.org/1999/xlink" contentScriptType="application/ecmascript" contentStyleType="text/css" height="350px" preserveAspectRatio="none" style="width:941px;height:350px;background:#FFFFFF;" version="1.1" viewBox="0 0 941 350" width="941px" zoomAndPan="magnify"><defs><filter height="300%" id="fh7forlkgd37f" width="300%" x="-1" y="-1"><feGaussianBlur result="blurOut" stdDeviation="2.0"/><feColorMatrix in="blurOut" result="blurOut2" type="matrix" values="0 0 0 0 0 0 0 0 0 0 0 0 0 0 0 0 0 0 .4 0"/><feOffset dx="4.0" dy="4.0" in="blurOut2" result="blurOut3"/><feBlend in="SourceGraphic" in2="blurOut3" mode="normal"/></filter></defs><g><rect fill="#FFFFFF" filter="url(#fh7forlkgd37f)" height="247.9297" style="stroke:#A80036;stroke-width:1.0;" width="10" x="85" y="50.2969"/><rect fill="#FFFFFF" filter="url(#fh7forlkgd37f)" height="226.7969" style="stroke:#A80036;stroke-width:1.0;" width="10" x="273" y="71.4297"/><rect fill="#FFFFFF" filter="url(#fh7forlkgd37f)" height="126.3984" style="stroke:#A80036;stroke-width:1.0;" width="10" x="513.5" y="171.8281"/><rect fill="#FFFFFF" filter="url(#fh7forlkgd37f)" height="30" style="stroke:#A80036;stroke-width:1.0;" width="10" x="744.5" y="200.9609"/><rect fill="#FFFFFF" filter="url(#fh7forlkgd37f)" height="38.1328" style="stroke:#A80036;stroke-width:1.0;" width="10" x="882" y="260.0938"/><line style="stroke:#A80036;stroke-width:1.0;stroke-dasharray:5.0,5.0;" x1="90" x2="90" y1="40.2969" y2="307.2266"/><line style="stroke:#A80036;stroke-width:1.0;stroke-dasharray:5.0,5.0;" x1="278" x2="278" y1="40.2969" y2="307.2266"/><line style="stroke:#A80036;stroke-width:1.0;stroke-dasharray:5.0,5.0;" x1="518" x2="518" y1="40.2969" y2="307.2266"/><line style="stroke:#A80036;stroke-width:1.0;stroke-dasharray:5.0,5.0;" x1="749" x2="749" y1="40.2969" y2="307.2266"/><line style="stroke:#A80036;stroke-width:1.0;stroke-dasharray:5.0,5.0;" x1="887" x2="887" y1="40.2969" y2="307.2266"/><rect fill="#FEFECE" filter="url(#fh7forlkgd37f)" height="30.2969" style="stroke:#A80036;stroke-width:1.5;" width="166" x="5" y="5"/><text fill="#000000" font-family="sans-serif" font-size="14" lengthAdjust="spacing" textLength="152" x="12" y="24.9951">FactoryBootstrapper</text><rect fill="#FEFECE" filter="url(#fh7forlkgd37f)" height="30.2969" style="stroke:#A80036;stroke-width:1.5;" width="166" x="5" y="306.2266"/><text fill="#000000" font-family="sans-serif" font-size="14" lengthAdjust="spacing" textLength="152" x="12" y="326.2217">FactoryBootstrapper</text><rect fill="#FEFECE" filter="url(#fh7forlkgd37f)" height="30.2969" style="stroke:#A80036;stroke-width:1.5;" width="182" x="185" y="5"/><text fill="#000000" font-family="sans-serif" font-size="14" lengthAdjust="spacing" textLength="168" x="192" y="24.9951">CriticalityBootstrapper</text><rect fill="#FEFECE" filter="url(#fh7forlkgd37f)" height="30.2969" style="stroke:#A80036;stroke-width:1.5;" width="182" x="185" y="306.2266"/><text fill="#000000" font-family="sans-serif" font-size="14" lengthAdjust="spacing" textLength="168" x="192" y="326.2217">CriticalityBootstrapper</text><rect fill="#FEFECE" filter="url(#fh7forlkgd37f)" height="30.2969" style="stroke:#A80036;stroke-width:1.5;" width="271" x="381" y="5"/><text fill="#000000" font-family="sans-serif" font-size="14" lengthAdjust="spacing" textLength="257" x="388" y="24.9951">RegisterCriticalityServiceController</text><rect fill="#FEFECE" filter="url(#fh7forlkgd37f)" height="30.2969" style="stroke:#A80036;stroke-width:1.5;" width="271" x="381" y="306.2266"/><text fill="#000000" font-family="sans-serif" font-size="14" lengthAdjust="spacing" textLength="257" x="388" y="326.2217">RegisterCriticalityServiceController</text><rect fill="#FEFECE" filter="url(#fh7forlkgd37f)" height="30.2969" style="stroke:#A80036;stroke-width:1.5;" width="163" x="666" y="5"/><text fill="#000000" font-family="sans-serif" font-size="14" lengthAdjust="spacing" textLength="149" x="673" y="24.9951">CriticalityRepository</text><rect fill="#FEFECE" filter="url(#fh7forlkgd37f)" height="30.2969" style="stroke:#A80036;stroke-width:1.5;" width="163" x="666" y="306.2266"/><text fill="#000000" font-family="sans-serif" font-size="14" lengthAdjust="spacing" textLength="149" x="673" y="326.2217">CriticalityRepository</text><rect fill="#FEFECE" filter="url(#fh7forlkgd37f)" height="30.2969" style="stroke:#A80036;stroke-width:1.5;" width="84" x="843" y="5"/><text fill="#000000" font-family="sans-serif" font-size="14" lengthAdjust="spacing" textLength="70" x="850" y="24.9951">Criticality</text><rect fill="#FEFECE" filter="url(#fh7forlkgd37f)" height="30.2969" style="stroke:#A80036;stroke-width:1.5;" width="84" x="843" y="306.2266"/><text fill="#000000" font-family="sans-serif" font-size="14" lengthAdjust="spacing" textLength="70" x="850" y="326.2217">Criticality</text><rect fill="#FFFFFF" filter="url(#fh7forlkgd37f)" height="247.9297" style="stroke:#A80036;stroke-width:1.0;" width="10" x="85" y="50.2969"/><rect fill="#FFFFFF" filter="url(#fh7forlkgd37f)" height="226.7969" style="stroke:#A80036;stroke-width:1.0;" width="10" x="273" y="71.4297"/><rect fill="#FFFFFF" filter="url(#fh7forlkgd37f)" height="126.3984" style="stroke:#A80036;stroke-width:1.0;" width="10" x="513.5" y="171.8281"/><rect fill="#FFFFFF" filter="url(#fh7forlkgd37f)" height="30" style="stroke:#A80036;stroke-width:1.0;" width="10" x="744.5" y="200.9609"/><rect fill="#FFFFFF" filter="url(#fh7forlkgd37f)" height="38.1328" style="stroke:#A80036;stroke-width:1.0;" width="10" x="882" y="260.0938"/><polygon fill="#A80036" points="261,67.4297,271,71.4297,261,75.4297,265,71.4297" style="stroke:#A80036;stroke-width:1.0;"/><line style="stroke:#A80036;stroke-width:1.0;" x1="95" x2="267" y1="71.4297" y2="71.4297"/><text fill="#000000" font-family="sans-serif" font-size="13" lengthAdjust="spacing" textLength="51" x="102" y="66.3638">create()</text><polygon fill="#A80036" points="261,96.5625,271,100.5625,261,104.5625,265,100.5625" style="stroke:#A80036;stroke-width:1.0;"/><line style="stroke:#A80036;stroke-width:1.0;" x1="95" x2="267" y1="100.5625" y2="100.5625"/><text fill="#000000" font-family="sans-serif" font-size="13" lengthAdjust="spacing" textLength="62" x="102" y="95.4966">execute()</text><line style="stroke:#A80036;stroke-width:1.0;" x1="283" x2="325" y1="129.6953" y2="129.6953"/><line style="stroke:#A80036;stroke-width:1.0;" x1="325" x2="325" y1="129.6953" y2="142.6953"/><line style="stroke:#A80036;stroke-width:1.0;" x1="284" x2="325" y1="142.6953" y2="142.6953"/><polygon fill="#A80036" points="294,138.6953,284,142.6953,294,146.6953,290,142.6953" style="stroke:#A80036;stroke-width:1.0;"/><text fill="#000000" font-family="sans-serif" font-size="13" lengthAdjust="spacing" textLength="59" x="290" y="124.6294">register()</text><polygon fill="#A80036" points="501.5,167.8281,511.5,171.8281,501.5,175.8281,505.5,171.8281" style="stroke:#A80036;stroke-width:1.0;"/><line style="stroke:#A80036;stroke-width:1.0;" x1="283" x2="507.5" y1="171.8281" y2="171.8281"/><text fill="#000000" font-family="sans-serif" font-size="13" lengthAdjust="spacing" textLength="51" x="290" y="166.7622">create()</text><polygon fill="#A80036" points="732.5,196.9609,742.5,200.9609,732.5,204.9609,736.5,200.9609" style="stroke:#A80036;stroke-width:1.0;"/><line style="stroke:#A80036;stroke-width:1.0;" x1="523.5" x2="738.5" y1="200.9609" y2="200.9609"/><text fill="#000000" font-family="sans-serif" font-size="13" lengthAdjust="spacing" textLength="51" x="530.5" y="195.895">create()</text><polygon fill="#A80036" points="870,256.0938,880,260.0938,870,264.0938,874,260.0938" style="stroke:#A80036;stroke-width:1.0;"/><line style="stroke:#A80036;stroke-width:1.0;" x1="523.5" x2="876" y1="260.0938" y2="260.0938"/><text fill="#000000" font-family="sans-serif" font-size="13" lengthAdjust="spacing" textLength="211" x="530.5" y="255.0278">registerCriticality(all parameters)</text><polygon fill="#A80036" points="760.5,285.2266,750.5,289.2266,760.5,293.2266,756.5,289.2266" style="stroke:#A80036;stroke-width:1.0;"/><line style="stroke:#A80036;stroke-width:1.0;stroke-dasharray:2.0,2.0;" x1="754.5" x2="881" y1="289.2266" y2="289.2266"/><text fill="#000000" font-family="sans-serif" font-size="13" lengthAdjust="spacing" textLength="98" x="766.5" y="284.1606">save(criticality)</text><!--MD5=[81f2dde2a1da3ad90359a3e23d0c5bdc]
@startuml
participant FactoryBootstrapper as FB
participant CriticalityBootstrapper as SB
participant RegisterCriticalityServiceController as SS
participant CriticalityRepository as SR
participant Criticality as Service

activate FB
FB -> SB : create()
activate SB
FB -> SB : execute()


SB -> SB : register()
SB -> SS : create()
activate SS

SS -> SR : create()
activate SR
deactivate SR

SS -> Service : registerCriticality(all parameters)
activate Service
Service - -> SR : save(criticality)
@enduml

PlantUML version 1.2021.7(Sun May 23 12:40:07 UTC 2021)
(GPL source distribution)
Java Runtime: Java(TM) SE Runtime Environment
JVM: Java HotSpot(TM) 64-Bit Server VM
Default Encoding: UTF-8
Language: en
Country: US
--></g></svg>