<?xml version="1.0" encoding="UTF-8" standalone="no"?><svg xmlns="http://www.w3.org/2000/svg" xmlns:xlink="http://www.w3.org/1999/xlink" contentScriptType="application/ecmascript" contentStyleType="text/css" height="536px" preserveAspectRatio="none" style="width:655px;height:536px;" version="1.1" viewBox="0 0 655 536" width="655px" zoomAndPan="magnify"><defs><filter height="300%" id="f171tyehefclkj" width="300%" x="-1" y="-1"><feGaussianBlur result="blurOut" stdDeviation="2.0"/><feColorMatrix in="blurOut" result="blurOut2" type="matrix" values="0 0 0 0 0 0 0 0 0 0 0 0 0 0 0 0 0 0 .4 0"/><feOffset dx="4.0" dy="4.0" in="blurOut2" result="blurOut3"/><feBlend in="SourceGraphic" in2="blurOut3" mode="normal"/></filter></defs><g><!--MD5=[99b8db98afdc2c8404e39242ef4c1e65]
class Platform--><rect codeLine="3" fill="#FEFECE" filter="url(#f171tyehefclkj)" height="48" id="Platform" style="stroke:#A80036;stroke-width:1.5;" width="84" x="7" y="195"/><ellipse cx="22" cy="211" fill="#ADD1B2" rx="11" ry="11" style="stroke:#A80036;stroke-width:1.0;"/><path d="M24.9688,216.6406 Q24.3906,216.9375 23.75,217.0781 Q23.1094,217.2344 22.4063,217.2344 Q19.9063,217.2344 18.5781,215.5938 Q17.2656,213.9375 17.2656,210.8125 Q17.2656,207.6875 18.5781,206.0313 Q19.9063,204.375 22.4063,204.375 Q23.1094,204.375 23.75,204.5313 Q24.4063,204.6875 24.9688,204.9844 L24.9688,207.7031 Q24.3438,207.125 23.75,206.8594 Q23.1563,206.5781 22.5313,206.5781 Q21.1875,206.5781 20.5,207.6563 Q19.8125,208.7188 19.8125,210.8125 Q19.8125,212.9063 20.5,213.9844 Q21.1875,215.0469 22.5313,215.0469 Q23.1563,215.0469 23.75,214.7813 Q24.3438,214.5 24.9688,213.9219 L24.9688,216.6406 Z " fill="#000000"/><text fill="#000000" font-family="sans-serif" font-size="12" lengthAdjust="spacingAndGlyphs" textLength="52" x="36" y="215.1543">Platform</text><line style="stroke:#A80036;stroke-width:1.5;" x1="8" x2="90" y1="227" y2="227"/><line style="stroke:#A80036;stroke-width:1.5;" x1="8" x2="90" y1="235" y2="235"/><!--MD5=[da547346deef918ea16944ba046651ef]
class Administrator--><rect codeLine="6" fill="#FEFECE" filter="url(#f171tyehefclkj)" height="86.4141" id="Administrator" style="stroke:#A80036;stroke-width:1.5;" width="120" x="225" y="106"/><ellipse cx="241.8" cy="122" fill="#ADD1B2" rx="11" ry="11" style="stroke:#A80036;stroke-width:1.0;"/><path d="M244.7688,127.6406 Q244.1906,127.9375 243.55,128.0781 Q242.9094,128.2344 242.2063,128.2344 Q239.7063,128.2344 238.3781,126.5938 Q237.0656,124.9375 237.0656,121.8125 Q237.0656,118.6875 238.3781,117.0313 Q239.7063,115.375 242.2063,115.375 Q242.9094,115.375 243.55,115.5313 Q244.2063,115.6875 244.7688,115.9844 L244.7688,118.7031 Q244.1438,118.125 243.55,117.8594 Q242.9563,117.5781 242.3313,117.5781 Q240.9875,117.5781 240.3,118.6563 Q239.6125,119.7188 239.6125,121.8125 Q239.6125,123.9063 240.3,124.9844 Q240.9875,126.0469 242.3313,126.0469 Q242.9563,126.0469 243.55,125.7813 Q244.1438,125.5 244.7688,124.9219 L244.7688,127.6406 Z " fill="#000000"/><text fill="#000000" font-family="sans-serif" font-size="12" lengthAdjust="spacingAndGlyphs" textLength="84" x="256.2" y="126.1543">Administrator</text><line style="stroke:#A80036;stroke-width:1.5;" x1="226" x2="344" y1="138" y2="138"/><rect fill="none" height="6" style="stroke:#C82930;stroke-width:1.0;" width="6" x="233" y="146"/><text fill="#000000" font-family="sans-serif" font-size="11" lengthAdjust="spacingAndGlyphs" textLength="48" x="245" y="152.2104">String id</text><rect fill="none" height="6" style="stroke:#C82930;stroke-width:1.0;" width="6" x="233" y="158.8047"/><text fill="#000000" font-family="sans-serif" font-size="11" lengthAdjust="spacingAndGlyphs" textLength="70" x="245" y="165.0151">String name</text><rect fill="none" height="6" style="stroke:#C82930;stroke-width:1.0;" width="6" x="233" y="171.6094"/><text fill="#000000" font-family="sans-serif" font-size="11" lengthAdjust="spacingAndGlyphs" textLength="94" x="245" y="177.8198">String password</text><line style="stroke:#A80036;stroke-width:1.5;" x1="226" x2="344" y1="184.4141" y2="184.4141"/><!--MD5=[7f2a9fafcebe4f099f71398fd3e2ed00]
class Pharmacy--><rect codeLine="12" fill="#FEFECE" filter="url(#f171tyehefclkj)" height="86.4141" id="Pharmacy" style="stroke:#A80036;stroke-width:1.5;" width="130" x="220" y="244"/><ellipse cx="251.65" cy="260" fill="#ADD1B2" rx="11" ry="11" style="stroke:#A80036;stroke-width:1.0;"/><path d="M254.6188,265.6406 Q254.0406,265.9375 253.4,266.0781 Q252.7594,266.2344 252.0563,266.2344 Q249.5563,266.2344 248.2281,264.5938 Q246.9156,262.9375 246.9156,259.8125 Q246.9156,256.6875 248.2281,255.0313 Q249.5563,253.375 252.0563,253.375 Q252.7594,253.375 253.4,253.5313 Q254.0563,253.6875 254.6188,253.9844 L254.6188,256.7031 Q253.9938,256.125 253.4,255.8594 Q252.8063,255.5781 252.1813,255.5781 Q250.8375,255.5781 250.15,256.6563 Q249.4625,257.7188 249.4625,259.8125 Q249.4625,261.9063 250.15,262.9844 Q250.8375,264.0469 252.1813,264.0469 Q252.8063,264.0469 253.4,263.7813 Q253.9938,263.5 254.6188,262.9219 L254.6188,265.6406 Z " fill="#000000"/><text fill="#000000" font-family="sans-serif" font-size="12" lengthAdjust="spacingAndGlyphs" textLength="61" x="269.35" y="264.1543">Pharmacy</text><line style="stroke:#A80036;stroke-width:1.5;" x1="221" x2="349" y1="276" y2="276"/><rect fill="none" height="6" style="stroke:#C82930;stroke-width:1.0;" width="6" x="228" y="284"/><text fill="#000000" font-family="sans-serif" font-size="11" lengthAdjust="spacingAndGlyphs" textLength="48" x="240" y="290.2104">String id</text><rect fill="none" height="6" style="stroke:#C82930;stroke-width:1.0;" width="6" x="228" y="296.8047"/><text fill="#000000" font-family="sans-serif" font-size="11" lengthAdjust="spacingAndGlyphs" textLength="104" x="240" y="303.0151">String designation</text><rect fill="none" height="6" style="stroke:#C82930;stroke-width:1.0;" width="6" x="228" y="309.6094"/><text fill="#000000" font-family="sans-serif" font-size="11" lengthAdjust="spacingAndGlyphs" textLength="69" x="240" y="315.8198">String email</text><line style="stroke:#A80036;stroke-width:1.5;" x1="221" x2="349" y1="322.4141" y2="322.4141"/><!--MD5=[b35291ba1c8cd17b5117d9f7197fc21c]
class Adress--><rect codeLine="18" fill="#FEFECE" filter="url(#f171tyehefclkj)" height="137.6328" id="Adress" style="stroke:#A80036;stroke-width:1.5;" width="162" x="479" y="7"/><ellipse cx="534.25" cy="23" fill="#ADD1B2" rx="11" ry="11" style="stroke:#A80036;stroke-width:1.0;"/><path d="M537.2188,28.6406 Q536.6406,28.9375 536,29.0781 Q535.3594,29.2344 534.6563,29.2344 Q532.1563,29.2344 530.8281,27.5938 Q529.5156,25.9375 529.5156,22.8125 Q529.5156,19.6875 530.8281,18.0313 Q532.1563,16.375 534.6563,16.375 Q535.3594,16.375 536,16.5313 Q536.6563,16.6875 537.2188,16.9844 L537.2188,19.7031 Q536.5938,19.125 536,18.8594 Q535.4063,18.5781 534.7813,18.5781 Q533.4375,18.5781 532.75,19.6563 Q532.0625,20.7188 532.0625,22.8125 Q532.0625,24.9063 532.75,25.9844 Q533.4375,27.0469 534.7813,27.0469 Q535.4063,27.0469 536,26.7813 Q536.5938,26.5 537.2188,25.9219 L537.2188,28.6406 Z " fill="#000000"/><text fill="#000000" font-family="sans-serif" font-size="12" lengthAdjust="spacingAndGlyphs" textLength="43" x="554.75" y="27.1543">Adress</text><line style="stroke:#A80036;stroke-width:1.5;" x1="480" x2="640" y1="39" y2="39"/><rect fill="none" height="6" style="stroke:#C82930;stroke-width:1.0;" width="6" x="487" y="47"/><text fill="#000000" font-family="sans-serif" font-size="11" lengthAdjust="spacingAndGlyphs" textLength="48" x="499" y="53.2104">String id</text><rect fill="none" height="6" style="stroke:#C82930;stroke-width:1.0;" width="6" x="487" y="59.8047"/><text fill="#000000" font-family="sans-serif" font-size="11" lengthAdjust="spacingAndGlyphs" textLength="109" x="499" y="66.0151">String doorNumber</text><rect fill="none" height="6" style="stroke:#C82930;stroke-width:1.0;" width="6" x="487" y="72.6094"/><text fill="#000000" font-family="sans-serif" font-size="11" lengthAdjust="spacingAndGlyphs" textLength="72" x="499" y="78.8198">String street</text><rect fill="none" height="6" style="stroke:#C82930;stroke-width:1.0;" width="6" x="487" y="85.4141"/><text fill="#000000" font-family="sans-serif" font-size="11" lengthAdjust="spacingAndGlyphs" textLength="77" x="499" y="91.6245">String locality</text><rect fill="none" height="6" style="stroke:#C82930;stroke-width:1.0;" width="6" x="487" y="98.2188"/><text fill="#000000" font-family="sans-serif" font-size="11" lengthAdjust="spacingAndGlyphs" textLength="102" x="499" y="104.4292">String postalCode</text><rect fill="none" height="6" style="stroke:#C82930;stroke-width:1.0;" width="6" x="487" y="111.0234"/><text fill="#000000" font-family="sans-serif" font-size="11" lengthAdjust="spacingAndGlyphs" textLength="136" x="499" y="117.2339">Double DecimalDegree1</text><rect fill="none" height="6" style="stroke:#C82930;stroke-width:1.0;" width="6" x="487" y="123.8281"/><text fill="#000000" font-family="sans-serif" font-size="11" lengthAdjust="spacingAndGlyphs" textLength="136" x="499" y="130.0386">Double DecimalDegree2</text><line style="stroke:#A80036;stroke-width:1.5;" x1="480" x2="640" y1="136.6328" y2="136.6328"/><!--MD5=[8836a49f4083a7550430b1f83332c96a]
class ParkingLot--><rect codeLine="28" fill="#FEFECE" filter="url(#f171tyehefclkj)" height="86.4141" id="ParkingLot" style="stroke:#A80036;stroke-width:1.5;" width="116" x="502" y="180"/><ellipse cx="525.1" cy="196" fill="#ADD1B2" rx="11" ry="11" style="stroke:#A80036;stroke-width:1.0;"/><path d="M528.0688,201.6406 Q527.4906,201.9375 526.85,202.0781 Q526.2094,202.2344 525.5063,202.2344 Q523.0063,202.2344 521.6781,200.5938 Q520.3656,198.9375 520.3656,195.8125 Q520.3656,192.6875 521.6781,191.0313 Q523.0063,189.375 525.5063,189.375 Q526.2094,189.375 526.85,189.5313 Q527.5063,189.6875 528.0688,189.9844 L528.0688,192.7031 Q527.4438,192.125 526.85,191.8594 Q526.2563,191.5781 525.6313,191.5781 Q524.2875,191.5781 523.6,192.6563 Q522.9125,193.7188 522.9125,195.8125 Q522.9125,197.9063 523.6,198.9844 Q524.2875,200.0469 525.6313,200.0469 Q526.2563,200.0469 526.85,199.7813 Q527.4438,199.5 528.0688,198.9219 L528.0688,201.6406 Z " fill="#000000"/><text fill="#000000" font-family="sans-serif" font-size="12" lengthAdjust="spacingAndGlyphs" textLength="66" x="540.9" y="200.1543">ParkingLot</text><line style="stroke:#A80036;stroke-width:1.5;" x1="503" x2="617" y1="212" y2="212"/><rect fill="none" height="6" style="stroke:#C82930;stroke-width:1.0;" width="6" x="510" y="220"/><text fill="#000000" font-family="sans-serif" font-size="11" lengthAdjust="spacingAndGlyphs" textLength="48" x="522" y="226.2104">String id</text><rect fill="none" height="6" style="stroke:#C82930;stroke-width:1.0;" width="6" x="510" y="232.8047"/><text fill="#000000" font-family="sans-serif" font-size="11" lengthAdjust="spacingAndGlyphs" textLength="76" x="522" y="239.0151">int totalSpots</text><rect fill="none" height="6" style="stroke:#C82930;stroke-width:1.0;" width="6" x="510" y="245.6094"/><text fill="#000000" font-family="sans-serif" font-size="11" lengthAdjust="spacingAndGlyphs" textLength="90" x="522" y="251.8198">int chargeSpots</text><line style="stroke:#A80036;stroke-width:1.5;" x1="503" x2="617" y1="258.4141" y2="258.4141"/><!--MD5=[2e3f1e60e74253ff42e47f8bfdb04ee2]
class Drone--><rect codeLine="34" fill="#FEFECE" filter="url(#f171tyehefclkj)" height="99.2188" id="Drone" style="stroke:#A80036;stroke-width:1.5;" width="151" x="484.5" y="301.5"/><ellipse cx="536.75" cy="317.5" fill="#ADD1B2" rx="11" ry="11" style="stroke:#A80036;stroke-width:1.0;"/><path d="M539.7188,323.1406 Q539.1406,323.4375 538.5,323.5781 Q537.8594,323.7344 537.1563,323.7344 Q534.6563,323.7344 533.3281,322.0938 Q532.0156,320.4375 532.0156,317.3125 Q532.0156,314.1875 533.3281,312.5313 Q534.6563,310.875 537.1563,310.875 Q537.8594,310.875 538.5,311.0313 Q539.1563,311.1875 539.7188,311.4844 L539.7188,314.2031 Q539.0938,313.625 538.5,313.3594 Q537.9063,313.0781 537.2813,313.0781 Q535.9375,313.0781 535.25,314.1563 Q534.5625,315.2188 534.5625,317.3125 Q534.5625,319.4063 535.25,320.4844 Q535.9375,321.5469 537.2813,321.5469 Q537.9063,321.5469 538.5,321.2813 Q539.0938,321 539.7188,320.4219 L539.7188,323.1406 Z " fill="#000000"/><text fill="#000000" font-family="sans-serif" font-size="12" lengthAdjust="spacingAndGlyphs" textLength="38" x="557.25" y="321.6543">Drone</text><line style="stroke:#A80036;stroke-width:1.5;" x1="485.5" x2="634.5" y1="333.5" y2="333.5"/><rect fill="none" height="6" style="stroke:#C82930;stroke-width:1.0;" width="6" x="492.5" y="341.5"/><text fill="#000000" font-family="sans-serif" font-size="11" lengthAdjust="spacingAndGlyphs" textLength="54" x="504.5" y="347.7104">Integer id</text><rect fill="none" height="6" style="stroke:#C82930;stroke-width:1.0;" width="6" x="492.5" y="354.3047"/><text fill="#000000" font-family="sans-serif" font-size="11" lengthAdjust="spacingAndGlyphs" textLength="101" x="504.5" y="360.5151">Double fullCharge</text><rect fill="none" height="6" style="stroke:#C82930;stroke-width:1.0;" width="6" x="492.5" y="367.1094"/><text fill="#000000" font-family="sans-serif" font-size="11" lengthAdjust="spacingAndGlyphs" textLength="125" x="504.5" y="373.3198">Double currentCharge</text><rect fill="none" height="6" style="stroke:#C82930;stroke-width:1.0;" width="6" x="492.5" y="379.9141"/><text fill="#000000" font-family="sans-serif" font-size="11" lengthAdjust="spacingAndGlyphs" textLength="78" x="504.5" y="386.1245">Double power</text><line style="stroke:#A80036;stroke-width:1.5;" x1="485.5" x2="634.5" y1="392.7188" y2="392.7188"/><!--MD5=[fff5db4abcb6eec6574b9ea9c3ee0eae]
class Delivery--><rect codeLine="41" fill="#FEFECE" filter="url(#f171tyehefclkj)" height="86.4141" id="Delivery" style="stroke:#A80036;stroke-width:1.5;" width="130" x="495" y="436"/><ellipse cx="532.5" cy="452" fill="#ADD1B2" rx="11" ry="11" style="stroke:#A80036;stroke-width:1.0;"/><path d="M535.4688,457.6406 Q534.8906,457.9375 534.25,458.0781 Q533.6094,458.2344 532.9063,458.2344 Q530.4063,458.2344 529.0781,456.5938 Q527.7656,454.9375 527.7656,451.8125 Q527.7656,448.6875 529.0781,447.0313 Q530.4063,445.375 532.9063,445.375 Q533.6094,445.375 534.25,445.5313 Q534.9063,445.6875 535.4688,445.9844 L535.4688,448.7031 Q534.8438,448.125 534.25,447.8594 Q533.6563,447.5781 533.0313,447.5781 Q531.6875,447.5781 531,448.6563 Q530.3125,449.7188 530.3125,451.8125 Q530.3125,453.9063 531,454.9844 Q531.6875,456.0469 533.0313,456.0469 Q533.6563,456.0469 534.25,455.7813 Q534.8438,455.5 535.4688,454.9219 L535.4688,457.6406 Z " fill="#000000"/><text fill="#000000" font-family="sans-serif" font-size="12" lengthAdjust="spacingAndGlyphs" textLength="48" x="551.5" y="456.1543">Delivery</text><line style="stroke:#A80036;stroke-width:1.5;" x1="496" x2="624" y1="468" y2="468"/><rect fill="none" height="6" style="stroke:#C82930;stroke-width:1.0;" width="6" x="503" y="476"/><text fill="#000000" font-family="sans-serif" font-size="11" lengthAdjust="spacingAndGlyphs" textLength="48" x="515" y="482.2104">String id</text><rect fill="none" height="6" style="stroke:#C82930;stroke-width:1.0;" width="6" x="503" y="488.8047"/><text fill="#000000" font-family="sans-serif" font-size="11" lengthAdjust="spacingAndGlyphs" textLength="100" x="515" y="495.0151">Date dateDelivery</text><rect fill="none" height="6" style="stroke:#C82930;stroke-width:1.0;" width="6" x="503" y="501.6094"/><text fill="#000000" font-family="sans-serif" font-size="11" lengthAdjust="spacingAndGlyphs" textLength="104" x="515" y="507.8198">double totalWeight</text><line style="stroke:#A80036;stroke-width:1.5;" x1="496" x2="624" y1="514.4141" y2="514.4141"/><!--MD5=[4a07f137c208f82f57837154e1cfa51e]
link Platform to Pharmacy--><path codeLine="48" d="M91.1921,231.157 C126.8566,241.4333 178.5434,256.3261 219.5718,268.1478 " fill="none" id="Platform-Pharmacy" style="stroke:#A80036;stroke-width:1.0;"/><polygon fill="#000000" points="130.8045,233.9508,122.9268,228.6224,121.2993,234.2705,130.8045,233.9508" style="stroke:#000000;stroke-width:1.0;"/><text fill="#000000" font-family="sans-serif" font-size="13" lengthAdjust="spacingAndGlyphs" textLength="54" x="135" y="237.0669">contains</text><text fill="#000000" font-family="sans-serif" font-size="13" lengthAdjust="spacingAndGlyphs" textLength="8" x="99.1314" y="246.6139">1</text><text fill="#000000" font-family="sans-serif" font-size="13" lengthAdjust="spacingAndGlyphs" textLength="7" x="205.0328" y="278.9577">*</text><!--MD5=[0f7004bed4496639b3a5258ab2ead378]
link Platform to Administrator--><path codeLine="49" d="M91.1921,206.4854 C128.4476,195.435 183.1867,179.1989 224.9966,166.7976 " fill="none" id="Platform-Administrator" style="stroke:#A80036;stroke-width:1.0;"/><polygon fill="#000000" points="130.7936,168.1446,121.2862,167.8991,122.9576,173.5343,130.7936,168.1446" style="stroke:#000000;stroke-width:1.0;"/><text fill="#000000" font-family="sans-serif" font-size="13" lengthAdjust="spacingAndGlyphs" textLength="54" x="135" y="174.0669">contains</text><text fill="#000000" font-family="sans-serif" font-size="13" lengthAdjust="spacingAndGlyphs" textLength="8" x="99.1314" y="217.7018">1</text><text fill="#000000" font-family="sans-serif" font-size="13" lengthAdjust="spacingAndGlyphs" textLength="7" x="209.8602" y="182.0877">*</text><!--MD5=[54781ac671cb1a8ee43ddd26f3addf70]
link Pharmacy to ParkingLot--><path codeLine="51" d="M350.1712,271.8329 C396.232,261.1133 457.431,246.8706 501.8424,236.5349 " fill="none" id="Pharmacy-ParkingLot" style="stroke:#A80036;stroke-width:1.0;"/><polygon fill="#000000" points="389.8699,240.4331,380.394,239.6209,381.7264,245.3457,389.8699,240.4331" style="stroke:#000000;stroke-width:1.0;"/><text fill="#000000" font-family="sans-serif" font-size="13" lengthAdjust="spacingAndGlyphs" textLength="54" x="394" y="246.0669">contains</text><text fill="#000000" font-family="sans-serif" font-size="13" lengthAdjust="spacingAndGlyphs" textLength="8" x="358.1691" y="282.997">1</text><text fill="#000000" font-family="sans-serif" font-size="13" lengthAdjust="spacingAndGlyphs" textLength="23" x="470.7882" y="251.0177">1..*</text><!--MD5=[55f0023f3d7135b0af0bd85f6874eacf]
link Pharmacy to Adress--><path codeLine="52" d="M341.314,243.7918 C380.9914,213.3484 434.7207,172.1234 478.9921,138.1552 " fill="none" id="Pharmacy-Adress" style="stroke:#A80036;stroke-width:1.0;"/><polygon fill="#000000" points="388.9669,151.5227,380.0017,154.6971,383.5798,159.3605,388.9669,151.5227" style="stroke:#000000;stroke-width:1.0;"/><text fill="#000000" font-family="sans-serif" font-size="13" lengthAdjust="spacingAndGlyphs" textLength="54" x="394" y="159.0669">contains</text><text fill="#000000" font-family="sans-serif" font-size="13" lengthAdjust="spacingAndGlyphs" textLength="8" x="341.3246" y="233.0725">1</text><text fill="#000000" font-family="sans-serif" font-size="13" lengthAdjust="spacingAndGlyphs" textLength="8" x="462.8898" y="156.8849">1</text><!--MD5=[f8ebe161610107101fe1df9bed99a2fd]
link Pharmacy to Drone--><path codeLine="53" d="M350.1712,302.1671 C390.3553,311.519 442.0611,323.5524 484.0901,333.3337 " fill="none" id="Pharmacy-Drone" style="stroke:#A80036;stroke-width:1.0;"/><polygon fill="#000000" points="405.3699,302.6998,397.2264,297.7871,395.894,303.5119,405.3699,302.6998" style="stroke:#000000;stroke-width:1.0;"/><text fill="#000000" font-family="sans-serif" font-size="13" lengthAdjust="spacingAndGlyphs" textLength="23" x="409.5" y="306.0669">has</text><text fill="#000000" font-family="sans-serif" font-size="13" lengthAdjust="spacingAndGlyphs" textLength="8" x="358.1691" y="316.8386">1</text><text fill="#000000" font-family="sans-serif" font-size="13" lengthAdjust="spacingAndGlyphs" textLength="23" x="453.5783" y="344.5232">0..*</text><!--MD5=[25aea5828b53ec0f02f3e5a419f8b29f]
link Pharmacy to Delivery--><path codeLine="54" d="M346.7154,330.0885 C391.8473,361.5989 452.8207,404.1694 498.0155,435.7235 " fill="none" id="Pharmacy-Delivery" style="stroke:#A80036;stroke-width:1.0;"/><polygon fill="#000000" points="404.5997,349.4287,398.8657,341.841,395.5009,346.6605,404.5997,349.4287" style="stroke:#000000;stroke-width:1.0;"/><text fill="#000000" font-family="sans-serif" font-size="13" lengthAdjust="spacingAndGlyphs" textLength="23" x="409.5" y="351.0669">has</text><text fill="#000000" font-family="sans-serif" font-size="13" lengthAdjust="spacingAndGlyphs" textLength="8" x="348.2745" y="350.5108">1</text><text fill="#000000" font-family="sans-serif" font-size="13" lengthAdjust="spacingAndGlyphs" textLength="23" x="464.2225" y="425.3119">0..*</text><!--MD5=[8aaadde0a51a6974a75b41b6a40c57cb]
link Administrator to Pharmacy--><path codeLine="56" d="M285,192.1318 C285,208.5589 285,227.2733 285,243.7146 " fill="none" id="Administrator-Pharmacy" style="stroke:#A80036;stroke-width:1.0;"/><polygon fill="#000000" points="243,223.0664,245.9389,214.0213,240.0611,214.0213,243,223.0664" style="stroke:#000000;stroke-width:1.0;"/><text fill="#000000" font-family="sans-serif" font-size="13" lengthAdjust="spacingAndGlyphs" textLength="56" x="252" y="222.5669">registers</text><text fill="#000000" font-family="sans-serif" font-size="13" lengthAdjust="spacingAndGlyphs" textLength="8" x="276.3375" y="212.5613">1</text><text fill="#000000" font-family="sans-serif" font-size="13" lengthAdjust="spacingAndGlyphs" textLength="8" x="276.3875" y="232.9834">1</text><!--MD5=[0f202b7f55795262cfefcf2c53001b2c]
@startuml
left to right direction

class Platform{
}

class Administrator{
  -String id
  -String name
  -String password
}

class Pharmacy {
  -String id
  -String designation
  -String email
}

class Adress {
  -String id
  -String doorNumber
  -String street
  -String locality
  -String postalCode
  -Double DecimalDegree1
  -Double DecimalDegree2
}

class ParkingLot {
  -String id
  -int totalSpots
  -int chargeSpots
}

class Drone {
  -Integer id
  -Double fullCharge
  -Double currentCharge
  -Double power
}

class Delivery {
  -String id
  -Date dateDelivery
  -double totalWeight
}
  

Platform"1" - - "*"Pharmacy : contains >
Platform"1" - - "*"Administrator : contains >

Pharmacy"1" - - "1..*" ParkingLot : contains >
Pharmacy"1" - - "1" Adress : contains >
Pharmacy"1" - - "0..*" Drone : has >
Pharmacy"1" - - "0..*" Delivery : has >

Administrator"1" - "1" Pharmacy : registers >
@enduml

PlantUML version 1.2020.22(Sun Dec 06 09:36:27 UTC 2020)
(GPL source distribution)
Java Runtime: OpenJDK Runtime Environment
JVM: OpenJDK 64-Bit Server VM
Default Encoding: UTF-8
Language: en
Country: US
--></g></svg>