<?xml version="1.0" encoding="UTF-8" standalone="no"?><svg xmlns="http://www.w3.org/2000/svg" xmlns:xlink="http://www.w3.org/1999/xlink" contentScriptType="application/ecmascript" contentStyleType="text/css" height="1179px" preserveAspectRatio="none" style="width:548px;height:1179px;" version="1.1" viewBox="0 0 548 1179" width="548px" zoomAndPan="magnify"><defs><filter height="300%" id="f1hzo6z7iqgftr" width="300%" x="-1" y="-1"><feGaussianBlur result="blurOut" stdDeviation="2.0"/><feColorMatrix in="blurOut" result="blurOut2" type="matrix" values="0 0 0 0 0 0 0 0 0 0 0 0 0 0 0 0 0 0 .4 0"/><feOffset dx="4.0" dy="4.0" in="blurOut2" result="blurOut3"/><feBlend in="SourceGraphic" in2="blurOut3" mode="normal"/></filter></defs><g><!--MD5=[9681dc6e01e10c6b4fe06895ae94f592]
cluster UI--><polygon fill="#FFFFFF" filter="url(#f1hzo6z7iqgftr)" points="60,6,81,6,88,28.2969,202,28.2969,202,89,60,89,60,6" style="stroke:#000000;stroke-width:1.5;"/><line style="stroke:#000000;stroke-width:1.5;" x1="60" x2="88" y1="28.2969" y2="28.2969"/><text fill="#000000" font-family="sans-serif" font-size="14" font-weight="bold" lengthAdjust="spacingAndGlyphs" textLength="15" x="64" y="20.9951">UI</text><!--MD5=[ed1d20ea533a2a0e7df5ba3c35e56ced]
cluster Controllers--><polygon fill="#FFFFFF" filter="url(#f1hzo6z7iqgftr)" points="29,120,123,120,130,142.2969,233,142.2969,233,293,29,293,29,120" style="stroke:#000000;stroke-width:1.5;"/><line style="stroke:#000000;stroke-width:1.5;" x1="29" x2="130" y1="142.2969" y2="142.2969"/><text fill="#000000" font-family="sans-serif" font-size="14" font-weight="bold" lengthAdjust="spacingAndGlyphs" textLength="88" x="33" y="134.9951">Controllers</text><!--MD5=[121a8bf1197281ab89ed693fab589f94]
cluster Domain--><polygon fill="#FFFFFF" filter="url(#f1hzo6z7iqgftr)" points="16,324,80,324,87,346.2969,531,346.2969,531,1172,16,1172,16,324" style="stroke:#000000;stroke-width:1.5;"/><line style="stroke:#000000;stroke-width:1.5;" x1="16" x2="87" y1="346.2969" y2="346.2969"/><text fill="#000000" font-family="sans-serif" font-size="14" font-weight="bold" lengthAdjust="spacingAndGlyphs" textLength="58" x="20" y="338.9951">Domain</text><!--MD5=[e1df557a82bc5e599254cc6c344b13bd]
class MakeDeliveryUI--><rect codeLine="20" fill="#FEFECE" filter="url(#f1hzo6z7iqgftr)" height="48" id="MakeDeliveryUI" style="stroke:#A80036;stroke-width:1.5;" width="125" x="68.5" y="33"/><ellipse cx="83.5" cy="49" fill="#ADD1B2" rx="11" ry="11" style="stroke:#A80036;stroke-width:1.0;"/><path d="M86.4688,54.6406 Q85.8906,54.9375 85.25,55.0781 Q84.6094,55.2344 83.9063,55.2344 Q81.4063,55.2344 80.0781,53.5938 Q78.7656,51.9375 78.7656,48.8125 Q78.7656,45.6875 80.0781,44.0313 Q81.4063,42.375 83.9063,42.375 Q84.6094,42.375 85.25,42.5313 Q85.9063,42.6875 86.4688,42.9844 L86.4688,45.7031 Q85.8438,45.125 85.25,44.8594 Q84.6563,44.5781 84.0313,44.5781 Q82.6875,44.5781 82,45.6563 Q81.3125,46.7188 81.3125,48.8125 Q81.3125,50.9063 82,51.9844 Q82.6875,53.0469 84.0313,53.0469 Q84.6563,53.0469 85.25,52.7813 Q85.8438,52.5 86.4688,51.9219 L86.4688,54.6406 Z " fill="#000000"/><text fill="#000000" font-family="sans-serif" font-size="12" lengthAdjust="spacingAndGlyphs" textLength="93" x="97.5" y="53.1543">MakeDeliveryUI</text><line style="stroke:#A80036;stroke-width:1.5;" x1="69.5" x2="192.5" y1="65" y2="65"/><line style="stroke:#A80036;stroke-width:1.5;" x1="69.5" x2="192.5" y1="73" y2="73"/><!--MD5=[4607d7ff5e0981f9e1bd80fa108a382a]
class MakeDeliveryController--><rect codeLine="34" fill="#FEFECE" filter="url(#f1hzo6z7iqgftr)" height="137.6328" id="MakeDeliveryController" style="stroke:#A80036;stroke-width:1.5;" width="188" x="37" y="147"/><ellipse cx="58.3" cy="163" fill="#ADD1B2" rx="11" ry="11" style="stroke:#A80036;stroke-width:1.0;"/><path d="M61.2688,168.6406 Q60.6906,168.9375 60.05,169.0781 Q59.4094,169.2344 58.7063,169.2344 Q56.2063,169.2344 54.8781,167.5938 Q53.5656,165.9375 53.5656,162.8125 Q53.5656,159.6875 54.8781,158.0313 Q56.2063,156.375 58.7063,156.375 Q59.4094,156.375 60.05,156.5313 Q60.7063,156.6875 61.2688,156.9844 L61.2688,159.7031 Q60.6438,159.125 60.05,158.8594 Q59.4563,158.5781 58.8313,158.5781 Q57.4875,158.5781 56.8,159.6563 Q56.1125,160.7188 56.1125,162.8125 Q56.1125,164.9063 56.8,165.9844 Q57.4875,167.0469 58.8313,167.0469 Q59.4563,167.0469 60.05,166.7813 Q60.6438,166.5 61.2688,165.9219 L61.2688,168.6406 Z " fill="#000000"/><text fill="#000000" font-family="sans-serif" font-size="12" lengthAdjust="spacingAndGlyphs" textLength="142" x="73.7" y="167.1543">MakeDeliveryController</text><line style="stroke:#A80036;stroke-width:1.5;" x1="38" x2="224" y1="179" y2="179"/><line style="stroke:#A80036;stroke-width:1.5;" x1="38" x2="224" y1="187" y2="187"/><text fill="#000000" font-family="sans-serif" font-size="11" lengthAdjust="spacingAndGlyphs" textLength="111" x="43" y="201.2104">+getPharmacyList()</text><text fill="#000000" font-family="sans-serif" font-size="11" lengthAdjust="spacingAndGlyphs" textLength="91" x="43" y="214.0151">+getPharmacy()</text><text fill="#000000" font-family="sans-serif" font-size="11" lengthAdjust="spacingAndGlyphs" textLength="89" x="43" y="226.8198">+getDroneList()</text><text fill="#000000" font-family="sans-serif" font-size="11" lengthAdjust="spacingAndGlyphs" textLength="79" x="43" y="239.6245">+getDrone(id)</text><text fill="#000000" font-family="sans-serif" font-size="11" lengthAdjust="spacingAndGlyphs" textLength="100" x="43" y="252.4292">+getDeliveryList()</text><text fill="#000000" font-family="sans-serif" font-size="11" lengthAdjust="spacingAndGlyphs" textLength="140" x="43" y="265.2339">+getChoosenDelivery(id)</text><text fill="#000000" font-family="sans-serif" font-size="11" lengthAdjust="spacingAndGlyphs" textLength="176" x="43" y="278.0386">+addDeliverySelected(delivery)</text><!--MD5=[99b8db98afdc2c8404e39242ef4c1e65]
class Platform--><rect codeLine="44" fill="#FEFECE" filter="url(#f1hzo6z7iqgftr)" height="86.4141" id="Platform" style="stroke:#A80036;stroke-width:1.5;" width="123" x="46.5" y="351"/><ellipse cx="79.05" cy="367" fill="#ADD1B2" rx="11" ry="11" style="stroke:#A80036;stroke-width:1.0;"/><path d="M82.0188,372.6406 Q81.4406,372.9375 80.8,373.0781 Q80.1594,373.2344 79.4563,373.2344 Q76.9563,373.2344 75.6281,371.5938 Q74.3156,369.9375 74.3156,366.8125 Q74.3156,363.6875 75.6281,362.0313 Q76.9563,360.375 79.4563,360.375 Q80.1594,360.375 80.8,360.5313 Q81.4563,360.6875 82.0188,360.9844 L82.0188,363.7031 Q81.3938,363.125 80.8,362.8594 Q80.2063,362.5781 79.5813,362.5781 Q78.2375,362.5781 77.55,363.6563 Q76.8625,364.7188 76.8625,366.8125 Q76.8625,368.9063 77.55,369.9844 Q78.2375,371.0469 79.5813,371.0469 Q80.2063,371.0469 80.8,370.7813 Q81.3938,370.5 82.0188,369.9219 L82.0188,372.6406 Z " fill="#000000"/><text fill="#000000" font-family="sans-serif" font-size="12" lengthAdjust="spacingAndGlyphs" textLength="52" x="96.95" y="371.1543">Platform</text><line style="stroke:#A80036;stroke-width:1.5;" x1="47.5" x2="168.5" y1="383" y2="383"/><line style="stroke:#A80036;stroke-width:1.5;" x1="47.5" x2="168.5" y1="391" y2="391"/><text fill="#000000" font-family="sans-serif" font-size="11" lengthAdjust="spacingAndGlyphs" textLength="111" x="52.5" y="405.2104">+getPharmacyList()</text><text fill="#000000" font-family="sans-serif" font-size="11" lengthAdjust="spacingAndGlyphs" textLength="89" x="52.5" y="418.0151">+getDroneList()</text><text fill="#000000" font-family="sans-serif" font-size="11" lengthAdjust="spacingAndGlyphs" textLength="100" x="52.5" y="430.8198">+getDeliveryList()</text><!--MD5=[9e412867e2230207caa378eacef9b685]
class DeliveryList--><rect codeLine="64" fill="#FEFECE" filter="url(#f1hzo6z7iqgftr)" height="99.2188" id="DeliveryList" style="stroke:#A80036;stroke-width:1.5;" width="350" x="173" y="576"/><ellipse cx="309.25" cy="592" fill="#ADD1B2" rx="11" ry="11" style="stroke:#A80036;stroke-width:1.0;"/><path d="M312.2188,597.6406 Q311.6406,597.9375 311,598.0781 Q310.3594,598.2344 309.6563,598.2344 Q307.1563,598.2344 305.8281,596.5938 Q304.5156,594.9375 304.5156,591.8125 Q304.5156,588.6875 305.8281,587.0313 Q307.1563,585.375 309.6563,585.375 Q310.3594,585.375 311,585.5313 Q311.6563,585.6875 312.2188,585.9844 L312.2188,588.7031 Q311.5938,588.125 311,587.8594 Q310.4063,587.5781 309.7813,587.5781 Q308.4375,587.5781 307.75,588.6563 Q307.0625,589.7188 307.0625,591.8125 Q307.0625,593.9063 307.75,594.9844 Q308.4375,596.0469 309.7813,596.0469 Q310.4063,596.0469 311,595.7813 Q311.5938,595.5 312.2188,594.9219 L312.2188,597.6406 Z " fill="#000000"/><text fill="#000000" font-family="sans-serif" font-size="12" lengthAdjust="spacingAndGlyphs" textLength="69" x="329.75" y="596.1543">DeliveryList</text><line style="stroke:#A80036;stroke-width:1.5;" x1="174" x2="522" y1="608" y2="608"/><line style="stroke:#A80036;stroke-width:1.5;" x1="174" x2="522" y1="616" y2="616"/><text fill="#000000" font-family="sans-serif" font-size="11" lengthAdjust="spacingAndGlyphs" textLength="163" x="179" y="630.2104">+getDeliveryListPharmacy(p)</text><text fill="#000000" font-family="sans-serif" font-size="11" lengthAdjust="spacingAndGlyphs" textLength="103" x="179" y="643.0151">+verifyDelivery(id)</text><text fill="#000000" font-family="sans-serif" font-size="11" lengthAdjust="spacingAndGlyphs" textLength="198" x="179" y="655.8198">+removeDeliveryFormList(delivery)</text><text fill="#000000" font-family="sans-serif" font-size="11" lengthAdjust="spacingAndGlyphs" textLength="338" x="179" y="668.6245">+getEnergySpentInDelivery(distance, deliveryListPharmacy)</text><!--MD5=[fff5db4abcb6eec6574b9ea9c3ee0eae]
class Delivery--><rect codeLine="58" fill="#FEFECE" filter="url(#f1hzo6z7iqgftr)" height="86.4141" id="Delivery" style="stroke:#A80036;stroke-width:1.5;" width="120" x="276" y="846"/><ellipse cx="309" cy="862" fill="#ADD1B2" rx="11" ry="11" style="stroke:#A80036;stroke-width:1.0;"/><path d="M311.9688,867.6406 Q311.3906,867.9375 310.75,868.0781 Q310.1094,868.2344 309.4063,868.2344 Q306.9063,868.2344 305.5781,866.5938 Q304.2656,864.9375 304.2656,861.8125 Q304.2656,858.6875 305.5781,857.0313 Q306.9063,855.375 309.4063,855.375 Q310.1094,855.375 310.75,855.5313 Q311.4063,855.6875 311.9688,855.9844 L311.9688,858.7031 Q311.3438,858.125 310.75,857.8594 Q310.1563,857.5781 309.5313,857.5781 Q308.1875,857.5781 307.5,858.6563 Q306.8125,859.7188 306.8125,861.8125 Q306.8125,863.9063 307.5,864.9844 Q308.1875,866.0469 309.5313,866.0469 Q310.1563,866.0469 310.75,865.7813 Q311.3438,865.5 311.9688,864.9219 L311.9688,867.6406 Z " fill="#000000"/><text fill="#000000" font-family="sans-serif" font-size="12" lengthAdjust="spacingAndGlyphs" textLength="48" x="327" y="866.1543">Delivery</text><line style="stroke:#A80036;stroke-width:1.5;" x1="277" x2="395" y1="878" y2="878"/><text fill="#000000" font-family="sans-serif" font-size="11" lengthAdjust="spacingAndGlyphs" textLength="52" x="282" y="892.2104">-String id</text><text fill="#000000" font-family="sans-serif" font-size="11" lengthAdjust="spacingAndGlyphs" textLength="103" x="282" y="905.0151">-date dateDelivery</text><text fill="#000000" font-family="sans-serif" font-size="11" lengthAdjust="spacingAndGlyphs" textLength="108" x="282" y="917.8198">-double totalWeight</text><line style="stroke:#A80036;stroke-width:1.5;" x1="277" x2="395" y1="924.4141" y2="924.4141"/><!--MD5=[265e363dcba9278bf9f672008e35cce4]
class AvailableDroneList--><rect codeLine="54" fill="#FEFECE" filter="url(#f1hzo6z7iqgftr)" height="60.8047" id="AvailableDroneList" style="stroke:#A80036;stroke-width:1.5;" width="146" x="36" y="1103"/><ellipse cx="51" cy="1119" fill="#ADD1B2" rx="11" ry="11" style="stroke:#A80036;stroke-width:1.0;"/><path d="M53.9688,1124.6406 Q53.3906,1124.9375 52.75,1125.0781 Q52.1094,1125.2344 51.4063,1125.2344 Q48.9063,1125.2344 47.5781,1123.5938 Q46.2656,1121.9375 46.2656,1118.8125 Q46.2656,1115.6875 47.5781,1114.0313 Q48.9063,1112.375 51.4063,1112.375 Q52.1094,1112.375 52.75,1112.5313 Q53.4063,1112.6875 53.9688,1112.9844 L53.9688,1115.7031 Q53.3438,1115.125 52.75,1114.8594 Q52.1563,1114.5781 51.5313,1114.5781 Q50.1875,1114.5781 49.5,1115.6563 Q48.8125,1116.7188 48.8125,1118.8125 Q48.8125,1120.9063 49.5,1121.9844 Q50.1875,1123.0469 51.5313,1123.0469 Q52.1563,1123.0469 52.75,1122.7813 Q53.3438,1122.5 53.9688,1121.9219 L53.9688,1124.6406 Z " fill="#000000"/><text fill="#000000" font-family="sans-serif" font-size="12" lengthAdjust="spacingAndGlyphs" textLength="114" x="65" y="1123.1543">AvailableDroneList</text><line style="stroke:#A80036;stroke-width:1.5;" x1="37" x2="181" y1="1135" y2="1135"/><line style="stroke:#A80036;stroke-width:1.5;" x1="37" x2="181" y1="1143" y2="1143"/><text fill="#000000" font-family="sans-serif" font-size="11" lengthAdjust="spacingAndGlyphs" textLength="79" x="42" y="1157.2104">+getDrone(id)</text><!--MD5=[8050ef462d77cf220fd706493bc05cc9]
class PharmacyList--><rect codeLine="50" fill="#FEFECE" filter="url(#f1hzo6z7iqgftr)" height="60.8047" id="PharmacyList" style="stroke:#A80036;stroke-width:1.5;" width="114" x="24" y="595"/><ellipse cx="39" cy="611" fill="#ADD1B2" rx="11" ry="11" style="stroke:#A80036;stroke-width:1.0;"/><path d="M41.9688,616.6406 Q41.3906,616.9375 40.75,617.0781 Q40.1094,617.2344 39.4063,617.2344 Q36.9063,617.2344 35.5781,615.5938 Q34.2656,613.9375 34.2656,610.8125 Q34.2656,607.6875 35.5781,606.0313 Q36.9063,604.375 39.4063,604.375 Q40.1094,604.375 40.75,604.5313 Q41.4063,604.6875 41.9688,604.9844 L41.9688,607.7031 Q41.3438,607.125 40.75,606.8594 Q40.1563,606.5781 39.5313,606.5781 Q38.1875,606.5781 37.5,607.6563 Q36.8125,608.7188 36.8125,610.8125 Q36.8125,612.9063 37.5,613.9844 Q38.1875,615.0469 39.5313,615.0469 Q40.1563,615.0469 40.75,614.7813 Q41.3438,614.5 41.9688,613.9219 L41.9688,616.6406 Z " fill="#000000"/><text fill="#000000" font-family="sans-serif" font-size="12" lengthAdjust="spacingAndGlyphs" textLength="82" x="53" y="615.1543">PharmacyList</text><line style="stroke:#A80036;stroke-width:1.5;" x1="25" x2="137" y1="627" y2="627"/><line style="stroke:#A80036;stroke-width:1.5;" x1="25" x2="137" y1="635" y2="635"/><text fill="#000000" font-family="sans-serif" font-size="11" lengthAdjust="spacingAndGlyphs" textLength="91" x="30" y="649.2104">+getPharmacy()</text><!--MD5=[7f2a9fafcebe4f099f71398fd3e2ed00]
class Pharmacy--><rect codeLine="23" fill="#FEFECE" filter="url(#f1hzo6z7iqgftr)" height="150.4375" id="Pharmacy" style="stroke:#A80036;stroke-width:1.5;" width="144" x="37" y="814"/><ellipse cx="74.95" cy="830" fill="#ADD1B2" rx="11" ry="11" style="stroke:#A80036;stroke-width:1.0;"/><path d="M77.9188,835.6406 Q77.3406,835.9375 76.7,836.0781 Q76.0594,836.2344 75.3563,836.2344 Q72.8563,836.2344 71.5281,834.5938 Q70.2156,832.9375 70.2156,829.8125 Q70.2156,826.6875 71.5281,825.0313 Q72.8563,823.375 75.3563,823.375 Q76.0594,823.375 76.7,823.5313 Q77.3563,823.6875 77.9188,823.9844 L77.9188,826.7031 Q77.2938,826.125 76.7,825.8594 Q76.1063,825.5781 75.4813,825.5781 Q74.1375,825.5781 73.45,826.6563 Q72.7625,827.7188 72.7625,829.8125 Q72.7625,831.9063 73.45,832.9844 Q74.1375,834.0469 75.4813,834.0469 Q76.1063,834.0469 76.7,833.7813 Q77.2938,833.5 77.9188,832.9219 L77.9188,835.6406 Z " fill="#000000"/><text fill="#000000" font-family="sans-serif" font-size="12" lengthAdjust="spacingAndGlyphs" textLength="61" x="94.05" y="834.1543">Pharmacy</text><line style="stroke:#A80036;stroke-width:1.5;" x1="38" x2="180" y1="846" y2="846"/><text fill="#000000" font-family="sans-serif" font-size="11" lengthAdjust="spacingAndGlyphs" textLength="52" x="43" y="860.2104">-String id</text><text fill="#000000" font-family="sans-serif" font-size="11" lengthAdjust="spacingAndGlyphs" textLength="108" x="43" y="873.0151">-String designation</text><text fill="#000000" font-family="sans-serif" font-size="11" lengthAdjust="spacingAndGlyphs" textLength="73" x="43" y="885.8198">-String email</text><text fill="#000000" font-family="sans-serif" font-size="11" lengthAdjust="spacingAndGlyphs" textLength="98" x="43" y="898.6245">-String password</text><text fill="#000000" font-family="sans-serif" font-size="11" lengthAdjust="spacingAndGlyphs" textLength="88" x="43" y="911.4292">-Adress adress</text><text fill="#000000" font-family="sans-serif" font-size="11" lengthAdjust="spacingAndGlyphs" textLength="92" x="43" y="924.2339">-ParkingLot park</text><text fill="#000000" font-family="sans-serif" font-size="11" lengthAdjust="spacingAndGlyphs" textLength="81" x="43" y="937.0386">-ProductList pl</text><text fill="#000000" font-family="sans-serif" font-size="11" lengthAdjust="spacingAndGlyphs" textLength="132" x="43" y="949.8433">-AvaivableDroneList asl</text><line style="stroke:#A80036;stroke-width:1.5;" x1="38" x2="180" y1="956.4375" y2="956.4375"/><!--MD5=[e5137f4a64ef481826abdbfdef48e03c]
link MakeDeliveryUI to MakeDeliveryController--><path codeLine="71" d="M131,81.1487 C131,97.3949 131,119.7634 131,141.6145 " fill="none" id="MakeDeliveryUI-to-MakeDeliveryController" style="stroke:#A80036;stroke-width:1.0;stroke-dasharray:7.0,7.0;"/><polygon fill="#A80036" points="131,146.8565,135,137.8565,131,141.8565,127,137.8565,131,146.8565" style="stroke:#A80036;stroke-width:1.0;"/><!--MD5=[609bcfc69672a60d79ad5fdb7420f4bf]
link MakeDeliveryController to Platform--><path codeLine="73" d="M122.0747,285.0742 C119.4546,305.3511 116.6466,327.0826 114.2333,345.7595 " fill="none" id="MakeDeliveryController-to-Platform" style="stroke:#A80036;stroke-width:1.0;stroke-dasharray:7.0,7.0;"/><polygon fill="#A80036" points="113.5636,350.9426,118.6841,342.5295,114.2044,345.9838,110.7501,341.5042,113.5636,350.9426" style="stroke:#A80036;stroke-width:1.0;"/><!--MD5=[529c23a8d0c463fd23132b420eaed469]
link MakeDeliveryController to DeliveryList--><path codeLine="74" d="M167.5657,285.003 C210.2924,365.6324 280.106,497.3774 319.1842,571.1217 " fill="none" id="MakeDeliveryController-to-DeliveryList" style="stroke:#A80036;stroke-width:1.0;stroke-dasharray:7.0,7.0;"/><polygon fill="#A80036" points="321.7131,575.8941,321.0332,566.0687,319.3718,571.4761,313.9644,569.8148,321.7131,575.8941" style="stroke:#A80036;stroke-width:1.0;"/><!--MD5=[4ceb3377d1256b98e7fe864520c13780]
link DeliveryList to Delivery--><path codeLine="76" d="M345.7429,675.0623 C343.5024,724.2591 340.1027,798.9123 337.9687,845.7696 " fill="none" id="DeliveryList-Delivery" style="stroke:#A80036;stroke-width:1.0;"/><text fill="#000000" font-family="sans-serif" font-size="13" lengthAdjust="spacingAndGlyphs" textLength="34" x="343" y="749.0669">has&gt;</text><text fill="#000000" font-family="sans-serif" font-size="13" lengthAdjust="spacingAndGlyphs" textLength="8" x="336.863" y="695.1475">1</text><text fill="#000000" font-family="sans-serif" font-size="13" lengthAdjust="spacingAndGlyphs" textLength="23" x="313.5092" y="835.0469">1..*</text><!--MD5=[2bc5a413d94b08902b9f3d0151eb30f1]
link Platform to PharmacyList--><path codeLine="78" d="M102.9848,437.0008 C97.6319,482.8969 89.286,554.4549 84.5666,594.92 " fill="none" id="Platform-PharmacyList" style="stroke:#A80036;stroke-width:1.0;"/><text fill="#000000" font-family="sans-serif" font-size="13" lengthAdjust="spacingAndGlyphs" textLength="34" x="96" y="511.0669">has&gt;</text><text fill="#000000" font-family="sans-serif" font-size="13" lengthAdjust="spacingAndGlyphs" textLength="8" x="93.4917" y="457.4086">1</text><text fill="#000000" font-family="sans-serif" font-size="13" lengthAdjust="spacingAndGlyphs" textLength="8" x="76.4772" y="584.1667">1</text><!--MD5=[dcb9e7f24fda9389b72d4bf35ba5a068]
link PharmacyList to Pharmacy--><path codeLine="80" d="M84.2668,656.2425 C88.3421,694.5943 95.4499,761.4842 101.0032,813.7443 " fill="none" id="PharmacyList-Pharmacy" style="stroke:#A80036;stroke-width:1.0;"/><text fill="#000000" font-family="sans-serif" font-size="13" lengthAdjust="spacingAndGlyphs" textLength="34" x="95" y="749.0669">has&gt;</text><text fill="#000000" font-family="sans-serif" font-size="13" lengthAdjust="spacingAndGlyphs" textLength="8" x="76.1225" y="675.8707">1</text><text fill="#000000" font-family="sans-serif" font-size="13" lengthAdjust="spacingAndGlyphs" textLength="23" x="76.1449" y="802.909">0..*</text><!--MD5=[4cacfa2f856f5ca3c40f26ab01bca15c]
link Pharmacy to AvailableDroneList--><path codeLine="82" d="M109,964.0197 C109,1010.7645 109,1068.396 109,1102.9796 " fill="none" id="Pharmacy-AvailableDroneList" style="stroke:#A80036;stroke-width:1.0;"/><text fill="#000000" font-family="sans-serif" font-size="13" lengthAdjust="spacingAndGlyphs" textLength="34" x="110" y="1038.0669">has&gt;</text><text fill="#000000" font-family="sans-serif" font-size="13" lengthAdjust="spacingAndGlyphs" textLength="8" x="100.5875" y="984.5807">1</text><text fill="#000000" font-family="sans-serif" font-size="13" lengthAdjust="spacingAndGlyphs" textLength="8" x="100.125" y="1091.7654">1</text><!--MD5=[25aea5828b53ec0f02f3e5a419f8b29f]
link Pharmacy to Delivery--><path codeLine="83" d="M181.1361,889 C211.6443,889 246.7716,889 275.8507,889 " fill="none" id="Pharmacy-Delivery" style="stroke:#A80036;stroke-width:1.0;"/><text fill="#000000" font-family="sans-serif" font-size="13" lengthAdjust="spacingAndGlyphs" textLength="34" x="211.5" y="882.0669">has&gt;</text><text fill="#000000" font-family="sans-serif" font-size="13" lengthAdjust="spacingAndGlyphs" textLength="8" x="188.9876" y="885.2777">1</text><text fill="#000000" font-family="sans-serif" font-size="13" lengthAdjust="spacingAndGlyphs" textLength="7" x="261.0934" y="885.1357">*</text><!--MD5=[6927e4267c74c1ff275cc9830febdb5e]
@startuml
skinparam classAttributeIconSize 0

package UI <<Folder>> {
  class MakeDeliveryUI
}

package Controllers <<Folder>> {
  class MakeDeliveryController
}

package Domain <<Folder>> {
  class Platform
  class DeliveryList
  class Delivery
  class AvailableDroneList
  class PharmacyList
  class Pharmacy
}

class MakeDeliveryUI {
}

class Pharmacy{
  -String id
  -String designation
  -String email
  -String password
  -Adress adress
  -ParkingLot park
  -ProductList pl
  -AvaivableDroneList asl
}

class MakeDeliveryController {
  +getPharmacyList()
  +getPharmacy()
  +getDroneList()
  +getDrone(id)
  +getDeliveryList()
  +getChoosenDelivery(id)
  +addDeliverySelected(delivery)
}

class Platform {
  +getPharmacyList()
  +getDroneList()
  +getDeliveryList()
}

class PharmacyList {
  +getPharmacy()
}

class AvailableDroneList {
  +getDrone(id)
}

class Delivery {
  -String id
  -date dateDelivery 
  -double totalWeight
}

class DeliveryList {
  +getDeliveryListPharmacy(p)    
  +verifyDelivery(id)
  +removeDeliveryFormList(delivery)
  +getEnergySpentInDelivery(distance, deliveryListPharmacy)
}

MakeDeliveryUI ..> MakeDeliveryController

MakeDeliveryController ..> Platform
MakeDeliveryController ..> DeliveryList

DeliveryList"1" - - "1..*" Delivery : has>

Platform"1" - - "1" PharmacyList : has>

PharmacyList"1" - - "0..*" Pharmacy : has>

Pharmacy"1" - - "1" AvailableDroneList : has>
Pharmacy"1" - "*" Delivery: has>
@enduml

PlantUML version 1.2020.22(Sun Dec 06 09:36:27 UTC 2020)
(GPL source distribution)
Java Runtime: OpenJDK Runtime Environment
JVM: OpenJDK 64-Bit Server VM
Default Encoding: UTF-8
Language: en
Country: US
--></g></svg>