<?xml version="1.0" encoding="UTF-8" standalone="no"?><svg xmlns="http://www.w3.org/2000/svg" xmlns:xlink="http://www.w3.org/1999/xlink" contentScriptType="application/ecmascript" contentStyleType="text/css" height="852px" preserveAspectRatio="none" style="width:1437px;height:852px;" version="1.1" viewBox="0 0 1437 852" width="1437px" zoomAndPan="magnify"><defs><filter height="300%" id="fr7fxmhz80g57" width="300%" x="-1" y="-1"><feGaussianBlur result="blurOut" stdDeviation="2.0"/><feColorMatrix in="blurOut" result="blurOut2" type="matrix" values="0 0 0 0 0 0 0 0 0 0 0 0 0 0 0 0 0 0 .4 0"/><feOffset dx="4.0" dy="4.0" in="blurOut2" result="blurOut3"/><feBlend in="SourceGraphic" in2="blurOut3" mode="normal"/></filter></defs><g><rect fill="#FFFFFF" filter="url(#fr7fxmhz80g57)" height="660.7891" style="stroke:#A80036;stroke-width:1.0;" width="10" x="53" y="98.2969"/><rect fill="#FFFFFF" filter="url(#fr7fxmhz80g57)" height="132.5313" style="stroke:#A80036;stroke-width:1.0;" width="10" x="513" y="119.4297"/><rect fill="#FFFFFF" filter="url(#fr7fxmhz80g57)" height="160.7969" style="stroke:#A80036;stroke-width:1.0;" width="10" x="513" y="281.0938"/><rect fill="#FFFFFF" filter="url(#fr7fxmhz80g57)" height="132.5313" style="stroke:#A80036;stroke-width:1.0;" width="10" x="513" y="471.0234"/><rect fill="#FFFFFF" filter="url(#fr7fxmhz80g57)" height="117.3984" style="stroke:#A80036;stroke-width:1.0;" width="10" x="513" y="632.6875"/><rect fill="#FFFFFF" filter="url(#fr7fxmhz80g57)" height="59.1328" style="stroke:#A80036;stroke-width:1.0;" width="10" x="755" y="148.5625"/><rect fill="#FFFFFF" filter="url(#fr7fxmhz80g57)" height="29.1328" style="stroke:#A80036;stroke-width:1.0;" width="10" x="755" y="310.2266"/><rect fill="#FFFFFF" filter="url(#fr7fxmhz80g57)" height="29.1328" style="stroke:#A80036;stroke-width:1.0;" width="10" x="755" y="368.4922"/><rect fill="#FFFFFF" filter="url(#fr7fxmhz80g57)" height="59.1328" style="stroke:#A80036;stroke-width:1.0;" width="10" x="755" y="500.1563"/><rect fill="#FFFFFF" filter="url(#fr7fxmhz80g57)" height="59.1328" style="stroke:#A80036;stroke-width:1.0;" width="10" x="755" y="661.8203"/><rect fill="#FFFFFF" filter="url(#fr7fxmhz80g57)" height="30" style="stroke:#A80036;stroke-width:1.0;" width="10" x="943" y="177.6953"/><rect fill="#FFFFFF" filter="url(#fr7fxmhz80g57)" height="30" style="stroke:#A80036;stroke-width:1.0;" width="10" x="1048.5" y="529.2891"/><rect fill="#FFFFFF" filter="url(#fr7fxmhz80g57)" height="30" style="stroke:#A80036;stroke-width:1.0;" width="10" x="1150.5" y="690.9531"/><rect fill="#FFFFFF" filter="url(#fr7fxmhz80g57)" height="29.1328" style="stroke:#A80036;stroke-width:1.0;" width="10" x="1259.5" y="310.2266"/><rect fill="#FFFFFF" filter="url(#fr7fxmhz80g57)" height="29.1328" style="stroke:#A80036;stroke-width:1.0;" width="10" x="1375.5" y="368.4922"/><line style="stroke:#A80036;stroke-width:1.0;stroke-dasharray:5.0,5.0;" x1="58" x2="58" y1="88.2969" y2="768.0859"/><line style="stroke:#A80036;stroke-width:1.0;stroke-dasharray:5.0,5.0;" x1="518" x2="518" y1="88.2969" y2="768.0859"/><line style="stroke:#A80036;stroke-width:1.0;stroke-dasharray:5.0,5.0;" x1="760" x2="760" y1="88.2969" y2="768.0859"/><line style="stroke:#A80036;stroke-width:1.0;stroke-dasharray:5.0,5.0;" x1="948" x2="948" y1="88.2969" y2="768.0859"/><line style="stroke:#A80036;stroke-width:1.0;stroke-dasharray:5.0,5.0;" x1="1053" x2="1053" y1="88.2969" y2="768.0859"/><line style="stroke:#A80036;stroke-width:1.0;stroke-dasharray:5.0,5.0;" x1="1155" x2="1155" y1="88.2969" y2="768.0859"/><line style="stroke:#A80036;stroke-width:1.0;stroke-dasharray:5.0,5.0;" x1="1264" x2="1264" y1="88.2969" y2="768.0859"/><line style="stroke:#A80036;stroke-width:1.0;stroke-dasharray:5.0,5.0;" x1="1380" x2="1380" y1="88.2969" y2="768.0859"/><text fill="#000000" font-family="sans-serif" font-size="14" lengthAdjust="spacing" textLength="100" x="5" y="84.9951">Administrator</text><ellipse cx="58" cy="15" fill="#FEFECE" filter="url(#fr7fxmhz80g57)" rx="8" ry="8" style="stroke:#A80036;stroke-width:2.0;"/><path d="M58,23 L58,50 M45,31 L71,31 M58,50 L45,65 M58,50 L71,65 " fill="none" filter="url(#fr7fxmhz80g57)" style="stroke:#A80036;stroke-width:2.0;"/><text fill="#000000" font-family="sans-serif" font-size="14" lengthAdjust="spacing" textLength="100" x="5" y="780.0811">Administrator</text><ellipse cx="58" cy="793.3828" fill="#FEFECE" filter="url(#fr7fxmhz80g57)" rx="8" ry="8" style="stroke:#A80036;stroke-width:2.0;"/><path d="M58,801.3828 L58,828.3828 M45,809.3828 L71,809.3828 M58,828.3828 L45,843.3828 M58,828.3828 L71,843.3828 " fill="none" filter="url(#fr7fxmhz80g57)" style="stroke:#A80036;stroke-width:2.0;"/><rect fill="#FEFECE" filter="url(#fr7fxmhz80g57)" height="30.2969" style="stroke:#A80036;stroke-width:1.5;" width="126" x="453" y="53"/><text fill="#000000" font-family="sans-serif" font-size="14" lengthAdjust="spacing" textLength="112" x="460" y="72.9951">:UpdateStockUI</text><rect fill="#FEFECE" filter="url(#fr7fxmhz80g57)" height="30.2969" style="stroke:#A80036;stroke-width:1.5;" width="126" x="453" y="767.0859"/><text fill="#000000" font-family="sans-serif" font-size="14" lengthAdjust="spacing" textLength="112" x="460" y="787.0811">:UpdateStockUI</text><rect fill="#FEFECE" filter="url(#fr7fxmhz80g57)" height="30.2969" style="stroke:#A80036;stroke-width:1.5;" width="186" x="665" y="53"/><text fill="#000000" font-family="sans-serif" font-size="14" lengthAdjust="spacing" textLength="172" x="672" y="72.9951">:UpdateStockController</text><rect fill="#FEFECE" filter="url(#fr7fxmhz80g57)" height="30.2969" style="stroke:#A80036;stroke-width:1.5;" width="186" x="665" y="767.0859"/><text fill="#000000" font-family="sans-serif" font-size="14" lengthAdjust="spacing" textLength="172" x="672" y="787.0811">:UpdateStockController</text><rect fill="#FEFECE" filter="url(#fr7fxmhz80g57)" height="30.2969" style="stroke:#A80036;stroke-width:1.5;" width="82" x="905" y="53"/><text fill="#000000" font-family="sans-serif" font-size="14" lengthAdjust="spacing" textLength="68" x="912" y="72.9951">:Platform</text><rect fill="#FEFECE" filter="url(#fr7fxmhz80g57)" height="30.2969" style="stroke:#A80036;stroke-width:1.5;" width="82" x="905" y="767.0859"/><text fill="#000000" font-family="sans-serif" font-size="14" lengthAdjust="spacing" textLength="68" x="912" y="787.0811">:Platform</text><rect fill="#FEFECE" filter="url(#fr7fxmhz80g57)" height="46.5938" style="stroke:#A80036;stroke-width:1.5;" width="101" x="1001" y="36.7031"/><text fill="#000000" font-family="sans-serif" font-size="14" lengthAdjust="spacing" textLength="20" x="1039.5" y="56.6982">prl</text><text fill="#000000" font-family="sans-serif" font-size="14" lengthAdjust="spacing" textLength="87" x="1008" y="72.9951">:ProductList</text><rect fill="#FEFECE" filter="url(#fr7fxmhz80g57)" height="46.5938" style="stroke:#A80036;stroke-width:1.5;" width="101" x="1001" y="767.0859"/><text fill="#000000" font-family="sans-serif" font-size="14" lengthAdjust="spacing" textLength="20" x="1039.5" y="787.0811">prl</text><text fill="#000000" font-family="sans-serif" font-size="14" lengthAdjust="spacing" textLength="87" x="1008" y="803.3779">:ProductList</text><rect fill="#FEFECE" filter="url(#fr7fxmhz80g57)" height="46.5938" style="stroke:#A80036;stroke-width:1.5;" width="75" x="1116" y="36.7031"/><text fill="#000000" font-family="sans-serif" font-size="14" lengthAdjust="spacing" textLength="16" x="1143.5" y="56.6982">pr</text><text fill="#000000" font-family="sans-serif" font-size="14" lengthAdjust="spacing" textLength="61" x="1123" y="72.9951">:Product</text><rect fill="#FEFECE" filter="url(#fr7fxmhz80g57)" height="46.5938" style="stroke:#A80036;stroke-width:1.5;" width="75" x="1116" y="767.0859"/><text fill="#000000" font-family="sans-serif" font-size="14" lengthAdjust="spacing" textLength="16" x="1143.5" y="787.0811">pr</text><text fill="#000000" font-family="sans-serif" font-size="14" lengthAdjust="spacing" textLength="61" x="1123" y="803.3779">:Product</text><rect fill="#FEFECE" filter="url(#fr7fxmhz80g57)" height="46.5938" style="stroke:#A80036;stroke-width:1.5;" width="115" x="1205" y="36.7031"/><text fill="#000000" font-family="sans-serif" font-size="14" lengthAdjust="spacing" textLength="14" x="1253.5" y="56.6982">pl</text><text fill="#000000" font-family="sans-serif" font-size="14" lengthAdjust="spacing" textLength="101" x="1212" y="72.9951">:PharmacyList</text><rect fill="#FEFECE" filter="url(#fr7fxmhz80g57)" height="46.5938" style="stroke:#A80036;stroke-width:1.5;" width="115" x="1205" y="767.0859"/><text fill="#000000" font-family="sans-serif" font-size="14" lengthAdjust="spacing" textLength="14" x="1253.5" y="787.0811">pl</text><text fill="#000000" font-family="sans-serif" font-size="14" lengthAdjust="spacing" textLength="101" x="1212" y="803.3779">:PharmacyList</text><rect fill="#FEFECE" filter="url(#fr7fxmhz80g57)" height="46.5938" style="stroke:#A80036;stroke-width:1.5;" width="89" x="1334" y="36.7031"/><text fill="#000000" font-family="sans-serif" font-size="14" lengthAdjust="spacing" textLength="10" x="1371.5" y="56.6982">p</text><text fill="#000000" font-family="sans-serif" font-size="14" lengthAdjust="spacing" textLength="75" x="1341" y="72.9951">:Pharmacy</text><rect fill="#FEFECE" filter="url(#fr7fxmhz80g57)" height="46.5938" style="stroke:#A80036;stroke-width:1.5;" width="89" x="1334" y="767.0859"/><text fill="#000000" font-family="sans-serif" font-size="14" lengthAdjust="spacing" textLength="10" x="1371.5" y="787.0811">p</text><text fill="#000000" font-family="sans-serif" font-size="14" lengthAdjust="spacing" textLength="75" x="1341" y="803.3779">:Pharmacy</text><rect fill="#FFFFFF" filter="url(#fr7fxmhz80g57)" height="660.7891" style="stroke:#A80036;stroke-width:1.0;" width="10" x="53" y="98.2969"/><rect fill="#FFFFFF" filter="url(#fr7fxmhz80g57)" height="132.5313" style="stroke:#A80036;stroke-width:1.0;" width="10" x="513" y="119.4297"/><rect fill="#FFFFFF" filter="url(#fr7fxmhz80g57)" height="160.7969" style="stroke:#A80036;stroke-width:1.0;" width="10" x="513" y="281.0938"/><rect fill="#FFFFFF" filter="url(#fr7fxmhz80g57)" height="132.5313" style="stroke:#A80036;stroke-width:1.0;" width="10" x="513" y="471.0234"/><rect fill="#FFFFFF" filter="url(#fr7fxmhz80g57)" height="117.3984" style="stroke:#A80036;stroke-width:1.0;" width="10" x="513" y="632.6875"/><rect fill="#FFFFFF" filter="url(#fr7fxmhz80g57)" height="59.1328" style="stroke:#A80036;stroke-width:1.0;" width="10" x="755" y="148.5625"/><rect fill="#FFFFFF" filter="url(#fr7fxmhz80g57)" height="29.1328" style="stroke:#A80036;stroke-width:1.0;" width="10" x="755" y="310.2266"/><rect fill="#FFFFFF" filter="url(#fr7fxmhz80g57)" height="29.1328" style="stroke:#A80036;stroke-width:1.0;" width="10" x="755" y="368.4922"/><rect fill="#FFFFFF" filter="url(#fr7fxmhz80g57)" height="59.1328" style="stroke:#A80036;stroke-width:1.0;" width="10" x="755" y="500.1563"/><rect fill="#FFFFFF" filter="url(#fr7fxmhz80g57)" height="59.1328" style="stroke:#A80036;stroke-width:1.0;" width="10" x="755" y="661.8203"/><rect fill="#FFFFFF" filter="url(#fr7fxmhz80g57)" height="30" style="stroke:#A80036;stroke-width:1.0;" width="10" x="943" y="177.6953"/><rect fill="#FFFFFF" filter="url(#fr7fxmhz80g57)" height="30" style="stroke:#A80036;stroke-width:1.0;" width="10" x="1048.5" y="529.2891"/><rect fill="#FFFFFF" filter="url(#fr7fxmhz80g57)" height="30" style="stroke:#A80036;stroke-width:1.0;" width="10" x="1150.5" y="690.9531"/><rect fill="#FFFFFF" filter="url(#fr7fxmhz80g57)" height="29.1328" style="stroke:#A80036;stroke-width:1.0;" width="10" x="1259.5" y="310.2266"/><rect fill="#FFFFFF" filter="url(#fr7fxmhz80g57)" height="29.1328" style="stroke:#A80036;stroke-width:1.0;" width="10" x="1375.5" y="368.4922"/><polygon fill="#A80036" points="501,115.4297,511,119.4297,501,123.4297,505,119.4297" style="stroke:#A80036;stroke-width:1.0;"/><line style="stroke:#A80036;stroke-width:1.0;" x1="63" x2="507" y1="119.4297" y2="119.4297"/><text fill="#000000" font-family="sans-serif" font-size="13" font-weight="bold" lengthAdjust="spacing" textLength="9" x="70" y="114.3638">1</text><text fill="#000000" font-family="sans-serif" font-size="13" lengthAdjust="spacing" textLength="169" x="83" y="114.3638">chooses to update a stock</text><polygon fill="#A80036" points="743,144.5625,753,148.5625,743,152.5625,747,148.5625" style="stroke:#A80036;stroke-width:1.0;"/><line style="stroke:#A80036;stroke-width:1.0;" x1="523" x2="749" y1="148.5625" y2="148.5625"/><text fill="#000000" font-family="sans-serif" font-size="13" font-weight="bold" lengthAdjust="spacing" textLength="9" x="530" y="143.4966">2</text><text fill="#000000" font-family="sans-serif" font-size="13" lengthAdjust="spacing" textLength="147" x="543" y="143.4966">pl = getPharmacyList()</text><polygon fill="#A80036" points="931,173.6953,941,177.6953,931,181.6953,935,177.6953" style="stroke:#A80036;stroke-width:1.0;"/><line style="stroke:#A80036;stroke-width:1.0;" x1="765" x2="937" y1="177.6953" y2="177.6953"/><text fill="#000000" font-family="sans-serif" font-size="13" font-weight="bold" lengthAdjust="spacing" textLength="8" x="772" y="172.6294">3</text><text fill="#000000" font-family="sans-serif" font-size="13" lengthAdjust="spacing" textLength="147" x="784" y="172.6294">pl = getPharmacyList()</text><polygon fill="#A80036" points="74,247.9609,64,251.9609,74,255.9609,70,251.9609" style="stroke:#A80036;stroke-width:1.0;"/><line style="stroke:#A80036;stroke-width:1.0;stroke-dasharray:2.0,2.0;" x1="68" x2="517" y1="251.9609" y2="251.9609"/><text fill="#000000" font-family="sans-serif" font-size="13" font-weight="bold" lengthAdjust="spacing" textLength="9" x="80" y="239.3286">4</text><text fill="#000000" font-family="sans-serif" font-size="13" lengthAdjust="spacing" textLength="350" x="93" y="231.7622">shows the list of pharmacy and asks the administrator</text><text fill="#000000" font-family="sans-serif" font-size="13" lengthAdjust="spacing" textLength="91" x="93" y="246.895">to choose one</text><polygon fill="#A80036" points="501,277.0938,511,281.0938,501,285.0938,505,281.0938" style="stroke:#A80036;stroke-width:1.0;"/><line style="stroke:#A80036;stroke-width:1.0;" x1="63" x2="507" y1="281.0938" y2="281.0938"/><text fill="#000000" font-family="sans-serif" font-size="13" font-weight="bold" lengthAdjust="spacing" textLength="9" x="70" y="276.0278">5</text><text fill="#000000" font-family="sans-serif" font-size="13" lengthAdjust="spacing" textLength="147" x="83" y="276.0278">chooses the pharmacy</text><polygon fill="#A80036" points="743,306.2266,753,310.2266,743,314.2266,747,310.2266" style="stroke:#A80036;stroke-width:1.0;"/><line style="stroke:#A80036;stroke-width:1.0;" x1="523" x2="749" y1="310.2266" y2="310.2266"/><text fill="#000000" font-family="sans-serif" font-size="13" font-weight="bold" lengthAdjust="spacing" textLength="9" x="530" y="305.1606">6</text><text fill="#000000" font-family="sans-serif" font-size="13" lengthAdjust="spacing" textLength="200" x="543" y="305.1606">p = getPharmacy(pharmacyID)</text><polygon fill="#A80036" points="1252.5,335.3594,1262.5,339.3594,1252.5,343.3594,1256.5,339.3594" style="stroke:#A80036;stroke-width:1.0;"/><line style="stroke:#A80036;stroke-width:1.0;" x1="760" x2="1258.5" y1="339.3594" y2="339.3594"/><text fill="#000000" font-family="sans-serif" font-size="13" font-weight="bold" lengthAdjust="spacing" textLength="9" x="767" y="334.2935">7</text><text fill="#000000" font-family="sans-serif" font-size="13" lengthAdjust="spacing" textLength="200" x="780" y="334.2935">p = getPharmacy(pharmacyID)</text><polygon fill="#A80036" points="743,364.4922,753,368.4922,743,372.4922,747,368.4922" style="stroke:#A80036;stroke-width:1.0;"/><line style="stroke:#A80036;stroke-width:1.0;" x1="523" x2="749" y1="368.4922" y2="368.4922"/><text fill="#000000" font-family="sans-serif" font-size="13" font-weight="bold" lengthAdjust="spacing" textLength="9" x="530" y="363.4263">8</text><text fill="#000000" font-family="sans-serif" font-size="13" lengthAdjust="spacing" textLength="136" x="543" y="363.4263">prl = getProductList()</text><polygon fill="#A80036" points="1368.5,393.625,1378.5,397.625,1368.5,401.625,1372.5,397.625" style="stroke:#A80036;stroke-width:1.0;"/><line style="stroke:#A80036;stroke-width:1.0;" x1="760" x2="1374.5" y1="397.625" y2="397.625"/><text fill="#000000" font-family="sans-serif" font-size="13" font-weight="bold" lengthAdjust="spacing" textLength="9" x="767" y="392.5591">9</text><text fill="#000000" font-family="sans-serif" font-size="13" lengthAdjust="spacing" textLength="136" x="780" y="392.5591">prl = getProductList()</text><polygon fill="#A80036" points="74,437.8906,64,441.8906,74,445.8906,70,441.8906" style="stroke:#A80036;stroke-width:1.0;"/><line style="stroke:#A80036;stroke-width:1.0;stroke-dasharray:2.0,2.0;" x1="68" x2="517" y1="441.8906" y2="441.8906"/><text fill="#000000" font-family="sans-serif" font-size="13" font-weight="bold" lengthAdjust="spacing" textLength="19" x="80" y="429.2583">10</text><text fill="#000000" font-family="sans-serif" font-size="13" lengthAdjust="spacing" textLength="341" x="103" y="421.6919">shows the list of products and asks the administrator</text><text fill="#000000" font-family="sans-serif" font-size="13" lengthAdjust="spacing" textLength="91" x="103" y="436.8247">to choose one</text><polygon fill="#A80036" points="501,467.0234,511,471.0234,501,475.0234,505,471.0234" style="stroke:#A80036;stroke-width:1.0;"/><line style="stroke:#A80036;stroke-width:1.0;" x1="63" x2="507" y1="471.0234" y2="471.0234"/><text fill="#000000" font-family="sans-serif" font-size="13" font-weight="bold" lengthAdjust="spacing" textLength="18" x="70" y="465.9575">11</text><text fill="#000000" font-family="sans-serif" font-size="13" lengthAdjust="spacing" textLength="110" x="92" y="465.9575">selects a product</text><polygon fill="#A80036" points="743,496.1563,753,500.1563,743,504.1563,747,500.1563" style="stroke:#A80036;stroke-width:1.0;"/><line style="stroke:#A80036;stroke-width:1.0;" x1="523" x2="749" y1="500.1563" y2="500.1563"/><text fill="#000000" font-family="sans-serif" font-size="13" font-weight="bold" lengthAdjust="spacing" textLength="18" x="530" y="495.0903">12</text><text fill="#000000" font-family="sans-serif" font-size="13" lengthAdjust="spacing" textLength="173" x="552" y="495.0903">pr = getProduct(productID)</text><polygon fill="#A80036" points="1036.5,525.2891,1046.5,529.2891,1036.5,533.2891,1040.5,529.2891" style="stroke:#A80036;stroke-width:1.0;"/><line style="stroke:#A80036;stroke-width:1.0;" x1="765" x2="1042.5" y1="529.2891" y2="529.2891"/><text fill="#000000" font-family="sans-serif" font-size="13" font-weight="bold" lengthAdjust="spacing" textLength="17" x="772" y="524.2231">13</text><text fill="#000000" font-family="sans-serif" font-size="13" lengthAdjust="spacing" textLength="173" x="793" y="524.2231">pr = getProduct(productID)</text><polygon fill="#A80036" points="74,599.5547,64,603.5547,74,607.5547,70,603.5547" style="stroke:#A80036;stroke-width:1.0;"/><line style="stroke:#A80036;stroke-width:1.0;stroke-dasharray:2.0,2.0;" x1="68" x2="517" y1="603.5547" y2="603.5547"/><text fill="#000000" font-family="sans-serif" font-size="13" font-weight="bold" lengthAdjust="spacing" textLength="18" x="80" y="590.9224">14</text><text fill="#000000" font-family="sans-serif" font-size="13" lengthAdjust="spacing" textLength="345" x="102" y="583.356">shows the product data and asks the administrator to</text><text fill="#000000" font-family="sans-serif" font-size="13" lengthAdjust="spacing" textLength="130" x="106" y="598.4888">insert the new stock</text><polygon fill="#A80036" points="501,628.6875,511,632.6875,501,636.6875,505,632.6875" style="stroke:#A80036;stroke-width:1.0;"/><line style="stroke:#A80036;stroke-width:1.0;" x1="63" x2="507" y1="632.6875" y2="632.6875"/><text fill="#000000" font-family="sans-serif" font-size="13" font-weight="bold" lengthAdjust="spacing" textLength="18" x="70" y="627.6216">15</text><text fill="#000000" font-family="sans-serif" font-size="13" lengthAdjust="spacing" textLength="137" x="92" y="627.6216">inserts the new stock</text><polygon fill="#A80036" points="743,657.8203,753,661.8203,743,665.8203,747,661.8203" style="stroke:#A80036;stroke-width:1.0;"/><line style="stroke:#A80036;stroke-width:1.0;" x1="523" x2="749" y1="661.8203" y2="661.8203"/><text fill="#000000" font-family="sans-serif" font-size="13" font-weight="bold" lengthAdjust="spacing" textLength="18" x="530" y="656.7544">16</text><text fill="#000000" font-family="sans-serif" font-size="13" lengthAdjust="spacing" textLength="99" x="552" y="656.7544">setStock(stock)</text><polygon fill="#A80036" points="1138.5,686.9531,1148.5,690.9531,1138.5,694.9531,1142.5,690.9531" style="stroke:#A80036;stroke-width:1.0;"/><line style="stroke:#A80036;stroke-width:1.0;" x1="765" x2="1144.5" y1="690.9531" y2="690.9531"/><text fill="#000000" font-family="sans-serif" font-size="13" font-weight="bold" lengthAdjust="spacing" textLength="18" x="772" y="685.8872">17</text><text fill="#000000" font-family="sans-serif" font-size="13" lengthAdjust="spacing" textLength="99" x="794" y="685.8872">setStock(stock)</text><polygon fill="#A80036" points="74,746.0859,64,750.0859,74,754.0859,70,750.0859" style="stroke:#A80036;stroke-width:1.0;"/><line style="stroke:#A80036;stroke-width:1.0;stroke-dasharray:2.0,2.0;" x1="68" x2="517" y1="750.0859" y2="750.0859"/><text fill="#000000" font-family="sans-serif" font-size="13" font-weight="bold" lengthAdjust="spacing" textLength="18" x="80" y="745.02">18</text><text fill="#000000" font-family="sans-serif" font-size="13" lengthAdjust="spacing" textLength="404" x="102" y="745.02">shows the value of the new stock for the product and confirms</text><!--MD5=[cf029cd11cb92d4b1ad25a97ee29d4c6]
@startuml
autonumber

actor "Administrator" as ADM
participant ":UpdateStockUI" as UI
participant ":UpdateStockController" as CTRL
participant ":Platform" as PLAT
participant "prl \n:ProductList" as PRL
participant "pr \n:Product" as PR
participant "pl \n:PharmacyList" as PL
participant "p \n:Pharmacy" as P

activate ADM
ADM -> UI :  chooses to update a stock
activate UI
UI -> CTRL : pl = getPharmacyList()
activate CTRL
CTRL -> PLAT : pl = getPharmacyList()
activate PLAT
deactivate PLAT
deactivate CTRL
UI - -> ADM : shows the list of pharmacy and asks the administrator\nto choose one
deactivate UI





ADM -> UI :  chooses the pharmacy
activate UI
UI -> CTRL : p = getPharmacy(pharmacyID)
activate CTRL
activate PL
CTRL -> PL : p = getPharmacy(pharmacyID)
deactivate PL
deactivate CTRL
UI -> CTRL : prl = getProductList()
activate CTRL
activate P
CTRL -> P : prl = getProductList()
deactivate P
deactivate CTRL
UI - -> ADM : shows the list of products and asks the administrator\nto choose one
deactivate UI


ADM -> UI : selects a product
activate UI
UI -> CTRL : pr = getProduct(productID)
activate CTRL
CTRL -> PRL : pr = getProduct(productID)
activate PRL
deactivate PRL
deactivate CTRL
UI - -> ADM : shows the product data and asks the administrator to\n insert the new stock
deactivate UI

ADM -> UI : inserts the new stock
activate UI
UI -> CTRL : setStock(stock)
activate CTRL
CTRL -> PR : setStock(stock)
activate PR
deactivate PR
deactivate CTRL
UI - -> ADM : shows the value of the new stock for the product and confirms
deactivate UI
@enduml

PlantUML version 1.2020.27beta7(Unknown compile time)
(GPL source distribution)
Java Runtime: Java(TM) SE Runtime Environment
JVM: Java HotSpot(TM) 64-Bit Server VM
Default Encoding: UTF-8
Language: en
Country: US
--></g></svg>