<?xml version="1.0" encoding="UTF-8" standalone="no"?><svg xmlns="http://www.w3.org/2000/svg" xmlns:xlink="http://www.w3.org/1999/xlink" contentScriptType="application/ecmascript" contentStyleType="text/css" height="982px" preserveAspectRatio="none" style="width:394px;height:982px;" version="1.1" viewBox="0 0 394 982" width="394px" zoomAndPan="magnify"><defs><filter height="300%" id="fdop93cf0sy7r" width="300%" x="-1" y="-1"><feGaussianBlur result="blurOut" stdDeviation="2.0"/><feColorMatrix in="blurOut" result="blurOut2" type="matrix" values="0 0 0 0 0 0 0 0 0 0 0 0 0 0 0 0 0 0 .4 0"/><feOffset dx="4.0" dy="4.0" in="blurOut2" result="blurOut3"/><feBlend in="SourceGraphic" in2="blurOut3" mode="normal"/></filter></defs><g><!--MD5=[9681dc6e01e10c6b4fe06895ae94f592]
cluster UI--><polygon fill="#FFFFFF" filter="url(#fdop93cf0sy7r)" points="84,6,106,6,113,28.2969,238,28.2969,238,105,84,105,84,6" style="stroke:#000000;stroke-width:1.5;"/><line style="stroke:#000000;stroke-width:1.5;" x1="84" x2="113" y1="28.2969" y2="28.2969"/><text fill="#000000" font-family="sans-serif" font-size="14" font-weight="bold" lengthAdjust="spacing" textLength="16" x="88" y="20.9951">UI</text><!--MD5=[ed1d20ea533a2a0e7df5ba3c35e56ced]
cluster Controllers--><polygon fill="#FFFFFF" filter="url(#fdop93cf0sy7r)" points="59,138,155,138,162,160.2969,263,160.2969,263,301,59,301,59,138" style="stroke:#000000;stroke-width:1.5;"/><line style="stroke:#000000;stroke-width:1.5;" x1="59" x2="162" y1="160.2969" y2="160.2969"/><text fill="#000000" font-family="sans-serif" font-size="14" font-weight="bold" lengthAdjust="spacing" textLength="90" x="63" y="152.9951">Controllers</text><!--MD5=[121a8bf1197281ab89ed693fab589f94]
cluster Domain--><polygon fill="#FFFFFF" filter="url(#fdop93cf0sy7r)" points="16,334,83,334,90,356.2969,377,356.2969,377,975,16,975,16,334" style="stroke:#000000;stroke-width:1.5;"/><line style="stroke:#000000;stroke-width:1.5;" x1="16" x2="90" y1="356.2969" y2="356.2969"/><text fill="#000000" font-family="sans-serif" font-size="14" font-weight="bold" lengthAdjust="spacing" textLength="61" x="20" y="348.9951">Domain</text><!--MD5=[00e41c70c532c088ad3dba65c49ffd48]
class UpdateStockUI--><rect codeLine="19" fill="#FEFECE" filter="url(#fdop93cf0sy7r)" height="48" id="UpdateStockUI" style="stroke:#A80036;stroke-width:1.5;" width="122" x="100" y="41"/><ellipse cx="115" cy="57" fill="#ADD1B2" rx="11" ry="11" style="stroke:#A80036;stroke-width:1.0;"/><path d="M117.3438,52.6719 C116.4063,52.2344 115.8125,52.0938 114.9375,52.0938 C112.3125,52.0938 110.3125,54.1719 110.3125,56.8906 L110.3125,58.0156 C110.3125,60.5938 112.4219,62.4844 115.3125,62.4844 C116.5313,62.4844 117.6875,62.1875 118.4375,61.6406 C119.0156,61.2344 119.3438,60.7813 119.3438,60.3906 C119.3438,59.9375 118.9531,59.5469 118.4844,59.5469 C118.2656,59.5469 118.0625,59.625 117.875,59.8125 C117.4219,60.2969 117.4219,60.2969 117.2344,60.3906 C116.8125,60.6563 116.125,60.7813 115.3594,60.7813 C113.3125,60.7813 112.0156,59.6875 112.0156,57.9844 L112.0156,56.8906 C112.0156,55.1094 113.2656,53.7969 115,53.7969 C115.5781,53.7969 116.1875,53.9531 116.6563,54.2031 C117.1406,54.4844 117.3125,54.7031 117.4063,55.1094 C117.4688,55.5156 117.5,55.6406 117.6406,55.7656 C117.7813,55.9063 118.0156,56.0156 118.2344,56.0156 C118.5,56.0156 118.7656,55.875 118.9375,55.6563 C119.0469,55.5 119.0781,55.3125 119.0781,54.8906 L119.0781,53.4688 C119.0781,53.0313 119.0625,52.9063 118.9688,52.75 C118.8125,52.4844 118.5313,52.3438 118.2344,52.3438 C117.9375,52.3438 117.7344,52.4375 117.5156,52.75 L117.3438,52.6719 Z " fill="#000000"/><text fill="#000000" font-family="sans-serif" font-size="12" lengthAdjust="spacing" textLength="90" x="129" y="61.1543">UpdateStockUI</text><line style="stroke:#A80036;stroke-width:1.5;" x1="101" x2="221" y1="73" y2="73"/><line style="stroke:#A80036;stroke-width:1.5;" x1="101" x2="221" y1="81" y2="81"/><!--MD5=[276f449c80b2a68bff9836b14ae93703]
class UpdateStockController--><rect codeLine="22" fill="#FEFECE" filter="url(#fdop93cf0sy7r)" height="112.0234" id="UpdateStockController" style="stroke:#A80036;stroke-width:1.5;" width="171" x="75.5" y="173"/><ellipse cx="91.4" cy="189" fill="#ADD1B2" rx="11" ry="11" style="stroke:#A80036;stroke-width:1.0;"/><path d="M93.7438,184.6719 C92.8063,184.2344 92.2125,184.0938 91.3375,184.0938 C88.7125,184.0938 86.7125,186.1719 86.7125,188.8906 L86.7125,190.0156 C86.7125,192.5938 88.8219,194.4844 91.7125,194.4844 C92.9313,194.4844 94.0875,194.1875 94.8375,193.6406 C95.4156,193.2344 95.7438,192.7813 95.7438,192.3906 C95.7438,191.9375 95.3531,191.5469 94.8844,191.5469 C94.6656,191.5469 94.4625,191.625 94.275,191.8125 C93.8219,192.2969 93.8219,192.2969 93.6344,192.3906 C93.2125,192.6563 92.525,192.7813 91.7594,192.7813 C89.7125,192.7813 88.4156,191.6875 88.4156,189.9844 L88.4156,188.8906 C88.4156,187.1094 89.6656,185.7969 91.4,185.7969 C91.9781,185.7969 92.5875,185.9531 93.0563,186.2031 C93.5406,186.4844 93.7125,186.7031 93.8063,187.1094 C93.8688,187.5156 93.9,187.6406 94.0406,187.7656 C94.1813,187.9063 94.4156,188.0156 94.6344,188.0156 C94.9,188.0156 95.1656,187.875 95.3375,187.6563 C95.4469,187.5 95.4781,187.3125 95.4781,186.8906 L95.4781,185.4688 C95.4781,185.0313 95.4625,184.9063 95.3688,184.75 C95.2125,184.4844 94.9313,184.3438 94.6344,184.3438 C94.3375,184.3438 94.1344,184.4375 93.9156,184.75 L93.7438,184.6719 Z " fill="#000000"/><text fill="#000000" font-family="sans-serif" font-size="12" lengthAdjust="spacing" textLength="137" x="105.6" y="193.1543">UpdateStockController</text><line style="stroke:#A80036;stroke-width:1.5;" x1="76.5" x2="245.5" y1="205" y2="205"/><line style="stroke:#A80036;stroke-width:1.5;" x1="76.5" x2="245.5" y1="213" y2="213"/><text fill="#000000" font-family="sans-serif" font-size="11" lengthAdjust="spacing" textLength="110" x="81.5" y="227.2104">+getPharmacyList()</text><text fill="#000000" font-family="sans-serif" font-size="11" lengthAdjust="spacing" textLength="159" x="81.5" y="240.0151">+getPharmacy(pharmacyID)</text><text fill="#000000" font-family="sans-serif" font-size="11" lengthAdjust="spacing" textLength="96" x="81.5" y="252.8198">+getProductList()</text><text fill="#000000" font-family="sans-serif" font-size="11" lengthAdjust="spacing" textLength="131" x="81.5" y="265.6245">+getProduct(productID)</text><text fill="#000000" font-family="sans-serif" font-size="11" lengthAdjust="spacing" textLength="95" x="81.5" y="278.4292">+setStock(stock)</text><!--MD5=[99b8db98afdc2c8404e39242ef4c1e65]
class Platform--><rect codeLine="30" fill="#FEFECE" filter="url(#fdop93cf0sy7r)" height="60.8047" id="Platform" style="stroke:#A80036;stroke-width:1.5;" width="122" x="32" y="369"/><ellipse cx="65.9" cy="385" fill="#ADD1B2" rx="11" ry="11" style="stroke:#A80036;stroke-width:1.0;"/><path d="M68.2438,380.6719 C67.3063,380.2344 66.7125,380.0938 65.8375,380.0938 C63.2125,380.0938 61.2125,382.1719 61.2125,384.8906 L61.2125,386.0156 C61.2125,388.5938 63.3219,390.4844 66.2125,390.4844 C67.4313,390.4844 68.5875,390.1875 69.3375,389.6406 C69.9156,389.2344 70.2438,388.7813 70.2438,388.3906 C70.2438,387.9375 69.8531,387.5469 69.3844,387.5469 C69.1656,387.5469 68.9625,387.625 68.775,387.8125 C68.3219,388.2969 68.3219,388.2969 68.1344,388.3906 C67.7125,388.6563 67.025,388.7813 66.2594,388.7813 C64.2125,388.7813 62.9156,387.6875 62.9156,385.9844 L62.9156,384.8906 C62.9156,383.1094 64.1656,381.7969 65.9,381.7969 C66.4781,381.7969 67.0875,381.9531 67.5563,382.2031 C68.0406,382.4844 68.2125,382.7031 68.3063,383.1094 C68.3688,383.5156 68.4,383.6406 68.5406,383.7656 C68.6813,383.9063 68.9156,384.0156 69.1344,384.0156 C69.4,384.0156 69.6656,383.875 69.8375,383.6563 C69.9469,383.5 69.9781,383.3125 69.9781,382.8906 L69.9781,381.4688 C69.9781,381.0313 69.9625,380.9063 69.8688,380.75 C69.7125,380.4844 69.4313,380.3438 69.1344,380.3438 C68.8375,380.3438 68.6344,380.4375 68.4156,380.75 L68.2438,380.6719 Z " fill="#000000"/><text fill="#000000" font-family="sans-serif" font-size="12" lengthAdjust="spacing" textLength="48" x="84.1" y="389.1543">Platform</text><line style="stroke:#A80036;stroke-width:1.5;" x1="33" x2="153" y1="401" y2="401"/><line style="stroke:#A80036;stroke-width:1.5;" x1="33" x2="153" y1="409" y2="409"/><text fill="#000000" font-family="sans-serif" font-size="11" lengthAdjust="spacing" textLength="110" x="38" y="423.2104">+getPharmacyList()</text><!--MD5=[72136138052d025cffdce3c22fbd185f]
class Product--><rect codeLine="34" fill="#FEFECE" filter="url(#fdop93cf0sy7r)" height="112.0234" id="Product" style="stroke:#A80036;stroke-width:1.5;" width="107" x="221.5" y="847"/><ellipse cx="250" cy="863" fill="#ADD1B2" rx="11" ry="11" style="stroke:#A80036;stroke-width:1.0;"/><path d="M252.3438,858.6719 C251.4063,858.2344 250.8125,858.0938 249.9375,858.0938 C247.3125,858.0938 245.3125,860.1719 245.3125,862.8906 L245.3125,864.0156 C245.3125,866.5938 247.4219,868.4844 250.3125,868.4844 C251.5313,868.4844 252.6875,868.1875 253.4375,867.6406 C254.0156,867.2344 254.3438,866.7813 254.3438,866.3906 C254.3438,865.9375 253.9531,865.5469 253.4844,865.5469 C253.2656,865.5469 253.0625,865.625 252.875,865.8125 C252.4219,866.2969 252.4219,866.2969 252.2344,866.3906 C251.8125,866.6563 251.125,866.7813 250.3594,866.7813 C248.3125,866.7813 247.0156,865.6875 247.0156,863.9844 L247.0156,862.8906 C247.0156,861.1094 248.2656,859.7969 250,859.7969 C250.5781,859.7969 251.1875,859.9531 251.6563,860.2031 C252.1406,860.4844 252.3125,860.7031 252.4063,861.1094 C252.4688,861.5156 252.5,861.6406 252.6406,861.7656 C252.7813,861.9063 253.0156,862.0156 253.2344,862.0156 C253.5,862.0156 253.7656,861.875 253.9375,861.6563 C254.0469,861.5 254.0781,861.3125 254.0781,860.8906 L254.0781,859.4688 C254.0781,859.0313 254.0625,858.9063 253.9688,858.75 C253.8125,858.4844 253.5313,858.3438 253.2344,858.3438 C252.9375,858.3438 252.7344,858.4375 252.5156,858.75 L252.3438,858.6719 Z " fill="#000000"/><text fill="#000000" font-family="sans-serif" font-size="12" lengthAdjust="spacing" textLength="45" x="267" y="867.1543">Product</text><line style="stroke:#A80036;stroke-width:1.5;" x1="222.5" x2="327.5" y1="879" y2="879"/><text fill="#000000" font-family="sans-serif" font-size="11" lengthAdjust="spacing" textLength="51" x="227.5" y="893.2104">-String id</text><text fill="#000000" font-family="sans-serif" font-size="11" lengthAdjust="spacing" textLength="74" x="227.5" y="906.0151">-String nome</text><text fill="#000000" font-family="sans-serif" font-size="11" lengthAdjust="spacing" textLength="61" x="227.5" y="918.8198">-float price</text><text fill="#000000" font-family="sans-serif" font-size="11" lengthAdjust="spacing" textLength="71" x="227.5" y="931.6245">-float weight</text><line style="stroke:#A80036;stroke-width:1.5;" x1="222.5" x2="327.5" y1="938.2188" y2="938.2188"/><text fill="#000000" font-family="sans-serif" font-size="11" lengthAdjust="spacing" textLength="95" x="227.5" y="952.4292">+setStock(stock)</text><!--MD5=[8050ef462d77cf220fd706493bc05cc9]
class PharmacyList--><rect codeLine="51" fill="#FEFECE" filter="url(#fdop93cf0sy7r)" height="60.8047" id="PharmacyList" style="stroke:#A80036;stroke-width:1.5;" width="171" x="189.5" y="369"/><ellipse cx="232.4" cy="385" fill="#ADD1B2" rx="11" ry="11" style="stroke:#A80036;stroke-width:1.0;"/><path d="M234.7438,380.6719 C233.8063,380.2344 233.2125,380.0938 232.3375,380.0938 C229.7125,380.0938 227.7125,382.1719 227.7125,384.8906 L227.7125,386.0156 C227.7125,388.5938 229.8219,390.4844 232.7125,390.4844 C233.9313,390.4844 235.0875,390.1875 235.8375,389.6406 C236.4156,389.2344 236.7438,388.7813 236.7438,388.3906 C236.7438,387.9375 236.3531,387.5469 235.8844,387.5469 C235.6656,387.5469 235.4625,387.625 235.275,387.8125 C234.8219,388.2969 234.8219,388.2969 234.6344,388.3906 C234.2125,388.6563 233.525,388.7813 232.7594,388.7813 C230.7125,388.7813 229.4156,387.6875 229.4156,385.9844 L229.4156,384.8906 C229.4156,383.1094 230.6656,381.7969 232.4,381.7969 C232.9781,381.7969 233.5875,381.9531 234.0563,382.2031 C234.5406,382.4844 234.7125,382.7031 234.8063,383.1094 C234.8688,383.5156 234.9,383.6406 235.0406,383.7656 C235.1813,383.9063 235.4156,384.0156 235.6344,384.0156 C235.9,384.0156 236.1656,383.875 236.3375,383.6563 C236.4469,383.5 236.4781,383.3125 236.4781,382.8906 L236.4781,381.4688 C236.4781,381.0313 236.4625,380.9063 236.3688,380.75 C236.2125,380.4844 235.9313,380.3438 235.6344,380.3438 C235.3375,380.3438 235.1344,380.4375 234.9156,380.75 L234.7438,380.6719 Z " fill="#000000"/><text fill="#000000" font-family="sans-serif" font-size="12" lengthAdjust="spacing" textLength="77" x="252.6" y="389.1543">PharmacyList</text><line style="stroke:#A80036;stroke-width:1.5;" x1="190.5" x2="359.5" y1="401" y2="401"/><line style="stroke:#A80036;stroke-width:1.5;" x1="190.5" x2="359.5" y1="409" y2="409"/><text fill="#000000" font-family="sans-serif" font-size="11" lengthAdjust="spacing" textLength="159" x="195.5" y="423.2104">+getPharmacy(pharmacyID)</text><!--MD5=[7f2a9fafcebe4f099f71398fd3e2ed00]
class Pharmacy--><rect codeLine="42" fill="#FEFECE" filter="url(#fdop93cf0sy7r)" height="124.8281" id="Pharmacy" style="stroke:#A80036;stroke-width:1.5;" width="119" x="215.5" y="507"/><ellipse cx="244" cy="523" fill="#ADD1B2" rx="11" ry="11" style="stroke:#A80036;stroke-width:1.0;"/><path d="M246.3438,518.6719 C245.4063,518.2344 244.8125,518.0938 243.9375,518.0938 C241.3125,518.0938 239.3125,520.1719 239.3125,522.8906 L239.3125,524.0156 C239.3125,526.5938 241.4219,528.4844 244.3125,528.4844 C245.5313,528.4844 246.6875,528.1875 247.4375,527.6406 C248.0156,527.2344 248.3438,526.7813 248.3438,526.3906 C248.3438,525.9375 247.9531,525.5469 247.4844,525.5469 C247.2656,525.5469 247.0625,525.625 246.875,525.8125 C246.4219,526.2969 246.4219,526.2969 246.2344,526.3906 C245.8125,526.6563 245.125,526.7813 244.3594,526.7813 C242.3125,526.7813 241.0156,525.6875 241.0156,523.9844 L241.0156,522.8906 C241.0156,521.1094 242.2656,519.7969 244,519.7969 C244.5781,519.7969 245.1875,519.9531 245.6563,520.2031 C246.1406,520.4844 246.3125,520.7031 246.4063,521.1094 C246.4688,521.5156 246.5,521.6406 246.6406,521.7656 C246.7813,521.9063 247.0156,522.0156 247.2344,522.0156 C247.5,522.0156 247.7656,521.875 247.9375,521.6563 C248.0469,521.5 248.0781,521.3125 248.0781,520.8906 L248.0781,519.4688 C248.0781,519.0313 248.0625,518.9063 247.9688,518.75 C247.8125,518.4844 247.5313,518.3438 247.2344,518.3438 C246.9375,518.3438 246.7344,518.4375 246.5156,518.75 L246.3438,518.6719 Z " fill="#000000"/><text fill="#000000" font-family="sans-serif" font-size="12" lengthAdjust="spacing" textLength="57" x="261" y="527.1543">Pharmacy</text><line style="stroke:#A80036;stroke-width:1.5;" x1="216.5" x2="333.5" y1="539" y2="539"/><text fill="#000000" font-family="sans-serif" font-size="11" lengthAdjust="spacing" textLength="51" x="221.5" y="553.2104">-String id</text><text fill="#000000" font-family="sans-serif" font-size="11" lengthAdjust="spacing" textLength="107" x="221.5" y="566.0151">-String designation</text><text fill="#000000" font-family="sans-serif" font-size="11" lengthAdjust="spacing" textLength="73" x="221.5" y="578.8198">-String email</text><text fill="#000000" font-family="sans-serif" font-size="11" lengthAdjust="spacing" textLength="85" x="221.5" y="591.6245">-Adress adress</text><text fill="#000000" font-family="sans-serif" font-size="11" lengthAdjust="spacing" textLength="100" x="221.5" y="604.4292">-Integer parkLimit</text><line style="stroke:#A80036;stroke-width:1.5;" x1="216.5" x2="333.5" y1="611.0234" y2="611.0234"/><text fill="#000000" font-family="sans-serif" font-size="11" lengthAdjust="spacing" textLength="96" x="221.5" y="625.2339">+getProductList()</text><!--MD5=[44262eafef82e22c9662f871d8bd43ff]
class ProductList--><rect codeLine="55" fill="#FEFECE" filter="url(#fdop93cf0sy7r)" height="60.8047" id="ProductList" style="stroke:#A80036;stroke-width:1.5;" width="143" x="203.5" y="709"/><ellipse cx="239.2" cy="725" fill="#ADD1B2" rx="11" ry="11" style="stroke:#A80036;stroke-width:1.0;"/><path d="M241.5438,720.6719 C240.6063,720.2344 240.0125,720.0938 239.1375,720.0938 C236.5125,720.0938 234.5125,722.1719 234.5125,724.8906 L234.5125,726.0156 C234.5125,728.5938 236.6219,730.4844 239.5125,730.4844 C240.7313,730.4844 241.8875,730.1875 242.6375,729.6406 C243.2156,729.2344 243.5438,728.7813 243.5438,728.3906 C243.5438,727.9375 243.1531,727.5469 242.6844,727.5469 C242.4656,727.5469 242.2625,727.625 242.075,727.8125 C241.6219,728.2969 241.6219,728.2969 241.4344,728.3906 C241.0125,728.6563 240.325,728.7813 239.5594,728.7813 C237.5125,728.7813 236.2156,727.6875 236.2156,725.9844 L236.2156,724.8906 C236.2156,723.1094 237.4656,721.7969 239.2,721.7969 C239.7781,721.7969 240.3875,721.9531 240.8563,722.2031 C241.3406,722.4844 241.5125,722.7031 241.6063,723.1094 C241.6688,723.5156 241.7,723.6406 241.8406,723.7656 C241.9813,723.9063 242.2156,724.0156 242.4344,724.0156 C242.7,724.0156 242.9656,723.875 243.1375,723.6563 C243.2469,723.5 243.2781,723.3125 243.2781,722.8906 L243.2781,721.4688 C243.2781,721.0313 243.2625,720.9063 243.1688,720.75 C243.0125,720.4844 242.7313,720.3438 242.4344,720.3438 C242.1375,720.3438 241.9344,720.4375 241.7156,720.75 L241.5438,720.6719 Z " fill="#000000"/><text fill="#000000" font-family="sans-serif" font-size="12" lengthAdjust="spacing" textLength="65" x="257.8" y="729.1543">ProductList</text><line style="stroke:#A80036;stroke-width:1.5;" x1="204.5" x2="345.5" y1="741" y2="741"/><line style="stroke:#A80036;stroke-width:1.5;" x1="204.5" x2="345.5" y1="749" y2="749"/><text fill="#000000" font-family="sans-serif" font-size="11" lengthAdjust="spacing" textLength="131" x="209.5" y="763.2104">+getProduct(productID)</text><!--MD5=[3f161ddef67542c5c7567282e3f8e548]
link UpdateStockUI to UpdateStockController--><path codeLine="59" d="M161,89.211 C161,109.637 161,140.293 161,167.602 " fill="none" id="UpdateStockUI-to-UpdateStockController" style="stroke:#A80036;stroke-width:1.0;stroke-dasharray:7.0,7.0;"/><polygon fill="#A80036" points="161,172.659,165,163.659,161,167.659,157,163.659,161,172.659" style="stroke:#A80036;stroke-width:1.0;"/><!--MD5=[44c62999cd2b77985ca92c243b8494c5]
link UpdateStockController to Platform--><path codeLine="61" d="M138.734,285.173 C128.247,311.159 116.063,341.351 106.909,364.035 " fill="none" id="UpdateStockController-to-Platform" style="stroke:#A80036;stroke-width:1.0;stroke-dasharray:7.0,7.0;"/><polygon fill="#A80036" points="105.003,368.757,112.0805,361.908,106.8742,364.1204,104.6619,358.9141,105.003,368.757" style="stroke:#A80036;stroke-width:1.0;"/><!--MD5=[860cb86ca627b0ecefd5e7b7df37d207]
link UpdateStockController to PharmacyList--><path codeLine="62" d="M198.328,285.173 C216.056,311.376 236.678,341.857 252.067,364.603 " fill="none" id="UpdateStockController-to-PharmacyList" style="stroke:#A80036;stroke-width:1.0;stroke-dasharray:7.0,7.0;"/><polygon fill="#A80036" points="254.877,368.757,253.1453,359.0616,252.0746,364.6162,246.52,363.5455,254.877,368.757" style="stroke:#A80036;stroke-width:1.0;"/><!--MD5=[dcb9e7f24fda9389b72d4bf35ba5a068]
link PharmacyList to Pharmacy--><path codeLine="64" d="M275,430.148 C275,451.343 275,480.628 275,506.799 " fill="none" id="PharmacyList-Pharmacy" style="stroke:#A80036;stroke-width:1.0;"/><text fill="#000000" font-family="sans-serif" font-size="13" lengthAdjust="spacing" textLength="33" x="276" y="473.0669">has&gt;</text><text fill="#000000" font-family="sans-serif" font-size="13" lengthAdjust="spacing" textLength="8" x="266.2125" y="449.7576">1</text><text fill="#000000" font-family="sans-serif" font-size="13" lengthAdjust="spacing" textLength="23" x="250.6703" y="495.7665">1..*</text><!--MD5=[da7a88b3261d7b5c096a3d384c8541e6]
link ProductList to Product--><path codeLine="65" d="M275,770.122 C275,791.521 275,821.059 275,846.756 " fill="none" id="ProductList-Product" style="stroke:#A80036;stroke-width:1.0;"/><text fill="#000000" font-family="sans-serif" font-size="13" lengthAdjust="spacing" textLength="33" x="276" y="813.0669">has&gt;</text><text fill="#000000" font-family="sans-serif" font-size="13" lengthAdjust="spacing" textLength="8" x="266.175" y="790.0854">1</text><text fill="#000000" font-family="sans-serif" font-size="13" lengthAdjust="spacing" textLength="23" x="250.5984" y="836.0608">1..*</text><!--MD5=[92b8f75a2639539bed747d3dbb9f2876]
link Pharmacy to ProductList--><path codeLine="66" d="M275,632.103 C275,658.324 275,687.686 275,708.912 " fill="none" id="Pharmacy-ProductList" style="stroke:#A80036;stroke-width:1.0;"/><text fill="#000000" font-family="sans-serif" font-size="13" lengthAdjust="spacing" textLength="33" x="276" y="675.0669">has&gt;</text><text fill="#000000" font-family="sans-serif" font-size="13" lengthAdjust="spacing" textLength="8" x="266.5625" y="651.8541">1</text><text fill="#000000" font-family="sans-serif" font-size="13" lengthAdjust="spacing" textLength="8" x="266.175" y="698.1571">1</text><!--MD5=[c8ecb7e8bc2d514aa5fd78b1df91e62b]
@startuml
skinparam classAttributeIconSize 0

package UI <<Folder>> {
  class UpdateStockUI
}

package Controllers <<Folder>> {
  class UpdateStockController
}

package Domain <<Folder>> {
  class Platform
  class Product
  class PharmacyList
  class Pharmacy
  class ProductList
}

class UpdateStockUI {
}

class UpdateStockController {
  +getPharmacyList()
  +getPharmacy(pharmacyID)
  +getProductList()
  +getProduct(productID)
  +setStock(stock)
}

class Platform {
  +getPharmacyList()
}

class Product {
  -String id
  -String nome
  -float price
  -float weight
  +setStock(stock)
}

class Pharmacy {
  -String id
  -String designation
  -String email
  -Adress adress
  -Integer parkLimit
  +getProductList()
}

class PharmacyList{
  +getPharmacy(pharmacyID)
}

class ProductList{
  +getProduct(productID)
}

UpdateStockUI ..> UpdateStockController

UpdateStockController ..> Platform
UpdateStockController ..> PharmacyList

PharmacyList"1" - - "1..*" Pharmacy : has>
ProductList"1" - - "1..*" Product : has>
Pharmacy"1" - - "1" ProductList : has>
@enduml

PlantUML version 1.2020.27beta7(Unknown compile time)
(GPL source distribution)
Java Runtime: Java(TM) SE Runtime Environment
JVM: Java HotSpot(TM) 64-Bit Server VM
Default Encoding: UTF-8
Language: en
Country: US
--></g></svg>