<?xml version="1.0" encoding="UTF-8" standalone="no"?><svg xmlns="http://www.w3.org/2000/svg" xmlns:xlink="http://www.w3.org/1999/xlink" contentScriptType="application/ecmascript" contentStyleType="text/css" height="125px" preserveAspectRatio="none" style="width:564px;height:125px;" version="1.1" viewBox="0 0 564 125" width="564px" zoomAndPan="magnify"><defs><filter height="300%" id="fzl53d7bwvh60" width="300%" x="-1" y="-1"><feGaussianBlur result="blurOut" stdDeviation="2.0"/><feColorMatrix in="blurOut" result="blurOut2" type="matrix" values="0 0 0 0 0 0 0 0 0 0 0 0 0 0 0 0 0 0 .4 0"/><feOffset dx="4.0" dy="4.0" in="blurOut2" result="blurOut3"/><feBlend in="SourceGraphic" in2="blurOut3" mode="normal"/></filter></defs><g><!--MD5=[99b8db98afdc2c8404e39242ef4c1e65]
class Platform--><rect codeLine="6" fill="#FEFECE" filter="url(#fzl53d7bwvh60)" height="40" id="Platform" style="stroke:#A80036;stroke-width:1.5;" width="80" x="7" y="39"/><ellipse cx="22" cy="55" fill="#ADD1B2" rx="11" ry="11" style="stroke:#A80036;stroke-width:1.0;"/><path d="M24.3438,50.6719 C23.4063,50.2344 22.8125,50.0938 21.9375,50.0938 C19.3125,50.0938 17.3125,52.1719 17.3125,54.8906 L17.3125,56.0156 C17.3125,58.5938 19.4219,60.4844 22.3125,60.4844 C23.5313,60.4844 24.6875,60.1875 25.4375,59.6406 C26.0156,59.2344 26.3438,58.7813 26.3438,58.3906 C26.3438,57.9375 25.9531,57.5469 25.4844,57.5469 C25.2656,57.5469 25.0625,57.625 24.875,57.8125 C24.4219,58.2969 24.4219,58.2969 24.2344,58.3906 C23.8125,58.6563 23.125,58.7813 22.3594,58.7813 C20.3125,58.7813 19.0156,57.6875 19.0156,55.9844 L19.0156,54.8906 C19.0156,53.1094 20.2656,51.7969 22,51.7969 C22.5781,51.7969 23.1875,51.9531 23.6563,52.2031 C24.1406,52.4844 24.3125,52.7031 24.4063,53.1094 C24.4688,53.5156 24.5,53.6406 24.6406,53.7656 C24.7813,53.9063 25.0156,54.0156 25.2344,54.0156 C25.5,54.0156 25.7656,53.875 25.9375,53.6563 C26.0469,53.5 26.0781,53.3125 26.0781,52.8906 L26.0781,51.4688 C26.0781,51.0313 26.0625,50.9063 25.9688,50.75 C25.8125,50.4844 25.5313,50.3438 25.2344,50.3438 C24.9375,50.3438 24.7344,50.4375 24.5156,50.75 L24.3438,50.6719 Z " fill="#000000"/><text fill="#000000" font-family="sans-serif" font-size="12" lengthAdjust="spacing" textLength="48" x="36" y="59.1543">Platform</text><line style="stroke:#A80036;stroke-width:1.5;" x1="8" x2="86" y1="71" y2="71"/><!--MD5=[7f2a9fafcebe4f099f71398fd3e2ed00]
class Pharmacy--><rect codeLine="9" fill="#FEFECE" filter="url(#fzl53d7bwvh60)" height="104.0234" id="Pharmacy" style="stroke:#A80036;stroke-width:1.5;" width="119" x="216" y="7"/><ellipse cx="244.5" cy="23" fill="#ADD1B2" rx="11" ry="11" style="stroke:#A80036;stroke-width:1.0;"/><path d="M246.8438,18.6719 C245.9063,18.2344 245.3125,18.0938 244.4375,18.0938 C241.8125,18.0938 239.8125,20.1719 239.8125,22.8906 L239.8125,24.0156 C239.8125,26.5938 241.9219,28.4844 244.8125,28.4844 C246.0313,28.4844 247.1875,28.1875 247.9375,27.6406 C248.5156,27.2344 248.8438,26.7813 248.8438,26.3906 C248.8438,25.9375 248.4531,25.5469 247.9844,25.5469 C247.7656,25.5469 247.5625,25.625 247.375,25.8125 C246.9219,26.2969 246.9219,26.2969 246.7344,26.3906 C246.3125,26.6563 245.625,26.7813 244.8594,26.7813 C242.8125,26.7813 241.5156,25.6875 241.5156,23.9844 L241.5156,22.8906 C241.5156,21.1094 242.7656,19.7969 244.5,19.7969 C245.0781,19.7969 245.6875,19.9531 246.1563,20.2031 C246.6406,20.4844 246.8125,20.7031 246.9063,21.1094 C246.9688,21.5156 247,21.6406 247.1406,21.7656 C247.2813,21.9063 247.5156,22.0156 247.7344,22.0156 C248,22.0156 248.2656,21.875 248.4375,21.6563 C248.5469,21.5 248.5781,21.3125 248.5781,20.8906 L248.5781,19.4688 C248.5781,19.0313 248.5625,18.9063 248.4688,18.75 C248.3125,18.4844 248.0313,18.3438 247.7344,18.3438 C247.4375,18.3438 247.2344,18.4375 247.0156,18.75 L246.8438,18.6719 Z " fill="#000000"/><text fill="#000000" font-family="sans-serif" font-size="12" lengthAdjust="spacing" textLength="57" x="261.5" y="27.1543">Pharmacy</text><line style="stroke:#A80036;stroke-width:1.5;" x1="217" x2="334" y1="39" y2="39"/><text fill="#000000" font-family="sans-serif" font-size="11" lengthAdjust="spacing" textLength="51" x="222" y="53.2104">-String id</text><text fill="#000000" font-family="sans-serif" font-size="11" lengthAdjust="spacing" textLength="107" x="222" y="66.0151">-String designation</text><text fill="#000000" font-family="sans-serif" font-size="11" lengthAdjust="spacing" textLength="73" x="222" y="78.8198">-String email</text><text fill="#000000" font-family="sans-serif" font-size="11" lengthAdjust="spacing" textLength="85" x="222" y="91.6245">-Adress adress</text><text fill="#000000" font-family="sans-serif" font-size="11" lengthAdjust="spacing" textLength="100" x="222" y="104.4292">-Integer parkLimit</text><!--MD5=[72136138052d025cffdce3c22fbd185f]
class Product--><rect codeLine="17" fill="#FEFECE" filter="url(#fzl53d7bwvh60)" height="91.2188" id="Product" style="stroke:#A80036;stroke-width:1.5;" width="86" x="464" y="13.5"/><ellipse cx="483.05" cy="29.5" fill="#ADD1B2" rx="11" ry="11" style="stroke:#A80036;stroke-width:1.0;"/><path d="M485.3938,25.1719 C484.4563,24.7344 483.8625,24.5938 482.9875,24.5938 C480.3625,24.5938 478.3625,26.6719 478.3625,29.3906 L478.3625,30.5156 C478.3625,33.0938 480.4719,34.9844 483.3625,34.9844 C484.5813,34.9844 485.7375,34.6875 486.4875,34.1406 C487.0656,33.7344 487.3938,33.2813 487.3938,32.8906 C487.3938,32.4375 487.0031,32.0469 486.5344,32.0469 C486.3156,32.0469 486.1125,32.125 485.925,32.3125 C485.4719,32.7969 485.4719,32.7969 485.2844,32.8906 C484.8625,33.1563 484.175,33.2813 483.4094,33.2813 C481.3625,33.2813 480.0656,32.1875 480.0656,30.4844 L480.0656,29.3906 C480.0656,27.6094 481.3156,26.2969 483.05,26.2969 C483.6281,26.2969 484.2375,26.4531 484.7063,26.7031 C485.1906,26.9844 485.3625,27.2031 485.4563,27.6094 C485.5188,28.0156 485.55,28.1406 485.6906,28.2656 C485.8313,28.4063 486.0656,28.5156 486.2844,28.5156 C486.55,28.5156 486.8156,28.375 486.9875,28.1563 C487.0969,28 487.1281,27.8125 487.1281,27.3906 L487.1281,25.9688 C487.1281,25.5313 487.1125,25.4063 487.0188,25.25 C486.8625,24.9844 486.5813,24.8438 486.2844,24.8438 C485.9875,24.8438 485.7844,24.9375 485.5656,25.25 L485.3938,25.1719 Z " fill="#000000"/><text fill="#000000" font-family="sans-serif" font-size="12" lengthAdjust="spacing" textLength="45" x="497.95" y="33.6543">Product</text><line style="stroke:#A80036;stroke-width:1.5;" x1="465" x2="549" y1="45.5" y2="45.5"/><text fill="#000000" font-family="sans-serif" font-size="11" lengthAdjust="spacing" textLength="51" x="470" y="59.7104">-String id</text><text fill="#000000" font-family="sans-serif" font-size="11" lengthAdjust="spacing" textLength="74" x="470" y="72.5151">-String name</text><text fill="#000000" font-family="sans-serif" font-size="11" lengthAdjust="spacing" textLength="61" x="470" y="85.3198">-float price</text><text fill="#000000" font-family="sans-serif" font-size="11" lengthAdjust="spacing" textLength="71" x="470" y="98.1245">-float weight</text><!--MD5=[4a07f137c208f82f57837154e1cfa51e]
link Platform to Pharmacy--><path codeLine="25" d="M87.1947,59 C122.647,59 175.341,59 215.816,59 " fill="none" id="Platform-Pharmacy" style="stroke:#A80036;stroke-width:1.0;"/><polygon fill="#000000" points="127,50.5664,117.9549,47.6275,117.9549,53.5053,127,50.5664" style="stroke:#000000;stroke-width:1.0;"/><text fill="#000000" font-family="sans-serif" font-size="13" lengthAdjust="spacing" textLength="54" x="131" y="55.0669">contains</text><text fill="#000000" font-family="sans-serif" font-size="13" lengthAdjust="spacing" textLength="8" x="95.0669" y="72.4147">1</text><text fill="#000000" font-family="sans-serif" font-size="13" lengthAdjust="spacing" textLength="7" x="201.1155" y="71.9876">*</text><!--MD5=[737ca6dd1a667cd849e932d7cf955580]
link Pharmacy to Product--><path codeLine="26" d="M335.006,59 C375.246,59 427.744,59 463.899,59 " fill="none" id="Pharmacy-Product" style="stroke:#A80036;stroke-width:1.0;"/><polygon fill="#000000" points="375,50.5664,365.9549,47.6275,365.9549,53.5053,375,50.5664" style="stroke:#000000;stroke-width:1.0;"/><text fill="#000000" font-family="sans-serif" font-size="13" lengthAdjust="spacing" textLength="54" x="379" y="55.0669">contains</text><text fill="#000000" font-family="sans-serif" font-size="13" lengthAdjust="spacing" textLength="8" x="343.1427" y="72.0348">1</text><text fill="#000000" font-family="sans-serif" font-size="13" lengthAdjust="spacing" textLength="7" x="448.8895" y="72.3486">*</text><!--MD5=[c2cc3c97adcab8491e5fcc3c86c3ca1e]
@startuml
skinparam classAttributeIconSize 0
hide methods
left to right direction


class Platform{
}

class Pharmacy {
  -String id
  -String designation
  -String email
  -Adress adress
  -Integer parkLimit
}

class Product {
  -String id
  -String name
  -float price
  -float weight

}

Platform"1" - - "*"Pharmacy : contains >
Pharmacy"1" - - "*"Product : contains >
@enduml

PlantUML version 1.2020.27beta7(Unknown compile time)
(GPL source distribution)
Java Runtime: Java(TM) SE Runtime Environment
JVM: Java HotSpot(TM) 64-Bit Server VM
Default Encoding: UTF-8
Language: en
Country: US
--></g></svg>