<?xml version="1.0" encoding="UTF-8" standalone="no"?><svg xmlns="http://www.w3.org/2000/svg" xmlns:xlink="http://www.w3.org/1999/xlink" contentScriptType="application/ecmascript" contentStyleType="text/css" height="125px" preserveAspectRatio="none" style="width:569px;height:125px;" version="1.1" viewBox="0 0 569 125" width="569px" zoomAndPan="magnify"><defs><filter height="300%" id="f1w55bkzweaoo1" width="300%" x="-1" y="-1"><feGaussianBlur result="blurOut" stdDeviation="2.0"/><feColorMatrix in="blurOut" result="blurOut2" type="matrix" values="0 0 0 0 0 0 0 0 0 0 0 0 0 0 0 0 0 0 .4 0"/><feOffset dx="4.0" dy="4.0" in="blurOut2" result="blurOut3"/><feBlend in="SourceGraphic" in2="blurOut3" mode="normal"/></filter></defs><g><!--MD5=[99b8db98afdc2c8404e39242ef4c1e65]
class Platform--><rect codeLine="6" fill="#FEFECE" filter="url(#f1w55bkzweaoo1)" height="40" id="Platform" style="stroke:#A80036;stroke-width:1.5;" width="84" x="7" y="39"/><ellipse cx="22" cy="55" fill="#ADD1B2" rx="11" ry="11" style="stroke:#A80036;stroke-width:1.0;"/><path d="M24.9688,60.6406 Q24.3906,60.9375 23.75,61.0781 Q23.1094,61.2344 22.4063,61.2344 Q19.9063,61.2344 18.5781,59.5938 Q17.2656,57.9375 17.2656,54.8125 Q17.2656,51.6875 18.5781,50.0313 Q19.9063,48.375 22.4063,48.375 Q23.1094,48.375 23.75,48.5313 Q24.4063,48.6875 24.9688,48.9844 L24.9688,51.7031 Q24.3438,51.125 23.75,50.8594 Q23.1563,50.5781 22.5313,50.5781 Q21.1875,50.5781 20.5,51.6563 Q19.8125,52.7188 19.8125,54.8125 Q19.8125,56.9063 20.5,57.9844 Q21.1875,59.0469 22.5313,59.0469 Q23.1563,59.0469 23.75,58.7813 Q24.3438,58.5 24.9688,57.9219 L24.9688,60.6406 Z " fill="#000000"/><text fill="#000000" font-family="sans-serif" font-size="12" lengthAdjust="spacingAndGlyphs" textLength="52" x="36" y="59.1543">Platform</text><line style="stroke:#A80036;stroke-width:1.5;" x1="8" x2="90" y1="71" y2="71"/><!--MD5=[7f2a9fafcebe4f099f71398fd3e2ed00]
class Pharmacy--><rect codeLine="9" fill="#FEFECE" filter="url(#f1w55bkzweaoo1)" height="104.0234" id="Pharmacy" style="stroke:#A80036;stroke-width:1.5;" width="120" x="220" y="7"/><ellipse cx="247.15" cy="23" fill="#ADD1B2" rx="11" ry="11" style="stroke:#A80036;stroke-width:1.0;"/><path d="M250.1188,28.6406 Q249.5406,28.9375 248.9,29.0781 Q248.2594,29.2344 247.5563,29.2344 Q245.0563,29.2344 243.7281,27.5938 Q242.4156,25.9375 242.4156,22.8125 Q242.4156,19.6875 243.7281,18.0313 Q245.0563,16.375 247.5563,16.375 Q248.2594,16.375 248.9,16.5313 Q249.5563,16.6875 250.1188,16.9844 L250.1188,19.7031 Q249.4938,19.125 248.9,18.8594 Q248.3063,18.5781 247.6813,18.5781 Q246.3375,18.5781 245.65,19.6563 Q244.9625,20.7188 244.9625,22.8125 Q244.9625,24.9063 245.65,25.9844 Q246.3375,27.0469 247.6813,27.0469 Q248.3063,27.0469 248.9,26.7813 Q249.4938,26.5 250.1188,25.9219 L250.1188,28.6406 Z " fill="#000000"/><text fill="#000000" font-family="sans-serif" font-size="12" lengthAdjust="spacingAndGlyphs" textLength="61" x="263.85" y="27.1543">Pharmacy</text><line style="stroke:#A80036;stroke-width:1.5;" x1="221" x2="339" y1="39" y2="39"/><text fill="#000000" font-family="sans-serif" font-size="11" lengthAdjust="spacingAndGlyphs" textLength="52" x="226" y="53.2104">-String id</text><text fill="#000000" font-family="sans-serif" font-size="11" lengthAdjust="spacingAndGlyphs" textLength="108" x="226" y="66.0151">-String designation</text><text fill="#000000" font-family="sans-serif" font-size="11" lengthAdjust="spacingAndGlyphs" textLength="73" x="226" y="78.8198">-String email</text><text fill="#000000" font-family="sans-serif" font-size="11" lengthAdjust="spacingAndGlyphs" textLength="88" x="226" y="91.6245">-Adress adress</text><text fill="#000000" font-family="sans-serif" font-size="11" lengthAdjust="spacingAndGlyphs" textLength="74" x="226" y="104.4292">-int parkLimit</text><!--MD5=[72136138052d025cffdce3c22fbd185f]
class Product--><rect codeLine="17" fill="#FEFECE" filter="url(#f1w55bkzweaoo1)" height="104.0234" id="Product" style="stroke:#A80036;stroke-width:1.5;" width="86" x="469" y="7"/><ellipse cx="486.25" cy="23" fill="#ADD1B2" rx="11" ry="11" style="stroke:#A80036;stroke-width:1.0;"/><path d="M489.2188,28.6406 Q488.6406,28.9375 488,29.0781 Q487.3594,29.2344 486.6563,29.2344 Q484.1563,29.2344 482.8281,27.5938 Q481.5156,25.9375 481.5156,22.8125 Q481.5156,19.6875 482.8281,18.0313 Q484.1563,16.375 486.6563,16.375 Q487.3594,16.375 488,16.5313 Q488.6563,16.6875 489.2188,16.9844 L489.2188,19.7031 Q488.5938,19.125 488,18.8594 Q487.4063,18.5781 486.7813,18.5781 Q485.4375,18.5781 484.75,19.6563 Q484.0625,20.7188 484.0625,22.8125 Q484.0625,24.9063 484.75,25.9844 Q485.4375,27.0469 486.7813,27.0469 Q487.4063,27.0469 488,26.7813 Q488.5938,26.5 489.2188,25.9219 L489.2188,28.6406 Z " fill="#000000"/><text fill="#000000" font-family="sans-serif" font-size="12" lengthAdjust="spacingAndGlyphs" textLength="49" x="500.75" y="27.1543">Product</text><line style="stroke:#A80036;stroke-width:1.5;" x1="470" x2="554" y1="39" y2="39"/><text fill="#000000" font-family="sans-serif" font-size="11" lengthAdjust="spacingAndGlyphs" textLength="53" x="475" y="53.2104">-String ID</text><text fill="#000000" font-family="sans-serif" font-size="11" lengthAdjust="spacingAndGlyphs" textLength="74" x="475" y="66.0151">-String nome</text><text fill="#000000" font-family="sans-serif" font-size="11" lengthAdjust="spacingAndGlyphs" textLength="61" x="475" y="78.8198">-flout price</text><text fill="#000000" font-family="sans-serif" font-size="11" lengthAdjust="spacingAndGlyphs" textLength="70" x="475" y="91.6245">-flout weight</text><text fill="#000000" font-family="sans-serif" font-size="11" lengthAdjust="spacingAndGlyphs" textLength="52" x="475" y="104.4292">-int stock</text><!--MD5=[4a07f137c208f82f57837154e1cfa51e]
link Platform to Pharmacy--><path codeLine="25" d="M91.1004,59 C127.1473,59 179.4809,59 219.9275,59 " fill="none" id="Platform-Pharmacy" style="stroke:#A80036;stroke-width:1.0;"/><polygon fill="#000000" points="131,50.5664,121.9549,47.6275,121.9549,53.5053,131,50.5664" style="stroke:#000000;stroke-width:1.0;"/><text fill="#000000" font-family="sans-serif" font-size="13" lengthAdjust="spacingAndGlyphs" textLength="54" x="135" y="55.0669">contains</text><text fill="#000000" font-family="sans-serif" font-size="13" lengthAdjust="spacingAndGlyphs" textLength="8" x="99.0239" y="72.3674">1</text><text fill="#000000" font-family="sans-serif" font-size="13" lengthAdjust="spacingAndGlyphs" textLength="8" x="204.1187" y="71.9876">1</text><!--MD5=[737ca6dd1a667cd849e932d7cf955580]
link Pharmacy to Product--><path codeLine="27" d="M340.0475,59 C380.3252,59 432.4377,59 468.6878,59 " fill="none" id="Pharmacy-Product" style="stroke:#A80036;stroke-width:1.0;"/><polygon fill="#000000" points="380,50.5664,370.9549,47.6275,370.9549,53.5053,380,50.5664" style="stroke:#000000;stroke-width:1.0;"/><text fill="#000000" font-family="sans-serif" font-size="13" lengthAdjust="spacingAndGlyphs" textLength="54" x="384" y="55.0669">contains</text><text fill="#000000" font-family="sans-serif" font-size="13" lengthAdjust="spacingAndGlyphs" textLength="8" x="347.8533" y="71.9876">1</text><text fill="#000000" font-family="sans-serif" font-size="13" lengthAdjust="spacingAndGlyphs" textLength="23" x="437.9798" y="72.1293">0..*</text><!--MD5=[1f1e9abc8b72168393c5d5603de8d5b0]
@startuml
skinparam classAttributeIconSize 0
hide methods
left to right direction


class Platform{
}

class Pharmacy{
  -String id
  -String designation
  -String email
  -Adress adress
  -int parkLimit
}

class Product {
  -String ID
  -String nome
  -flout price
  -flout weight
  -int stock
}

Platform "1" - - "1" Pharmacy : contains >

Pharmacy"1" - - "0..*"Product : contains >
@enduml

PlantUML version 1.2020.22(Sun Dec 06 09:36:27 UTC 2020)
(GPL source distribution)
Java Runtime: OpenJDK Runtime Environment
JVM: OpenJDK 64-Bit Server VM
Default Encoding: UTF-8
Language: en
Country: US
--></g></svg>