<?xml version="1.0" encoding="UTF-8" standalone="no"?><svg xmlns="http://www.w3.org/2000/svg" xmlns:xlink="http://www.w3.org/1999/xlink" contentScriptType="application/ecmascript" contentStyleType="text/css" height="1013px" preserveAspectRatio="none" style="width:453px;height:1013px;" version="1.1" viewBox="0 0 453 1013" width="453px" zoomAndPan="magnify"><defs><filter height="300%" id="fkjr3nc17h3t5" width="300%" x="-1" y="-1"><feGaussianBlur result="blurOut" stdDeviation="2.0"/><feColorMatrix in="blurOut" result="blurOut2" type="matrix" values="0 0 0 0 0 0 0 0 0 0 0 0 0 0 0 0 0 0 .4 0"/><feOffset dx="4.0" dy="4.0" in="blurOut2" result="blurOut3"/><feBlend in="SourceGraphic" in2="blurOut3" mode="normal"/></filter></defs><g><!--MD5=[5c0a51590030aac38a770b3ba1524333]
class RegisterProductController--><rect fill="#FEFECE" filter="url(#fkjr3nc17h3t5)" height="73.6094" id="RegisterProductController" style="stroke: #A80036; stroke-width: 1.5;" width="340" x="102.5" y="117"/><ellipse cx="187.25" cy="133" fill="#ADD1B2" rx="11" ry="11" style="stroke: #A80036; stroke-width: 1.0;"/><path d="M190.2188,138.6406 Q189.6406,138.9375 189,139.0781 Q188.3594,139.2344 187.6563,139.2344 Q185.1563,139.2344 183.8281,137.5938 Q182.5156,135.9375 182.5156,132.8125 Q182.5156,129.6875 183.8281,128.0313 Q185.1563,126.375 187.6563,126.375 Q188.3594,126.375 189,126.5313 Q189.6563,126.6875 190.2188,126.9844 L190.2188,129.7031 Q189.5938,129.125 189,128.8594 Q188.4063,128.5781 187.7813,128.5781 Q186.4375,128.5781 185.75,129.6563 Q185.0625,130.7188 185.0625,132.8125 Q185.0625,134.9063 185.75,135.9844 Q186.4375,137.0469 187.7813,137.0469 Q188.4063,137.0469 189,136.7813 Q189.5938,136.5 190.2188,135.9219 L190.2188,138.6406 Z "/><text fill="#000000" font-family="sans-serif" font-size="12" lengthAdjust="spacingAndGlyphs" textLength="162" x="207.75" y="137.1543">RegisterProductController</text><line style="stroke: #A80036; stroke-width: 1.5;" x1="103.5" x2="441.5" y1="149" y2="149"/><line style="stroke: #A80036; stroke-width: 1.5;" x1="103.5" x2="441.5" y1="157" y2="157"/><text fill="#000000" font-family="sans-serif" font-size="11" lengthAdjust="spacingAndGlyphs" textLength="328" x="108.5" y="171.2104">+newProduct(ID, name, price, weight, stock, pharmacyID)</text><text fill="#000000" font-family="sans-serif" font-size="11" lengthAdjust="spacingAndGlyphs" textLength="105" x="108.5" y="184.0151">+registerProduct()</text><!--MD5=[403eb1e321209580bf565a2eb3f6c937]
class RegisterproductUI--><rect fill="#FEFECE" filter="url(#fkjr3nc17h3t5)" height="48" id="RegisterproductUI" style="stroke: #A80036; stroke-width: 1.5;" width="145" x="200" y="8"/><ellipse cx="215" cy="24" fill="#ADD1B2" rx="11" ry="11" style="stroke: #A80036; stroke-width: 1.0;"/><path d="M217.9688,29.6406 Q217.3906,29.9375 216.75,30.0781 Q216.1094,30.2344 215.4063,30.2344 Q212.9063,30.2344 211.5781,28.5938 Q210.2656,26.9375 210.2656,23.8125 Q210.2656,20.6875 211.5781,19.0313 Q212.9063,17.375 215.4063,17.375 Q216.1094,17.375 216.75,17.5313 Q217.4063,17.6875 217.9688,17.9844 L217.9688,20.7031 Q217.3438,20.125 216.75,19.8594 Q216.1563,19.5781 215.5313,19.5781 Q214.1875,19.5781 213.5,20.6563 Q212.8125,21.7188 212.8125,23.8125 Q212.8125,25.9063 213.5,26.9844 Q214.1875,28.0469 215.5313,28.0469 Q216.1563,28.0469 216.75,27.7813 Q217.3438,27.5 217.9688,26.9219 L217.9688,29.6406 Z "/><text fill="#000000" font-family="sans-serif" font-size="12" lengthAdjust="spacingAndGlyphs" textLength="113" x="229" y="28.1543">RegisterproductUI</text><line style="stroke: #A80036; stroke-width: 1.5;" x1="201" x2="344" y1="40" y2="40"/><line style="stroke: #A80036; stroke-width: 1.5;" x1="201" x2="344" y1="48" y2="48"/><!--MD5=[99b8db98afdc2c8404e39242ef4c1e65]
class Platform--><rect fill="#FEFECE" filter="url(#fkjr3nc17h3t5)" height="60.8047" id="Platform" style="stroke: #A80036; stroke-width: 1.5;" width="123" x="84" y="252"/><ellipse cx="116.55" cy="268" fill="#ADD1B2" rx="11" ry="11" style="stroke: #A80036; stroke-width: 1.0;"/><path d="M119.5188,273.6406 Q118.9406,273.9375 118.3,274.0781 Q117.6594,274.2344 116.9563,274.2344 Q114.4563,274.2344 113.1281,272.5938 Q111.8156,270.9375 111.8156,267.8125 Q111.8156,264.6875 113.1281,263.0313 Q114.4563,261.375 116.9563,261.375 Q117.6594,261.375 118.3,261.5313 Q118.9563,261.6875 119.5188,261.9844 L119.5188,264.7031 Q118.8938,264.125 118.3,263.8594 Q117.7063,263.5781 117.0813,263.5781 Q115.7375,263.5781 115.05,264.6563 Q114.3625,265.7188 114.3625,267.8125 Q114.3625,269.9063 115.05,270.9844 Q115.7375,272.0469 117.0813,272.0469 Q117.7063,272.0469 118.3,271.7813 Q118.8938,271.5 119.5188,270.9219 L119.5188,273.6406 Z "/><text fill="#000000" font-family="sans-serif" font-size="12" lengthAdjust="spacingAndGlyphs" textLength="52" x="134.45" y="272.1543">Platform</text><line style="stroke: #A80036; stroke-width: 1.5;" x1="85" x2="206" y1="284" y2="284"/><line style="stroke: #A80036; stroke-width: 1.5;" x1="85" x2="206" y1="292" y2="292"/><text fill="#000000" font-family="sans-serif" font-size="11" lengthAdjust="spacingAndGlyphs" textLength="111" x="90" y="306.2104">+getPharmacyList()</text><!--MD5=[8050ef462d77cf220fd706493bc05cc9]
class PharmacyList--><rect fill="#FEFECE" filter="url(#fkjr3nc17h3t5)" height="60.8047" id="PharmacyList" style="stroke: #A80036; stroke-width: 1.5;" width="213" x="6" y="390"/><ellipse cx="67.25" cy="406" fill="#ADD1B2" rx="11" ry="11" style="stroke: #A80036; stroke-width: 1.0;"/><path d="M70.2188,411.6406 Q69.6406,411.9375 69,412.0781 Q68.3594,412.2344 67.6563,412.2344 Q65.1563,412.2344 63.8281,410.5938 Q62.5156,408.9375 62.5156,405.8125 Q62.5156,402.6875 63.8281,401.0313 Q65.1563,399.375 67.6563,399.375 Q68.3594,399.375 69,399.5313 Q69.6563,399.6875 70.2188,399.9844 L70.2188,402.7031 Q69.5938,402.125 69,401.8594 Q68.4063,401.5781 67.7813,401.5781 Q66.4375,401.5781 65.75,402.6563 Q65.0625,403.7188 65.0625,405.8125 Q65.0625,407.9063 65.75,408.9844 Q66.4375,410.0469 67.7813,410.0469 Q68.4063,410.0469 69,409.7813 Q69.5938,409.5 70.2188,408.9219 L70.2188,411.6406 Z "/><text fill="#000000" font-family="sans-serif" font-size="12" lengthAdjust="spacingAndGlyphs" textLength="82" x="87.75" y="410.1543">PharmacyList</text><line style="stroke: #A80036; stroke-width: 1.5;" x1="7" x2="218" y1="422" y2="422"/><line style="stroke: #A80036; stroke-width: 1.5;" x1="7" x2="218" y1="430" y2="430"/><text fill="#000000" font-family="sans-serif" font-size="11" lengthAdjust="spacingAndGlyphs" textLength="201" x="12" y="444.2104">+phar = getPharmacy(pharmacyID)</text><!--MD5=[7f2a9fafcebe4f099f71398fd3e2ed00]
class Pharmacy--><rect fill="#FEFECE" filter="url(#fkjr3nc17h3t5)" height="124.8281" id="Pharmacy" style="stroke: #A80036; stroke-width: 1.5;" width="120" x="88.5" y="528"/><ellipse cx="115.65" cy="544" fill="#ADD1B2" rx="11" ry="11" style="stroke: #A80036; stroke-width: 1.0;"/><path d="M118.6188,549.6406 Q118.0406,549.9375 117.4,550.0781 Q116.7594,550.2344 116.0563,550.2344 Q113.5563,550.2344 112.2281,548.5938 Q110.9156,546.9375 110.9156,543.8125 Q110.9156,540.6875 112.2281,539.0313 Q113.5563,537.375 116.0563,537.375 Q116.7594,537.375 117.4,537.5313 Q118.0563,537.6875 118.6188,537.9844 L118.6188,540.7031 Q117.9938,540.125 117.4,539.8594 Q116.8063,539.5781 116.1813,539.5781 Q114.8375,539.5781 114.15,540.6563 Q113.4625,541.7188 113.4625,543.8125 Q113.4625,545.9063 114.15,546.9844 Q114.8375,548.0469 116.1813,548.0469 Q116.8063,548.0469 117.4,547.7813 Q117.9938,547.5 118.6188,546.9219 L118.6188,549.6406 Z "/><text fill="#000000" font-family="sans-serif" font-size="12" lengthAdjust="spacingAndGlyphs" textLength="61" x="132.35" y="548.1543">Pharmacy</text><line style="stroke: #A80036; stroke-width: 1.5;" x1="89.5" x2="207.5" y1="560" y2="560"/><text fill="#000000" font-family="sans-serif" font-size="11" lengthAdjust="spacingAndGlyphs" textLength="52" x="94.5" y="574.2104">-String id</text><text fill="#000000" font-family="sans-serif" font-size="11" lengthAdjust="spacingAndGlyphs" textLength="108" x="94.5" y="587.0151">-String designation</text><text fill="#000000" font-family="sans-serif" font-size="11" lengthAdjust="spacingAndGlyphs" textLength="73" x="94.5" y="599.8198">-String email</text><text fill="#000000" font-family="sans-serif" font-size="11" lengthAdjust="spacingAndGlyphs" textLength="88" x="94.5" y="612.6245">-Adress adress</text><text fill="#000000" font-family="sans-serif" font-size="11" lengthAdjust="spacingAndGlyphs" textLength="74" x="94.5" y="625.4292">-int parkLimit</text><line style="stroke: #A80036; stroke-width: 1.5;" x1="89.5" x2="207.5" y1="632.0234" y2="632.0234"/><text fill="#000000" font-family="sans-serif" font-size="11" lengthAdjust="spacingAndGlyphs" textLength="98" x="94.5" y="646.2339">+getProductList()</text><!--MD5=[44262eafef82e22c9662f871d8bd43ff]
class ProductList--><rect fill="#FEFECE" filter="url(#fkjr3nc17h3t5)" height="99.2188" id="ProductList" style="stroke: #A80036; stroke-width: 1.5;" width="283" x="7" y="714"/><ellipse cx="109.25" cy="730" fill="#ADD1B2" rx="11" ry="11" style="stroke: #A80036; stroke-width: 1.0;"/><path d="M112.2188,735.6406 Q111.6406,735.9375 111,736.0781 Q110.3594,736.2344 109.6563,736.2344 Q107.1563,736.2344 105.8281,734.5938 Q104.5156,732.9375 104.5156,729.8125 Q104.5156,726.6875 105.8281,725.0313 Q107.1563,723.375 109.6563,723.375 Q110.3594,723.375 111,723.5313 Q111.6563,723.6875 112.2188,723.9844 L112.2188,726.7031 Q111.5938,726.125 111,725.8594 Q110.4063,725.5781 109.7813,725.5781 Q108.4375,725.5781 107.75,726.6563 Q107.0625,727.7188 107.0625,729.8125 Q107.0625,731.9063 107.75,732.9844 Q108.4375,734.0469 109.7813,734.0469 Q110.4063,734.0469 111,733.7813 Q111.5938,733.5 112.2188,732.9219 L112.2188,735.6406 Z "/><text fill="#000000" font-family="sans-serif" font-size="12" lengthAdjust="spacingAndGlyphs" textLength="70" x="129.75" y="734.1543">ProductList</text><line style="stroke: #A80036; stroke-width: 1.5;" x1="8" x2="289" y1="746" y2="746"/><line style="stroke: #A80036; stroke-width: 1.5;" x1="8" x2="289" y1="754" y2="754"/><text fill="#000000" font-family="sans-serif" font-size="11" lengthAdjust="spacingAndGlyphs" textLength="271" x="13" y="768.2104">+newProduct(name, price, weight, pharmacyID)</text><text fill="#000000" font-family="sans-serif" font-size="11" lengthAdjust="spacingAndGlyphs" textLength="131" x="13" y="781.0151">+registerProduct(prod)</text><text fill="#000000" font-family="sans-serif" font-size="11" lengthAdjust="spacingAndGlyphs" textLength="130" x="13" y="793.8198">+validateProduct(prod)</text><text fill="#000000" font-family="sans-serif" font-size="11" lengthAdjust="spacingAndGlyphs" textLength="107" x="13" y="806.6245">+addProduct(prod)</text><!--MD5=[72136138052d025cffdce3c22fbd185f]
class Product--><rect fill="#FEFECE" filter="url(#fkjr3nc17h3t5)" height="112.0234" id="Product" style="stroke: #A80036; stroke-width: 1.5;" width="86" x="239.5" y="890"/><ellipse cx="256.75" cy="906" fill="#ADD1B2" rx="11" ry="11" style="stroke: #A80036; stroke-width: 1.0;"/><path d="M259.7188,911.6406 Q259.1406,911.9375 258.5,912.0781 Q257.8594,912.2344 257.1563,912.2344 Q254.6563,912.2344 253.3281,910.5938 Q252.0156,908.9375 252.0156,905.8125 Q252.0156,902.6875 253.3281,901.0313 Q254.6563,899.375 257.1563,899.375 Q257.8594,899.375 258.5,899.5313 Q259.1563,899.6875 259.7188,899.9844 L259.7188,902.7031 Q259.0938,902.125 258.5,901.8594 Q257.9063,901.5781 257.2813,901.5781 Q255.9375,901.5781 255.25,902.6563 Q254.5625,903.7188 254.5625,905.8125 Q254.5625,907.9063 255.25,908.9844 Q255.9375,910.0469 257.2813,910.0469 Q257.9063,910.0469 258.5,909.7813 Q259.0938,909.5 259.7188,908.9219 L259.7188,911.6406 Z "/><text fill="#000000" font-family="sans-serif" font-size="12" lengthAdjust="spacingAndGlyphs" textLength="49" x="271.25" y="910.1543">Product</text><line style="stroke: #A80036; stroke-width: 1.5;" x1="240.5" x2="324.5" y1="922" y2="922"/><text fill="#000000" font-family="sans-serif" font-size="11" lengthAdjust="spacingAndGlyphs" textLength="53" x="245.5" y="936.2104">-String ID</text><text fill="#000000" font-family="sans-serif" font-size="11" lengthAdjust="spacingAndGlyphs" textLength="74" x="245.5" y="949.0151">-String nome</text><text fill="#000000" font-family="sans-serif" font-size="11" lengthAdjust="spacingAndGlyphs" textLength="61" x="245.5" y="961.8198">-float price</text><text fill="#000000" font-family="sans-serif" font-size="11" lengthAdjust="spacingAndGlyphs" textLength="70" x="245.5" y="974.6245">-float weight</text><text fill="#000000" font-family="sans-serif" font-size="11" lengthAdjust="spacingAndGlyphs" textLength="52" x="245.5" y="987.4292">-int stock</text><line style="stroke: #A80036; stroke-width: 1.5;" x1="240.5" x2="324.5" y1="994.0234" y2="994.0234"/><!--MD5=[d60b7859fbddb4684495a7f732ebb505]
link RegisterproductUI to RegisterProductController--><path d="M272.5,56.137 C272.5,71.825 272.5,93.003 272.5,111.555 " fill="none" id="RegisterproductUI-&gt;RegisterProductController" style="stroke: #A80036; stroke-width: 1.0; stroke-dasharray: 7.0,7.0;"/><polygon fill="#A80036" points="272.5,116.711,276.5,107.711,272.5,111.711,268.5,107.711,272.5,116.711" style="stroke: #A80036; stroke-width: 1.0;"/><!--MD5=[34ee98fa44031615f1f0298cd802a640]
link RegisterProductController to Pharmacy--><path d="M273.172,191.253 C273.119,248.255 268.495,361.557 236.5,451 C227.505,476.147 213.296,501.45 198.899,523.423 " fill="none" id="RegisterProductController-&gt;Pharmacy" style="stroke: #A80036; stroke-width: 1.0; stroke-dasharray: 7.0,7.0;"/><polygon fill="#A80036" points="196.018,527.772,204.323,522.478,198.7793,523.6036,197.6536,518.0599,196.018,527.772" style="stroke: #A80036; stroke-width: 1.0;"/><!--MD5=[98d073e26e2ff635bc1e751979f12ca5]
link RegisterProductController to Platform--><path d="M236.107,191.25 C218.253,209.033 196.88,230.322 179.377,247.756 " fill="none" id="RegisterProductController-&gt;Platform" style="stroke: #A80036; stroke-width: 1.0; stroke-dasharray: 7.0,7.0;"/><polygon fill="#A80036" points="175.475,251.643,184.6745,248.126,179.0177,248.1146,179.0291,242.4578,175.475,251.643" style="stroke: #A80036; stroke-width: 1.0;"/><!--MD5=[a15e5b2c17f8491ad06a7e4694b7ae20]
link RegisterProductController to Product--><path d="M305.713,191.08 C324.192,214.922 343.5,247.879 343.5,281.5 C343.5,281.5 343.5,281.5 343.5,764.5 C343.5,806.116 328.767,850.423 313.782,884.725 " fill="none" id="RegisterProductController-&gt;Product" style="stroke: #A80036; stroke-width: 1.0; stroke-dasharray: 7.0,7.0;"/><polygon fill="#A80036" points="311.571,889.712,318.8767,883.1069,313.5984,885.1415,311.5639,879.8631,311.571,889.712" style="stroke: #A80036; stroke-width: 1.0;"/><!--MD5=[2bc5a413d94b08902b9f3d0151eb30f1]
link Platform to PharmacyList--><path d="M138.339,313.01 C133.229,334.073 126.335,362.481 120.954,384.659 " fill="none" id="Platform-&gt;PharmacyList" style="stroke: #A80036; stroke-width: 1.0;"/><polygon fill="#A80036" points="119.76,389.578,125.7711,381.7763,120.94,384.7192,117.9971,379.8882,119.76,389.578" style="stroke: #A80036; stroke-width: 1.0;"/><text fill="#000000" font-family="sans-serif" font-size="13" lengthAdjust="spacingAndGlyphs" textLength="23" x="132.5" y="356.0669">has</text><text fill="#000000" font-family="sans-serif" font-size="13" lengthAdjust="spacingAndGlyphs" textLength="8" x="128.037" y="332.9503">1</text><text fill="#000000" font-family="sans-serif" font-size="13" lengthAdjust="spacingAndGlyphs" textLength="8" x="112.4324" y="378.7542">1</text><!--MD5=[dcb9e7f24fda9389b72d4bf35ba5a068]
link PharmacyList to Pharmacy--><path d="M118.853,451.148 C123.111,471.018 128.893,497.999 134.22,522.858 " fill="none" id="PharmacyList-&gt;Pharmacy" style="stroke: #A80036; stroke-width: 1.0;"/><polygon fill="#A80036" points="135.278,527.799,137.3042,518.1608,134.2307,522.9099,129.4817,519.8364,135.278,527.799" style="stroke: #A80036; stroke-width: 1.0;"/><text fill="#000000" font-family="sans-serif" font-size="13" lengthAdjust="spacingAndGlyphs" textLength="23" x="129.5" y="494.0669">has</text><text fill="#000000" font-family="sans-serif" font-size="13" lengthAdjust="spacingAndGlyphs" textLength="8" x="111.3162" y="470.7576">1</text><text fill="#000000" font-family="sans-serif" font-size="13" lengthAdjust="spacingAndGlyphs" textLength="23" x="109.4195" y="516.7665">0..*</text><!--MD5=[92b8f75a2639539bed747d3dbb9f2876]
link Pharmacy to ProductList--><path d="M148.5,653.235 C148.5,671.355 148.5,691.021 148.5,708.61 " fill="none" id="Pharmacy-&gt;ProductList" style="stroke: #A80036; stroke-width: 1.0;"/><polygon fill="#A80036" points="148.5,713.998,152.5,704.998,148.5,708.998,144.5,704.998,148.5,713.998" style="stroke: #A80036; stroke-width: 1.0;"/><text fill="#000000" font-family="sans-serif" font-size="13" lengthAdjust="spacingAndGlyphs" textLength="8" x="140.0625" y="673.0005">1</text><text fill="#000000" font-family="sans-serif" font-size="13" lengthAdjust="spacingAndGlyphs" textLength="8" x="139.9375" y="703.0429">1</text><!--MD5=[da7a88b3261d7b5c096a3d384c8541e6]
link ProductList to Product--><path d="M184.762,813.346 C201.321,835.651 221.079,862.265 238.482,885.707 " fill="none" id="ProductList-&gt;Product" style="stroke: #A80036; stroke-width: 1.0;"/><polygon fill="#A80036" points="241.478,889.742,239.323,880.1318,238.4968,885.728,232.9006,884.9018,241.478,889.742" style="stroke: #A80036; stroke-width: 1.0;"/><text fill="#000000" font-family="sans-serif" font-size="13" lengthAdjust="spacingAndGlyphs" textLength="23" x="216.5" y="856.0669">has</text><text fill="#000000" font-family="sans-serif" font-size="13" lengthAdjust="spacingAndGlyphs" textLength="8" x="181.0972" y="833.113">1</text><text fill="#000000" font-family="sans-serif" font-size="13" lengthAdjust="spacingAndGlyphs" textLength="23" x="212.0769" y="879.0451">0..*</text><!--MD5=[a7be4c304ff8eb48b73eb7fe7feb1c50]
@startuml
skinparam classAttributeIconSize 0

class RegisterProductController {
    +newProduct(ID, name, price, weight, stock, pharmacyID)
    +registerProduct()
}

class RegisterproductUI {
}

class Platform {
  + getPharmacyList()
}

class PharmacyList {
	+ phar = getPharmacy(pharmacyID)
}

class Pharmacy {
  -String id
  -String designation
  -String email
  -Adress adress
  -int parkLimit
  +getProductList()
}

class ProductList {
  +newProduct(name, price, weight, pharmacyID)
  +registerProduct(prod)
  +validateProduct(prod)
  +addProduct(prod)
}

class Product {
  -String ID
  -String nome
  -float price
  -float weight
  -int stock
}


RegisterproductUI ..> RegisterProductController

RegisterProductController ..> Pharmacy
RegisterProductController ..> Platform
RegisterProductController ..> Product

Platform "1" - -> "1" PharmacyList : has
PharmacyList "1" - -> "0..*" Pharmacy : has
Pharmacy "1" - -> "1" ProductList
ProductList "1" - -> "0..*" Product : has
@enduml

PlantUML version 1.2019.11(Sun Sep 22 12:02:15 CEST 2019)
(GPL source distribution)
Java Runtime: OpenJDK Runtime Environment
JVM: OpenJDK 64-Bit Server VM
Java Version: 1.8.0_275-8u275-b01-0ubuntu1~16.04-b01
Operating System: Linux
Default Encoding: UTF-8
Language: en
Country: US
--></g></svg>