<?xml version="1.0" encoding="UTF-8" standalone="no"?><svg xmlns="http://www.w3.org/2000/svg" xmlns:xlink="http://www.w3.org/1999/xlink" contentScriptType="application/ecmascript" contentStyleType="text/css" height="497px" preserveAspectRatio="none" style="width:995px;height:497px;background:#FFFFFF;" version="1.1" viewBox="0 0 995 497" width="995px" zoomAndPan="magnify"><defs><filter height="300%" id="fnloe70ikr22s" width="300%" x="-1" y="-1"><feGaussianBlur result="blurOut" stdDeviation="2.0"/><feColorMatrix in="blurOut" result="blurOut2" type="matrix" values="0 0 0 0 0 0 0 0 0 0 0 0 0 0 0 0 0 0 .4 0"/><feOffset dx="4.0" dy="4.0" in="blurOut2" result="blurOut3"/><feBlend in="SourceGraphic" in2="blurOut3" mode="normal"/></filter></defs><g><rect fill="#FFFFFF" filter="url(#fnloe70ikr22s)" height="275.1953" style="stroke:#A80036;stroke-width:1.0;" width="10" x="241.5" y="119.4297"/><rect fill="#FFFFFF" filter="url(#fnloe70ikr22s)" height="174.7969" style="stroke:#A80036;stroke-width:1.0;" width="10" x="409.5" y="148.5625"/><rect fill="#FFFFFF" filter="url(#fnloe70ikr22s)" height="29.1328" style="stroke:#A80036;stroke-width:1.0;" width="10" x="594" y="206.8281"/><rect fill="#FFFFFF" filter="url(#fnloe70ikr22s)" height="29.1328" style="stroke:#A80036;stroke-width:1.0;" width="10" x="760" y="235.9609"/><rect fill="#FFFFFF" filter="url(#fnloe70ikr22s)" height="29.1328" style="stroke:#A80036;stroke-width:1.0;" width="10" x="917.5" y="265.0938"/><line style="stroke:#A80036;stroke-width:1.0;stroke-dasharray:5.0,5.0;" x1="23" x2="23" y1="88.2969" y2="412.625"/><line style="stroke:#A80036;stroke-width:1.0;stroke-dasharray:5.0,5.0;" x1="246.5" x2="246.5" y1="88.2969" y2="412.625"/><line style="stroke:#A80036;stroke-width:1.0;stroke-dasharray:5.0,5.0;" x1="414.5" x2="414.5" y1="88.2969" y2="412.625"/><line style="stroke:#A80036;stroke-width:1.0;stroke-dasharray:5.0,5.0;" x1="598.5" x2="598.5" y1="88.2969" y2="412.625"/><line style="stroke:#A80036;stroke-width:1.0;stroke-dasharray:5.0,5.0;" x1="764.5" x2="764.5" y1="88.2969" y2="412.625"/><line style="stroke:#A80036;stroke-width:1.0;stroke-dasharray:5.0,5.0;" x1="922.5" x2="922.5" y1="88.2969" y2="412.625"/><text fill="#000000" font-family="sans-serif" font-size="14" lengthAdjust="spacing" textLength="31" x="5" y="84.9951">User</text><ellipse cx="23.5" cy="15" fill="#FEFECE" filter="url(#fnloe70ikr22s)" rx="8" ry="8" style="stroke:#A80036;stroke-width:2.0;"/><path d="M23.5,23 L23.5,50 M10.5,31 L36.5,31 M23.5,50 L10.5,65 M23.5,50 L36.5,65 " fill="none" filter="url(#fnloe70ikr22s)" style="stroke:#A80036;stroke-width:2.0;"/><text fill="#000000" font-family="sans-serif" font-size="14" lengthAdjust="spacing" textLength="31" x="5" y="424.6201">User</text><ellipse cx="23.5" cy="437.9219" fill="#FEFECE" filter="url(#fnloe70ikr22s)" rx="8" ry="8" style="stroke:#A80036;stroke-width:2.0;"/><path d="M23.5,445.9219 L23.5,472.9219 M10.5,453.9219 L36.5,453.9219 M23.5,472.9219 L10.5,487.9219 M23.5,472.9219 L36.5,487.9219 " fill="none" filter="url(#fnloe70ikr22s)" style="stroke:#A80036;stroke-width:2.0;"/><rect fill="#FEFECE" filter="url(#fnloe70ikr22s)" height="46.5938" style="stroke:#A80036;stroke-width:1.5;" width="124" x="182.5" y="36.7031"/><text fill="#000000" font-family="sans-serif" font-size="14" font-style="italic" lengthAdjust="spacing" textLength="108" x="190.5" y="56.6982">«presentation»</text><text fill="#000000" font-family="sans-serif" font-size="14" lengthAdjust="spacing" textLength="110" x="189.5" y="72.9951">ShowRequestUI</text><rect fill="#FEFECE" filter="url(#fnloe70ikr22s)" height="46.5938" style="stroke:#A80036;stroke-width:1.5;" width="124" x="182.5" y="411.625"/><text fill="#000000" font-family="sans-serif" font-size="14" font-style="italic" lengthAdjust="spacing" textLength="108" x="190.5" y="431.6201">«presentation»</text><text fill="#000000" font-family="sans-serif" font-size="14" lengthAdjust="spacing" textLength="110" x="189.5" y="447.917">ShowRequestUI</text><rect fill="#FEFECE" filter="url(#fnloe70ikr22s)" height="46.5938" style="stroke:#A80036;stroke-width:1.5;" width="184" x="320.5" y="36.7031"/><text fill="#000000" font-family="sans-serif" font-size="14" font-style="italic" lengthAdjust="spacing" textLength="97" x="364" y="56.6982">«application»</text><text fill="#000000" font-family="sans-serif" font-size="14" lengthAdjust="spacing" textLength="170" x="327.5" y="72.9951">ShowRequestController</text><rect fill="#FEFECE" filter="url(#fnloe70ikr22s)" height="46.5938" style="stroke:#A80036;stroke-width:1.5;" width="184" x="320.5" y="411.625"/><text fill="#000000" font-family="sans-serif" font-size="14" font-style="italic" lengthAdjust="spacing" textLength="97" x="364" y="431.6201">«application»</text><text fill="#000000" font-family="sans-serif" font-size="14" lengthAdjust="spacing" textLength="170" x="327.5" y="447.917">ShowRequestController</text><rect fill="#FEFECE" filter="url(#fnloe70ikr22s)" height="46.5938" style="stroke:#A80036;stroke-width:1.5;" width="157" x="518.5" y="36.7031"/><text fill="#000000" font-family="sans-serif" font-size="14" font-style="italic" lengthAdjust="spacing" textLength="100" x="547" y="56.6982">«persistence»</text><text fill="#000000" font-family="sans-serif" font-size="14" lengthAdjust="spacing" textLength="143" x="525.5" y="72.9951">PersistenceContext</text><rect fill="#FEFECE" filter="url(#fnloe70ikr22s)" height="46.5938" style="stroke:#A80036;stroke-width:1.5;" width="157" x="518.5" y="411.625"/><text fill="#000000" font-family="sans-serif" font-size="14" font-style="italic" lengthAdjust="spacing" textLength="100" x="547" y="431.6201">«persistence»</text><text fill="#000000" font-family="sans-serif" font-size="14" lengthAdjust="spacing" textLength="143" x="525.5" y="447.917">PersistenceContext</text><rect fill="#FEFECE" filter="url(#fnloe70ikr22s)" height="46.5938" style="stroke:#A80036;stroke-width:1.5;" width="147" x="689.5" y="36.7031"/><text fill="#000000" font-family="sans-serif" font-size="14" font-style="italic" lengthAdjust="spacing" textLength="68" x="729" y="56.6982">«factory»</text><text fill="#000000" font-family="sans-serif" font-size="14" lengthAdjust="spacing" textLength="133" x="696.5" y="72.9951">RepositoryFactory</text><rect fill="#FEFECE" filter="url(#fnloe70ikr22s)" height="46.5938" style="stroke:#A80036;stroke-width:1.5;" width="147" x="689.5" y="411.625"/><text fill="#000000" font-family="sans-serif" font-size="14" font-style="italic" lengthAdjust="spacing" textLength="68" x="729" y="431.6201">«factory»</text><text fill="#000000" font-family="sans-serif" font-size="14" lengthAdjust="spacing" textLength="133" x="696.5" y="447.917">RepositoryFactory</text><text fill="#000000" font-family="sans-serif" font-size="14" font-style="italic" lengthAdjust="spacing" textLength="90" x="874.5" y="68.6982">«repository»</text><text fill="#000000" font-family="sans-serif" font-size="14" lengthAdjust="spacing" textLength="138" x="850.5" y="84.9951">RequestRepository</text><path d="M904.5,19.7031 C904.5,9.7031 922.5,9.7031 922.5,9.7031 C922.5,9.7031 940.5,9.7031 940.5,19.7031 L940.5,45.7031 C940.5,55.7031 922.5,55.7031 922.5,55.7031 C922.5,55.7031 904.5,55.7031 904.5,45.7031 L904.5,19.7031 " fill="#FEFECE" filter="url(#fnloe70ikr22s)" style="stroke:#000000;stroke-width:1.5;"/><path d="M904.5,19.7031 C904.5,29.7031 922.5,29.7031 922.5,29.7031 C922.5,29.7031 940.5,29.7031 940.5,19.7031 " fill="none" style="stroke:#000000;stroke-width:1.5;"/><text fill="#000000" font-family="sans-serif" font-size="14" font-style="italic" lengthAdjust="spacing" textLength="90" x="874.5" y="424.6201">«repository»</text><text fill="#000000" font-family="sans-serif" font-size="14" lengthAdjust="spacing" textLength="138" x="850.5" y="440.917">RequestRepository</text><path d="M904.5,454.2188 C904.5,444.2188 922.5,444.2188 922.5,444.2188 C922.5,444.2188 940.5,444.2188 940.5,454.2188 L940.5,480.2188 C940.5,490.2188 922.5,490.2188 922.5,490.2188 C922.5,490.2188 904.5,490.2188 904.5,480.2188 L904.5,454.2188 " fill="#FEFECE" filter="url(#fnloe70ikr22s)" style="stroke:#000000;stroke-width:1.5;"/><path d="M904.5,454.2188 C904.5,464.2188 922.5,464.2188 922.5,464.2188 C922.5,464.2188 940.5,464.2188 940.5,454.2188 " fill="none" style="stroke:#000000;stroke-width:1.5;"/><rect fill="#FFFFFF" filter="url(#fnloe70ikr22s)" height="275.1953" style="stroke:#A80036;stroke-width:1.0;" width="10" x="241.5" y="119.4297"/><rect fill="#FFFFFF" filter="url(#fnloe70ikr22s)" height="174.7969" style="stroke:#A80036;stroke-width:1.0;" width="10" x="409.5" y="148.5625"/><rect fill="#FFFFFF" filter="url(#fnloe70ikr22s)" height="29.1328" style="stroke:#A80036;stroke-width:1.0;" width="10" x="594" y="206.8281"/><rect fill="#FFFFFF" filter="url(#fnloe70ikr22s)" height="29.1328" style="stroke:#A80036;stroke-width:1.0;" width="10" x="760" y="235.9609"/><rect fill="#FFFFFF" filter="url(#fnloe70ikr22s)" height="29.1328" style="stroke:#A80036;stroke-width:1.0;" width="10" x="917.5" y="265.0938"/><polygon fill="#A80036" points="229.5,115.4297,239.5,119.4297,229.5,123.4297,233.5,119.4297" style="stroke:#A80036;stroke-width:1.0;"/><line style="stroke:#A80036;stroke-width:1.0;" x1="23.5" x2="235.5" y1="119.4297" y2="119.4297"/><text fill="#000000" font-family="sans-serif" font-size="13" lengthAdjust="spacing" textLength="199" x="30.5" y="114.3638">asks for your pending requests</text><polygon fill="#A80036" points="397.5,144.5625,407.5,148.5625,397.5,152.5625,401.5,148.5625" style="stroke:#A80036;stroke-width:1.0;"/><line style="stroke:#A80036;stroke-width:1.0;" x1="251.5" x2="403.5" y1="148.5625" y2="148.5625"/><text fill="#000000" font-family="sans-serif" font-size="13" lengthAdjust="spacing" textLength="41" x="258.5" y="143.4966">create</text><polygon fill="#A80036" points="397.5,173.6953,407.5,177.6953,397.5,181.6953,401.5,177.6953" style="stroke:#A80036;stroke-width:1.0;"/><line style="stroke:#A80036;stroke-width:1.0;" x1="251.5" x2="403.5" y1="177.6953" y2="177.6953"/><text fill="#000000" font-family="sans-serif" font-size="13" lengthAdjust="spacing" textLength="91" x="258.5" y="172.6294">getRequests()</text><polygon fill="#A80036" points="582,202.8281,592,206.8281,582,210.8281,586,206.8281" style="stroke:#A80036;stroke-width:1.0;"/><line style="stroke:#A80036;stroke-width:1.0;" x1="419.5" x2="588" y1="206.8281" y2="206.8281"/><text fill="#000000" font-family="sans-serif" font-size="13" lengthAdjust="spacing" textLength="85" x="426.5" y="201.7622">repositories()</text><polygon fill="#A80036" points="748,231.9609,758,235.9609,748,239.9609,752,235.9609" style="stroke:#A80036;stroke-width:1.0;"/><line style="stroke:#A80036;stroke-width:1.0;" x1="599" x2="754" y1="235.9609" y2="235.9609"/><text fill="#000000" font-family="sans-serif" font-size="13" lengthAdjust="spacing" textLength="41" x="606" y="230.895">create</text><polygon fill="#A80036" points="905.5,261.0938,915.5,265.0938,905.5,269.0938,909.5,265.0938" style="stroke:#A80036;stroke-width:1.0;"/><line style="stroke:#A80036;stroke-width:1.0;" x1="765" x2="911.5" y1="265.0938" y2="265.0938"/><text fill="#000000" font-family="sans-serif" font-size="13" lengthAdjust="spacing" textLength="41" x="772" y="260.0278">create</text><polygon fill="#A80036" points="910.5,290.2266,920.5,294.2266,910.5,298.2266,914.5,294.2266" style="stroke:#A80036;stroke-width:1.0;"/><line style="stroke:#A80036;stroke-width:1.0;" x1="419.5" x2="916.5" y1="294.2266" y2="294.2266"/><text fill="#000000" font-family="sans-serif" font-size="13" lengthAdjust="spacing" textLength="142" x="426.5" y="289.1606">requests(collaborator)</text><polygon fill="#A80036" points="262.5,319.3594,252.5,323.3594,262.5,327.3594,258.5,323.3594" style="stroke:#A80036;stroke-width:1.0;"/><line style="stroke:#A80036;stroke-width:1.0;" x1="256.5" x2="413.5" y1="323.3594" y2="323.3594"/><text fill="#000000" font-family="sans-serif" font-size="13" lengthAdjust="spacing" textLength="56" x="268.5" y="318.2935">requests</text><line style="stroke:#A80036;stroke-width:1.0;" x1="251.5" x2="293.5" y1="352.4922" y2="352.4922"/><line style="stroke:#A80036;stroke-width:1.0;" x1="293.5" x2="293.5" y1="352.4922" y2="365.4922"/><line style="stroke:#A80036;stroke-width:1.0;" x1="252.5" x2="293.5" y1="365.4922" y2="365.4922"/><polygon fill="#A80036" points="262.5,361.4922,252.5,365.4922,262.5,369.4922,258.5,365.4922" style="stroke:#A80036;stroke-width:1.0;"/><text fill="#000000" font-family="sans-serif" font-size="13" lengthAdjust="spacing" textLength="61" x="258.5" y="347.4263">doShow()</text><polygon fill="#A80036" points="34.5,390.625,24.5,394.625,34.5,398.625,30.5,394.625" style="stroke:#A80036;stroke-width:1.0;"/><line style="stroke:#A80036;stroke-width:1.0;stroke-dasharray:2.0,2.0;" x1="28.5" x2="245.5" y1="394.625" y2="394.625"/><text fill="#000000" font-family="sans-serif" font-size="13" lengthAdjust="spacing" textLength="154" x="40.5" y="389.5591">Show pending Requests</text><!--MD5=[8d86dadabd0722403de68d3e9af54da6]
@startuml
actor User as Actor
participant ShowRequestUI as UI <<presentation>>
participant ShowRequestController as Controller <<application>>
participant PersistenceContext as PersistenceContext <<persistence>>
participant RepositoryFactory as RepositoryFactory <<factory>>
database RequestRepository as RequestRepository <<repository>>

Actor -> UI : asks for your pending requests
activate UI
UI -> Controller : create
activate Controller


UI -> Controller : getRequests()


Controller -> PersistenceContext : repositories()
activate PersistenceContext
PersistenceContext -> RepositoryFactory : create
deactivate PersistenceContext
activate RepositoryFactory
RepositoryFactory -> RequestRepository : create
deactivate RepositoryFactory

activate RequestRepository

Controller -> RequestRepository : requests(collaborator)
deactivate RequestRepository
Controller -> UI: requests
deactivate Controller


UI -> UI : doShow()

UI - -> Actor: Show pending Requests
deactivate UI
@enduml

PlantUML version 1.2021.7(Sun May 23 12:40:07 UTC 2021)
(GPL source distribution)
Java Runtime: Java(TM) SE Runtime Environment
JVM: Java HotSpot(TM) 64-Bit Server VM
Default Encoding: UTF-8
Language: en
Country: US
--></g></svg>