<?xml version="1.0" encoding="UTF-8" standalone="no"?><svg xmlns="http://www.w3.org/2000/svg" xmlns:xlink="http://www.w3.org/1999/xlink" contentScriptType="application/ecmascript" contentStyleType="text/css" height="1071px" preserveAspectRatio="none" style="width:628px;height:1071px;" version="1.1" viewBox="0 0 628 1071" width="628px" zoomAndPan="magnify"><defs><filter height="300%" id="f1nwt3jnnryd4b" width="300%" x="-1" y="-1"><feGaussianBlur result="blurOut" stdDeviation="2.0"/><feColorMatrix in="blurOut" result="blurOut2" type="matrix" values="0 0 0 0 0 0 0 0 0 0 0 0 0 0 0 0 0 0 .4 0"/><feOffset dx="4.0" dy="4.0" in="blurOut2" result="blurOut3"/><feBlend in="SourceGraphic" in2="blurOut3" mode="normal"/></filter></defs><g><!--MD5=[9681dc6e01e10c6b4fe06895ae94f592]
cluster UI--><polygon fill="#FFFFFF" filter="url(#f1nwt3jnnryd4b)" points="118,6,140,6,147,28.2969,276,28.2969,276,105,118,105,118,6" style="stroke:#000000;stroke-width:1.5;"/><line style="stroke:#000000;stroke-width:1.5;" x1="118" x2="147" y1="28.2969" y2="28.2969"/><text fill="#000000" font-family="sans-serif" font-size="14" font-weight="bold" lengthAdjust="spacing" textLength="16" x="122" y="20.9951">UI</text><!--MD5=[ed1d20ea533a2a0e7df5ba3c35e56ced]
cluster Controllers--><polygon fill="#FFFFFF" filter="url(#f1nwt3jnnryd4b)" points="82,138,178,138,185,160.2969,312,160.2969,312,327,82,327,82,138" style="stroke:#000000;stroke-width:1.5;"/><line style="stroke:#000000;stroke-width:1.5;" x1="82" x2="185" y1="160.2969" y2="160.2969"/><text fill="#000000" font-family="sans-serif" font-size="14" font-weight="bold" lengthAdjust="spacing" textLength="90" x="86" y="152.9951">Controllers</text><!--MD5=[121a8bf1197281ab89ed693fab589f94]
cluster Domain--><polygon fill="#FFFFFF" filter="url(#f1nwt3jnnryd4b)" points="16,360,83,360,90,382.2969,611,382.2969,611,1064,16,1064,16,360" style="stroke:#000000;stroke-width:1.5;"/><line style="stroke:#000000;stroke-width:1.5;" x1="16" x2="90" y1="382.2969" y2="382.2969"/><text fill="#000000" font-family="sans-serif" font-size="14" font-weight="bold" lengthAdjust="spacing" textLength="61" x="20" y="374.9951">Domain</text><!--MD5=[e1df557a82bc5e599254cc6c344b13bd]
class MakeDeliveryUI--><rect codeLine="20" fill="#FEFECE" filter="url(#f1nwt3jnnryd4b)" height="48" id="MakeDeliveryUI" style="stroke:#A80036;stroke-width:1.5;" width="126" x="134" y="41"/><ellipse cx="149" cy="57" fill="#ADD1B2" rx="11" ry="11" style="stroke:#A80036;stroke-width:1.0;"/><path d="M151.3438,52.6719 C150.4063,52.2344 149.8125,52.0938 148.9375,52.0938 C146.3125,52.0938 144.3125,54.1719 144.3125,56.8906 L144.3125,58.0156 C144.3125,60.5938 146.4219,62.4844 149.3125,62.4844 C150.5313,62.4844 151.6875,62.1875 152.4375,61.6406 C153.0156,61.2344 153.3438,60.7813 153.3438,60.3906 C153.3438,59.9375 152.9531,59.5469 152.4844,59.5469 C152.2656,59.5469 152.0625,59.625 151.875,59.8125 C151.4219,60.2969 151.4219,60.2969 151.2344,60.3906 C150.8125,60.6563 150.125,60.7813 149.3594,60.7813 C147.3125,60.7813 146.0156,59.6875 146.0156,57.9844 L146.0156,56.8906 C146.0156,55.1094 147.2656,53.7969 149,53.7969 C149.5781,53.7969 150.1875,53.9531 150.6563,54.2031 C151.1406,54.4844 151.3125,54.7031 151.4063,55.1094 C151.4688,55.5156 151.5,55.6406 151.6406,55.7656 C151.7813,55.9063 152.0156,56.0156 152.2344,56.0156 C152.5,56.0156 152.7656,55.875 152.9375,55.6563 C153.0469,55.5 153.0781,55.3125 153.0781,54.8906 L153.0781,53.4688 C153.0781,53.0313 153.0625,52.9063 152.9688,52.75 C152.8125,52.4844 152.5313,52.3438 152.2344,52.3438 C151.9375,52.3438 151.7344,52.4375 151.5156,52.75 L151.3438,52.6719 Z " fill="#000000"/><text fill="#000000" font-family="sans-serif" font-size="12" lengthAdjust="spacing" textLength="94" x="163" y="61.1543">MakeDeliveryUI</text><line style="stroke:#A80036;stroke-width:1.5;" x1="135" x2="259" y1="73" y2="73"/><line style="stroke:#A80036;stroke-width:1.5;" x1="135" x2="259" y1="81" y2="81"/><!--MD5=[4607d7ff5e0981f9e1bd80fa108a382a]
class MakeDeliveryController--><rect codeLine="34" fill="#FEFECE" filter="url(#f1nwt3jnnryd4b)" height="137.6328" id="MakeDeliveryController" style="stroke:#A80036;stroke-width:1.5;" width="198" x="98" y="173"/><ellipse cx="124.25" cy="189" fill="#ADD1B2" rx="11" ry="11" style="stroke:#A80036;stroke-width:1.0;"/><path d="M126.5938,184.6719 C125.6563,184.2344 125.0625,184.0938 124.1875,184.0938 C121.5625,184.0938 119.5625,186.1719 119.5625,188.8906 L119.5625,190.0156 C119.5625,192.5938 121.6719,194.4844 124.5625,194.4844 C125.7813,194.4844 126.9375,194.1875 127.6875,193.6406 C128.2656,193.2344 128.5938,192.7813 128.5938,192.3906 C128.5938,191.9375 128.2031,191.5469 127.7344,191.5469 C127.5156,191.5469 127.3125,191.625 127.125,191.8125 C126.6719,192.2969 126.6719,192.2969 126.4844,192.3906 C126.0625,192.6563 125.375,192.7813 124.6094,192.7813 C122.5625,192.7813 121.2656,191.6875 121.2656,189.9844 L121.2656,188.8906 C121.2656,187.1094 122.5156,185.7969 124.25,185.7969 C124.8281,185.7969 125.4375,185.9531 125.9063,186.2031 C126.3906,186.4844 126.5625,186.7031 126.6563,187.1094 C126.7188,187.5156 126.75,187.6406 126.8906,187.7656 C127.0313,187.9063 127.2656,188.0156 127.4844,188.0156 C127.75,188.0156 128.0156,187.875 128.1875,187.6563 C128.2969,187.5 128.3281,187.3125 128.3281,186.8906 L128.3281,185.4688 C128.3281,185.0313 128.3125,184.9063 128.2188,184.75 C128.0625,184.4844 127.7813,184.3438 127.4844,184.3438 C127.1875,184.3438 126.9844,184.4375 126.7656,184.75 L126.5938,184.6719 Z " fill="#000000"/><text fill="#000000" font-family="sans-serif" font-size="12" lengthAdjust="spacing" textLength="141" x="140.75" y="193.1543">MakeDeliveryController</text><line style="stroke:#A80036;stroke-width:1.5;" x1="99" x2="295" y1="205" y2="205"/><line style="stroke:#A80036;stroke-width:1.5;" x1="99" x2="295" y1="213" y2="213"/><text fill="#000000" font-family="sans-serif" font-size="11" lengthAdjust="spacing" textLength="110" x="104" y="227.2104">+getPharmacyList()</text><text fill="#000000" font-family="sans-serif" font-size="11" lengthAdjust="spacing" textLength="91" x="104" y="240.0151">+getPharmacy()</text><text fill="#000000" font-family="sans-serif" font-size="11" lengthAdjust="spacing" textLength="99" x="104" y="252.8198">+getScooterList()</text><text fill="#000000" font-family="sans-serif" font-size="11" lengthAdjust="spacing" textLength="180" x="104" y="265.6245">+getScooter(exclusiveNumber)</text><text fill="#000000" font-family="sans-serif" font-size="11" lengthAdjust="spacing" textLength="104" x="104" y="278.4292">+getDeliveryList()</text><text fill="#000000" font-family="sans-serif" font-size="11" lengthAdjust="spacing" textLength="145" x="104" y="291.2339">+getChoosenDelivery(id)</text><text fill="#000000" font-family="sans-serif" font-size="11" lengthAdjust="spacing" textLength="186" x="104" y="304.0386">+addDeliverySelected(delivery)</text><!--MD5=[99b8db98afdc2c8404e39242ef4c1e65]
class Platform--><rect codeLine="44" fill="#FEFECE" filter="url(#f1nwt3jnnryd4b)" height="86.4141" id="Platform" style="stroke:#A80036;stroke-width:1.5;" width="122" x="32" y="401.5"/><ellipse cx="65.9" cy="417.5" fill="#ADD1B2" rx="11" ry="11" style="stroke:#A80036;stroke-width:1.0;"/><path d="M68.2438,413.1719 C67.3063,412.7344 66.7125,412.5938 65.8375,412.5938 C63.2125,412.5938 61.2125,414.6719 61.2125,417.3906 L61.2125,418.5156 C61.2125,421.0938 63.3219,422.9844 66.2125,422.9844 C67.4313,422.9844 68.5875,422.6875 69.3375,422.1406 C69.9156,421.7344 70.2438,421.2813 70.2438,420.8906 C70.2438,420.4375 69.8531,420.0469 69.3844,420.0469 C69.1656,420.0469 68.9625,420.125 68.775,420.3125 C68.3219,420.7969 68.3219,420.7969 68.1344,420.8906 C67.7125,421.1563 67.025,421.2813 66.2594,421.2813 C64.2125,421.2813 62.9156,420.1875 62.9156,418.4844 L62.9156,417.3906 C62.9156,415.6094 64.1656,414.2969 65.9,414.2969 C66.4781,414.2969 67.0875,414.4531 67.5563,414.7031 C68.0406,414.9844 68.2125,415.2031 68.3063,415.6094 C68.3688,416.0156 68.4,416.1406 68.5406,416.2656 C68.6813,416.4063 68.9156,416.5156 69.1344,416.5156 C69.4,416.5156 69.6656,416.375 69.8375,416.1563 C69.9469,416 69.9781,415.8125 69.9781,415.3906 L69.9781,413.9688 C69.9781,413.5313 69.9625,413.4063 69.8688,413.25 C69.7125,412.9844 69.4313,412.8438 69.1344,412.8438 C68.8375,412.8438 68.6344,412.9375 68.4156,413.25 L68.2438,413.1719 Z " fill="#000000"/><text fill="#000000" font-family="sans-serif" font-size="12" lengthAdjust="spacing" textLength="48" x="84.1" y="421.6543">Platform</text><line style="stroke:#A80036;stroke-width:1.5;" x1="33" x2="153" y1="433.5" y2="433.5"/><line style="stroke:#A80036;stroke-width:1.5;" x1="33" x2="153" y1="441.5" y2="441.5"/><text fill="#000000" font-family="sans-serif" font-size="11" lengthAdjust="spacing" textLength="110" x="38" y="455.7104">+getPharmacyList()</text><text fill="#000000" font-family="sans-serif" font-size="11" lengthAdjust="spacing" textLength="99" x="38" y="468.5151">+getScooterList()</text><text fill="#000000" font-family="sans-serif" font-size="11" lengthAdjust="spacing" textLength="104" x="38" y="481.3198">+getDeliveryList()</text><!--MD5=[9e412867e2230207caa378eacef9b685]
class DeliveryList--><rect codeLine="66" fill="#FEFECE" filter="url(#f1nwt3jnnryd4b)" height="99.2188" id="DeliveryList" style="stroke:#A80036;stroke-width:1.5;" width="406" x="189" y="395"/><ellipse cx="352.75" cy="411" fill="#ADD1B2" rx="11" ry="11" style="stroke:#A80036;stroke-width:1.0;"/><path d="M355.0938,406.6719 C354.1563,406.2344 353.5625,406.0938 352.6875,406.0938 C350.0625,406.0938 348.0625,408.1719 348.0625,410.8906 L348.0625,412.0156 C348.0625,414.5938 350.1719,416.4844 353.0625,416.4844 C354.2813,416.4844 355.4375,416.1875 356.1875,415.6406 C356.7656,415.2344 357.0938,414.7813 357.0938,414.3906 C357.0938,413.9375 356.7031,413.5469 356.2344,413.5469 C356.0156,413.5469 355.8125,413.625 355.625,413.8125 C355.1719,414.2969 355.1719,414.2969 354.9844,414.3906 C354.5625,414.6563 353.875,414.7813 353.1094,414.7813 C351.0625,414.7813 349.7656,413.6875 349.7656,411.9844 L349.7656,410.8906 C349.7656,409.1094 351.0156,407.7969 352.75,407.7969 C353.3281,407.7969 353.9375,407.9531 354.4063,408.2031 C354.8906,408.4844 355.0625,408.7031 355.1563,409.1094 C355.2188,409.5156 355.25,409.6406 355.3906,409.7656 C355.5313,409.9063 355.7656,410.0156 355.9844,410.0156 C356.25,410.0156 356.5156,409.875 356.6875,409.6563 C356.7969,409.5 356.8281,409.3125 356.8281,408.8906 L356.8281,407.4688 C356.8281,407.0313 356.8125,406.9063 356.7188,406.75 C356.5625,406.4844 356.2813,406.3438 355.9844,406.3438 C355.6875,406.3438 355.4844,406.4375 355.2656,406.75 L355.0938,406.6719 Z " fill="#000000"/><text fill="#000000" font-family="sans-serif" font-size="12" lengthAdjust="spacing" textLength="70" x="373.25" y="415.1543">DeliveryList</text><line style="stroke:#A80036;stroke-width:1.5;" x1="190" x2="594" y1="427" y2="427"/><line style="stroke:#A80036;stroke-width:1.5;" x1="190" x2="594" y1="435" y2="435"/><text fill="#000000" font-family="sans-serif" font-size="11" lengthAdjust="spacing" textLength="166" x="195" y="449.2104">+getDeliveryListPharmacy(p)</text><text fill="#000000" font-family="sans-serif" font-size="11" lengthAdjust="spacing" textLength="109" x="195" y="462.0151">+verifyDelivery(id)</text><text fill="#000000" font-family="sans-serif" font-size="11" lengthAdjust="spacing" textLength="205" x="195" y="474.8198">+removeDeliveryFormList(delivery)</text><text fill="#000000" font-family="sans-serif" font-size="11" lengthAdjust="spacing" textLength="394" x="195" y="487.6245">+getEnergySpentInDelivery(distance, scooter, deliveryListPharmacy)</text><!--MD5=[fff5db4abcb6eec6574b9ea9c3ee0eae]
class Delivery--><rect codeLine="58" fill="#FEFECE" filter="url(#f1nwt3jnnryd4b)" height="112.0234" id="Delivery" style="stroke:#A80036;stroke-width:1.5;" width="131" x="326.5" y="571"/><ellipse cx="363.55" cy="587" fill="#ADD1B2" rx="11" ry="11" style="stroke:#A80036;stroke-width:1.0;"/><path d="M365.8938,582.6719 C364.9563,582.2344 364.3625,582.0938 363.4875,582.0938 C360.8625,582.0938 358.8625,584.1719 358.8625,586.8906 L358.8625,588.0156 C358.8625,590.5938 360.9719,592.4844 363.8625,592.4844 C365.0813,592.4844 366.2375,592.1875 366.9875,591.6406 C367.5656,591.2344 367.8938,590.7813 367.8938,590.3906 C367.8938,589.9375 367.5031,589.5469 367.0344,589.5469 C366.8156,589.5469 366.6125,589.625 366.425,589.8125 C365.9719,590.2969 365.9719,590.2969 365.7844,590.3906 C365.3625,590.6563 364.675,590.7813 363.9094,590.7813 C361.8625,590.7813 360.5656,589.6875 360.5656,587.9844 L360.5656,586.8906 C360.5656,585.1094 361.8156,583.7969 363.55,583.7969 C364.1281,583.7969 364.7375,583.9531 365.2063,584.2031 C365.6906,584.4844 365.8625,584.7031 365.9563,585.1094 C366.0188,585.5156 366.05,585.6406 366.1906,585.7656 C366.3313,585.9063 366.5656,586.0156 366.7844,586.0156 C367.05,586.0156 367.3156,585.875 367.4875,585.6563 C367.5969,585.5 367.6281,585.3125 367.6281,584.8906 L367.6281,583.4688 C367.6281,583.0313 367.6125,582.9063 367.5188,582.75 C367.3625,582.4844 367.0813,582.3438 366.7844,582.3438 C366.4875,582.3438 366.2844,582.4375 366.0656,582.75 L365.8938,582.6719 Z " fill="#000000"/><text fill="#000000" font-family="sans-serif" font-size="12" lengthAdjust="spacing" textLength="50" x="382.45" y="591.1543">Delivery</text><line style="stroke:#A80036;stroke-width:1.5;" x1="327.5" x2="456.5" y1="603" y2="603"/><text fill="#000000" font-family="sans-serif" font-size="11" lengthAdjust="spacing" textLength="51" x="332.5" y="617.2104">-String id</text><text fill="#000000" font-family="sans-serif" font-size="11" lengthAdjust="spacing" textLength="113" x="332.5" y="630.0151">-date date_delivery</text><text fill="#000000" font-family="sans-serif" font-size="11" lengthAdjust="spacing" textLength="112" x="332.5" y="642.8198">-double totalWeight</text><text fill="#000000" font-family="sans-serif" font-size="11" lengthAdjust="spacing" textLength="90" x="332.5" y="655.6245">-Invoice invoice</text><text fill="#000000" font-family="sans-serif" font-size="11" lengthAdjust="spacing" textLength="119" x="332.5" y="668.4292">-Pharmacy pharmacy</text><line style="stroke:#A80036;stroke-width:1.5;" x1="327.5" x2="456.5" y1="675.0234" y2="675.0234"/><!--MD5=[cec89c727fbcef50c1f468f5118fb168]
class AvailableScooterList--><rect codeLine="54" fill="#FEFECE" filter="url(#f1nwt3jnnryd4b)" height="60.8047" id="AvailableScooterList" style="stroke:#A80036;stroke-width:1.5;" width="192" x="32" y="987"/><ellipse cx="64.1" cy="1003" fill="#ADD1B2" rx="11" ry="11" style="stroke:#A80036;stroke-width:1.0;"/><path d="M66.4438,998.6719 C65.5063,998.2344 64.9125,998.0938 64.0375,998.0938 C61.4125,998.0938 59.4125,1000.1719 59.4125,1002.8906 L59.4125,1004.0156 C59.4125,1006.5938 61.5219,1008.4844 64.4125,1008.4844 C65.6313,1008.4844 66.7875,1008.1875 67.5375,1007.6406 C68.1156,1007.2344 68.4438,1006.7813 68.4438,1006.3906 C68.4438,1005.9375 68.0531,1005.5469 67.5844,1005.5469 C67.3656,1005.5469 67.1625,1005.625 66.975,1005.8125 C66.5219,1006.2969 66.5219,1006.2969 66.3344,1006.3906 C65.9125,1006.6563 65.225,1006.7813 64.4594,1006.7813 C62.4125,1006.7813 61.1156,1005.6875 61.1156,1003.9844 L61.1156,1002.8906 C61.1156,1001.1094 62.3656,999.7969 64.1,999.7969 C64.6781,999.7969 65.2875,999.9531 65.7563,1000.2031 C66.2406,1000.4844 66.4125,1000.7031 66.5063,1001.1094 C66.5688,1001.5156 66.6,1001.6406 66.7406,1001.7656 C66.8813,1001.9063 67.1156,1002.0156 67.3344,1002.0156 C67.6,1002.0156 67.8656,1001.875 68.0375,1001.6563 C68.1469,1001.5 68.1781,1001.3125 68.1781,1000.8906 L68.1781,999.4688 C68.1781,999.0313 68.1625,998.9063 68.0688,998.75 C67.9125,998.4844 67.6313,998.3438 67.3344,998.3438 C67.0375,998.3438 66.8344,998.4375 66.6156,998.75 L66.4438,998.6719 Z " fill="#000000"/><text fill="#000000" font-family="sans-serif" font-size="12" lengthAdjust="spacing" textLength="122" x="81.9" y="1007.1543">AvailableScooterList</text><line style="stroke:#A80036;stroke-width:1.5;" x1="33" x2="223" y1="1019" y2="1019"/><line style="stroke:#A80036;stroke-width:1.5;" x1="33" x2="223" y1="1027" y2="1027"/><text fill="#000000" font-family="sans-serif" font-size="11" lengthAdjust="spacing" textLength="180" x="38" y="1041.2104">+getScooter(exclusiveNumber)</text><!--MD5=[8050ef462d77cf220fd706493bc05cc9]
class PharmacyList--><rect codeLine="50" fill="#FEFECE" filter="url(#f1nwt3jnnryd4b)" height="60.8047" id="PharmacyList" style="stroke:#A80036;stroke-width:1.5;" width="109" x="54.5" y="596.5"/><ellipse cx="69.5" cy="612.5" fill="#ADD1B2" rx="11" ry="11" style="stroke:#A80036;stroke-width:1.0;"/><path d="M71.8438,608.1719 C70.9063,607.7344 70.3125,607.5938 69.4375,607.5938 C66.8125,607.5938 64.8125,609.6719 64.8125,612.3906 L64.8125,613.5156 C64.8125,616.0938 66.9219,617.9844 69.8125,617.9844 C71.0313,617.9844 72.1875,617.6875 72.9375,617.1406 C73.5156,616.7344 73.8438,616.2813 73.8438,615.8906 C73.8438,615.4375 73.4531,615.0469 72.9844,615.0469 C72.7656,615.0469 72.5625,615.125 72.375,615.3125 C71.9219,615.7969 71.9219,615.7969 71.7344,615.8906 C71.3125,616.1563 70.625,616.2813 69.8594,616.2813 C67.8125,616.2813 66.5156,615.1875 66.5156,613.4844 L66.5156,612.3906 C66.5156,610.6094 67.7656,609.2969 69.5,609.2969 C70.0781,609.2969 70.6875,609.4531 71.1563,609.7031 C71.6406,609.9844 71.8125,610.2031 71.9063,610.6094 C71.9688,611.0156 72,611.1406 72.1406,611.2656 C72.2813,611.4063 72.5156,611.5156 72.7344,611.5156 C73,611.5156 73.2656,611.375 73.4375,611.1563 C73.5469,611 73.5781,610.8125 73.5781,610.3906 L73.5781,608.9688 C73.5781,608.5313 73.5625,608.4063 73.4688,608.25 C73.3125,607.9844 73.0313,607.8438 72.7344,607.8438 C72.4375,607.8438 72.2344,607.9375 72.0156,608.25 L71.8438,608.1719 Z " fill="#000000"/><text fill="#000000" font-family="sans-serif" font-size="12" lengthAdjust="spacing" textLength="77" x="83.5" y="616.6543">PharmacyList</text><line style="stroke:#A80036;stroke-width:1.5;" x1="55.5" x2="162.5" y1="628.5" y2="628.5"/><line style="stroke:#A80036;stroke-width:1.5;" x1="55.5" x2="162.5" y1="636.5" y2="636.5"/><text fill="#000000" font-family="sans-serif" font-size="11" lengthAdjust="spacing" textLength="91" x="60.5" y="650.7104">+getPharmacy()</text><!--MD5=[7f2a9fafcebe4f099f71398fd3e2ed00]
class Pharmacy--><rect codeLine="23" fill="#FEFECE" filter="url(#f1nwt3jnnryd4b)" height="150.4375" id="Pharmacy" style="stroke:#A80036;stroke-width:1.5;" width="152" x="42" y="760"/><ellipse cx="85.35" cy="776" fill="#ADD1B2" rx="11" ry="11" style="stroke:#A80036;stroke-width:1.0;"/><path d="M87.6938,771.6719 C86.7563,771.2344 86.1625,771.0938 85.2875,771.0938 C82.6625,771.0938 80.6625,773.1719 80.6625,775.8906 L80.6625,777.0156 C80.6625,779.5938 82.7719,781.4844 85.6625,781.4844 C86.8813,781.4844 88.0375,781.1875 88.7875,780.6406 C89.3656,780.2344 89.6938,779.7813 89.6938,779.3906 C89.6938,778.9375 89.3031,778.5469 88.8344,778.5469 C88.6156,778.5469 88.4125,778.625 88.225,778.8125 C87.7719,779.2969 87.7719,779.2969 87.5844,779.3906 C87.1625,779.6563 86.475,779.7813 85.7094,779.7813 C83.6625,779.7813 82.3656,778.6875 82.3656,776.9844 L82.3656,775.8906 C82.3656,774.1094 83.6156,772.7969 85.35,772.7969 C85.9281,772.7969 86.5375,772.9531 87.0063,773.2031 C87.4906,773.4844 87.6625,773.7031 87.7563,774.1094 C87.8188,774.5156 87.85,774.6406 87.9906,774.7656 C88.1313,774.9063 88.3656,775.0156 88.5844,775.0156 C88.85,775.0156 89.1156,774.875 89.2875,774.6563 C89.3969,774.5 89.4281,774.3125 89.4281,773.8906 L89.4281,772.4688 C89.4281,772.0313 89.4125,771.9063 89.3188,771.75 C89.1625,771.4844 88.8813,771.3438 88.5844,771.3438 C88.2875,771.3438 88.0844,771.4375 87.8656,771.75 L87.6938,771.6719 Z " fill="#000000"/><text fill="#000000" font-family="sans-serif" font-size="12" lengthAdjust="spacing" textLength="57" x="105.65" y="780.1543">Pharmacy</text><line style="stroke:#A80036;stroke-width:1.5;" x1="43" x2="193" y1="792" y2="792"/><text fill="#000000" font-family="sans-serif" font-size="11" lengthAdjust="spacing" textLength="51" x="48" y="806.2104">-String id</text><text fill="#000000" font-family="sans-serif" font-size="11" lengthAdjust="spacing" textLength="107" x="48" y="819.0151">-String designation</text><text fill="#000000" font-family="sans-serif" font-size="11" lengthAdjust="spacing" textLength="73" x="48" y="831.8198">-String email</text><text fill="#000000" font-family="sans-serif" font-size="11" lengthAdjust="spacing" textLength="94" x="48" y="844.6245">-String password</text><text fill="#000000" font-family="sans-serif" font-size="11" lengthAdjust="spacing" textLength="85" x="48" y="857.4292">-Adress adress</text><text fill="#000000" font-family="sans-serif" font-size="11" lengthAdjust="spacing" textLength="89" x="48" y="870.2339">-ParkingLot park</text><text fill="#000000" font-family="sans-serif" font-size="11" lengthAdjust="spacing" textLength="78" x="48" y="883.0386">-ProductList pl</text><text fill="#000000" font-family="sans-serif" font-size="11" lengthAdjust="spacing" textLength="140" x="48" y="895.8433">-AvailableScooterList asl</text><line style="stroke:#A80036;stroke-width:1.5;" x1="43" x2="193" y1="902.4375" y2="902.4375"/><!--MD5=[e5137f4a64ef481826abdbfdef48e03c]
link MakeDeliveryUI to MakeDeliveryController--><path codeLine="73" d="M197,89.239 C197,109.282 197,139.353 197,167.453 " fill="none" id="MakeDeliveryUI-to-MakeDeliveryController" style="stroke:#A80036;stroke-width:1.0;stroke-dasharray:7.0,7.0;"/><polygon fill="#A80036" points="197,172.674,201,163.674,197,167.674,193,163.674,197,172.674" style="stroke:#A80036;stroke-width:1.0;"/><!--MD5=[609bcfc69672a60d79ad5fdb7420f4bf]
link MakeDeliveryController to Platform--><path codeLine="75" d="M161.645,311.16 C147.066,339.268 130.534,371.138 117.348,396.559 " fill="none" id="MakeDeliveryController-to-Platform" style="stroke:#A80036;stroke-width:1.0;stroke-dasharray:7.0,7.0;"/><polygon fill="#A80036" points="114.926,401.228,122.6214,395.0814,117.2287,396.7898,115.5202,391.3971,114.926,401.228" style="stroke:#A80036;stroke-width:1.0;"/><!--MD5=[529c23a8d0c463fd23132b420eaed469]
link MakeDeliveryController to DeliveryList--><path codeLine="76" d="M263.29,311.16 C288.653,337.238 317.166,366.555 340.896,390.955 " fill="none" id="MakeDeliveryController-to-DeliveryList" style="stroke:#A80036;stroke-width:1.0;stroke-dasharray:7.0,7.0;"/><polygon fill="#A80036" points="344.663,394.828,341.256,385.5872,341.1771,391.2435,335.5208,391.1647,344.663,394.828" style="stroke:#A80036;stroke-width:1.0;"/><!--MD5=[4ceb3377d1256b98e7fe864520c13780]
link DeliveryList to Delivery--><path codeLine="78" d="M392,494.346 C392,517.942 392,546.358 392,570.742 " fill="none" id="DeliveryList-Delivery" style="stroke:#A80036;stroke-width:1.0;"/><text fill="#000000" font-family="sans-serif" font-size="13" lengthAdjust="spacing" textLength="33" x="393" y="537.0669">has&gt;</text><text fill="#000000" font-family="sans-serif" font-size="13" lengthAdjust="spacing" textLength="8" x="383.4625" y="514.113">1</text><text fill="#000000" font-family="sans-serif" font-size="13" lengthAdjust="spacing" textLength="23" x="367.5984" y="560.0451">1..*</text><!--MD5=[2bc5a413d94b08902b9f3d0151eb30f1]
link Platform to PharmacyList--><path codeLine="80" d="M96.7513,487.819 C99.707,521.163 103.753,566.804 106.371,596.346 " fill="none" id="Platform-PharmacyList" style="stroke:#A80036;stroke-width:1.0;"/><text fill="#000000" font-family="sans-serif" font-size="13" lengthAdjust="spacing" textLength="33" x="102" y="537.0669">has&gt;</text><text fill="#000000" font-family="sans-serif" font-size="13" lengthAdjust="spacing" textLength="8" x="88.7117" y="507.9628">1</text><text fill="#000000" font-family="sans-serif" font-size="13" lengthAdjust="spacing" textLength="8" x="97.0043" y="585.5775">1</text><!--MD5=[dcb9e7f24fda9389b72d4bf35ba5a068]
link PharmacyList to Pharmacy--><path codeLine="82" d="M110.289,657.515 C111.451,684.104 113.208,724.326 114.752,759.659 " fill="none" id="PharmacyList-Pharmacy" style="stroke:#A80036;stroke-width:1.0;"/><text fill="#000000" font-family="sans-serif" font-size="13" lengthAdjust="spacing" textLength="33" x="115" y="726.0669">has&gt;</text><text fill="#000000" font-family="sans-serif" font-size="13" lengthAdjust="spacing" textLength="8" x="101.7299" y="677.4563">1</text><text fill="#000000" font-family="sans-serif" font-size="13" lengthAdjust="spacing" textLength="23" x="90.3464" y="748.8156">0..*</text><!--MD5=[a61b24e3c7e805e83741056ccfd59cca]
link Pharmacy to AvailableScooterList--><path codeLine="84" d="M122.111,910.198 C123.597,937.035 125.193,965.828 126.347,986.6704 " fill="none" id="Pharmacy-AvailableScooterList" style="stroke:#A80036;stroke-width:1.0;"/><text fill="#000000" font-family="sans-serif" font-size="13" lengthAdjust="spacing" textLength="33" x="126" y="953.0669">has&gt;</text><text fill="#000000" font-family="sans-serif" font-size="13" lengthAdjust="spacing" textLength="8" x="114.1219" y="930.3905">1</text><text fill="#000000" font-family="sans-serif" font-size="13" lengthAdjust="spacing" textLength="8" x="117.1811" y="975.8652">1</text><!--MD5=[1522822138cec42cf54fafb8cb540eaa]
@startuml
skinparam classAttributeIconSize 0

package UI <<Folder>> {
  class MakeDeliveryUI
}

package Controllers <<Folder>> {
  class MakeDeliveryController
}

package Domain <<Folder>> {
  class Platform
  class DeliveryList
  class Delivery
  class AvailableScooterList
  class PharmacyList
  class Pharmacy
}

class MakeDeliveryUI {
}

class Pharmacy{
  -String id
  -String designation
  -String email
  -String password
  -Adress adress
  -ParkingLot park
  -ProductList pl
  -AvailableScooterList asl
}

class MakeDeliveryController {
  +getPharmacyList()
  +getPharmacy()
  +getScooterList()
  +getScooter(exclusiveNumber)
  +getDeliveryList()
  +getChoosenDelivery(id)
  +addDeliverySelected(delivery)
}

class Platform {
  +getPharmacyList()
  +getScooterList()
  +getDeliveryList()
}

class PharmacyList {
  +getPharmacy()
}

class AvailableScooterList {
  +getScooter(exclusiveNumber)
}

class Delivery {
  -String id
  - date date_delivery 
  -double totalWeight
  -Invoice invoice
  -Pharmacy pharmacy
}

class DeliveryList {
  +getDeliveryListPharmacy(p)    
  +verifyDelivery(id)
  +removeDeliveryFormList(delivery)
  +getEnergySpentInDelivery(distance, scooter, deliveryListPharmacy)
}

MakeDeliveryUI ..> MakeDeliveryController

MakeDeliveryController ..> Platform
MakeDeliveryController ..> DeliveryList

DeliveryList"1" - - "1..*" Delivery : has>

Platform"1" - - "1" PharmacyList : has>

PharmacyList"1" - - "0..*" Pharmacy : has>

Pharmacy"1" - - "1" AvailableScooterList : has>
@enduml

PlantUML version 1.2020.27beta8(Unknown compile time)
(GPL source distribution)
Java Runtime: Java(TM) SE Runtime Environment
JVM: Java HotSpot(TM) 64-Bit Server VM
Default Encoding: UTF-8
Language: en
Country: US
--></g></svg>