<?xml version="1.0" encoding="UTF-8" standalone="no"?><svg xmlns="http://www.w3.org/2000/svg" xmlns:xlink="http://www.w3.org/1999/xlink" contentScriptType="application/ecmascript" contentStyleType="text/css" height="1417px" preserveAspectRatio="none" style="width:1328px;height:1417px;background:#FFFFFF;" version="1.1" viewBox="0 0 1328 1417" width="1328px" zoomAndPan="magnify"><defs><filter height="300%" id="fml3i24srwuqw" width="300%" x="-1" y="-1"><feGaussianBlur result="blurOut" stdDeviation="2.0"/><feColorMatrix in="blurOut" result="blurOut2" type="matrix" values="0 0 0 0 0 0 0 0 0 0 0 0 0 0 0 0 0 0 .4 0"/><feOffset dx="4.0" dy="4.0" in="blurOut2" result="blurOut3"/><feBlend in="SourceGraphic" in2="blurOut3" mode="normal"/></filter></defs><g><rect fill="#FFFFFF" filter="url(#fml3i24srwuqw)" height="1195.7188" style="stroke:#A80036;stroke-width:1.0;" width="10" x="230" y="119.4297"/><rect fill="#FFFFFF" filter="url(#fml3i24srwuqw)" height="59.1328" style="stroke:#A80036;stroke-width:1.0;" width="10" x="468" y="423.0234"/><rect fill="#FFFFFF" filter="url(#fml3i24srwuqw)" height="59.1328" style="stroke:#A80036;stroke-width:1.0;" width="10" x="468" y="569.5547"/><rect fill="#FFFFFF" filter="url(#fml3i24srwuqw)" height="177.6641" style="stroke:#A80036;stroke-width:1.0;" width="10" x="468" y="703.0859"/><rect fill="#FFFFFF" filter="url(#fml3i24srwuqw)" height="59.1328" style="stroke:#A80036;stroke-width:1.0;" width="10" x="468" y="924.6875"/><rect fill="#FFFFFF" filter="url(#fml3i24srwuqw)" height="162.5313" style="stroke:#A80036;stroke-width:1.0;" width="10" x="468" y="1116.4844"/><rect fill="#FFFFFF" filter="url(#fml3i24srwuqw)" height="30" style="stroke:#A80036;stroke-width:1.0;" width="10" x="706" y="452.1563"/><rect fill="#FFFFFF" filter="url(#fml3i24srwuqw)" height="30" style="stroke:#A80036;stroke-width:1.0;" width="10" x="706" y="598.6875"/><rect fill="#FFFFFF" filter="url(#fml3i24srwuqw)" height="89.3984" style="stroke:#A80036;stroke-width:1.0;" width="10" x="706" y="732.2188"/><rect fill="#FFFFFF" filter="url(#fml3i24srwuqw)" height="74.2656" style="stroke:#A80036;stroke-width:1.0;" width="10" x="706" y="1145.6172"/><rect fill="#FFFFFF" filter="url(#fml3i24srwuqw)" height="30" style="stroke:#A80036;stroke-width:1.0;" width="10" x="1067" y="791.6172"/><rect fill="#FFFFFF" filter="url(#fml3i24srwuqw)" height="30" style="stroke:#A80036;stroke-width:1.0;" width="10" x="1067" y="1189.8828"/><rect fill="#FFFFFF" filter="url(#fml3i24srwuqw)" height="30" style="stroke:#A80036;stroke-width:1.0;" width="10" x="1226.5" y="850.75"/><rect fill="#FFFFFF" filter="url(#fml3i24srwuqw)" height="30" style="stroke:#A80036;stroke-width:1.0;" width="10" x="1226.5" y="953.8203"/><rect fill="#FFFFFF" filter="url(#fml3i24srwuqw)" height="30" style="stroke:#A80036;stroke-width:1.0;" width="10" x="1226.5" y="1249.0156"/><rect fill="#FFFFFF" filter="url(#fml3i24srwuqw)" height="1064.0547" style="stroke:#000000;stroke-width:2.0;" width="1304" x="10" y="222.9609"/><rect fill="#FFFFFF" height="398.2656" style="stroke:none;stroke-width:1.0;" width="1304" x="10" y="888.75"/><line style="stroke:#A80036;stroke-width:1.0;stroke-dasharray:5.0,5.0;" x1="38" x2="38" y1="88.2969" y2="1333.1484"/><line style="stroke:#A80036;stroke-width:1.0;stroke-dasharray:5.0,5.0;" x1="235" x2="235" y1="88.2969" y2="1333.1484"/><line style="stroke:#A80036;stroke-width:1.0;stroke-dasharray:5.0,5.0;" x1="473" x2="473" y1="88.2969" y2="1333.1484"/><line style="stroke:#A80036;stroke-width:1.0;stroke-dasharray:5.0,5.0;" x1="710.5" x2="710.5" y1="88.2969" y2="1333.1484"/><line style="stroke:#A80036;stroke-width:1.0;stroke-dasharray:5.0,5.0;" x1="1072" x2="1072" y1="88.2969" y2="1333.1484"/><line style="stroke:#A80036;stroke-width:1.0;stroke-dasharray:5.0,5.0;" x1="1231" x2="1231" y1="88.2969" y2="1333.1484"/><text fill="#000000" font-family="sans-serif" font-size="14" lengthAdjust="spacing" textLength="30" x="20" y="84.9951">GSH</text><ellipse cx="38" cy="15" fill="#FEFECE" filter="url(#fml3i24srwuqw)" rx="8" ry="8" style="stroke:#A80036;stroke-width:2.0;"/><path d="M38,23 L38,50 M25,31 L51,31 M38,50 L25,65 M38,50 L51,65 " fill="none" filter="url(#fml3i24srwuqw)" style="stroke:#A80036;stroke-width:2.0;"/><text fill="#000000" font-family="sans-serif" font-size="14" lengthAdjust="spacing" textLength="30" x="20" y="1345.1436">GSH</text><ellipse cx="38" cy="1358.4453" fill="#FEFECE" filter="url(#fml3i24srwuqw)" rx="8" ry="8" style="stroke:#A80036;stroke-width:2.0;"/><path d="M38,1366.4453 L38,1393.4453 M25,1374.4453 L51,1374.4453 M38,1393.4453 L25,1408.4453 M38,1393.4453 L51,1408.4453 " fill="none" filter="url(#fml3i24srwuqw)" style="stroke:#A80036;stroke-width:2.0;"/><rect fill="#FEFECE" filter="url(#fml3i24srwuqw)" height="46.5938" style="stroke:#A80036;stroke-width:1.5;" width="134" x="166" y="36.7031"/><text fill="#000000" font-family="sans-serif" font-size="14" font-style="italic" lengthAdjust="spacing" textLength="108" x="179" y="56.6982">«presentation»</text><text fill="#000000" font-family="sans-serif" font-size="14" lengthAdjust="spacing" textLength="120" x="173" y="72.9951">SpecifyServiceUI</text><rect fill="#FEFECE" filter="url(#fml3i24srwuqw)" height="46.5938" style="stroke:#A80036;stroke-width:1.5;" width="134" x="166" y="1332.1484"/><text fill="#000000" font-family="sans-serif" font-size="14" font-style="italic" lengthAdjust="spacing" textLength="108" x="179" y="1352.1436">«presentation»</text><text fill="#000000" font-family="sans-serif" font-size="14" lengthAdjust="spacing" textLength="120" x="173" y="1368.4404">SpecifyServiceUI</text><rect fill="#FEFECE" filter="url(#fml3i24srwuqw)" height="46.5938" style="stroke:#A80036;stroke-width:1.5;" width="194" x="374" y="36.7031"/><text fill="#000000" font-family="sans-serif" font-size="14" font-style="italic" lengthAdjust="spacing" textLength="97" x="422.5" y="56.6982">«application»</text><text fill="#000000" font-family="sans-serif" font-size="14" lengthAdjust="spacing" textLength="180" x="381" y="72.9951">SpecifyServiceController</text><rect fill="#FEFECE" filter="url(#fml3i24srwuqw)" height="46.5938" style="stroke:#A80036;stroke-width:1.5;" width="194" x="374" y="1332.1484"/><text fill="#000000" font-family="sans-serif" font-size="14" font-style="italic" lengthAdjust="spacing" textLength="97" x="422.5" y="1352.1436">«application»</text><text fill="#000000" font-family="sans-serif" font-size="14" lengthAdjust="spacing" textLength="180" x="381" y="1368.4404">SpecifyServiceController</text><rect fill="#FEFECE" filter="url(#fml3i24srwuqw)" height="46.5938" style="stroke:#A80036;stroke-width:1.5;" width="117" x="650.5" y="36.7031"/><text fill="#000000" font-family="sans-serif" font-size="14" font-style="italic" lengthAdjust="spacing" textLength="68" x="675" y="56.6982">«builder»</text><text fill="#000000" font-family="sans-serif" font-size="14" lengthAdjust="spacing" textLength="103" x="657.5" y="72.9951">ServiceBuilder</text><rect fill="#FEFECE" filter="url(#fml3i24srwuqw)" height="46.5938" style="stroke:#A80036;stroke-width:1.5;" width="117" x="650.5" y="1332.1484"/><text fill="#000000" font-family="sans-serif" font-size="14" font-style="italic" lengthAdjust="spacing" textLength="68" x="675" y="1352.1436">«builder»</text><text fill="#000000" font-family="sans-serif" font-size="14" lengthAdjust="spacing" textLength="103" x="657.5" y="1368.4404">ServiceBuilder</text><rect fill="#FEFECE" filter="url(#fml3i24srwuqw)" height="46.5938" style="stroke:#A80036;stroke-width:1.5;" width="150" x="995" y="36.7031"/><text fill="#000000" font-family="sans-serif" font-size="14" font-style="italic" lengthAdjust="spacing" textLength="72" x="1034" y="56.6982">«domain»</text><text fill="#000000" font-family="sans-serif" font-size="14" lengthAdjust="spacing" textLength="136" x="1002" y="72.9951">theService:Service</text><rect fill="#FEFECE" filter="url(#fml3i24srwuqw)" height="46.5938" style="stroke:#A80036;stroke-width:1.5;" width="150" x="995" y="1332.1484"/><text fill="#000000" font-family="sans-serif" font-size="14" font-style="italic" lengthAdjust="spacing" textLength="72" x="1034" y="1352.1436">«domain»</text><text fill="#000000" font-family="sans-serif" font-size="14" lengthAdjust="spacing" textLength="136" x="1002" y="1368.4404">theService:Service</text><text fill="#000000" font-family="sans-serif" font-size="14" font-style="italic" lengthAdjust="spacing" textLength="90" x="1183.5" y="68.6982">«repository»</text><text fill="#000000" font-family="sans-serif" font-size="14" lengthAdjust="spacing" textLength="139" x="1159" y="84.9951">ServicesRepository</text><path d="M1213.5,19.7031 C1213.5,9.7031 1231.5,9.7031 1231.5,9.7031 C1231.5,9.7031 1249.5,9.7031 1249.5,19.7031 L1249.5,45.7031 C1249.5,55.7031 1231.5,55.7031 1231.5,55.7031 C1231.5,55.7031 1213.5,55.7031 1213.5,45.7031 L1213.5,19.7031 " fill="#FEFECE" filter="url(#fml3i24srwuqw)" style="stroke:#000000;stroke-width:1.5;"/><path d="M1213.5,19.7031 C1213.5,29.7031 1231.5,29.7031 1231.5,29.7031 C1231.5,29.7031 1249.5,29.7031 1249.5,19.7031 " fill="none" style="stroke:#000000;stroke-width:1.5;"/><text fill="#000000" font-family="sans-serif" font-size="14" font-style="italic" lengthAdjust="spacing" textLength="90" x="1183.5" y="1345.1436">«repository»</text><text fill="#000000" font-family="sans-serif" font-size="14" lengthAdjust="spacing" textLength="139" x="1159" y="1361.4404">ServicesRepository</text><path d="M1213.5,1374.7422 C1213.5,1364.7422 1231.5,1364.7422 1231.5,1364.7422 C1231.5,1364.7422 1249.5,1364.7422 1249.5,1374.7422 L1249.5,1400.7422 C1249.5,1410.7422 1231.5,1410.7422 1231.5,1410.7422 C1231.5,1410.7422 1213.5,1410.7422 1213.5,1400.7422 L1213.5,1374.7422 " fill="#FEFECE" filter="url(#fml3i24srwuqw)" style="stroke:#000000;stroke-width:1.5;"/><path d="M1213.5,1374.7422 C1213.5,1384.7422 1231.5,1384.7422 1231.5,1384.7422 C1231.5,1384.7422 1249.5,1384.7422 1249.5,1374.7422 " fill="none" style="stroke:#000000;stroke-width:1.5;"/><rect fill="#FFFFFF" filter="url(#fml3i24srwuqw)" height="1195.7188" style="stroke:#A80036;stroke-width:1.0;" width="10" x="230" y="119.4297"/><rect fill="#FFFFFF" filter="url(#fml3i24srwuqw)" height="59.1328" style="stroke:#A80036;stroke-width:1.0;" width="10" x="468" y="423.0234"/><rect fill="#FFFFFF" filter="url(#fml3i24srwuqw)" height="59.1328" style="stroke:#A80036;stroke-width:1.0;" width="10" x="468" y="569.5547"/><rect fill="#FFFFFF" filter="url(#fml3i24srwuqw)" height="177.6641" style="stroke:#A80036;stroke-width:1.0;" width="10" x="468" y="703.0859"/><rect fill="#FFFFFF" filter="url(#fml3i24srwuqw)" height="59.1328" style="stroke:#A80036;stroke-width:1.0;" width="10" x="468" y="924.6875"/><rect fill="#FFFFFF" filter="url(#fml3i24srwuqw)" height="162.5313" style="stroke:#A80036;stroke-width:1.0;" width="10" x="468" y="1116.4844"/><rect fill="#FFFFFF" filter="url(#fml3i24srwuqw)" height="30" style="stroke:#A80036;stroke-width:1.0;" width="10" x="706" y="452.1563"/><rect fill="#FFFFFF" filter="url(#fml3i24srwuqw)" height="30" style="stroke:#A80036;stroke-width:1.0;" width="10" x="706" y="598.6875"/><rect fill="#FFFFFF" filter="url(#fml3i24srwuqw)" height="89.3984" style="stroke:#A80036;stroke-width:1.0;" width="10" x="706" y="732.2188"/><rect fill="#FFFFFF" filter="url(#fml3i24srwuqw)" height="74.2656" style="stroke:#A80036;stroke-width:1.0;" width="10" x="706" y="1145.6172"/><rect fill="#FFFFFF" filter="url(#fml3i24srwuqw)" height="30" style="stroke:#A80036;stroke-width:1.0;" width="10" x="1067" y="791.6172"/><rect fill="#FFFFFF" filter="url(#fml3i24srwuqw)" height="30" style="stroke:#A80036;stroke-width:1.0;" width="10" x="1067" y="1189.8828"/><rect fill="#FFFFFF" filter="url(#fml3i24srwuqw)" height="30" style="stroke:#A80036;stroke-width:1.0;" width="10" x="1226.5" y="850.75"/><rect fill="#FFFFFF" filter="url(#fml3i24srwuqw)" height="30" style="stroke:#A80036;stroke-width:1.0;" width="10" x="1226.5" y="953.8203"/><rect fill="#FFFFFF" filter="url(#fml3i24srwuqw)" height="30" style="stroke:#A80036;stroke-width:1.0;" width="10" x="1226.5" y="1249.0156"/><polygon fill="#A80036" points="218,115.4297,228,119.4297,218,123.4297,222,119.4297" style="stroke:#A80036;stroke-width:1.0;"/><line style="stroke:#A80036;stroke-width:1.0;stroke-dasharray:2.0,2.0;" x1="38" x2="224" y1="119.4297" y2="119.4297"/><text fill="#000000" font-family="sans-serif" font-size="13" lengthAdjust="spacing" textLength="97" x="45" y="114.3638">Specify service</text><polygon fill="#A80036" points="49,174.8281,39,178.8281,49,182.8281,45,178.8281" style="stroke:#A80036;stroke-width:1.0;"/><line style="stroke:#A80036;stroke-width:1.0;stroke-dasharray:2.0,2.0;" x1="43" x2="229" y1="178.8281" y2="178.8281"/><text fill="#000000" font-family="sans-serif" font-size="13" lengthAdjust="spacing" textLength="125" x="55" y="143.4966">Ask if want to creat</text><text fill="#000000" font-family="sans-serif" font-size="13" lengthAdjust="spacing" textLength="143" x="55" y="158.6294">a new one or continue</text><text fill="#000000" font-family="sans-serif" font-size="13" lengthAdjust="spacing" textLength="99" x="55" y="173.7622">an incompleted</text><polygon fill="#A80036" points="218,203.9609,228,207.9609,218,211.9609,222,207.9609" style="stroke:#A80036;stroke-width:1.0;"/><line style="stroke:#A80036;stroke-width:1.0;stroke-dasharray:2.0,2.0;" x1="38" x2="224" y1="207.9609" y2="207.9609"/><text fill="#000000" font-family="sans-serif" font-size="13" lengthAdjust="spacing" textLength="42" x="45" y="202.895">Option</text><path d="M10,222.9609 L82,222.9609 L82,229.9609 L72,239.9609 L10,239.9609 L10,222.9609 " fill="#EEEEEE" style="stroke:#000000;stroke-width:1.0;"/><rect fill="none" height="1064.0547" style="stroke:#000000;stroke-width:2.0;" width="1304" x="10" y="222.9609"/><text fill="#000000" font-family="sans-serif" font-size="13" font-weight="bold" lengthAdjust="spacing" textLength="27" x="25" y="236.0278">opt</text><text fill="#000000" font-family="sans-serif" font-size="11" font-weight="bold" lengthAdjust="spacing" textLength="36" x="97" y="235.1714">[new]</text><rect fill="#FFFFFF" filter="url(#fml3i24srwuqw)" height="40.2656" style="stroke:#000000;stroke-width:2.0;" width="142" x="163" y="240.0938"/><polygon fill="#EEEEEE" points="163,240.0938,231,240.0938,231,247.0938,221,257.0938,163,257.0938,163,240.0938" style="stroke:#000000;stroke-width:2.0;"/><text fill="#000000" font-family="sans-serif" font-size="13" font-weight="bold" lengthAdjust="spacing" textLength="23" x="176" y="254.1606">ref</text><text fill="#000000" font-family="sans-serif" font-size="13" lengthAdjust="spacing" textLength="134" x="169" y="273.1606">ShowAllCatallogs_SD</text><polygon fill="#A80036" points="49,302.4922,39,306.4922,49,310.4922,45,306.4922" style="stroke:#A80036;stroke-width:1.0;"/><line style="stroke:#A80036;stroke-width:1.0;stroke-dasharray:2.0,2.0;" x1="43" x2="229" y1="306.4922" y2="306.4922"/><text fill="#000000" font-family="sans-serif" font-size="13" lengthAdjust="spacing" textLength="168" x="55" y="301.4263">ask to choose a catalogue</text><polygon fill="#A80036" points="218,331.625,228,335.625,218,339.625,222,335.625" style="stroke:#A80036;stroke-width:1.0;"/><line style="stroke:#A80036;stroke-width:1.0;stroke-dasharray:2.0,2.0;" x1="38" x2="224" y1="335.625" y2="335.625"/><text fill="#000000" font-family="sans-serif" font-size="13" lengthAdjust="spacing" textLength="46" x="45" y="330.5591">choose</text><polygon fill="#A80036" points="49,360.7578,39,364.7578,49,368.7578,45,364.7578" style="stroke:#A80036;stroke-width:1.0;"/><line style="stroke:#A80036;stroke-width:1.0;stroke-dasharray:2.0,2.0;" x1="43" x2="229" y1="364.7578" y2="364.7578"/><text fill="#000000" font-family="sans-serif" font-size="13" lengthAdjust="spacing" textLength="72" x="55" y="359.6919">ask for title</text><polygon fill="#A80036" points="218,389.8906,228,393.8906,218,397.8906,222,393.8906" style="stroke:#A80036;stroke-width:1.0;"/><line style="stroke:#A80036;stroke-width:1.0;stroke-dasharray:2.0,2.0;" x1="38" x2="224" y1="393.8906" y2="393.8906"/><text fill="#000000" font-family="sans-serif" font-size="13" lengthAdjust="spacing" textLength="92" x="45" y="388.8247">Enter the data</text><polygon fill="#A80036" points="456,419.0234,466,423.0234,456,427.0234,460,423.0234" style="stroke:#A80036;stroke-width:1.0;"/><line style="stroke:#A80036;stroke-width:1.0;stroke-dasharray:2.0,2.0;" x1="240" x2="462" y1="423.0234" y2="423.0234"/><text fill="#000000" font-family="sans-serif" font-size="13" lengthAdjust="spacing" textLength="209" x="247" y="417.9575">specifyUniqueCode(uniqueCode)</text><polygon fill="#A80036" points="694,448.1563,704,452.1563,694,456.1563,698,452.1563" style="stroke:#A80036;stroke-width:1.0;"/><line style="stroke:#A80036;stroke-width:1.0;" x1="478" x2="700" y1="452.1563" y2="452.1563"/><text fill="#000000" font-family="sans-serif" font-size="13" lengthAdjust="spacing" textLength="209" x="485" y="447.0903">specifyUniqueCode(uniqueCode)</text><polygon fill="#A80036" points="49,507.2891,39,511.2891,49,515.2891,45,511.2891" style="stroke:#A80036;stroke-width:1.0;"/><line style="stroke:#A80036;stroke-width:1.0;stroke-dasharray:2.0,2.0;" x1="43" x2="229" y1="511.2891" y2="511.2891"/><text fill="#000000" font-family="sans-serif" font-size="13" lengthAdjust="spacing" textLength="126" x="55" y="506.2231">ask for unique code</text><polygon fill="#A80036" points="218,536.4219,228,540.4219,218,544.4219,222,540.4219" style="stroke:#A80036;stroke-width:1.0;"/><line style="stroke:#A80036;stroke-width:1.0;stroke-dasharray:2.0,2.0;" x1="38" x2="224" y1="540.4219" y2="540.4219"/><text fill="#000000" font-family="sans-serif" font-size="13" lengthAdjust="spacing" textLength="92" x="45" y="535.356">Enter the data</text><polygon fill="#A80036" points="456,565.5547,466,569.5547,456,573.5547,460,569.5547" style="stroke:#A80036;stroke-width:1.0;"/><line style="stroke:#A80036;stroke-width:1.0;stroke-dasharray:2.0,2.0;" x1="240" x2="462" y1="569.5547" y2="569.5547"/><text fill="#000000" font-family="sans-serif" font-size="13" lengthAdjust="spacing" textLength="107" x="247" y="564.4888">specifyTitle(title)</text><polygon fill="#A80036" points="694,594.6875,704,598.6875,694,602.6875,698,598.6875" style="stroke:#A80036;stroke-width:1.0;"/><line style="stroke:#A80036;stroke-width:1.0;" x1="478" x2="700" y1="598.6875" y2="598.6875"/><text fill="#000000" font-family="sans-serif" font-size="13" lengthAdjust="spacing" textLength="107" x="485" y="593.6216">specifyTitle(title)</text><rect fill="#FFFFFF" filter="url(#fml3i24srwuqw)" height="40.2656" style="stroke:#000000;stroke-width:2.0;" width="160" x="163" y="636.6875"/><polygon fill="#EEEEEE" points="163,636.6875,231,636.6875,231,643.6875,221,653.6875,163,653.6875,163,636.6875" style="stroke:#000000;stroke-width:2.0;"/><text fill="#000000" font-family="sans-serif" font-size="13" font-weight="bold" lengthAdjust="spacing" textLength="23" x="176" y="650.7544">ref</text><text fill="#000000" font-family="sans-serif" font-size="13" lengthAdjust="spacing" textLength="152" x="169" y="669.7544">OptionalInformation_SD</text><polygon fill="#A80036" points="456,699.0859,466,703.0859,456,707.0859,460,703.0859" style="stroke:#A80036;stroke-width:1.0;"/><line style="stroke:#A80036;stroke-width:1.0;" x1="240" x2="462" y1="703.0859" y2="703.0859"/><text fill="#000000" font-family="sans-serif" font-size="13" lengthAdjust="spacing" textLength="91" x="247" y="698.02">finishService()</text><polygon fill="#A80036" points="694,728.2188,704,732.2188,694,736.2188,698,732.2188" style="stroke:#A80036;stroke-width:1.0;"/><line style="stroke:#A80036;stroke-width:1.0;" x1="478" x2="700" y1="732.2188" y2="732.2188"/><text fill="#000000" font-family="sans-serif" font-size="13" lengthAdjust="spacing" textLength="40" x="485" y="727.1528">build()</text><polygon fill="#A80036" points="1055,787.6172,1065,791.6172,1055,795.6172,1059,791.6172" style="stroke:#A80036;stroke-width:1.0;"/><line style="stroke:#A80036;stroke-width:1.0;" x1="716" x2="1061" y1="791.6172" y2="791.6172"/><text fill="#000000" font-family="sans-serif" font-size="13" lengthAdjust="spacing" textLength="249" x="723" y="756.2856">theService = service(uniqueCode, title,</text><text fill="#000000" font-family="sans-serif" font-size="13" lengthAdjust="spacing" textLength="282" x="723" y="771.4185">briefDescription, completeDescription, type,</text><text fill="#000000" font-family="sans-serif" font-size="13" lengthAdjust="spacing" textLength="155" x="723" y="786.5513">keywords, icone, forms)</text><polygon fill="#A80036" points="1214.5,846.75,1224.5,850.75,1214.5,854.75,1218.5,850.75" style="stroke:#A80036;stroke-width:1.0;"/><line style="stroke:#A80036;stroke-width:1.0;" x1="478" x2="1220.5" y1="850.75" y2="850.75"/><text fill="#000000" font-family="sans-serif" font-size="13" lengthAdjust="spacing" textLength="109" x="485" y="845.6841">save(theService)</text><line style="stroke:#000000;stroke-width:1.0;stroke-dasharray:2.0,2.0;" x1="10" x2="1314" y1="889.75" y2="889.75"/><text fill="#000000" font-family="sans-serif" font-size="11" font-weight="bold" lengthAdjust="spacing" textLength="123" x="15" y="899.9604">[continue old one]</text><polygon fill="#A80036" points="456,920.6875,466,924.6875,456,928.6875,460,924.6875" style="stroke:#A80036;stroke-width:1.0;"/><line style="stroke:#A80036;stroke-width:1.0;" x1="240" x2="462" y1="924.6875" y2="924.6875"/><text fill="#000000" font-family="sans-serif" font-size="13" lengthAdjust="spacing" textLength="140" x="247" y="919.6216">uncompleteServices()</text><polygon fill="#A80036" points="1214.5,949.8203,1224.5,953.8203,1214.5,957.8203,1218.5,953.8203" style="stroke:#A80036;stroke-width:1.0;"/><line style="stroke:#A80036;stroke-width:1.0;" x1="478" x2="1220.5" y1="953.8203" y2="953.8203"/><text fill="#000000" font-family="sans-serif" font-size="13" lengthAdjust="spacing" textLength="270" x="485" y="948.7544">findUnfinishedServiceByCollaborator(user)</text><polygon fill="#A80036" points="49,1008.9531,39,1012.9531,49,1016.9531,45,1012.9531" style="stroke:#A80036;stroke-width:1.0;"/><line style="stroke:#A80036;stroke-width:1.0;stroke-dasharray:2.0,2.0;" x1="43" x2="229" y1="1012.9531" y2="1012.9531"/><text fill="#000000" font-family="sans-serif" font-size="13" lengthAdjust="spacing" textLength="151" x="55" y="1007.8872">ask to choose a service</text><polygon fill="#A80036" points="218,1038.0859,228,1042.0859,218,1046.0859,222,1042.0859" style="stroke:#A80036;stroke-width:1.0;"/><line style="stroke:#A80036;stroke-width:1.0;stroke-dasharray:2.0,2.0;" x1="38" x2="224" y1="1042.0859" y2="1042.0859"/><text fill="#000000" font-family="sans-serif" font-size="13" lengthAdjust="spacing" textLength="74" x="45" y="1037.02">choose one</text><rect fill="#FFFFFF" filter="url(#fml3i24srwuqw)" height="40.2656" style="stroke:#000000;stroke-width:2.0;" width="160" x="163" y="1050.0859"/><polygon fill="#EEEEEE" points="163,1050.0859,231,1050.0859,231,1057.0859,221,1067.0859,163,1067.0859,163,1050.0859" style="stroke:#000000;stroke-width:2.0;"/><text fill="#000000" font-family="sans-serif" font-size="13" font-weight="bold" lengthAdjust="spacing" textLength="23" x="176" y="1064.1528">ref</text><text fill="#000000" font-family="sans-serif" font-size="13" lengthAdjust="spacing" textLength="152" x="169" y="1083.1528">OptionalInformation_SD</text><polygon fill="#A80036" points="456,1112.4844,466,1116.4844,456,1120.4844,460,1116.4844" style="stroke:#A80036;stroke-width:1.0;"/><line style="stroke:#A80036;stroke-width:1.0;" x1="240" x2="462" y1="1116.4844" y2="1116.4844"/><text fill="#000000" font-family="sans-serif" font-size="13" lengthAdjust="spacing" textLength="91" x="247" y="1111.4185">finishService()</text><polygon fill="#A80036" points="694,1141.6172,704,1145.6172,694,1149.6172,698,1145.6172" style="stroke:#A80036;stroke-width:1.0;"/><line style="stroke:#A80036;stroke-width:1.0;" x1="478" x2="700" y1="1145.6172" y2="1145.6172"/><text fill="#000000" font-family="sans-serif" font-size="13" lengthAdjust="spacing" textLength="40" x="485" y="1140.5513">build()</text><polygon fill="#A80036" points="1055,1185.8828,1065,1189.8828,1055,1193.8828,1059,1189.8828" style="stroke:#A80036;stroke-width:1.0;"/><line style="stroke:#A80036;stroke-width:1.0;" x1="716" x2="1061" y1="1189.8828" y2="1189.8828"/><text fill="#000000" font-family="sans-serif" font-size="13" lengthAdjust="spacing" textLength="242" x="723" y="1169.6841">theService = service(briefDescription,</text><text fill="#000000" font-family="sans-serif" font-size="13" lengthAdjust="spacing" textLength="332" x="723" y="1184.8169">completeDescription, type, keywords, icone, forms)</text><polygon fill="#A80036" points="1214.5,1245.0156,1224.5,1249.0156,1214.5,1253.0156,1218.5,1249.0156" style="stroke:#A80036;stroke-width:1.0;"/><line style="stroke:#A80036;stroke-width:1.0;" x1="478" x2="1220.5" y1="1249.0156" y2="1249.0156"/><text fill="#000000" font-family="sans-serif" font-size="13" lengthAdjust="spacing" textLength="109" x="485" y="1243.9497">save(theService)</text><polygon fill="#A80036" points="49,1311.1484,39,1315.1484,49,1319.1484,45,1315.1484" style="stroke:#A80036;stroke-width:1.0;"/><line style="stroke:#A80036;stroke-width:1.0;stroke-dasharray:2.0,2.0;" x1="43" x2="234" y1="1315.1484" y2="1315.1484"/><text fill="#000000" font-family="sans-serif" font-size="13" lengthAdjust="spacing" textLength="88" x="55" y="1310.0825">back to menu</text><!--MD5=[4b3c93778dda7c23d368c977e1ec988a]
@startuml
actor GSH as Actor
participant SpecifyServiceUI as UI <<presentation>>
participant SpecifyServiceController as Controller <<application>>
participant ServiceBuilder as Builder <<builder>>
participant "theService:Service" as Domain <<domain>>
database ServicesRepository as Repository <<repository>>



Actor - -> UI: Specify service
activate UI

UI - -> Actor: Ask if want to creat\na new one or continue\nan incompleted

Actor- ->UI: Option

opt new

ref over UI: ShowAllCatallogs_SD

UI- ->Actor: ask to choose a catalogue
Actor- ->UI: choose

UI- ->Actor: ask for title
Actor- ->UI: Enter the data

UI- ->Controller: specifyUniqueCode(uniqueCode)
activate Controller

Controller->Builder:specifyUniqueCode(uniqueCode)
activate Builder
deactivate Builder

deactivate Controller

UI- ->Actor: ask for unique code
Actor- ->UI: Enter the data

UI- ->Controller: specifyTitle(title)
activate Controller

Controller->Builder:specifyTitle(title)
activate Builder
deactivate Builder

deactivate Controller

ref over UI: OptionalInformation_SD

UI->Controller: finishService()
activate Controller

Controller->Builder: build()
activate Builder

Builder->Domain: theService = service(uniqueCode, title,\nbriefDescription, completeDescription, type,\nkeywords, icone, forms)
activate Domain
deactivate Domain
deactivate Builder

Controller->Repository: save(theService)
activate Repository
deactivate Repository

deactivate Controller

else continue old one

UI->Controller: uncompleteServices()
activate Controller

Controller->Repository: findUnfinishedServiceByCollaborator(user)
activate Repository
deactivate Repository

deactivate Controller

UI- ->Actor: ask to choose a service
Actor- ->UI: choose one

ref over UI: OptionalInformation_SD

UI->Controller: finishService()
activate Controller

Controller->Builder: build()
activate Builder

Builder->Domain: theService = service(briefDescription,\ncompleteDescription, type, keywords, icone, forms)
activate Domain
deactivate Domain
deactivate Builder

Controller->Repository: save(theService)
activate Repository
deactivate Repository

deactivate Controller

end

UI- ->Actor: back to menu

deactivate UI
@enduml

PlantUML version 1.2021.6beta6(Unknown compile time)
(GPL source distribution)
Java Runtime: Java(TM) SE Runtime Environment
JVM: Java HotSpot(TM) 64-Bit Server VM
Default Encoding: UTF-8
Language: en
Country: US
--></g></svg>