<?xml version="1.0" encoding="UTF-8" standalone="no"?><svg xmlns="http://www.w3.org/2000/svg" xmlns:xlink="http://www.w3.org/1999/xlink" contentScriptType="application/ecmascript" contentStyleType="text/css" height="1258px" preserveAspectRatio="none" style="width:1037px;height:1258px;background:#FFFFFF;" version="1.1" viewBox="0 0 1037 1258" width="1037px" zoomAndPan="magnify"><defs><filter height="300%" id="f1aht8bgc7sj1a" width="300%" x="-1" y="-1"><feGaussianBlur result="blurOut" stdDeviation="2.0"/><feColorMatrix in="blurOut" result="blurOut2" type="matrix" values="0 0 0 0 0 0 0 0 0 0 0 0 0 0 0 0 0 0 .4 0"/><feOffset dx="4.0" dy="4.0" in="blurOut2" result="blurOut3"/><feBlend in="SourceGraphic" in2="blurOut3" mode="normal"/></filter></defs><g><rect fill="#FFFFFF" filter="url(#f1aht8bgc7sj1a)" height="1065.9844" style="stroke:#A80036;stroke-width:1.0;" width="10" x="244" y="98.2969"/><rect fill="#FFFFFF" filter="url(#f1aht8bgc7sj1a)" height="59.1328" style="stroke:#A80036;stroke-width:1.0;" width="10" x="595" y="201.8281"/><rect fill="#FFFFFF" filter="url(#f1aht8bgc7sj1a)" height="59.1328" style="stroke:#A80036;stroke-width:1.0;" width="10" x="595" y="379.4922"/><rect fill="#FFFFFF" filter="url(#f1aht8bgc7sj1a)" height="59.1328" style="stroke:#A80036;stroke-width:1.0;" width="10" x="595" y="557.1563"/><rect fill="#FFFFFF" filter="url(#f1aht8bgc7sj1a)" height="59.1328" style="stroke:#A80036;stroke-width:1.0;" width="10" x="595" y="734.8203"/><rect fill="#FFFFFF" filter="url(#f1aht8bgc7sj1a)" height="59.1328" style="stroke:#A80036;stroke-width:1.0;" width="10" x="595" y="912.4844"/><rect fill="#FFFFFF" filter="url(#f1aht8bgc7sj1a)" height="59.1328" style="stroke:#A80036;stroke-width:1.0;" width="10" x="595" y="1090.1484"/><rect fill="#FFFFFF" filter="url(#f1aht8bgc7sj1a)" height="30" style="stroke:#A80036;stroke-width:1.0;" width="10" x="948" y="230.9609"/><rect fill="#FFFFFF" filter="url(#f1aht8bgc7sj1a)" height="30" style="stroke:#A80036;stroke-width:1.0;" width="10" x="948" y="408.625"/><rect fill="#FFFFFF" filter="url(#f1aht8bgc7sj1a)" height="30" style="stroke:#A80036;stroke-width:1.0;" width="10" x="948" y="586.2891"/><rect fill="#FFFFFF" filter="url(#f1aht8bgc7sj1a)" height="30" style="stroke:#A80036;stroke-width:1.0;" width="10" x="948" y="763.9531"/><rect fill="#FFFFFF" filter="url(#f1aht8bgc7sj1a)" height="30" style="stroke:#A80036;stroke-width:1.0;" width="10" x="948" y="941.6172"/><rect fill="#FFFFFF" filter="url(#f1aht8bgc7sj1a)" height="30" style="stroke:#A80036;stroke-width:1.0;" width="10" x="948" y="1119.2813"/><rect fill="#FFFFFF" filter="url(#f1aht8bgc7sj1a)" height="163.6641" style="stroke:#000000;stroke-width:2.0;" width="1013.5" x="10" y="105.2969"/><rect fill="#FFFFFF" filter="url(#f1aht8bgc7sj1a)" height="163.6641" style="stroke:#000000;stroke-width:2.0;" width="1013.5" x="10" y="282.9609"/><rect fill="#FFFFFF" filter="url(#f1aht8bgc7sj1a)" height="163.6641" style="stroke:#000000;stroke-width:2.0;" width="1013.5" x="10" y="460.625"/><rect fill="#FFFFFF" filter="url(#f1aht8bgc7sj1a)" height="163.6641" style="stroke:#000000;stroke-width:2.0;" width="1013.5" x="10" y="638.2891"/><rect fill="#FFFFFF" filter="url(#f1aht8bgc7sj1a)" height="163.6641" style="stroke:#000000;stroke-width:2.0;" width="1013.5" x="10" y="815.9531"/><rect fill="#FFFFFF" filter="url(#f1aht8bgc7sj1a)" height="163.6641" style="stroke:#000000;stroke-width:2.0;" width="1013.5" x="10" y="993.6172"/><line style="stroke:#A80036;stroke-width:1.0;stroke-dasharray:5.0,5.0;" x1="38" x2="38" y1="88.2969" y2="1174.2813"/><line style="stroke:#A80036;stroke-width:1.0;stroke-dasharray:5.0,5.0;" x1="249" x2="249" y1="88.2969" y2="1174.2813"/><line style="stroke:#A80036;stroke-width:1.0;stroke-dasharray:5.0,5.0;" x1="600" x2="600" y1="88.2969" y2="1174.2813"/><line style="stroke:#A80036;stroke-width:1.0;stroke-dasharray:5.0,5.0;" x1="952.5" x2="952.5" y1="88.2969" y2="1174.2813"/><text fill="#000000" font-family="sans-serif" font-size="14" lengthAdjust="spacing" textLength="30" x="20" y="84.9951">GSH</text><ellipse cx="38" cy="15" fill="#FEFECE" filter="url(#f1aht8bgc7sj1a)" rx="8" ry="8" style="stroke:#A80036;stroke-width:2.0;"/><path d="M38,23 L38,50 M25,31 L51,31 M38,50 L25,65 M38,50 L51,65 " fill="none" filter="url(#f1aht8bgc7sj1a)" style="stroke:#A80036;stroke-width:2.0;"/><text fill="#000000" font-family="sans-serif" font-size="14" lengthAdjust="spacing" textLength="30" x="20" y="1186.2764">GSH</text><ellipse cx="38" cy="1199.5781" fill="#FEFECE" filter="url(#f1aht8bgc7sj1a)" rx="8" ry="8" style="stroke:#A80036;stroke-width:2.0;"/><path d="M38,1207.5781 L38,1234.5781 M25,1215.5781 L51,1215.5781 M38,1234.5781 L25,1249.5781 M38,1234.5781 L51,1249.5781 " fill="none" filter="url(#f1aht8bgc7sj1a)" style="stroke:#A80036;stroke-width:2.0;"/><rect fill="#FEFECE" filter="url(#f1aht8bgc7sj1a)" height="46.5938" style="stroke:#A80036;stroke-width:1.5;" width="134" x="180" y="36.7031"/><text fill="#000000" font-family="sans-serif" font-size="14" font-style="italic" lengthAdjust="spacing" textLength="108" x="193" y="56.6982">«presentation»</text><text fill="#000000" font-family="sans-serif" font-size="14" lengthAdjust="spacing" textLength="120" x="187" y="72.9951">SpecifyServiceUI</text><rect fill="#FEFECE" filter="url(#f1aht8bgc7sj1a)" height="46.5938" style="stroke:#A80036;stroke-width:1.5;" width="134" x="180" y="1173.2813"/><text fill="#000000" font-family="sans-serif" font-size="14" font-style="italic" lengthAdjust="spacing" textLength="108" x="193" y="1193.2764">«presentation»</text><text fill="#000000" font-family="sans-serif" font-size="14" lengthAdjust="spacing" textLength="120" x="187" y="1209.5732">SpecifyServiceUI</text><rect fill="#FEFECE" filter="url(#f1aht8bgc7sj1a)" height="46.5938" style="stroke:#A80036;stroke-width:1.5;" width="194" x="501" y="36.7031"/><text fill="#000000" font-family="sans-serif" font-size="14" font-style="italic" lengthAdjust="spacing" textLength="97" x="549.5" y="56.6982">«application»</text><text fill="#000000" font-family="sans-serif" font-size="14" lengthAdjust="spacing" textLength="180" x="508" y="72.9951">SpecifyServiceController</text><rect fill="#FEFECE" filter="url(#f1aht8bgc7sj1a)" height="46.5938" style="stroke:#A80036;stroke-width:1.5;" width="194" x="501" y="1173.2813"/><text fill="#000000" font-family="sans-serif" font-size="14" font-style="italic" lengthAdjust="spacing" textLength="97" x="549.5" y="1193.2764">«application»</text><text fill="#000000" font-family="sans-serif" font-size="14" lengthAdjust="spacing" textLength="180" x="508" y="1209.5732">SpecifyServiceController</text><rect fill="#FEFECE" filter="url(#f1aht8bgc7sj1a)" height="46.5938" style="stroke:#A80036;stroke-width:1.5;" width="117" x="892.5" y="36.7031"/><text fill="#000000" font-family="sans-serif" font-size="14" font-style="italic" lengthAdjust="spacing" textLength="68" x="917" y="56.6982">«builder»</text><text fill="#000000" font-family="sans-serif" font-size="14" lengthAdjust="spacing" textLength="103" x="899.5" y="72.9951">ServiceBuilder</text><rect fill="#FEFECE" filter="url(#f1aht8bgc7sj1a)" height="46.5938" style="stroke:#A80036;stroke-width:1.5;" width="117" x="892.5" y="1173.2813"/><text fill="#000000" font-family="sans-serif" font-size="14" font-style="italic" lengthAdjust="spacing" textLength="68" x="917" y="1193.2764">«builder»</text><text fill="#000000" font-family="sans-serif" font-size="14" lengthAdjust="spacing" textLength="103" x="899.5" y="1209.5732">ServiceBuilder</text><rect fill="#FFFFFF" filter="url(#f1aht8bgc7sj1a)" height="1065.9844" style="stroke:#A80036;stroke-width:1.0;" width="10" x="244" y="98.2969"/><rect fill="#FFFFFF" filter="url(#f1aht8bgc7sj1a)" height="59.1328" style="stroke:#A80036;stroke-width:1.0;" width="10" x="595" y="201.8281"/><rect fill="#FFFFFF" filter="url(#f1aht8bgc7sj1a)" height="59.1328" style="stroke:#A80036;stroke-width:1.0;" width="10" x="595" y="379.4922"/><rect fill="#FFFFFF" filter="url(#f1aht8bgc7sj1a)" height="59.1328" style="stroke:#A80036;stroke-width:1.0;" width="10" x="595" y="557.1563"/><rect fill="#FFFFFF" filter="url(#f1aht8bgc7sj1a)" height="59.1328" style="stroke:#A80036;stroke-width:1.0;" width="10" x="595" y="734.8203"/><rect fill="#FFFFFF" filter="url(#f1aht8bgc7sj1a)" height="59.1328" style="stroke:#A80036;stroke-width:1.0;" width="10" x="595" y="912.4844"/><rect fill="#FFFFFF" filter="url(#f1aht8bgc7sj1a)" height="59.1328" style="stroke:#A80036;stroke-width:1.0;" width="10" x="595" y="1090.1484"/><rect fill="#FFFFFF" filter="url(#f1aht8bgc7sj1a)" height="30" style="stroke:#A80036;stroke-width:1.0;" width="10" x="948" y="230.9609"/><rect fill="#FFFFFF" filter="url(#f1aht8bgc7sj1a)" height="30" style="stroke:#A80036;stroke-width:1.0;" width="10" x="948" y="408.625"/><rect fill="#FFFFFF" filter="url(#f1aht8bgc7sj1a)" height="30" style="stroke:#A80036;stroke-width:1.0;" width="10" x="948" y="586.2891"/><rect fill="#FFFFFF" filter="url(#f1aht8bgc7sj1a)" height="30" style="stroke:#A80036;stroke-width:1.0;" width="10" x="948" y="763.9531"/><rect fill="#FFFFFF" filter="url(#f1aht8bgc7sj1a)" height="30" style="stroke:#A80036;stroke-width:1.0;" width="10" x="948" y="941.6172"/><rect fill="#FFFFFF" filter="url(#f1aht8bgc7sj1a)" height="30" style="stroke:#A80036;stroke-width:1.0;" width="10" x="948" y="1119.2813"/><path d="M10,105.2969 L82,105.2969 L82,112.2969 L72,122.2969 L10,122.2969 L10,105.2969 " fill="#EEEEEE" style="stroke:#000000;stroke-width:1.0;"/><rect fill="none" height="163.6641" style="stroke:#000000;stroke-width:2.0;" width="1013.5" x="10" y="105.2969"/><text fill="#000000" font-family="sans-serif" font-size="13" font-weight="bold" lengthAdjust="spacing" textLength="27" x="25" y="118.3638">opt</text><polygon fill="#A80036" points="49,139.5625,39,143.5625,49,147.5625,45,143.5625" style="stroke:#A80036;stroke-width:1.0;"/><line style="stroke:#A80036;stroke-width:1.0;stroke-dasharray:2.0,2.0;" x1="43" x2="243" y1="143.5625" y2="143.5625"/><text fill="#000000" font-family="sans-serif" font-size="13" lengthAdjust="spacing" textLength="151" x="55" y="138.4966">ask for brief description</text><polygon fill="#A80036" points="232,168.6953,242,172.6953,232,176.6953,236,172.6953" style="stroke:#A80036;stroke-width:1.0;"/><line style="stroke:#A80036;stroke-width:1.0;stroke-dasharray:2.0,2.0;" x1="38" x2="238" y1="172.6953" y2="172.6953"/><text fill="#000000" font-family="sans-serif" font-size="13" lengthAdjust="spacing" textLength="92" x="45" y="167.6294">Enter the data</text><polygon fill="#A80036" points="583,197.8281,593,201.8281,583,205.8281,587,201.8281" style="stroke:#A80036;stroke-width:1.0;"/><line style="stroke:#A80036;stroke-width:1.0;stroke-dasharray:2.0,2.0;" x1="254" x2="589" y1="201.8281" y2="201.8281"/><text fill="#000000" font-family="sans-serif" font-size="13" lengthAdjust="spacing" textLength="258" x="261" y="196.7622">specifyBriefDescription(briefDescription)</text><polygon fill="#A80036" points="936,226.9609,946,230.9609,936,234.9609,940,230.9609" style="stroke:#A80036;stroke-width:1.0;"/><line style="stroke:#A80036;stroke-width:1.0;stroke-dasharray:2.0,2.0;" x1="605" x2="942" y1="230.9609" y2="230.9609"/><text fill="#000000" font-family="sans-serif" font-size="13" lengthAdjust="spacing" textLength="258" x="612" y="225.895">specifyBriefDescription(briefDescription)</text><path d="M10,282.9609 L82,282.9609 L82,289.9609 L72,299.9609 L10,299.9609 L10,282.9609 " fill="#EEEEEE" style="stroke:#000000;stroke-width:1.0;"/><rect fill="none" height="163.6641" style="stroke:#000000;stroke-width:2.0;" width="1013.5" x="10" y="282.9609"/><text fill="#000000" font-family="sans-serif" font-size="13" font-weight="bold" lengthAdjust="spacing" textLength="27" x="25" y="296.0278">opt</text><polygon fill="#A80036" points="49,317.2266,39,321.2266,49,325.2266,45,321.2266" style="stroke:#A80036;stroke-width:1.0;"/><line style="stroke:#A80036;stroke-width:1.0;stroke-dasharray:2.0,2.0;" x1="43" x2="243" y1="321.2266" y2="321.2266"/><text fill="#000000" font-family="sans-serif" font-size="13" lengthAdjust="spacing" textLength="182" x="55" y="316.1606">ask for complete description</text><polygon fill="#A80036" points="232,346.3594,242,350.3594,232,354.3594,236,350.3594" style="stroke:#A80036;stroke-width:1.0;"/><line style="stroke:#A80036;stroke-width:1.0;stroke-dasharray:2.0,2.0;" x1="38" x2="238" y1="350.3594" y2="350.3594"/><text fill="#000000" font-family="sans-serif" font-size="13" lengthAdjust="spacing" textLength="92" x="45" y="345.2935">Enter the data</text><polygon fill="#A80036" points="583,375.4922,593,379.4922,583,383.4922,587,379.4922" style="stroke:#A80036;stroke-width:1.0;"/><line style="stroke:#A80036;stroke-width:1.0;stroke-dasharray:2.0,2.0;" x1="254" x2="589" y1="379.4922" y2="379.4922"/><text fill="#000000" font-family="sans-serif" font-size="13" lengthAdjust="spacing" textLength="322" x="261" y="374.4263">specifyCompleteDescription(completeDescription)</text><polygon fill="#A80036" points="936,404.625,946,408.625,936,412.625,940,408.625" style="stroke:#A80036;stroke-width:1.0;"/><line style="stroke:#A80036;stroke-width:1.0;stroke-dasharray:2.0,2.0;" x1="605" x2="942" y1="408.625" y2="408.625"/><text fill="#000000" font-family="sans-serif" font-size="13" lengthAdjust="spacing" textLength="324" x="612" y="403.5591">specifyCompleteDescription(CompleteDescription)</text><path d="M10,460.625 L82,460.625 L82,467.625 L72,477.625 L10,477.625 L10,460.625 " fill="#EEEEEE" style="stroke:#000000;stroke-width:1.0;"/><rect fill="none" height="163.6641" style="stroke:#000000;stroke-width:2.0;" width="1013.5" x="10" y="460.625"/><text fill="#000000" font-family="sans-serif" font-size="13" font-weight="bold" lengthAdjust="spacing" textLength="27" x="25" y="473.6919">opt</text><polygon fill="#A80036" points="49,494.8906,39,498.8906,49,502.8906,45,498.8906" style="stroke:#A80036;stroke-width:1.0;"/><line style="stroke:#A80036;stroke-width:1.0;stroke-dasharray:2.0,2.0;" x1="43" x2="243" y1="498.8906" y2="498.8906"/><text fill="#000000" font-family="sans-serif" font-size="13" lengthAdjust="spacing" textLength="77" x="55" y="493.8247">ask for type</text><polygon fill="#A80036" points="232,524.0234,242,528.0234,232,532.0234,236,528.0234" style="stroke:#A80036;stroke-width:1.0;"/><line style="stroke:#A80036;stroke-width:1.0;stroke-dasharray:2.0,2.0;" x1="38" x2="238" y1="528.0234" y2="528.0234"/><text fill="#000000" font-family="sans-serif" font-size="13" lengthAdjust="spacing" textLength="92" x="45" y="522.9575">Enter the data</text><polygon fill="#A80036" points="583,553.1563,593,557.1563,583,561.1563,587,557.1563" style="stroke:#A80036;stroke-width:1.0;"/><line style="stroke:#A80036;stroke-width:1.0;stroke-dasharray:2.0,2.0;" x1="254" x2="589" y1="557.1563" y2="557.1563"/><text fill="#000000" font-family="sans-serif" font-size="13" lengthAdjust="spacing" textLength="117" x="261" y="552.0903">specifyType(type)</text><polygon fill="#A80036" points="936,582.2891,946,586.2891,936,590.2891,940,586.2891" style="stroke:#A80036;stroke-width:1.0;"/><line style="stroke:#A80036;stroke-width:1.0;stroke-dasharray:2.0,2.0;" x1="605" x2="942" y1="586.2891" y2="586.2891"/><text fill="#000000" font-family="sans-serif" font-size="13" lengthAdjust="spacing" textLength="114" x="612" y="581.2231">specifytype(type)</text><path d="M10,638.2891 L82,638.2891 L82,645.2891 L72,655.2891 L10,655.2891 L10,638.2891 " fill="#EEEEEE" style="stroke:#000000;stroke-width:1.0;"/><rect fill="none" height="163.6641" style="stroke:#000000;stroke-width:2.0;" width="1013.5" x="10" y="638.2891"/><text fill="#000000" font-family="sans-serif" font-size="13" font-weight="bold" lengthAdjust="spacing" textLength="27" x="25" y="651.356">opt</text><polygon fill="#A80036" points="49,672.5547,39,676.5547,49,680.5547,45,676.5547" style="stroke:#A80036;stroke-width:1.0;"/><line style="stroke:#A80036;stroke-width:1.0;stroke-dasharray:2.0,2.0;" x1="43" x2="243" y1="676.5547" y2="676.5547"/><text fill="#000000" font-family="sans-serif" font-size="13" lengthAdjust="spacing" textLength="110" x="55" y="671.4888">ask for keywords</text><polygon fill="#A80036" points="232,701.6875,242,705.6875,232,709.6875,236,705.6875" style="stroke:#A80036;stroke-width:1.0;"/><line style="stroke:#A80036;stroke-width:1.0;stroke-dasharray:2.0,2.0;" x1="38" x2="238" y1="705.6875" y2="705.6875"/><text fill="#000000" font-family="sans-serif" font-size="13" lengthAdjust="spacing" textLength="92" x="45" y="700.6216">Enter the data</text><polygon fill="#A80036" points="583,730.8203,593,734.8203,583,738.8203,587,734.8203" style="stroke:#A80036;stroke-width:1.0;"/><line style="stroke:#A80036;stroke-width:1.0;stroke-dasharray:2.0,2.0;" x1="254" x2="589" y1="734.8203" y2="734.8203"/><text fill="#000000" font-family="sans-serif" font-size="13" lengthAdjust="spacing" textLength="183" x="261" y="729.7544">specifyKeyWords(keywords)</text><polygon fill="#A80036" points="936,759.9531,946,763.9531,936,767.9531,940,763.9531" style="stroke:#A80036;stroke-width:1.0;"/><line style="stroke:#A80036;stroke-width:1.0;stroke-dasharray:2.0,2.0;" x1="605" x2="942" y1="763.9531" y2="763.9531"/><text fill="#000000" font-family="sans-serif" font-size="13" lengthAdjust="spacing" textLength="183" x="612" y="758.8872">specifyKeyWords(keywords)</text><path d="M10,815.9531 L82,815.9531 L82,822.9531 L72,832.9531 L10,832.9531 L10,815.9531 " fill="#EEEEEE" style="stroke:#000000;stroke-width:1.0;"/><rect fill="none" height="163.6641" style="stroke:#000000;stroke-width:2.0;" width="1013.5" x="10" y="815.9531"/><text fill="#000000" font-family="sans-serif" font-size="13" font-weight="bold" lengthAdjust="spacing" textLength="27" x="25" y="829.02">opt</text><polygon fill="#A80036" points="49,850.2188,39,854.2188,49,858.2188,45,854.2188" style="stroke:#A80036;stroke-width:1.0;"/><line style="stroke:#A80036;stroke-width:1.0;stroke-dasharray:2.0,2.0;" x1="43" x2="243" y1="854.2188" y2="854.2188"/><text fill="#000000" font-family="sans-serif" font-size="13" lengthAdjust="spacing" textLength="74" x="55" y="849.1528">ask for icon</text><polygon fill="#A80036" points="232,879.3516,242,883.3516,232,887.3516,236,883.3516" style="stroke:#A80036;stroke-width:1.0;"/><line style="stroke:#A80036;stroke-width:1.0;stroke-dasharray:2.0,2.0;" x1="38" x2="238" y1="883.3516" y2="883.3516"/><text fill="#000000" font-family="sans-serif" font-size="13" lengthAdjust="spacing" textLength="92" x="45" y="878.2856">Enter the data</text><polygon fill="#A80036" points="583,908.4844,593,912.4844,583,916.4844,587,912.4844" style="stroke:#A80036;stroke-width:1.0;"/><line style="stroke:#A80036;stroke-width:1.0;stroke-dasharray:2.0,2.0;" x1="254" x2="589" y1="912.4844" y2="912.4844"/><text fill="#000000" font-family="sans-serif" font-size="13" lengthAdjust="spacing" textLength="108" x="261" y="907.4185">specifyIcon(icon)</text><polygon fill="#A80036" points="936,937.6172,946,941.6172,936,945.6172,940,941.6172" style="stroke:#A80036;stroke-width:1.0;"/><line style="stroke:#A80036;stroke-width:1.0;stroke-dasharray:2.0,2.0;" x1="605" x2="942" y1="941.6172" y2="941.6172"/><text fill="#000000" font-family="sans-serif" font-size="13" lengthAdjust="spacing" textLength="108" x="612" y="936.5513">specifyIcon(icon)</text><path d="M10,993.6172 L82,993.6172 L82,1000.6172 L72,1010.6172 L10,1010.6172 L10,993.6172 " fill="#EEEEEE" style="stroke:#000000;stroke-width:1.0;"/><rect fill="none" height="163.6641" style="stroke:#000000;stroke-width:2.0;" width="1013.5" x="10" y="993.6172"/><text fill="#000000" font-family="sans-serif" font-size="13" font-weight="bold" lengthAdjust="spacing" textLength="27" x="25" y="1006.6841">opt</text><polygon fill="#A80036" points="49,1027.8828,39,1031.8828,49,1035.8828,45,1031.8828" style="stroke:#A80036;stroke-width:1.0;"/><line style="stroke:#A80036;stroke-width:1.0;stroke-dasharray:2.0,2.0;" x1="43" x2="243" y1="1031.8828" y2="1031.8828"/><text fill="#000000" font-family="sans-serif" font-size="13" lengthAdjust="spacing" textLength="79" x="55" y="1026.8169">ask for form</text><polygon fill="#A80036" points="232,1057.0156,242,1061.0156,232,1065.0156,236,1061.0156" style="stroke:#A80036;stroke-width:1.0;"/><line style="stroke:#A80036;stroke-width:1.0;stroke-dasharray:2.0,2.0;" x1="38" x2="238" y1="1061.0156" y2="1061.0156"/><text fill="#000000" font-family="sans-serif" font-size="13" lengthAdjust="spacing" textLength="92" x="45" y="1055.9497">Enter the data</text><polygon fill="#A80036" points="583,1086.1484,593,1090.1484,583,1094.1484,587,1090.1484" style="stroke:#A80036;stroke-width:1.0;"/><line style="stroke:#A80036;stroke-width:1.0;stroke-dasharray:2.0,2.0;" x1="254" x2="589" y1="1090.1484" y2="1090.1484"/><text fill="#000000" font-family="sans-serif" font-size="13" lengthAdjust="spacing" textLength="120" x="261" y="1085.0825">specifyForm(form)</text><polygon fill="#A80036" points="936,1115.2813,946,1119.2813,936,1123.2813,940,1119.2813" style="stroke:#A80036;stroke-width:1.0;"/><line style="stroke:#A80036;stroke-width:1.0;stroke-dasharray:2.0,2.0;" x1="605" x2="942" y1="1119.2813" y2="1119.2813"/><text fill="#000000" font-family="sans-serif" font-size="13" lengthAdjust="spacing" textLength="120" x="612" y="1114.2153">specifyForm(form)</text><!--MD5=[9b85f3b6b3a922e800298cd82203e2f0]
@startuml
actor GSH as Actor
participant SpecifyServiceUI as UI <<presentation>>
participant SpecifyServiceController as Controller <<application>>
participant ServiceBuilder as Builder <<builder>>

activate UI

opt
UI- ->Actor: ask for brief description
Actor- ->UI: Enter the data

UI- ->Controller: specifyBriefDescription(briefDescription)
activate Controller

Controller- ->Builder: specifyBriefDescription(briefDescription)
activate Builder

deactivate Builder
deactivate Controller

end

opt
UI- ->Actor: ask for complete description
Actor- ->UI: Enter the data

UI- ->Controller: specifyCompleteDescription(completeDescription)
activate Controller

Controller- ->Builder: specifyCompleteDescription(CompleteDescription)
activate Builder
deactivate Builder
deactivate Controller

end

opt
UI- ->Actor: ask for type
Actor- ->UI: Enter the data

UI- ->Controller: specifyType(type)
activate Controller

Controller- ->Builder: specifytype(type)
activate Builder

deactivate Builder
deactivate Controller

end

opt
UI- ->Actor: ask for keywords
Actor- ->UI: Enter the data

UI- ->Controller: specifyKeyWords(keywords)
activate Controller

Controller- ->Builder: specifyKeyWords(keywords)
activate Builder

deactivate Builder
deactivate Controller

end

opt
UI- ->Actor: ask for icon
Actor- ->UI: Enter the data

UI- ->Controller: specifyIcon(icon)
activate Controller

Controller- ->Builder: specifyIcon(icon)
activate Builder

deactivate Builder
deactivate Controller

end

opt
UI- ->Actor: ask for form
Actor- ->UI: Enter the data

UI- ->Controller: specifyForm(form)
activate Controller

Controller- ->Builder: specifyForm(form)
activate Builder

deactivate Builder
deactivate Controller

end


deactivate UI
@enduml

PlantUML version 1.2021.6beta6(Unknown compile time)
(GPL source distribution)
Java Runtime: Java(TM) SE Runtime Environment
JVM: Java HotSpot(TM) 64-Bit Server VM
Default Encoding: UTF-8
Language: en
Country: US
--></g></svg>