<?xml version="1.0" encoding="UTF-8" standalone="no"?><svg xmlns="http://www.w3.org/2000/svg" xmlns:xlink="http://www.w3.org/1999/xlink" contentScriptType="application/ecmascript" contentStyleType="text/css" height="478px" preserveAspectRatio="none" style="width:723px;height:478px;background:#FFFFFF;" version="1.1" viewBox="0 0 723 478" width="723px" zoomAndPan="magnify"><defs><filter height="300%" id="fdbaagn1n7k9o" width="300%" x="-1" y="-1"><feGaussianBlur result="blurOut" stdDeviation="2.0"/><feColorMatrix in="blurOut" result="blurOut2" type="matrix" values="0 0 0 0 0 0 0 0 0 0 0 0 0 0 0 0 0 0 .4 0"/><feOffset dx="4.0" dy="4.0" in="blurOut2" result="blurOut3"/><feBlend in="SourceGraphic" in2="blurOut3" mode="normal"/></filter></defs><g><rect fill="#FFFFFF" filter="url(#fdbaagn1n7k9o)" height="291.0625" style="stroke:#A80036;stroke-width:1.0;" width="10" x="63" y="93.5938"/><rect fill="#FFFFFF" filter="url(#fdbaagn1n7k9o)" height="218.7969" style="stroke:#A80036;stroke-width:1.0;" width="10" x="192" y="114.7266"/><rect fill="#FFFFFF" filter="url(#fdbaagn1n7k9o)" height="59.1328" style="stroke:#A80036;stroke-width:1.0;" width="10" x="334" y="172.9922"/><rect fill="#FFFFFF" filter="url(#fdbaagn1n7k9o)" height="59.1328" style="stroke:#A80036;stroke-width:1.0;" width="10" x="494" y="202.125"/><rect fill="#FFFFFF" filter="url(#fdbaagn1n7k9o)" height="58.2656" style="stroke:#A80036;stroke-width:1.0;" width="10" x="645.5" y="261.2578"/><line style="stroke:#A80036;stroke-width:1.0;stroke-dasharray:5.0,5.0;" x1="68" x2="68" y1="83.5938" y2="393.6563"/><line style="stroke:#A80036;stroke-width:1.0;stroke-dasharray:5.0,5.0;" x1="196.5" x2="196.5" y1="83.5938" y2="393.6563"/><line style="stroke:#A80036;stroke-width:1.0;stroke-dasharray:5.0,5.0;" x1="338.5" x2="338.5" y1="83.5938" y2="393.6563"/><line style="stroke:#A80036;stroke-width:1.0;stroke-dasharray:5.0,5.0;" x1="498.5" x2="498.5" y1="83.5938" y2="393.6563"/><line style="stroke:#A80036;stroke-width:1.0;stroke-dasharray:5.0,5.0;" x1="650.5" x2="650.5" y1="83.5938" y2="393.6563"/><rect fill="#FEFECE" filter="url(#fdbaagn1n7k9o)" height="46.5938" style="stroke:#A80036;stroke-width:1.5;" width="122" x="5" y="32"/><text fill="#000000" font-family="sans-serif" font-size="14" font-style="italic" lengthAdjust="spacing" textLength="108" x="12" y="51.9951">«presentation»</text><text fill="#000000" font-family="sans-serif" font-size="14" lengthAdjust="spacing" textLength="13" x="59.5" y="68.292">UI</text><rect fill="#FEFECE" filter="url(#fdbaagn1n7k9o)" height="46.5938" style="stroke:#A80036;stroke-width:1.5;" width="122" x="5" y="392.6563"/><text fill="#000000" font-family="sans-serif" font-size="14" font-style="italic" lengthAdjust="spacing" textLength="108" x="12" y="412.6514">«presentation»</text><text fill="#000000" font-family="sans-serif" font-size="14" lengthAdjust="spacing" textLength="13" x="59.5" y="428.9482">UI</text><text fill="#000000" font-family="sans-serif" font-size="14" font-style="italic" lengthAdjust="spacing" textLength="97" x="145.5" y="63.9951">«application»</text><text fill="#000000" font-family="sans-serif" font-size="14" lengthAdjust="spacing" textLength="73" x="157.5" y="80.292">Controller</text><ellipse cx="197" cy="35" fill="#FEFECE" filter="url(#fdbaagn1n7k9o)" rx="12" ry="12" style="stroke:#A80036;stroke-width:2.0;"/><polygon fill="#A80036" points="193,23,199,18,197,23,199,28,193,23" style="stroke:#A80036;stroke-width:1.0;"/><text fill="#000000" font-family="sans-serif" font-size="14" font-style="italic" lengthAdjust="spacing" textLength="97" x="145.5" y="405.6514">«application»</text><text fill="#000000" font-family="sans-serif" font-size="14" lengthAdjust="spacing" textLength="73" x="157.5" y="421.9482">Controller</text><ellipse cx="197" cy="441.25" fill="#FEFECE" filter="url(#fdbaagn1n7k9o)" rx="12" ry="12" style="stroke:#A80036;stroke-width:2.0;"/><polygon fill="#A80036" points="193,429.25,199,424.25,197,429.25,199,434.25,193,429.25" style="stroke:#A80036;stroke-width:1.0;"/><rect fill="#FEFECE" filter="url(#fdbaagn1n7k9o)" height="46.5938" style="stroke:#A80036;stroke-width:1.5;" width="157" x="258.5" y="32"/><text fill="#000000" font-family="sans-serif" font-size="14" font-style="italic" lengthAdjust="spacing" textLength="99" x="287.5" y="51.9951">«Persistence»</text><text fill="#000000" font-family="sans-serif" font-size="14" lengthAdjust="spacing" textLength="143" x="265.5" y="68.292">PersistenceContext</text><rect fill="#FEFECE" filter="url(#fdbaagn1n7k9o)" height="46.5938" style="stroke:#A80036;stroke-width:1.5;" width="157" x="258.5" y="392.6563"/><text fill="#000000" font-family="sans-serif" font-size="14" font-style="italic" lengthAdjust="spacing" textLength="99" x="287.5" y="412.6514">«Persistence»</text><text fill="#000000" font-family="sans-serif" font-size="14" lengthAdjust="spacing" textLength="143" x="265.5" y="428.9482">PersistenceContext</text><text fill="#000000" font-family="sans-serif" font-size="14" font-style="italic" lengthAdjust="spacing" textLength="90" x="451" y="63.9951">«repository»</text><text fill="#000000" font-family="sans-serif" font-size="14" lengthAdjust="spacing" textLength="133" x="429.5" y="80.292">RepositoryFactory</text><path d="M481,15 C481,5 499,5 499,5 C499,5 517,5 517,15 L517,41 C517,51 499,51 499,51 C499,51 481,51 481,41 L481,15 " fill="#FEFECE" filter="url(#fdbaagn1n7k9o)" style="stroke:#000000;stroke-width:1.5;"/><path d="M481,15 C481,25 499,25 499,25 C499,25 517,25 517,15 " fill="none" style="stroke:#000000;stroke-width:1.5;"/><text fill="#000000" font-family="sans-serif" font-size="14" font-style="italic" lengthAdjust="spacing" textLength="90" x="451" y="405.6514">«repository»</text><text fill="#000000" font-family="sans-serif" font-size="14" lengthAdjust="spacing" textLength="133" x="429.5" y="421.9482">RepositoryFactory</text><path d="M481,435.25 C481,425.25 499,425.25 499,425.25 C499,425.25 517,425.25 517,435.25 L517,461.25 C517,471.25 499,471.25 499,471.25 C499,471.25 481,471.25 481,461.25 L481,435.25 " fill="#FEFECE" filter="url(#fdbaagn1n7k9o)" style="stroke:#000000;stroke-width:1.5;"/><path d="M481,435.25 C481,445.25 499,445.25 499,445.25 C499,445.25 517,445.25 517,435.25 " fill="none" style="stroke:#000000;stroke-width:1.5;"/><text fill="#000000" font-family="sans-serif" font-size="14" font-style="italic" lengthAdjust="spacing" textLength="90" x="602.5" y="63.9951">«repository»</text><text fill="#000000" font-family="sans-serif" font-size="14" lengthAdjust="spacing" textLength="138" x="578.5" y="80.292">CatallogRepository</text><path d="M632.5,15 C632.5,5 650.5,5 650.5,5 C650.5,5 668.5,5 668.5,15 L668.5,41 C668.5,51 650.5,51 650.5,51 C650.5,51 632.5,51 632.5,41 L632.5,15 " fill="#FEFECE" filter="url(#fdbaagn1n7k9o)" style="stroke:#000000;stroke-width:1.5;"/><path d="M632.5,15 C632.5,25 650.5,25 650.5,25 C650.5,25 668.5,25 668.5,15 " fill="none" style="stroke:#000000;stroke-width:1.5;"/><text fill="#000000" font-family="sans-serif" font-size="14" font-style="italic" lengthAdjust="spacing" textLength="90" x="602.5" y="405.6514">«repository»</text><text fill="#000000" font-family="sans-serif" font-size="14" lengthAdjust="spacing" textLength="138" x="578.5" y="421.9482">CatallogRepository</text><path d="M632.5,435.25 C632.5,425.25 650.5,425.25 650.5,425.25 C650.5,425.25 668.5,425.25 668.5,435.25 L668.5,461.25 C668.5,471.25 650.5,471.25 650.5,471.25 C650.5,471.25 632.5,471.25 632.5,461.25 L632.5,435.25 " fill="#FEFECE" filter="url(#fdbaagn1n7k9o)" style="stroke:#000000;stroke-width:1.5;"/><path d="M632.5,435.25 C632.5,445.25 650.5,445.25 650.5,445.25 C650.5,445.25 668.5,445.25 668.5,435.25 " fill="none" style="stroke:#000000;stroke-width:1.5;"/><rect fill="#FFFFFF" filter="url(#fdbaagn1n7k9o)" height="291.0625" style="stroke:#A80036;stroke-width:1.0;" width="10" x="63" y="93.5938"/><rect fill="#FFFFFF" filter="url(#fdbaagn1n7k9o)" height="218.7969" style="stroke:#A80036;stroke-width:1.0;" width="10" x="192" y="114.7266"/><rect fill="#FFFFFF" filter="url(#fdbaagn1n7k9o)" height="59.1328" style="stroke:#A80036;stroke-width:1.0;" width="10" x="334" y="172.9922"/><rect fill="#FFFFFF" filter="url(#fdbaagn1n7k9o)" height="59.1328" style="stroke:#A80036;stroke-width:1.0;" width="10" x="494" y="202.125"/><rect fill="#FFFFFF" filter="url(#fdbaagn1n7k9o)" height="58.2656" style="stroke:#A80036;stroke-width:1.0;" width="10" x="645.5" y="261.2578"/><polygon fill="#A80036" points="180,110.7266,190,114.7266,180,118.7266,184,114.7266" style="stroke:#A80036;stroke-width:1.0;"/><line style="stroke:#A80036;stroke-width:1.0;" x1="73" x2="186" y1="114.7266" y2="114.7266"/><text fill="#000000" font-family="sans-serif" font-size="13" lengthAdjust="spacing" textLength="51" x="80" y="109.6606">create()</text><polygon fill="#A80036" points="180,139.8594,190,143.8594,180,147.8594,184,143.8594" style="stroke:#A80036;stroke-width:1.0;"/><line style="stroke:#A80036;stroke-width:1.0;" x1="73" x2="186" y1="143.8594" y2="143.8594"/><text fill="#000000" font-family="sans-serif" font-size="13" lengthAdjust="spacing" textLength="95" x="80" y="138.7935">listCatallogos()</text><polygon fill="#A80036" points="322,168.9922,332,172.9922,322,176.9922,326,172.9922" style="stroke:#A80036;stroke-width:1.0;"/><line style="stroke:#A80036;stroke-width:1.0;" x1="202" x2="328" y1="172.9922" y2="172.9922"/><text fill="#000000" font-family="sans-serif" font-size="13" lengthAdjust="spacing" textLength="85" x="209" y="167.9263">repositories()</text><polygon fill="#A80036" points="482,198.125,492,202.125,482,206.125,486,202.125" style="stroke:#A80036;stroke-width:1.0;"/><line style="stroke:#A80036;stroke-width:1.0;" x1="344" x2="488" y1="202.125" y2="202.125"/><text fill="#000000" font-family="sans-serif" font-size="13" lengthAdjust="spacing" textLength="51" x="351" y="197.0591">create()</text><polygon fill="#A80036" points="633.5,257.2578,643.5,261.2578,633.5,265.2578,637.5,261.2578" style="stroke:#A80036;stroke-width:1.0;"/><line style="stroke:#A80036;stroke-width:1.0;" x1="499" x2="639.5" y1="261.2578" y2="261.2578"/><text fill="#000000" font-family="sans-serif" font-size="13" lengthAdjust="spacing" textLength="51" x="506" y="256.1919">create()</text><polygon fill="#A80036" points="633.5,286.3906,643.5,290.3906,633.5,294.3906,637.5,290.3906" style="stroke:#A80036;stroke-width:1.0;"/><line style="stroke:#A80036;stroke-width:1.0;" x1="202" x2="639.5" y1="290.3906" y2="290.3906"/><text fill="#000000" font-family="sans-serif" font-size="13" lengthAdjust="spacing" textLength="49" x="209" y="285.3247">findAll()</text><polygon fill="#A80036" points="213,315.5234,203,319.5234,213,323.5234,209,319.5234" style="stroke:#A80036;stroke-width:1.0;"/><line style="stroke:#A80036;stroke-width:1.0;stroke-dasharray:2.0,2.0;" x1="207" x2="649.5" y1="319.5234" y2="319.5234"/><text fill="#000000" font-family="sans-serif" font-size="13" lengthAdjust="spacing" textLength="83" x="219" y="314.4575">allCatallogs()</text><polygon fill="#A80036" points="84,329.5234,74,333.5234,84,337.5234,80,333.5234" style="stroke:#A80036;stroke-width:1.0;"/><line style="stroke:#A80036;stroke-width:1.0;stroke-dasharray:2.0,2.0;" x1="78" x2="196" y1="333.5234" y2="333.5234"/><line style="stroke:#A80036;stroke-width:1.0;" x1="73" x2="115" y1="362.6563" y2="362.6563"/><line style="stroke:#A80036;stroke-width:1.0;" x1="115" x2="115" y1="362.6563" y2="375.6563"/><line style="stroke:#A80036;stroke-width:1.0;" x1="74" x2="115" y1="375.6563" y2="375.6563"/><polygon fill="#A80036" points="84,371.6563,74,375.6563,84,379.6563,80,375.6563" style="stroke:#A80036;stroke-width:1.0;"/><text fill="#000000" font-family="sans-serif" font-size="13" lengthAdjust="spacing" textLength="44" x="80" y="357.5903">show()</text><!--MD5=[436fa91cede9aad8172f67917405d44f]
@startuml
participant UI as UI <<presentation>>
control Controller as Controller <<application>>
participant "PersistenceContext" as PersistenceContext <<Persistence>>
database RepositoryFactory as RepositoryFactory <<repository>>
database CatallogRepository as RepositoryCatallogs <<repository>>

activate UI

UI->Controller : create()
activate Controller
UI -> Controller : listCatallogos()

Controller -> PersistenceContext: repositories()
activate PersistenceContext

PersistenceContext -> RepositoryFactory : create()
activate RepositoryFactory

deactivate PersistenceContext

RepositoryFactory -> RepositoryCatallogs : create()
deactivate RepositoryFactory

activate RepositoryCatallogs

Controller -> RepositoryCatallogs : findAll()

RepositoryCatallogs - -> Controller :allCatallogs()
deactivate RepositoryCatallogs

Controller- -> UI:
deactivate Controller

UI-> UI:show()
@enduml

PlantUML version 1.2021.6beta6(Unknown compile time)
(GPL source distribution)
Java Runtime: Java(TM) SE Runtime Environment
JVM: Java HotSpot(TM) 64-Bit Server VM
Default Encoding: UTF-8
Language: en
Country: US
--></g></svg>