<?xml version="1.0" encoding="UTF-8" standalone="no"?><svg xmlns="http://www.w3.org/2000/svg" xmlns:xlink="http://www.w3.org/1999/xlink" contentScriptType="application/ecmascript" contentStyleType="text/css" height="238px" preserveAspectRatio="none" style="width:610px;height:238px;" version="1.1" viewBox="0 0 610 238" width="610px" zoomAndPan="magnify"><defs><filter height="300%" id="f19k4bsu8x7we0" width="300%" x="-1" y="-1"><feGaussianBlur result="blurOut" stdDeviation="2.0"/><feColorMatrix in="blurOut" result="blurOut2" type="matrix" values="0 0 0 0 0 0 0 0 0 0 0 0 0 0 0 0 0 0 .4 0"/><feOffset dx="4.0" dy="4.0" in="blurOut2" result="blurOut3"/><feBlend in="SourceGraphic" in2="blurOut3" mode="normal"/></filter></defs><g><!--MD5=[99b8db98afdc2c8404e39242ef4c1e65]
class Platform--><rect codeLine="6" fill="#FEFECE" filter="url(#f19k4bsu8x7we0)" height="40" id="Platform" style="stroke:#A80036;stroke-width:1.5;" width="80" x="7" y="72"/><ellipse cx="22" cy="88" fill="#ADD1B2" rx="11" ry="11" style="stroke:#A80036;stroke-width:1.0;"/><path d="M24.3438,83.6719 C23.4063,83.2344 22.8125,83.0938 21.9375,83.0938 C19.3125,83.0938 17.3125,85.1719 17.3125,87.8906 L17.3125,89.0156 C17.3125,91.5938 19.4219,93.4844 22.3125,93.4844 C23.5313,93.4844 24.6875,93.1875 25.4375,92.6406 C26.0156,92.2344 26.3438,91.7813 26.3438,91.3906 C26.3438,90.9375 25.9531,90.5469 25.4844,90.5469 C25.2656,90.5469 25.0625,90.625 24.875,90.8125 C24.4219,91.2969 24.4219,91.2969 24.2344,91.3906 C23.8125,91.6563 23.125,91.7813 22.3594,91.7813 C20.3125,91.7813 19.0156,90.6875 19.0156,88.9844 L19.0156,87.8906 C19.0156,86.1094 20.2656,84.7969 22,84.7969 C22.5781,84.7969 23.1875,84.9531 23.6563,85.2031 C24.1406,85.4844 24.3125,85.7031 24.4063,86.1094 C24.4688,86.5156 24.5,86.6406 24.6406,86.7656 C24.7813,86.9063 25.0156,87.0156 25.2344,87.0156 C25.5,87.0156 25.7656,86.875 25.9375,86.6563 C26.0469,86.5 26.0781,86.3125 26.0781,85.8906 L26.0781,84.4688 C26.0781,84.0313 26.0625,83.9063 25.9688,83.75 C25.8125,83.4844 25.5313,83.3438 25.2344,83.3438 C24.9375,83.3438 24.7344,83.4375 24.5156,83.75 L24.3438,83.6719 Z " fill="#000000"/><text fill="#000000" font-family="sans-serif" font-size="12" lengthAdjust="spacing" textLength="48" x="36" y="92.1543">Platform</text><line style="stroke:#A80036;stroke-width:1.5;" x1="8" x2="86" y1="104" y2="104"/><!--MD5=[da547346deef918ea16944ba046651ef]
class Administrator--><rect codeLine="9" fill="#FEFECE" filter="url(#f19k4bsu8x7we0)" height="78.4141" id="Administrator" style="stroke:#A80036;stroke-width:1.5;" width="112" x="219.5" y="7"/><ellipse cx="234.5" cy="23" fill="#ADD1B2" rx="11" ry="11" style="stroke:#A80036;stroke-width:1.0;"/><path d="M236.8438,18.6719 C235.9063,18.2344 235.3125,18.0938 234.4375,18.0938 C231.8125,18.0938 229.8125,20.1719 229.8125,22.8906 L229.8125,24.0156 C229.8125,26.5938 231.9219,28.4844 234.8125,28.4844 C236.0313,28.4844 237.1875,28.1875 237.9375,27.6406 C238.5156,27.2344 238.8438,26.7813 238.8438,26.3906 C238.8438,25.9375 238.4531,25.5469 237.9844,25.5469 C237.7656,25.5469 237.5625,25.625 237.375,25.8125 C236.9219,26.2969 236.9219,26.2969 236.7344,26.3906 C236.3125,26.6563 235.625,26.7813 234.8594,26.7813 C232.8125,26.7813 231.5156,25.6875 231.5156,23.9844 L231.5156,22.8906 C231.5156,21.1094 232.7656,19.7969 234.5,19.7969 C235.0781,19.7969 235.6875,19.9531 236.1563,20.2031 C236.6406,20.4844 236.8125,20.7031 236.9063,21.1094 C236.9688,21.5156 237,21.6406 237.1406,21.7656 C237.2813,21.9063 237.5156,22.0156 237.7344,22.0156 C238,22.0156 238.2656,21.875 238.4375,21.6563 C238.5469,21.5 238.5781,21.3125 238.5781,20.8906 L238.5781,19.4688 C238.5781,19.0313 238.5625,18.9063 238.4688,18.75 C238.3125,18.4844 238.0313,18.3438 237.7344,18.3438 C237.4375,18.3438 237.2344,18.4375 237.0156,18.75 L236.8438,18.6719 Z " fill="#000000"/><text fill="#000000" font-family="sans-serif" font-size="12" lengthAdjust="spacing" textLength="80" x="248.5" y="27.1543">Administrator</text><line style="stroke:#A80036;stroke-width:1.5;" x1="220.5" x2="330.5" y1="39" y2="39"/><text fill="#000000" font-family="sans-serif" font-size="11" lengthAdjust="spacing" textLength="51" x="225.5" y="53.2104">-String id</text><text fill="#000000" font-family="sans-serif" font-size="11" lengthAdjust="spacing" textLength="74" x="225.5" y="66.0151">-String name</text><text fill="#000000" font-family="sans-serif" font-size="11" lengthAdjust="spacing" textLength="94" x="225.5" y="78.8198">-String password</text><!--MD5=[f4402668d5d5bb8485350c0fdb60ac8e]
class Scooter--><rect codeLine="15" fill="#FEFECE" filter="url(#f19k4bsu8x7we0)" height="52.8047" id="Scooter" style="stroke:#A80036;stroke-width:1.5;" width="132" x="464" y="145.5"/><ellipse cx="502.4" cy="161.5" fill="#ADD1B2" rx="11" ry="11" style="stroke:#A80036;stroke-width:1.0;"/><path d="M504.7438,157.1719 C503.8063,156.7344 503.2125,156.5938 502.3375,156.5938 C499.7125,156.5938 497.7125,158.6719 497.7125,161.3906 L497.7125,162.5156 C497.7125,165.0938 499.8219,166.9844 502.7125,166.9844 C503.9313,166.9844 505.0875,166.6875 505.8375,166.1406 C506.4156,165.7344 506.7438,165.2813 506.7438,164.8906 C506.7438,164.4375 506.3531,164.0469 505.8844,164.0469 C505.6656,164.0469 505.4625,164.125 505.275,164.3125 C504.8219,164.7969 504.8219,164.7969 504.6344,164.8906 C504.2125,165.1563 503.525,165.2813 502.7594,165.2813 C500.7125,165.2813 499.4156,164.1875 499.4156,162.4844 L499.4156,161.3906 C499.4156,159.6094 500.6656,158.2969 502.4,158.2969 C502.9781,158.2969 503.5875,158.4531 504.0563,158.7031 C504.5406,158.9844 504.7125,159.2031 504.8063,159.6094 C504.8688,160.0156 504.9,160.1406 505.0406,160.2656 C505.1813,160.4063 505.4156,160.5156 505.6344,160.5156 C505.9,160.5156 506.1656,160.375 506.3375,160.1563 C506.4469,160 506.4781,159.8125 506.4781,159.3906 L506.4781,157.9688 C506.4781,157.5313 506.4625,157.4063 506.3688,157.25 C506.2125,156.9844 505.9313,156.8438 505.6344,156.8438 C505.3375,156.8438 505.1344,156.9375 504.9156,157.25 L504.7438,157.1719 Z " fill="#000000"/><text fill="#000000" font-family="sans-serif" font-size="12" lengthAdjust="spacing" textLength="48" x="521.6" y="165.6543">Scooter</text><line style="stroke:#A80036;stroke-width:1.5;" x1="465" x2="595" y1="177.5" y2="177.5"/><text fill="#000000" font-family="sans-serif" font-size="11" lengthAdjust="spacing" textLength="120" x="470" y="191.7104">-boolean operacional</text><!--MD5=[7f2a9fafcebe4f099f71398fd3e2ed00]
class Pharmacy--><rect codeLine="19" fill="#FEFECE" filter="url(#f19k4bsu8x7we0)" height="104.0234" id="Pharmacy" style="stroke:#A80036;stroke-width:1.5;" width="119" x="216" y="120"/><ellipse cx="244.5" cy="136" fill="#ADD1B2" rx="11" ry="11" style="stroke:#A80036;stroke-width:1.0;"/><path d="M246.8438,131.6719 C245.9063,131.2344 245.3125,131.0938 244.4375,131.0938 C241.8125,131.0938 239.8125,133.1719 239.8125,135.8906 L239.8125,137.0156 C239.8125,139.5938 241.9219,141.4844 244.8125,141.4844 C246.0313,141.4844 247.1875,141.1875 247.9375,140.6406 C248.5156,140.2344 248.8438,139.7813 248.8438,139.3906 C248.8438,138.9375 248.4531,138.5469 247.9844,138.5469 C247.7656,138.5469 247.5625,138.625 247.375,138.8125 C246.9219,139.2969 246.9219,139.2969 246.7344,139.3906 C246.3125,139.6563 245.625,139.7813 244.8594,139.7813 C242.8125,139.7813 241.5156,138.6875 241.5156,136.9844 L241.5156,135.8906 C241.5156,134.1094 242.7656,132.7969 244.5,132.7969 C245.0781,132.7969 245.6875,132.9531 246.1563,133.2031 C246.6406,133.4844 246.8125,133.7031 246.9063,134.1094 C246.9688,134.5156 247,134.6406 247.1406,134.7656 C247.2813,134.9063 247.5156,135.0156 247.7344,135.0156 C248,135.0156 248.2656,134.875 248.4375,134.6563 C248.5469,134.5 248.5781,134.3125 248.5781,133.8906 L248.5781,132.4688 C248.5781,132.0313 248.5625,131.9063 248.4688,131.75 C248.3125,131.4844 248.0313,131.3438 247.7344,131.3438 C247.4375,131.3438 247.2344,131.4375 247.0156,131.75 L246.8438,131.6719 Z " fill="#000000"/><text fill="#000000" font-family="sans-serif" font-size="12" lengthAdjust="spacing" textLength="57" x="261.5" y="140.1543">Pharmacy</text><line style="stroke:#A80036;stroke-width:1.5;" x1="217" x2="334" y1="152" y2="152"/><text fill="#000000" font-family="sans-serif" font-size="11" lengthAdjust="spacing" textLength="51" x="222" y="166.2104">-String id</text><text fill="#000000" font-family="sans-serif" font-size="11" lengthAdjust="spacing" textLength="107" x="222" y="179.0151">-String designation</text><text fill="#000000" font-family="sans-serif" font-size="11" lengthAdjust="spacing" textLength="73" x="222" y="191.8198">-String email</text><text fill="#000000" font-family="sans-serif" font-size="11" lengthAdjust="spacing" textLength="85" x="222" y="204.6245">-Adress adress</text><text fill="#000000" font-family="sans-serif" font-size="11" lengthAdjust="spacing" textLength="75" x="222" y="217.4292">-ParkingLot pl</text><!--MD5=[4a07f137c208f82f57837154e1cfa51e]
link Platform to Pharmacy--><path codeLine="27" d="M87.1947,105.844 C122.647,118.365 175.341,136.977 215.816,151.2728 " fill="none" id="Platform-Pharmacy" style="stroke:#A80036;stroke-width:1.0;"/><polygon fill="#000000" points="126.7146,111.2316,119.1646,105.4481,117.2071,110.9904,126.7146,111.2316" style="stroke:#000000;stroke-width:1.0;"/><text fill="#000000" font-family="sans-serif" font-size="13" lengthAdjust="spacing" textLength="54" x="131" y="114.0669">contains</text><text fill="#000000" font-family="sans-serif" font-size="13" lengthAdjust="spacing" textLength="8" x="95.0669" y="121.7246">1</text><text fill="#000000" font-family="sans-serif" font-size="13" lengthAdjust="spacing" textLength="7" x="201.1155" y="161.7343">*</text><!--MD5=[0f7004bed4496639b3a5258ab2ead378]
link Platform to Administrator--><path codeLine="28" d="M87.1947,84.04 C123.66,76.634 178.366,65.524 219.255,57.22 " fill="none" id="Platform-Administrator" style="stroke:#A80036;stroke-width:1.0;"/><polygon fill="#000000" points="126.9,55.5713,117.4509,54.4914,118.6208,60.2516,126.9,55.5713" style="stroke:#000000;stroke-width:1.0;"/><text fill="#000000" font-family="sans-serif" font-size="13" lengthAdjust="spacing" textLength="54" x="131" y="61.0669">contains</text><text fill="#000000" font-family="sans-serif" font-size="13" lengthAdjust="spacing" textLength="8" x="95.0669" y="96.0368">1</text><text fill="#000000" font-family="sans-serif" font-size="13" lengthAdjust="spacing" textLength="7" x="204.6002" y="71.6674">*</text><!--MD5=[cf4f95b832970cfa6e3a3c87e0aa2b32]
link Pharmacy to Scooter--><path codeLine="29" d="M335.063,172 C373.524,172 423.884,172 463.647,172 " fill="none" id="Pharmacy-Scooter" style="stroke:#A80036;stroke-width:1.0;"/><polygon fill="#000000" points="375,163.5664,365.9549,160.6275,365.9549,166.5053,375,163.5664" style="stroke:#000000;stroke-width:1.0;"/><text fill="#000000" font-family="sans-serif" font-size="13" lengthAdjust="spacing" textLength="54" x="379" y="168.0669">contains</text><text fill="#000000" font-family="sans-serif" font-size="13" lengthAdjust="spacing" textLength="8" x="342.8097" y="184.9876">1</text><text fill="#000000" font-family="sans-serif" font-size="13" lengthAdjust="spacing" textLength="7" x="449.0068" y="184.9052">*</text><!--MD5=[d84692483992ea04d5f9ec1a3c5c60b2]
@startuml
skinparam classAttributeIconSize 0
hide methods
left to right direction


class Platform{
}

class Administrator{
  -String id
  -String name
  -String password
}

class Scooter {
  -boolean operacional
}

class Pharmacy {
  -String id
  -String designation
  -String email
  -Adress adress
  -ParkingLot pl
}

Platform"1" - - "*"Pharmacy : contains >
Platform"1" - - "*"Administrator : contains >
Pharmacy"1" - - "*"Scooter : contains >
@enduml

PlantUML version 1.2020.27beta7(Unknown compile time)
(GPL source distribution)
Java Runtime: Java(TM) SE Runtime Environment
JVM: Java HotSpot(TM) 64-Bit Server VM
Default Encoding: UTF-8
Language: en
Country: US
--></g></svg>