<?xml version="1.0" encoding="UTF-8" standalone="no"?><svg xmlns="http://www.w3.org/2000/svg" xmlns:xlink="http://www.w3.org/1999/xlink" contentScriptType="application/ecmascript" contentStyleType="text/css" height="1254px" preserveAspectRatio="none" style="width:540px;height:1254px;" version="1.1" viewBox="0 0 540 1254" width="540px" zoomAndPan="magnify"><defs><filter height="300%" id="f1u6xt2gt9h91f" width="300%" x="-1" y="-1"><feGaussianBlur result="blurOut" stdDeviation="2.0"/><feColorMatrix in="blurOut" result="blurOut2" type="matrix" values="0 0 0 0 0 0 0 0 0 0 0 0 0 0 0 0 0 0 .4 0"/><feOffset dx="4.0" dy="4.0" in="blurOut2" result="blurOut3"/><feBlend in="SourceGraphic" in2="blurOut3" mode="normal"/></filter></defs><g><!--MD5=[9681dc6e01e10c6b4fe06895ae94f592]
cluster UI--><polygon fill="#FFFFFF" filter="url(#f1u6xt2gt9h91f)" points="110,6,132,6,139,28.2969,258,28.2969,258,105,110,105,110,6" style="stroke:#000000;stroke-width:1.5;"/><line style="stroke:#000000;stroke-width:1.5;" x1="110" x2="139" y1="28.2969" y2="28.2969"/><text fill="#000000" font-family="sans-serif" font-size="14" font-weight="bold" lengthAdjust="spacing" textLength="16" x="114" y="20.9951">UI</text><!--MD5=[ed1d20ea533a2a0e7df5ba3c35e56ced]
cluster Controllers--><polygon fill="#FFFFFF" filter="url(#f1u6xt2gt9h91f)" points="34,138,130,138,137,160.2969,334,160.2969,334,327,34,327,34,138" style="stroke:#000000;stroke-width:1.5;"/><line style="stroke:#000000;stroke-width:1.5;" x1="34" x2="137" y1="160.2969" y2="160.2969"/><text fill="#000000" font-family="sans-serif" font-size="14" font-weight="bold" lengthAdjust="spacing" textLength="90" x="38" y="152.9951">Controllers</text><!--MD5=[121a8bf1197281ab89ed693fab589f94]
cluster Domain--><polygon fill="#FFFFFF" filter="url(#f1u6xt2gt9h91f)" points="207,360,274,360,281,382.2969,496,382.2969,496,1247,207,1247,207,360" style="stroke:#000000;stroke-width:1.5;"/><line style="stroke:#000000;stroke-width:1.5;" x1="207" x2="281" y1="382.2969" y2="382.2969"/><text fill="#000000" font-family="sans-serif" font-size="14" font-weight="bold" lengthAdjust="spacing" textLength="61" x="211" y="374.9951">Domain</text><!--MD5=[4a2e20469690effa44697b1b766d2b36]
class AddScooterUI--><rect codeLine="21" fill="#FEFECE" filter="url(#f1u6xt2gt9h91f)" height="48" id="AddScooterUI" style="stroke:#A80036;stroke-width:1.5;" width="116" x="126" y="41"/><ellipse cx="141" cy="57" fill="#ADD1B2" rx="11" ry="11" style="stroke:#A80036;stroke-width:1.0;"/><path d="M143.3438,52.6719 C142.4063,52.2344 141.8125,52.0938 140.9375,52.0938 C138.3125,52.0938 136.3125,54.1719 136.3125,56.8906 L136.3125,58.0156 C136.3125,60.5938 138.4219,62.4844 141.3125,62.4844 C142.5313,62.4844 143.6875,62.1875 144.4375,61.6406 C145.0156,61.2344 145.3438,60.7813 145.3438,60.3906 C145.3438,59.9375 144.9531,59.5469 144.4844,59.5469 C144.2656,59.5469 144.0625,59.625 143.875,59.8125 C143.4219,60.2969 143.4219,60.2969 143.2344,60.3906 C142.8125,60.6563 142.125,60.7813 141.3594,60.7813 C139.3125,60.7813 138.0156,59.6875 138.0156,57.9844 L138.0156,56.8906 C138.0156,55.1094 139.2656,53.7969 141,53.7969 C141.5781,53.7969 142.1875,53.9531 142.6563,54.2031 C143.1406,54.4844 143.3125,54.7031 143.4063,55.1094 C143.4688,55.5156 143.5,55.6406 143.6406,55.7656 C143.7813,55.9063 144.0156,56.0156 144.2344,56.0156 C144.5,56.0156 144.7656,55.875 144.9375,55.6563 C145.0469,55.5 145.0781,55.3125 145.0781,54.8906 L145.0781,53.4688 C145.0781,53.0313 145.0625,52.9063 144.9688,52.75 C144.8125,52.4844 144.5313,52.3438 144.2344,52.3438 C143.9375,52.3438 143.7344,52.4375 143.5156,52.75 L143.3438,52.6719 Z " fill="#000000"/><text fill="#000000" font-family="sans-serif" font-size="12" lengthAdjust="spacing" textLength="84" x="155" y="61.1543">AddScooterUI</text><line style="stroke:#A80036;stroke-width:1.5;" x1="127" x2="241" y1="73" y2="73"/><line style="stroke:#A80036;stroke-width:1.5;" x1="127" x2="241" y1="81" y2="81"/><!--MD5=[83f9a42a3c5740e41305507a025d3000]
class AddScooterController--><rect codeLine="24" fill="#FEFECE" filter="url(#f1u6xt2gt9h91f)" height="137.6328" id="AddScooterController" style="stroke:#A80036;stroke-width:1.5;" width="267" x="50.5" y="173"/><ellipse cx="114.25" cy="189" fill="#ADD1B2" rx="11" ry="11" style="stroke:#A80036;stroke-width:1.0;"/><path d="M116.5938,184.6719 C115.6563,184.2344 115.0625,184.0938 114.1875,184.0938 C111.5625,184.0938 109.5625,186.1719 109.5625,188.8906 L109.5625,190.0156 C109.5625,192.5938 111.6719,194.4844 114.5625,194.4844 C115.7813,194.4844 116.9375,194.1875 117.6875,193.6406 C118.2656,193.2344 118.5938,192.7813 118.5938,192.3906 C118.5938,191.9375 118.2031,191.5469 117.7344,191.5469 C117.5156,191.5469 117.3125,191.625 117.125,191.8125 C116.6719,192.2969 116.6719,192.2969 116.4844,192.3906 C116.0625,192.6563 115.375,192.7813 114.6094,192.7813 C112.5625,192.7813 111.2656,191.6875 111.2656,189.9844 L111.2656,188.8906 C111.2656,187.1094 112.5156,185.7969 114.25,185.7969 C114.8281,185.7969 115.4375,185.9531 115.9063,186.2031 C116.3906,186.4844 116.5625,186.7031 116.6563,187.1094 C116.7188,187.5156 116.75,187.6406 116.8906,187.7656 C117.0313,187.9063 117.2656,188.0156 117.4844,188.0156 C117.75,188.0156 118.0156,187.875 118.1875,187.6563 C118.2969,187.5 118.3281,187.3125 118.3281,186.8906 L118.3281,185.4688 C118.3281,185.0313 118.3125,184.9063 118.2188,184.75 C118.0625,184.4844 117.7813,184.3438 117.4844,184.3438 C117.1875,184.3438 116.9844,184.4375 116.7656,184.75 L116.5938,184.6719 Z " fill="#000000"/><text fill="#000000" font-family="sans-serif" font-size="12" lengthAdjust="spacing" textLength="131" x="134.75" y="193.1543">AddScooterController</text><line style="stroke:#A80036;stroke-width:1.5;" x1="51.5" x2="316.5" y1="205" y2="205"/><line style="stroke:#A80036;stroke-width:1.5;" x1="51.5" x2="316.5" y1="213" y2="213"/><text fill="#000000" font-family="sans-serif" font-size="11" lengthAdjust="spacing" textLength="99" x="56.5" y="227.2104">+getScooterList()</text><text fill="#000000" font-family="sans-serif" font-size="11" lengthAdjust="spacing" textLength="134" x="56.5" y="240.0151">+getScooter(scooterID)</text><text fill="#000000" font-family="sans-serif" font-size="11" lengthAdjust="spacing" textLength="110" x="56.5" y="252.8198">+getPharmacyList()</text><text fill="#000000" font-family="sans-serif" font-size="11" lengthAdjust="spacing" textLength="159" x="56.5" y="265.6245">+getPharmacy(pharmacyID)</text><text fill="#000000" font-family="sans-serif" font-size="11" lengthAdjust="spacing" textLength="208" x="56.5" y="278.4292">+getAvailableScooterList(pharmacy)</text><text fill="#000000" font-family="sans-serif" font-size="11" lengthAdjust="spacing" textLength="255" x="56.5" y="291.2339">+addAvailableScooterList(scooter,pharmacy)</text><text fill="#000000" font-family="sans-serif" font-size="11" lengthAdjust="spacing" textLength="191" x="56.5" y="304.0386">+setPharmacy(pharmacy,scooter)</text><!--MD5=[99b8db98afdc2c8404e39242ef4c1e65]
class Platform--><rect codeLine="34" fill="#FEFECE" filter="url(#f1u6xt2gt9h91f)" height="86.4141" id="Platform" style="stroke:#A80036;stroke-width:1.5;" width="208" x="272" y="395"/><ellipse cx="347.75" cy="411" fill="#ADD1B2" rx="11" ry="11" style="stroke:#A80036;stroke-width:1.0;"/><path d="M350.0938,406.6719 C349.1563,406.2344 348.5625,406.0938 347.6875,406.0938 C345.0625,406.0938 343.0625,408.1719 343.0625,410.8906 L343.0625,412.0156 C343.0625,414.5938 345.1719,416.4844 348.0625,416.4844 C349.2813,416.4844 350.4375,416.1875 351.1875,415.6406 C351.7656,415.2344 352.0938,414.7813 352.0938,414.3906 C352.0938,413.9375 351.7031,413.5469 351.2344,413.5469 C351.0156,413.5469 350.8125,413.625 350.625,413.8125 C350.1719,414.2969 350.1719,414.2969 349.9844,414.3906 C349.5625,414.6563 348.875,414.7813 348.1094,414.7813 C346.0625,414.7813 344.7656,413.6875 344.7656,411.9844 L344.7656,410.8906 C344.7656,409.1094 346.0156,407.7969 347.75,407.7969 C348.3281,407.7969 348.9375,407.9531 349.4063,408.2031 C349.8906,408.4844 350.0625,408.7031 350.1563,409.1094 C350.2188,409.5156 350.25,409.6406 350.3906,409.7656 C350.5313,409.9063 350.7656,410.0156 350.9844,410.0156 C351.25,410.0156 351.5156,409.875 351.6875,409.6563 C351.7969,409.5 351.8281,409.3125 351.8281,408.8906 L351.8281,407.4688 C351.8281,407.0313 351.8125,406.9063 351.7188,406.75 C351.5625,406.4844 351.2813,406.3438 350.9844,406.3438 C350.6875,406.3438 350.4844,406.4375 350.2656,406.75 L350.0938,406.6719 Z " fill="#000000"/><text fill="#000000" font-family="sans-serif" font-size="12" lengthAdjust="spacing" textLength="48" x="368.25" y="415.1543">Platform</text><line style="stroke:#A80036;stroke-width:1.5;" x1="273" x2="479" y1="427" y2="427"/><line style="stroke:#A80036;stroke-width:1.5;" x1="273" x2="479" y1="435" y2="435"/><text fill="#000000" font-family="sans-serif" font-size="11" lengthAdjust="spacing" textLength="99" x="278" y="449.2104">+getScooterList()</text><text fill="#000000" font-family="sans-serif" font-size="11" lengthAdjust="spacing" textLength="110" x="278" y="462.0151">+getPharmacyList()</text><text fill="#000000" font-family="sans-serif" font-size="11" lengthAdjust="spacing" textLength="196" x="278" y="474.8198">+addAvailableScooterList(scooter)</text><!--MD5=[f4402668d5d5bb8485350c0fdb60ac8e]
class Scooter--><rect codeLine="40" fill="#FEFECE" filter="url(#f1u6xt2gt9h91f)" height="124.8281" id="Scooter" style="stroke:#A80036;stroke-width:1.5;" width="203" x="223.5" y="1106"/><ellipse cx="296.75" cy="1122" fill="#ADD1B2" rx="11" ry="11" style="stroke:#A80036;stroke-width:1.0;"/><path d="M299.0938,1117.6719 C298.1563,1117.2344 297.5625,1117.0938 296.6875,1117.0938 C294.0625,1117.0938 292.0625,1119.1719 292.0625,1121.8906 L292.0625,1123.0156 C292.0625,1125.5938 294.1719,1127.4844 297.0625,1127.4844 C298.2813,1127.4844 299.4375,1127.1875 300.1875,1126.6406 C300.7656,1126.2344 301.0938,1125.7813 301.0938,1125.3906 C301.0938,1124.9375 300.7031,1124.5469 300.2344,1124.5469 C300.0156,1124.5469 299.8125,1124.625 299.625,1124.8125 C299.1719,1125.2969 299.1719,1125.2969 298.9844,1125.3906 C298.5625,1125.6563 297.875,1125.7813 297.1094,1125.7813 C295.0625,1125.7813 293.7656,1124.6875 293.7656,1122.9844 L293.7656,1121.8906 C293.7656,1120.1094 295.0156,1118.7969 296.75,1118.7969 C297.3281,1118.7969 297.9375,1118.9531 298.4063,1119.2031 C298.8906,1119.4844 299.0625,1119.7031 299.1563,1120.1094 C299.2188,1120.5156 299.25,1120.6406 299.3906,1120.7656 C299.5313,1120.9063 299.7656,1121.0156 299.9844,1121.0156 C300.25,1121.0156 300.5156,1120.875 300.6875,1120.6563 C300.7969,1120.5 300.8281,1120.3125 300.8281,1119.8906 L300.8281,1118.4688 C300.8281,1118.0313 300.8125,1117.9063 300.7188,1117.75 C300.5625,1117.4844 300.2813,1117.3438 299.9844,1117.3438 C299.6875,1117.3438 299.4844,1117.4375 299.2656,1117.75 L299.0938,1117.6719 Z " fill="#000000"/><text fill="#000000" font-family="sans-serif" font-size="12" lengthAdjust="spacing" textLength="48" x="317.25" y="1126.1543">Scooter</text><line style="stroke:#A80036;stroke-width:1.5;" x1="224.5" x2="425.5" y1="1138" y2="1138"/><text fill="#000000" font-family="sans-serif" font-size="11" lengthAdjust="spacing" textLength="149" x="229.5" y="1152.2104">-Integer exclusiveNumber</text><text fill="#000000" font-family="sans-serif" font-size="11" lengthAdjust="spacing" textLength="130" x="229.5" y="1165.0151">-Double currentCharge</text><text fill="#000000" font-family="sans-serif" font-size="11" lengthAdjust="spacing" textLength="107" x="229.5" y="1177.8198">-Double fullCharge</text><text fill="#000000" font-family="sans-serif" font-size="11" lengthAdjust="spacing" textLength="119" x="229.5" y="1190.6245">-Boolean operational</text><text fill="#000000" font-family="sans-serif" font-size="11" lengthAdjust="spacing" textLength="44" x="229.5" y="1203.4292">-crCode</text><line style="stroke:#A80036;stroke-width:1.5;" x1="224.5" x2="425.5" y1="1210.0234" y2="1210.0234"/><text fill="#000000" font-family="sans-serif" font-size="11" lengthAdjust="spacing" textLength="191" x="229.5" y="1224.2339">+setPharmacy(pharmacy,scooter)</text><!--MD5=[1ffba045a97e00fe0441b5d36d8a1265]
class ScooterList--><rect codeLine="49" fill="#FEFECE" filter="url(#f1u6xt2gt9h91f)" height="73.6094" id="ScooterList" style="stroke:#A80036;stroke-width:1.5;" width="146" x="223" y="662"/><ellipse cx="258.7" cy="678" fill="#ADD1B2" rx="11" ry="11" style="stroke:#A80036;stroke-width:1.0;"/><path d="M261.0438,673.6719 C260.1063,673.2344 259.5125,673.0938 258.6375,673.0938 C256.0125,673.0938 254.0125,675.1719 254.0125,677.8906 L254.0125,679.0156 C254.0125,681.5938 256.1219,683.4844 259.0125,683.4844 C260.2313,683.4844 261.3875,683.1875 262.1375,682.6406 C262.7156,682.2344 263.0438,681.7813 263.0438,681.3906 C263.0438,680.9375 262.6531,680.5469 262.1844,680.5469 C261.9656,680.5469 261.7625,680.625 261.575,680.8125 C261.1219,681.2969 261.1219,681.2969 260.9344,681.3906 C260.5125,681.6563 259.825,681.7813 259.0594,681.7813 C257.0125,681.7813 255.7156,680.6875 255.7156,678.9844 L255.7156,677.8906 C255.7156,676.1094 256.9656,674.7969 258.7,674.7969 C259.2781,674.7969 259.8875,674.9531 260.3563,675.2031 C260.8406,675.4844 261.0125,675.7031 261.1063,676.1094 C261.1688,676.5156 261.2,676.6406 261.3406,676.7656 C261.4813,676.9063 261.7156,677.0156 261.9344,677.0156 C262.2,677.0156 262.4656,676.875 262.6375,676.6563 C262.7469,676.5 262.7781,676.3125 262.7781,675.8906 L262.7781,674.4688 C262.7781,674.0313 262.7625,673.9063 262.6688,673.75 C262.5125,673.4844 262.2313,673.3438 261.9344,673.3438 C261.6375,673.3438 261.4344,673.4375 261.2156,673.75 L261.0438,673.6719 Z " fill="#000000"/><text fill="#000000" font-family="sans-serif" font-size="12" lengthAdjust="spacing" textLength="68" x="277.3" y="682.1543">ScooterList</text><line style="stroke:#A80036;stroke-width:1.5;" x1="224" x2="368" y1="694" y2="694"/><line style="stroke:#A80036;stroke-width:1.5;" x1="224" x2="368" y1="702" y2="702"/><text fill="#000000" font-family="sans-serif" font-size="11" lengthAdjust="spacing" textLength="99" x="229" y="716.2104">+getScooterList()</text><text fill="#000000" font-family="sans-serif" font-size="11" lengthAdjust="spacing" textLength="134" x="229" y="729.0151">+getScooter(scooterID)</text><!--MD5=[42d4ce5b8634ebc35ddaa1f26f987bcd]
class AvailaleScooterList--><rect codeLine="54" fill="#FEFECE" filter="url(#f1u6xt2gt9h91f)" height="60.8047" id="AvailaleScooterList" style="stroke:#A80036;stroke-width:1.5;" width="208" x="272" y="968"/><ellipse cx="314.9" cy="984" fill="#ADD1B2" rx="11" ry="11" style="stroke:#A80036;stroke-width:1.0;"/><path d="M317.2438,979.6719 C316.3063,979.2344 315.7125,979.0938 314.8375,979.0938 C312.2125,979.0938 310.2125,981.1719 310.2125,983.8906 L310.2125,985.0156 C310.2125,987.5938 312.3219,989.4844 315.2125,989.4844 C316.4313,989.4844 317.5875,989.1875 318.3375,988.6406 C318.9156,988.2344 319.2438,987.7813 319.2438,987.3906 C319.2438,986.9375 318.8531,986.5469 318.3844,986.5469 C318.1656,986.5469 317.9625,986.625 317.775,986.8125 C317.3219,987.2969 317.3219,987.2969 317.1344,987.3906 C316.7125,987.6563 316.025,987.7813 315.2594,987.7813 C313.2125,987.7813 311.9156,986.6875 311.9156,984.9844 L311.9156,983.8906 C311.9156,982.1094 313.1656,980.7969 314.9,980.7969 C315.4781,980.7969 316.0875,980.9531 316.5563,981.2031 C317.0406,981.4844 317.2125,981.7031 317.3063,982.1094 C317.3688,982.5156 317.4,982.6406 317.5406,982.7656 C317.6813,982.9063 317.9156,983.0156 318.1344,983.0156 C318.4,983.0156 318.6656,982.875 318.8375,982.6563 C318.9469,982.5 318.9781,982.3125 318.9781,981.8906 L318.9781,980.4688 C318.9781,980.0313 318.9625,979.9063 318.8688,979.75 C318.7125,979.4844 318.4313,979.3438 318.1344,979.3438 C317.8375,979.3438 317.6344,979.4375 317.4156,979.75 L317.2438,979.6719 Z " fill="#000000"/><text fill="#000000" font-family="sans-serif" font-size="12" lengthAdjust="spacing" textLength="114" x="335.1" y="988.1543">AvailaleScooterList</text><line style="stroke:#A80036;stroke-width:1.5;" x1="273" x2="479" y1="1000" y2="1000"/><line style="stroke:#A80036;stroke-width:1.5;" x1="273" x2="479" y1="1008" y2="1008"/><text fill="#000000" font-family="sans-serif" font-size="11" lengthAdjust="spacing" textLength="196" x="278" y="1022.2104">+addAvailableScooterList(scooter)</text><!--MD5=[7f2a9fafcebe4f099f71398fd3e2ed00]
class Pharmacy--><rect codeLine="58" fill="#FEFECE" filter="url(#f1u6xt2gt9h91f)" height="124.8281" id="Pharmacy" style="stroke:#A80036;stroke-width:1.5;" width="220" x="260" y="766"/><ellipse cx="337.25" cy="782" fill="#ADD1B2" rx="11" ry="11" style="stroke:#A80036;stroke-width:1.0;"/><path d="M339.5938,777.6719 C338.6563,777.2344 338.0625,777.0938 337.1875,777.0938 C334.5625,777.0938 332.5625,779.1719 332.5625,781.8906 L332.5625,783.0156 C332.5625,785.5938 334.6719,787.4844 337.5625,787.4844 C338.7813,787.4844 339.9375,787.1875 340.6875,786.6406 C341.2656,786.2344 341.5938,785.7813 341.5938,785.3906 C341.5938,784.9375 341.2031,784.5469 340.7344,784.5469 C340.5156,784.5469 340.3125,784.625 340.125,784.8125 C339.6719,785.2969 339.6719,785.2969 339.4844,785.3906 C339.0625,785.6563 338.375,785.7813 337.6094,785.7813 C335.5625,785.7813 334.2656,784.6875 334.2656,782.9844 L334.2656,781.8906 C334.2656,780.1094 335.5156,778.7969 337.25,778.7969 C337.8281,778.7969 338.4375,778.9531 338.9063,779.2031 C339.3906,779.4844 339.5625,779.7031 339.6563,780.1094 C339.7188,780.5156 339.75,780.6406 339.8906,780.7656 C340.0313,780.9063 340.2656,781.0156 340.4844,781.0156 C340.75,781.0156 341.0156,780.875 341.1875,780.6563 C341.2969,780.5 341.3281,780.3125 341.3281,779.8906 L341.3281,778.4688 C341.3281,778.0313 341.3125,777.9063 341.2188,777.75 C341.0625,777.4844 340.7813,777.3438 340.4844,777.3438 C340.1875,777.3438 339.9844,777.4375 339.7656,777.75 L339.5938,777.6719 Z " fill="#000000"/><text fill="#000000" font-family="sans-serif" font-size="12" lengthAdjust="spacing" textLength="57" x="357.75" y="786.1543">Pharmacy</text><line style="stroke:#A80036;stroke-width:1.5;" x1="261" x2="479" y1="798" y2="798"/><text fill="#000000" font-family="sans-serif" font-size="11" lengthAdjust="spacing" textLength="51" x="266" y="812.2104">-String id</text><text fill="#000000" font-family="sans-serif" font-size="11" lengthAdjust="spacing" textLength="107" x="266" y="825.0151">-String designation</text><text fill="#000000" font-family="sans-serif" font-size="11" lengthAdjust="spacing" textLength="73" x="266" y="837.8198">-String email</text><text fill="#000000" font-family="sans-serif" font-size="11" lengthAdjust="spacing" textLength="85" x="266" y="850.6245">-Adress adress</text><text fill="#000000" font-family="sans-serif" font-size="11" lengthAdjust="spacing" textLength="75" x="266" y="863.4292">-ParkingLot pl</text><line style="stroke:#A80036;stroke-width:1.5;" x1="261" x2="479" y1="870.0234" y2="870.0234"/><text fill="#000000" font-family="sans-serif" font-size="11" lengthAdjust="spacing" textLength="208" x="266" y="884.2339">+getAvailableScooterList(pharmacy)</text><!--MD5=[8050ef462d77cf220fd706493bc05cc9]
class PharmacyList--><rect codeLine="67" fill="#FEFECE" filter="url(#f1u6xt2gt9h91f)" height="73.6094" id="PharmacyList" style="stroke:#A80036;stroke-width:1.5;" width="171" x="308.5" y="558"/><ellipse cx="351.4" cy="574" fill="#ADD1B2" rx="11" ry="11" style="stroke:#A80036;stroke-width:1.0;"/><path d="M353.7438,569.6719 C352.8063,569.2344 352.2125,569.0938 351.3375,569.0938 C348.7125,569.0938 346.7125,571.1719 346.7125,573.8906 L346.7125,575.0156 C346.7125,577.5938 348.8219,579.4844 351.7125,579.4844 C352.9313,579.4844 354.0875,579.1875 354.8375,578.6406 C355.4156,578.2344 355.7438,577.7813 355.7438,577.3906 C355.7438,576.9375 355.3531,576.5469 354.8844,576.5469 C354.6656,576.5469 354.4625,576.625 354.275,576.8125 C353.8219,577.2969 353.8219,577.2969 353.6344,577.3906 C353.2125,577.6563 352.525,577.7813 351.7594,577.7813 C349.7125,577.7813 348.4156,576.6875 348.4156,574.9844 L348.4156,573.8906 C348.4156,572.1094 349.6656,570.7969 351.4,570.7969 C351.9781,570.7969 352.5875,570.9531 353.0563,571.2031 C353.5406,571.4844 353.7125,571.7031 353.8063,572.1094 C353.8688,572.5156 353.9,572.6406 354.0406,572.7656 C354.1813,572.9063 354.4156,573.0156 354.6344,573.0156 C354.9,573.0156 355.1656,572.875 355.3375,572.6563 C355.4469,572.5 355.4781,572.3125 355.4781,571.8906 L355.4781,570.4688 C355.4781,570.0313 355.4625,569.9063 355.3688,569.75 C355.2125,569.4844 354.9313,569.3438 354.6344,569.3438 C354.3375,569.3438 354.1344,569.4375 353.9156,569.75 L353.7438,569.6719 Z " fill="#000000"/><text fill="#000000" font-family="sans-serif" font-size="12" lengthAdjust="spacing" textLength="77" x="371.6" y="578.1543">PharmacyList</text><line style="stroke:#A80036;stroke-width:1.5;" x1="309.5" x2="478.5" y1="590" y2="590"/><line style="stroke:#A80036;stroke-width:1.5;" x1="309.5" x2="478.5" y1="598" y2="598"/><text fill="#000000" font-family="sans-serif" font-size="11" lengthAdjust="spacing" textLength="110" x="314.5" y="612.2104">+getPharmacyList()</text><text fill="#000000" font-family="sans-serif" font-size="11" lengthAdjust="spacing" textLength="159" x="314.5" y="625.0151">+getPharmacy(pharmacyID)</text><!--MD5=[8ce84a6c1b75cf9d0a0a09affc8d940a]
link AddScooterUI to AddScooterController--><path codeLine="72" d="M184,89.24 C184,109.28 184,139.35 184,167.45 " fill="none" id="AddScooterUI-to-AddScooterController" style="stroke:#A80036;stroke-width:1.0;stroke-dasharray:7.0,7.0;"/><polygon fill="#A80036" points="184,172.67,188,163.67,184,167.67,180,163.67,184,172.67" style="stroke:#A80036;stroke-width:1.0;"/><!--MD5=[3da5f2550857f23192452547558e4af1]
link AddScooterController to Platform--><path codeLine="73" d="M251.422,311.124 C277.576,337.551 306.844,367.124 330.437,390.962 " fill="none" id="AddScooterController-to-Platform" style="stroke:#A80036;stroke-width:1.0;stroke-dasharray:7.0,7.0;"/><polygon fill="#A80036" points="334.173,394.737,330.6839,385.5269,330.6554,391.1837,324.9986,391.1551,334.173,394.737" style="stroke:#A80036;stroke-width:1.0;"/><!--MD5=[d27ba99e654bec212c81610f9fad28db]
link AddScooterController to ScooterList--><path codeLine="74" d="M181.481,311.174 C181.276,359.3 184.192,424.935 198,481 C213.928,545.674 248.629,614.901 272.161,657.329 " fill="none" id="AddScooterController-to-ScooterList" style="stroke:#A80036;stroke-width:1.0;stroke-dasharray:7.0,7.0;"/><polygon fill="#A80036" points="274.687,661.858,273.7965,652.0495,272.2515,657.4913,266.8097,655.9463,274.687,661.858" style="stroke:#A80036;stroke-width:1.0;"/><!--MD5=[081d9f28631ae703d0e15f052b62379c]
link AddScooterController to AvailaleScooterList--><path codeLine="75" d="M317.934,262.67 C416.354,285.594 533,334.403 533,437 C533,437 533,437 533,829.5 C533,888.863 480.026,935.946 435.621,964.986 " fill="none" id="AddScooterController-to-AvailaleScooterList" style="stroke:#A80036;stroke-width:1.0;stroke-dasharray:7.0,7.0;"/><polygon fill="#A80036" points="431.352,967.74,441.083,966.2207,435.5531,965.0288,436.745,959.4989,431.352,967.74" style="stroke:#A80036;stroke-width:1.0;"/><!--MD5=[f80a3f2c3ebc209fcf08aa9ee9bd3d13]
link AddScooterController to PharmacyList--><path codeLine="76" d="M195.462,311.125 C205.769,360.566 224.009,427.823 254,481 C270.895,510.957 299.156,536.049 325.881,554.919 " fill="none" id="AddScooterController-to-PharmacyList" style="stroke:#A80036;stroke-width:1.0;stroke-dasharray:7.0,7.0;"/><polygon fill="#A80036" points="330.155,557.894,325.0552,549.4683,326.0519,555.0367,320.4835,556.0333,330.155,557.894" style="stroke:#A80036;stroke-width:1.0;"/><!--MD5=[2e30d946f62d132f67fd1852a7ac19f6]
link AddScooterController to Pharmacy--><path codeLine="77" d="M166.296,311.147 C144.035,413.03 118.391,606.868 205,736 C217.722,754.968 235.754,770.392 255.26,782.794 " fill="none" id="AddScooterController-to-Pharmacy" style="stroke:#A80036;stroke-width:1.0;stroke-dasharray:7.0,7.0;"/><polygon fill="#A80036" points="259.71,785.556,254.1728,777.4111,255.4618,782.9191,249.9538,784.2081,259.71,785.556" style="stroke:#A80036;stroke-width:1.0;"/><!--MD5=[44fb0131b2faf2ccf481dd08f7d64e86]
link AddScooterController to Scooter--><path codeLine="78" d="M76.606,311.042 C39.0139,343.635 6,386.605 6,437 C6,437 6,437 6,999.5 C6,1097.581 125.517,1138.535 218.239,1155.549 " fill="none" id="AddScooterController-to-Scooter" style="stroke:#A80036;stroke-width:1.0;stroke-dasharray:7.0,7.0;"/><polygon fill="#A80036" points="223.189,1156.44,215.0398,1150.9091,218.2681,1155.5544,213.6228,1158.7826,223.189,1156.44" style="stroke:#A80036;stroke-width:1.0;"/><!--MD5=[2bc5a413d94b08902b9f3d0151eb30f1]
link Platform to PharmacyList--><path codeLine="80" d="M380.919,481.354 C383.698,505.287 387.136,534.892 389.79,557.745 " fill="none" id="Platform-PharmacyList" style="stroke:#A80036;stroke-width:1.0;"/><text fill="#000000" font-family="sans-serif" font-size="13" lengthAdjust="spacing" textLength="33" x="387" y="524.0669">has&gt;</text><text fill="#000000" font-family="sans-serif" font-size="13" lengthAdjust="spacing" textLength="8" x="373.0655" y="501.5033">1</text><text fill="#000000" font-family="sans-serif" font-size="13" lengthAdjust="spacing" textLength="8" x="380.3276" y="546.8865">1</text><!--MD5=[bb04093b5f10ef8bbb871e48ac5d89eb]
link Platform to ScooterList--><path codeLine="81" d="M336.053,481.132 C318.599,502.425 300.065,529.712 291,558 C280.089,592.046 283.358,633.154 288.119,661.988 " fill="none" id="Platform-ScooterList" style="stroke:#A80036;stroke-width:1.0;"/><text fill="#000000" font-family="sans-serif" font-size="13" lengthAdjust="spacing" textLength="33" x="315" y="524.0669">has&gt;</text><text fill="#000000" font-family="sans-serif" font-size="13" lengthAdjust="spacing" textLength="8" x="320.7743" y="501.5615">1</text><text fill="#000000" font-family="sans-serif" font-size="13" lengthAdjust="spacing" textLength="8" x="277.9284" y="650.8962">1</text><!--MD5=[dcb9e7f24fda9389b72d4bf35ba5a068]
link PharmacyList to Pharmacy--><path codeLine="82" d="M390.25,632.172 C386.545,667.906 380.808,723.251 376.384,765.918 " fill="none" id="PharmacyList-Pharmacy" style="stroke:#A80036;stroke-width:1.0;"/><text fill="#000000" font-family="sans-serif" font-size="13" lengthAdjust="spacing" textLength="33" x="387" y="703.5669">has&gt;</text><text fill="#000000" font-family="sans-serif" font-size="13" lengthAdjust="spacing" textLength="8" x="380.9664" y="651.681">1</text><text fill="#000000" font-family="sans-serif" font-size="13" lengthAdjust="spacing" textLength="23" x="352.7925" y="754.8993">1..*</text><!--MD5=[04d2848317350807d88a604c6d6295d2]
link Pharmacy to AvailaleScooterList--><path codeLine="83" d="M372.2,891.103 C373.137,917.324 374.185,946.686 374.943,967.912 " fill="none" id="Pharmacy-AvailaleScooterList" style="stroke:#A80036;stroke-width:1.0;"/><text fill="#000000" font-family="sans-serif" font-size="13" lengthAdjust="spacing" textLength="33" x="374" y="934.0669">has&gt;</text><text fill="#000000" font-family="sans-serif" font-size="13" lengthAdjust="spacing" textLength="8" x="364.0031" y="910.8541">1</text><text fill="#000000" font-family="sans-serif" font-size="13" lengthAdjust="spacing" textLength="8" x="365.9" y="957.1571">1</text><!--MD5=[6f4c8b666f699595ad581822bcc3a4b8]
link ScooterList to Scooter--><path codeLine="84" d="M259.062,736.286 C252.079,745.281 245.783,755.403 242,766 C202.663,876.2 221.639,916.554 254,1029 C261.585,1055.356 274.317,1082.585 286.921,1105.851 " fill="none" id="ScooterList-Scooter" style="stroke:#A80036;stroke-width:1.0;"/><text fill="#000000" font-family="sans-serif" font-size="13" lengthAdjust="spacing" textLength="33" x="230" y="934.0669">has&gt;</text><text fill="#000000" font-family="sans-serif" font-size="13" lengthAdjust="spacing" textLength="8" x="244.0915" y="755.6935">1</text><text fill="#000000" font-family="sans-serif" font-size="13" lengthAdjust="spacing" textLength="23" x="258.1884" y="1094.8245">1..*</text><!--MD5=[551975f013724564ee356235e864c40f]
link AvailaleScooterList to Scooter--><path codeLine="85" d="M367,1029.148 C360.566,1050.343 351.675,1079.628 343.731,1105.799 " fill="none" id="AvailaleScooterList-Scooter" style="stroke:#A80036;stroke-width:1.0;"/><text fill="#000000" font-family="sans-serif" font-size="13" lengthAdjust="spacing" textLength="33" x="357" y="1072.0669">has&gt;</text><text fill="#000000" font-family="sans-serif" font-size="13" lengthAdjust="spacing" textLength="8" x="356.4406" y="1048.7576">1</text><text fill="#000000" font-family="sans-serif" font-size="13" lengthAdjust="spacing" textLength="23" x="321.5671" y="1094.7665">1..*</text><!--MD5=[4ad959577efbb629ac567a4f6842e602]
@startuml
skinparam classAttributeIconSize 0

package UI <<Folder>> {
  class AddScooterUI
}

package Controllers <<Folder>> {
  class AddScooterController
}

package Domain <<Folder>> {
  class Platform
  class Scooter
  class ScooterList
  class AvailaleScooterList
  class Pharmacy
  class PharmacyList

}

class AddScooterUI {
}

class AddScooterController {
  +getScooterList()
  +getScooter(scooterID)
  +getPharmacyList()
  +getPharmacy(pharmacyID)
  +getAvailableScooterList(pharmacy)
  +addAvailableScooterList(scooter,pharmacy)
  +setPharmacy(pharmacy,scooter)
}

class Platform {
  +getScooterList()
  +getPharmacyList()
  +addAvailableScooterList(scooter)
}

class Scooter {
-Integer exclusiveNumber
-Double currentCharge
-Double fullCharge
-Boolean operational
-crCode
+setPharmacy(pharmacy,scooter)
}

class ScooterList{
  +getScooterList()
  +getScooter(scooterID)
}

class AvailaleScooterList{
  +addAvailableScooterList(scooter)
}

class Pharmacy{
  -String id
  -String designation
  -String email
  -Adress adress
  -ParkingLot pl
  +getAvailableScooterList(pharmacy)
}

class PharmacyList{
  +getPharmacyList()
  +getPharmacy(pharmacyID)
}

AddScooterUI ..> AddScooterController
AddScooterController ..> Platform
AddScooterController ..> ScooterList
AddScooterController ..> AvailaleScooterList
AddScooterController ..> PharmacyList
AddScooterController ..> Pharmacy
AddScooterController ..> Scooter

Platform"1" - - "1" PharmacyList : has>
Platform"1" - - "1" ScooterList : has>
PharmacyList"1" - - "1..*" Pharmacy : has>
Pharmacy"1" - - "1" AvailaleScooterList : has>
ScooterList"1" - - "1..*" Scooter : has>
AvailaleScooterList"1" - - "1..*" Scooter : has>
@enduml

PlantUML version 1.2020.27beta7(Unknown compile time)
(GPL source distribution)
Java Runtime: Java(TM) SE Runtime Environment
JVM: Java HotSpot(TM) 64-Bit Server VM
Default Encoding: UTF-8
Language: en
Country: US
--></g></svg>